<?xml version="1.0" encoding="UTF-8"?>
<svg xmlns="http://www.w3.org/2000/svg" viewBox="0 0 115.87 103.18">
  <defs>
    <style>
      .cls-1 {
        stroke-width: 1.61px;
      }

      .cls-1, .cls-2, .cls-3, .cls-4, .cls-5, .cls-6, .cls-7, .cls-8, .cls-9, .cls-10, .cls-11, .cls-12, .cls-13 {
        stroke-miterlimit: 10;
      }

      .cls-1, .cls-3, .cls-8, .cls-10, .cls-11, .cls-13 {
        stroke: #59524b;
      }

      .cls-1, .cls-8, .cls-13 {
        fill: #d3eaea;
      }

      .cls-2 {
        stroke-width: 1.12px;
      }

      .cls-2, .cls-4, .cls-9, .cls-12 {
        stroke: #465f68;
      }

      .cls-2, .cls-9 {
        fill: #4f6b77;
      }

      .cls-3 {
        stroke-width: .89px;
      }

      .cls-3, .cls-4, .cls-7, .cls-10, .cls-11, .cls-12 {
        fill: none;
      }

      .cls-14 {
        fill: #877c51;
      }

      .cls-15 {
        fill: #59524b;
      }

      .cls-5 {
        fill: #99c0d1;
        stroke: #6f8a93;
      }

      .cls-5, .cls-7 {
        stroke-width: .81px;
      }

      .cls-6 {
        opacity: .42;
        stroke: #919a9b;
      }

      .cls-6, .cls-16 {
        fill: #f3fffe;
      }

      .cls-17 {
        fill: #d9d0c4;
      }

      .cls-7 {
        stroke: #88abb7;
      }

      .cls-18 {
        fill: #d1bf74;
      }

      .cls-8 {
        stroke-width: .5px;
      }

      .cls-9, .cls-12 {
        stroke-width: .4px;
      }

      .cls-10 {
        stroke-width: 1.25px;
      }

      .cls-11 {
        stroke-width: 2.37px;
      }

      .cls-19 {
        fill: #88abb7;
      }

      .cls-13 {
        stroke-width: 1.78px;
      }

      .cls-16 {
        opacity: .31;
      }
    </style>
  </defs>
  <g id="house">
    <ellipse class="cls-17" cx="57.91" cy="92.6" rx="57.44" ry="8.79"/>
    <polygon class="cls-6" points="45.38 93.54 68.66 93.54 74.24 100.02 49.26 100.02 45.38 93.54"/>
  </g>
  <g id="Layer_100" data-name="Layer 100">
    <path class="cls-5" d="M102.61,92.69H13.5c0-22.22,0-44.44,0-66.66,1-.64,2.01-1.28,3.01-1.91,2.28-.7,4.56-1.4,6.84-2.1,11.36-5.11,22.72-10.22,34.09-15.32,11.73,5.11,23.46,10.22,35.2,15.32,2.56.78,5.12,1.55,7.68,2.33l2.3,1.03v67.32Z"/>
    <path class="cls-19" d="M13.87,29.76c.01,3.13.03,6.25.04,9.38L57.52,14.74c14.9,8.25,29.8,16.49,44.69,24.74,0-3.01.01-6.03.02-9.04-14.9-8.26-29.81-16.52-44.71-24.79-14.55,8.04-29.1,16.08-43.64,24.12Z"/>
    <path class="cls-19" d="M40.95,58.73c0,1.42,0,2.85.01,4.27,5.4-3.71,10.8-7.41,16.2-11.12,5.53,3.76,11.07,7.51,16.6,11.27,0-1.37,0-2.75,0-4.12-5.54-3.76-11.07-7.53-16.61-11.29-5.4,3.66-10.81,7.32-16.21,10.99Z"/>
    <path class="cls-7" d="M79.7,36.88v15.48h15.13"/>
    <path class="cls-7" d="M20.65,36.88v15.48h15.13"/>
    <path class="cls-7" d="M79.7,65.77v15.48h15.13"/>
    <path class="cls-7" d="M20.65,65.77v15.48h15.13"/>
    <path class="cls-2" d="M57.57.04C41.12,9.47,24.67,18.9,8.22,28.33c.04,2.92.09,5.85.13,8.77h0c16.39-9.21,32.78-18.42,49.16-27.63,16.76,9.21,33.51,18.42,50.27,27.63h0l.11-8.77C91.11,18.9,74.34,9.47,57.57.04Z"/>
    <path class="cls-9" d="M57.21,46.66c-5.37,3.77-10.74,7.55-16.11,11.32.01,1.17.03,2.34.04,3.51h0c5.35-3.69,10.7-7.37,16.04-11.06,5.47,3.69,10.94,7.37,16.4,11.06h0l.04-3.51c-5.47-3.77-10.95-7.55-16.42-11.32Z"/>
    <line class="cls-12" x1="57.19" y1="46.66" x2="57.19" y2="50.32"/>
    <line class="cls-4" x1="57.54" y1="1.64" x2="57.54" y2="8.83"/>
    <rect class="cls-8" x="80.4" y="37.08" width="14.49" height="14.61"/>
    <path class="cls-16" d="M80.45,48.88c4.2-3.88,8.41-7.77,12.61-11.65.56-.01,1.11-.02,1.67-.04-4.48,4.85-8.95,9.69-13.43,14.54-.28,0-.56.01-.84.02,0-.96-.01-1.91-.02-2.87Z"/>
    <path class="cls-16" d="M80.47,41.92c2.05-1.63,4.09-3.25,6.14-4.88.26.01.51.03.77.04-2.33,2.18-4.66,4.36-6.98,6.54,0-.13,0-.26,0-.39.03-.44.05-.88.08-1.32Z"/>
    <rect class="cls-3" x="80.4" y="37.08" width="14.49" height="14.61"/>
    <rect class="cls-3" x="80.4" y="37.08" width="14.49" height="14.61"/>
    <line class="cls-3" x1="87.61" y1="36.81" x2="87.61" y2="51.95"/>
    <line class="cls-3" x1="95.23" y1="44.43" x2="80.09" y2="44.43"/>
    <rect class="cls-8" x="21.35" y="37.08" width="14.49" height="14.61"/>
    <path class="cls-16" d="M21.4,48.88c4.2-3.88,8.41-7.77,12.61-11.65.56-.01,1.11-.02,1.67-.04-4.48,4.85-8.95,9.69-13.43,14.54-.28,0-.56.01-.84.02,0-.96-.01-1.91-.02-2.87Z"/>
    <path class="cls-16" d="M21.43,41.92c2.05-1.63,4.09-3.25,6.14-4.88.26.01.51.03.77.04-2.33,2.18-4.66,4.36-6.98,6.54,0-.13,0-.26,0-.39.03-.44.05-.88.08-1.32Z"/>
    <rect class="cls-3" x="21.35" y="37.08" width="14.49" height="14.61"/>
    <rect class="cls-3" x="21.35" y="37.08" width="14.49" height="14.61"/>
    <line class="cls-3" x1="28.56" y1="36.81" x2="28.56" y2="51.95"/>
    <line class="cls-3" x1="36.19" y1="44.43" x2="21.05" y2="44.43"/>
    <rect class="cls-8" x="80.4" y="65.97" width="14.49" height="14.61"/>
    <path class="cls-16" d="M80.45,77.77c4.2-3.88,8.41-7.77,12.61-11.65.56-.01,1.11-.02,1.67-.04-4.48,4.85-8.95,9.69-13.43,14.54-.28,0-.56.01-.84.02,0-.96-.01-1.91-.02-2.87Z"/>
    <path class="cls-16" d="M80.47,70.81c2.05-1.63,4.09-3.25,6.14-4.88.26.01.51.03.77.04-2.33,2.18-4.66,4.36-6.98,6.54,0-.13,0-.26,0-.39.03-.44.05-.88.08-1.32Z"/>
    <rect class="cls-3" x="80.4" y="65.97" width="14.49" height="14.61"/>
    <rect class="cls-3" x="80.4" y="65.97" width="14.49" height="14.61"/>
    <line class="cls-3" x1="87.61" y1="65.7" x2="87.61" y2="80.84"/>
    <line class="cls-3" x1="95.23" y1="73.33" x2="80.09" y2="73.33"/>
    <rect class="cls-8" x="21.35" y="65.97" width="14.49" height="14.61"/>
    <path class="cls-16" d="M21.4,77.77c4.2-3.88,8.41-7.77,12.61-11.65.56-.01,1.11-.02,1.67-.04-4.48,4.85-8.95,9.69-13.43,14.54-.28,0-.56.01-.84.02,0-.96-.01-1.91-.02-2.87Z"/>
    <path class="cls-16" d="M21.43,70.81c2.05-1.63,4.09-3.25,6.14-4.88.26.01.51.03.77.04-2.33,2.18-4.66,4.36-6.98,6.54,0-.13,0-.26,0-.39.03-.44.05-.88.08-1.32Z"/>
    <rect class="cls-3" x="21.35" y="65.97" width="14.49" height="14.61"/>
    <rect class="cls-3" x="21.35" y="65.97" width="14.49" height="14.61"/>
    <line class="cls-3" x1="28.56" y1="65.7" x2="28.56" y2="80.84"/>
    <line class="cls-3" x1="36.19" y1="73.33" x2="21.05" y2="73.33"/>
    <rect class="cls-19" x="13.87" y="85.57" width="88.34" height="6.65"/>
    <rect class="cls-13" x="48.18" y="65.45" width="17.77" height="26.54"/>
    <path class="cls-16" d="M48.52,86.39c5.88-3.91,11.75-7.83,17.63-11.74.04.48.08.96.12,1.44-5.2,4.42-10.4,8.84-15.6,13.26-.71-.07-1.42-.15-2.13-.22,0-.91-.01-1.83-.02-2.74Z"/>
    <path class="cls-16" d="M48.15,80.03c6.08-3.26,12.15-6.52,18.23-9.78-.07.1-.14.23-.19.38-.1.29-.09.55-.07.72-5.91,3.83-11.82,7.67-17.74,11.5l-.41-1.15c.06-.56.12-1.12.18-1.67Z"/>
    <rect class="cls-11" x="48.18" y="65.45" width="17.77" height="26.54"/>
    <rect class="cls-15" x="48.64" y="77.29" width="16.89" height="1.84"/>
    <rect class="cls-15" x="44.69" y="77.66" width="24.87" height="2.36" transform="translate(135.97 21.72) rotate(90)"/>
    <rect class="cls-15" x="48.64" y="90.07" width="16.89" height="1.84"/>
    <path class="cls-1" d="M47.9,63.51h18.32c-.58-3.99-4.49-7.02-9.08-7.06-4.65-.04-8.66,3.01-9.25,7.06Z"/>
    <line class="cls-10" x1="57.14" y1="56.61" x2="57.14" y2="63.11"/>
    <line class="cls-10" x1="62.84" y1="58.17" x2="57.76" y2="62.95"/>
    <line class="cls-10" x1="51.4" y1="58.17" x2="56.48" y2="62.95"/>
    <circle class="cls-14" cx="48.18" cy="78.39" r=".92"/>
    <circle class="cls-18" cx="48.27" cy="78.29" r=".92"/>
  </g>
</svg>