<?xml version="1.0" encoding="UTF-8"?>
<svg id="brown_house" xmlns="http://www.w3.org/2000/svg" viewBox="0 0 114.88 102.24">
  <defs>
    <style>
      .cls-1, .cls-2, .cls-3, .cls-4, .cls-5, .cls-6 {
        stroke-linecap: round;
        stroke-linejoin: round;
      }

      .cls-1, .cls-2, .cls-4, .cls-7, .cls-6 {
        stroke-width: 2px;
      }

      .cls-1, .cls-3 {
        fill: #80b266;
        stroke: #5f824b;
      }

      .cls-2, .cls-7, .cls-5 {
        fill: none;
      }

      .cls-2, .cls-6 {
        stroke: #63874e;
      }

      .cls-8 {
        fill: #d9d0c4;
      }

      .cls-3 {
        stroke-width: .99px;
      }

      .cls-4 {
        fill: #fff8d4;
        stroke: #d3c690;
      }

      .cls-9 {
        fill: #754d37;
      }

      .cls-7 {
        stroke: #5d3719;
        stroke-miterlimit: 10;
      }

      .cls-10 {
        fill: #a0735a;
      }

      .cls-5 {
        stroke: #683d23;
        stroke-width: 3px;
      }

      .cls-6 {
        fill: #90bf71;
      }

      .cls-11 {
        fill: #84b2bc;
      }

      .cls-12 {
        fill: #683d23;
      }
    </style>
  </defs>
  <ellipse class="cls-8" cx="57.44" cy="93.45" rx="57.44" ry="8.79"/>
  <rect class="cls-9" x="10.78" y="34.89" width="92.94" height="55.63"/>
  <polygon class="cls-9" points="28.89 19.57 16.99 37.59 40.78 37.59 28.89 19.57"/>
  <rect class="cls-11" x="20.29" y="52.83" width="19.03" height="21.78"/>
  <path class="cls-12" d="M38.29,53.52v20.18h-17.08v-20.18h17.08M38.29,51.52h-17.08c-1.1,0-2,.9-2,2v20.18c0,1.1.9,2,2,2h17.08c1.1,0,2-.9,2-2v-20.18c0-1.1-.9-2-2-2h0Z"/>
  <line class="cls-7" x1="29.75" y1="52.83" x2="29.75" y2="74.61"/>
  <line class="cls-7" x1="20.71" y1="63.61" x2="39.32" y2="63.61"/>
  <rect class="cls-12" x="10.17" y="83.82" width="94.55" height="8.39"/>
  <polyline class="cls-5" points="10.17 46.96 29.17 20.82 49.81 48.95 102.46 48.95"/>
  <path class="cls-10" d="M28.89,19.57l11.89,15.32h53.89l4.36,4.08,4.7,4.59v46.96H10.78v-49.94l1.26-3.37,2.49-2.32h3.3l11.06-15.32M28.89,17.57s-.02,0-.03,0c-.63.01-1.22.32-1.59.83l-10.47,14.49h-2.28c-.51,0-.99.19-1.36.54l-2.49,2.32c-.23.21-.4.47-.51.76l-1.26,3.37c-.08.22-.13.46-.13.7v49.94c0,1.1.9,2,2,2h92.94c1.1,0,2-.9,2-2v-46.96c0-.54-.22-1.05-.6-1.43l-4.7-4.59-4.39-4.11c-.37-.35-.86-.54-1.37-.54h-52.91l-11.29-14.55c-.38-.49-.96-.77-1.58-.77h0Z"/>
  <line class="cls-2" x1="89.91" y1="18.98" x2="84.99" y2="12.42"/>
  <g>
    <rect class="cls-9" x="71.02" y="1" width="13.98" height="16.68" rx="1" ry="1"/>
    <path class="cls-12" d="M84,2v14.68h-11.98V2h11.98M84,0h-11.98C70.91,0,70.02.9,70.02,2v14.68c0,1.1.9,2,2,2h11.98c1.1,0,2-.9,2-2V2C86,.9,85.1,0,84,0h0Z"/>
  </g>
  <polygon class="cls-1" points="28.89 9.34 77.5 9.34 82.54 15.57 87.33 15.64 112.12 47.75 57.86 47.75 28.89 9.34"/>
  <polyline class="cls-6" points="28.89 9.34 2.37 46.83 9.4 46.83 29.05 18.97 50.67 47.75 57.86 47.75 28.89 9.34"/>
  <line class="cls-2" x1="40.01" y1="23.47" x2="93.09" y2="23.47"/>
  <line class="cls-2" x1="49.83" y1="37.11" x2="103.56" y2="37.11"/>
  <line class="cls-2" x1="45.74" y1="9.59" x2="55.6" y2="22.89"/>
  <line class="cls-2" x1="63.51" y1="9.59" x2="73.37" y2="22.89"/>
  <line class="cls-2" x1="62.88" y1="23.64" x2="72.74" y2="36.94"/>
  <line class="cls-2" x1="80.65" y1="23.64" x2="90.51" y2="36.94"/>
  <line class="cls-2" x1="65.62" y1="37.58" x2="73.16" y2="47.75"/>
  <line class="cls-2" x1="83.39" y1="37.58" x2="90.58" y2="47.28"/>
  <path class="cls-4" d="M59.7,92.16v-27.82c1.31-5.1,5.88-8.67,11.01-8.71,4.8-.04,9.18,3.03,10.85,7.64v28.89h-21.86Z"/>
  <circle class="cls-12" cx="63.71" cy="77.53" r="1.54"/>
  <polygon class="cls-3" points="59.2 93.03 82.48 93.03 88.06 99.52 63.08 99.52 59.2 93.03"/>
  <polygon class="cls-2" points="28.89 9.34 77.5 9.34 82.54 15.57 87.33 15.64 112.12 47.75 57.86 47.75 28.89 9.34"/>
  <polyline class="cls-2" points="28.89 9.34 2.37 46.83 9.4 46.83 29.05 18.97 50.67 47.75 57.86 47.75 28.89 9.34"/>
</svg>