<?xml version="1.0" encoding="UTF-8"?>
<svg id="brown_house" xmlns="http://www.w3.org/2000/svg" width="1.6in" height="1.42in" viewBox="0 0 114.88 102.24">
  <ellipse cx="57.44" cy="93.45" rx="57.44" ry="8.79" fill="#d9d0c4"/>
  <rect x="10.78" y="34.89" width="92.94" height="55.63" fill="#754d37"/>
  <polygon points="28.89 19.57 16.99 37.59 40.78 37.59 28.89 19.57" fill="#754d37"/>
  <rect x="20.29" y="52.83" width="19.03" height="21.78" fill="#84b2bc"/>
  <path d="M38.29,53.52v20.18h-17.08v-20.18h17.08M38.29,51.52h-17.08c-1.1,0-2,.9-2,2v20.18c0,1.1.9,2,2,2h17.08c1.1,0,2-.9,2-2v-20.18c0-1.1-.9-2-2-2h0Z" fill="#683d23"/>
  <line x1="29.75" y1="52.83" x2="29.75" y2="74.61" fill="none" stroke="#5d3719" stroke-miterlimit="10" stroke-width="2"/>
  <line x1="20.71" y1="63.61" x2="39.32" y2="63.61" fill="none" stroke="#5d3719" stroke-miterlimit="10" stroke-width="2"/>
  <rect x="10.17" y="83.82" width="94.55" height="8.39" fill="#683d23"/>
  <polyline points="10.17 46.96 29.17 20.82 49.81 48.95 102.46 48.95" fill="none" stroke="#683d23" stroke-linecap="round" stroke-linejoin="round" stroke-width="3"/>
  <path d="M28.89,19.57l11.89,15.32h53.89l4.36,4.08,4.7,4.59v46.96H10.78v-49.94l1.26-3.37,2.49-2.32h3.3l11.06-15.32M28.89,17.57s-.02,0-.03,0c-.63.01-1.22.32-1.59.83l-10.47,14.49h-2.28c-.51,0-.99.19-1.36.54l-2.49,2.32c-.23.21-.4.47-.51.76l-1.26,3.37c-.08.22-.13.46-.13.7v49.94c0,1.1.9,2,2,2h92.94c1.1,0,2-.9,2-2v-46.96c0-.54-.22-1.05-.6-1.43l-4.7-4.59-4.39-4.11c-.37-.35-.86-.54-1.37-.54h-52.91l-11.29-14.55c-.38-.49-.96-.77-1.58-.77h0Z" fill="#a0735a"/>
  <line x1="89.91" y1="18.98" x2="84.99" y2="12.42" fill="none" stroke="#63874e" stroke-linecap="round" stroke-linejoin="round" stroke-width="2"/>
  <g>
    <rect x="71.02" y="1" width="13.98" height="16.68" rx="1" ry="1" fill="#754d37"/>
    <path d="M84,2v14.68h-11.98V2h11.98M84,0h-11.98C70.91,0,70.02.9,70.02,2v14.68c0,1.1.9,2,2,2h11.98c1.1,0,2-.9,2-2V2C86,.9,85.1,0,84,0h0Z" fill="#683d23"/>
  </g>
  <polygon points="28.89 9.34 77.5 9.34 82.54 15.57 87.33 15.64 112.12 47.75 57.86 47.75 28.89 9.34" fill="#80b266" stroke="#5f824b" stroke-linecap="round" stroke-linejoin="round" stroke-width="2"/>
  <polyline points="28.89 9.34 2.37 46.83 9.4 46.83 29.05 18.97 50.67 47.75 57.86 47.75 28.89 9.34" fill="#90bf71" stroke="#63874e" stroke-linecap="round" stroke-linejoin="round" stroke-width="2"/>
  <line x1="40.01" y1="23.47" x2="93.09" y2="23.47" fill="none" stroke="#63874e" stroke-linecap="round" stroke-linejoin="round" stroke-width="2"/>
  <line x1="49.83" y1="37.11" x2="103.56" y2="37.11" fill="none" stroke="#63874e" stroke-linecap="round" stroke-linejoin="round" stroke-width="2"/>
  <line x1="45.74" y1="9.59" x2="55.6" y2="22.89" fill="none" stroke="#63874e" stroke-linecap="round" stroke-linejoin="round" stroke-width="2"/>
  <line x1="63.51" y1="9.59" x2="73.37" y2="22.89" fill="none" stroke="#63874e" stroke-linecap="round" stroke-linejoin="round" stroke-width="2"/>
  <line x1="62.88" y1="23.64" x2="72.74" y2="36.94" fill="none" stroke="#63874e" stroke-linecap="round" stroke-linejoin="round" stroke-width="2"/>
  <line x1="80.65" y1="23.64" x2="90.51" y2="36.94" fill="none" stroke="#63874e" stroke-linecap="round" stroke-linejoin="round" stroke-width="2"/>
  <line x1="65.62" y1="37.58" x2="73.16" y2="47.75" fill="none" stroke="#63874e" stroke-linecap="round" stroke-linejoin="round" stroke-width="2"/>
  <line x1="83.39" y1="37.58" x2="90.58" y2="47.28" fill="none" stroke="#63874e" stroke-linecap="round" stroke-linejoin="round" stroke-width="2"/>
  <path d="M59.7,92.16v-27.82c1.31-5.1,5.88-8.67,11.01-8.71,4.8-.04,9.18,3.03,10.85,7.64v28.89h-21.86Z" fill="#fff8d4" stroke="#d3c690" stroke-linecap="round" stroke-linejoin="round" stroke-width="2"/>
  <circle cx="63.71" cy="77.53" r="1.54" fill="#683d23"/>
  <polygon points="59.2 93.03 82.48 93.03 88.06 99.52 63.08 99.52 59.2 93.03" fill="#80b266" stroke="#5f824b" stroke-linecap="round" stroke-linejoin="round" stroke-width=".99"/>
  <polygon points="28.89 9.34 77.5 9.34 82.54 15.57 87.33 15.64 112.12 47.75 57.86 47.75 28.89 9.34" fill="none" stroke="#63874e" stroke-linecap="round" stroke-linejoin="round" stroke-width="2"/>
  <polyline points="28.89 9.34 2.37 46.83 9.4 46.83 29.05 18.97 50.67 47.75 57.86 47.75 28.89 9.34" fill="none" stroke="#63874e" stroke-linecap="round" stroke-linejoin="round" stroke-width="2"/>
  <path d="M63.96,66.36c2.18-2.14,4.36-4.28,6.54-6.42,2.25,2.1,4.51,4.2,6.76,6.31" fill="none" stroke="#5a6606" stroke-linecap="round" stroke-linejoin="round" stroke-width=".75"/>
  <rect x="62.36" y="65.09" width="16.51" height="8.37" rx="1.05" ry="1.05" fill="#c8e8b3" stroke="#5a6606" stroke-linecap="round" stroke-linejoin="round" stroke-width=".75"/>
  <g>
    <path d="M65.07,68.22c-.12,0-.14.04-.14.21v.7c0,.11.02.13.14.13h.9c.12,0,.15.08.15.19,0,.12-.03.2-.15.2h-.9c-.12,0-.14.02-.14.13v.89c0,.11.02.13.14.13h1.05c.12,0,.14.1.14.2,0,.12-.03.21-.14.21h-1.22c-.31,0-.46-.13-.46-.38v-2.64c0-.24.14-.38.46-.38h1.14c.12,0,.14.1.14.2,0,.12-.03.21-.14.21h-.97Z" fill="#3b4404"/>
    <path d="M68.68,70.52c.03.07.05.08.08.08s.04-.01.04-.05l-.05-2.58c0-.16.12-.19.24-.19s.25.03.25.19v2.85c0,.29-.11.4-.42.4-.29,0-.38-.12-.48-.38l-.9-2.37c-.03-.07-.04-.11-.07-.11s-.04.04-.04.12l.04,2.55c0,.16-.11.19-.23.19s-.25-.03-.25-.19v-2.87c0-.24.08-.38.39-.38s.4.11.49.38l.91,2.36Z" fill="#3b4404"/>
    <path d="M71.69,67.81c.12,0,.15.1.15.2,0,.12-.03.21-.15.21h-.53c-.12,0-.14.04-.14.21v2.61c0,.16-.14.19-.25.19-.13,0-.25-.03-.25-.19v-2.61c0-.17-.02-.21-.14-.21h-.53c-.12,0-.15-.09-.15-.21,0-.1.03-.2.15-.2h1.82Z" fill="#3b4404"/>
    <path d="M72.95,68.22c-.12,0-.14.04-.14.21v.7c0,.11.02.13.14.13h.9c.12,0,.15.08.15.19,0,.12-.03.2-.15.2h-.9c-.12,0-.14.02-.14.13v.89c0,.11.02.13.14.13h1.05c.12,0,.14.1.14.2,0,.12-.03.21-.14.21h-1.22c-.31,0-.46-.13-.46-.38v-2.64c0-.24.15-.38.46-.38h1.14c.12,0,.14.1.14.2,0,.12-.03.21-.14.21h-.97Z" fill="#3b4404"/>
    <path d="M75.26,71.04c0,.16-.12.19-.24.19s-.25-.03-.25-.19v-2.85c0-.24.14-.38.46-.38h.49c.7,0,1.14.29,1.14.91,0,.47-.22.69-.49.85-.09.05-.12.08-.12.15,0,.05.03.11.07.16l.71,1.04s.03.06.03.1c0,.09-.07.21-.26.21-.16,0-.21-.06-.26-.15l-.63-1.01c-.11-.17-.19-.24-.4-.24-.18,0-.24.06-.24.16v1.05ZM75.26,69.28c0,.21.04.23.28.23.49,0,.8-.15.8-.72,0-.47-.24-.62-.65-.62-.38,0-.43.01-.43.23v.88Z" fill="#3b4404"/>
  </g>
</svg>