<svg width="409" height="409" viewBox="0 0 409 409" fill="none" xmlns="http://www.w3.org/2000/svg">
<g id="Group 4">
<ellipse id="Ellipse 1" cx="204.5" cy="198.635" rx="193.5" ry="189.649" fill="#F0EEE9"/>
<path id="Ellipse 2" d="M408.525 204.625C408.525 317.291 317.191 408.625 204.525 408.625C91.8589 408.625 0.524967 317.291 0.524967 204.625C0.524967 91.9588 91.8589 0.624908 204.525 0.624908C317.191 0.624908 408.525 91.9588 408.525 204.625Z" fill="#F0EEE9"/>
<path id="Vector" d="M122.573 334.352L291.463 334.653C294.817 334.653 297.512 332.589 297.512 330.039V61.3138C297.512 58.7631 294.817 56.6994 291.491 56.6994L122.601 56.398C119.247 56.398 116.552 58.4617 116.552 61.0124V329.714C116.552 332.265 119.247 334.352 122.573 334.352Z" fill="#634235"/>
<rect id="Rectangle 2" x="91.7647" y="327.265" width="225.47" height="11.0289" rx="1" fill="#94989B"/>
<path id="Vector_2" d="M261.677 349.256L121.874 340.187C118.923 340.187 116.552 338.077 116.552 335.469V60.7389C116.552 58.1312 118.923 56.0214 121.85 56.0214L261.677 48.0148C270.458 48.0148 270.458 53.4137 270.458 56.0214L270.458 340.187C270.458 342.794 270.458 349.256 261.677 349.256Z" fill="#B06542"/>
<path id="Vector_3" d="M157.901 94.4009V166.278H229.109V91.0757L157.901 94.4009ZM146.025 82.5479L242.109 77.3071V178.131L146.025 178.131V82.5479Z" fill="#874D36"/>
<path id="Vector_4" d="M157.901 236.805V308.682L229.109 313.613V236.805H157.901ZM146.025 224.952H241.88L242.109 326.657L146.025 320.535V224.952Z" fill="#874D36"/>
<path id="Vector_5" d="M146.025 82.9744L158.361 94.4007H157.901V166.278H228.949L242.088 178.131H146.025V82.9744Z" fill="#C87D5E"/>
<path id="Vector_6" d="M146.025 225.379L158.361 236.806H157.901V308.683L228.949 313.614L242.088 326.829L146.025 320.536V225.379Z" fill="#C87D5E"/>
<path id="Vector_7" d="M241.445 215.824C234.432 215.824 228.746 210.252 228.746 203.378C228.746 196.505 234.432 190.932 241.445 190.932C248.458 190.932 254.143 196.505 254.143 203.378C254.143 210.252 248.458 215.824 241.445 215.824Z" fill="#874D36"/>
<path id="Vector_8" d="M246.379 212.15C239.366 212.15 233.681 206.578 233.681 199.704C233.681 192.831 239.366 187.258 246.379 187.258C253.392 187.258 259.077 192.831 259.077 199.704C259.077 206.578 253.392 212.15 246.379 212.15Z" fill="#BDBDBD"/>
<path id="Vector_9" d="M243.38 191.786C243.065 193.327 243.984 194.085 245.291 195.01C246.597 195.935 248.217 196.669 249.403 198.637C250.249 200.036 250.515 201.885 251.894 202.809C253.248 203.71 254.796 203.544 255.522 201.956C256.562 199.704 256.586 195.792 253.659 192.592C250.854 189.534 244.154 187.898 243.38 191.786Z" fill="#EEEEEE"/>
</g>
</svg>
