<?xml version="1.0" encoding="UTF-8"?><svg id="house_thumbnail" xmlns="http://www.w3.org/2000/svg" viewBox="0 0 73.56 73.56"><circle cx="36.78" cy="36.78" r="36.78" fill="#efefef"/><ellipse cx="37.7" cy="52.85" rx="24.4" ry="3.73" fill="#c6beb5"/><rect x="17.88" y="27.97" width="39.48" height="23.63" fill="#f0cf9d"/><polygon points="25.57 21.46 20.52 29.12 30.62 29.12 25.57 21.46" fill="#f0cf9d"/><rect x="21.92" y="35.59" width="8.08" height="9.25" fill="#62a2b4"/><path d="M29.57,35.88v8.57h-7.26v-8.57h7.26M29.57,34.88h-7.26c-.55,0-1,.45-1,1v8.57c0,.55.45,1,1,1h7.26c.55,0,1-.45,1-1v-8.57c0-.55-.45-1-1-1h0Z" fill="#5d3719"/><line x1="25.94" y1="35.59" x2="25.94" y2="44.85" fill="none" stroke="#5d3719" stroke-miterlimit="10"/><line x1="22.1" y1="40.17" x2="30" y2="40.17" fill="none" stroke="#5d3719" stroke-miterlimit="10"/><rect x="17.62" y="48.76" width="40.16" height="3.83" fill="#e2ba84"/><polyline points="17.62 33.1 25.69 22 34.46 33.94 56.82 33.94" fill="none" stroke="#e2ba84" stroke-linecap="round" stroke-linejoin="round" stroke-width="2"/><path d="M25.57,21.46l5.05,6.51h22.89l1.85,1.73,2,1.95v19.95H17.88v-21.22l.54-1.43,1.06-.98h1.4l4.7-6.51M25.57,20.46s-.01,0-.02,0c-.31,0-.61.16-.79.41l-4.4,6.09h-.89c-.25,0-.5.1-.68.27l-1.06.98c-.11.11-.2.24-.25.38l-.54,1.43c-.04.11-.06.23-.06.35v21.22c0,.55.45,1,1,1h39.48c.55,0,1-.45,1-1v-19.95c0-.27-.11-.53-.3-.72l-2-1.95-1.87-1.75c-.19-.17-.43-.27-.68-.27h-22.4l-4.75-6.12c-.19-.24-.48-.39-.79-.39h0Z" fill="#a3764c"/><line x1="51.49" y1="21.21" x2="49.4" y2="18.43" fill="none" stroke="#893b1d" stroke-linecap="round" stroke-linejoin="round"/><line x1="51.49" y1="21.21" x2="49.4" y2="18.43" fill="#d9562c"/><rect x="43.39" y="13.42" width="6.09" height="7.23" rx=".5" ry=".5" fill="#f0d09a"/><path d="M48.98,13.92v6.23h-5.09v-6.23h5.09M48.98,12.92h-5.09c-.55,0-1,.45-1,1v6.23c0,.55.45,1,1,1h5.09c.55,0,1-.45,1-1v-6.23c0-.55-.45-1-1-1h0Z" fill="#af7e4a"/><polygon points="25.57 17.12 46.22 17.12 48.36 19.76 50.4 19.79 60.93 33.43 37.88 33.43 25.57 17.12" fill="#d9562c" stroke="#893b1d" stroke-linecap="round" stroke-linejoin="round"/><polyline points="25.42 17.12 14.15 33.04 17.14 33.04 25.48 21.21 34.67 33.43 37.72 33.43 25.42 17.12" fill="#b74728" stroke="#893b1d" stroke-linecap="round" stroke-linejoin="round"/><line x1="30.29" y1="23.12" x2="52.84" y2="23.12" fill="none" stroke="#b34219" stroke-linecap="round" stroke-linejoin="round"/><line x1="34.47" y1="28.91" x2="57.29" y2="28.91" fill="none" stroke="#b34219" stroke-linecap="round" stroke-linejoin="round"/><line x1="32.73" y1="17.23" x2="36.92" y2="22.88" fill="none" stroke="#b34219" stroke-linecap="round" stroke-linejoin="round"/><line x1="40.28" y1="17.23" x2="44.47" y2="22.88" fill="none" stroke="#b34219" stroke-linecap="round" stroke-linejoin="round"/><line x1="40.01" y1="23.19" x2="44.2" y2="28.84" fill="none" stroke="#b34219" stroke-linecap="round" stroke-linejoin="round"/><line x1="47.56" y1="23.19" x2="51.75" y2="28.84" fill="none" stroke="#b34219" stroke-linecap="round" stroke-linejoin="round"/><line x1="41.17" y1="29.11" x2="44.38" y2="33.43" fill="none" stroke="#b34219" stroke-linecap="round" stroke-linejoin="round"/><line x1="48.72" y1="29.11" x2="51.78" y2="33.23" fill="none" stroke="#b34219" stroke-linecap="round" stroke-linejoin="round"/><path d="M38.66,52.3v-11.82c.56-2.16,2.5-3.68,4.68-3.7,2.04-.02,3.9,1.29,4.61,3.25v12.27h-9.29Z" fill="#82522d" stroke="#653f1f" stroke-linecap="round" stroke-linejoin="round"/><circle cx="40.61" cy="45.35" r=".72" fill="#653f1f"/><polygon points="38.62 52.3 47.97 52.3 50.21 54.54 40.18 54.54 38.62 52.3" fill="#b4a99d" stroke="#8d8278" stroke-linecap="round" stroke-linejoin="round"/><polygon points="25.57 17.12 46.22 17.12 48.36 19.76 50.4 19.79 60.93 33.43 37.88 33.43 25.57 17.12" fill="none" stroke="#893b1d" stroke-linecap="round" stroke-linejoin="round"/><polyline points="25.57 17.12 14.31 33.04 17.29 33.04 25.64 21.21 34.82 33.43 37.88 33.43 25.57 17.12" fill="none" stroke="#893b1d" stroke-linecap="round" stroke-linejoin="round"/></svg>