<?xml version="1.0" encoding="UTF-8"?>
<svg id="house" xmlns="http://www.w3.org/2000/svg" viewBox="0 0 114.88 102.24">
  <ellipse cx="57.44" cy="93.45" rx="57.44" ry="8.79" fill="#d9d0c4"/>
  <g>
    <rect x="10.78" y="34.89" width="92.94" height="55.63" fill="#f0cf9d"/>
    <polygon points="28.89 19.57 16.99 37.59 40.78 37.59 28.89 19.57" fill="#f0cf9d"/>
  </g>
  <rect x="20.29" y="52.83" width="19.03" height="21.78" fill="#62a2b4"/>
  <path d="M38.29,53.52v20.18h-17.08v-20.18h17.08M38.29,51.52h-17.08c-1.1,0-2,.9-2,2v20.18c0,1.1.9,2,2,2h17.08c1.1,0,2-.9,2-2v-20.18c0-1.1-.9-2-2-2h0Z" fill="#5d3719"/>
  <line x1="29.75" y1="52.83" x2="29.75" y2="74.61" fill="none" stroke="#5d3719" stroke-miterlimit="10" stroke-width="2"/>
  <line x1="20.71" y1="63.61" x2="39.32" y2="63.61" fill="none" stroke="#5d3719" stroke-miterlimit="10" stroke-width="2"/>
  <rect x="10.17" y="83.82" width="94.55" height="9.02" fill="#e2ba84"/>
  <polyline points="10.17 46.96 29.17 20.82 49.81 48.95 102.46 48.95" fill="none" stroke="#e2ba84" stroke-linecap="round" stroke-linejoin="round" stroke-width="3"/>
  <path d="M28.89,19.57l11.89,15.32h53.89l4.36,4.08,4.7,4.59v46.96H10.78v-49.94l1.26-3.37,2.49-2.32h3.3l11.06-15.32M28.89,17.57s-.02,0-.03,0c-.63.01-1.22.32-1.59.83l-10.47,14.49h-2.28c-.51,0-.99.19-1.36.54l-2.49,2.32c-.23.21-.4.47-.51.76l-1.26,3.37c-.08.22-.13.46-.13.7v49.94c0,1.1.9,2,2,2h92.94c1.1,0,2-.9,2-2v-46.96c0-.54-.22-1.05-.6-1.43l-4.7-4.59-4.39-4.11c-.37-.35-.86-.54-1.37-.54h-52.91l-11.29-14.55c-.38-.49-.96-.77-1.58-.77h0Z" fill="#a3764c"/>
  <g>
    <line x1="89.91" y1="18.98" x2="84.99" y2="12.42" fill="none" stroke="#893b1d" stroke-linecap="round" stroke-linejoin="round" stroke-width="2"/>
    <line x1="89.91" y1="18.98" x2="84.99" y2="12.42" fill="#d9562c"/>
  </g>
  <g>
    <rect x="71.02" y="1" width="13.98" height="16.68" rx="1" ry="1" fill="#f0d09a"/>
    <path d="M84,2v14.68h-11.98V2h11.98M84,0h-11.98C70.91,0,70.02.9,70.02,2v14.68c0,1.1.9,2,2,2h11.98c1.1,0,2-.9,2-2V2C86,.9,85.1,0,84,0h0Z" fill="#af7e4a"/>
  </g>
  <polygon points="28.89 9.34 77.5 9.34 82.54 15.57 87.33 15.64 112.12 47.75 57.86 47.75 28.89 9.34" fill="#d9562c" stroke="#893b1d" stroke-linecap="round" stroke-linejoin="round" stroke-width="2"/>
  <polyline points="28.89 9.34 2.37 46.83 9.4 46.83 29.05 18.97 50.67 47.75 57.86 47.75 28.89 9.34" fill="#b74728" stroke="#893b1d" stroke-linecap="round" stroke-linejoin="round" stroke-width="2"/>
  <line x1="40.01" y1="23.47" x2="93.09" y2="23.47" fill="none" stroke="#b34219" stroke-linecap="round" stroke-linejoin="round" stroke-width="2"/>
  <line x1="49.83" y1="37.11" x2="103.56" y2="37.11" fill="none" stroke="#b34219" stroke-linecap="round" stroke-linejoin="round" stroke-width="2"/>
  <line x1="45.74" y1="9.59" x2="55.6" y2="22.89" fill="none" stroke="#b34219" stroke-linecap="round" stroke-linejoin="round" stroke-width="2"/>
  <line x1="63.51" y1="9.59" x2="73.37" y2="22.89" fill="none" stroke="#b34219" stroke-linecap="round" stroke-linejoin="round" stroke-width="2"/>
  <line x1="62.88" y1="23.64" x2="72.74" y2="36.94" fill="none" stroke="#b34219" stroke-linecap="round" stroke-linejoin="round" stroke-width="2"/>
  <line x1="80.65" y1="23.64" x2="90.51" y2="36.94" fill="none" stroke="#b34219" stroke-linecap="round" stroke-linejoin="round" stroke-width="2"/>
  <line x1="65.62" y1="37.58" x2="73.16" y2="47.75" fill="none" stroke="#b34219" stroke-linecap="round" stroke-linejoin="round" stroke-width="2"/>
  <line x1="83.39" y1="37.58" x2="90.58" y2="47.28" fill="none" stroke="#b34219" stroke-linecap="round" stroke-linejoin="round" stroke-width="2"/>
  <path d="M59.7,92.16v-27.82c1.31-5.1,5.88-8.67,11.01-8.71,4.8-.04,9.18,3.03,10.85,7.64v28.89h-21.86Z" fill="#82522d" stroke="#653f1f" stroke-linecap="round" stroke-linejoin="round" stroke-width="2"/>
  <circle cx="63.71" cy="77.53" r="1.54" fill="#653f1f"/>
  <polygon points="59.6 92.16 81.61 92.16 86.89 97.44 63.27 97.44 59.6 92.16" fill="#b4a99d" stroke="#8d8278" stroke-linecap="round" stroke-linejoin="round" stroke-width="2"/>
  <polygon points="28.89 9.34 77.5 9.34 82.54 15.57 87.33 15.64 112.12 47.75 57.86 47.75 28.89 9.34" fill="none" stroke="#893b1d" stroke-linecap="round" stroke-linejoin="round" stroke-width="2"/>
  <polyline points="28.89 9.34 2.37 46.83 9.4 46.83 29.05 18.97 50.67 47.75 57.86 47.75 28.89 9.34" fill="none" stroke="#893b1d" stroke-linecap="round" stroke-linejoin="round" stroke-width="2"/>
  <path d="M63.96,66.36c2.18-2.14,4.36-4.28,6.54-6.42,2.25,2.1,4.51,4.2,6.76,6.31" fill="none" stroke="#92a355" stroke-linecap="round" stroke-linejoin="round" stroke-width=".75"/>
  <rect x="62.36" y="65.09" width="16.51" height="8.37" rx="1.12" ry="1.12" fill="#d1d186" stroke="#92a355" stroke-linecap="round" stroke-linejoin="round" stroke-width=".75"/>
  <g>
    <path d="M65.9,69.55h-1.31v1.22h1.46v.37h-1.9v-3.37h1.82v.37h-1.39v1.07h1.31v.36Z" fill="#3b4404"/>
    <path d="M66.61,71.13v-3.37h.48l1.08,1.71c.25.4.45.75.61,1.1h.01c-.04-.46-.05-.87-.05-1.39v-1.41h.41v3.37h-.44l-1.07-1.71c-.24-.38-.46-.76-.63-1.13h-.01c.02.43.04.84.04,1.4v1.44h-.41Z" fill="#3b4404"/>
    <path d="M70.54,68.13h-1.03v-.37h2.5v.37h-1.03v3h-.44v-3Z" fill="#3b4404"/>
    <path d="M74.13,69.55h-1.31v1.22h1.46v.37h-1.9v-3.37h1.82v.37h-1.39v1.07h1.31v.36Z" fill="#3b4404"/>
    <path d="M74.84,67.8c.22-.05.54-.07.84-.07.47,0,.77.09.98.28.17.15.26.38.26.64,0,.45-.28.74-.64.86v.02c.26.09.42.33.5.68.11.47.19.8.26.93h-.45c-.05-.1-.13-.39-.23-.81-.1-.47-.28-.64-.67-.66h-.41v1.46h-.44v-3.33ZM75.28,69.34h.45c.47,0,.76-.26.76-.64,0-.44-.32-.63-.78-.63-.21,0-.36.02-.43.04v1.23Z" fill="#3b4404"/>
  </g>
</svg>