<?xml version="1.0" encoding="UTF-8"?>
<svg id="store_map" xmlns="http://www.w3.org/2000/svg" width="1.9in" height="3.86in" viewBox="0 0 136.8 277.57">
  <rect x="-1.25" y="-.71" width="139.87" height="279.75" fill="#b5e286"/>
  <path d="M-24.01,182.96c10.51-7.8,20.97-9.96,24.31-10.55,8.54-1.52,13.44-2.38,17.89.46,5.1,3.26,4.12,7.9,10.09,11.46,5.53,3.31,8.94.86,11.92,4.13,3.36,3.69,3.15,11.33-.46,15.59-3.86,4.57-10.83,4.36-18.34,4.13-9.12-.28-10.98-2.67-17.43-1.38-5.89,1.18-6.21,3.55-11.92,5.5-9.32,3.19-23.38,1.98-27.06-5.5-2.97-6.04,1.85-14.08,2.75-15.59,2.24-3.75,4.91-5.77,8.25-8.25Z" fill="#9dcce0" stroke="#8cb5bf" stroke-miterlimit="10" stroke-width=".5"/>
  <g>
    <path d="M18.4,55.22c.27,2.18.45,4.69.41,7.46-.05,3.3-.39,6.23-.83,8.71.52.73,1.4,1.13,2.28,1.04.95-.1,1.75-.75,2.07-1.66-.41-1.25-.91-3.02-1.24-5.18-.25-1.62-.63-4.27-.21-7.67.18-1.45.56-3.47,1.45-5.81-1.31,1.04-2.63,2.07-3.94,3.11Z" fill="#7c5624" stroke="#6d4a21" stroke-miterlimit="10" stroke-width=".17"/>
    <path d="M22.97,45.79c-1.03-1.31-2.84-1.61-4.1-.8-1.04.67-1.55,2-1.25,3.3-.98-.82-2.35-.95-3.41-.34-.92.53-1.48,1.53-1.48,2.62-1.3-.37-2.56.48-2.73,1.59-.15.95.51,1.97,1.59,2.28-.53.61-.73,1.42-.46,2.05.39.9,1.73,1.41,2.96.8.24.76.8,1.36,1.48,1.48.99.18,2.18-.66,2.39-2.05-.13,1.28.73,2.41,1.82,2.62,1.26.24,2.63-.78,2.73-2.28.98.99,2.51,1.03,3.41.23.72-.64.95-1.74.57-2.73,1.59.04,2.77-1.32,2.62-2.62-.13-1.09-1.18-2.05-2.5-2.05,1.3-1.04,1.63-2.72,1.02-3.75-.75-1.28-3.02-1.75-4.67-.34Z" fill="#79aa41" stroke="#6b9139" stroke-miterlimit="10" stroke-width=".12"/>
  </g>
  <g>
    <path d="M89,102.6c.27,2.18.45,4.69.41,7.46-.05,3.3-.39,6.23-.83,8.71.52.73,1.4,1.13,2.28,1.04.95-.1,1.75-.75,2.07-1.66-.41-1.25-.91-3.02-1.24-5.18-.25-1.62-.63-4.27-.21-7.67.18-1.45.56-3.47,1.45-5.81-1.31,1.04-2.63,2.07-3.94,3.11Z" fill="#7c5624" stroke="#6d4a21" stroke-miterlimit="10" stroke-width=".17"/>
    <path d="M93.56,93.17c-1.03-1.31-2.84-1.61-4.1-.8-1.04.67-1.55,2-1.25,3.3-.98-.82-2.35-.95-3.41-.34-.92.53-1.48,1.53-1.48,2.62-1.3-.37-2.56.48-2.73,1.59-.15.95.51,1.97,1.59,2.28-.53.61-.73,1.42-.46,2.05.39.9,1.73,1.41,2.96.8.24.76.8,1.36,1.48,1.48.99.18,2.18-.66,2.39-2.05-.13,1.28.73,2.41,1.82,2.62,1.26.24,2.63-.78,2.73-2.28.98.99,2.51,1.03,3.41.23.72-.64.95-1.74.57-2.73,1.59.04,2.77-1.32,2.62-2.62-.13-1.09-1.18-2.05-2.5-2.05,1.3-1.04,1.63-2.72,1.02-3.75-.75-1.28-3.02-1.75-4.67-.34Z" fill="#79aa41" stroke="#6b9139" stroke-miterlimit="10" stroke-width=".12"/>
  </g>
  <g>
    <path d="M38.43,44.11c-.33,2.65-.55,5.7-.5,9.07.06,4.01.47,7.57,1.01,10.58-.63.89-1.7,1.38-2.77,1.26-1.15-.12-2.13-.91-2.52-2.02.5-1.52,1.11-3.67,1.51-6.3.3-1.97.77-5.19.25-9.32-.22-1.76-.69-4.22-1.76-7.06,1.6,1.26,3.19,2.52,4.79,3.78Z" fill="#7c5624" stroke="#6d4a21" stroke-miterlimit="10" stroke-width=".21"/>
    <path d="M32.88,32.65c1.26-1.59,3.45-1.95,4.98-.97,1.26.81,1.89,2.43,1.52,4.01,1.19-.99,2.86-1.15,4.15-.41,1.12.64,1.8,1.86,1.8,3.18,1.58-.45,3.11.58,3.32,1.94.18,1.15-.62,2.4-1.94,2.77.65.74.88,1.73.55,2.49-.47,1.1-2.1,1.71-3.6.97-.29.93-.98,1.65-1.8,1.8-1.2.22-2.65-.8-2.9-2.49.16,1.56-.88,2.93-2.21,3.18-1.53.29-3.2-.94-3.32-2.77-1.2,1.2-3.05,1.25-4.15.28-.87-.78-1.16-2.11-.69-3.32-1.94.04-3.36-1.61-3.18-3.18.15-1.33,1.44-2.49,3.04-2.49-1.58-1.26-1.98-3.3-1.24-4.56.91-1.55,3.67-2.13,5.67-.41Z" fill="#79aa41" stroke="#6b9139" stroke-miterlimit="10" stroke-width=".15"/>
  </g>
  <g>
    <path d="M124.65,251.4c-.33,2.65-.55,5.7-.5,9.07.06,4.01.47,7.57,1.01,10.58-.63.89-1.7,1.38-2.77,1.26-1.15-.12-2.13-.91-2.52-2.02.5-1.52,1.11-3.67,1.51-6.3.3-1.97.77-5.19.25-9.32-.22-1.76-.69-4.22-1.76-7.06,1.6,1.26,3.19,2.52,4.79,3.78Z" fill="#7c5624" stroke="#6d4a21" stroke-miterlimit="10" stroke-width=".21"/>
    <path d="M119.1,239.93c1.26-1.59,3.45-1.95,4.98-.97,1.26.81,1.89,2.43,1.52,4.01,1.19-.99,2.86-1.15,4.15-.41,1.12.64,1.8,1.86,1.8,3.18,1.58-.45,3.11.58,3.32,1.94.18,1.15-.62,2.4-1.94,2.77.65.74.88,1.73.55,2.49-.47,1.1-2.1,1.71-3.6.97-.29.93-.98,1.65-1.8,1.8-1.2.22-2.65-.8-2.9-2.49.16,1.56-.88,2.93-2.21,3.18-1.53.29-3.2-.94-3.32-2.77-1.2,1.2-3.05,1.25-4.15.28-.87-.78-1.16-2.11-.69-3.32-1.94.04-3.36-1.61-3.18-3.18.15-1.33,1.44-2.49,3.04-2.49-1.58-1.26-1.98-3.3-1.24-4.56.91-1.55,3.67-2.13,5.67-.41Z" fill="#79aa41" stroke="#6b9139" stroke-miterlimit="10" stroke-width=".15"/>
  </g>
  <g>
    <path d="M122.54,10.48c-.27,2.18-.45,4.69-.41,7.46.05,3.3.39,6.23.83,8.71-.52.73-1.4,1.13-2.28,1.04-.95-.1-1.75-.75-2.07-1.66.41-1.25.91-3.02,1.24-5.18.25-1.62.63-4.27.21-7.67-.18-1.45-.56-3.47-1.45-5.81,1.31,1.04,2.63,2.07,3.94,3.11Z" fill="#7c5624" stroke="#6d4a21" stroke-miterlimit="10" stroke-width=".17"/>
    <path d="M117.97,1.04c1.03-1.31,2.84-1.61,4.1-.8,1.04.67,1.55,2,1.25,3.3.98-.82,2.35-.95,3.41-.34.92.53,1.48,1.53,1.48,2.62,1.3-.37,2.56.48,2.73,1.59.15.95-.51,1.97-1.59,2.28.53.61.73,1.42.46,2.05-.39.9-1.73,1.41-2.96.8-.24.76-.8,1.36-1.48,1.48-.99.18-2.18-.66-2.39-2.05.13,1.28-.73,2.41-1.82,2.62-1.26.24-2.63-.78-2.73-2.28-.98.99-2.51,1.03-3.41.23-.72-.64-.95-1.74-.57-2.73-1.59.04-2.77-1.32-2.62-2.62.13-1.09,1.18-2.05,2.5-2.05-1.3-1.04-1.63-2.72-1.02-3.75.75-1.28,3.02-1.75,4.67-.34Z" fill="#79aa41" stroke="#6b9139" stroke-miterlimit="10" stroke-width=".12"/>
  </g>
  <g>
    <path d="M98.95,1.31c.33,2.65.55,5.7.5,9.07-.06,4.01-.47,7.57-1.01,10.58.63.89,1.7,1.38,2.77,1.26,1.15-.12,2.13-.91,2.52-2.02-.5-1.52-1.11-3.67-1.51-6.3-.3-1.97-.77-5.19-.25-9.32.22-1.76.69-4.22,1.76-7.06-1.6,1.26-3.19,2.52-4.79,3.78Z" fill="#7c5624" stroke="#6d4a21" stroke-miterlimit="10" stroke-width=".21"/>
    <path d="M104.5-10.16c-1.26-1.59-3.45-1.95-4.98-.97-1.26.81-1.89,2.43-1.52,4.01-1.19-.99-2.86-1.15-4.15-.41-1.12.64-1.8,1.86-1.8,3.18-1.58-.45-3.11.58-3.32,1.94-.18,1.15.62,2.4,1.94,2.77-.65.74-.88,1.73-.55,2.49.47,1.1,2.1,1.71,3.6.97.29.93.98,1.65,1.8,1.8,1.2.22,2.65-.8,2.9-2.49-.16,1.56.88,2.93,2.21,3.18,1.53.29,3.2-.94,3.32-2.77,1.2,1.2,3.05,1.25,4.15.28.87-.78,1.16-2.11.69-3.32,1.94.04,3.36-1.61,3.18-3.18-.15-1.33-1.44-2.49-3.04-2.49,1.58-1.26,1.98-3.3,1.24-4.56-.91-1.55-3.67-2.13-5.67-.41Z" fill="#79aa41" stroke="#6b9139" stroke-miterlimit="10" stroke-width=".15"/>
  </g>
  <g>
    <path d="M23.5,139.77c-.2.15.27.72.34,1.95.05.73-.09.95.11,1.26.33.5,1.1.55,1.61.57.43.02,1.23,0,2.18-.46-.12-.44-.24-1.09-.11-1.83.16-.91.6-1.49.46-1.61-.2-.16-1,1.21-2.18,1.26-1.23.05-2.11-1.38-2.41-1.15Z" fill="#755023" stroke="#63411f" stroke-miterlimit="10" stroke-width=".17"/>
    <path d="M19.7,134.03c.02-.44.13-.85.31-1.21.42-.85,1.44-1.71,2.74-1.6,1.15.09,2.13.92,2.45,2.05.24-.2.6-.48,1.08-.74.39-.21,1.2-.65,1.91-.63,1.05.03,2.05,1.09,2.6,2.52.22-.05,1.59-.32,2.75.55,1.09.82,1.56,2.31,1.17,3.75-.72.46-2.01,1.15-3.75,1.41-2.31.34-4.14-.25-4.99-.59-.25.2-1.61,1.23-3.52.99-1.66-.21-2.65-1.25-2.9-1.53-1.93.08-3.43-.92-3.59-1.93-.19-1.16,1.27-2.94,3.75-3.05Z" fill="#739e3b" stroke="#698937" stroke-miterlimit="10" stroke-width=".1"/>
  </g>
  <g>
    <path d="M119.69,172.18c.2.15-.27.72-.34,1.95-.05.73.09.95-.11,1.26-.33.5-1.1.55-1.61.57-.43.02-1.23,0-2.18-.46.12-.44.24-1.09.11-1.83-.16-.91-.6-1.49-.46-1.61.2-.16,1,1.21,2.18,1.26,1.23.05,2.11-1.38,2.41-1.15Z" fill="#755023" stroke="#63411f" stroke-miterlimit="10" stroke-width=".17"/>
    <path d="M123.49,166.44c-.02-.44-.13-.85-.31-1.21-.42-.85-1.44-1.71-2.74-1.6-1.15.09-2.13.92-2.45,2.05-.24-.2-.6-.48-1.08-.74-.39-.21-1.2-.65-1.91-.63-1.05.03-2.05,1.09-2.6,2.52-.22-.05-1.59-.32-2.75.55-1.09.82-1.56,2.31-1.17,3.75.72.46,2.01,1.15,3.75,1.41,2.31.34,4.14-.25,4.99-.59.25.2,1.61,1.23,3.52.99,1.66-.21,2.65-1.25,2.9-1.53,1.93.08,3.43-.92,3.59-1.93.19-1.16-1.27-2.94-3.75-3.05Z" fill="#739e3b" stroke="#698937" stroke-miterlimit="10" stroke-width=".1"/>
  </g>
  <g>
    <path d="M80.25,243.42c.2.15-.27.72-.34,1.95-.05.73.09.95-.11,1.26-.33.5-1.1.55-1.61.57-.43.02-1.23,0-2.18-.46.12-.44.24-1.09.11-1.83-.16-.91-.6-1.49-.46-1.61.2-.16,1,1.21,2.18,1.26,1.23.05,2.11-1.38,2.41-1.15Z" fill="#755023" stroke="#63411f" stroke-miterlimit="10" stroke-width=".17"/>
    <path d="M84.05,237.68c-.02-.44-.13-.85-.31-1.21-.42-.85-1.44-1.71-2.74-1.6-1.15.09-2.13.92-2.45,2.05-.24-.2-.6-.48-1.08-.74-.39-.21-1.2-.65-1.91-.63-1.05.03-2.05,1.09-2.6,2.52-.22-.05-1.59-.32-2.75.55-1.09.82-1.56,2.31-1.17,3.75.72.46,2.01,1.15,3.75,1.41,2.31.34,4.14-.25,4.99-.59.25.2,1.61,1.23,3.52.99,1.66-.21,2.65-1.25,2.9-1.53,1.93.08,3.43-.92,3.59-1.93.19-1.16-1.27-2.94-3.75-3.05Z" fill="#739e3b" stroke="#698937" stroke-miterlimit="10" stroke-width=".1"/>
  </g>
  <g>
    <path d="M23.59,10.75c-.2.15.27.72.34,1.95.05.73-.09.95.11,1.26.33.5,1.1.55,1.61.57.43.02,1.23,0,2.18-.46-.12-.44-.24-1.09-.11-1.83.16-.91.6-1.49.46-1.61-.2-.16-1,1.21-2.18,1.26-1.23.05-2.11-1.38-2.41-1.15Z" fill="#755023" stroke="#63411f" stroke-miterlimit="10" stroke-width=".17"/>
    <path d="M19.79,5.01c.02-.44.13-.85.31-1.21.42-.85,1.44-1.71,2.74-1.6,1.15.09,2.13.92,2.45,2.05.24-.2.6-.48,1.08-.74.39-.21,1.2-.65,1.91-.63,1.05.03,2.05,1.09,2.6,2.52.22-.05,1.59-.32,2.75.55,1.09.82,1.56,2.31,1.17,3.75-.72.46-2.01,1.15-3.75,1.41-2.31.34-4.14-.25-4.99-.59-.25.2-1.61,1.23-3.52.99-1.66-.21-2.65-1.25-2.9-1.53-1.93.08-3.43-.92-3.59-1.93-.19-1.16,1.27-2.94,3.75-3.05Z" fill="#739e3b" stroke="#698937" stroke-miterlimit="10" stroke-width=".1"/>
  </g>
  <g>
    <path d="M35.67,176.77c-.2.15.27.72.34,1.95.05.73-.09.95.11,1.26.33.5,1.1.55,1.61.57.43.02,1.23,0,2.18-.46-.12-.44-.24-1.09-.11-1.83.16-.91.6-1.49.46-1.61-.2-.16-1,1.21-2.18,1.26-1.23.05-2.11-1.38-2.41-1.15Z" fill="#755023" stroke="#63411f" stroke-miterlimit="10" stroke-width=".17"/>
    <path d="M31.87,171.03c.02-.44.13-.85.31-1.21.42-.85,1.44-1.71,2.74-1.6,1.15.09,2.13.92,2.45,2.05.24-.2.6-.48,1.08-.74.39-.21,1.2-.65,1.91-.63,1.05.03,2.05,1.09,2.6,2.52.22-.05,1.59-.32,2.75.55,1.09.82,1.56,2.31,1.17,3.75-.72.46-2.01,1.15-3.75,1.41-2.31.34-4.14-.25-4.99-.59-.25.2-1.61,1.23-3.52.99-1.66-.21-2.65-1.25-2.9-1.53-1.93.08-3.43-.92-3.59-1.93-.19-1.16,1.27-2.94,3.75-3.05Z" fill="#739e3b" stroke="#698937" stroke-miterlimit="10" stroke-width=".1"/>
  </g>
  <g>
    <path d="M129.91,89.25c-.2.15.27.72.34,1.95.05.73-.09.95.11,1.26.33.5,1.1.55,1.61.57.43.02,1.23,0,2.18-.46-.12-.44-.24-1.09-.11-1.83.16-.91.6-1.49.46-1.61-.2-.16-1,1.21-2.18,1.26-1.23.05-2.11-1.38-2.41-1.15Z" fill="#755023" stroke="#63411f" stroke-miterlimit="10" stroke-width=".17"/>
    <path d="M126.11,83.51c.02-.44.13-.85.31-1.21.42-.85,1.44-1.71,2.74-1.6,1.15.09,2.13.92,2.45,2.05.24-.2.6-.48,1.08-.74.39-.21,1.2-.65,1.91-.63,1.05.03,2.05,1.09,2.6,2.52.22-.05,1.59-.32,2.75.55,1.09.82,1.56,2.31,1.17,3.75-.72.46-2.01,1.15-3.75,1.41-2.31.34-4.14-.25-4.99-.59-.25.2-1.61,1.23-3.52.99-1.66-.21-2.65-1.25-2.9-1.53-1.93.08-3.43-.92-3.59-1.93-.19-1.16,1.27-2.94,3.75-3.05Z" fill="#739e3b" stroke="#698937" stroke-miterlimit="10" stroke-width=".1"/>
  </g>
  <path d="M83.53,155.21h26.37v-83.49h-54.43V-9.52" fill="none" stroke="#afa9a3" stroke-linecap="round" stroke-linejoin="round" stroke-width="8.45"/>
  <path d="M68.4,168.43v56.88h81.24" fill="none" stroke="#afa9a3" stroke-linecap="round" stroke-linejoin="round" stroke-width="8"/>
  <path d="M54.34,154.37H-7.98" fill="none" stroke="#afa9a3" stroke-linecap="round" stroke-linejoin="round" stroke-width="8.56"/>
  <path d="M102.72,226.52v32.41H-4.98" fill="none" stroke="#afa9a3" stroke-linecap="round" stroke-linejoin="round" stroke-width="8.56"/>
  <path d="M53.95,25.2H-11.3" fill="none" stroke="#afa9a3" stroke-linecap="round" stroke-linejoin="round" stroke-width="8.56"/>
  <path d="M112.2,111.87h42.65" fill="none" stroke="#afa9a3" stroke-linecap="round" stroke-linejoin="round" stroke-width="8.56"/>
  <path d="M68.69,139.16v-21.17H-7.18" fill="none" stroke="#afa9a3" stroke-linecap="round" stroke-linejoin="round" stroke-width="9.77"/>
  <path d="M87.78,155.21h22.13v-83.49h-54.43V-9.52" fill="none" stroke="#d8d7d6" stroke-dasharray="5 10" stroke-miterlimit="10"/>
  <path d="M68.4,173.21c0,17.37,0,34.74,0,52.1h81.24" fill="none" stroke="#d8d7d6" stroke-dasharray="5 10" stroke-miterlimit="10"/>
  <path d="M49.48,154.18c-19.15.06-38.31.13-57.46.19" fill="none" stroke="#d8d7d6" stroke-dasharray="5 10" stroke-miterlimit="10"/>
  <path d="M102.72,226.52v32.41H-4.98" fill="none" stroke="#d8d7d6" stroke-dasharray="5 10" stroke-miterlimit="10"/>
  <path d="M53.95,25.2H-11.3" fill="none" stroke="#d8d7d6" stroke-dasharray="5 10" stroke-miterlimit="10"/>
  <path d="M112.2,111.87h42.65" fill="none" stroke="#d8d7d6" stroke-dasharray="5 10" stroke-miterlimit="10"/>
  <path d="M68.86,133.43c-.06-5.15-.11-10.29-.17-15.44H-7.18" fill="none" stroke="#d8d7d6" stroke-dasharray="5 10" stroke-miterlimit="10"/>
  <circle cx="68.4" cy="154.37" r="15.21" fill="#bbed8e" stroke="#afa9a3" stroke-miterlimit="10" stroke-width="8.65"/>
  <circle cx="68.4" cy="154.37" r="14.29" fill="#afa9a3" stroke="#d8d7d6" stroke-dasharray="4.77 9.54" stroke-linejoin="round" stroke-width=".95"/>
  <circle cx="68.4" cy="154.37" r="9.71" fill="#bbed8e"/>
</svg>