<?xml version="1.0" encoding="UTF-8"?>
<svg id="store_boutique" xmlns="http://www.w3.org/2000/svg" width=".52in" height=".39in" viewBox="0 0 37.49 28.24">
  <rect x="2.03" y="6.26" width="33.69" height="21.85" fill="#d3a7cf" stroke="#ccbaca" stroke-miterlimit="10" stroke-width=".25"/>
  <rect x="17.62" y="11.53" width="16.79" height="15.56" fill="#d3eaea" stroke="#59524b" stroke-miterlimit="10" stroke-width=".25"/>
  <rect x="6.43" y="14.95" width="6.56" height="12.56" fill="#d3eaea" stroke="#59524b" stroke-miterlimit="10" stroke-width=".74"/>
  <line x1="8.57" y1="14.91" x2="8.57" y2="27.17" fill="none" stroke="#59524b" stroke-miterlimit="10" stroke-width=".25"/>
  <line x1="10.59" y1="14.91" x2="10.59" y2="27.17" fill="none" stroke="#59524b" stroke-miterlimit="10" stroke-width=".25"/>
  <line x1="13.16" y1="18.44" x2="6.38" y2="18.44" fill="none" stroke="#59524b" stroke-miterlimit="10" stroke-width=".25"/>
  <line x1="13.16" y1="21.11" x2="6.38" y2="21.11" fill="none" stroke="#59524b" stroke-miterlimit="10" stroke-width=".25"/>
  <line x1="13.16" y1="24.16" x2="6.38" y2="24.16" fill="none" stroke="#59524b" stroke-miterlimit="10" stroke-width=".25"/>
  <path d="M17.68,27.06c5.56-.03,11.13-.06,16.69-.09v-.73c-1.94-.61-4.8-1.26-8.29-1.27-3.53,0-6.42.66-8.38,1.27,0,.27,0,.54-.01.81Z" fill="#b0c1c0"/>
  <line x1="21.04" y1="26.48" x2="21.04" y2="21.66" fill="#54441a" stroke="#59524b" stroke-miterlimit="10" stroke-width=".25"/>
  <line x1="26.02" y1="26.48" x2="26.02" y2="21.66" fill="#54441a" stroke="#59524b" stroke-miterlimit="10" stroke-width=".25"/>
  <line x1="31.11" y1="26.48" x2="31.11" y2="21.66" fill="#54441a" stroke="#59524b" stroke-miterlimit="10" stroke-width=".25"/>
  <g>
    <polygon points="37.49 9.18 0 9.18 1.97 0 35.51 0 37.49 9.18" fill="#595757"/>
    <polygon points="35.69 1.81 1.72 1.81 1.95 .75 35.47 .75 35.69 1.81" fill="#f6f1ee"/>
    <polygon points="36.13 3.85 1.29 3.85 1.52 2.74 35.89 2.74 36.13 3.85" fill="#f6f1ee"/>
    <polygon points="36.58 6 .83 6 1.08 4.83 36.33 4.83 36.58 6" fill="#f6f1ee"/>
    <polygon points="37.06 8.26 .35 8.26 .61 7.03 36.8 7.03 37.06 8.26" fill="#f6f1ee"/>
    <polygon points="37.49 9.18 0 9.18 1.97 0 35.51 0 37.49 9.18" fill="none"/>
  </g>
  <rect x="8.27" y="1.79" width="20.64" height="5.45" fill="#f6f1ee" stroke="#b272af" stroke-miterlimit="10" stroke-width=".43"/>
  <g>
    <path d="M10,5.58v-2.57h.7c.47,0,.77.3.77.7,0,.22-.06.36-.23.5.25.14.38.34.38.63,0,.46-.34.75-.81.75h-.81ZM10.69,4.07c.25,0,.41-.12.41-.36s-.16-.37-.43-.37h-.29v.73h.31ZM10.78,5.23c.27,0,.47-.15.47-.4,0-.17-.12-.41-.46-.41h-.41v.81h.4Z"/>
    <path d="M13.24,5.63c-.54,0-1.03-.46-1.03-1.01,0-.59.46-1.02,1.05-1.02.53,0,1.03.42,1.03,1.03,0,.51-.44,1-1.05,1ZM13.25,3.93c-.36,0-.67.31-.67.68s.3.69.67.69.69-.3.69-.69-.3-.68-.68-.68Z"/>
    <path d="M16.32,5.58v-.21h0c-.09.16-.31.26-.57.26-.41,0-.8-.22-.8-.9v-1.07h.36v1.05c0,.4.15.6.48.6s.5-.23.5-.61v-1.04h.36v1.93h-.33Z"/>
    <path d="M17.49,5.58v-1.6h-.26v-.33h.26v-.65h.36v.65h.32v.33h-.32v1.6h-.36Z"/>
    <path d="M18.73,3.43v-.42h.36v.42h-.36ZM18.73,5.58v-1.93h.36v1.93h-.36Z"/>
    <path d="M21.44,6.22v-.91h0c-.14.2-.38.32-.64.32-.57,0-1.01-.45-1.01-1.02s.44-1.01,1-1.01c.31,0,.58.16.68.31h0v-.26h.33v2.57h-.36ZM21.47,4.62c0-.39-.29-.69-.67-.69s-.66.29-.66.68.29.69.67.69.66-.31.66-.67Z"/>
    <path d="M23.96,5.58v-.21h0c-.09.16-.31.26-.57.26-.41,0-.8-.22-.8-.9v-1.07h.36v1.05c0,.4.15.6.48.6s.5-.23.5-.61v-1.04h.36v1.93h-.33Z"/>
    <path d="M25.33,4.77c.08.32.34.53.63.53.23,0,.44-.12.55-.32h.36c-.15.4-.51.65-.93.65-.54,0-.98-.48-.98-1,0-.61.46-1.03.97-1.03.57,0,1,.44,1,.99,0,.06,0,.12-.01.18h-1.6ZM26.58,4.49c-.03-.33-.32-.56-.63-.56s-.59.23-.62.56h1.25Z"/>
  </g>
  <g>
    <path d="M20.75,17.33c-.04.41-.2.63-.32.74-.29.26-.65.21-.76.48-.04.1-.02.21.03.44.03.16.08.3.24.68.06.14.14.32.24.54.01.07.03.18.02.3-.02.39-.22.58-.33.9-.06.17-.11.43-.06.8.19.03.4.05.62.07.24.02.47.03.69.03.02-1.66.05-3.32.07-4.99h-.43Z" fill="#d8d5b5" stroke="#d8d5b5" stroke-miterlimit="10" stroke-width=".16"/>
    <path d="M21.33,17.33c.04.41.2.63.32.74.29.26.65.21.76.48.04.1.02.21-.03.44-.03.16-.08.3-.24.68-.06.14-.14.32-.24.54-.01.07-.03.18-.02.3.02.39.22.58.33.9.06.17.11.43.06.8-.19.03-.4.05-.62.07-.19.02-.38.02-.56.03-.07-1.66-.13-3.32-.2-4.99h.43Z" fill="#d8d5b5" stroke="#d8d5b5" stroke-miterlimit="10" stroke-width=".16"/>
  </g>
  <g>
    <path d="M25.62,17.33c-.04.41-.2.63-.32.74-.29.26-.65.21-.76.48-.04.1-.02.21.03.44.03.16.08.3.24.68.06.14.14.32.24.54.01.07.03.18.02.3-.02.39-.22.58-.33.9-.06.17-.11.43-.06.8.19.03.4.05.62.07.24.02.47.03.69.03.02-1.66.05-3.32.07-4.99h-.43Z" fill="#d8d5b5" stroke="#d8d5b5" stroke-miterlimit="10" stroke-width=".16"/>
    <path d="M26.28,17.33c.04.41.2.63.32.74.29.26.65.21.76.48.04.1.02.21-.03.44-.03.16-.08.3-.24.68-.06.14-.14.32-.24.54-.01.07-.03.18-.02.3.02.39.22.58.33.9.06.17.11.43.06.8-.19.03-.4.05-.62.07-.19.02-.38.02-.56.03-.07-1.66-.13-3.32-.2-4.99h.43Z" fill="#d8d5b5" stroke="#d8d5b5" stroke-miterlimit="10" stroke-width=".16"/>
  </g>
  <g>
    <path d="M30.71,17.33c-.04.41-.2.63-.32.74-.29.26-.65.21-.76.48-.04.1-.02.21.03.44.03.16.08.3.24.68.06.14.14.32.24.54.01.07.03.18.02.3-.02.39-.22.58-.33.9-.06.17-.11.43-.06.8.19.03.4.05.62.07.24.02.47.03.69.03.02-1.66.05-3.32.07-4.99h-.43Z" fill="#d8d5b5" stroke="#d8d5b5" stroke-miterlimit="10" stroke-width=".16"/>
    <path d="M31.37,17.33c.04.41.2.63.32.74.29.26.65.21.76.48.04.1.02.21-.03.44-.03.16-.08.3-.24.68-.06.14-.14.32-.24.54-.01.07-.03.18-.02.3.02.39.22.58.33.9.06.17.11.43.06.8-.19.03-.4.05-.62.07-.19.02-.38.02-.56.03-.07-1.66-.13-3.32-.2-4.99h.43Z" fill="#d8d5b5" stroke="#d8d5b5" stroke-miterlimit="10" stroke-width=".16"/>
  </g>
  <g>
    <path id="Shirt" d="M29.81,19.2s0,.72,0,2.16c.27.11.72.25,1.29.26.62.01,1.1-.14,1.39-.25-.02-.34-.04-.69-.04-1.06,0-.59.01-1.1.02-1.1,0,0,0,.08,0,.46.26-.05.53-.11.79-.16-.01-.13-.05-.5-.16-.8-.03-.08-.07-.17-.16-.24-.09-.08-.17-.1-.23-.12-.29-.09-.6-.15-.74-.17-.01.03-.3.5-.86.51-.38,0-.73-.2-.91-.53-.19.04-.42.1-.66.21-.1.05-.2.09-.28.14,0,0,0,0,0,0,0,0-.04.03-.07.07-.03.03-.13.44-.18,1.03.28.05.55.1.83.15,0-.36,0-.54,0-.54Z" fill="#cfcfe5" stroke="#aba7c4" stroke-miterlimit="10" stroke-width=".16"/>
    <path d="M29.8,20.86c.46.2.92.39,1.39.59.42-.21.85-.43,1.27-.64.11.49.2.89.25,1.16.05.24.08.42.15.7.08.33.16.6.21.78-.33.16-1,.45-1.9.44-.91,0-1.58-.31-1.9-.49.05-.15.12-.38.19-.66.07-.3.09-.51.13-.74.04-.27.11-.65.22-1.13Z" fill="#cfcfe5" stroke="#aba7c4" stroke-miterlimit="10" stroke-width=".16"/>
    <polygon points="29.9 22.47 29.7 23.62 29.58 23.6 29.9 22.47 29.9 22.47" fill="#aba7c4"/>
    <polygon points="30.22 22.55 30.1 23.71 29.98 23.69 30.22 22.55 30.22 22.55" fill="#aba7c4"/>
    <polygon points="30.53 22.63 30.49 23.8 30.37 23.79 30.53 22.63 30.53 22.63" fill="#aba7c4"/>
    <polygon points="30.84 22.71 30.85 23.87 30.73 23.87 30.84 22.71 30.84 22.71" fill="#aba7c4"/>
    <polygon points="32.43 22.45 32.75 23.57 32.63 23.6 32.43 22.45 32.43 22.45" fill="#aba7c4"/>
    <polygon points="32.11 22.53 32.35 23.67 32.23 23.69 32.11 22.53 32.11 22.53" fill="#aba7c4"/>
    <polygon points="31.8 22.61 31.96 23.76 31.84 23.77 31.8 22.61 31.8 22.61" fill="#aba7c4"/>
    <polygon points="31.46 22.69 31.59 23.84 31.47 23.85 31.46 22.69 31.46 22.69" fill="#aba7c4"/>
    <polygon points="31.15 22.74 31.21 23.9 31.09 23.9 31.15 22.74 31.15 22.74" fill="#aba7c4"/>
  </g>
  <g>
    <path id="Shirt-2" data-name="Shirt" d="M24.68,19.15c-.03.73-.06,1.46-.09,2.19.33.1.8.22,1.38.22.61,0,1.11-.1,1.45-.2-.03-.74-.06-1.47-.09-2.21,0,.21.02.43.03.64.3,0,.6,0,.9,0-.11-.53-.22-.93-.3-1.13-.02-.06-.06-.16-.16-.24-.09-.08-.18-.11-.23-.12-.21-.06-.5-.15-.86-.24-.12.32-.43.52-.76.52-.34,0-.64-.21-.76-.52-.36.11-.63.2-.79.25-.06.02-.17.05-.28.14-.03.02-.05.04-.07.07-.1.11-.13.21-.23.63-.06.23-.1.41-.13.5.32.05.63.1.95.15" fill="#f7f7f7" stroke="#ceced6" stroke-linecap="round" stroke-linejoin="round" stroke-width=".16"/>
    <line x1="24.71" y1="19.54" x2="27.32" y2="19.54" fill="none" stroke="#345eab" stroke-miterlimit="10" stroke-width=".11"/>
    <line x1="24.71" y1="19.73" x2="27.32" y2="19.73" fill="none" stroke="#b82025" stroke-miterlimit="10" stroke-width=".11"/>
    <path id="Shirt-3" data-name="Shirt" d="M24.68,19.15c-.03.73-.06,1.46-.09,2.19.33.1.8.22,1.38.22.61,0,1.11-.1,1.45-.2-.03-.74-.06-1.47-.09-2.21,0,.21.02.43.03.64.3,0,.6,0,.9,0-.11-.53-.22-.93-.3-1.13-.02-.06-.06-.16-.16-.24-.09-.08-.18-.11-.23-.12-.21-.06-.5-.15-.86-.24-.12.32-.43.52-.76.52-.34,0-.64-.21-.76-.52-.36.11-.63.2-.79.25-.06.02-.17.05-.28.14-.03.02-.05.04-.07.07-.1.11-.13.21-.23.63-.06.23-.1.41-.13.5.32.05.63.1.95.15" fill="none" stroke="#ceced6" stroke-linecap="round" stroke-linejoin="round" stroke-width=".16"/>
  </g>
  <path d="M17.68,24.09c4.87-4.14,9.74-8.27,14.61-12.41.64-.01,1.29-.03,1.94-.04-5.19,5.16-10.37,10.32-15.56,15.48-.32,0-.64.01-.97.02,0-1.02-.01-2.04-.02-3.05Z" fill="#f3fffe" opacity=".31"/>
  <path d="M17.71,16.68c2.37-1.73,4.74-3.46,7.11-5.19.3.02.59.03.89.05-2.7,2.32-5.39,4.64-8.09,6.96,0-.14,0-.28,0-.42.03-.47.06-.93.09-1.4Z" fill="#f3fffe" opacity=".31"/>
  <path d="M6.47,26.12c2.17-1.85,4.34-3.71,6.51-5.56.01.23.03.46.04.68-1.92,2.09-3.84,4.18-5.76,6.27-.26-.03-.52-.07-.79-.1v-1.3Z" fill="#f3fffe" opacity=".31"/>
  <path d="M6.34,23.11c2.24-1.54,4.49-3.09,6.73-4.63-.03.05-.05.11-.07.18-.04.14-.03.26-.02.34-2.18,1.81-4.37,3.63-6.55,5.44l-.15-.55c.02-.26.04-.53.07-.79Z" fill="#f3fffe" opacity=".31"/>
  <rect x="6.43" y="14.95" width="6.56" height="12.56" fill="none" stroke="#59524b" stroke-miterlimit="10" stroke-width=".74"/>
  <circle cx="6.57" cy="21.15" r=".34" fill="#877c51"/>
  <circle cx="6.61" cy="21.09" r=".34" fill="#d1bf74"/>
  <rect x="17.62" y="11.53" width="16.79" height="15.56" fill="none" stroke="#59524b" stroke-miterlimit="10" stroke-width=".25"/>
  <g>
    <polygon points="14.98 15.34 4.5 15.34 5.05 11.84 14.43 11.84 14.98 15.34" fill="#595757"/>
    <polygon points="14.48 12.53 4.98 12.53 5.04 12.13 14.41 12.13 14.48 12.53" fill="#f6f1ee"/>
    <polygon points="14.6 13.31 4.86 13.31 4.92 12.88 14.53 12.88 14.6 13.31" fill="#f6f1ee"/>
    <polygon points="14.72 14.13 4.73 14.13 4.8 13.68 14.66 13.68 14.72 14.13" fill="#f6f1ee"/>
    <polygon points="14.86 14.99 4.59 14.99 4.67 14.52 14.79 14.52 14.86 14.99" fill="#f6f1ee"/>
    <polygon points="14.98 15.34 4.5 15.34 5.05 11.84 14.43 11.84 14.98 15.34" fill="none"/>
  </g>
</svg>