<?xml version="1.0" encoding="UTF-8"?>
<svg id="stoore_furniture" xmlns="http://www.w3.org/2000/svg" width=".57in" height=".38in" viewBox="0 0 41.31 27.12">
  <rect x="1.28" y="2.28" width="5.07" height="4.7" fill="#845f40" stroke="#6d4d33" stroke-miterlimit="10" stroke-width=".27"/>
  <rect x=".65" y="1.55" width="6.32" height="1.14" fill="#755339" stroke="#634530" stroke-miterlimit="10" stroke-width=".27"/>
  <rect x="34.96" y="2.28" width="5.07" height="4.7" fill="#845f40" stroke="#6d4d33" stroke-miterlimit="10" stroke-width=".27"/>
  <rect x="34.34" y="1.55" width="6.32" height="1.14" fill="#755339" stroke="#634530" stroke-miterlimit="10" stroke-width=".27"/>
  <path d="M6.52,5.39h28.31c-.85-.76-6.5-5.64-15.2-5.24C12.19.5,7.56,4.46,6.52,5.39Z" fill="#845f40" stroke="#6d4d33" stroke-miterlimit="10" stroke-width=".27"/>
  <path d="M12.16,5.29h17.03c-.51-.46-3.91-3.39-9.15-3.15-4.47.21-7.26,2.59-7.88,3.15Z" fill="#b79758" stroke="#d6bc71" stroke-miterlimit="10" stroke-width=".29"/>
  <path d="M12.16,6.66h17.03c-.51-.46-3.91-3.39-9.15-3.15-4.47.21-7.26,2.59-7.88,3.15Z" fill="#845f40" stroke="#6d4d33" stroke-miterlimit="10" stroke-width=".27"/>
  <rect x=".73" y="5.13" width="39.78" height="21.85" fill="#845f40" stroke="#6d4d33" stroke-miterlimit="10" stroke-width=".27"/>
  <rect x=".18" y="7.47" width="40.94" height="1" fill="#6d4d35" stroke="#5e422d" stroke-miterlimit="10" stroke-width=".31"/>
  <rect x=".18" y="9.76" width="40.94" height="1.41" fill="#6d4d35" stroke="#5e422d" stroke-miterlimit="10" stroke-width=".37"/>
  <rect x="1.88" y="14" width="11.55" height="11.1" fill="#d3eaea" stroke="#59524b" stroke-miterlimit="10" stroke-width=".17"/>
  <rect x="27.91" y="14" width="11.55" height="11.1" fill="#d3eaea" stroke="#59524b" stroke-miterlimit="10" stroke-width=".17"/>
  <rect x="9.91" y="6.56" width="21.52" height="5.24" fill="#f9f2e1" stroke="#d3af57" stroke-miterlimit="10" stroke-width=".43"/>
  <g>
    <path d="M11.94,10.25v-2.57h1.31v.34h-.93v.77h.93v.34h-.93v1.11h-.38Z"/>
    <path d="M15.44,10.25v-.21h0c-.09.16-.32.26-.57.26-.42,0-.81-.22-.81-.9v-1.07h.37v1.05c0,.4.15.6.48.6s.51-.23.51-.61v-1.04h.36v1.93h-.33Z"/>
    <path d="M16.65,10.25v-1.93h.34v.17h0c.09-.13.24-.21.5-.23v.37c-.32.01-.48.2-.48.53v1.08h-.36Z"/>
    <path d="M19.62,10.25v-1.05c0-.41-.16-.6-.48-.6s-.51.23-.51.59v1.05h-.37v-1.93h.34v.21h0c.14-.18.34-.26.57-.26.47,0,.81.29.81.82v1.15h-.37Z"/>
    <path d="M20.86,8.1v-.42h.36v.42h-.36ZM20.86,10.25v-1.93h.36v1.93h-.36Z"/>
    <path d="M22.17,10.25v-1.6h-.26v-.33h.26v-.65h.36v.65h.32v.33h-.32v1.6h-.36Z"/>
    <path d="M24.89,10.25v-.21h0c-.09.16-.32.26-.57.26-.42,0-.81-.22-.81-.9v-1.07h.37v1.05c0,.4.15.6.48.6s.51-.23.51-.61v-1.04h.36v1.93h-.33Z"/>
    <path d="M26.11,10.25v-1.93h.34v.17h0c.09-.13.24-.21.5-.23v.37c-.32.01-.48.2-.48.53v1.08h-.36Z"/>
    <path d="M27.88,9.44c.08.32.34.53.64.53.23,0,.44-.12.55-.32h.36c-.15.4-.52.65-.93.65-.55,0-.99-.48-.99-1,0-.61.46-1.03.98-1.03.57,0,1.01.44,1.01.99,0,.06,0,.11-.01.18h-1.61ZM29.14,9.16c-.03-.33-.32-.56-.63-.56s-.6.23-.62.56h1.26Z"/>
  </g>
  <path d="M27.91,25.11c3.84-.03,7.68-.06,11.51-.09,0-1.06-.02-2.12-.03-3.17-.65-.49-2.71-1.89-5.69-1.89-3.05,0-5.15,1.46-5.79,1.95,0,1.07,0,2.14,0,3.2Z" fill="#b0c1c0"/>
  <path d="M1.9,25.11c3.84-.03,7.68-.06,11.51-.09,0-1.06-.02-2.12-.03-3.17-.65-.49-2.71-1.89-5.69-1.89-3.05,0-5.15,1.46-5.79,1.95,0,1.07,0,2.14,0,3.2Z" fill="#b0c1c0"/>
  <g>
    <path d="M29.59,20.2c.23-.02.49-.02.79.01.12.01.23.03.33.06.6-.05,1.2-.1,1.8-.15.08-.05.19-.11.34-.15.18-.05.34-.04.44-.03,0,.26,0,.51,0,.77-.89.04-1.78.08-2.67.12-.35-.21-.7-.41-1.05-.62Z" fill="#282728"/>
    <path d="M33.31,19.92c0,.28.01.57.02.85,1.43.41,2.86.82,4.29,1.23.24-.06.49-.12.73-.18-.21-.22-.6-.56-1.17-.77-.42-.16-.78-.19-.78-.19-.27-.03-.41,0-.67-.06-.28-.06-.47-.17-.55-.22-.28-.16-.81-.37-1.86-.65Z" fill="#ce2e3a"/>
    <path d="M31.45,21.33c.81.51,1.62,1.01,2.42,1.52,1.26-.28,2.52-.56,3.78-.84-1.43-.41-2.85-.81-4.28-1.22-.64.18-1.28.36-1.92.54Z" fill="#ddd" stroke="#ccc8c8" stroke-miterlimit="10" stroke-width=".05"/>
    <path d="M32.58,21.75c.46-.07.93-.16,1.42-.25.35-.07.69-.14,1.02-.22-.51-.17-1.01-.34-1.52-.51-.74.18-1.49.37-2.23.55.18.09.39.19.64.27.25.08.47.13.67.16Z" fill="#ddd" stroke="#ccc8c8" stroke-miterlimit="10" stroke-width=".05"/>
    <line x1="29.98" y1="20.84" x2="30.05" y2="20.85" fill="none" stroke="#3f3e3d" stroke-miterlimit="10" stroke-width=".05"/>
    <path d="M33.92,22.69c1.47-.29,2.95-.58,4.42-.87.12.14.24.28.36.42,0,.06-.03.15-.07.25-.21.49-.76.68-1.13.81-.63.22-1.15.18-1.68.15-.55-.04-.92-.14-1.08-.2-.22-.07-.4-.15-.54-.21-.09-.11-.18-.23-.27-.34Z" fill="#282728"/>
    <path d="M35.97,22.33c.24.31.49.61.73.92.12-.01.24-.03.36-.04-.24-.32-.48-.64-.73-.95-.12.02-.24.05-.37.07Z" fill="#ce2e3a"/>
    <path d="M36.37,22.25c.24.32.49.63.73.95.1-.03.21-.06.31-.09-.23-.31-.45-.62-.68-.93-.12.02-.24.05-.37.07Z" fill="#ce2e3a"/>
    <path d="M34.24,24.33c.2.03.47.06.8.06.71,0,1.23-.12,1.74-.24.45-.11,1.03-.29,1.69-.58.06-.2.12-.42.16-.67.04-.24.06-.47.07-.66-.07.17-.2.44-.47.68-.06.05-.29.23-.78.39-.19.06-.61.17-1.3.15-.44-.02-1.14-.1-1.97-.44-.03.16-.04.31-.05.42-.01.28.02.48.03.53.03.15.06.28.09.37Z" fill="#ce2e3a"/>
    <path d="M33.86,20.97s-.29-.27-.68-.42c-.07-.03-.16-.06-.29-.08-.21-.04-.37-.01-.5,0-.66.09-.72-.01-1.08.1-.11.04-.27.1-.45.21.25.18.51.37.76.55.41,0,.74-.04.97-.08.39-.07,1.07-.25,1.13-.27.01,0,.04-.01.09-.02.03,0,.03,0,.03,0Z" fill="#ddd" stroke="#ccc8c8" stroke-miterlimit="10" stroke-width=".05"/>
    <line x1="30.07" y1="22.04" x2="30.15" y2="22.04" fill="none" stroke="#3f3e3d" stroke-miterlimit="10" stroke-width=".05"/>
    <path d="M34.17,23.01c-.22-.31-.44-.54-.6-.7-.32-.32-.61-.59-1.05-.77-.25-.1-.24-.04-.54-.15-.54-.19-.76-.44-1.16-.7-.26-.17-.66-.37-1.22-.5-.13.29-.12.49-.09.62.03.13.09.2.13.42,0,.05.02.12.07.21.04.08.08.13.12.17.16.17.39.27.47.31.04.07.07.15.11.22.67.41,1.34.82,2.01,1.22.08.01.16.03.24.04.53.31,1.07.62,1.6.93-.05-.17-.11-.41-.12-.69-.01-.25.02-.47.05-.63Z" fill="#ce2e3a"/>
    <path d="M32.2,20.55s-.06-.05-.08-.05c-.03,0-.07.01-.11.02-.08.02-.11.02-.11.03,0,0,.13-.03.26.03.04.02.07.04.08.03,0,0-.01-.04-.03-.06Z" fill="#ccc8c8"/>
    <path d="M32.67,21.21s-.05.06-.06.07c-.03,0-.07,0-.12.01-.09,0-.12.01-.12,0,0,0,.13-.01.24-.11.03-.03.06-.06.07-.05.01,0,0,.04,0,.07Z" fill="#ccc8c8"/>
    <path d="M34.18,23.02c-.04.16-.07.37-.06.62.01.29.08.52.13.69" fill="none" stroke="#bc2a3c" stroke-miterlimit="10" stroke-width=".03"/>
    <rect x="32.21" y="19.85" width=".24" height=".32" fill="#282728"/>
    <rect x="30.81" y="19.99" width=".24" height=".32" fill="#282728"/>
    <path d="M34.56,23.52c-.02.05-.04.12-.04.2,0,.1,0,.19.02.24.13.02.27.03.43.02.15,0,.28-.02.4-.03-.08-.09-.22-.23-.44-.33-.15-.07-.28-.09-.38-.11Z" fill="#484749"/>
    <path d="M38.54,22.91c0,.07-.02.16-.05.25-.02.06-.04.11-.06.16-.04.02-.09.04-.14.06-.08.03-.15.05-.21.07.05-.09.12-.21.23-.33.08-.09.16-.15.23-.2Z" fill="#484749"/>
    <ellipse cx="34.73" cy="23.79" rx=".13" ry=".13" fill="#ddd"/>
    <circle cx="34.98" cy="23.86" r=".08" fill="#ddd"/>
    <ellipse cx="38.38" cy="23.2" rx=".08" ry=".05" transform="translate(11.64 59.21) rotate(-84.55)" fill="#ddd"/>
    <ellipse cx="38.27" cy="23.29" rx=".05" ry=".03" transform="translate(11.45 59.18) rotate(-84.55)" fill="#ddd"/>
    <path d="M29.83,19.64l-.02.34h.78s.08.04.12.06c.65-.04,1.31-.08,1.96-.12.04-.02.08-.04.12-.07.22,0,.44-.02.66-.02-.14-.12-.28-.24-.42-.37-.03.05-.06.1-.09.15-.95.05-1.89.09-2.84.14-.09-.03-.18-.07-.27-.1Z" fill="#282728"/>
    <g>
      <g>
        <polygon points="31.19 22.39 30.1 21.72 30.28 21.42 31.41 22.08 31.19 22.39" fill="#fff"/>
        <polygon points="30.49 21.75 30.34 21.66 30.43 21.51 30.59 21.6 30.49 21.75"/>
        <polygon points="30.8 21.94 30.64 21.84 30.74 21.69 30.91 21.79 30.8 21.94"/>
        <polygon points="31.13 22.13 30.96 22.04 31.07 21.88 31.24 21.98 31.13 22.13"/>
        <polygon points="30.24 21.81 30.09 21.72 30.19 21.57 30.34 21.66 30.24 21.81"/>
        <polygon points="30.55 22 30.39 21.9 30.49 21.75 30.65 21.85 30.55 22"/>
        <polygon points="30.86 22.19 30.7 22.09 30.8 21.94 30.97 22.04 30.86 22.19"/>
        <polygon points="31.19 22.39 31.03 22.29 31.13 22.13 31.3 22.24 31.19 22.39"/>
      </g>
      <g>
        <polygon points="32.72 22.84 31.41 22.08 31.19 22.39 32.47 23.17 32.72 22.84" fill="#fff"/>
        <polygon points="31.65 22.44 31.47 22.34 31.36 22.49 31.54 22.6 31.65 22.44"/>
        <polygon points="32.02 22.66 31.83 22.55 31.72 22.71 31.9 22.82 32.02 22.66"/>
        <polygon points="32.4 22.89 32.2 22.77 32.08 22.93 32.28 23.05 32.4 22.89"/>
        <polygon points="31.59 22.18 31.41 22.08 31.3 22.24 31.48 22.34 31.59 22.18"/>
        <polygon points="31.95 22.39 31.76 22.28 31.65 22.44 31.83 22.55 31.95 22.39"/>
        <polygon points="32.33 22.61 32.13 22.5 32.01 22.66 32.2 22.77 32.33 22.61"/>
        <polygon points="32.72 22.84 32.52 22.72 32.4 22.89 32.6 23.01 32.72 22.84"/>
      </g>
    </g>
    <g>
      <path d="M33.37,23.13c-.02.47-.24.72-.48.62-.2-.09-.38-.42-.42-.8-.04-.42.1-.82.35-.85.3-.03.57.47.55,1.03Z" fill="#3f3e3d" stroke="#3f3e3d" stroke-miterlimit="10" stroke-width=".05"/>
      <path d="M33.25,23.13c-.02.48-.25.72-.48.62-.21-.09-.38-.43-.42-.81-.04-.43.1-.83.35-.85.3-.03.57.48.55,1.03Z" fill="#555452" stroke="#3f3e3d" stroke-miterlimit="10" stroke-width=".05"/>
      <path d="M33.11,23.1c0,.35-.17.55-.35.49-.16-.06-.3-.33-.32-.62-.03-.32.08-.61.27-.61.21,0,.4.35.4.75Z" fill="#ededed"/>
      <path d="M33.05,23.09c0,.3-.14.48-.29.42-.14-.05-.26-.28-.28-.54-.02-.28.08-.52.24-.52.18,0,.34.3.34.63Z" fill="#a29f9a"/>
      <path d="M32.99,23.07c0,.24-.11.39-.23.35-.12-.04-.22-.23-.23-.44-.02-.23.07-.42.19-.41.14,0,.27.24.27.5Z" fill="#727270"/>
      <line x1="32.72" y1="22.53" x2="32.76" y2="23.47" fill="none" stroke="#a29f9a" stroke-miterlimit="10" stroke-width=".08"/>
      <line x1="32.92" y1="22.7" x2="32.59" y2="23.3" fill="none" stroke="#a29f9a" stroke-miterlimit="10" stroke-width=".08"/>
      <line x1="32.54" y1="22.66" x2="32.93" y2="23.4" fill="none" stroke="#a29f9a" stroke-miterlimit="10" stroke-width=".08"/>
      <line x1="33.02" y1="23.09" x2="32.5" y2="22.98" fill="none" stroke="#a29f9a" stroke-miterlimit="10" stroke-width=".08"/>
    </g>
    <g>
      <path d="M30.34,21.58c0,.34-.13.51-.26.44-.11-.06-.21-.3-.23-.57-.02-.3.05-.59.19-.6.16-.02.31.34.3.73Z" fill="#3f3e3d" stroke="#3f3e3d" stroke-miterlimit="10" stroke-width=".05"/>
      <path d="M30.28,21.58c0,.34-.14.52-.27.45-.11-.06-.21-.31-.23-.58-.02-.3.05-.59.19-.61.17-.02.31.34.3.74Z" fill="#555452" stroke="#3f3e3d" stroke-miterlimit="10" stroke-width=".05"/>
      <path d="M30.2,21.56c0,.25-.09.39-.19.35-.09-.04-.16-.23-.18-.44-.02-.23.05-.44.15-.44.12,0,.22.25.22.53Z" fill="#ededed"/>
      <path d="M30.17,21.55c0,.21-.08.34-.16.3-.08-.04-.14-.2-.16-.39-.01-.2.04-.37.13-.37.1,0,.19.22.19.45Z" fill="#a29f9a"/>
      <path d="M30.13,21.54c0,.17-.06.28-.13.25-.06-.03-.12-.16-.13-.32,0-.16.04-.3.11-.29.08,0,.15.17.15.36Z" fill="#727270"/>
      <line x1="29.98" y1="21.15" x2="30.01" y2="21.83" fill="none" stroke="#a29f9a" stroke-miterlimit="10" stroke-width=".05"/>
      <line x1="30.1" y1="21.28" x2="29.91" y2="21.71" fill="none" stroke="#a29f9a" stroke-miterlimit="10" stroke-width=".05"/>
      <line x1="29.89" y1="21.24" x2="30.1" y2="21.78" fill="none" stroke="#a29f9a" stroke-miterlimit="10" stroke-width=".05"/>
      <line x1="30.15" y1="21.55" x2="29.86" y2="21.48" fill="none" stroke="#a29f9a" stroke-miterlimit="10" stroke-width=".05"/>
    </g>
    <path d="M34.23,24.23c.13.02.32.05.54.06.61.04,1.07-.04,1.44-.1.65-.11,1.13-.28,1.56-.43.29-.1.53-.19.7-.27" fill="none" stroke="#bc2a3c" stroke-miterlimit="10" stroke-width=".05"/>
  </g>
  <path d="M27.95,22.96c3.35-2.95,6.7-5.9,10.05-8.85.44,0,.89-.02,1.33-.03-3.57,3.68-7.13,7.37-10.7,11.05-.22,0-.44,0-.67.01,0-.73,0-1.45-.01-2.18Z" fill="#f3fffe" opacity=".31"/>
  <path d="M27.97,17.67c1.63-1.24,3.26-2.47,4.89-3.71.2.01.41.02.61.03-1.85,1.66-3.71,3.31-5.56,4.97,0-.1,0-.2,0-.3.02-.33.04-.67.06-1Z" fill="#f3fffe" opacity=".31"/>
  <rect x="27.91" y="14" width="11.55" height="11.1" fill="none" stroke="#59524b" stroke-miterlimit="10" stroke-width=".17"/>
  <path d="M1.92,22.96c3.35-2.95,6.7-5.9,10.05-8.85.44,0,.89-.02,1.33-.03-3.57,3.68-7.13,7.37-10.7,11.05-.22,0-.44,0-.67.01,0-.73,0-1.45-.01-2.18Z" fill="#f3fffe" opacity=".31"/>
  <path d="M1.94,17.67c1.63-1.24,3.26-2.47,4.89-3.71.2.01.41.02.61.03-1.85,1.66-3.71,3.31-5.56,4.97,0-.1,0-.2,0-.3.02-.33.04-.67.06-1Z" fill="#f3fffe" opacity=".31"/>
  <rect x="1.88" y="14" width="11.55" height="11.1" fill="none" stroke="#59524b" stroke-miterlimit="10" stroke-width=".17"/>
  <rect x="20.71" y="14" width="6.13" height="12.79" fill="#d3eaea" stroke="#59524b" stroke-miterlimit="10" stroke-width=".24"/>
  <rect x="14.5" y="14" width="6.13" height="12.79" transform="translate(35.13 40.78) rotate(180)" fill="#d3eaea" stroke="#59524b" stroke-miterlimit="10" stroke-width=".24"/>
  <rect x="19.45" y="19.11" width=".45" height="2.54" rx=".04" ry=".04" fill="#877c51"/>
  <rect x="19.51" y="19.06" width=".45" height="2.54" rx=".05" ry=".05" fill="#d1bf74"/>
  <path d="M14.51,25.77l12.35-8.17c.01.22.01.46,0,.71-.02.37-.06.71-.11,1.01-3.19,2.5-6.37,5-9.56,7.5-.9.03-1.8.06-2.7.09,0-.38.02-.76.03-1.14Z" fill="#f3fffe" opacity=".31"/>
  <rect x="14.5" y="14" width="6.13" height="12.79" transform="translate(35.13 40.78) rotate(180)" fill="none" stroke="#59524b" stroke-miterlimit="10" stroke-width=".24"/>
  <rect x="20.71" y="14" width="6.13" height="12.79" fill="none" stroke="#59524b" stroke-miterlimit="10" stroke-width=".24"/>
  <rect x="21.41" y="19.11" width=".45" height="2.54" rx=".04" ry=".04" fill="#877c51"/>
  <rect x="21.47" y="19.06" width=".45" height="2.54" rx=".05" ry=".05" fill="#d1bf74"/>
  <g>
    <rect x="3.54" y="23.55" width=".58" height="1.08" rx=".28" ry=".28" fill="#96846e"/>
    <rect x="10.71" y="23.55" width=".58" height="1.08" rx=".28" ry=".28" fill="#96846e"/>
    <rect x="3.97" y="18.75" width="6.87" height="2.44" rx="1.16" ry="1.16" fill="#c1ab8c"/>
    <rect x="3.37" y="22.89" width="8.07" height="1.08" fill="#c1ab8c"/>
    <polygon points="11.44 22.89 3.37 22.89 3.99 20.94 10.81 20.94 11.44 22.89" fill="#96846e"/>
    <path d="M3.54,22.41h7.75v.02c0,.25-.2.45-.45.45H3.96c-.23,0-.42-.19-.42-.42v-.06h0Z" fill="#cccbc6"/>
    <path d="M10.64,20.42h-6.43s-.09.03-.1.08l-.57,1.92h7.75l-.56-1.93s-.05-.07-.09-.07Z" fill="#e5e5e5"/>
    <path d="M7.26,20.59c-.04.1-.66.12-1.38.03-.45.02-.94.04-1.26.06-.19.01-.35-.14-.35-.33,0,0-.08-.88.09-1.1.13-.17,2.63-.26,2.94.02.11.1-.11.47-.11.65s.19.49.07.67Z" fill="#f4f4f4"/>
    <path d="M7.26,20.59c-.04.1-.66.12-1.38.03-.45.02-.94.04-1.26.06-.19.01-.35-.14-.35-.33,0,0,.12.28.4.25.12-.01.65-.03,1.21-.03.51.05,1.02.05,1.25.03.07,0,.14-.06.15-.13.01-.09-.02-.21-.04-.35.01.02.15.29.03.47Z" fill="#cccbc6"/>
    <path d="M7.57,20.59c.04.1.66.12,1.38.03.45.02.94.04,1.26.06.19.01.35-.14.35-.33,0,0,.08-.88-.09-1.1-.13-.17-2.63-.26-2.94.02-.11.1.11.47.11.65,0,.18-.19.49-.07.67Z" fill="#f4f4f4"/>
    <path d="M7.57,20.59c.04.1.66.12,1.38.03.45.02.94.04,1.26.06.19.01.35-.14.35-.33,0,0-.12.28-.4.25-.12-.01-.65-.03-1.21-.03-.51.05-1.02.05-1.25.03-.07,0-.14-.06-.15-.13-.01-.09.02-.21.04-.35-.01.02-.15.29-.03.47Z" fill="#cccbc6"/>
    <path d="M10.93,21.39H3.91s-.08-.04-.07-.09l.12-.49s.04-.06.07-.06h6.76s.06.02.07.05l.13.49s-.02.09-.07.09Z" fill="#f4f4f4"/>
  </g>
</svg>