<?xml version="1.0" encoding="UTF-8"?>
<svg id="laundry_shelf" xmlns="http://www.w3.org/2000/svg" viewBox="0 0 98.91 71.28">
  <rect x=".23" y="66.27" width="98.45" height="4.89" fill="#725047" stroke="#5b3f3b" stroke-miterlimit="10" stroke-width=".25"/>
  <polygon points="98.68 66.11 .23 66.11 7.05 55.72 91.86 55.72 98.68 66.11" fill="#845e51" stroke="#5b3f3b" stroke-miterlimit="10" stroke-width=".25"/>
  <rect x=".23" y="29.35" width="98.45" height="4.89" fill="#725047" stroke="#5b3f3b" stroke-miterlimit="10" stroke-width=".25"/>
  <polygon points="98.68 29.2 .23 29.2 7.05 18.8 91.86 18.8 98.68 29.2" fill="#845e51" stroke="#5b3f3b" stroke-miterlimit="10" stroke-width=".25"/>
  <rect x="21.79" y="19.26" width="52.28" height="6.88" rx="2.16" ry="2.16" fill="#f9efef"/>
  <path d="M21.8,23.39c-.03.24-.04.6.06,1.01.04.17.09.37.21.6.31.59.83.85,1,.93.15.07.38.15.69.18h48.27c.17,0,.45-.04.76-.17.09-.04.39-.18.67-.47.39-.4.52-.86.57-1.08-.2.19-.59.5-1.17.69-.46.15-.87.16-1.13.14H23.98c-.23-.01-.53-.06-.85-.21-.95-.44-1.27-1.41-1.34-1.62Z" fill="#ddd7d7"/>
  <rect x="21.79" y="12.84" width="52.28" height="6.88" rx="2.16" ry="2.16" fill="#f9efef"/>
  <path d="M21.8,16.97c-.03.24-.04.6.06,1.01.04.17.09.37.21.6.31.59.83.85,1,.93.15.07.38.15.69.18h48.27c.17,0,.45-.04.76-.17.09-.04.39-.18.67-.47.39-.4.52-.86.57-1.08-.2.19-.59.5-1.17.69-.46.15-.87.16-1.13.14H23.98c-.23-.01-.53-.06-.85-.21-.95-.44-1.27-1.41-1.34-1.62Z" fill="#ddd7d7"/>
  <rect x="21.79" y="6.42" width="52.28" height="6.88" rx="2.16" ry="2.16" fill="#f9efef"/>
  <path d="M21.8,10.55c-.03.24-.04.6.06,1.01.04.17.09.37.21.6.31.59.83.85,1,.93.15.07.38.15.69.18h48.27c.17,0,.45-.04.76-.17.09-.04.39-.18.67-.47.39-.4.52-.86.57-1.08-.2.19-.59.5-1.17.69-.46.15-.87.16-1.13.14H23.98c-.23-.01-.53-.06-.85-.21-.95-.44-1.27-1.41-1.34-1.62Z" fill="#ddd7d7"/>
  <rect x="21.79" width="52.28" height="6.88" rx="2.16" ry="2.16" fill="#f9efef"/>
  <path d="M21.8,4.13c-.03.24-.04.6.06,1.01.04.17.09.37.21.6.31.59.83.85,1,.93.15.07.38.15.69.18h48.27c.17,0,.45-.04.76-.17.09-.04.39-.18.67-.47.39-.4.52-.86.57-1.08-.2.19-.59.5-1.17.69-.46.15-.87.16-1.13.14H23.98c-.23-.01-.53-.06-.85-.21-.95-.44-1.27-1.41-1.34-1.62Z" fill="#ddd7d7"/>
  <rect x="12.69" y="39.06" width="15.82" height="24.08" rx="2.18" ry="2.18" fill="#9ecdd8" stroke="#8eb8bf" stroke-miterlimit="10" stroke-width=".25"/>
  <rect x="12.69" y="37.05" width="15.82" height="2.25" rx="1.13" ry="1.13" fill="#ededed" stroke="#e2e2e2" stroke-miterlimit="10" stroke-width=".25"/>
  <rect x="15.44" y="43.11" width="10.17" height="16.66" rx="1.61" ry="1.61" fill="#8ab1b7" stroke="#8ab1b7" stroke-miterlimit="10" stroke-width=".25"/>
  <rect x="17.51" y="46.47" width="6.42" height="1.83" fill="#9ecdd8" stroke="#8ab1b7" stroke-miterlimit="10" stroke-width=".25"/>
  <rect x="17.51" y="48.61" width="6.42" height=".99" fill="#9ecdd8" stroke="#8ab1b7" stroke-miterlimit="10" stroke-width=".25"/>
  <line x1="13.55" y1="37.6" x2="13.55" y2="38.74" fill="none" stroke="#e2e2e2" stroke-linecap="round" stroke-linejoin="round" stroke-width=".25"/>
  <line x1="14.3" y1="37.6" x2="14.3" y2="38.74" fill="none" stroke="#e2e2e2" stroke-linecap="round" stroke-linejoin="round" stroke-width=".25"/>
  <line x1="15.04" y1="37.6" x2="15.04" y2="38.74" fill="none" stroke="#e2e2e2" stroke-linecap="round" stroke-linejoin="round" stroke-width=".25"/>
  <line x1="15.79" y1="37.6" x2="15.79" y2="38.74" fill="none" stroke="#e2e2e2" stroke-linecap="round" stroke-linejoin="round" stroke-width=".25"/>
  <line x1="16.53" y1="37.6" x2="16.53" y2="38.74" fill="none" stroke="#e2e2e2" stroke-linecap="round" stroke-linejoin="round" stroke-width=".25"/>
  <line x1="17.28" y1="37.6" x2="17.28" y2="38.74" fill="none" stroke="#e2e2e2" stroke-linecap="round" stroke-linejoin="round" stroke-width=".25"/>
  <line x1="18.02" y1="37.6" x2="18.02" y2="38.74" fill="none" stroke="#e2e2e2" stroke-linecap="round" stroke-linejoin="round" stroke-width=".25"/>
  <line x1="18.77" y1="37.6" x2="18.77" y2="38.74" fill="none" stroke="#e2e2e2" stroke-linecap="round" stroke-linejoin="round" stroke-width=".25"/>
  <line x1="19.51" y1="37.6" x2="19.51" y2="38.74" fill="none" stroke="#e2e2e2" stroke-linecap="round" stroke-linejoin="round" stroke-width=".25"/>
  <line x1="20.26" y1="37.6" x2="20.26" y2="38.74" fill="none" stroke="#e2e2e2" stroke-linecap="round" stroke-linejoin="round" stroke-width=".25"/>
  <line x1="21" y1="37.6" x2="21" y2="38.74" fill="none" stroke="#e2e2e2" stroke-linecap="round" stroke-linejoin="round" stroke-width=".25"/>
  <line x1="21.75" y1="37.6" x2="21.75" y2="38.74" fill="none" stroke="#e2e2e2" stroke-linecap="round" stroke-linejoin="round" stroke-width=".25"/>
  <line x1="22.49" y1="37.6" x2="22.49" y2="38.74" fill="none" stroke="#e2e2e2" stroke-linecap="round" stroke-linejoin="round" stroke-width=".25"/>
  <line x1="23.24" y1="37.6" x2="23.24" y2="38.74" fill="none" stroke="#e2e2e2" stroke-linecap="round" stroke-linejoin="round" stroke-width=".25"/>
  <line x1="23.98" y1="37.6" x2="23.98" y2="38.74" fill="none" stroke="#e2e2e2" stroke-linecap="round" stroke-linejoin="round" stroke-width=".25"/>
  <line x1="24.73" y1="37.6" x2="24.73" y2="38.74" fill="none" stroke="#e2e2e2" stroke-linecap="round" stroke-linejoin="round" stroke-width=".25"/>
  <line x1="25.47" y1="37.6" x2="25.47" y2="38.74" fill="none" stroke="#e2e2e2" stroke-linecap="round" stroke-linejoin="round" stroke-width=".25"/>
  <line x1="26.22" y1="37.6" x2="26.22" y2="38.74" fill="none" stroke="#e2e2e2" stroke-linecap="round" stroke-linejoin="round" stroke-width=".25"/>
  <line x1="26.96" y1="37.6" x2="26.96" y2="38.74" fill="none" stroke="#e2e2e2" stroke-linecap="round" stroke-linejoin="round" stroke-width=".25"/>
  <line x1="27.71" y1="37.6" x2="27.71" y2="38.74" fill="none" stroke="#e2e2e2" stroke-linecap="round" stroke-linejoin="round" stroke-width=".25"/>
  <rect x="33.33" y="45.82" width="15.82" height="17.32" rx="2.18" ry="2.18" fill="#9ecdd8" stroke="#8eb8bf" stroke-miterlimit="10" stroke-width=".25"/>
  <rect x="33.33" y="44.38" width="15.82" height="1.62" rx=".81" ry=".81" fill="#ededed" stroke="#e2e2e2" stroke-miterlimit="10" stroke-width=".25"/>
  <rect x="36.08" y="48.73" width="10.17" height="11.98" rx="1.61" ry="1.61" fill="#8ab1b7" stroke="#8ab1b7" stroke-miterlimit="10" stroke-width=".25"/>
  <rect x="38.14" y="51.15" width="6.42" height="1.32" fill="#9ecdd8" stroke="#8ab1b7" stroke-miterlimit="10" stroke-width=".25"/>
  <rect x="38.14" y="52.69" width="6.42" height=".71" fill="#9ecdd8" stroke="#8ab1b7" stroke-miterlimit="10" stroke-width=".25"/>
  <line x1="34.19" y1="44.77" x2="34.19" y2="45.59" fill="none" stroke="#e2e2e2" stroke-linecap="round" stroke-linejoin="round" stroke-width=".25"/>
  <line x1="34.93" y1="44.77" x2="34.93" y2="45.59" fill="none" stroke="#e2e2e2" stroke-linecap="round" stroke-linejoin="round" stroke-width=".25"/>
  <line x1="35.68" y1="44.77" x2="35.68" y2="45.59" fill="none" stroke="#e2e2e2" stroke-linecap="round" stroke-linejoin="round" stroke-width=".25"/>
  <line x1="36.42" y1="44.77" x2="36.42" y2="45.59" fill="none" stroke="#e2e2e2" stroke-linecap="round" stroke-linejoin="round" stroke-width=".25"/>
  <line x1="37.17" y1="44.77" x2="37.17" y2="45.59" fill="none" stroke="#e2e2e2" stroke-linecap="round" stroke-linejoin="round" stroke-width=".25"/>
  <line x1="37.91" y1="44.77" x2="37.91" y2="45.59" fill="none" stroke="#e2e2e2" stroke-linecap="round" stroke-linejoin="round" stroke-width=".25"/>
  <line x1="38.66" y1="44.77" x2="38.66" y2="45.59" fill="none" stroke="#e2e2e2" stroke-linecap="round" stroke-linejoin="round" stroke-width=".25"/>
  <line x1="39.4" y1="44.77" x2="39.4" y2="45.59" fill="none" stroke="#e2e2e2" stroke-linecap="round" stroke-linejoin="round" stroke-width=".25"/>
  <line x1="40.15" y1="44.77" x2="40.15" y2="45.59" fill="none" stroke="#e2e2e2" stroke-linecap="round" stroke-linejoin="round" stroke-width=".25"/>
  <line x1="40.89" y1="44.77" x2="40.89" y2="45.59" fill="none" stroke="#e2e2e2" stroke-linecap="round" stroke-linejoin="round" stroke-width=".25"/>
  <line x1="41.64" y1="44.77" x2="41.64" y2="45.59" fill="none" stroke="#e2e2e2" stroke-linecap="round" stroke-linejoin="round" stroke-width=".25"/>
  <line x1="42.38" y1="44.77" x2="42.38" y2="45.59" fill="none" stroke="#e2e2e2" stroke-linecap="round" stroke-linejoin="round" stroke-width=".25"/>
  <line x1="43.13" y1="44.77" x2="43.13" y2="45.59" fill="none" stroke="#e2e2e2" stroke-linecap="round" stroke-linejoin="round" stroke-width=".25"/>
  <line x1="43.87" y1="44.77" x2="43.87" y2="45.59" fill="none" stroke="#e2e2e2" stroke-linecap="round" stroke-linejoin="round" stroke-width=".25"/>
  <line x1="44.62" y1="44.77" x2="44.62" y2="45.59" fill="none" stroke="#e2e2e2" stroke-linecap="round" stroke-linejoin="round" stroke-width=".25"/>
  <line x1="45.37" y1="44.77" x2="45.37" y2="45.59" fill="none" stroke="#e2e2e2" stroke-linecap="round" stroke-linejoin="round" stroke-width=".25"/>
  <line x1="46.11" y1="44.77" x2="46.11" y2="45.59" fill="none" stroke="#e2e2e2" stroke-linecap="round" stroke-linejoin="round" stroke-width=".25"/>
  <line x1="46.86" y1="44.77" x2="46.86" y2="45.59" fill="none" stroke="#e2e2e2" stroke-linecap="round" stroke-linejoin="round" stroke-width=".25"/>
  <line x1="47.6" y1="44.77" x2="47.6" y2="45.59" fill="none" stroke="#e2e2e2" stroke-linecap="round" stroke-linejoin="round" stroke-width=".25"/>
  <line x1="48.35" y1="44.77" x2="48.35" y2="45.59" fill="none" stroke="#e2e2e2" stroke-linecap="round" stroke-linejoin="round" stroke-width=".25"/>
  <path d="M69.88,48.44h14.99c.49,1.6.96,3.38,1.36,5.34.57,2.77.89,5.32,1.07,7.55h-24.32c.5-1.25,1.38-3.05,2.92-4.61,2.21-2.24,4.69-2.88,7.95-3.32,3.45-.46,5.88-.59,12.21-.31" fill="none" stroke="#8eb8bf" stroke-linecap="round" stroke-miterlimit="10" stroke-width="2"/>
  <path d="M85.21,52.39c-5.21.27-9.33.48-12.47.56-.66.02-1.88.04-3.3.84-2.42,1.36-3.84,4.08-4.27,4.94-.49.97-.82,1.87-1.03,2.51,7.46.01,14.92.03,22.39.04-.44-2.96-.88-5.92-1.32-8.89Z" fill="#8fb8bf"/>
  <circle cx="67.95" cy="59.33" r=".75" fill="#ededed" stroke="#e2e2e2" stroke-miterlimit="10" stroke-width=".25"/>
  <circle cx="71.62" cy="59.33" r=".75" fill="#ededed" stroke="#e2e2e2" stroke-miterlimit="10" stroke-width=".25"/>
  <circle cx="75.29" cy="59.33" r=".75" fill="#ededed" stroke="#e2e2e2" stroke-miterlimit="10" stroke-width=".25"/>
</svg>