<?xml version="1.0" encoding="UTF-8"?>
<svg id="laundry_floor" xmlns="http://www.w3.org/2000/svg" viewBox="0 0 136.8 277.57">
  <polygon points="93.53 167.21 92.39 158.73 76.65 158.73 77.04 167.21 93.53 167.21" fill="#b1c4b1" stroke="#eae3df" stroke-miterlimit="10" stroke-width=".75"/>
  <polygon points="110.13 167.21 108.22 158.73 92.48 158.73 93.63 167.21 110.13 167.21" fill="#bccebc" stroke="#eae3df" stroke-miterlimit="10" stroke-width=".75"/>
  <polygon points="93.63 167.21 92.48 158.73 92.39 158.73 93.53 167.21 93.63 167.21" fill="#c0c7c9" stroke="#eae3df" stroke-miterlimit="10" stroke-width=".75"/>
  <polygon points="126.68 167.21 124.01 158.73 108.27 158.73 110.18 167.21 126.68 167.21" fill="#b1c4b1" stroke="#eae3df" stroke-miterlimit="10" stroke-width=".75"/>
  <polygon points="110.18 167.21 108.27 158.73 108.22 158.73 110.13 167.21 110.18 167.21" fill="#b0c2c6" stroke="#eae3df" stroke-miterlimit="10" stroke-width=".75"/>
  <polygon points="137.42 167.21 137.42 158.73 124.11 158.73 126.78 167.21 137.42 167.21" fill="#bccebc" stroke="#eae3df" stroke-miterlimit="10" stroke-width=".75"/>
  <polygon points="126.78 167.21 124.11 158.73 124.01 158.73 126.68 167.21 126.78 167.21" fill="#c0c7c9" stroke="#eae3df" stroke-miterlimit="10" stroke-width=".75"/>
  <polygon points="60.39 167.21 60.39 167.21 60.77 158.73 44.98 158.73 43.83 167.26 43.83 167.26 43.83 167.21 60.39 167.21" fill="#b1c4b1" stroke="#eae3df" stroke-miterlimit="10" stroke-width=".75"/>
  <polygon points="76.98 167.21 76.6 158.73 60.86 158.73 60.48 167.21 76.98 167.21" fill="#bccebc" stroke="#eae3df" stroke-miterlimit="10" stroke-width=".75"/>
  <polygon points="77.04 167.21 76.65 158.73 76.6 158.73 76.98 167.21 77.04 167.21" fill="#c0c7c9" stroke="#eae3df" stroke-miterlimit="10" stroke-width=".75"/>
  <polygon points="60.48 167.21 60.86 158.73 60.77 158.73 60.39 167.21 60.48 167.21" fill="#c0c7c9" stroke="#eae3df" stroke-miterlimit="10" stroke-width=".75"/>
  <polygon points="77.46 176.56 94.79 176.56 93.54 167.26 77.04 167.26 77.46 176.56 77.46 176.56" fill="#bccebc" stroke="#eae3df" stroke-miterlimit="10" stroke-width=".75"/>
  <polygon points="93.54 167.26 93.53 167.21 77.04 167.21 77.04 167.26 93.54 167.26" fill="#c0c7c9" stroke="#eae3df" stroke-miterlimit="10" stroke-width=".75"/>
  <polygon points="112.23 176.56 110.14 167.26 93.63 167.26 94.89 176.56 112.23 176.56" fill="#b1c4b1" stroke="#eae3df" stroke-miterlimit="10" stroke-width=".75"/>
  <polygon points="110.14 167.26 110.13 167.21 93.63 167.21 93.63 167.26 110.14 167.26" fill="#b0c2c6" stroke="#eae3df" stroke-miterlimit="10" stroke-width=".75"/>
  <polygon points="94.79 176.56 94.89 176.56 93.63 167.26 93.54 167.26 94.79 176.56 94.79 176.56" fill="#b0c2c6" stroke="#eae3df" stroke-miterlimit="10" stroke-width=".75"/>
  <polygon points="93.63 167.26 93.63 167.21 93.53 167.21 93.54 167.26 93.63 167.26" fill="#b0c2c6" stroke="#eae3df" stroke-miterlimit="10" stroke-width=".75"/>
  <polygon points="129.62 176.56 126.7 167.26 110.19 167.26 112.28 176.56 129.62 176.56" fill="#bccebc" stroke="#eae3df" stroke-miterlimit="10" stroke-width=".75"/>
  <polygon points="126.7 167.26 126.68 167.21 110.18 167.21 110.19 167.26 126.7 167.26" fill="#c0c7c9" stroke="#eae3df" stroke-miterlimit="10" stroke-width=".75"/>
  <polygon points="112.28 176.56 110.19 167.26 110.14 167.26 112.23 176.56 112.28 176.56" fill="#c0c7c9" stroke="#eae3df" stroke-miterlimit="10" stroke-width=".75"/>
  <polygon points="110.19 167.26 110.18 167.21 110.13 167.21 110.14 167.26 110.19 167.26" fill="#c0c7c9" stroke="#eae3df" stroke-miterlimit="10" stroke-width=".75"/>
  <polygon points="129.72 176.56 137.42 176.56 137.42 167.26 126.8 167.26 129.72 176.56" fill="#b1c4b1" stroke="#eae3df" stroke-miterlimit="10" stroke-width=".75"/>
  <polygon points="126.8 167.26 137.42 167.26 137.42 167.21 126.78 167.21 126.8 167.26" fill="#b0c2c6" stroke="#eae3df" stroke-miterlimit="10" stroke-width=".75"/>
  <polygon points="129.62 176.56 129.72 176.56 129.72 176.56 126.8 167.26 126.7 167.26 129.62 176.56" fill="#b0c2c6" stroke="#eae3df" stroke-miterlimit="10" stroke-width=".75"/>
  <polygon points="126.8 167.26 126.78 167.21 126.68 167.21 126.7 167.26 126.8 167.26" fill="#b0c2c6" stroke="#eae3df" stroke-miterlimit="10" stroke-width=".75"/>
  <polygon points="59.97 176.56 59.97 176.56 60.38 167.26 43.83 167.26 42.57 176.62 42.57 176.56 59.97 176.56" fill="#bccebc" stroke="#eae3df" stroke-miterlimit="10" stroke-width=".75"/>
  <polygon points="60.39 167.21 43.83 167.21 43.83 167.26 60.38 167.26 60.39 167.21" fill="#c0c7c9" stroke="#eae3df" stroke-miterlimit="10" stroke-width=".75"/>
  <polygon points="76.98 167.26 60.48 167.26 60.07 176.56 77.4 176.56 76.98 167.26" fill="#b1c4b1" stroke="#eae3df" stroke-miterlimit="10" stroke-width=".75"/>
  <polygon points="76.98 167.26 76.98 167.21 60.48 167.21 60.48 167.26 76.98 167.26" fill="#b0c2c6" stroke="#eae3df" stroke-miterlimit="10" stroke-width=".75"/>
  <polygon points="77.46 176.56 77.04 167.26 76.98 167.26 77.4 176.56 77.46 176.56" fill="#b0c2c6" stroke="#eae3df" stroke-miterlimit="10" stroke-width=".75"/>
  <polygon points="77.04 167.26 77.04 167.21 76.98 167.21 76.98 167.26 77.04 167.26" fill="#b0c2c6" stroke="#eae3df" stroke-miterlimit="10" stroke-width=".75"/>
  <polygon points="60.48 167.26 60.38 167.26 60.38 167.26 59.97 176.56 60.07 176.56 60.48 167.26" fill="#b0c2c6" stroke="#eae3df" stroke-miterlimit="10" stroke-width=".75"/>
  <rect x="60.38" y="167.21" width="0" height=".05" fill="#b0c2c6" stroke="#eae3df" stroke-miterlimit="10" stroke-width=".75"/>
  <polygon points="60.48 167.26 60.48 167.21 60.39 167.21 60.38 167.26 60.48 167.26" fill="#b0c2c6" stroke="#eae3df" stroke-miterlimit="10" stroke-width=".75"/>
  <polygon points="94.8 176.62 94.8 176.62 77.46 176.62 77.93 186.9 96.18 186.9 94.8 176.62" fill="#b1c4b1" stroke="#eae3df" stroke-miterlimit="10" stroke-width=".75"/>
  <polygon points="94.8 176.62 94.79 176.56 77.46 176.56 77.46 176.62 94.8 176.62" fill="#b0c2c6" stroke="#eae3df" stroke-miterlimit="10" stroke-width=".75"/>
  <rect x="94.79" y="176.56" width="0" height=".06" transform="translate(-22.82 14.3) rotate(-7.71)" fill="#b0c2c6" stroke="#eae3df" stroke-miterlimit="10" stroke-width=".75"/>
  <polygon points="114.55 186.9 112.24 176.62 94.9 176.62 96.29 186.9 114.55 186.9" fill="#bccebc" stroke="#eae3df" stroke-miterlimit="10" stroke-width=".75"/>
  <polygon points="112.24 176.62 112.23 176.56 94.89 176.56 94.9 176.62 112.24 176.62" fill="#c0c7c9" stroke="#eae3df" stroke-miterlimit="10" stroke-width=".75"/>
  <polygon points="96.29 186.9 94.9 176.62 94.8 176.62 96.18 186.9 96.29 186.9" fill="#c0c7c9" stroke="#eae3df" stroke-miterlimit="10" stroke-width=".75"/>
  <polygon points="94.9 176.62 94.89 176.56 94.79 176.56 94.8 176.62 94.9 176.62" fill="#c0c7c9" stroke="#eae3df" stroke-miterlimit="10" stroke-width=".75"/>
  <polygon points="114.61 186.9 132.87 186.9 129.64 176.62 112.29 176.62 114.61 186.9" fill="#b1c4b1" stroke="#eae3df" stroke-miterlimit="10" stroke-width=".75"/>
  <polygon points="112.29 176.62 129.64 176.62 129.62 176.56 112.28 176.56 112.29 176.62" fill="#b0c2c6" stroke="#eae3df" stroke-miterlimit="10" stroke-width=".75"/>
  <polygon points="114.55 186.9 114.61 186.9 112.29 176.62 112.24 176.62 114.55 186.9" fill="#b0c2c6" stroke="#eae3df" stroke-miterlimit="10" stroke-width=".75"/>
  <polygon points="112.29 176.62 112.28 176.56 112.23 176.56 112.24 176.62 112.29 176.62" fill="#b0c2c6" stroke="#eae3df" stroke-miterlimit="10" stroke-width=".75"/>
  <polygon points="129.74 176.62 132.98 186.9 137.42 186.9 137.42 176.62 129.74 176.62 129.74 176.62" fill="#bccebc" stroke="#eae3df" stroke-miterlimit="10" stroke-width=".75"/>
  <polygon points="129.74 176.62 137.42 176.62 137.42 176.56 129.72 176.56 129.74 176.62" fill="#c0c7c9" stroke="#eae3df" stroke-miterlimit="10" stroke-width=".75"/>
  <rect x="129.73" y="176.56" width="0" height=".06" fill="#c0c7c9" stroke="#eae3df" stroke-miterlimit="10" stroke-width=".75"/>
  <polygon points="132.87 186.9 132.98 186.9 129.74 176.62 129.64 176.62 132.87 186.9" fill="#c0c7c9" stroke="#eae3df" stroke-miterlimit="10" stroke-width=".75"/>
  <polygon points="129.62 176.56 129.64 176.62 129.74 176.62 129.72 176.56 129.62 176.56" fill="#c0c7c9" stroke="#eae3df" stroke-miterlimit="10" stroke-width=".75"/>
  <polygon points="59.96 176.62 42.57 176.62 41.18 186.9 59.5 186.9 59.96 176.62" fill="#b1c4b1" stroke="#eae3df" stroke-miterlimit="10" stroke-width=".75"/>
  <polygon points="59.97 176.56 42.57 176.56 42.57 176.62 59.96 176.62 59.97 176.56" fill="#b0c2c6" stroke="#eae3df" stroke-miterlimit="10" stroke-width=".75"/>
  <polygon points="77.4 176.62 60.07 176.62 59.61 186.9 77.86 186.9 77.4 176.62" fill="#bccebc" stroke="#eae3df" stroke-miterlimit="10" stroke-width=".75"/>
  <polygon points="77.4 176.56 60.07 176.56 60.07 176.62 77.4 176.62 77.4 176.56" fill="#c0c7c9" stroke="#eae3df" stroke-miterlimit="10" stroke-width=".75"/>
  <polygon points="77.93 186.9 77.46 176.62 77.46 176.62 77.4 176.62 77.86 186.9 77.93 186.9 77.93 186.9" fill="#c0c7c9" stroke="#eae3df" stroke-miterlimit="10" stroke-width=".75"/>
  <rect x="77.46" y="176.56" width="0" height=".06" transform="translate(-7.94 3.7) rotate(-2.6)" fill="#c0c7c9" stroke="#eae3df" stroke-miterlimit="10" stroke-width=".75"/>
  <polygon points="77.46 176.56 77.4 176.56 77.4 176.62 77.46 176.62 77.46 176.56" fill="#c0c7c9" stroke="#eae3df" stroke-miterlimit="10" stroke-width=".75"/>
  <polygon points="60.07 176.62 59.96 176.62 59.96 176.62 59.5 186.9 59.61 186.9 60.07 176.62" fill="#c0c7c9" stroke="#eae3df" stroke-miterlimit="10" stroke-width=".75"/>
  <rect x="59.96" y="176.56" width="0" height=".06" fill="#c0c7c9" stroke="#eae3df" stroke-miterlimit="10" stroke-width=".75"/>
  <polygon points="60.07 176.62 60.07 176.56 59.97 176.56 59.96 176.62 60.07 176.62" fill="#c0c7c9" stroke="#eae3df" stroke-miterlimit="10" stroke-width=".75"/>
  <polygon points="96.19 186.97 77.93 186.97 77.93 186.97 78.45 198.41 97.73 198.41 96.19 186.97" fill="#bccebc" stroke="#eae3df" stroke-miterlimit="10" stroke-width=".75"/>
  <polygon points="96.19 186.97 96.18 186.9 77.93 186.9 77.93 186.97 96.19 186.97" fill="#c0c7c9" stroke="#eae3df" stroke-miterlimit="10" stroke-width=".75"/>
  <rect x="77.93" y="186.9" width="0" height=".06" fill="#c0c7c9" stroke="#eae3df" stroke-miterlimit="10" stroke-width=".75"/>
  <polygon points="96.3 186.97 97.85 198.41 117.14 198.41 114.57 186.97 96.3 186.97" fill="#b1c4b1" stroke="#eae3df" stroke-miterlimit="10" stroke-width=".75"/>
  <polygon points="96.29 186.9 96.3 186.97 114.57 186.97 114.55 186.9 96.29 186.9" fill="#b0c2c6" stroke="#eae3df" stroke-miterlimit="10" stroke-width=".75"/>
  <polygon points="97.73 198.41 97.85 198.41 96.3 186.97 96.19 186.97 97.73 198.41" fill="#b0c2c6" stroke="#eae3df" stroke-miterlimit="10" stroke-width=".75"/>
  <polygon points="96.18 186.9 96.19 186.97 96.3 186.97 96.29 186.9 96.18 186.9" fill="#b0c2c6" stroke="#eae3df" stroke-miterlimit="10" stroke-width=".75"/>
  <polygon points="117.2 198.41 136.49 198.41 132.89 186.97 114.62 186.97 117.2 198.41" fill="#bccebc" stroke="#eae3df" stroke-miterlimit="10" stroke-width=".75"/>
  <polygon points="114.62 186.97 132.89 186.97 132.87 186.9 114.61 186.9 114.62 186.97" fill="#c0c7c9" stroke="#eae3df" stroke-miterlimit="10" stroke-width=".75"/>
  <polygon points="114.57 186.97 117.14 198.41 117.2 198.41 114.62 186.97 114.57 186.97" fill="#c0c7c9" stroke="#eae3df" stroke-miterlimit="10" stroke-width=".75"/>
  <polygon points="114.57 186.97 114.62 186.97 114.61 186.9 114.55 186.9 114.57 186.97" fill="#c0c7c9" stroke="#eae3df" stroke-miterlimit="10" stroke-width=".75"/>
  <polygon points="136.61 198.41 137.42 198.41 137.42 186.97 133 186.97 136.61 198.41" fill="#b1c4b1" stroke="#eae3df" stroke-miterlimit="10" stroke-width=".75"/>
  <polygon points="133 186.97 137.42 186.97 137.42 186.9 132.98 186.9 133 186.97" fill="#b0c2c6" stroke="#eae3df" stroke-miterlimit="10" stroke-width=".75"/>
  <polygon points="136.49 198.41 136.61 198.41 136.61 198.41 133 186.97 132.89 186.97 136.49 198.41" fill="#b0c2c6" stroke="#eae3df" stroke-miterlimit="10" stroke-width=".75"/>
  <polygon points="132.89 186.97 133 186.97 132.98 186.9 132.87 186.9 132.89 186.97" fill="#b0c2c6" stroke="#eae3df" stroke-miterlimit="10" stroke-width=".75"/>
  <polygon points="58.98 198.41 59.5 186.97 41.17 186.97 41.18 186.9 39.62 198.49 39.63 198.41 58.98 198.41" fill="#bccebc" stroke="#eae3df" stroke-miterlimit="10" stroke-width=".75"/>
  <polygon points="59.5 186.97 59.5 186.9 41.18 186.9 41.17 186.97 59.5 186.97" fill="#c0c7c9" stroke="#eae3df" stroke-miterlimit="10" stroke-width=".75"/>
  <polygon points="77.87 186.97 59.6 186.97 59.1 198.41 78.38 198.41 77.87 186.97" fill="#b1c4b1" stroke="#eae3df" stroke-miterlimit="10" stroke-width=".75"/>
  <polygon points="77.86 186.9 59.61 186.9 59.6 186.97 77.87 186.97 77.86 186.9" fill="#b0c2c6" stroke="#eae3df" stroke-miterlimit="10" stroke-width=".75"/>
  <polygon points="77.93 186.97 77.87 186.97 78.38 198.41 78.45 198.41 77.93 186.97" fill="#b0c2c6" stroke="#eae3df" stroke-miterlimit="10" stroke-width=".75"/>
  <polygon points="77.93 186.9 77.86 186.9 77.87 186.97 77.93 186.97 77.93 186.9" fill="#b0c2c6" stroke="#eae3df" stroke-miterlimit="10" stroke-width=".75"/>
  <polygon points="59.1 198.41 59.6 186.97 59.5 186.97 58.98 198.41 59.1 198.41 59.1 198.41" fill="#b0c2c6" stroke="#eae3df" stroke-miterlimit="10" stroke-width=".75"/>
  <polygon points="59.61 186.9 59.5 186.9 59.5 186.97 59.6 186.97 59.61 186.9" fill="#b0c2c6" stroke="#eae3df" stroke-miterlimit="10" stroke-width=".75"/>
  <polygon points="97.74 198.49 78.45 198.49 79.03 211.26 99.46 211.26 97.74 198.49" fill="#b1c4b1" stroke="#eae3df" stroke-miterlimit="10" stroke-width=".75"/>
  <polygon points="97.73 198.41 78.45 198.41 78.45 198.49 97.74 198.49 97.73 198.41" fill="#b0c2c6" stroke="#eae3df" stroke-miterlimit="10" stroke-width=".75"/>
  <polygon points="99.58 211.26 120.03 211.26 120.03 211.26 117.16 198.49 97.86 198.49 99.58 211.26" fill="#bccebc" stroke="#eae3df" stroke-miterlimit="10" stroke-width=".75"/>
  <polygon points="97.86 198.49 117.16 198.49 117.14 198.41 97.85 198.41 97.86 198.49" fill="#c0c7c9" stroke="#eae3df" stroke-miterlimit="10" stroke-width=".75"/>
  <polygon points="99.46 211.26 99.58 211.26 97.86 198.49 97.74 198.49 99.46 211.26" fill="#c0c7c9" stroke="#eae3df" stroke-miterlimit="10" stroke-width=".75"/>
  <polygon points="97.74 198.49 97.86 198.49 97.85 198.41 97.73 198.41 97.74 198.49" fill="#c0c7c9" stroke="#eae3df" stroke-miterlimit="10" stroke-width=".75"/>
  <polygon points="117.21 198.49 120.09 211.26 137.42 211.26 137.42 201.36 136.52 198.49 117.21 198.49" fill="#b1c4b1" stroke="#eae3df" stroke-miterlimit="10" stroke-width=".75"/>
  <polygon points="117.2 198.41 117.21 198.49 136.52 198.49 136.49 198.41 117.2 198.41" fill="#b0c2c6" stroke="#eae3df" stroke-miterlimit="10" stroke-width=".75"/>
  <polygon points="120.03 211.26 120.09 211.26 117.21 198.49 117.16 198.49 120.03 211.26" fill="#b0c2c6" stroke="#eae3df" stroke-miterlimit="10" stroke-width=".75"/>
  <polygon points="117.14 198.41 117.16 198.49 117.21 198.49 117.2 198.41 117.14 198.41" fill="#b0c2c6" stroke="#eae3df" stroke-miterlimit="10" stroke-width=".75"/>
  <polygon points="58.4 211.26 58.98 198.49 39.62 198.49 37.88 211.38 37.88 211.38 37.9 211.26 58.4 211.26" fill="#b1c4b1" stroke="#eae3df" stroke-miterlimit="10" stroke-width=".75"/>
  <polygon points="58.98 198.41 39.63 198.41 39.62 198.49 58.98 198.49 58.98 198.41" fill="#b0c2c6" stroke="#eae3df" stroke-miterlimit="10" stroke-width=".75"/>
  <polygon points="78.38 198.49 59.09 198.49 59.09 198.49 58.53 211.26 78.96 211.26 78.38 198.49" fill="#bccebc" stroke="#eae3df" stroke-miterlimit="10" stroke-width=".75"/>
  <polygon points="78.38 198.49 78.38 198.41 59.1 198.41 59.09 198.49 78.38 198.49" fill="#c0c7c9" stroke="#eae3df" stroke-miterlimit="10" stroke-width=".75"/>
  <rect x="59.09" y="198.41" width="0" height=".07" fill="#c0c7c9" stroke="#eae3df" stroke-miterlimit="10" stroke-width=".75"/>
  <polygon points="79.03 211.26 78.45 198.49 78.38 198.49 78.96 211.26 79.03 211.26 79.03 211.26" fill="#c0c7c9" stroke="#eae3df" stroke-miterlimit="10" stroke-width=".75"/>
  <polygon points="78.45 198.41 78.38 198.41 78.38 198.49 78.45 198.49 78.45 198.41" fill="#c0c7c9" stroke="#eae3df" stroke-miterlimit="10" stroke-width=".75"/>
  <polygon points="58.53 211.26 59.09 198.49 58.98 198.49 58.4 211.26 58.52 211.26 58.53 211.26" fill="#c0c7c9" stroke="#eae3df" stroke-miterlimit="10" stroke-width=".75"/>
  <polygon points="59.1 198.41 58.98 198.41 58.98 198.49 59.09 198.49 59.1 198.41" fill="#c0c7c9" stroke="#eae3df" stroke-miterlimit="10" stroke-width=".75"/>
  <polygon points="43.83 167.21 43.82 167.26 44.97 158.73 29.14 158.73 27.24 167.21 43.83 167.21" fill="#bccebc" stroke="#eae3df" stroke-miterlimit="10" stroke-width=".75"/>
  <polygon points="10.59 167.21 13.26 158.73 -.62 158.73 -.62 167.21 10.59 167.21" fill="#bccebc" stroke="#eae3df" stroke-miterlimit="10" stroke-width=".75"/>
  <polygon points="27.18 167.21 29.09 158.73 13.35 158.73 10.68 167.21 27.18 167.21" fill="#b1c4b1" stroke="#eae3df" stroke-miterlimit="10" stroke-width=".75"/>
  <polygon points="27.18 167.21 27.24 167.21 29.14 158.73 29.09 158.73 27.18 167.21 27.18 167.21" fill="#b0c2c6" stroke="#eae3df" stroke-miterlimit="10" stroke-width=".75"/>
  <polygon points="10.68 167.21 13.35 158.73 13.26 158.73 10.59 167.21 10.68 167.21" fill="#b0c2c6" stroke="#eae3df" stroke-miterlimit="10" stroke-width=".75"/>
  <polygon points="25.13 176.56 42.57 176.56 42.56 176.62 42.56 176.62 43.82 167.26 27.22 167.26 25.13 176.56" fill="#b1c4b1" stroke="#eae3df" stroke-miterlimit="10" stroke-width=".75"/>
  <polygon points="27.24 167.21 27.22 167.26 43.82 167.26 43.83 167.21 27.24 167.21" fill="#b0c2c6" stroke="#eae3df" stroke-miterlimit="10" stroke-width=".75"/>
  <polygon points="10.57 167.26 -.62 167.26 -.62 176.56 7.64 176.56 10.57 167.26" fill="#b1c4b1" stroke="#eae3df" stroke-miterlimit="10" stroke-width=".75"/>
  <polygon points="10.57 167.26 10.59 167.21 -.62 167.21 -.62 167.26 10.57 167.26" fill="#b0c2c6" stroke="#eae3df" stroke-miterlimit="10" stroke-width=".75"/>
  <polygon points="25.07 176.56 27.17 167.26 27.17 167.26 10.67 167.26 7.74 176.56 25.07 176.56" fill="#bccebc" stroke="#eae3df" stroke-miterlimit="10" stroke-width=".75"/>
  <polygon points="27.17 167.26 27.18 167.21 10.68 167.21 10.67 167.26 27.17 167.26" fill="#c0c7c9" stroke="#eae3df" stroke-miterlimit="10" stroke-width=".75"/>
  <rect x="27.14" y="167.24" width=".05" height="0" transform="translate(-141.95 157.05) rotate(-77.32)" fill="#c0c7c9" stroke="#eae3df" stroke-miterlimit="10" stroke-width=".75"/>
  <polygon points="25.07 176.56 25.13 176.56 27.22 167.26 27.17 167.26 25.07 176.56" fill="#c0c7c9" stroke="#eae3df" stroke-miterlimit="10" stroke-width=".75"/>
  <polygon points="27.22 167.26 27.24 167.21 27.18 167.21 27.17 167.26 27.22 167.26" fill="#c0c7c9" stroke="#eae3df" stroke-miterlimit="10" stroke-width=".75"/>
  <polygon points="7.64 176.56 7.74 176.56 10.67 167.26 10.57 167.26 7.64 176.56 7.64 176.56" fill="#c0c7c9" stroke="#eae3df" stroke-miterlimit="10" stroke-width=".75"/>
  <polygon points="10.67 167.26 10.68 167.21 10.59 167.21 10.57 167.26 10.67 167.26" fill="#c0c7c9" stroke="#eae3df" stroke-miterlimit="10" stroke-width=".75"/>
  <polygon points="22.81 186.9 41.17 186.9 41.16 186.97 42.56 176.62 25.12 176.62 22.81 186.9" fill="#bccebc" stroke="#eae3df" stroke-miterlimit="10" stroke-width=".75"/>
  <polygon points="25.13 176.56 25.12 176.62 42.56 176.62 42.57 176.56 25.13 176.56" fill="#c0c7c9" stroke="#eae3df" stroke-miterlimit="10" stroke-width=".75"/>
  <polygon points="7.62 176.62 7.62 176.62 -.62 176.62 -.62 186.9 4.38 186.9 7.62 176.62" fill="#bccebc" stroke="#eae3df" stroke-miterlimit="10" stroke-width=".75"/>
  <polygon points="7.64 176.56 -.62 176.56 -.62 176.62 7.62 176.62 7.64 176.56" fill="#c0c7c9" stroke="#eae3df" stroke-miterlimit="10" stroke-width=".75"/>
  <rect x="7.6" y="176.59" width=".06" height="0" transform="translate(-163.13 130.98) rotate(-72.57)" fill="#c0c7c9" stroke="#eae3df" stroke-miterlimit="10" stroke-width=".75"/>
  <polygon points="4.49 186.9 22.75 186.9 25.06 176.62 7.73 176.62 4.49 186.9" fill="#b1c4b1" stroke="#eae3df" stroke-miterlimit="10" stroke-width=".75"/>
  <polygon points="7.73 176.62 25.06 176.62 25.07 176.56 7.74 176.56 7.73 176.62" fill="#b0c2c6" stroke="#eae3df" stroke-miterlimit="10" stroke-width=".75"/>
  <polygon points="22.75 186.9 22.81 186.9 25.12 176.62 25.06 176.62 22.75 186.9" fill="#b0c2c6" stroke="#eae3df" stroke-miterlimit="10" stroke-width=".75"/>
  <polygon points="25.06 176.62 25.12 176.62 25.13 176.56 25.07 176.56 25.06 176.62" fill="#b0c2c6" stroke="#eae3df" stroke-miterlimit="10" stroke-width=".75"/>
  <polygon points="7.73 176.62 7.62 176.62 4.38 186.9 4.49 186.9 7.73 176.62" fill="#b0c2c6" stroke="#eae3df" stroke-miterlimit="10" stroke-width=".75"/>
  <polygon points="7.74 176.56 7.64 176.56 7.62 176.62 7.73 176.62 7.74 176.56" fill="#b0c2c6" stroke="#eae3df" stroke-miterlimit="10" stroke-width=".75"/>
  <polygon points="20.22 198.41 39.62 198.41 41.16 186.97 22.8 186.97 20.22 198.41" fill="#b1c4b1" stroke="#eae3df" stroke-miterlimit="10" stroke-width=".75"/>
  <polygon points="22.81 186.9 22.8 186.97 41.16 186.97 41.17 186.9 22.81 186.9" fill="#b0c2c6" stroke="#eae3df" stroke-miterlimit="10" stroke-width=".75"/>
  <polygon points="4.36 186.97 -.62 186.97 -.62 198.41 .76 198.41 4.36 186.97" fill="#b1c4b1" stroke="#eae3df" stroke-miterlimit="10" stroke-width=".75"/>
  <polygon points="4.38 186.9 -.62 186.9 -.62 186.97 4.36 186.97 4.38 186.9" fill="#b0c2c6" stroke="#eae3df" stroke-miterlimit="10" stroke-width=".75"/>
  <polygon points=".87 198.41 20.16 198.41 22.73 186.97 4.47 186.97 .87 198.41" fill="#bccebc" stroke="#eae3df" stroke-miterlimit="10" stroke-width=".75"/>
  <polygon points="4.47 186.97 22.73 186.97 22.75 186.9 4.49 186.9 4.47 186.97" fill="#c0c7c9" stroke="#eae3df" stroke-miterlimit="10" stroke-width=".75"/>
  <polygon points="20.16 198.41 20.22 198.41 22.8 186.97 22.73 186.97 20.16 198.41" fill="#c0c7c9" stroke="#eae3df" stroke-miterlimit="10" stroke-width=".75"/>
  <polygon points="22.73 186.97 22.8 186.97 22.81 186.9 22.75 186.9 22.73 186.97" fill="#c0c7c9" stroke="#eae3df" stroke-miterlimit="10" stroke-width=".75"/>
  <polygon points=".87 198.41 4.47 186.97 4.36 186.97 .76 198.41 .76 198.41 .87 198.41" fill="#c0c7c9" stroke="#eae3df" stroke-miterlimit="10" stroke-width=".75"/>
  <polygon points="4.49 186.9 4.38 186.9 4.36 186.97 4.47 186.97 4.49 186.9" fill="#c0c7c9" stroke="#eae3df" stroke-miterlimit="10" stroke-width=".75"/>
  <polygon points="20.21 198.49 17.34 211.26 17.34 211.26 37.89 211.26 37.87 211.38 39.62 198.41 39.61 198.49 20.21 198.49" fill="#bccebc" stroke="#eae3df" stroke-miterlimit="10" stroke-width=".75"/>
  <polygon points="20.21 198.49 39.61 198.49 39.62 198.41 20.22 198.41 20.21 198.49" fill="#c0c7c9" stroke="#eae3df" stroke-miterlimit="10" stroke-width=".75"/>
  <polygon points=".73 198.49 -.62 198.49 -.62 202.78 .73 198.49 .73 198.49" fill="#bccebc" stroke="#eae3df" stroke-miterlimit="10" stroke-width=".75"/>
  <polygon points=".76 198.41 -.62 198.41 -.62 198.49 .73 198.49 .76 198.41" fill="#c0c7c9" stroke="#eae3df" stroke-miterlimit="10" stroke-width=".75"/>
  <rect x=".71" y="198.45" width=".07" height="0" transform="translate(-188.77 139.56) rotate(-72.52)" fill="#c0c7c9" stroke="#eae3df" stroke-miterlimit="10" stroke-width=".75"/>
  <polygon points="20.14 198.49 .85 198.49 -.62 203.15 -.62 211.26 17.26 211.26 20.14 198.49" fill="#b1c4b1" stroke="#eae3df" stroke-miterlimit="10" stroke-width=".75"/>
  <polygon points=".85 198.49 20.14 198.49 20.16 198.41 .87 198.41 .85 198.49" fill="#b0c2c6" stroke="#eae3df" stroke-miterlimit="10" stroke-width=".75"/>
  <polygon points="17.26 211.26 17.34 211.26 20.21 198.49 20.14 198.49 17.26 211.26" fill="#b0c2c6" stroke="#eae3df" stroke-miterlimit="10" stroke-width=".75"/>
  <polygon points="20.14 198.49 20.21 198.49 20.22 198.41 20.16 198.41 20.14 198.49" fill="#b0c2c6" stroke="#eae3df" stroke-miterlimit="10" stroke-width=".75"/>
  <polygon points=".73 198.49 -.62 202.78 -.62 203.15 .85 198.49 .73 198.49" fill="#b0c2c6" stroke="#eae3df" stroke-miterlimit="10" stroke-width=".75"/>
  <polygon points=".76 198.41 .73 198.49 .85 198.49 .87 198.41 .76 198.41" fill="#b0c2c6" stroke="#eae3df" stroke-miterlimit="10" stroke-width=".75"/>
  <polygon points="99.48 211.38 79.04 211.38 79.04 211.38 79.69 225.78 101.42 225.78 99.48 211.38" fill="#bccebc" stroke="#eae3df" stroke-miterlimit="10" stroke-width=".75"/>
  <polygon points="99.48 211.38 99.46 211.26 79.03 211.26 79.04 211.38 99.48 211.38" fill="#c0c7c9" stroke="#eae3df" stroke-miterlimit="10" stroke-width=".75"/>
  <rect x="79.03" y="211.26" width="0" height=".12" fill="#c0c7c9" stroke="#eae3df" stroke-miterlimit="10" stroke-width=".75"/>
  <polygon points="101.55 225.78 123.29 225.78 120.06 211.38 99.6 211.38 101.55 225.78" fill="#b1c4b1" stroke="#eae3df" stroke-miterlimit="10" stroke-width=".75"/>
  <polygon points="99.58 211.26 99.6 211.38 120.06 211.38 120.03 211.26 99.58 211.26" fill="#b0c2c6" stroke="#eae3df" stroke-miterlimit="10" stroke-width=".75"/>
  <polygon points="101.42 225.78 101.55 225.78 99.6 211.38 99.48 211.38 101.42 225.78" fill="#b0c2c6" stroke="#eae3df" stroke-miterlimit="10" stroke-width=".75"/>
  <polygon points="99.48 211.38 99.6 211.38 99.58 211.26 99.46 211.26 99.48 211.38" fill="#b0c2c6" stroke="#eae3df" stroke-miterlimit="10" stroke-width=".75"/>
  <polygon points="123.36 225.78 137.42 225.78 137.42 211.38 120.12 211.38 123.36 225.78" fill="#bccebc" stroke="#eae3df" stroke-miterlimit="10" stroke-width=".75"/>
  <polygon points="120.12 211.38 137.42 211.38 137.42 211.26 120.09 211.26 120.12 211.38" fill="#c0c7c9" stroke="#eae3df" stroke-miterlimit="10" stroke-width=".75"/>
  <polygon points="120.06 211.38 123.29 225.78 123.36 225.78 123.36 225.78 120.12 211.38 120.06 211.38 120.06 211.38" fill="#c0c7c9" stroke="#eae3df" stroke-miterlimit="10" stroke-width=".75"/>
  <rect x="120.04" y="211.26" width="0" height=".12" fill="#c0c7c9" stroke="#eae3df" stroke-miterlimit="10" stroke-width=".75"/>
  <polygon points="120.06 211.38 120.12 211.38 120.09 211.26 120.03 211.26 120.06 211.38" fill="#c0c7c9" stroke="#eae3df" stroke-miterlimit="10" stroke-width=".75"/>
  <polygon points="57.75 225.78 58.4 211.38 37.88 211.38 35.94 225.78 57.75 225.78 57.75 225.78" fill="#bccebc" stroke="#eae3df" stroke-miterlimit="10" stroke-width=".75"/>
  <polygon points="58.4 211.26 37.9 211.26 37.88 211.38 58.4 211.38 58.4 211.26" fill="#c0c7c9" stroke="#eae3df" stroke-miterlimit="10" stroke-width=".75"/>
  <polygon points="78.96 211.38 58.52 211.38 58.52 211.38 57.88 225.78 79.61 225.78 78.96 211.38" fill="#b1c4b1" stroke="#eae3df" stroke-miterlimit="10" stroke-width=".75"/>
  <polygon points="78.96 211.38 78.96 211.26 58.53 211.26 58.52 211.38 78.96 211.38" fill="#b0c2c6" stroke="#eae3df" stroke-miterlimit="10" stroke-width=".75"/>
  <rect x="58.52" y="211.26" width="0" height=".12" fill="#b0c2c6" stroke="#eae3df" stroke-miterlimit="10" stroke-width=".75"/>
  <polygon points="79.04 211.38 78.96 211.38 79.61 225.78 79.69 225.78 79.04 211.38" fill="#b0c2c6" stroke="#eae3df" stroke-miterlimit="10" stroke-width=".75"/>
  <polygon points="79.03 211.26 78.96 211.26 78.96 211.38 79.04 211.38 79.03 211.26" fill="#b0c2c6" stroke="#eae3df" stroke-miterlimit="10" stroke-width=".75"/>
  <polygon points="58.52 211.38 58.4 211.38 57.75 225.78 57.88 225.78 58.52 211.38" fill="#b0c2c6" stroke="#eae3df" stroke-miterlimit="10" stroke-width=".75"/>
  <polygon points="58.52 211.26 58.4 211.26 58.4 211.38 58.52 211.38 58.52 211.26" fill="#b0c2c6" stroke="#eae3df" stroke-miterlimit="10" stroke-width=".75"/>
  <polygon points="101.43 225.87 79.69 225.87 80.43 242.27 103.64 242.27 101.43 225.87" fill="#b1c4b1" stroke="#eae3df" stroke-miterlimit="10" stroke-width=".75"/>
  <polygon points="79.69 225.78 79.69 225.87 101.43 225.87 101.42 225.78 79.69 225.78" fill="#b0c2c6" stroke="#eae3df" stroke-miterlimit="10" stroke-width=".75"/>
  <polygon points="103.78 242.27 127 242.27 123.31 225.87 101.56 225.87 103.78 242.27" fill="#bccebc" stroke="#eae3df" stroke-miterlimit="10" stroke-width=".75"/>
  <polygon points="101.56 225.87 123.31 225.87 123.29 225.78 101.55 225.78 101.56 225.87" fill="#c0c7c9" stroke="#eae3df" stroke-miterlimit="10" stroke-width=".75"/>
  <polygon points="103.64 242.27 103.78 242.27 101.56 225.87 101.43 225.87 103.64 242.27" fill="#c0c7c9" stroke="#eae3df" stroke-miterlimit="10" stroke-width=".75"/>
  <polygon points="101.43 225.87 101.56 225.87 101.55 225.78 101.42 225.78 101.43 225.87" fill="#c0c7c9" stroke="#eae3df" stroke-miterlimit="10" stroke-width=".75"/>
  <polygon points="123.38 225.87 127.07 242.27 137.42 242.27 137.42 225.87 123.38 225.87 123.38 225.87" fill="#b1c4b1" stroke="#eae3df" stroke-miterlimit="10" stroke-width=".75"/>
  <polygon points="123.38 225.87 137.42 225.87 137.42 225.78 123.36 225.78 123.38 225.87" fill="#b0c2c6" stroke="#eae3df" stroke-miterlimit="10" stroke-width=".75"/>
  <rect x="123.37" y="225.78" width="0" height=".09" fill="#b0c2c6" stroke="#eae3df" stroke-miterlimit="10" stroke-width=".75"/>
  <polygon points="127 242.27 127.07 242.27 127.07 242.27 123.38 225.87 123.31 225.87 127 242.27" fill="#b0c2c6" stroke="#eae3df" stroke-miterlimit="10" stroke-width=".75"/>
  <polygon points="123.29 225.78 123.31 225.87 123.38 225.87 123.36 225.78 123.29 225.78" fill="#b0c2c6" stroke="#eae3df" stroke-miterlimit="10" stroke-width=".75"/>
  <polygon points="57.01 242.27 57.75 225.87 35.93 225.87 35.94 225.78 33.72 242.27 57.01 242.27 57.01 242.27" fill="#b1c4b1" stroke="#eae3df" stroke-miterlimit="10" stroke-width=".75"/>
  <polygon points="57.75 225.87 57.75 225.78 35.94 225.78 35.93 225.87 57.75 225.87" fill="#b0c2c6" stroke="#eae3df" stroke-miterlimit="10" stroke-width=".75"/>
  <polygon points="79.62 225.87 57.88 225.87 57.15 242.27 80.35 242.27 79.62 225.87" fill="#bccebc" stroke="#eae3df" stroke-miterlimit="10" stroke-width=".75"/>
  <polygon points="79.61 225.78 57.88 225.78 57.88 225.87 79.62 225.87 79.61 225.78" fill="#c0c7c9" stroke="#eae3df" stroke-miterlimit="10" stroke-width=".75"/>
  <polygon points="79.62 225.87 80.35 242.27 80.43 242.27 79.69 225.87 79.62 225.87" fill="#c0c7c9" stroke="#eae3df" stroke-miterlimit="10" stroke-width=".75"/>
  <polygon points="79.69 225.78 79.61 225.78 79.62 225.87 79.69 225.87 79.69 225.78" fill="#c0c7c9" stroke="#eae3df" stroke-miterlimit="10" stroke-width=".75"/>
  <polygon points="57.88 225.87 57.75 225.87 57.75 225.87 57.01 242.27 57.15 242.27 57.88 225.87" fill="#c0c7c9" stroke="#eae3df" stroke-miterlimit="10" stroke-width=".75"/>
  <rect x="57.75" y="225.78" width="0" height=".09" fill="#c0c7c9" stroke="#eae3df" stroke-miterlimit="10" stroke-width=".75"/>
  <polygon points="57.88 225.87 57.88 225.78 57.75 225.78 57.75 225.87 57.88 225.87" fill="#c0c7c9" stroke="#eae3df" stroke-miterlimit="10" stroke-width=".75"/>
  <polygon points="80.44 242.38 81.29 261.16 106.19 261.16 103.66 242.38 80.44 242.38" fill="#bccebc" stroke="#eae3df" stroke-miterlimit="10" stroke-width=".75"/>
  <polygon points="80.43 242.27 80.44 242.38 103.66 242.38 103.64 242.27 80.43 242.27" fill="#c0c7c9" stroke="#eae3df" stroke-miterlimit="10" stroke-width=".75"/>
  <polygon points="103.79 242.38 106.33 261.16 131.24 261.16 127.02 242.38 103.79 242.38" fill="#b1c4b1" stroke="#eae3df" stroke-miterlimit="10" stroke-width=".75"/>
  <polygon points="103.79 242.38 127.02 242.38 127 242.27 103.78 242.27 103.79 242.38" fill="#b0c2c6" stroke="#eae3df" stroke-miterlimit="10" stroke-width=".75"/>
  <polygon points="103.66 242.38 106.19 261.16 106.33 261.16 103.79 242.38 103.66 242.38" fill="#b0c2c6" stroke="#eae3df" stroke-miterlimit="10" stroke-width=".75"/>
  <polygon points="103.64 242.27 103.66 242.38 103.79 242.38 103.78 242.27 103.64 242.27" fill="#b0c2c6" stroke="#eae3df" stroke-miterlimit="10" stroke-width=".75"/>
  <polygon points="127.09 242.38 131.32 261.16 137.42 261.16 137.42 242.38 127.09 242.38 127.09 242.38" fill="#bccebc" stroke="#eae3df" stroke-miterlimit="10" stroke-width=".75"/>
  <polygon points="127.09 242.38 137.42 242.38 137.42 242.27 127.07 242.27 127.09 242.38" fill="#c0c7c9" stroke="#eae3df" stroke-miterlimit="10" stroke-width=".75"/>
  <rect x="127.08" y="242.27" width="0" height=".11" fill="#c0c7c9" stroke="#eae3df" stroke-miterlimit="10" stroke-width=".75"/>
  <polygon points="131.24 261.16 131.32 261.16 127.09 242.38 127.02 242.38 131.24 261.16" fill="#c0c7c9" stroke="#eae3df" stroke-miterlimit="10" stroke-width=".75"/>
  <polygon points="127 242.27 127.02 242.38 127.09 242.38 127.07 242.27 127 242.27" fill="#c0c7c9" stroke="#eae3df" stroke-miterlimit="10" stroke-width=".75"/>
  <polygon points="57 242.38 33.71 242.38 31.18 261.16 56.16 261.16 57 242.38" fill="#bccebc" stroke="#eae3df" stroke-miterlimit="10" stroke-width=".75"/>
  <polygon points="57.01 242.27 33.72 242.27 33.71 242.38 57 242.38 57.01 242.27" fill="#c0c7c9" stroke="#eae3df" stroke-miterlimit="10" stroke-width=".75"/>
  <polygon points="33.71 242.38 33.71 242.38 33.72 242.27 33.71 242.38" fill="#c0c7c9" stroke="#eae3df" stroke-miterlimit="10" stroke-width=".75"/>
  <polygon points="80.36 242.38 57.14 242.38 56.31 261.16 81.2 261.16 80.36 242.38" fill="#b1c4b1" stroke="#eae3df" stroke-miterlimit="10" stroke-width=".75"/>
  <polygon points="57.15 242.27 57.14 242.38 80.36 242.38 80.35 242.27 57.15 242.27" fill="#b0c2c6" stroke="#eae3df" stroke-miterlimit="10" stroke-width=".75"/>
  <polygon points="80.36 242.38 81.2 261.16 81.29 261.16 80.44 242.38 80.36 242.38" fill="#b0c2c6" stroke="#eae3df" stroke-miterlimit="10" stroke-width=".75"/>
  <polygon points="80.43 242.27 80.35 242.27 80.36 242.38 80.44 242.38 80.43 242.27" fill="#b0c2c6" stroke="#eae3df" stroke-miterlimit="10" stroke-width=".75"/>
  <polygon points="57 242.38 57 242.38 56.16 261.16 56.31 261.16 57.14 242.38 57 242.38" fill="#b0c2c6" stroke="#eae3df" stroke-miterlimit="10" stroke-width=".75"/>
  <rect x="57.01" y="242.27" width="0" height=".1" fill="#b0c2c6" stroke="#eae3df" stroke-miterlimit="10" stroke-width=".75"/>
  <polygon points="57.14 242.38 57.15 242.27 57.01 242.27 57 242.38 57.14 242.38" fill="#b0c2c6" stroke="#eae3df" stroke-miterlimit="10" stroke-width=".75"/>
  <polygon points="81.3 261.28 82.1 279.03 108.59 279.03 106.2 261.28 81.3 261.28" fill="#b1c4b1" stroke="#eae3df" stroke-miterlimit="10" stroke-width=".75"/>
  <polygon points="81.29 261.16 81.3 261.28 106.2 261.28 106.19 261.16 81.29 261.16" fill="#b0c2c6" stroke="#eae3df" stroke-miterlimit="10" stroke-width=".75"/>
  <polygon points="106.35 261.28 108.75 279.03 135.26 279.03 131.27 261.28 106.35 261.28" fill="#bccebc" stroke="#eae3df" stroke-miterlimit="10" stroke-width=".75"/>
  <polygon points="106.33 261.16 106.35 261.28 131.27 261.28 131.24 261.16 106.33 261.16" fill="#c0c7c9" stroke="#eae3df" stroke-miterlimit="10" stroke-width=".75"/>
  <polygon points="106.2 261.28 108.59 279.03 108.75 279.03 106.35 261.28 106.2 261.28" fill="#c0c7c9" stroke="#eae3df" stroke-miterlimit="10" stroke-width=".75"/>
  <polygon points="106.19 261.16 106.2 261.28 106.35 261.28 106.33 261.16 106.19 261.16" fill="#c0c7c9" stroke="#eae3df" stroke-miterlimit="10" stroke-width=".75"/>
  <polygon points="131.34 261.28 135.34 279.03 137.42 279.03 137.42 261.28 131.34 261.28" fill="#b1c4b1" stroke="#eae3df" stroke-miterlimit="10" stroke-width=".75"/>
  <polygon points="131.34 261.28 137.42 261.28 137.42 261.16 131.32 261.16 131.34 261.28" fill="#b0c2c6" stroke="#eae3df" stroke-miterlimit="10" stroke-width=".75"/>
  <polygon points="131.27 261.28 135.26 279.03 135.34 279.03 131.34 261.28 131.27 261.28" fill="#b0c2c6" stroke="#eae3df" stroke-miterlimit="10" stroke-width=".75"/>
  <polygon points="131.24 261.16 131.27 261.28 131.34 261.28 131.32 261.16 131.24 261.16" fill="#b0c2c6" stroke="#eae3df" stroke-miterlimit="10" stroke-width=".75"/>
  <polygon points="56.15 261.28 31.16 261.28 31.18 261.16 28.77 279.03 55.36 279.03 56.15 261.28" fill="#b1c4b1" stroke="#eae3df" stroke-miterlimit="10" stroke-width=".75"/>
  <polygon points="31.18 261.16 31.16 261.28 56.15 261.28 56.16 261.16 31.18 261.16" fill="#b0c2c6" stroke="#eae3df" stroke-miterlimit="10" stroke-width=".75"/>
  <polygon points="56.3 261.28 55.51 279.03 82.01 279.03 81.21 261.28 56.3 261.28" fill="#bccebc" stroke="#eae3df" stroke-miterlimit="10" stroke-width=".75"/>
  <polygon points="56.31 261.16 56.3 261.28 81.21 261.28 81.2 261.16 56.31 261.16" fill="#c0c7c9" stroke="#eae3df" stroke-miterlimit="10" stroke-width=".75"/>
  <polygon points="81.21 261.28 82.01 279.03 82.1 279.03 81.3 261.28 81.21 261.28" fill="#c0c7c9" stroke="#eae3df" stroke-miterlimit="10" stroke-width=".75"/>
  <polygon points="81.2 261.16 81.21 261.28 81.3 261.28 81.29 261.16 81.2 261.16" fill="#c0c7c9" stroke="#eae3df" stroke-miterlimit="10" stroke-width=".75"/>
  <polygon points="56.15 261.28 55.36 279.03 55.51 279.03 56.3 261.28 56.15 261.28" fill="#c0c7c9" stroke="#eae3df" stroke-miterlimit="10" stroke-width=".75"/>
  <polygon points="56.31 261.16 56.16 261.16 56.15 261.28 56.3 261.28 56.31 261.16" fill="#c0c7c9" stroke="#eae3df" stroke-miterlimit="10" stroke-width=".75"/>
  <polygon points="14.07 225.78 35.93 225.78 35.92 225.87 37.87 211.38 17.31 211.38 14.07 225.78" fill="#b1c4b1" stroke="#eae3df" stroke-miterlimit="10" stroke-width=".75"/>
  <polygon points="17.34 211.26 17.31 211.38 37.87 211.38 37.89 211.26 17.34 211.26" fill="#b0c2c6" stroke="#eae3df" stroke-miterlimit="10" stroke-width=".75"/>
  <polygon points="17.24 211.38 -.62 211.38 -.62 225.78 14 225.78 17.24 211.38" fill="#bccebc" stroke="#eae3df" stroke-miterlimit="10" stroke-width=".75"/>
  <polygon points="17.26 211.26 -.62 211.26 -.62 211.38 17.24 211.38 17.26 211.26" fill="#c0c7c9" stroke="#eae3df" stroke-miterlimit="10" stroke-width=".75"/>
  <polygon points="17.24 211.38 14 225.78 14.07 225.78 17.31 211.38 17.31 211.38 17.24 211.38" fill="#c0c7c9" stroke="#eae3df" stroke-miterlimit="10" stroke-width=".75"/>
  <rect x="17.26" y="211.32" width=".12" height="0" transform="translate(-192.65 181.86) rotate(-77.33)" fill="#c0c7c9" stroke="#eae3df" stroke-miterlimit="10" stroke-width=".75"/>
  <polygon points="17.24 211.38 17.31 211.38 17.34 211.26 17.26 211.26 17.24 211.38" fill="#c0c7c9" stroke="#eae3df" stroke-miterlimit="10" stroke-width=".75"/>
  <polygon points="10.37 242.27 33.71 242.27 35.92 225.87 14.05 225.87 10.37 242.27" fill="#bccebc" stroke="#eae3df" stroke-miterlimit="10" stroke-width=".75"/>
  <polygon points="14.07 225.78 14.05 225.87 35.92 225.87 35.93 225.78 14.07 225.78" fill="#c0c7c9" stroke="#eae3df" stroke-miterlimit="10" stroke-width=".75"/>
  <polygon points="10.29 242.27 13.98 225.87 -.62 225.87 -.62 242.27 10.29 242.27 10.29 242.27" fill="#b1c4b1" stroke="#eae3df" stroke-miterlimit="10" stroke-width=".75"/>
  <polygon points="14 225.78 -.62 225.78 -.62 225.87 13.98 225.87 14 225.78" fill="#b0c2c6" stroke="#eae3df" stroke-miterlimit="10" stroke-width=".75"/>
  <polygon points="10.29 242.27 10.37 242.27 14.05 225.87 13.98 225.87 10.29 242.27" fill="#b0c2c6" stroke="#eae3df" stroke-miterlimit="10" stroke-width=".75"/>
  <polygon points="13.98 225.87 14.05 225.87 14.07 225.78 14 225.78 13.98 225.87" fill="#b0c2c6" stroke="#eae3df" stroke-miterlimit="10" stroke-width=".75"/>
  <polygon points="10.34 242.38 6.12 261.16 31.17 261.16 31.15 261.28 33.71 242.27 33.71 242.27 33.7 242.38 10.34 242.38" fill="#b1c4b1" stroke="#eae3df" stroke-miterlimit="10" stroke-width=".75"/>
  <polygon points="10.34 242.38 33.7 242.38 33.71 242.27 10.37 242.27 10.34 242.38" fill="#b0c2c6" stroke="#eae3df" stroke-miterlimit="10" stroke-width=".75"/>
  <polygon points="-.62 242.38 -.62 261.16 6.03 261.16 10.26 242.38 -.62 242.38" fill="#bccebc" stroke="#eae3df" stroke-miterlimit="10" stroke-width=".75"/>
  <polygon points="10.29 242.27 -.62 242.27 -.62 242.38 10.26 242.38 10.29 242.27" fill="#c0c7c9" stroke="#eae3df" stroke-miterlimit="10" stroke-width=".75"/>
  <polygon points="10.26 242.38 6.03 261.16 6.12 261.16 10.34 242.38 10.26 242.38 10.26 242.38" fill="#c0c7c9" stroke="#eae3df" stroke-miterlimit="10" stroke-width=".75"/>
  <rect x="10.27" y="242.27" width="0" height=".11" fill="#c0c7c9" stroke="#eae3df" stroke-miterlimit="10" stroke-width=".75"/>
  <polygon points="10.26 242.38 10.34 242.38 10.37 242.27 10.29 242.27 10.26 242.38" fill="#c0c7c9" stroke="#eae3df" stroke-miterlimit="10" stroke-width=".75"/>
  <polygon points="6.1 261.28 2.11 279.03 28.76 279.03 31.15 261.28 6.1 261.28" fill="#bccebc" stroke="#eae3df" stroke-miterlimit="10" stroke-width=".75"/>
  <polygon points="6.12 261.16 6.1 261.28 31.15 261.28 31.17 261.16 6.12 261.16" fill="#c0c7c9" stroke="#eae3df" stroke-miterlimit="10" stroke-width=".75"/>
  <polygon points="-.62 261.28 -.62 279.03 2.01 279.03 6.01 261.28 -.62 261.28" fill="#b1c4b1" stroke="#eae3df" stroke-miterlimit="10" stroke-width=".75"/>
  <polygon points="-.62 261.28 6.01 261.28 6.03 261.16 -.62 261.16 -.62 261.28" fill="#b0c2c6" stroke="#eae3df" stroke-miterlimit="10" stroke-width=".75"/>
  <polygon points="2.01 279.03 2.11 279.03 6.1 261.28 6.01 261.28 2.01 279.03" fill="#b0c2c6" stroke="#eae3df" stroke-miterlimit="10" stroke-width=".75"/>
  <polygon points="6.03 261.16 6.01 261.28 6.1 261.28 6.12 261.16 6.03 261.16" fill="#b0c2c6" stroke="#eae3df" stroke-miterlimit="10" stroke-width=".75"/>
</svg>