<?xml version="1.0" encoding="UTF-8"?>
<svg id="laundry_room" xmlns="http://www.w3.org/2000/svg" viewBox="0 0 138.04 294.26">
  <polygon points="34.33 257.6 34.33 257.6 34.34 257.49 36.56 241 38.5 226.6 38.5 226.6 40.24 213.71 41.8 202.13 43.19 191.84 44.45 182.49 44.45 182.49 45.6 173.95 61.39 173.95 61.48 173.95 77.21 173.95 77.27 173.95 93.01 173.95 93.1 173.95 108.84 173.95 108.89 173.95 124.63 173.95 124.72 173.95 138.04 173.95 138.04 0 0 0 0 173.95 13.88 173.95 13.97 173.95 29.71 173.95 29.76 173.95 45.59 173.95 44.44 182.49 43.18 191.84 43.18 191.84 41.78 202.19 40.24 213.64 38.49 226.6 36.54 241.1 34.33 257.49 34.33 257.49 31.77 276.51 29.38 294.26 29.39 294.26 31.8 276.39 34.33 257.6" fill="#6f8471"/>
  <polygon points="94.15 182.44 93.01 173.95 77.27 173.95 77.65 182.44 94.15 182.44" fill="#b1c4b1" stroke="#eae3df" stroke-miterlimit="10" stroke-width=".75"/>
  <polygon points="110.75 182.44 108.84 173.95 93.1 173.95 94.25 182.44 110.75 182.44" fill="#bccebc" stroke="#eae3df" stroke-miterlimit="10" stroke-width=".75"/>
  <polygon points="94.25 182.44 93.1 173.95 93.01 173.95 94.15 182.44 94.25 182.44" fill="#c0c7c9" stroke="#eae3df" stroke-miterlimit="10" stroke-width=".75"/>
  <polygon points="127.3 182.44 124.63 173.95 108.89 173.95 110.8 182.44 127.3 182.44" fill="#b1c4b1" stroke="#eae3df" stroke-miterlimit="10" stroke-width=".75"/>
  <polygon points="110.8 182.44 108.89 173.95 108.84 173.95 110.75 182.44 110.8 182.44" fill="#b0c2c6" stroke="#eae3df" stroke-miterlimit="10" stroke-width=".75"/>
  <polygon points="138.04 182.44 138.04 173.95 124.72 173.95 127.4 182.44 138.04 182.44" fill="#bccebc" stroke="#eae3df" stroke-miterlimit="10" stroke-width=".75"/>
  <polygon points="127.4 182.44 124.72 173.95 124.63 173.95 127.3 182.44 127.4 182.44" fill="#c0c7c9" stroke="#eae3df" stroke-miterlimit="10" stroke-width=".75"/>
  <polygon points="61 182.44 61.01 182.44 61.39 173.95 45.6 173.95 44.45 182.49 44.45 182.49 44.45 182.44 61 182.44" fill="#b1c4b1" stroke="#eae3df" stroke-miterlimit="10" stroke-width=".75"/>
  <polygon points="77.6 182.44 77.21 173.95 61.48 173.95 61.1 182.44 77.6 182.44" fill="#bccebc" stroke="#eae3df" stroke-miterlimit="10" stroke-width=".75"/>
  <polygon points="77.65 182.44 77.27 173.95 77.21 173.95 77.6 182.44 77.65 182.44" fill="#c0c7c9" stroke="#eae3df" stroke-miterlimit="10" stroke-width=".75"/>
  <polygon points="61.1 182.44 61.48 173.95 61.39 173.95 61.01 182.44 61.1 182.44" fill="#c0c7c9" stroke="#eae3df" stroke-miterlimit="10" stroke-width=".75"/>
  <polygon points="78.08 191.78 95.41 191.78 94.16 182.49 77.66 182.49 78.08 191.78 78.08 191.78" fill="#bccebc" stroke="#eae3df" stroke-miterlimit="10" stroke-width=".75"/>
  <polygon points="94.16 182.49 94.15 182.44 77.65 182.44 77.66 182.49 94.16 182.49" fill="#c0c7c9" stroke="#eae3df" stroke-miterlimit="10" stroke-width=".75"/>
  <polygon points="112.85 191.78 110.76 182.49 94.25 182.49 95.51 191.78 112.85 191.78" fill="#b1c4b1" stroke="#eae3df" stroke-miterlimit="10" stroke-width=".75"/>
  <polygon points="110.76 182.49 110.75 182.44 94.25 182.44 94.25 182.49 110.76 182.49" fill="#b0c2c6" stroke="#eae3df" stroke-miterlimit="10" stroke-width=".75"/>
  <polygon points="95.41 191.78 95.51 191.78 94.25 182.49 94.16 182.49 95.41 191.78 95.41 191.78" fill="#b0c2c6" stroke="#eae3df" stroke-miterlimit="10" stroke-width=".75"/>
  <polygon points="94.25 182.49 94.25 182.44 94.15 182.44 94.16 182.49 94.25 182.49" fill="#b0c2c6" stroke="#eae3df" stroke-miterlimit="10" stroke-width=".75"/>
  <polygon points="130.24 191.78 127.32 182.49 110.81 182.49 112.9 191.78 130.24 191.78" fill="#bccebc" stroke="#eae3df" stroke-miterlimit="10" stroke-width=".75"/>
  <polygon points="127.32 182.49 127.3 182.44 110.8 182.44 110.81 182.49 127.32 182.49" fill="#c0c7c9" stroke="#eae3df" stroke-miterlimit="10" stroke-width=".75"/>
  <polygon points="112.9 191.78 110.81 182.49 110.76 182.49 112.85 191.78 112.9 191.78" fill="#c0c7c9" stroke="#eae3df" stroke-miterlimit="10" stroke-width=".75"/>
  <polygon points="110.81 182.49 110.8 182.44 110.75 182.44 110.76 182.49 110.81 182.49" fill="#c0c7c9" stroke="#eae3df" stroke-miterlimit="10" stroke-width=".75"/>
  <polygon points="130.34 191.78 138.04 191.78 138.04 182.49 127.41 182.49 130.34 191.78" fill="#b1c4b1" stroke="#eae3df" stroke-miterlimit="10" stroke-width=".75"/>
  <polygon points="127.41 182.49 138.04 182.49 138.04 182.44 127.4 182.44 127.41 182.49" fill="#b0c2c6" stroke="#eae3df" stroke-miterlimit="10" stroke-width=".75"/>
  <polygon points="130.24 191.78 130.34 191.78 130.34 191.78 127.41 182.49 127.32 182.49 130.24 191.78" fill="#b0c2c6" stroke="#eae3df" stroke-miterlimit="10" stroke-width=".75"/>
  <polygon points="127.41 182.49 127.4 182.44 127.3 182.44 127.32 182.49 127.41 182.49" fill="#b0c2c6" stroke="#eae3df" stroke-miterlimit="10" stroke-width=".75"/>
  <polygon points="60.58 191.78 60.58 191.78 61 182.49 44.45 182.49 43.19 191.84 43.19 191.78 60.58 191.78" fill="#bccebc" stroke="#eae3df" stroke-miterlimit="10" stroke-width=".75"/>
  <polygon points="61 182.44 44.45 182.44 44.45 182.49 61 182.49 61 182.44" fill="#c0c7c9" stroke="#eae3df" stroke-miterlimit="10" stroke-width=".75"/>
  <polygon points="77.6 182.49 61.1 182.49 60.69 191.78 78.02 191.78 77.6 182.49" fill="#b1c4b1" stroke="#eae3df" stroke-miterlimit="10" stroke-width=".75"/>
  <polygon points="77.6 182.49 77.6 182.44 61.1 182.44 61.1 182.49 77.6 182.49" fill="#b0c2c6" stroke="#eae3df" stroke-miterlimit="10" stroke-width=".75"/>
  <polygon points="78.08 191.78 77.66 182.49 77.6 182.49 78.02 191.78 78.08 191.78" fill="#b0c2c6" stroke="#eae3df" stroke-miterlimit="10" stroke-width=".75"/>
  <polygon points="77.66 182.49 77.65 182.44 77.6 182.44 77.6 182.49 77.66 182.49" fill="#b0c2c6" stroke="#eae3df" stroke-miterlimit="10" stroke-width=".75"/>
  <polygon points="61.1 182.49 61 182.49 61 182.49 60.58 191.78 60.69 191.78 61.1 182.49" fill="#b0c2c6" stroke="#eae3df" stroke-miterlimit="10" stroke-width=".75"/>
  <rect x="61" y="182.44" width="0" height=".05" fill="#b0c2c6" stroke="#eae3df" stroke-miterlimit="10" stroke-width=".75"/>
  <polygon points="61.1 182.49 61.1 182.44 61.01 182.44 61 182.49 61.1 182.49" fill="#b0c2c6" stroke="#eae3df" stroke-miterlimit="10" stroke-width=".75"/>
  <polygon points="95.42 191.84 95.42 191.84 78.08 191.84 78.55 202.13 96.8 202.13 95.42 191.84" fill="#b1c4b1" stroke="#eae3df" stroke-miterlimit="10" stroke-width=".75"/>
  <polygon points="95.42 191.84 95.41 191.78 78.08 191.78 78.08 191.84 95.42 191.84" fill="#b0c2c6" stroke="#eae3df" stroke-miterlimit="10" stroke-width=".75"/>
  <rect x="95.41" y="191.78" width="0" height=".06" transform="translate(-24.86 14.53) rotate(-7.71)" fill="#b0c2c6" stroke="#eae3df" stroke-miterlimit="10" stroke-width=".75"/>
  <polygon points="115.17 202.13 112.86 191.84 95.52 191.84 96.91 202.13 115.17 202.13" fill="#bccebc" stroke="#eae3df" stroke-miterlimit="10" stroke-width=".75"/>
  <polygon points="112.86 191.84 112.85 191.78 95.51 191.78 95.52 191.84 112.86 191.84" fill="#c0c7c9" stroke="#eae3df" stroke-miterlimit="10" stroke-width=".75"/>
  <polygon points="96.91 202.13 95.52 191.84 95.42 191.84 96.8 202.13 96.91 202.13" fill="#c0c7c9" stroke="#eae3df" stroke-miterlimit="10" stroke-width=".75"/>
  <polygon points="95.52 191.84 95.51 191.78 95.41 191.78 95.42 191.84 95.52 191.84" fill="#c0c7c9" stroke="#eae3df" stroke-miterlimit="10" stroke-width=".75"/>
  <polygon points="115.23 202.13 133.49 202.13 130.26 191.84 112.91 191.84 115.23 202.13" fill="#b1c4b1" stroke="#eae3df" stroke-miterlimit="10" stroke-width=".75"/>
  <polygon points="112.91 191.84 130.26 191.84 130.24 191.78 112.9 191.78 112.91 191.84" fill="#b0c2c6" stroke="#eae3df" stroke-miterlimit="10" stroke-width=".75"/>
  <polygon points="115.17 202.13 115.23 202.13 112.91 191.84 112.86 191.84 115.17 202.13" fill="#b0c2c6" stroke="#eae3df" stroke-miterlimit="10" stroke-width=".75"/>
  <polygon points="112.91 191.84 112.9 191.78 112.85 191.78 112.86 191.84 112.91 191.84" fill="#b0c2c6" stroke="#eae3df" stroke-miterlimit="10" stroke-width=".75"/>
  <polygon points="130.36 191.84 133.6 202.13 138.04 202.13 138.04 191.84 130.36 191.84 130.36 191.84" fill="#bccebc" stroke="#eae3df" stroke-miterlimit="10" stroke-width=".75"/>
  <polygon points="130.36 191.84 138.04 191.84 138.04 191.78 130.34 191.78 130.36 191.84" fill="#c0c7c9" stroke="#eae3df" stroke-miterlimit="10" stroke-width=".75"/>
  <rect x="130.35" y="191.78" width="0" height=".06" fill="#c0c7c9" stroke="#eae3df" stroke-miterlimit="10" stroke-width=".75"/>
  <polygon points="133.49 202.13 133.6 202.13 130.36 191.84 130.26 191.84 133.49 202.13" fill="#c0c7c9" stroke="#eae3df" stroke-miterlimit="10" stroke-width=".75"/>
  <polygon points="130.24 191.78 130.26 191.84 130.36 191.84 130.34 191.78 130.24 191.78" fill="#c0c7c9" stroke="#eae3df" stroke-miterlimit="10" stroke-width=".75"/>
  <polygon points="60.58 191.84 43.19 191.84 41.8 202.13 60.12 202.13 60.58 191.84" fill="#b1c4b1" stroke="#eae3df" stroke-miterlimit="10" stroke-width=".75"/>
  <polygon points="60.58 191.78 43.19 191.78 43.19 191.84 60.58 191.84 60.58 191.78" fill="#b0c2c6" stroke="#eae3df" stroke-miterlimit="10" stroke-width=".75"/>
  <polygon points="78.02 191.84 60.68 191.84 60.23 202.13 78.48 202.13 78.02 191.84" fill="#bccebc" stroke="#eae3df" stroke-miterlimit="10" stroke-width=".75"/>
  <polygon points="78.02 191.78 60.69 191.78 60.68 191.84 78.02 191.84 78.02 191.78" fill="#c0c7c9" stroke="#eae3df" stroke-miterlimit="10" stroke-width=".75"/>
  <polygon points="78.55 202.13 78.08 191.84 78.08 191.84 78.02 191.84 78.48 202.13 78.55 202.13 78.55 202.13" fill="#c0c7c9" stroke="#eae3df" stroke-miterlimit="10" stroke-width=".75"/>
  <rect x="78.08" y="191.78" width="0" height=".06" transform="translate(-8.63 3.74) rotate(-2.6)" fill="#c0c7c9" stroke="#eae3df" stroke-miterlimit="10" stroke-width=".75"/>
  <polygon points="78.08 191.78 78.02 191.78 78.02 191.84 78.08 191.84 78.08 191.78" fill="#c0c7c9" stroke="#eae3df" stroke-miterlimit="10" stroke-width=".75"/>
  <polygon points="60.68 191.84 60.58 191.84 60.58 191.84 60.12 202.13 60.23 202.13 60.68 191.84" fill="#c0c7c9" stroke="#eae3df" stroke-miterlimit="10" stroke-width=".75"/>
  <rect x="60.58" y="191.78" width="0" height=".06" fill="#c0c7c9" stroke="#eae3df" stroke-miterlimit="10" stroke-width=".75"/>
  <polygon points="60.68 191.84 60.69 191.78 60.58 191.78 60.58 191.84 60.68 191.84" fill="#c0c7c9" stroke="#eae3df" stroke-miterlimit="10" stroke-width=".75"/>
  <polygon points="96.81 202.19 78.55 202.19 78.55 202.19 79.07 213.64 98.35 213.64 96.81 202.19" fill="#bccebc" stroke="#eae3df" stroke-miterlimit="10" stroke-width=".75"/>
  <polygon points="96.81 202.19 96.8 202.13 78.55 202.13 78.55 202.19 96.81 202.19" fill="#c0c7c9" stroke="#eae3df" stroke-miterlimit="10" stroke-width=".75"/>
  <rect x="78.55" y="202.13" width="0" height=".06" fill="#c0c7c9" stroke="#eae3df" stroke-miterlimit="10" stroke-width=".75"/>
  <polygon points="96.92 202.19 98.47 213.64 117.76 213.64 115.19 202.19 96.92 202.19" fill="#b1c4b1" stroke="#eae3df" stroke-miterlimit="10" stroke-width=".75"/>
  <polygon points="96.91 202.13 96.92 202.19 115.19 202.19 115.17 202.13 96.91 202.13" fill="#b0c2c6" stroke="#eae3df" stroke-miterlimit="10" stroke-width=".75"/>
  <polygon points="98.35 213.64 98.47 213.64 96.92 202.19 96.81 202.19 98.35 213.64" fill="#b0c2c6" stroke="#eae3df" stroke-miterlimit="10" stroke-width=".75"/>
  <polygon points="96.8 202.13 96.81 202.19 96.92 202.19 96.91 202.13 96.8 202.13" fill="#b0c2c6" stroke="#eae3df" stroke-miterlimit="10" stroke-width=".75"/>
  <polygon points="117.82 213.64 137.11 213.64 133.51 202.19 115.24 202.19 117.82 213.64" fill="#bccebc" stroke="#eae3df" stroke-miterlimit="10" stroke-width=".75"/>
  <polygon points="115.24 202.19 133.51 202.19 133.49 202.13 115.23 202.13 115.24 202.19" fill="#c0c7c9" stroke="#eae3df" stroke-miterlimit="10" stroke-width=".75"/>
  <polygon points="115.19 202.19 117.76 213.64 117.82 213.64 115.24 202.19 115.19 202.19" fill="#c0c7c9" stroke="#eae3df" stroke-miterlimit="10" stroke-width=".75"/>
  <polygon points="115.19 202.19 115.24 202.19 115.23 202.13 115.17 202.13 115.19 202.19" fill="#c0c7c9" stroke="#eae3df" stroke-miterlimit="10" stroke-width=".75"/>
  <polygon points="137.23 213.64 138.04 213.64 138.04 202.19 133.62 202.19 137.23 213.64" fill="#b1c4b1" stroke="#eae3df" stroke-miterlimit="10" stroke-width=".75"/>
  <polygon points="133.62 202.19 138.04 202.19 138.04 202.13 133.6 202.13 133.62 202.19" fill="#b0c2c6" stroke="#eae3df" stroke-miterlimit="10" stroke-width=".75"/>
  <polygon points="137.11 213.64 137.23 213.64 137.23 213.64 133.62 202.19 133.51 202.19 137.11 213.64" fill="#b0c2c6" stroke="#eae3df" stroke-miterlimit="10" stroke-width=".75"/>
  <polygon points="133.51 202.19 133.62 202.19 133.6 202.13 133.49 202.13 133.51 202.19" fill="#b0c2c6" stroke="#eae3df" stroke-miterlimit="10" stroke-width=".75"/>
  <polygon points="59.6 213.64 60.12 202.19 41.79 202.19 41.8 202.13 40.24 213.71 40.25 213.64 59.6 213.64" fill="#bccebc" stroke="#eae3df" stroke-miterlimit="10" stroke-width=".75"/>
  <polygon points="60.12 202.19 60.12 202.13 41.8 202.13 41.79 202.19 60.12 202.19" fill="#c0c7c9" stroke="#eae3df" stroke-miterlimit="10" stroke-width=".75"/>
  <polygon points="78.48 202.19 60.22 202.19 59.72 213.64 79 213.64 78.48 202.19" fill="#b1c4b1" stroke="#eae3df" stroke-miterlimit="10" stroke-width=".75"/>
  <polygon points="78.48 202.13 60.23 202.13 60.22 202.19 78.48 202.19 78.48 202.13" fill="#b0c2c6" stroke="#eae3df" stroke-miterlimit="10" stroke-width=".75"/>
  <polygon points="78.55 202.19 78.48 202.19 79 213.64 79.07 213.64 78.55 202.19" fill="#b0c2c6" stroke="#eae3df" stroke-miterlimit="10" stroke-width=".75"/>
  <polygon points="78.55 202.13 78.48 202.13 78.48 202.19 78.55 202.19 78.55 202.13" fill="#b0c2c6" stroke="#eae3df" stroke-miterlimit="10" stroke-width=".75"/>
  <polygon points="59.72 213.64 60.22 202.19 60.12 202.19 59.6 213.64 59.72 213.64 59.72 213.64" fill="#b0c2c6" stroke="#eae3df" stroke-miterlimit="10" stroke-width=".75"/>
  <polygon points="60.23 202.13 60.12 202.13 60.12 202.19 60.22 202.19 60.23 202.13" fill="#b0c2c6" stroke="#eae3df" stroke-miterlimit="10" stroke-width=".75"/>
  <polygon points="98.36 213.71 79.07 213.71 79.65 226.48 100.08 226.48 98.36 213.71" fill="#b1c4b1" stroke="#eae3df" stroke-miterlimit="10" stroke-width=".75"/>
  <polygon points="98.35 213.64 79.07 213.64 79.07 213.71 98.36 213.71 98.35 213.64" fill="#b0c2c6" stroke="#eae3df" stroke-miterlimit="10" stroke-width=".75"/>
  <polygon points="100.2 226.48 120.65 226.48 120.65 226.48 117.78 213.71 98.48 213.71 100.2 226.48" fill="#bccebc" stroke="#eae3df" stroke-miterlimit="10" stroke-width=".75"/>
  <polygon points="98.48 213.71 117.78 213.71 117.76 213.64 98.47 213.64 98.48 213.71" fill="#c0c7c9" stroke="#eae3df" stroke-miterlimit="10" stroke-width=".75"/>
  <polygon points="100.08 226.48 100.2 226.48 98.48 213.71 98.36 213.71 100.08 226.48" fill="#c0c7c9" stroke="#eae3df" stroke-miterlimit="10" stroke-width=".75"/>
  <polygon points="98.36 213.71 98.48 213.71 98.47 213.64 98.35 213.64 98.36 213.71" fill="#c0c7c9" stroke="#eae3df" stroke-miterlimit="10" stroke-width=".75"/>
  <polygon points="117.83 213.71 120.71 226.48 138.04 226.48 138.04 216.58 137.14 213.71 117.83 213.71" fill="#b1c4b1" stroke="#eae3df" stroke-miterlimit="10" stroke-width=".75"/>
  <polygon points="117.82 213.64 117.83 213.71 137.14 213.71 137.11 213.64 117.82 213.64" fill="#b0c2c6" stroke="#eae3df" stroke-miterlimit="10" stroke-width=".75"/>
  <polygon points="120.65 226.48 120.71 226.48 117.83 213.71 117.78 213.71 120.65 226.48" fill="#b0c2c6" stroke="#eae3df" stroke-miterlimit="10" stroke-width=".75"/>
  <polygon points="117.76 213.64 117.78 213.71 117.83 213.71 117.82 213.64 117.76 213.64" fill="#b0c2c6" stroke="#eae3df" stroke-miterlimit="10" stroke-width=".75"/>
  <polygon points="59.02 226.48 59.6 213.71 40.24 213.71 38.5 226.6 38.5 226.6 38.52 226.48 59.02 226.48" fill="#b1c4b1" stroke="#eae3df" stroke-miterlimit="10" stroke-width=".75"/>
  <polygon points="59.6 213.64 40.25 213.64 40.24 213.71 59.6 213.71 59.6 213.64" fill="#b0c2c6" stroke="#eae3df" stroke-miterlimit="10" stroke-width=".75"/>
  <polygon points="79 213.71 59.71 213.71 59.71 213.71 59.14 226.48 79.58 226.48 79 213.71" fill="#bccebc" stroke="#eae3df" stroke-miterlimit="10" stroke-width=".75"/>
  <polygon points="79 213.71 79 213.64 59.72 213.64 59.71 213.71 79 213.71" fill="#c0c7c9" stroke="#eae3df" stroke-miterlimit="10" stroke-width=".75"/>
  <rect x="59.71" y="213.64" width="0" height=".07" fill="#c0c7c9" stroke="#eae3df" stroke-miterlimit="10" stroke-width=".75"/>
  <polygon points="79.65 226.48 79.07 213.71 79 213.71 79.58 226.48 79.65 226.48 79.65 226.48" fill="#c0c7c9" stroke="#eae3df" stroke-miterlimit="10" stroke-width=".75"/>
  <polygon points="79.07 213.64 79 213.64 79 213.71 79.07 213.71 79.07 213.64" fill="#c0c7c9" stroke="#eae3df" stroke-miterlimit="10" stroke-width=".75"/>
  <polygon points="59.14 226.48 59.71 213.71 59.6 213.71 59.02 226.48 59.14 226.48 59.14 226.48" fill="#c0c7c9" stroke="#eae3df" stroke-miterlimit="10" stroke-width=".75"/>
  <polygon points="59.72 213.64 59.6 213.64 59.6 213.71 59.71 213.71 59.72 213.64" fill="#c0c7c9" stroke="#eae3df" stroke-miterlimit="10" stroke-width=".75"/>
  <polygon points="44.45 182.44 44.44 182.49 45.59 173.95 29.76 173.95 27.85 182.44 44.45 182.44" fill="#bccebc" stroke="#eae3df" stroke-miterlimit="10" stroke-width=".75"/>
  <polygon points="11.21 182.44 13.88 173.95 0 173.95 0 182.44 11.21 182.44" fill="#bccebc" stroke="#eae3df" stroke-miterlimit="10" stroke-width=".75"/>
  <polygon points="27.8 182.44 29.71 173.95 13.97 173.95 11.3 182.44 27.8 182.44" fill="#b1c4b1" stroke="#eae3df" stroke-miterlimit="10" stroke-width=".75"/>
  <polygon points="27.8 182.44 27.85 182.44 29.76 173.95 29.71 173.95 27.8 182.44 27.8 182.44" fill="#b0c2c6" stroke="#eae3df" stroke-miterlimit="10" stroke-width=".75"/>
  <polygon points="11.3 182.44 13.97 173.95 13.88 173.95 11.21 182.44 11.3 182.44" fill="#b0c2c6" stroke="#eae3df" stroke-miterlimit="10" stroke-width=".75"/>
  <polygon points="25.75 191.78 43.19 191.78 43.18 191.84 43.18 191.84 44.44 182.49 27.84 182.49 25.75 191.78" fill="#b1c4b1" stroke="#eae3df" stroke-miterlimit="10" stroke-width=".75"/>
  <polygon points="27.85 182.44 27.84 182.49 44.44 182.49 44.45 182.44 27.85 182.44" fill="#b0c2c6" stroke="#eae3df" stroke-miterlimit="10" stroke-width=".75"/>
  <polygon points="11.19 182.49 0 182.49 0 191.78 8.26 191.78 11.19 182.49" fill="#b1c4b1" stroke="#eae3df" stroke-miterlimit="10" stroke-width=".75"/>
  <polygon points="11.19 182.49 11.21 182.44 0 182.44 0 182.49 11.19 182.49" fill="#b0c2c6" stroke="#eae3df" stroke-miterlimit="10" stroke-width=".75"/>
  <polygon points="25.69 191.78 27.78 182.49 27.78 182.49 11.29 182.49 8.36 191.78 25.69 191.78" fill="#bccebc" stroke="#eae3df" stroke-miterlimit="10" stroke-width=".75"/>
  <polygon points="27.78 182.49 27.8 182.44 11.3 182.44 11.29 182.49 27.78 182.49" fill="#c0c7c9" stroke="#eae3df" stroke-miterlimit="10" stroke-width=".75"/>
  <rect x="27.76" y="182.46" width=".05" height="0" transform="translate(-156.32 169.53) rotate(-77.32)" fill="#c0c7c9" stroke="#eae3df" stroke-miterlimit="10" stroke-width=".75"/>
  <polygon points="25.69 191.78 25.75 191.78 27.84 182.49 27.78 182.49 25.69 191.78" fill="#c0c7c9" stroke="#eae3df" stroke-miterlimit="10" stroke-width=".75"/>
  <polygon points="27.84 182.49 27.85 182.44 27.8 182.44 27.78 182.49 27.84 182.49" fill="#c0c7c9" stroke="#eae3df" stroke-miterlimit="10" stroke-width=".75"/>
  <polygon points="8.26 191.78 8.36 191.78 11.29 182.49 11.19 182.49 8.26 191.78 8.26 191.78" fill="#c0c7c9" stroke="#eae3df" stroke-miterlimit="10" stroke-width=".75"/>
  <polygon points="11.29 182.49 11.3 182.44 11.21 182.44 11.19 182.49 11.29 182.49" fill="#c0c7c9" stroke="#eae3df" stroke-miterlimit="10" stroke-width=".75"/>
  <polygon points="23.43 202.13 41.79 202.13 41.78 202.19 43.18 191.84 25.74 191.84 23.43 202.13" fill="#bccebc" stroke="#eae3df" stroke-miterlimit="10" stroke-width=".75"/>
  <polygon points="25.75 191.78 25.74 191.84 43.18 191.84 43.19 191.78 25.75 191.78" fill="#c0c7c9" stroke="#eae3df" stroke-miterlimit="10" stroke-width=".75"/>
  <polygon points="8.24 191.84 8.24 191.84 0 191.84 0 202.13 5 202.13 8.24 191.84" fill="#bccebc" stroke="#eae3df" stroke-miterlimit="10" stroke-width=".75"/>
  <polygon points="8.26 191.78 0 191.78 0 191.84 8.24 191.84 8.26 191.78" fill="#c0c7c9" stroke="#eae3df" stroke-miterlimit="10" stroke-width=".75"/>
  <rect x="8.22" y="191.81" width=".06" height="0" transform="translate(-177.22 142.23) rotate(-72.57)" fill="#c0c7c9" stroke="#eae3df" stroke-miterlimit="10" stroke-width=".75"/>
  <polygon points="5.11 202.13 23.37 202.13 25.68 191.84 8.35 191.84 5.11 202.13" fill="#b1c4b1" stroke="#eae3df" stroke-miterlimit="10" stroke-width=".75"/>
  <polygon points="8.35 191.84 25.68 191.84 25.69 191.78 8.36 191.78 8.35 191.84" fill="#b0c2c6" stroke="#eae3df" stroke-miterlimit="10" stroke-width=".75"/>
  <polygon points="23.37 202.13 23.43 202.13 25.74 191.84 25.68 191.84 23.37 202.13" fill="#b0c2c6" stroke="#eae3df" stroke-miterlimit="10" stroke-width=".75"/>
  <polygon points="25.68 191.84 25.74 191.84 25.75 191.78 25.69 191.78 25.68 191.84" fill="#b0c2c6" stroke="#eae3df" stroke-miterlimit="10" stroke-width=".75"/>
  <polygon points="8.35 191.84 8.24 191.84 5 202.13 5.11 202.13 8.35 191.84" fill="#b0c2c6" stroke="#eae3df" stroke-miterlimit="10" stroke-width=".75"/>
  <polygon points="8.36 191.78 8.26 191.78 8.24 191.84 8.35 191.84 8.36 191.78" fill="#b0c2c6" stroke="#eae3df" stroke-miterlimit="10" stroke-width=".75"/>
  <polygon points="20.84 213.64 40.24 213.64 41.78 202.19 23.41 202.19 20.84 213.64" fill="#b1c4b1" stroke="#eae3df" stroke-miterlimit="10" stroke-width=".75"/>
  <polygon points="23.43 202.13 23.41 202.19 41.78 202.19 41.79 202.13 23.43 202.13" fill="#b0c2c6" stroke="#eae3df" stroke-miterlimit="10" stroke-width=".75"/>
  <polygon points="4.98 202.19 0 202.19 0 213.64 1.38 213.64 4.98 202.19" fill="#b1c4b1" stroke="#eae3df" stroke-miterlimit="10" stroke-width=".75"/>
  <polygon points="5 202.13 0 202.13 0 202.19 4.98 202.19 5 202.13" fill="#b0c2c6" stroke="#eae3df" stroke-miterlimit="10" stroke-width=".75"/>
  <polygon points="1.49 213.64 20.77 213.64 23.35 202.19 5.09 202.19 1.49 213.64" fill="#bccebc" stroke="#eae3df" stroke-miterlimit="10" stroke-width=".75"/>
  <polygon points="5.09 202.19 23.35 202.19 23.37 202.13 5.11 202.13 5.09 202.19" fill="#c0c7c9" stroke="#eae3df" stroke-miterlimit="10" stroke-width=".75"/>
  <polygon points="20.77 213.64 20.84 213.64 23.41 202.19 23.35 202.19 20.77 213.64" fill="#c0c7c9" stroke="#eae3df" stroke-miterlimit="10" stroke-width=".75"/>
  <polygon points="23.35 202.19 23.41 202.19 23.43 202.13 23.37 202.13 23.35 202.19" fill="#c0c7c9" stroke="#eae3df" stroke-miterlimit="10" stroke-width=".75"/>
  <polygon points="1.49 213.64 5.09 202.19 4.98 202.19 1.38 213.64 1.38 213.64 1.49 213.64" fill="#c0c7c9" stroke="#eae3df" stroke-miterlimit="10" stroke-width=".75"/>
  <polygon points="5.11 202.13 5 202.13 4.98 202.19 5.09 202.19 5.11 202.13" fill="#c0c7c9" stroke="#eae3df" stroke-miterlimit="10" stroke-width=".75"/>
  <polygon points="20.83 213.71 17.96 226.48 17.96 226.48 38.51 226.48 38.49 226.6 40.24 213.64 40.23 213.71 20.83 213.71" fill="#bccebc" stroke="#eae3df" stroke-miterlimit="10" stroke-width=".75"/>
  <polygon points="20.83 213.71 40.23 213.71 40.24 213.64 20.84 213.64 20.83 213.71" fill="#c0c7c9" stroke="#eae3df" stroke-miterlimit="10" stroke-width=".75"/>
  <polygon points="1.35 213.71 0 213.71 0 218.01 1.35 213.71 1.35 213.71" fill="#bccebc" stroke="#eae3df" stroke-miterlimit="10" stroke-width=".75"/>
  <polygon points="1.38 213.64 0 213.64 0 213.71 1.35 213.71 1.38 213.64" fill="#c0c7c9" stroke="#eae3df" stroke-miterlimit="10" stroke-width=".75"/>
  <rect x="1.33" y="213.67" width=".07" height="0" transform="translate(-202.86 150.81) rotate(-72.52)" fill="#c0c7c9" stroke="#eae3df" stroke-miterlimit="10" stroke-width=".75"/>
  <polygon points="20.76 213.71 1.47 213.71 0 218.38 0 226.48 17.88 226.48 20.76 213.71" fill="#b1c4b1" stroke="#eae3df" stroke-miterlimit="10" stroke-width=".75"/>
  <polygon points="1.47 213.71 20.76 213.71 20.77 213.64 1.49 213.64 1.47 213.71" fill="#b0c2c6" stroke="#eae3df" stroke-miterlimit="10" stroke-width=".75"/>
  <polygon points="17.88 226.48 17.96 226.48 20.83 213.71 20.76 213.71 17.88 226.48" fill="#b0c2c6" stroke="#eae3df" stroke-miterlimit="10" stroke-width=".75"/>
  <polygon points="20.76 213.71 20.83 213.71 20.84 213.64 20.77 213.64 20.76 213.71" fill="#b0c2c6" stroke="#eae3df" stroke-miterlimit="10" stroke-width=".75"/>
  <polygon points="1.35 213.71 0 218.01 0 218.38 1.47 213.71 1.35 213.71" fill="#b0c2c6" stroke="#eae3df" stroke-miterlimit="10" stroke-width=".75"/>
  <polygon points="1.38 213.64 1.35 213.71 1.47 213.71 1.49 213.64 1.38 213.64" fill="#b0c2c6" stroke="#eae3df" stroke-miterlimit="10" stroke-width=".75"/>
  <polygon points="100.1 226.6 79.65 226.6 79.65 226.6 80.31 241 102.04 241 100.1 226.6" fill="#bccebc" stroke="#eae3df" stroke-miterlimit="10" stroke-width=".75"/>
  <polygon points="100.1 226.6 100.08 226.48 79.65 226.48 79.65 226.6 100.1 226.6" fill="#c0c7c9" stroke="#eae3df" stroke-miterlimit="10" stroke-width=".75"/>
  <rect x="79.65" y="226.48" width="0" height=".12" fill="#c0c7c9" stroke="#eae3df" stroke-miterlimit="10" stroke-width=".75"/>
  <polygon points="102.17 241 123.91 241 120.67 226.6 100.22 226.6 102.17 241" fill="#b1c4b1" stroke="#eae3df" stroke-miterlimit="10" stroke-width=".75"/>
  <polygon points="100.2 226.48 100.22 226.6 120.67 226.6 120.65 226.48 100.2 226.48" fill="#b0c2c6" stroke="#eae3df" stroke-miterlimit="10" stroke-width=".75"/>
  <polygon points="102.04 241 102.17 241 100.22 226.6 100.1 226.6 102.04 241" fill="#b0c2c6" stroke="#eae3df" stroke-miterlimit="10" stroke-width=".75"/>
  <polygon points="100.1 226.6 100.22 226.6 100.2 226.48 100.08 226.48 100.1 226.6" fill="#b0c2c6" stroke="#eae3df" stroke-miterlimit="10" stroke-width=".75"/>
  <polygon points="123.97 241 138.04 241 138.04 226.6 120.74 226.6 123.97 241" fill="#bccebc" stroke="#eae3df" stroke-miterlimit="10" stroke-width=".75"/>
  <polygon points="120.74 226.6 138.04 226.6 138.04 226.48 120.71 226.48 120.74 226.6" fill="#c0c7c9" stroke="#eae3df" stroke-miterlimit="10" stroke-width=".75"/>
  <polygon points="120.67 226.6 123.91 241 123.97 241 123.97 241 120.74 226.6 120.67 226.6 120.67 226.6" fill="#c0c7c9" stroke="#eae3df" stroke-miterlimit="10" stroke-width=".75"/>
  <rect x="120.66" y="226.48" width="0" height=".12" fill="#c0c7c9" stroke="#eae3df" stroke-miterlimit="10" stroke-width=".75"/>
  <polygon points="120.67 226.6 120.74 226.6 120.71 226.48 120.65 226.48 120.67 226.6" fill="#c0c7c9" stroke="#eae3df" stroke-miterlimit="10" stroke-width=".75"/>
  <polygon points="58.37 241 59.02 226.6 38.5 226.6 36.56 241 58.37 241 58.37 241" fill="#bccebc" stroke="#eae3df" stroke-miterlimit="10" stroke-width=".75"/>
  <polygon points="59.02 226.48 38.52 226.48 38.5 226.6 59.02 226.6 59.02 226.48" fill="#c0c7c9" stroke="#eae3df" stroke-miterlimit="10" stroke-width=".75"/>
  <polygon points="79.58 226.6 59.14 226.6 59.14 226.6 58.5 241 80.23 241 79.58 226.6" fill="#b1c4b1" stroke="#eae3df" stroke-miterlimit="10" stroke-width=".75"/>
  <polygon points="79.58 226.6 79.58 226.48 59.14 226.48 59.14 226.6 79.58 226.6" fill="#b0c2c6" stroke="#eae3df" stroke-miterlimit="10" stroke-width=".75"/>
  <rect x="59.14" y="226.48" width="0" height=".12" fill="#b0c2c6" stroke="#eae3df" stroke-miterlimit="10" stroke-width=".75"/>
  <polygon points="79.65 226.6 79.58 226.6 80.23 241 80.31 241 79.65 226.6" fill="#b0c2c6" stroke="#eae3df" stroke-miterlimit="10" stroke-width=".75"/>
  <polygon points="79.65 226.48 79.58 226.48 79.58 226.6 79.65 226.6 79.65 226.48" fill="#b0c2c6" stroke="#eae3df" stroke-miterlimit="10" stroke-width=".75"/>
  <polygon points="59.14 226.6 59.02 226.6 58.37 241 58.5 241 59.14 226.6" fill="#b0c2c6" stroke="#eae3df" stroke-miterlimit="10" stroke-width=".75"/>
  <polygon points="59.14 226.48 59.02 226.48 59.02 226.6 59.14 226.6 59.14 226.48" fill="#b0c2c6" stroke="#eae3df" stroke-miterlimit="10" stroke-width=".75"/>
  <polygon points="102.05 241.1 80.31 241.1 81.05 257.49 104.26 257.49 102.05 241.1" fill="#b1c4b1" stroke="#eae3df" stroke-miterlimit="10" stroke-width=".75"/>
  <polygon points="80.31 241 80.31 241.1 102.05 241.1 102.04 241 80.31 241" fill="#b0c2c6" stroke="#eae3df" stroke-miterlimit="10" stroke-width=".75"/>
  <polygon points="104.4 257.49 127.62 257.49 123.93 241.1 102.18 241.1 104.4 257.49" fill="#bccebc" stroke="#eae3df" stroke-miterlimit="10" stroke-width=".75"/>
  <polygon points="102.18 241.1 123.93 241.1 123.91 241 102.17 241 102.18 241.1" fill="#c0c7c9" stroke="#eae3df" stroke-miterlimit="10" stroke-width=".75"/>
  <polygon points="104.26 257.49 104.4 257.49 102.18 241.1 102.05 241.1 104.26 257.49" fill="#c0c7c9" stroke="#eae3df" stroke-miterlimit="10" stroke-width=".75"/>
  <polygon points="102.05 241.1 102.18 241.1 102.17 241 102.04 241 102.05 241.1" fill="#c0c7c9" stroke="#eae3df" stroke-miterlimit="10" stroke-width=".75"/>
  <polygon points="124 241.1 127.69 257.49 138.04 257.49 138.04 241.1 124 241.1 124 241.1" fill="#b1c4b1" stroke="#eae3df" stroke-miterlimit="10" stroke-width=".75"/>
  <polygon points="124 241.1 138.04 241.1 138.04 241 123.97 241 124 241.1" fill="#b0c2c6" stroke="#eae3df" stroke-miterlimit="10" stroke-width=".75"/>
  <rect x="123.99" y="241" width="0" height=".09" fill="#b0c2c6" stroke="#eae3df" stroke-miterlimit="10" stroke-width=".75"/>
  <polygon points="127.62 257.49 127.69 257.49 127.69 257.49 124 241.1 123.93 241.1 127.62 257.49" fill="#b0c2c6" stroke="#eae3df" stroke-miterlimit="10" stroke-width=".75"/>
  <polygon points="123.91 241 123.93 241.1 124 241.1 123.97 241 123.91 241" fill="#b0c2c6" stroke="#eae3df" stroke-miterlimit="10" stroke-width=".75"/>
  <polygon points="57.63 257.49 58.37 241.1 36.55 241.1 36.56 241 34.34 257.49 57.63 257.49 57.63 257.49" fill="#b1c4b1" stroke="#eae3df" stroke-miterlimit="10" stroke-width=".75"/>
  <polygon points="58.37 241.1 58.37 241 36.56 241 36.55 241.1 58.37 241.1" fill="#b0c2c6" stroke="#eae3df" stroke-miterlimit="10" stroke-width=".75"/>
  <polygon points="80.23 241.1 58.49 241.1 57.77 257.49 80.97 257.49 80.23 241.1" fill="#bccebc" stroke="#eae3df" stroke-miterlimit="10" stroke-width=".75"/>
  <polygon points="80.23 241 58.5 241 58.49 241.1 80.23 241.1 80.23 241" fill="#c0c7c9" stroke="#eae3df" stroke-miterlimit="10" stroke-width=".75"/>
  <polygon points="80.23 241.1 80.97 257.49 81.05 257.49 80.31 241.1 80.23 241.1" fill="#c0c7c9" stroke="#eae3df" stroke-miterlimit="10" stroke-width=".75"/>
  <polygon points="80.31 241 80.23 241 80.23 241.1 80.31 241.1 80.31 241" fill="#c0c7c9" stroke="#eae3df" stroke-miterlimit="10" stroke-width=".75"/>
  <polygon points="58.49 241.1 58.37 241.1 58.37 241.1 57.63 257.49 57.77 257.49 58.49 241.1" fill="#c0c7c9" stroke="#eae3df" stroke-miterlimit="10" stroke-width=".75"/>
  <rect x="58.37" y="241" width="0" height=".09" fill="#c0c7c9" stroke="#eae3df" stroke-miterlimit="10" stroke-width=".75"/>
  <polygon points="58.49 241.1 58.5 241 58.37 241 58.37 241.1 58.49 241.1" fill="#c0c7c9" stroke="#eae3df" stroke-miterlimit="10" stroke-width=".75"/>
  <polygon points="81.06 257.6 81.91 276.39 106.81 276.39 104.27 257.6 81.06 257.6" fill="#bccebc" stroke="#eae3df" stroke-miterlimit="10" stroke-width=".75"/>
  <polygon points="81.05 257.49 81.06 257.6 104.27 257.6 104.26 257.49 81.05 257.49" fill="#c0c7c9" stroke="#eae3df" stroke-miterlimit="10" stroke-width=".75"/>
  <polygon points="104.41 257.6 106.95 276.39 131.86 276.39 127.64 257.6 104.41 257.6" fill="#b1c4b1" stroke="#eae3df" stroke-miterlimit="10" stroke-width=".75"/>
  <polygon points="104.41 257.6 127.64 257.6 127.62 257.49 104.4 257.49 104.41 257.6" fill="#b0c2c6" stroke="#eae3df" stroke-miterlimit="10" stroke-width=".75"/>
  <polygon points="104.27 257.6 106.81 276.39 106.95 276.39 104.41 257.6 104.27 257.6" fill="#b0c2c6" stroke="#eae3df" stroke-miterlimit="10" stroke-width=".75"/>
  <polygon points="104.26 257.49 104.27 257.6 104.41 257.6 104.4 257.49 104.26 257.49" fill="#b0c2c6" stroke="#eae3df" stroke-miterlimit="10" stroke-width=".75"/>
  <polygon points="127.71 257.6 131.94 276.39 138.04 276.39 138.04 257.6 127.71 257.6 127.71 257.6" fill="#bccebc" stroke="#eae3df" stroke-miterlimit="10" stroke-width=".75"/>
  <polygon points="127.71 257.6 138.04 257.6 138.04 257.49 127.69 257.49 127.71 257.6" fill="#c0c7c9" stroke="#eae3df" stroke-miterlimit="10" stroke-width=".75"/>
  <rect x="127.7" y="257.49" width="0" height=".11" fill="#c0c7c9" stroke="#eae3df" stroke-miterlimit="10" stroke-width=".75"/>
  <polygon points="131.86 276.39 131.94 276.39 127.71 257.6 127.64 257.6 131.86 276.39" fill="#c0c7c9" stroke="#eae3df" stroke-miterlimit="10" stroke-width=".75"/>
  <polygon points="127.62 257.49 127.64 257.6 127.71 257.6 127.69 257.49 127.62 257.49" fill="#c0c7c9" stroke="#eae3df" stroke-miterlimit="10" stroke-width=".75"/>
  <polygon points="57.62 257.6 34.33 257.6 31.8 276.39 56.78 276.39 57.62 257.6" fill="#bccebc" stroke="#eae3df" stroke-miterlimit="10" stroke-width=".75"/>
  <polygon points="57.63 257.49 34.34 257.49 34.33 257.6 57.62 257.6 57.63 257.49" fill="#c0c7c9" stroke="#eae3df" stroke-miterlimit="10" stroke-width=".75"/>
  <polygon points="34.33 257.6 34.33 257.6 34.34 257.49 34.33 257.6" fill="#c0c7c9" stroke="#eae3df" stroke-miterlimit="10" stroke-width=".75"/>
  <polygon points="80.98 257.6 57.76 257.6 56.93 276.39 81.82 276.39 80.98 257.6" fill="#b1c4b1" stroke="#eae3df" stroke-miterlimit="10" stroke-width=".75"/>
  <polygon points="57.77 257.49 57.76 257.6 80.98 257.6 80.97 257.49 57.77 257.49" fill="#b0c2c6" stroke="#eae3df" stroke-miterlimit="10" stroke-width=".75"/>
  <polygon points="80.98 257.6 81.82 276.39 81.91 276.39 81.06 257.6 80.98 257.6" fill="#b0c2c6" stroke="#eae3df" stroke-miterlimit="10" stroke-width=".75"/>
  <polygon points="81.05 257.49 80.97 257.49 80.98 257.6 81.06 257.6 81.05 257.49" fill="#b0c2c6" stroke="#eae3df" stroke-miterlimit="10" stroke-width=".75"/>
  <polygon points="57.62 257.6 57.62 257.6 56.78 276.39 56.93 276.39 57.76 257.6 57.62 257.6" fill="#b0c2c6" stroke="#eae3df" stroke-miterlimit="10" stroke-width=".75"/>
  <rect x="57.63" y="257.49" width="0" height=".1" fill="#b0c2c6" stroke="#eae3df" stroke-miterlimit="10" stroke-width=".75"/>
  <polygon points="57.76 257.6 57.77 257.49 57.63 257.49 57.62 257.6 57.76 257.6" fill="#b0c2c6" stroke="#eae3df" stroke-miterlimit="10" stroke-width=".75"/>
  <polygon points="81.91 276.51 82.72 294.26 109.21 294.26 106.82 276.51 81.91 276.51" fill="#b1c4b1" stroke="#eae3df" stroke-miterlimit="10" stroke-width=".75"/>
  <polygon points="81.91 276.39 81.91 276.51 106.82 276.51 106.81 276.39 81.91 276.39" fill="#b0c2c6" stroke="#eae3df" stroke-miterlimit="10" stroke-width=".75"/>
  <polygon points="106.97 276.51 109.37 294.26 135.88 294.26 131.89 276.51 106.97 276.51" fill="#bccebc" stroke="#eae3df" stroke-miterlimit="10" stroke-width=".75"/>
  <polygon points="106.95 276.39 106.97 276.51 131.89 276.51 131.86 276.39 106.95 276.39" fill="#c0c7c9" stroke="#eae3df" stroke-miterlimit="10" stroke-width=".75"/>
  <polygon points="106.82 276.51 109.21 294.26 109.37 294.26 106.97 276.51 106.82 276.51" fill="#c0c7c9" stroke="#eae3df" stroke-miterlimit="10" stroke-width=".75"/>
  <polygon points="106.81 276.39 106.82 276.51 106.97 276.51 106.95 276.39 106.81 276.39" fill="#c0c7c9" stroke="#eae3df" stroke-miterlimit="10" stroke-width=".75"/>
  <polygon points="131.96 276.51 135.96 294.26 138.04 294.26 138.04 276.51 131.96 276.51" fill="#b1c4b1" stroke="#eae3df" stroke-miterlimit="10" stroke-width=".75"/>
  <polygon points="131.96 276.51 138.04 276.51 138.04 276.39 131.94 276.39 131.96 276.51" fill="#b0c2c6" stroke="#eae3df" stroke-miterlimit="10" stroke-width=".75"/>
  <polygon points="131.89 276.51 135.88 294.26 135.96 294.26 131.96 276.51 131.89 276.51" fill="#b0c2c6" stroke="#eae3df" stroke-miterlimit="10" stroke-width=".75"/>
  <polygon points="131.86 276.39 131.89 276.51 131.96 276.51 131.94 276.39 131.86 276.39" fill="#b0c2c6" stroke="#eae3df" stroke-miterlimit="10" stroke-width=".75"/>
  <polygon points="56.77 276.51 31.78 276.51 31.8 276.39 29.39 294.26 55.97 294.26 56.77 276.51" fill="#b1c4b1" stroke="#eae3df" stroke-miterlimit="10" stroke-width=".75"/>
  <polygon points="31.8 276.39 31.78 276.51 56.77 276.51 56.78 276.39 31.8 276.39" fill="#b0c2c6" stroke="#eae3df" stroke-miterlimit="10" stroke-width=".75"/>
  <polygon points="56.92 276.51 56.13 294.26 82.63 294.26 81.83 276.51 56.92 276.51" fill="#bccebc" stroke="#eae3df" stroke-miterlimit="10" stroke-width=".75"/>
  <polygon points="56.93 276.39 56.92 276.51 81.83 276.51 81.82 276.39 56.93 276.39" fill="#c0c7c9" stroke="#eae3df" stroke-miterlimit="10" stroke-width=".75"/>
  <polygon points="81.83 276.51 82.63 294.26 82.72 294.26 81.91 276.51 81.83 276.51" fill="#c0c7c9" stroke="#eae3df" stroke-miterlimit="10" stroke-width=".75"/>
  <polygon points="81.82 276.39 81.83 276.51 81.91 276.51 81.91 276.39 81.82 276.39" fill="#c0c7c9" stroke="#eae3df" stroke-miterlimit="10" stroke-width=".75"/>
  <polygon points="56.77 276.51 55.97 294.26 56.13 294.26 56.92 276.51 56.77 276.51" fill="#c0c7c9" stroke="#eae3df" stroke-miterlimit="10" stroke-width=".75"/>
  <polygon points="56.93 276.39 56.78 276.39 56.77 276.51 56.92 276.51 56.93 276.39" fill="#c0c7c9" stroke="#eae3df" stroke-miterlimit="10" stroke-width=".75"/>
  <polygon points="14.69 241 36.55 241 36.54 241.1 38.49 226.6 17.93 226.6 14.69 241" fill="#b1c4b1" stroke="#eae3df" stroke-miterlimit="10" stroke-width=".75"/>
  <polygon points="17.96 226.48 17.93 226.6 38.49 226.6 38.51 226.48 17.96 226.48" fill="#b0c2c6" stroke="#eae3df" stroke-miterlimit="10" stroke-width=".75"/>
  <polygon points="17.86 226.6 0 226.6 0 241 14.62 241 17.86 226.6" fill="#bccebc" stroke="#eae3df" stroke-miterlimit="10" stroke-width=".75"/>
  <polygon points="17.88 226.48 0 226.48 0 226.6 17.86 226.6 17.88 226.48" fill="#c0c7c9" stroke="#eae3df" stroke-miterlimit="10" stroke-width=".75"/>
  <polygon points="17.86 226.6 14.62 241 14.69 241 17.93 226.6 17.93 226.6 17.86 226.6" fill="#c0c7c9" stroke="#eae3df" stroke-miterlimit="10" stroke-width=".75"/>
  <rect x="17.88" y="226.54" width=".12" height="0" transform="translate(-207.02 194.35) rotate(-77.33)" fill="#c0c7c9" stroke="#eae3df" stroke-miterlimit="10" stroke-width=".75"/>
  <polygon points="17.86 226.6 17.93 226.6 17.96 226.48 17.88 226.48 17.86 226.6" fill="#c0c7c9" stroke="#eae3df" stroke-miterlimit="10" stroke-width=".75"/>
  <polygon points="10.99 257.49 34.33 257.49 36.54 241.1 14.67 241.1 10.99 257.49" fill="#bccebc" stroke="#eae3df" stroke-miterlimit="10" stroke-width=".75"/>
  <polygon points="14.69 241 14.67 241.1 36.54 241.1 36.55 241 14.69 241" fill="#c0c7c9" stroke="#eae3df" stroke-miterlimit="10" stroke-width=".75"/>
  <polygon points="10.91 257.49 14.6 241.1 0 241.1 0 257.49 10.91 257.49 10.91 257.49" fill="#b1c4b1" stroke="#eae3df" stroke-miterlimit="10" stroke-width=".75"/>
  <polygon points="14.62 241 0 241 0 241.1 14.6 241.1 14.62 241" fill="#b0c2c6" stroke="#eae3df" stroke-miterlimit="10" stroke-width=".75"/>
  <polygon points="10.91 257.49 10.99 257.49 14.67 241.1 14.6 241.1 10.91 257.49" fill="#b0c2c6" stroke="#eae3df" stroke-miterlimit="10" stroke-width=".75"/>
  <polygon points="14.6 241.1 14.67 241.1 14.69 241 14.62 241 14.6 241.1" fill="#b0c2c6" stroke="#eae3df" stroke-miterlimit="10" stroke-width=".75"/>
  <polygon points="10.96 257.6 6.74 276.39 31.78 276.39 31.77 276.51 34.33 257.49 34.33 257.49 34.32 257.6 10.96 257.6" fill="#b1c4b1" stroke="#eae3df" stroke-miterlimit="10" stroke-width=".75"/>
  <polygon points="10.96 257.6 34.32 257.6 34.33 257.49 10.99 257.49 10.96 257.6" fill="#b0c2c6" stroke="#eae3df" stroke-miterlimit="10" stroke-width=".75"/>
  <polygon points="0 257.6 0 276.39 6.65 276.39 10.88 257.6 0 257.6" fill="#bccebc" stroke="#eae3df" stroke-miterlimit="10" stroke-width=".75"/>
  <polygon points="10.91 257.49 0 257.49 0 257.6 10.88 257.6 10.91 257.49" fill="#c0c7c9" stroke="#eae3df" stroke-miterlimit="10" stroke-width=".75"/>
  <polygon points="10.88 257.6 6.65 276.39 6.74 276.39 10.96 257.6 10.88 257.6 10.88 257.6" fill="#c0c7c9" stroke="#eae3df" stroke-miterlimit="10" stroke-width=".75"/>
  <rect x="10.89" y="257.49" width="0" height=".11" fill="#c0c7c9" stroke="#eae3df" stroke-miterlimit="10" stroke-width=".75"/>
  <polygon points="10.88 257.6 10.96 257.6 10.99 257.49 10.91 257.49 10.88 257.6" fill="#c0c7c9" stroke="#eae3df" stroke-miterlimit="10" stroke-width=".75"/>
  <polygon points="6.71 276.51 2.73 294.26 29.38 294.26 31.77 276.51 6.71 276.51" fill="#bccebc" stroke="#eae3df" stroke-miterlimit="10" stroke-width=".75"/>
  <polygon points="6.74 276.39 6.71 276.51 31.77 276.51 31.78 276.39 6.74 276.39" fill="#c0c7c9" stroke="#eae3df" stroke-miterlimit="10" stroke-width=".75"/>
  <polygon points="0 276.51 0 294.26 2.63 294.26 6.63 276.51 0 276.51" fill="#b1c4b1" stroke="#eae3df" stroke-miterlimit="10" stroke-width=".75"/>
  <polygon points="0 276.51 6.63 276.51 6.65 276.39 0 276.39 0 276.51" fill="#b0c2c6" stroke="#eae3df" stroke-miterlimit="10" stroke-width=".75"/>
  <polygon points="2.63 294.26 2.73 294.26 6.71 276.51 6.63 276.51 2.63 294.26" fill="#b0c2c6" stroke="#eae3df" stroke-miterlimit="10" stroke-width=".75"/>
  <polygon points="6.65 276.39 6.63 276.51 6.71 276.51 6.74 276.39 6.65 276.39" fill="#b0c2c6" stroke="#eae3df" stroke-miterlimit="10" stroke-width=".75"/>
</svg>