<?xml version="1.0" encoding="UTF-8"?>
<svg id="skin_olive" xmlns="http://www.w3.org/2000/svg" viewBox="0 0 23.83 54.82">
  <path d="M5.09,54.44h4.72c.06-2.08.12-4.16.18-6.24l-4.49-.38c-.14,2.21-.27,4.41-.41,6.62Z" fill="#c68642" stroke="#a36b38" stroke-linecap="round" stroke-linejoin="round" stroke-width=".75"/>
  <path d="M19.63,54.44h-4.72c-.06-2.08-.12-4.16-.18-6.24l4.49-.38c.14,2.21.27,4.41.41,6.62Z" fill="#c68642" stroke="#a36b38" stroke-linecap="round" stroke-linejoin="round" stroke-width=".75"/>
  <path d="M20.08,10.54c.08-.17.63-1.38,1.38-1.38.84,0,1.52,1.52,1.45,2.75-.05.83-.47,1.94-1.41,2.37-.52.24-1,.16-1.95,0-1.43-.24-2.19-.36-2.6-.99-.59-.92-.29-2.71.92-3.21.69-.28,1.54-.09,2.22.46Z" fill="#c68642" stroke="#a36b38" stroke-linecap="round" stroke-linejoin="round" stroke-width=".75"/>
  <path d="M3.43,10.9c-.08-.17-.63-1.38-1.38-1.38-.84,0-1.52,1.52-1.45,2.75.05.83.47,1.94,1.41,2.37.52.24,1,.16,1.95,0,1.43-.24,2.19-.36,2.6-.99.59-.92.29-2.71-.92-3.21-.69-.28-1.54-.09-2.22.46Z" fill="#c68642" stroke="#a36b38" stroke-linecap="round" stroke-linejoin="round" stroke-width=".75"/>
  <path id="Neck" d="M8.97,18.75c0,1.99.24,2.56-1.5,3.28.27.26,2.54,3.61,3.72,3.75,1.9.22,4.59-3.64,4.74-3.8-1.73-.77-1.37-1.34-1.37-3.26-1.86.01-3.72.02-5.58.03Z" fill="#c68642" stroke="#a36b38" stroke-linecap="round" stroke-linejoin="round" stroke-width=".75"/>
  <path id="Face" d="M6.09,1.56c-1.08.58-1.8,1.68-2.02,2.89-.43,2.38-.52,4.38-.5,5.85.02,2.29.04,3.62.77,5.2.34.73,1.4,2.95,3.97,4.13,3.08,1.42,5.97.26,6.57,0,.4-.17,2.62-1.16,3.97-3.59.39-.7.87-1.8,1.07-5.58.07-1.39.11-3.22,0-5.39-.09-1.62-1.06-3.08-2.54-3.76-1.81-.84-3.88-.93-5.67-.93s-3.97.31-5.62,1.19Z" fill="#c68642" stroke="#a36b38" stroke-linecap="round" stroke-linejoin="round" stroke-width=".75"/>
  <path d="M9.22,15.69c.27.21,1.2.86,2.56.84,1.26-.02,2.13-.63,2.41-.84" fill="none" stroke="#6c412e" stroke-linecap="round" stroke-linejoin="round" stroke-width=".75"/>
  <path d="M2.32,28.12c-.2.31-.2.63-.2.77-.03,1.81-.37,3.89-1.06,8.04-.11.68-.32,1.74-.69,3.04,0,0,.21,1.56,1.43,2.46.16.11.44.32.78.25.23-.04.38-.2.43-.25.21-.23.21-.52.21-.66,0-.31-.11-.52-.18-.69-.35-.82-.19-1.57-.2-1.57-.01,0-.17,1.02.34,1.38.06.04.29.21.58.15.21-.04.34-.18.4-.24.19-.2.26-.45.29-.7.06-.53.01-1.82-.18-3.52.72-1.6,3.34-7.68,1.61-9-.81-.62-2.93-.46-3.56.53Z" fill="#c68642" stroke="#a36b38" stroke-linecap="round" stroke-linejoin="round" stroke-width=".75"/>
  <path d="M20.54,27.65c.55.32.83.77.95.99.42,2.75.88,5.55,1.4,8.39.19,1.03.38,2.05.57,3.06,0,0-.26,1.56-1.52,2.4-.16.11-.45.3-.79.22-.23-.05-.37-.21-.42-.26-.2-.24-.19-.52-.19-.67.01-.31.13-.51.21-.68.38-.81.25-1.56.26-1.56.01,0,.14,1.02-.39,1.37-.06.04-.3.2-.59.13-.21-.05-.34-.19-.39-.25-.18-.2-.24-.46-.26-.71-.04-.53.06-1.82.31-3.51-1.15-2.18-1.82-4.16-2.03-5.74-.15-1.09-.19-2.75.76-3.31.59-.35,1.49-.22,2.12.14Z" fill="#c68642" stroke="#a36b38" stroke-linecap="round" stroke-linejoin="round" stroke-width=".75"/>
  <path d="M12.32,14.22c-.1.06-.31.16-.61.17-.31,0-.53-.11-.63-.17" fill="#c68642" stroke="#a36b38" stroke-linecap="round" stroke-linejoin="round" stroke-width=".75"/>
</svg>