<?xml version="1.0" encoding="UTF-8"?>
<svg id="green_lace_shirt" xmlns="http://www.w3.org/2000/svg" viewBox="0 0 39.6 76.32">
  <path id="Shirt" d="M13.4,41.65c.14.01,0,3.46-.44,10.34,1.54.49,3.77,1.02,6.5,1.06,2.88.04,5.23-.47,6.82-.94-.14-3.48-.28-6.95-.42-10.43.35,3.06.7,6.13,1.05,9.19,1.24.13,2.47.25,3.71.38.3-.15.67-.41.84-.84.36-.88-.33-1.92-.54-2.25-.66-1.07-1.33-2.96-1.38-6.54-.21-.98-.49-1.74-.72-2.27-.25-.57-.44-.88-.74-1.15-.4-.36-.82-.49-1.1-.57-.9-.28-1.91-.59-3.06-.94-.68.43-2.33,1.34-4.62,1.38-2.34.04-4.05-.85-4.74-1.26-1.05.37-1.88.65-2.55.87-.3.09-.81.26-1.34.68-.12.1-.24.2-.35.33-.94,1.03-1.1,2.97-1.1,2.97-.29,3.67-.43,5.5-1,6.7-.45.95-1.09,1.81-.73,2.6.21.46.67.71,1.03.84,1.24-.33,2.47-.66,3.71-.99.64-6.11,1.02-9.16,1.15-9.15Z" fill="#7a872e" stroke="#617525" stroke-linecap="round" stroke-linejoin="round" stroke-width=".75"/>
  <path d="M13.55,43.46c.14.11.52.37,1.07.4.42.02.74-.1.9-.18.15.1.5.3,1,.33.48.03.85-.12,1.01-.2.14.1.46.3.92.33.56.04.96-.19,1.1-.28.12.08.51.32,1.04.28.48-.03.8-.27.92-.36.13.08.51.3,1.03.26.56-.03.92-.33,1.04-.42.15.1.53.32,1.07.31.66-.01,1.1-.37,1.22-.48" fill="none" stroke="#617525" stroke-miterlimit="10" stroke-width=".5"/>
  <path d="M13.55,45.27c.14.11.52.37,1.07.4.42.02.74-.1.9-.18.15.1.5.3,1,.33.48.03.85-.12,1.01-.2.14.1.46.3.92.33.56.04.96-.19,1.1-.28.12.08.51.32,1.04.28.48-.03.8-.27.92-.36.13.08.51.3,1.03.26.56-.03.92-.33,1.04-.42.15.1.53.32,1.07.31.66-.01,1.1-.37,1.22-.48" fill="none" stroke="#617525" stroke-miterlimit="10" stroke-width=".5"/>
  <path d="M13.55,47.07c.14.11.52.37,1.07.4.42.02.74-.1.9-.18.15.1.5.3,1,.33.48.03.85-.12,1.01-.2.14.1.46.3.92.33.56.04.96-.19,1.1-.28.12.08.51.32,1.04.28.48-.03.8-.27.92-.36.13.08.51.3,1.03.26.56-.03.92-.33,1.04-.42.15.1.53.32,1.07.31.66-.01,1.1-.37,1.22-.48" fill="none" stroke="#617525" stroke-miterlimit="10" stroke-width=".5"/>
  <path d="M13.55,48.88c.14.11.52.37,1.07.4.42.02.74-.1.9-.18.15.1.5.3,1,.33.48.03.85-.12,1.01-.2.14.1.46.3.92.33.56.04.96-.19,1.1-.28.12.08.51.32,1.04.28.48-.03.8-.27.92-.36.13.08.51.3,1.03.26.56-.03.92-.33,1.04-.42.15.1.53.32,1.07.31.66-.01,1.1-.37,1.22-.48" fill="none" stroke="#617525" stroke-miterlimit="10" stroke-width=".5"/>
  <path d="M13.55,50.69c.14.11.52.37,1.07.4.42.02.74-.1.9-.18.15.1.5.3,1,.33.48.03.85-.12,1.01-.2.14.1.46.3.92.33.56.04.96-.19,1.1-.28.12.08.51.32,1.04.28.48-.03.8-.27.92-.36.13.08.51.3,1.03.26.56-.03.92-.33,1.04-.42.15.1.53.32,1.07.31.66-.01,1.1-.37,1.22-.48" fill="none" stroke="#617525" stroke-miterlimit="10" stroke-width=".5"/>
</svg>