<?xml version="1.0" encoding="UTF-8"?>
<svg id="light_jean_shorts" xmlns="http://www.w3.org/2000/svg" viewBox="0 0 39.6 76.32">
  <path d="M11.22,63.6c-.06.12-.12.24-.18.36.14-.01.28-.02.42-.03l.13.07c.01.1.03.2.04.31.1-.1.19-.19.29-.29l.22.19.04.23.34-.3.36.42.11-.26.13.36.43-.2s-.04.3.01.3h.47c-.11-.2.03-.23.03-.23l.21.43.16-.42.16.27.11-.24.36.32.36-.23.07.37.36-.37.42.27-.1-.4.59.39.23-.27.1.2.36-.06-.03-.24.36.3.13-.34.23.3.24-.33.37.32.23-.1c0-.13-.02-.26-.03-.39" fill="none" stroke="#748faa" stroke-miterlimit="10" stroke-width=".25"/>
  <path d="M27.95,63.6c.06.12.12.24.18.36-.14-.01-.28-.02-.42-.03l-.13.07v.27c-.11-.08-.22-.17-.33-.25l-.21.19-.04.23-.34-.3-.36.42-.11-.26-.13.36-.43-.2s.04.3-.01.3h-.47c.11-.2-.03-.23-.03-.23l-.21.43-.16-.42-.16.27-.11-.24-.36.32-.36-.23-.07.37-.36-.37-.42.27.1-.4-.59.39-.23-.27-.1.2-.36-.06.03-.24-.36.3-.13-.34-.23.3-.24-.33-.37.32-.23-.1c0-.13.02-.26.03-.39" fill="none" stroke="#748faa" stroke-miterlimit="10" stroke-width=".25"/>
  <path id="Pants" d="M13.04,51.77h12.92c.64,3.95,1.28,7.9,1.92,11.84-.87.31-2.02.63-3.38.78-1.64.18-3.03.07-4.06-.1-.1-2.9-.19-5.8-.29-8.71h-1.08c-.11,2.9-.21,5.79-.32,8.69-1,.2-2.43.36-4.13.17-1.36-.15-2.48-.48-3.32-.8.58-3.96,1.16-7.92,1.75-11.88Z" fill="#8baad0" stroke="#748faa" stroke-miterlimit="10" stroke-width=".75"/>
  <path d="M16.3,51.92c-.04.23-.21.92-.84,1.45-.97.81-2.19.51-2.31.48" fill="none" stroke="#748faa" stroke-miterlimit="10" stroke-width=".5"/>
  <path d="M22.83,51.92c.04.23.21.92.84,1.45.97.81,2.19.51,2.31.48" fill="none" stroke="#748faa" stroke-miterlimit="10" stroke-width=".5"/>
  <path d="M19.57,51.78c.02.76.03,1.54.03,2.32,0,.39,0,.79,0,1.18" fill="#c1dae9" stroke="#748faa" stroke-miterlimit="10" stroke-width=".5"/>
  <path d="M20.35,52.01c.04.5.04.91.03,1.23-.02.5-.06.69-.2.83-.19.19-.48.21-.63.2" fill="none" stroke="#748faa" stroke-miterlimit="10" stroke-width=".5"/>
</svg>