<?xml version="1.0" encoding="UTF-8"?>
<svg id="light_baggy_jeans" xmlns="http://www.w3.org/2000/svg" viewBox="0 0 39.6 76.32">
  <path id="Pants" d="M13.04,51.77h12.92c.21,3.48.61,6.32.97,8.42.35,1.99.74,3.73.93,4.57.41,1.8.81,3.36,1.15,4.59-.76.37-1.72.76-2.87,1.03-1.93.46-3.61.42-4.76.29-.26-2.6-.36-4.7-.4-6.13-.05-1.61-.03-2.37-.12-3.77-.15-2.23-.47-4.03-.71-5.17h-1.08c-.2,1.29-.43,3.11-.58,5.33-.09,1.32-.11,2.32-.14,3.44-.04,1.52-.06,3.59,0,6.08-.96.13-2.34.21-3.96-.06-1.47-.24-2.66-.7-3.5-1.09.2-1.04.48-2.54.8-4.36.07-.37.51-2.92.73-4.31.3-1.96.62-4.9.62-8.85Z" fill="#c1dae9" stroke="#a8bec6" stroke-miterlimit="10" stroke-width=".75"/>
  <path d="M16.3,51.92c-.04.23-.21.92-.84,1.45-.97.81-2.19.51-2.31.48" fill="#c1dae9" stroke="#acc2cc" stroke-miterlimit="10" stroke-width=".5"/>
  <path d="M22.83,51.92c.04.23.21.92.84,1.45.97.81,2.19.51,2.31.48" fill="#c1dae9" stroke="#acc2cc" stroke-miterlimit="10" stroke-width=".5"/>
  <path d="M19.57,51.78c.02.76.03,1.54.03,2.32,0,.39,0,.79,0,1.18" fill="#c1dae9" stroke="#acc2cc" stroke-miterlimit="10" stroke-width=".5"/>
  <path d="M20.35,52.01c.04.5.04.91.03,1.23-.02.5-.06.69-.2.83-.19.19-.48.21-.63.2" fill="none" stroke="#acc2cc" stroke-miterlimit="10" stroke-width=".5"/>
  <polygon points="11.53 67.96 13.65 69.03 13.63 69.1 11.29 68.68 11.53 67.96 11.53 67.96" fill="#a8bec6"/>
  <polygon points="11.56 66.48 13.22 67.43 13.2 67.49 11.31 67.18 11.56 66.48 11.56 66.48" fill="#a8bec6"/>
  <polygon points="18.18 69.08 15.8 68.9 15.8 68.83 18.13 68.33 18.18 69.08 18.18 69.08" fill="#a8bec6"/>
  <polygon points="28.57 68.45 25.9 68.94 25.88 68.88 28.34 67.73 28.57 68.45 28.57 68.45" fill="#a8bec6"/>
  <polygon points="28.22 67.03 26.33 67.34 26.31 67.27 27.97 66.32 28.22 67.03 28.22 67.03" fill="#a8bec6"/>
  <polygon points="21.41 68.5 23.74 69 23.73 69.06 21.36 69.24 21.41 68.5 21.41 68.5" fill="#a8bec6"/>
</svg>