<?xml version="1.0" encoding="UTF-8"?>
<svg id="dress" xmlns="http://www.w3.org/2000/svg" viewBox="0 0 39.6 76.32">
  <path id="Shirt" d="M13.46,41.73s0,3.39-.02,10.17c1.3.52,3.41,1.19,6.09,1.23,2.91.05,5.2-.66,6.54-1.19-.11-1.59-.18-3.26-.21-5.01-.04-2.77.05-5.17.07-5.17,0,0,.01.4,0,2.19,1.24-.25,2.48-.5,3.73-.75-.05-.62-.22-2.37-.76-3.77-.15-.4-.35-.8-.74-1.15-.4-.36-.82-.49-1.1-.57-1.37-.41-2.83-.7-3.48-.82-.07.12-1.43,2.36-4.07,2.41-1.78.03-3.44-.94-4.3-2.52-.91.17-1.98.46-3.13.97-.49.22-.94.45-1.34.68,0,0,0,0,0,0,0,0-.18.15-.35.33-.12.13-.6,2.08-.86,4.84,1.3.23,2.6.46,3.9.69.01-1.71.02-2.56.03-2.56Z" fill="#cfcfe5" stroke="#aba7c4" stroke-miterlimit="10" stroke-width=".75"/>
  <path d="M13.44,49.59c2.18.93,4.36,1.86,6.53,2.79,2-1.01,4-2.02,6-3.02.54,2.32.93,4.19,1.18,5.47.23,1.14.39,2,.69,3.28.37,1.57.74,2.84.99,3.67-1.55.78-4.73,2.11-8.94,2.06-4.27-.04-7.45-1.48-8.98-2.29.24-.71.57-1.79.88-3.13.32-1.43.44-2.4.61-3.5.19-1.27.51-3.08,1.03-5.32Z" fill="#cfcfe5" stroke="#aba7c4" stroke-miterlimit="10" stroke-width=".75"/>
  <polygon points="13.87 57.19 12.92 62.6 12.37 62.48 13.87 57.19 13.87 57.19" fill="#aba7c4"/>
  <polygon points="15.41 57.55 14.83 63.02 14.28 62.93 15.41 57.55 15.41 57.55" fill="#aba7c4"/>
  <polygon points="16.85 57.93 16.66 63.42 16.09 63.37 16.85 57.93 16.85 57.93" fill="#aba7c4"/>
  <polygon points="18.32 58.3 18.35 63.79 17.79 63.77 18.32 58.3 18.32 58.3" fill="#aba7c4"/>
  <polygon points="25.83 57.07 27.32 62.36 26.77 62.49 25.83 57.07 25.83 57.07" fill="#aba7c4"/>
  <polygon points="24.29 57.44 25.42 62.82 24.86 62.9 24.29 57.44 24.29 57.44" fill="#aba7c4"/>
  <polygon points="22.84 57.82 23.6 63.26 23.04 63.31 22.84 57.82 22.84 57.82" fill="#aba7c4"/>
  <polygon points="21.26 58.18 21.86 63.65 21.3 63.68 21.26 58.18 21.26 58.18" fill="#aba7c4"/>
  <polygon points="19.8 58.44 20.08 63.93 19.51 63.93 19.8 58.44 19.8 58.44" fill="#aba7c4"/>
</svg>