<?xml version="1.0" encoding="UTF-8"?>
<svg id="white_tunic_shirt" xmlns="http://www.w3.org/2000/svg" viewBox="0 0 39.6 76.32">
  <rect x="8.53" y="45.34" width="4.51" height="2.25" transform="translate(7.68 -1.13) rotate(9.34)" fill="#f8faff" stroke="#aab7ce" stroke-linecap="round" stroke-linejoin="round" stroke-width=".75"/>
  <rect x="25.95" y="45.51" width="4.51" height="2.25" transform="translate(63.61 88.08) rotate(170.66)" fill="#f8faff" stroke="#aab7ce" stroke-linecap="round" stroke-linejoin="round" stroke-width=".75"/>
  <path id="Shirt" d="M13.4,41.65s-.1,3.45-.44,10.34c1.54.49,3.77,1.02,6.5,1.06,2.88.04,5.23-.47,6.82-.94-.32-6.95-.46-10.43-.42-10.43.03,0,.14,1.43.32,4.3,1.3-.24,2.61-.47,3.91-.71-.42-2.83-.9-4.96-1.26-5.92-.14-.37-.34-.79-.74-1.15-.41-.37-.85-.5-1.1-.57-1-.29-2.38-.69-4.08-1.15-.13.33-.41.93-1.01,1.47-.73.65-1.51.85-1.86.92l-.67,2.33c-.25-.77-.49-1.54-.74-2.31-.35-.06-.91-.21-1.48-.61-.9-.61-1.29-1.44-1.43-1.8-1.69.53-2.99.96-3.72,1.18-.26.08-.79.24-1.34.68-.12.1-.24.2-.35.33-.78.85-1.05,2.6-1.1,2.97-.15,1.09-.29,2.3-.37,3.63,1.4.24,2.81.49,4.21.73.19-2.9.3-4.36.33-4.36Z" fill="#f8faff" stroke="#aab7ce" stroke-linecap="round" stroke-linejoin="round" stroke-width=".75"/>
  <line x1="9.04" y1="45.3" x2="12.8" y2="45.97" fill="none" stroke="#aab7ce" stroke-linecap="round" stroke-linejoin="round" stroke-width=".75"/>
  <line x1="29.95" y1="45.32" x2="26.19" y2="45.98" fill="none" stroke="#aab7ce" stroke-linecap="round" stroke-linejoin="round" stroke-width=".75"/>
  <path d="M9.03,46l1.94.53s.03.08-.01.08c0,0-2.01-.1-2.01-.1-.37-.03-.28-.6.08-.51h0Z" fill="#aab7ce"/>
  <path d="M30.21,46.41l-2.01.1s-.06-.07-.01-.08c0,0,1.94-.53,1.94-.53.36-.09.46.48.08.51h0Z" fill="#aab7ce"/>
  <path d="M12.79,47.37l-1.49-.31s-.04-.07,0-.08c0,0,1.52-.13,1.52-.13.39-.02.35.58-.03.51h0Z" fill="#aab7ce"/>
  <path d="M26.33,46.76l1.52.13s.05.07,0,.08c0,0-1.49.31-1.49.31-.38.07-.42-.54-.03-.51h0Z" fill="#aab7ce"/>
</svg>