<?xml version="1.0" encoding="UTF-8"?>
<svg id="white_lace_shoes" xmlns="http://www.w3.org/2000/svg" viewBox="0 0 39.6 76.32">
  <ellipse cx="19.8" cy="73.65" rx="13.2" ry="2.67" fill="#dfd5c9"/>
  <g id="Shoes">
    <path d="M17.57,69.49v3.13c-1.48,1.02-2.81,1.38-3.62,1.53-.59.11-3.53.65-4.17-.61-.32-.63.03-1.5.11-1.69.22-.55.56-.87,1.11-1.37.5-.46.97-.78,1.33-.99h5.25Z" fill="#f2f1f0" stroke="#bcb9b5" stroke-linecap="round" stroke-linejoin="round" stroke-width=".75"/>
    <path d="M22.31,69.49v3.13c1.48,1.02,2.81,1.38,3.62,1.53.59.11,3.53.65,4.17-.61.32-.63-.03-1.5-.11-1.69-.22-.55-.56-.87-1.11-1.37-.5-.46-.97-.78-1.33-.99h-5.25Z" fill="#f2f1f0" stroke="#bcb9b5" stroke-linecap="round" stroke-linejoin="round" stroke-width=".75"/>
  </g>
  <path d="M11.11,70.51l.9.87-1.24-.2c-.67-.16-.19-1.11.34-.67h0Z" fill="#bcb9b5"/>
  <path d="M11.85,69.76l.9.87-1.24-.2c-.67-.16-.19-1.11.34-.67h0Z" fill="#bcb9b5"/>
  <path d="M29.13,71.18l-1.24.2.9-.87c.52-.45,1,.53.34.67h0Z" fill="#bcb9b5"/>
  <path d="M28.34,70.43l-1.24.2.9-.87c.52-.45,1,.53.34.67h0Z" fill="#bcb9b5"/>
</svg>