<?xml version="1.0" encoding="UTF-8"?>
<svg id="eyes_hazel" xmlns="http://www.w3.org/2000/svg" viewBox="0 0 11.05 4.35">
  <path d="M3.19,2.23c0,1.17-.71,2.13-1.59,2.13s-1.59-.95-1.59-2.13S.71.1,1.59.1c.64,0,1.11.61,1.19.72.44.57.4,1.21.4,1.41Z" fill="#fff3e3"/>
  <path d="M3.19,2.02c0,1.05-.52,1.89-1.16,1.89s-1.16-.85-1.16-1.89S1.39.12,2.03.12c.46,0,.8.54.87.64.32.51.29,1.08.29,1.25Z" fill="#c18e68"/>
  <path d="M.24.96C.52.46,1.05.13,1.62.13c.96-.01,1.49.88,1.47.91-.03.03-.6-.68-1.42-.7-.6-.02-1.1.34-1.42.63Z" fill="none" stroke="#452a06" stroke-linecap="square" stroke-linejoin="round" stroke-width=".25"/>
  <path d="M11.03,2.23c0,1.17-.71,2.13-1.59,2.13s-1.59-.95-1.59-2.13S8.56.1,9.44.1c.64,0,1.11.61,1.19.72.44.57.4,1.21.4,1.41Z" fill="#fff3e3"/>
  <path d="M10.27,2.02c0,1.05-.54,1.89-1.22,1.89s-1.22-.85-1.22-1.89S8.39.12,9.06.12c.49,0,.85.54.91.64.34.51.31,1.08.31,1.25Z" fill="#c18e68"/>
  <path d="M8.08.96c.28-.5.81-.82,1.38-.83.96-.01,1.49.88,1.47.91-.03.03-.6-.68-1.42-.7-.6-.02-1.1.34-1.42.63Z" fill="none" stroke="#452a06" stroke-linecap="square" stroke-linejoin="round" stroke-width=".25"/>
  <ellipse cx="2.2" cy="1.5" rx=".32" ry=".47" fill="#eac7b0"/>
  <ellipse cx="8.95" cy="1.5" rx=".32" ry=".47" fill="#eac7b0"/>
</svg>