<?xml version="1.0" encoding="UTF-8"?>
<svg id="eyes_teal" xmlns="http://www.w3.org/2000/svg" viewBox="0 0 39.6 76.32">
  <path d="M17.46,26.75c0,1.17-.71,2.13-1.59,2.13s-1.59-.95-1.59-2.13.71-2.13,1.59-2.13c.64,0,1.11.61,1.19.72.44.57.4,1.21.4,1.41Z" fill="#fff3e3"/>
  <path d="M17.46,26.54c0,1.05-.52,1.89-1.16,1.89s-1.16-.85-1.16-1.89.52-1.89,1.16-1.89c.46,0,.8.54.87.64.32.51.29,1.08.29,1.25Z" fill="#b2d7db"/>
  <path d="M14.51,25.48c.28-.5.81-.82,1.38-.83.96-.01,1.49.88,1.47.91-.03.03-.6-.68-1.42-.7-.6-.02-1.1.34-1.42.63Z" fill="none" stroke="#452a06" stroke-linecap="square" stroke-linejoin="round" stroke-width=".25"/>
  <path d="M25.3,26.75c0,1.17-.71,2.13-1.59,2.13s-1.59-.95-1.59-2.13.71-2.13,1.59-2.13c.64,0,1.11.61,1.19.72.44.57.4,1.21.4,1.41Z" fill="#fff3e3"/>
  <path d="M24.55,26.54c0,1.05-.54,1.89-1.22,1.89s-1.22-.85-1.22-1.89.54-1.89,1.22-1.89c.49,0,.85.54.91.64.34.51.31,1.08.31,1.25Z" fill="#b2d7db"/>
  <path d="M22.36,25.48c.28-.5.81-.82,1.38-.83.96-.01,1.49.88,1.47.91-.03.03-.6-.68-1.42-.7-.6-.02-1.1.34-1.42.63Z" fill="none" stroke="#452a06" stroke-linecap="square" stroke-linejoin="round" stroke-width=".25"/>
  <ellipse cx="16.48" cy="26.02" rx=".32" ry=".47" fill="#efefef"/>
  <ellipse cx="23.22" cy="26.02" rx=".32" ry=".47" fill="#efefef"/>
</svg>