<svg width="975" height="815" viewBox="0 0 975 815" fill="none" xmlns="http://www.w3.org/2000/svg">
<g id="couch">
<g id="Group 1">
<path id="Vector" d="M964.111 514.164L865.581 480.661L695.843 422.84C678.287 416.89 660.746 410.88 643.189 404.931L635.262 402.247C631.812 401.067 627.657 402.309 624.13 403.152L534.11 423.024C479.202 435.275 424.217 447.419 369.31 459.608C308.974 473.009 248.761 486.334 188.44 499.72L50.4424 530.355C37.5933 533.223 24.7441 535.998 11.9563 538.865C11.6037 538.927 11.2357 539.049 10.9444 539.111C10.653 539.172 10.469 539.233 10.2237 539.233C7.09499 540.02 4.3886 541.98 2.66448 544.707C2.50093 544.922 2.34249 545.177 2.18915 545.474C1.26454 547.016 0.665152 548.731 0.427836 550.514C0.19052 552.296 0.320293 554.108 0.809176 555.839C1.6985 559.166 3.72246 561.788 6.34442 563.383C6.53864 563.567 6.75331 563.746 6.98841 563.919C31.2147 580.863 55.4257 597.959 79.698 614.902C129.025 649.601 178.351 684.223 227.662 718.906C271.379 749.506 315.053 780.168 358.684 810.89C363.866 814.508 368.681 816.011 375.397 812.914C381.469 810.046 387.541 807.256 393.659 804.404L502.309 754.127L664.487 679.056C719.165 653.766 773.904 628.421 828.705 603.019C866.945 585.335 905.222 567.62 943.534 549.874C951.456 546.194 959.409 542.525 967.392 538.865C971.609 536.903 974.062 531.536 974.062 527.135C974.093 520.895 969.922 516.126 964.203 514.164" fill="#87A751"/>
<path id="Vector_2" d="M881.128 526.061L799.802 498.277C753.036 482.331 706.27 466.507 659.504 450.576C645.06 445.639 630.524 440.748 616.08 435.81C613.872 435.028 611.68 434.323 609.533 433.556C606.62 432.606 603.277 433.679 600.303 434.277C575.555 439.736 550.746 445.286 525.983 450.745C480.577 460.813 435.201 470.892 389.856 480.982L240.45 514.055C202.439 522.504 164.475 530.967 126.403 539.339C115.869 541.716 105.228 544.047 94.6324 546.423L93.8044 546.607L93.2064 546.73C90.6439 547.355 88.4267 548.956 87.0272 551.192C86.9045 551.437 86.7205 551.59 86.6132 551.836C85.458 553.73 84.937 555.943 85.1259 558.153C85.1872 558.92 85.2486 559.702 85.4786 560.407C86.2452 563.198 87.9165 565.268 90.0631 566.648C90.2471 566.77 90.4158 566.954 90.5998 567.062C110.594 581.091 130.65 595.137 150.644 609.243C191.4 637.855 232.094 666.42 272.91 695.032C305.468 717.949 338.05 740.842 370.659 763.709C374.134 766.141 377.605 768.584 381.07 771.038C385.363 774.058 389.289 775.316 394.931 772.694C399.93 770.424 404.928 768.125 409.927 765.794C439.857 751.871 469.772 738.056 499.702 724.195C544.322 703.557 589.002 682.857 633.621 662.249C678.834 641.294 724.051 620.37 769.273 599.476C800.814 584.848 832.461 570.144 864.124 555.577C870.666 552.49 877.229 549.434 883.812 546.408C887.277 544.798 889.347 540.443 889.347 536.825C889.347 531.642 885.897 527.609 881.128 526.061Z" fill="#96C34A"/>
</g>
<path id="Vector_3" d="M327.821 633.181L718.295 503.185L703.433 463.018L494.004 488.944L309.478 548.099L327.821 633.181Z" fill="#755B45"/>
<path id="Vector_4" d="M659.054 449.033C711.479 449.033 753.983 456.384 753.983 465.501C753.983 474.569 711.479 481.933 659.054 481.933C606.533 481.933 564.016 474.581 564.016 465.501C564.016 456.372 606.533 449.033 659.054 449.033Z" fill="#E85646"/>
<path id="Vector_5" d="M680.075 474.508C627.59 474.508 585.135 467.144 585.135 458.04C585.151 456.888 585.747 455.792 586.924 454.753C572.707 457.602 564.016 461.338 564.016 465.477C564.016 474.545 606.521 481.909 659.054 481.909C704.954 481.909 743.308 476.249 752.096 468.763C734.617 472.244 708.935 474.508 680.075 474.508Z" fill="#C63D22"/>
<path id="Vector_6" d="M743.771 520.469L605.437 491.89C605.437 491.89 680.854 452.928 687.427 452.088C693.988 451.321 751.573 443.47 751.573 443.47L743.771 520.469Z" fill="#930776"/>
<path id="Vector_7" d="M302.272 432.357C302.272 432.357 418.137 392.166 619.472 393.991C619.472 393.991 729.14 401.27 741.555 413.162V428.182L317.804 531.521L302.224 432.357" fill="#D118AA"/>
<path id="Vector_8" d="M619.52 394.028C418.124 392.19 302.321 432.418 302.321 432.418L304.962 449.422C346.955 438.175 449.869 415.889 601.189 417.227C601.189 417.227 694.852 423.484 718.843 433.793L741.653 428.255V413.186C729.189 401.331 619.569 394.028 619.569 394.028" fill="#D10994"/>
<g id="Group">
<path id="Vector_9" d="M348.793 285.491C348.793 285.491 394.986 277.507 408.448 311.941C408.448 311.941 360.04 374.76 357.581 376.123C355.22 377.584 305.108 449.154 305.108 449.154C305.108 449.154 258.454 458.515 247.255 420.964L258.782 369.27L335.538 299.124L348.793 285.491Z" fill="#DD76BE"/>
<path id="Vector_10" d="M391.638 386.274C392.57 389.77 392.801 393.415 392.316 397C391.832 400.585 390.642 404.038 388.815 407.16C386.989 410.283 384.562 413.012 381.674 415.192C378.787 417.371 375.496 418.956 371.993 419.857L280.558 438.784C273.485 440.673 265.952 439.678 259.612 436.018C253.272 432.357 248.644 426.33 246.744 419.26L232.102 334.641C231.165 331.148 230.93 327.503 231.409 323.918C231.889 320.333 233.074 316.878 234.896 313.754C236.718 310.629 239.141 307.897 242.025 305.714C244.909 303.53 248.196 301.94 251.698 301.035L346.018 286.063C353.089 284.174 360.621 285.167 366.961 288.825C373.3 292.483 377.929 298.507 379.832 305.575L391.638 386.274Z" fill="#DD76BE"/>
</g>
<path id="Vector_11" d="M421.338 395.635C422.26 399.136 422.481 402.785 421.99 406.372C421.498 409.96 420.303 413.415 418.474 416.539C416.644 419.664 414.215 422.396 411.327 424.58C408.439 426.764 405.148 428.356 401.644 429.265L310.16 448.156C303.089 450.036 295.562 449.038 289.225 445.381C282.888 441.725 278.257 435.707 276.346 428.645L261.704 344.014C260.788 340.519 260.57 336.878 261.062 333.298C261.554 329.719 262.746 326.272 264.57 323.153C266.394 320.035 268.815 317.306 271.694 315.123C274.573 312.941 277.854 311.346 281.349 310.431L375.669 295.46C390.397 291.565 405.514 300.329 409.434 314.947L421.338 395.635Z" fill="#F484CC"/>
<path id="Vector_12" d="M308.504 668.601C308.504 668.601 296.077 673.835 287.678 645.621C287.419 644.728 287.167 643.799 286.924 642.833C278.61 611.527 250.737 428.547 250.737 428.547C250.737 428.547 247.949 393.079 288.993 394.454C288.993 394.454 332.921 386.81 329.379 434.122L339.859 641.409V644.196C339.859 644.196 346.055 666.447 308.504 668.54" fill="#D10994"/>
<path id="Vector_13" d="M659.054 449.361C711.479 449.361 753.983 456.75 753.983 465.818C753.983 474.886 711.479 482.262 659.054 482.262C606.533 482.262 564.016 474.898 564.016 465.818C564.016 456.75 606.533 449.361 659.054 449.361Z" fill="#E85646"/>
<path id="Vector_14" d="M680.075 474.825C627.59 474.825 585.135 467.473 585.135 458.368C585.151 457.208 585.747 456.108 586.924 455.07C572.707 457.955 564.016 461.691 564.016 465.793C564.016 474.861 606.521 482.237 659.054 482.237C704.954 482.237 743.308 476.565 752.096 469.067C734.617 472.609 708.935 474.825 680.075 474.825Z" fill="#C63D22"/>
<path id="Vector_15" d="M669.766 447.158C668.39 455.727 666.881 462.58 665.323 467.449C666.881 462.58 668.341 455.776 669.766 447.158ZM662.341 474.155C661.489 475.263 660.637 475.993 659.833 475.993C660.685 475.993 661.476 475.239 662.341 474.155ZM670.009 446.014C676.058 407.49 680.124 335.737 680.124 253.431C680.124 222.356 679.503 192.815 678.468 165.951C678.225 165.951 677.986 165.96 677.75 165.976C672.46 166.276 667.027 166.45 661.452 166.499C660.36 195.463 659.824 224.446 659.845 253.431C659.858 335.7 663.972 407.502 670.009 446.014Z" fill="#526D77"/>
<path id="Vector_16" d="M665.335 254.124C665.335 223.256 665.335 193.022 661.416 166.487L659.712 166.523L659.152 166.548H659.054C652.904 166.548 646.952 166.377 641.198 166.036C640.103 192.863 639.543 222.38 639.543 253.418C639.543 376.354 648.599 475.993 659.797 475.993C660.6 475.993 661.452 475.251 662.304 474.155C662.499 473.9 662.682 473.51 662.864 473.182C663.538 472.078 664.183 470.625 664.8 468.824C664.994 468.374 665.128 467.948 665.323 467.461C666.881 462.592 668.39 455.739 669.766 447.17C669.814 446.793 669.912 446.501 669.948 446.136V446.014C663.923 407.502 665.335 336.467 665.335 254.124Z" fill="#5F7B89"/>
<path id="Vector_17" d="M610.367 11.4539C612.12 7.69274 616.416 5.0271 621.516 5.0271H621.37C614.664 5.0271 609.284 9.60372 609.284 15.2758L574.083 141.973L574.131 142.228L609.284 15.6166C609.284 14.1317 609.697 12.7319 610.367 11.4539Z" fill="#8D73F9"/>
<path id="Vector_18" d="M677.702 165.976C671.884 166.304 665.895 166.536 659.699 166.536L661.404 166.499C666.978 166.45 672.411 166.276 677.702 165.976ZM659.054 166.56C612.241 166.56 574.265 156.311 574.265 143.677V143.653C574.265 143.202 574.216 142.752 574.216 142.314L609.405 15.6166C609.405 9.95668 614.749 5.44092 621.455 5.44092H621.309C616.355 5.44092 612.193 7.92398 610.306 11.466C609.597 12.7345 609.224 14.1633 609.223 15.6166L574.07 142.241L574.022 142.314C574.005 142.768 574.038 143.214 574.119 143.653V143.677C574.119 154.656 602.832 163.821 641.15 166.037C647.112 166.38 653.082 166.555 659.054 166.56ZM709.689 15.6166C709.689 9.95668 704.309 5.44092 697.7 5.44092H683.678C681.487 8.41086 679.422 11.4741 677.483 14.6307C666.382 33.2415 661.903 54.4936 661.61 75.6118C661.184 99.6269 666.297 124.214 673.137 147.255C675.121 153.585 677.239 159.744 679.552 165.866C716.311 163.359 743.783 154.437 743.783 143.738V143.713C743.783 143.263 743.929 142.813 743.929 142.375L743.88 142.301L709.689 15.6653" fill="#F9C23C"/>
<path id="Vector_19" d="M673.174 147.158C666.333 124.104 661.221 99.5295 661.647 75.5144C661.927 54.4449 666.418 33.1928 677.519 14.5333C679.467 11.3767 681.532 8.31344 683.715 5.34351H621.516C614.81 5.34351 609.466 9.85927 609.466 15.5192L574.277 142.216C574.277 142.667 574.326 143.117 574.326 143.555V143.579C574.326 156.214 612.302 166.463 659.115 166.463H659.164L659.724 166.438C665.919 166.438 671.896 166.207 677.726 165.878C677.97 165.854 678.209 165.846 678.444 165.854L679.674 165.805C677.313 159.643 675.145 153.408 673.174 147.109" fill="#E8B12B"/>
<g id="Group_2">
<path id="Vector_20" d="M743.771 520.749L605.437 492.243C605.437 492.243 680.854 453.232 687.427 452.441C693.988 451.637 751.573 443.75 751.573 443.75L743.771 520.749ZM766.398 338.524C766.398 338.524 618.145 328.701 582.603 332.195L593.034 405.956L680.732 415.742L755.93 420.563L766.374 338.561" fill="#755B45"/>
<path id="Vector_21" d="M597.708 404.471C597.708 404.471 614.055 254.185 571.782 257.679C571.782 257.679 328.917 242.379 158.182 275.06C158.182 275.06 135.177 285.528 135.883 302.909L161.906 408.646L191.569 463.006L469.283 444.188L597.708 404.471Z" fill="#755B45"/>
</g>
<g id="Group_3">
<path id="Vector_22" d="M241.583 381.929C240.829 364.548 263.785 354.104 263.785 354.104C374.427 332.949 515.28 331.915 600.812 333.814C599.875 295.35 593.777 255.914 571.867 257.703C571.867 257.703 329.051 242.403 158.303 275.084C158.303 275.084 135.25 285.552 135.968 302.934L161.992 408.671L191.654 463.03L260.328 458.405L241.583 381.929Z" fill="#82664D"/>
<path id="Vector_23" d="M619.52 394.332C418.124 392.494 302.321 432.686 302.321 432.686V432.759L304.962 449.763C304.962 449.763 305.011 449.763 305.011 449.739L317.913 531.838L718.757 434.098L718.855 434.146L741.665 428.596V413.491C729.189 401.538 619.581 394.308 619.581 394.308" fill="#82664D"/>
</g>
<g id="Group_4">
<path id="Vector_24" d="M317.755 624.295L741.555 494.069V420.55C741.555 420.55 431.635 469.238 311.28 511.024L317.804 624.344" fill="#4C3729"/>
<path id="Vector_25" d="M754.129 519.203C754.129 519.203 758.669 520.506 763.148 502.114C763.294 501.546 763.436 500.942 763.574 500.301C768.151 479.9 783.122 360.64 783.122 360.64C783.122 360.64 784.632 337.55 762.479 338.439C762.479 338.439 738.78 333.412 740.667 364.231L735.043 499.461V509.661C735.043 509.661 736.942 526.653 754.129 519.252" fill="#4C3729"/>
</g>
<path id="Vector_26" d="M286.449 324.928C265.148 327.314 277.15 350.367 279.937 375.21L281.872 393.164C284.66 418.007 277.052 435.291 298.317 432.881L420.522 427.05C441.823 424.677 429.736 401.623 427.046 376.78L425.062 358.778C422.324 333.887 429.931 316.651 408.679 319.11L286.473 324.928" fill="#F4EBE1"/>
<g id="Group_5">
<path id="Vector_27" d="M357.715 372.252C359.505 366.799 327.103 344.927 316.574 342.784C308.967 341.251 308.127 347.58 312.558 350.696C321.394 356.879 334.187 373.47 338.106 377.036C337.595 377.316 325.728 385.605 322.003 390.145C319.739 392.835 312.838 400.576 315.199 403.936C317.56 407.283 333.664 398.166 335.368 397.071C357.581 382.854 352.335 388.757 357.715 372.252Z" fill="#D7CFC1"/>
<path id="Vector_28" d="M353.662 375.965C353.431 370.84 390.421 346.923 402.033 343.795C410.346 341.579 410.346 347.483 405.149 350.879C394.803 357.683 378.699 374.687 373.977 378.509C374.488 378.728 385.966 385.349 389.326 389.257C391.31 391.545 397.59 398.252 394.62 401.66C391.553 405.104 367.185 393.285 365.712 392.263C349.365 381.016 354.283 387.796 353.662 375.965Z" fill="#D7CFC1"/>
</g>
<path id="Vector_29" d="M494.113 326.06C475.843 327.923 486.141 346.022 488.49 365.546L490.206 379.616C492.604 399.128 486.043 412.7 504.374 410.789L609.369 406.212C627.687 404.35 617.293 386.25 614.98 366.751L613.276 352.631C610.927 333.108 617.487 319.548 599.157 321.484L494.113 326.06Z" fill="#F4EBE1"/>
<g id="Group_6">
<path id="Vector_30" d="M555.387 363.184C556.896 358.936 529.132 341.738 520.064 340.094C513.491 338.865 512.736 343.855 516.619 346.302C524.166 351.146 535.169 364.158 538.528 366.945C538.115 367.201 527.902 373.701 524.689 377.243C522.754 379.373 516.85 385.435 518.871 388.088C520.904 390.705 534.743 383.56 536.216 382.684C555.289 371.522 550.761 376.196 555.387 363.184Z" fill="#D7CFC1"/>
<path id="Vector_31" d="M551.942 366.13C551.699 362.113 583.491 343.32 593.46 340.886C600.593 339.157 600.593 343.795 596.15 346.46C587.277 351.792 573.437 365.168 569.372 368.138C569.798 368.333 579.67 373.494 582.554 376.561C584.307 378.375 589.687 383.621 587.082 386.311C584.49 389.025 563.505 379.75 562.239 378.898C548.217 370.098 552.417 375.405 551.942 366.13Z" fill="#D7CFC1"/>
</g>
<path id="Vector_32" d="M302.978 394.904L139.425 373.202C139.425 373.202 124.831 370.463 119.913 379.458C119.913 379.458 103.944 389.208 110.188 412.188L148.493 579.868L302.991 668.759L311.304 590.287L302.978 394.929" fill="#755B45"/>
<path id="Vector_33" d="M121.995 464.114C128.081 458.454 139.425 460.62 139.425 460.62L302.991 482.347L308.699 615.3L311.292 590.239L302.978 394.88L139.425 373.178C139.425 373.178 124.831 370.439 119.913 379.434C119.913 379.434 103.944 389.184 110.188 412.164L121.995 464.138" fill="#876B54"/>
<path id="Vector_34" d="M308.504 668.93C308.504 668.93 296.077 674.2 287.678 645.998C287.435 645.109 287.155 644.136 286.924 643.174C278.61 611.904 250.737 428.888 250.737 428.888C250.737 428.888 247.949 393.419 288.993 394.795C288.993 394.795 332.921 387.126 329.379 434.463L339.859 641.75V644.513C339.859 644.513 346.055 666.812 308.504 668.857" fill="#563F2F"/>
</g>
</svg>
