<svg width="251" height="250" viewBox="0 0 251 250" fill="none" xmlns="http://www.w3.org/2000/svg">
<g id="framedPictureSun">
<g id="Group">
<path id="Vector" d="M15.6986 15.625L125.074 39.0625L234.449 15.625V234.375L125.074 210.938L15.6986 234.375V15.625Z" fill="#D3883E"/>
<path id="Vector_2" d="M234.449 15.625H15.6986L125.074 125L234.449 15.625Z" fill="#F3AD61"/>
<path id="Vector_3" d="M234.449 234.375H15.6986L125.074 125L234.449 234.375Z" fill="#B97028"/>
<path id="Vector_4" d="M39.1361 39.0625H211.011V71.5937L140.699 171.875L39.1361 148.438V125L50.8549 101.562L39.1361 78.125V39.0625Z" fill="#AEDDFF"/>
<path id="Vector_5" d="M192.785 79.0156C194.982 76.2979 197.759 74.1058 200.912 72.5999C204.066 71.0941 207.516 70.3125 211.011 70.3125V117.188C205.213 117.188 199.622 115.039 195.316 111.156C194.962 115.789 193.239 120.213 190.366 123.864C187.493 127.516 183.599 130.231 179.18 131.665C174.76 133.099 170.014 133.187 165.544 131.918C161.074 130.649 157.083 128.08 154.076 124.537C151.07 120.994 149.184 116.638 148.659 112.021C148.134 107.404 148.993 102.736 151.127 98.6081C153.261 94.4806 156.573 91.0805 160.644 88.8398C164.714 86.599 169.359 85.6187 173.988 86.0234C175.8 82.835 178.676 80.3858 182.113 79.1046C185.549 77.8235 189.327 77.7919 192.785 79.0156ZM39.1361 125V78.125C46.8002 78.125 53.6127 81.8047 57.8861 87.5C59.0468 86.6295 60.427 86.0994 61.872 85.9691C63.317 85.8388 64.7698 86.1134 66.0675 86.7623C67.3652 87.4111 68.4565 88.4085 69.2193 89.6427C69.9821 90.8769 70.3861 92.2991 70.3861 93.75C74.5301 93.75 78.5044 95.3962 81.4347 98.3265C84.3649 101.257 86.0111 105.231 86.0111 109.375C86.0111 113.519 84.3649 117.493 81.4347 120.424C78.5044 123.354 74.5301 125 70.3861 125H39.1361Z" fill="white"/>
<path id="Vector_6" d="M62.5736 136.719L39.1361 148.438V210.938H211.011V93.75C199.292 93.75 191.48 97.6562 179.761 109.375L144.605 144.531C136.792 152.344 132.886 156.25 125.074 152.344L93.8236 136.719C81.3236 130.469 69.0814 132.812 62.5736 136.719Z" fill="#14A085"/>
<path id="Vector_7" d="M211.011 209.469V210.938H39.1361V209.461C59.1674 189.313 90.2142 175.781 125.074 175.781C159.933 175.781 190.98 189.32 211.011 209.469Z" fill="#96C34A"/>
<path id="Vector_8" d="M148.949 79.5703C149.983 79.1092 150.861 78.3584 151.477 77.4087C152.094 76.459 152.422 75.351 152.422 74.2187C152.422 73.0865 152.094 71.9785 151.477 71.0288C150.861 70.079 149.983 69.3282 148.949 68.8672C149.612 67.9508 149.997 66.8618 150.055 65.7317C150.114 64.6016 149.844 63.4788 149.278 62.4989C148.712 61.519 147.874 60.7239 146.866 60.2098C145.858 59.6956 144.723 59.4844 143.597 59.6015C143.714 58.476 143.503 57.3407 142.989 56.3326C142.475 55.3246 141.68 54.487 140.7 53.921C139.72 53.355 138.597 53.0849 137.467 53.1433C136.337 53.2017 135.248 53.5861 134.331 54.25C133.87 53.2159 133.12 52.3375 132.17 51.7211C131.22 51.1047 130.112 50.7766 128.98 50.7766C127.848 50.7766 126.74 51.1047 125.79 51.7211C124.84 52.3375 124.089 53.2159 123.628 54.25C122.712 53.5861 121.623 53.2017 120.493 53.1433C119.363 53.0849 118.24 53.355 117.26 53.921C116.28 54.487 115.485 55.3246 114.971 56.3326C114.457 57.3407 114.245 58.476 114.363 59.6015C113.237 59.4844 112.102 59.6956 111.094 60.2098C110.086 60.7239 109.248 61.519 108.682 62.4989C108.116 63.4788 107.846 64.6016 107.904 65.7317C107.963 66.8618 108.347 67.9508 109.011 68.8672C107.977 69.3282 107.099 70.079 106.482 71.0288C105.866 71.9785 105.538 73.0865 105.538 74.2187C105.538 75.351 105.866 76.459 106.482 77.4087C107.099 78.3584 107.977 79.1092 109.011 79.5703C108.347 80.4867 107.963 81.5757 107.904 82.7058C107.846 83.8358 108.116 84.9587 108.682 85.9386C109.248 86.9184 110.086 87.7135 111.094 88.2277C112.102 88.7418 113.237 88.9531 114.363 88.8359C114.245 89.9614 114.457 91.0968 114.971 92.1048C115.485 93.1129 116.28 93.9505 117.26 94.5164C118.24 95.0824 119.363 95.3525 120.493 95.2941C121.623 95.2357 122.712 94.8514 123.628 94.1875C124.089 95.2216 124.84 96.1 125.79 96.7164C126.74 97.3328 127.848 97.6608 128.98 97.6608C130.112 97.6608 131.22 97.3328 132.17 96.7164C133.12 96.1 133.87 95.2216 134.331 94.1875C135.248 94.8514 136.337 95.2357 137.467 95.2941C138.597 95.3525 139.72 95.0824 140.7 94.5164C141.68 93.9505 142.475 93.1129 142.989 92.1048C143.503 91.0968 143.714 89.9614 143.597 88.8359C144.723 88.9531 145.858 88.7418 146.866 88.2277C147.874 87.7135 148.712 86.9184 149.278 85.9386C149.844 84.9587 150.114 83.8358 150.055 82.7058C149.997 81.5757 149.612 80.4867 148.949 79.5703Z" fill="#FF822D"/>
<path id="Vector_9" d="M146.206 74.2187C146.206 78.7875 144.391 83.1692 141.161 86.3998C137.93 89.6304 133.549 91.4453 128.98 91.4453C124.411 91.4453 120.029 89.6304 116.799 86.3998C113.568 83.1692 111.753 78.7875 111.753 74.2187C111.753 69.65 113.568 65.2683 116.799 62.0377C120.029 58.8071 124.411 56.9922 128.98 56.9922C133.549 56.9922 137.93 58.8071 141.161 62.0377C144.391 65.2683 146.206 69.65 146.206 74.2187Z" fill="#F9C23C"/>
</g>
</g>
</svg>
