<?xml version="1.0" encoding="UTF-8"?>
<svg id="main_living_room" xmlns="http://www.w3.org/2000/svg" xmlns:xlink="http://www.w3.org/1999/xlink" viewBox="0 0 135.36 277.2">
  <defs>
    <pattern id="New_Pattern_4" data-name="New Pattern 4" x="0" y="0" width="4.65" height="5.07" patternTransform="translate(15.63 -22.01)" patternUnits="userSpaceOnUse" viewBox="0 0 4.65 5.07">
      <g>
        <rect y="0" width="4.65" height="5.07" fill="none"/>
        <g>
          <path d="M4.98,4.18c-.09-.04-.3-.13-.41-.1-.09.02-.15.19-.21.27-.05.07.16.31.14.42-.02.11-.17.16-.16.27.02.14.01.26.06.36.06.12.12.27.2.29.08.02.14-.14.21-.22.06-.07.03-.2.07-.31.04-.09.1-.13.13-.24.03-.1.09-.17.09-.25,0-.1.15-.23.13-.29-.03-.08-.16-.17-.25-.2Z" fill="#ded1c7"/>
          <path d="M3.83,3.94c-.17-.15-.58-.51-.8-.55-.18-.03-.39.19-.58.29-.2.11.24.53.18.67-.07.18-.45.21-.25.34.21.12.43.18.75.14.24-.03.59-.03.76-.11.16-.08,0-.26.01-.37,0-.13.1-.26-.07-.41Z" fill="#ded1c7"/>
        </g>
        <g>
          <path d="M.9,3.63c-.06.06-.19.19-.18.29,0,.08.12.2.16.3.03.09.31-.11.38-.06s0,.28.08.3c.09.02.17.06.26,0,.12-.07.27-.14.36-.29s.03-.26.03-.39c0-.1-.15-.01-.2-.08-.05-.05-.04-.12-.12-.14s-.11-.07-.2-.06c-.1.01-.19-.1-.28-.06-.11.04-.24.13-.3.19Z" fill="#ded1c7"/>
          <path d="M1.58,4.86c-.09-.04-.29-.13-.39-.07-.09.07-.17.33-.26.47-.09.13.33.24.31.37s-.35.3-.32.4c.05.11.04.22.19.25.18.02.4.05.67-.05s.36-.26.52-.38c.12-.09-.11-.11-.08-.2.02-.07.11-.13.05-.19s-.02-.12-.12-.16c-.1-.06-.07-.16-.18-.21-.12-.07-.29-.18-.38-.22Z" fill="#ded1c7"/>
          <path d="M.33,4.18c-.09-.04-.3-.13-.41-.1-.09.02-.15.19-.21.27-.05.07.16.31.14.42-.02.11-.17.16-.16.27.02.14.01.26.06.36.06.12.12.27.2.29.08.02.14-.14.21-.22.06-.07.03-.2.07-.31.04-.09.1-.13.13-.24.03-.1.09-.17.09-.25,0-.1.15-.23.13-.29-.03-.08-.16-.17-.25-.2Z" fill="#ded1c7"/>
        </g>
        <g>
          <path d="M.64,3.51c-.04.17-.12.57-.05.68.06.09.31.02.43.04.11.01.25-.4.37-.42s.26.14.36.09c.11-.06.22-.09.26-.16.04-.07.1-.15.03-.22s-.22-.12-.32-.19c-.08-.07-.13,0-.22-.06-.08-.05-.12-.12-.2-.14s-.13-.1-.19-.08c-.08.03-.19-.19-.25-.1-.08.11-.18.4-.21.57Z" fill="#ded1c7"/>
          <path d="M3.23,1.09c-.06.06-.19.19-.18.29,0,.08.12.2.16.3.03.09.31-.11.38-.06s0,.28.08.3c.09.02.17.06.26,0,.12-.07.27-.14.36-.29s.03-.26.03-.39c0-.1-.15-.01-.2-.08-.05-.05-.04-.12-.12-.14s-.11-.07-.2-.06c-.1.01-.19-.1-.28-.06-.11.04-.24.13-.3.19Z" fill="#ded1c7"/>
          <path d="M3.9,2.33c-.09-.04-.29-.13-.39-.07-.09.07-.17.33-.26.47-.09.13.33.24.31.37s-.35.3-.32.4c.05.11.04.22.19.25.18.02.4.05.67-.05s.36-.26.52-.38c.12-.09-.11-.11-.08-.2.02-.07.11-.13.05-.19s-.02-.12-.12-.16c-.1-.06-.07-.16-.18-.21-.12-.07-.29-.18-.38-.22Z" fill="#ded1c7"/>
          <path d="M2.65,1.64c-.09-.04-.3-.13-.41-.1-.09.02-.15.19-.21.27-.05.07.16.31.14.42-.02.11-.17.16-.16.27.02.14.01.26.06.36.06.12.12.27.2.29.08.02.14-.14.21-.22.06-.07.03-.2.07-.31.04-.09.1-.13.13-.24.03-.1.09-.17.09-.25,0-.1.15-.23.13-.29-.03-.08-.16-.17-.25-.2Z" fill="#ded1c7"/>
          <path d="M1.51,1.4c-.17-.15-.58-.51-.8-.55-.18-.03-.39.19-.58.29-.2.11.24.53.18.67-.07.18-.45.21-.25.34.21.12.43.18.75.14.24-.03.59-.03.76-.11.16-.08,0-.26.01-.37,0-.13.1-.26-.07-.41Z" fill="#ded1c7"/>
        </g>
        <g>
          <path d="M2.97.97c-.04.17-.12.57-.05.68.06.09.31.02.43.04.11.01.25-.4.37-.42s.26.14.36.09c.11-.06.22-.09.26-.16.04-.07.1-.15.03-.22s-.22-.12-.32-.19c-.08-.07-.13,0-.22-.06-.08-.05-.12-.12-.2-.14s-.13-.1-.19-.08c-.08.03-.19-.19-.25-.1-.08.11-.18.4-.21.57Z" fill="#ded1c7"/>
          <path d="M4.98-.9c-.09-.04-.3-.13-.41-.1-.09.02-.15.19-.21.27-.05.07.16.31.14.42-.02.11-.17.16-.16.27.02.14.01.26.06.36.06.12.12.27.2.29.08.02.14-.14.21-.22.06-.07.03-.2.07-.31.04-.09.1-.13.13-.24.03-.1.09-.17.09-.25,0-.1.15-.23.13-.29-.03-.08-.16-.17-.25-.2Z" fill="#ded1c7"/>
        </g>
        <g>
          <path d="M1.58-.21c-.09-.04-.29-.13-.39-.07-.09.07-.17.33-.26.47-.09.13.33.24.31.37s-.35.3-.32.4c.05.11.04.22.19.25.18.02.4.05.67-.05s.36-.26.52-.38c.12-.09-.11-.11-.08-.2.02-.07.11-.13.05-.19s-.02-.12-.12-.16c-.1-.06-.07-.16-.18-.21-.12-.07-.29-.18-.38-.22Z" fill="#ded1c7"/>
          <path d="M.33-.9c-.09-.04-.3-.13-.41-.1-.09.02-.15.19-.21.27-.05.07.16.31.14.42-.02.11-.17.16-.16.27.02.14.01.26.06.36.06.12.12.27.2.29.08.02.14-.14.21-.22.06-.07.03-.2.07-.31C.28,0,.34-.04.37-.15c.03-.1.09-.17.09-.25,0-.1.15-.23.13-.29-.03-.08-.16-.17-.25-.2Z" fill="#ded1c7"/>
        </g>
      </g>
    </pattern>
  </defs>
  <rect x="-1.91" y="-3.03" width="141.02" height="178.91" fill="#f4ebe1"/>
  <polygon points="138.96 280.15 137.68 279.36 136.56 279.81 135.43 280.36 134.31 279.83 133.18 280.13 132.06 280.39 130.93 279.81 129.81 279.07 128.68 279.85 127.55 279.95 126.42 279.06 125.29 279.23 124.17 279.77 123.04 279.02 121.92 280.18 120.79 280.21 119.66 280.38 118.54 279.54 117.41 279.49 116.29 279.37 115.17 279.34 114.04 279.7 112.92 279.6 111.79 279.6 110.67 279.34 109.55 279.49 108.42 280.13 107.3 279.04 106.17 279.52 105.05 280.06 103.92 280.22 102.79 278.98 101.67 279.66 100.54 279.16 99.41 279.16 98.28 279.64 97.16 279.65 96.03 280.1 94.9 279.58 93.77 280.16 92.64 280.31 91.52 279.39 90.39 279.52 89.27 279.92 88.14 279.45 87.01 279.12 85.89 279.34 84.76 280.17 83.64 279.59 82.51 279.12 81.38 279.8 80.25 280.24 79.13 279.43 78 279.31 76.87 279.91 75.74 280.28 74.61 279.95 73.48 280.16 72.36 279.72 71.23 279.04 70.1 280.13 68.97 280.18 67.85 279.44 66.72 280.07 65.59 280.14 64.46 279.87 63.33 279.93 62.2 280.41 61.07 280.05 59.95 279.57 58.82 280.31 57.69 279.68 56.56 280.35 55.43 279.16 54.3 279.25 53.18 279.38 52.05 279.5 50.92 279.98 49.79 279.9 48.66 279.94 47.53 279.07 46.4 279.84 45.27 279.17 44.15 279.91 43.02 280.36 41.89 279.89 40.76 280.24 39.63 279.22 38.51 280.02 37.38 280.06 36.25 279.99 35.13 279.15 34 280.22 32.87 280.4 31.74 279.2 30.61 279.72 29.48 279.28 28.35 279.21 27.23 279.92 26.1 279.96 24.97 279.71 23.84 279.83 22.71 279.05 21.58 280.32 20.45 279.82 19.32 279.44 18.18 280.19 17.05 279.89 15.92 279.84 14.79 279.27 13.66 279.42 12.52 280.39 11.4 280.37 10.27 279.42 9.14 280.27 8 279.75 6.87 279.62 5.74 280.4 4.61 279.08 3.47 280.14 2.34 280.28 1.2 279.12 .06 280.4 -1.07 280.14 -2.11 279.6 -2.44 278.57 -1.77 277.45 -1.6 276.33 -2.78 275.2 -2.21 274.08 -2.53 272.95 -2.81 271.83 -2.1 270.7 -1.74 269.58 -2.57 268.45 -2.14 267.33 -2.89 266.21 -2.44 265.08 -1.82 263.96 -1.79 262.84 -2.61 261.72 -1.67 260.59 -2.39 259.47 -2.6 258.35 -2.21 257.22 -1.93 256.1 -1.85 254.97 -2.03 253.85 -2.69 252.72 -2.55 251.6 -1.8 250.47 -2.65 249.35 -1.55 248.22 -2.18 247.1 -2.21 245.98 -2.28 244.85 -1.54 243.73 -2.13 242.6 -1.93 241.48 -2.41 240.35 -2.02 239.23 -1.52 238.1 -1.52 236.98 -2.9 235.85 -2.83 234.72 -1.73 233.6 -1.53 232.47 -2.52 231.35 -2.29 230.23 -2.32 229.1 -2.54 227.97 -2.05 226.85 -2.07 225.72 -1.71 224.59 -2.86 223.47 -2.15 222.34 -1.91 221.22 -1.93 220.1 -1.64 218.97 -2.8 217.84 -2.86 216.72 -2.15 215.59 -1.95 214.47 -2.28 213.35 -1.79 212.23 -1.71 211.1 -2.82 209.98 -2.49 208.86 -1.72 207.73 -1.64 206.6 -2.05 205.48 -2.69 204.35 -2.07 203.23 -2.63 202.1 -1.81 200.97 -1.61 199.85 -1.85 198.72 -2.57 197.59 -2.8 196.46 -2.68 195.34 -1.6 194.21 -1.75 193.08 -1.93 191.95 -2.19 190.82 -2.59 189.7 -1.65 188.57 -2.51 187.44 -2.72 186.32 -1.89 185.19 -2.51 184.06 -2.79 182.93 -2.64 181.8 -2.08 180.67 -2.81 179.54 -2.11 178.41 -2.7 177.28 -2.6 176.14 -1.56 175.01 -2.15 173.89 -1.18 173.42 -.44 172.34 .83 172.43 1.96 172.22 2.82 171.37 4.19 171.75 4.98 170.72 6 170.27 7.16 170.15 8.18 169.68 9.3 169.47 10.24 168.8 11.38 168.64 12.32 167.93 13.53 168.01 14.49 167.35 15.43 166.6 16.4 165.94 17.45 165.52 18.81 166.09 19.94 165.95 20.83 165.01 21.95 164.83 23 164.42 24.1 164.17 25.19 163.87 26.48 164.41 27.35 163.28 28.35 162.65 29.61 163.08 30.58 162.32 31.65 161.94 32.97 162.74 33.98 162.06 34.95 161.23 36.23 161.92 37.23 161.12 38.31 160.79 39.45 160.76 40.52 160.36 41.64 160.19 42.89 160.89 43.99 160.69 44.98 159.65 46.23 160.57 47.3 160.11 48.44 160.19 49.55 160.06 50.65 159.8 51.68 158.8 52.79 158.46 53.99 159.27 55.14 159.46 56.18 158.25 57.34 158.7 58.44 158.27 59.57 158.24 60.7 158.27 61.83 158.08 63 159.19 64.11 158.75 65.22 157.74 66.37 158.42 67.5 158.63 68.64 158.25 69.77 158.75 70.91 158.8 72.06 157.88 73.18 158.5 74.34 157.85 75.42 159.24 76.56 159.21 77.7 159.08 78.81 159.41 79.94 159.42 81.17 158.25 82.23 159.28 83.41 158.77 84.56 158.68 85.68 158.85 86.83 158.85 87.97 158.9 88.98 159.97 90.08 160.32 91.3 159.74 92.45 159.71 93.4 160.99 94.61 160.57 95.79 160.38 96.91 160.58 97.98 161.02 99.15 160.93 100.08 162.05 101.38 161.3 102.32 162.37 103.6 161.77 104.77 161.72 105.58 163.28 106.69 163.46 107.91 163.21 109.03 163.41 110.19 163.41 111.22 163.99 112.27 164.46 113.45 164.44 114.48 164.94 115.73 164.72 116.54 165.96 117.92 165.33 118.99 165.69 119.81 166.85 121.07 166.62 122.2 166.81 123.29 167.13 124.18 167.99 125.2 168.49 126.2 169.03 127.31 169.27 128.69 168.83 129.29 170.41 130.61 170.13 131.46 171.04 132.63 171.15 133.91 171.02 134.8 171.83 135.58 172.85 136.66 173.17 137.74 173.51 138.27 174.21 138.11 175 139.43 176.12 139.42 177.25 138.57 178.37 138.28 179.5 138.58 180.63 139.43 181.75 138.95 182.88 138.83 184 138.65 185.13 138.97 186.26 139.33 187.38 139.2 188.51 139.04 189.63 138.5 190.76 139.13 191.88 139.01 193.01 138.25 194.14 138.9 195.26 139.22 196.39 139.49 197.51 138.31 198.64 139.5 199.76 139.25 200.89 139.52 202.02 138.57 203.14 139.32 204.27 139.36 205.39 138.3 206.52 138.35 207.65 138.36 208.77 139.08 209.9 138.56 211.02 138.78 212.15 138.68 213.27 138.16 214.4 139.15 215.53 138.91 216.65 139.03 217.78 139.35 218.9 138.3 220.03 139.3 221.15 138.81 222.28 139.25 223.41 139.37 224.53 138.25 225.66 139.17 226.78 138.68 227.91 138.61 229.04 139.49 230.16 138.54 231.29 138.79 232.41 138.38 233.54 139.25 234.66 138.98 235.79 138.49 236.92 138.29 238.04 139.05 239.17 139.11 240.29 139.49 241.42 138.92 242.55 138.94 243.67 138.75 244.8 138.85 245.92 139.28 247.05 138.92 248.17 138.12 249.3 138.22 250.43 138.45 251.55 139.28 252.68 139.44 253.8 139.49 254.93 138.12 256.05 138.74 257.18 138.19 258.31 139.01 259.43 139.39 260.56 138.52 261.68 139.16 262.81 138.81 263.94 139.16 265.06 139.52 266.19 138.46 267.31 138.14 268.44 139.45 269.56 139.43 270.69 138.4 271.82 138.16 272.94 139.24 274.07 138.59 275.19 139.18 276.32 138.91 277.44 139.32 278.57 138.96 280.15" fill="#e2d6cc"/>
  <path d="M138.88,280.38H-2.14v-105.82c13.27-6.12,38.25-15.54,70.85-15.47,32.23.07,56.93,9.37,70.17,15.47v105.82Z" fill="url(#New_Pattern_4)"/>
</svg>