<svg width="248" height="386" viewBox="0 0 248 386" fill="none" xmlns="http://www.w3.org/2000/svg">
<g id="pottedPlant">
<g id="Group">
<path id="Vector" d="M123.875 237.995C120.437 237.995 117.687 235.245 117.687 231.807V205.6L84.2745 195.604L60.762 175.529L117.687 192.579V188.784C117.687 175.034 121.537 161.421 129.237 149.871C131.538 146.388 133.44 142.721 134.943 138.871L104.473 129.755L68.9983 106.091L138.216 126.84C138.738 123.65 139 120.419 139 117.146V88.2712H151.375V117.146C151.375 118.741 151.32 120.327 151.21 121.904L204.573 105.954L163.296 131.322L148.982 135.585C147.03 142.966 143.886 149.98 139.673 156.347C133.348 165.972 130.048 177.247 130.048 188.797V202.437L186.836 185.415L151.966 208.9L130.062 215.459V231.821C130.062 235.259 127.312 237.995 123.875 237.995Z" fill="#44911B"/>
<path id="Vector_2" d="M143.152 1.99001C117.962 31.2775 117.22 79.5675 141.53 109.914C142.657 111.261 144.513 111.413 145.627 110.051C170.817 80.7638 171.56 32.4875 147.25 2.14126C146.122 0.64251 144.266 0.628761 143.152 1.99001ZM50.312 131.983L2.18703 117.545C-5.92547 144.633 9.47452 173.095 36.4245 181.345L84.5495 195.783C92.7995 168.695 77.3995 140.095 50.312 131.983ZM234.287 130.745L186.162 145.183C159.075 153.433 143.675 181.895 151.925 208.982L200.05 194.545C227 186.295 242.4 157.833 234.287 130.745ZM70.5245 66.12L22.3995 51.6825C14.4245 78.77 29.687 107.233 56.7745 115.483L104.9 129.92C108.79 116.901 107.355 102.871 100.91 90.9091C94.465 78.9473 83.5368 70.0318 70.5245 66.12ZM245.562 53.195L197.437 67.6325C190.986 69.552 184.979 72.7291 179.761 76.9807C174.544 81.2324 170.219 86.4745 167.036 92.405C163.854 98.3355 161.876 104.837 161.218 111.535C160.559 118.233 161.233 124.996 163.2 131.433L211.325 116.995C238.275 108.745 253.675 80.2825 245.562 53.195Z" fill="#90C951"/>
<path id="Vector_3" d="M206.265 248.5C182.473 230.632 153.519 220.98 123.765 221C92.8133 221 64.1583 231.313 41.2645 248.5L123.765 275.574L206.265 248.5Z" fill="#7D4533"/>
<path id="Vector_4" d="M27.6108 303.445L38.3358 367.933C40.1233 378.383 49.0608 385.945 59.5108 385.945H188.073C198.523 385.945 207.598 378.383 209.248 367.933L220.111 303.445L123.861 281.583L27.6108 303.445Z" fill="#F3AD61"/>
<path id="Vector_5" d="M226.89 303.5H20.6395C16.7895 303.5 13.7645 300.475 13.7645 296.625V255.375C13.7645 251.525 16.7895 248.5 20.6395 248.5H226.89C230.74 248.5 233.765 251.525 233.765 255.375V296.625C233.765 300.475 230.74 303.5 226.89 303.5Z" fill="#F3C07B"/>
</g>
</g>
</svg>
