<svg width="296" height="296" viewBox="0 0 296 296" fill="none" xmlns="http://www.w3.org/2000/svg">
<g id="window">
<path id="Vector" d="M287.109 295.5H8.49834C3.99139 295.5 0.303894 291.812 0.303894 287.306V8.69444C0.303894 4.1875 3.99139 0.5 8.49834 0.5H287.109C291.616 0.5 295.304 4.1875 295.304 8.69444V287.306C295.304 291.812 291.616 295.5 287.109 295.5Z" fill="#D79E84"/>
<path id="Vector_2" d="M8.49834 295.5H287.109C291.616 295.5 295.304 291.813 295.304 287.306V8.69446C295.299 6.523 294.433 4.44223 292.895 2.90918L2.71306 293.091C4.24611 294.629 6.32688 295.495 8.49834 295.5Z" fill="#BF6952"/>
<path id="Vector_3" d="M16.6928 16.8889H278.915V279.111H16.6928V16.8889Z" fill="#8CCAF7"/>
<path id="Vector_4" opacity="0.5" d="M16.6928 279.111V16.8889H278.915L16.6928 279.111Z" fill="white"/>
<path id="Vector_5" d="M139.609 16.8889H155.998V279.111H139.609V16.8889Z" fill="#BF6952"/>
<path id="Vector_6" d="M16.6928 156.194V139.806H278.915V156.194H16.6928Z" fill="#BF6952"/>
</g>
</svg>
