<?xml version="1.0" encoding="UTF-8"?>
<svg id="house" xmlns="http://www.w3.org/2000/svg" viewBox="0 0 135.36 277.2">
  <defs>
    <style>
      .cls-1 {
        fill: #e2ba84;
      }

      .cls-2, .cls-3 {
        fill: #d9562c;
      }

      .cls-4 {
        stroke: #b34219;
      }

      .cls-4, .cls-5, .cls-6, .cls-3, .cls-7, .cls-8, .cls-9 {
        stroke-width: 2px;
      }

      .cls-4, .cls-5, .cls-6, .cls-3, .cls-7, .cls-8, .cls-10 {
        stroke-linecap: round;
        stroke-linejoin: round;
      }

      .cls-4, .cls-5, .cls-9, .cls-10 {
        fill: none;
      }

      .cls-5, .cls-3, .cls-7 {
        stroke: #893b1d;
      }

      .cls-6 {
        fill: #82522d;
        stroke: #653f1f;
      }

      .cls-7 {
        fill: #b74728;
      }

      .cls-11 {
        fill: #af7e4a;
      }

      .cls-12 {
        fill: #d9d0c4;
      }

      .cls-8 {
        fill: #b4a99d;
        stroke: #8d8278;
      }

      .cls-13 {
        fill: #62a2b4;
      }

      .cls-9 {
        stroke: #5d3719;
        stroke-miterlimit: 10;
      }

      .cls-14 {
        fill: #a3764c;
      }

      .cls-15 {
        fill: #f0cf9d;
      }

      .cls-16 {
        fill: #653f1f;
      }

      .cls-17 {
        fill: #5d3719;
      }

      .cls-18 {
        fill: #f0d09a;
      }

      .cls-10 {
        stroke: #e2ba84;
        stroke-width: 3px;
      }
    </style>
  </defs>
  <ellipse class="cls-12" cx="67.68" cy="195.37" rx="57.44" ry="8.79"/>
  <g>
    <rect class="cls-15" x="21.02" y="136.8" width="92.94" height="55.63"/>
    <polygon class="cls-15" points="39.13 121.48 27.23 139.5 51.02 139.5 39.13 121.48"/>
  </g>
  <rect class="cls-13" x="30.53" y="154.74" width="19.03" height="21.78"/>
  <path class="cls-17" d="M48.53,155.43v20.18h-17.08v-20.18h17.08M48.53,153.43h-17.08c-1.1,0-2,.9-2,2v20.18c0,1.1.9,2,2,2h17.08c1.1,0,2-.9,2-2v-20.18c0-1.1-.9-2-2-2h0Z"/>
  <line class="cls-9" x1="39.99" y1="154.74" x2="39.99" y2="176.53"/>
  <line class="cls-9" x1="30.95" y1="165.52" x2="49.57" y2="165.52"/>
  <rect class="cls-1" x="20.41" y="185.74" width="94.55" height="9.02"/>
  <polyline class="cls-10" points="20.41 148.87 39.41 122.74 60.05 150.86 112.7 150.86"/>
  <path class="cls-14" d="M39.13,121.48l11.89,15.32h53.89l4.36,4.08,4.7,4.59v46.96H21.02v-49.94l1.26-3.37,2.49-2.32h3.3l11.06-15.32M39.13,119.48s-.02,0-.03,0c-.63.01-1.22.32-1.59.83l-10.47,14.49h-2.28c-.51,0-.99.19-1.36.54l-2.49,2.32c-.23.21-.4.47-.51.76l-1.26,3.37c-.08.22-.13.46-.13.7v49.94c0,1.1.9,2,2,2h92.94c1.1,0,2-.9,2-2v-46.96c0-.54-.22-1.05-.6-1.43l-4.7-4.59-4.39-4.11c-.37-.35-.86-.54-1.37-.54h-52.91l-11.29-14.55c-.38-.49-.96-.77-1.58-.77h0Z"/>
  <g>
    <line class="cls-5" x1="100.15" y1="120.89" x2="95.23" y2="114.33"/>
    <line class="cls-2" x1="100.15" y1="120.89" x2="95.23" y2="114.33"/>
  </g>
  <g>
    <rect class="cls-18" x="81.26" y="102.91" width="13.98" height="16.67" rx="1" ry="1"/>
    <path class="cls-11" d="M94.24,103.91v14.68h-11.98v-14.68h11.98M94.24,101.91h-11.98c-1.1,0-2,.9-2,2v14.68c0,1.1.9,2,2,2h11.98c1.1,0,2-.9,2-2v-14.68c0-1.1-.9-2-2-2h0Z"/>
  </g>
  <polygon class="cls-3" points="39.13 111.25 87.74 111.25 92.79 117.48 97.57 117.55 122.37 149.66 68.1 149.66 39.13 111.25"/>
  <polyline class="cls-7" points="39.13 111.25 12.61 148.74 19.64 148.74 39.29 120.88 60.91 149.66 68.1 149.66 39.13 111.25"/>
  <line class="cls-4" x1="50.25" y1="125.38" x2="103.33" y2="125.38"/>
  <line class="cls-4" x1="60.07" y1="139.02" x2="113.8" y2="139.02"/>
  <line class="cls-4" x1="55.98" y1="111.51" x2="65.84" y2="124.81"/>
  <line class="cls-4" x1="73.75" y1="111.51" x2="83.61" y2="124.81"/>
  <line class="cls-4" x1="73.12" y1="125.55" x2="82.98" y2="138.85"/>
  <line class="cls-4" x1="90.89" y1="125.55" x2="100.75" y2="138.85"/>
  <line class="cls-4" x1="75.86" y1="139.49" x2="83.4" y2="149.66"/>
  <line class="cls-4" x1="93.63" y1="139.49" x2="100.83" y2="149.19"/>
  <path class="cls-6" d="M69.94,194.08v-27.82c1.31-5.1,5.88-8.67,11.01-8.71,4.8-.04,9.18,3.03,10.85,7.64v28.89h-21.86Z"/>
  <circle class="cls-16" cx="74.52" cy="177.72" r="2.52"/>
  <polygon class="cls-8" points="69.84 194.08 91.85 194.08 97.13 199.35 73.51 199.35 69.84 194.08"/>
  <polygon class="cls-5" points="39.13 111.25 87.74 111.25 92.79 117.48 97.57 117.55 122.37 149.66 68.1 149.66 39.13 111.25"/>
  <polyline class="cls-5" points="39.13 111.25 12.61 148.74 19.64 148.74 39.29 120.88 60.91 149.66 68.1 149.66 39.13 111.25"/>
</svg>