<?xml version="1.0" encoding="UTF-8"?>
<svg id="long_hair" xmlns="http://www.w3.org/2000/svg" xmlns:xlink="http://www.w3.org/1999/xlink" viewBox="0 0 135.36 277.2">
  <defs>
    <pattern id="New_Pattern_5" data-name="New Pattern 5" x="0" y="0" width="4.65" height="5.07" patternTransform="translate(360.95 145.46)" patternUnits="userSpaceOnUse" viewBox="0 0 4.65 5.07">
      <g>
        <rect y="0" width="4.65" height="5.07" fill="none"/>
        <g>
          <path d="M4.98,4.18c-.09-.04-.3-.13-.41-.1-.09.02-.15.19-.21.27-.05.07.16.31.14.42-.02.11-.17.16-.16.27.02.14.01.26.06.36.06.12.12.27.2.29.08.02.14-.14.21-.22.06-.07.03-.2.07-.31.04-.09.1-.13.13-.24.03-.1.09-.17.09-.25,0-.1.15-.23.13-.29-.03-.08-.16-.17-.25-.2Z" fill="#815b51"/>
          <path d="M3.83,3.94c-.17-.15-.58-.51-.8-.55-.18-.03-.39.19-.58.29-.2.11.24.53.18.67-.07.18-.45.21-.25.34.21.12.43.18.75.14.24-.03.59-.03.76-.11.16-.08,0-.26.01-.37,0-.13.1-.26-.07-.41Z" fill="#815b51"/>
        </g>
        <g>
          <path d="M.9,3.63c-.06.06-.19.19-.18.29,0,.08.12.2.16.3.03.09.31-.11.38-.06s0,.28.08.3c.09.02.17.06.26,0,.12-.07.27-.14.36-.29s.03-.26.03-.39c0-.1-.15-.01-.2-.08-.05-.05-.04-.12-.12-.14s-.11-.07-.2-.06c-.1.01-.19-.1-.28-.06-.11.04-.24.13-.3.19Z" fill="#815b51"/>
          <path d="M1.58,4.86c-.09-.04-.29-.13-.39-.07-.09.07-.17.33-.26.47-.09.13.33.24.31.37s-.35.3-.32.4c.05.11.04.22.19.25.18.02.4.05.67-.05s.36-.26.52-.38c.12-.09-.11-.11-.08-.2.02-.07.11-.13.05-.19s-.02-.12-.12-.16c-.1-.06-.07-.16-.18-.21-.12-.07-.29-.18-.38-.22Z" fill="#815b51"/>
          <path d="M.33,4.18c-.09-.04-.3-.13-.41-.1-.09.02-.15.19-.21.27-.05.07.16.31.14.42-.02.11-.17.16-.16.27.02.14.01.26.06.36.06.12.12.27.2.29.08.02.14-.14.21-.22.06-.07.03-.2.07-.31.04-.09.1-.13.13-.24.03-.1.09-.17.09-.25,0-.1.15-.23.13-.29-.03-.08-.16-.17-.25-.2Z" fill="#815b51"/>
        </g>
        <g>
          <path d="M.64,3.51c-.04.17-.12.57-.05.68.06.09.31.02.43.04.11.01.25-.4.37-.42s.26.14.36.09c.11-.06.22-.09.26-.16.04-.07.1-.15.03-.22s-.22-.12-.32-.19c-.08-.07-.13,0-.22-.06-.08-.05-.12-.12-.2-.14s-.13-.1-.19-.08c-.08.03-.19-.19-.25-.1-.08.11-.18.4-.21.57Z" fill="#815b51"/>
          <path d="M3.23,1.09c-.06.06-.19.19-.18.29,0,.08.12.2.16.3.03.09.31-.11.38-.06s0,.28.08.3c.09.02.17.06.26,0,.12-.07.27-.14.36-.29s.03-.26.03-.39c0-.1-.15-.01-.2-.08-.05-.05-.04-.12-.12-.14s-.11-.07-.2-.06c-.1.01-.19-.1-.28-.06-.11.04-.24.13-.3.19Z" fill="#815b51"/>
          <path d="M3.9,2.33c-.09-.04-.29-.13-.39-.07-.09.07-.17.33-.26.47-.09.13.33.24.31.37s-.35.3-.32.4c.05.11.04.22.19.25.18.02.4.05.67-.05s.36-.26.52-.38c.12-.09-.11-.11-.08-.2.02-.07.11-.13.05-.19s-.02-.12-.12-.16c-.1-.06-.07-.16-.18-.21-.12-.07-.29-.18-.38-.22Z" fill="#815b51"/>
          <path d="M2.65,1.64c-.09-.04-.3-.13-.41-.1-.09.02-.15.19-.21.27-.05.07.16.31.14.42-.02.11-.17.16-.16.27.02.14.01.26.06.36.06.12.12.27.2.29.08.02.14-.14.21-.22.06-.07.03-.2.07-.31.04-.09.1-.13.13-.24.03-.1.09-.17.09-.25,0-.1.15-.23.13-.29-.03-.08-.16-.17-.25-.2Z" fill="#815b51"/>
          <path d="M1.51,1.4c-.17-.15-.58-.51-.8-.55-.18-.03-.39.19-.58.29-.2.11.24.53.18.67-.07.18-.45.21-.25.34.21.12.43.18.75.14.24-.03.59-.03.76-.11.16-.08,0-.26.01-.37,0-.13.1-.26-.07-.41Z" fill="#815b51"/>
        </g>
        <g>
          <path d="M2.97.97c-.04.17-.12.57-.05.68.06.09.31.02.43.04.11.01.25-.4.37-.42s.26.14.36.09c.11-.06.22-.09.26-.16.04-.07.1-.15.03-.22s-.22-.12-.32-.19c-.08-.07-.13,0-.22-.06-.08-.05-.12-.12-.2-.14s-.13-.1-.19-.08c-.08.03-.19-.19-.25-.1-.08.11-.18.4-.21.57Z" fill="#815b51"/>
          <path d="M4.98-.9c-.09-.04-.3-.13-.41-.1-.09.02-.15.19-.21.27-.05.07.16.31.14.42-.02.11-.17.16-.16.27.02.14.01.26.06.36.06.12.12.27.2.29.08.02.14-.14.21-.22.06-.07.03-.2.07-.31.04-.09.1-.13.13-.24.03-.1.09-.17.09-.25,0-.1.15-.23.13-.29-.03-.08-.16-.17-.25-.2Z" fill="#815b51"/>
        </g>
        <g>
          <path d="M1.58-.21c-.09-.04-.29-.13-.39-.07-.09.07-.17.33-.26.47-.09.13.33.24.31.37s-.35.3-.32.4c.05.11.04.22.19.25.18.02.4.05.67-.05s.36-.26.52-.38c.12-.09-.11-.11-.08-.2.02-.07.11-.13.05-.19s-.02-.12-.12-.16c-.1-.06-.07-.16-.18-.21-.12-.07-.29-.18-.38-.22Z" fill="#815b51"/>
          <path d="M.33-.9c-.09-.04-.3-.13-.41-.1-.09.02-.15.19-.21.27-.05.07.16.31.14.42-.02.11-.17.16-.16.27.02.14.01.26.06.36.06.12.12.27.2.29.08.02.14-.14.21-.22.06-.07.03-.2.07-.31C.28,0,.34-.04.37-.15c.03-.1.09-.17.09-.25,0-.1.15-.23.13-.29-.03-.08-.16-.17-.25-.2Z" fill="#815b51"/>
        </g>
      </g>
    </pattern>
  </defs>
  <g id="storage_room">
    <rect x="-3.13" y="-4.29" width="141.65" height="282.3" fill="#ccc2c2"/>
    <line x1="18.17" y1="173.77" x2="18.17" y2="-10.89" fill="none" stroke="#aaa3a4" stroke-miterlimit="10" stroke-width=".5"/>
    <line x1="117.34" y1="173.77" x2="117.34" y2="-10.89" fill="none" stroke="#aaa3a4" stroke-miterlimit="10" stroke-width=".5"/>
    <polygon points="138.65 278.32 -3.05 278.32 18.04 173.76 117.56 173.76 138.65 278.32" fill="#845e51"/>
    <polygon points="138.65 278.32 -3.05 278.32 18.04 173.76 117.56 173.76 138.65 278.32" fill="url(#New_Pattern_5)"/>
    <rect x="26.45" y="79.06" width="81.63" height="4.89" fill="#725047" stroke="#5b3f3b" stroke-miterlimit="10" stroke-width=".25"/>
    <polygon points="108.08 78.91 26.45 78.91 32.1 68.51 102.42 68.51 108.08 78.91" fill="#845e51" stroke="#5b3f3b" stroke-miterlimit="10" stroke-width=".25"/>
    <rect x="26.45" y="42.14" width="81.63" height="4.89" fill="#725047" stroke="#5b3f3b" stroke-miterlimit="10" stroke-width=".25"/>
    <polygon points="108.08 41.99 26.45 41.99 32.1 31.59 102.42 31.59 108.08 41.99" fill="#845e51" stroke="#5b3f3b" stroke-miterlimit="10" stroke-width=".25"/>
    <ellipse cx="11.23" cy="96.29" rx="2.22" ry="5.07" fill="#a8a5a5" stroke="#727271" stroke-miterlimit="10" stroke-width=".25"/>
    <ellipse cx="125.18" cy="96.38" rx="2.22" ry="5.07" fill="#a8a5a5" stroke="#727271" stroke-miterlimit="10" stroke-width=".25"/>
    <path d="M11.73,94.96c37.7,0,75.4-.02,113.1-.02.57.27.92.84.91,1.45-.02.58-.36,1.1-.88,1.36-37.71,0-75.41,0-113.12,0-.55-.24-.92-.78-.92-1.38,0-.61.36-1.16.92-1.4Z" fill="#a8a5a5" stroke="#727271" stroke-miterlimit="10" stroke-width=".25"/>
    <rect x="40.97" y="68.66" width="52.28" height="6.88" rx="2.16" ry="2.16" fill="#d7f5f7"/>
    <path d="M40.98,72.79c-.03.24-.04.6.06,1.01.04.17.09.37.21.6.31.59.83.85,1,.93.15.07.38.15.69.18h48.27c.17,0,.45-.04.76-.17.09-.04.39-.18.67-.47.39-.4.52-.86.57-1.08-.2.19-.59.5-1.17.69-.46.15-.87.16-1.13.14h-47.75c-.23-.01-.53-.06-.85-.21-.95-.44-1.27-1.41-1.34-1.62Z" fill="#b4cbcc"/>
    <rect x="40.97" y="62.24" width="52.28" height="6.88" rx="2.16" ry="2.16" fill="#f9efef"/>
    <path d="M40.98,66.37c-.03.24-.04.6.06,1.01.04.17.09.37.21.6.31.59.83.85,1,.93.15.07.38.15.69.18h48.27c.17,0,.45-.04.76-.17.09-.04.39-.18.67-.47.39-.4.52-.86.57-1.08-.2.19-.59.5-1.17.69-.46.15-.87.16-1.13.14h-47.75c-.23-.01-.53-.06-.85-.21-.95-.44-1.27-1.41-1.34-1.62Z" fill="#ddd7d7"/>
    <rect x="40.97" y="55.82" width="52.28" height="6.88" rx="2.16" ry="2.16" fill="#8ebc80"/>
    <path d="M40.98,59.95c-.03.24-.04.6.06,1.01.04.17.09.37.21.6.31.59.83.85,1,.93.15.07.38.15.69.18h48.27c.17,0,.45-.04.76-.17.09-.04.39-.18.67-.47.39-.4.52-.86.57-1.08-.2.19-.59.5-1.17.69-.46.15-.87.16-1.13.14h-47.75c-.23-.01-.53-.06-.85-.21-.95-.44-1.27-1.41-1.34-1.62Z" fill="#7fa572"/>
    <rect x="40.97" y="49.4" width="52.28" height="6.88" rx="2.16" ry="2.16" fill="#64b2bf"/>
    <path d="M40.98,53.53c-.03.24-.04.6.06,1.01.04.17.09.37.21.6.31.59.83.85,1,.93.15.07.38.15.69.18h48.27c.17,0,.45-.04.76-.17.09-.04.39-.18.67-.47.39-.4.52-.86.57-1.08-.2.19-.59.5-1.17.69-.46.15-.87.16-1.13.14h-47.75c-.23-.01-.53-.06-.85-.21-.95-.44-1.27-1.41-1.34-1.62Z" fill="#53949b"/>
  </g>
</svg>