<?xml version="1.0" encoding="UTF-8"?>
<svg id="long_hair" xmlns="http://www.w3.org/2000/svg" xmlns:xlink="http://www.w3.org/1999/xlink" viewBox="0 0 136.8 277.57">
  <defs>
    <pattern id="New_Pattern_5" data-name="New Pattern 5" x="0" y="0" width="4.65" height="5.07" patternTransform="translate(251.87 32.74) scale(.98)" patternUnits="userSpaceOnUse" viewBox="0 0 4.65 5.07">
      <g>
        <rect y="0" width="4.65" height="5.07" fill="none"/>
        <g>
          <path d="M4.98,4.18c-.09-.04-.3-.13-.41-.1-.09.02-.15.19-.21.27-.05.07.16.31.14.42-.02.11-.17.16-.16.27.02.14.01.26.06.36.06.12.12.27.2.29.08.02.14-.14.21-.22.06-.07.03-.2.07-.31.04-.09.1-.13.13-.24.03-.1.09-.17.09-.25,0-.1.15-.23.13-.29-.03-.08-.16-.17-.25-.2Z" fill="#815b51"/>
          <path d="M3.83,3.94c-.17-.15-.58-.51-.8-.55-.18-.03-.39.19-.58.29-.2.11.24.53.18.67-.07.18-.45.21-.25.34.21.12.43.18.75.14.24-.03.59-.03.76-.11.16-.08,0-.26.01-.37,0-.13.1-.26-.07-.41Z" fill="#815b51"/>
        </g>
        <g>
          <path d="M.9,3.63c-.06.06-.19.19-.18.29,0,.08.12.2.16.3.03.09.31-.11.38-.06s0,.28.08.3c.09.02.17.06.26,0,.12-.07.27-.14.36-.29s.03-.26.03-.39c0-.1-.15-.01-.2-.08-.05-.05-.04-.12-.12-.14s-.11-.07-.2-.06c-.1.01-.19-.1-.28-.06-.11.04-.24.13-.3.19Z" fill="#815b51"/>
          <path d="M1.58,4.86c-.09-.04-.29-.13-.39-.07-.09.07-.17.33-.26.47-.09.13.33.24.31.37s-.35.3-.32.4c.05.11.04.22.19.25.18.02.4.05.67-.05s.36-.26.52-.38c.12-.09-.11-.11-.08-.2.02-.07.11-.13.05-.19s-.02-.12-.12-.16c-.1-.06-.07-.16-.18-.21-.12-.07-.29-.18-.38-.22Z" fill="#815b51"/>
          <path d="M.33,4.18c-.09-.04-.3-.13-.41-.1-.09.02-.15.19-.21.27-.05.07.16.31.14.42-.02.11-.17.16-.16.27.02.14.01.26.06.36.06.12.12.27.2.29.08.02.14-.14.21-.22.06-.07.03-.2.07-.31.04-.09.1-.13.13-.24.03-.1.09-.17.09-.25,0-.1.15-.23.13-.29-.03-.08-.16-.17-.25-.2Z" fill="#815b51"/>
        </g>
        <g>
          <path d="M.64,3.51c-.04.17-.12.57-.05.68.06.09.31.02.43.04.11.01.25-.4.37-.42s.26.14.36.09c.11-.06.22-.09.26-.16.04-.07.1-.15.03-.22s-.22-.12-.32-.19c-.08-.07-.13,0-.22-.06-.08-.05-.12-.12-.2-.14s-.13-.1-.19-.08c-.08.03-.19-.19-.25-.1-.08.11-.18.4-.21.57Z" fill="#815b51"/>
          <path d="M3.23,1.09c-.06.06-.19.19-.18.29,0,.08.12.2.16.3.03.09.31-.11.38-.06s0,.28.08.3c.09.02.17.06.26,0,.12-.07.27-.14.36-.29s.03-.26.03-.39c0-.1-.15-.01-.2-.08-.05-.05-.04-.12-.12-.14s-.11-.07-.2-.06c-.1.01-.19-.1-.28-.06-.11.04-.24.13-.3.19Z" fill="#815b51"/>
          <path d="M3.9,2.33c-.09-.04-.29-.13-.39-.07-.09.07-.17.33-.26.47-.09.13.33.24.31.37s-.35.3-.32.4c.05.11.04.22.19.25.18.02.4.05.67-.05s.36-.26.52-.38c.12-.09-.11-.11-.08-.2.02-.07.11-.13.05-.19s-.02-.12-.12-.16c-.1-.06-.07-.16-.18-.21-.12-.07-.29-.18-.38-.22Z" fill="#815b51"/>
          <path d="M2.65,1.64c-.09-.04-.3-.13-.41-.1-.09.02-.15.19-.21.27-.05.07.16.31.14.42-.02.11-.17.16-.16.27.02.14.01.26.06.36.06.12.12.27.2.29.08.02.14-.14.21-.22.06-.07.03-.2.07-.31.04-.09.1-.13.13-.24.03-.1.09-.17.09-.25,0-.1.15-.23.13-.29-.03-.08-.16-.17-.25-.2Z" fill="#815b51"/>
          <path d="M1.51,1.4c-.17-.15-.58-.51-.8-.55-.18-.03-.39.19-.58.29-.2.11.24.53.18.67-.07.18-.45.21-.25.34.21.12.43.18.75.14.24-.03.59-.03.76-.11.16-.08,0-.26.01-.37,0-.13.1-.26-.07-.41Z" fill="#815b51"/>
        </g>
        <g>
          <path d="M2.97.97c-.04.17-.12.57-.05.68.06.09.31.02.43.04.11.01.25-.4.37-.42s.26.14.36.09c.11-.06.22-.09.26-.16.04-.07.1-.15.03-.22s-.22-.12-.32-.19c-.08-.07-.13,0-.22-.06-.08-.05-.12-.12-.2-.14s-.13-.1-.19-.08c-.08.03-.19-.19-.25-.1-.08.11-.18.4-.21.57Z" fill="#815b51"/>
          <path d="M4.98-.9c-.09-.04-.3-.13-.41-.1-.09.02-.15.19-.21.27-.05.07.16.31.14.42-.02.11-.17.16-.16.27.02.14.01.26.06.36.06.12.12.27.2.29.08.02.14-.14.21-.22.06-.07.03-.2.07-.31.04-.09.1-.13.13-.24.03-.1.09-.17.09-.25,0-.1.15-.23.13-.29-.03-.08-.16-.17-.25-.2Z" fill="#815b51"/>
        </g>
        <g>
          <path d="M1.58-.21c-.09-.04-.29-.13-.39-.07-.09.07-.17.33-.26.47-.09.13.33.24.31.37s-.35.3-.32.4c.05.11.04.22.19.25.18.02.4.05.67-.05s.36-.26.52-.38c.12-.09-.11-.11-.08-.2.02-.07.11-.13.05-.19s-.02-.12-.12-.16c-.1-.06-.07-.16-.18-.21-.12-.07-.29-.18-.38-.22Z" fill="#815b51"/>
          <path d="M.33-.9c-.09-.04-.3-.13-.41-.1-.09.02-.15.19-.21.27-.05.07.16.31.14.42-.02.11-.17.16-.16.27.02.14.01.26.06.36.06.12.12.27.2.29.08.02.14-.14.21-.22.06-.07.03-.2.07-.31C.28,0,.34-.04.37-.15c.03-.1.09-.17.09-.25,0-.1.15-.23.13-.29-.03-.08-.16-.17-.25-.2Z" fill="#815b51"/>
        </g>
      </g>
    </pattern>
  </defs>
  <g id="storage_room">
    <rect x="-1.33" y=".22" width="139.48" height="277.98" fill="#ccc2c2"/>
    <line x1="19.65" y1="175.55" x2="19.65" y2="-.17" fill="none" stroke="#aaa3a4" stroke-miterlimit="10" stroke-width=".5"/>
    <line x1="117.3" y1="175.55" x2="117.3" y2=".29" fill="none" stroke="#aaa3a4" stroke-miterlimit="10" stroke-width=".5"/>
    <polygon points="138.29 278.5 -1.25 278.5 19.52 175.54 117.52 175.54 138.29 278.5" fill="#845e51"/>
    <polygon points="138.29 278.5 -1.25 278.5 19.52 175.54 117.52 175.54 138.29 278.5" fill="url(#New_Pattern_5)"/>
    <rect x="27.8" y="82.29" width="80.38" height="4.82" fill="#725047" stroke="#5b3f3b" stroke-miterlimit="10" stroke-width=".25"/>
    <polygon points="108.18 82.14 27.8 82.14 33.37 71.9 102.61 71.9 108.18 82.14" fill="#845e51" stroke="#5b3f3b" stroke-miterlimit="10" stroke-width=".25"/>
    <rect x="27.8" y="45.94" width="80.38" height="4.82" fill="#725047" stroke="#5b3f3b" stroke-miterlimit="10" stroke-width=".25"/>
    <polygon points="108.18 45.79 27.8 45.79 33.37 35.55 102.61 35.55 108.18 45.79" fill="#845e51" stroke="#5b3f3b" stroke-miterlimit="10" stroke-width=".25"/>
    <ellipse cx="12.81" cy="99.25" rx="2.19" ry="5" fill="#a8a5a5" stroke="#727271" stroke-miterlimit="10" stroke-width=".25"/>
    <ellipse cx="125.02" cy="99.35" rx="2.19" ry="5" fill="#a8a5a5" stroke="#727271" stroke-miterlimit="10" stroke-width=".25"/>
    <path d="M13.3,97.95c37.12,0,74.25-.02,111.37-.02.56.26.91.83.89,1.43-.02.57-.35,1.08-.87,1.34-37.13,0-74.26,0-111.39,0-.55-.23-.9-.77-.91-1.36,0-.6.36-1.14.91-1.38Z" fill="#a8a5a5" stroke="#727271" stroke-miterlimit="10" stroke-width=".25"/>
    <rect x="42.1" y="72.05" width="51.48" height="6.77" rx="2.16" ry="2.16" fill="#d7f5f7"/>
    <path d="M42.11,76.12c-.03.23-.04.59.06,1,.04.17.08.36.21.59.31.58.82.84.99.91.14.07.38.15.68.18h47.53c.17,0,.45-.04.75-.17.09-.04.38-.17.66-.46.38-.4.52-.84.56-1.06-.2.19-.58.49-1.15.68-.46.15-.86.16-1.11.14h-47.02c-.23-.01-.52-.06-.84-.21-.94-.44-1.25-1.39-1.32-1.6Z" fill="#b4cbcc"/>
    <rect x="42.1" y="65.73" width="51.48" height="6.77" rx="2.16" ry="2.16" fill="#f9efef"/>
    <path d="M42.11,69.8c-.03.23-.04.59.06,1,.04.17.08.36.21.59.31.58.82.84.99.91.14.07.38.15.68.18h47.53c.17,0,.45-.04.75-.17.09-.04.38-.17.66-.46.38-.4.52-.84.56-1.06-.2.19-.58.49-1.15.68-.46.15-.86.16-1.11.14h-47.02c-.23-.01-.52-.06-.84-.21-.94-.44-1.25-1.39-1.32-1.6Z" fill="#ddd7d7"/>
    <rect x="42.1" y="59.41" width="51.48" height="6.77" rx="2.16" ry="2.16" fill="#8ebc80"/>
    <path d="M42.11,63.47c-.03.23-.04.59.06,1,.04.17.08.36.21.59.31.58.82.84.99.91.14.07.38.15.68.18h47.53c.17,0,.45-.04.75-.17.09-.04.38-.17.66-.46.38-.4.52-.84.56-1.06-.2.19-.58.49-1.15.68-.46.15-.86.16-1.11.14h-47.02c-.23-.01-.52-.06-.84-.21-.94-.44-1.25-1.39-1.32-1.6Z" fill="#7fa572"/>
    <rect x="42.1" y="53.09" width="51.48" height="6.77" rx="2.16" ry="2.16" fill="#64b2bf"/>
    <path d="M42.11,57.15c-.03.23-.04.59.06,1,.04.17.08.36.21.59.31.58.82.84.99.91.14.07.38.15.68.18h47.53c.17,0,.45-.04.75-.17.09-.04.38-.17.66-.46.38-.4.52-.84.56-1.06-.2.19-.58.49-1.15.68-.46.15-.86.16-1.11.14h-47.02c-.23-.01-.52-.06-.84-.21-.94-.44-1.25-1.39-1.32-1.6Z" fill="#53949b"/>
  </g>
</svg>