<?xml version="1.0" encoding="UTF-8"?><svg id="avatar_lawn" xmlns="http://www.w3.org/2000/svg" viewBox="0 0 26.39 65.58"><path d="M6.07,58.75h4.72c.06-2.08.12-4.16.18-6.24l-4.49-.38c-.14,2.21-.27,4.41-.41,6.62Z" fill="#f2a36e" stroke="#895527" stroke-linecap="round" stroke-linejoin="round" stroke-width=".75"/><path d="M20.61,58.75h-4.72c-.06-2.08-.12-4.16-.18-6.24l4.49-.38c.14,2.21.27,4.41.41,6.62Z" fill="#f2a36e" stroke="#895527" stroke-linecap="round" stroke-linejoin="round" stroke-width=".75"/><path d="M21.06,14.85c.08-.17.63-1.38,1.38-1.38.84,0,1.52,1.52,1.45,2.75-.05.83-.47,1.94-1.41,2.37-.52.24-1,.16-1.95,0-1.43-.24-2.19-.36-2.6-.99-.59-.92-.29-2.71.92-3.21.69-.28,1.54-.09,2.22.46Z" fill="#f2a36e" stroke="#895527" stroke-linecap="round" stroke-linejoin="round" stroke-width=".75"/><path d="M4.41,15.21c-.08-.17-.63-1.38-1.38-1.38-.84,0-1.52,1.52-1.45,2.75.05.83.47,1.94,1.41,2.37.52.24,1,.16,1.95,0,1.43-.24,2.19-.36,2.6-.99.59-.92.29-2.71-.92-3.21-.69-.28-1.54-.09-2.22.46Z" fill="#f2a36e" stroke="#895527" stroke-linecap="round" stroke-linejoin="round" stroke-width=".75"/><ellipse cx="13.2" cy="62.92" rx="13.2" ry="2.67" fill="#dfd5c9"/><path id="Neck" d="M9.95,23.06c0,1.99.24,2.56-1.5,3.28.27.26,2.54,3.61,3.72,3.75,1.9.22,4.59-3.64,4.74-3.8-1.73-.77-1.37-1.34-1.37-3.26-1.86.01-3.72.02-5.58.03Z" fill="#f2a36e" stroke="#895527" stroke-linecap="round" stroke-linejoin="round" stroke-width=".75"/><path id="Face" d="M5.32,7.42c-.66,2.97-.79,5.44-.77,7.18.02,2.29.04,3.62.77,5.2.34.73,1.4,2.95,3.97,4.13,3.08,1.42,5.97.26,6.57,0,.4-.17,2.62-1.16,3.97-3.59.39-.7.87-1.8,1.07-5.58.09-1.79.13-4.31-.14-7.34H5.32Z" fill="#f2a36e" stroke="#895527" stroke-linecap="round" stroke-linejoin="round" stroke-width=".75"/><path d="M10.2,20c.27.21,1.2.86,2.56.84,1.26-.02,2.13-.63,2.41-.84" fill="none" stroke="#3b2d1b" stroke-linecap="round" stroke-linejoin="round" stroke-width=".75"/><path d="M3.3,32.43c-.2.31-.2.63-.2.77-.03,1.81-.37,3.89-1.06,8.04-.11.68-.32,1.74-.69,3.04,0,0,.21,1.56,1.43,2.46.16.11.44.32.78.25.23-.04.38-.2.43-.25.21-.23.21-.52.21-.66,0-.31-.11-.52-.18-.69-.35-.82-.19-1.57-.2-1.57-.01,0-.17,1.02.34,1.38.06.04.29.21.58.15.21-.04.34-.18.4-.24.19-.2.26-.45.29-.7.06-.53.01-1.82-.18-3.52.72-1.6,3.34-7.68,1.61-9-.81-.62-2.93-.46-3.56.53Z" fill="#f2a36e" stroke="#895527" stroke-linecap="round" stroke-linejoin="round" stroke-width=".75"/><path d="M21.52,31.95c.55.32.83.77.95.99.42,2.75.88,5.55,1.4,8.39.19,1.03.38,2.05.57,3.06,0,0-.26,1.56-1.52,2.4-.16.11-.45.3-.79.22-.23-.05-.37-.21-.42-.26-.2-.24-.19-.52-.19-.67.01-.31.13-.51.21-.68.38-.81.25-1.56.26-1.56.01,0,.14,1.02-.39,1.37-.06.04-.3.2-.59.13-.21-.05-.34-.19-.39-.25-.18-.2-.24-.46-.26-.71-.04-.53.06-1.82.31-3.51-1.15-2.18-1.82-4.16-2.03-5.74-.15-1.09-.19-2.75.76-3.31.59-.35,1.49-.22,2.12.14Z" fill="#f2a36e" stroke="#895527" stroke-linecap="round" stroke-linejoin="round" stroke-width=".75"/><g id="Shoes"><path d="M10.97,58.75v3.13c-1.48,1.02-2.81,1.38-3.62,1.53-.59.11-3.53.65-4.17-.61-.32-.63.03-1.5.11-1.69.22-.55.56-.87,1.11-1.37.5-.46.97-.78,1.33-.99h5.25Z" fill="#543d25" stroke="#3c2424" stroke-linecap="round" stroke-linejoin="round" stroke-width=".75"/><path d="M15.71,58.75v3.13c1.48,1.02,2.81,1.38,3.62,1.53.59.11,3.53.65,4.17-.61.32-.63-.03-1.5-.11-1.69-.22-.55-.56-.87-1.11-1.37-.5-.46-.97-.78-1.33-.99h-5.25Z" fill="#543d25" stroke="#3c2424" stroke-linecap="round" stroke-linejoin="round" stroke-width=".75"/></g><path id="Pants" d="M6.44,40.9h12.92c.68,5.89,1.36,11.77,2.04,17.66-.64.21-1.51.43-2.55.49-1.44.08-2.62-.18-3.39-.42-.64-4.64-1.27-9.27-1.91-13.91h-1.08c-.51,4.64-1.01,9.27-1.52,13.91-.67.22-1.77.48-3.13.38-1.11-.08-2-.37-2.6-.61.41-5.83.82-11.67,1.22-17.5Z" fill="#3c6581" stroke="#2e4759" stroke-miterlimit="10" stroke-width=".75"/><path id="Shirt" d="M6.8,31.08c-.15,3.45-.29,6.89-.44,10.34,1.54.49,3.77,1.02,6.5,1.06,2.88.04,5.23-.47,6.82-.94-.14-3.48-.28-6.95-.42-10.43.04,1,.08,2.01.12,3.01,1.42,0,2.84.01,4.26.02-.53-2.49-1.05-4.4-1.41-5.35-.11-.3-.3-.76-.74-1.15-.41-.37-.85-.5-1.1-.57-1-.29-2.38-.69-4.08-1.15-.58,1.49-2.02,2.47-3.61,2.46-1.58,0-3.01-.99-3.58-2.46-1.69.53-2.99.96-3.72,1.18-.26.08-.79.24-1.34.68-.12.1-.24.2-.35.33-.46.51-.6,1-1.1,2.97-.27,1.08-.49,1.92-.6,2.35,1.5.24,2.99.48,4.49.72" fill="#f1e6d2" stroke="#6a645b" stroke-linecap="round" stroke-linejoin="round" stroke-width=".75"/><path id="Hair" d="M20.84,14.09c.56-.25,1.13-.51,1.69-.76.31-.87,1.15-3.58,0-6.5-1.48-3.76-5.16-5.06-6.61-5.58-1.42-.5-4.75-1.68-8.22,0-3.07,1.49-4.33,4.29-4.66,5.12-.27,1-.54,2.42-.46,4.13.05,1.14.25,2.12.46,2.9.56.36,1.12.71,1.68,1.07,0-.54.02-1.18.14-1.89.2-1.2.59-2.17.93-2.87,1.32.27,3.43.53,5.96.09,2.99-.51,5.16-1.76,6.34-2.56.28,1.21.76,1.98,1.15,2.47.58.72,1.15,1.06,1.45,1.99.18.54.21,1.14.21,1.22.02.47-.02.87-.08,1.16Z" fill="#513727" stroke="#3d1f0c" stroke-linecap="round" stroke-linejoin="round" stroke-width=".75"/><path d="M6.67,12.82c.13-.15.72-.81,1.73-.93.96-.11,1.65.33,1.83.45" fill="none" stroke="#3b2d1b" stroke-linecap="round" stroke-linejoin="round" stroke-width=".75"/><path d="M15.14,12.29c.17-.11.92-.56,1.93-.38.95.17,1.49.8,1.62.96" fill="none" stroke="#3b2d1b" stroke-linecap="round" stroke-linejoin="round" stroke-width=".75"/><path d="M13.3,18.52c-.1.06-.31.16-.61.17-.31,0-.53-.11-.63-.17" fill="none" stroke="#cf8950" stroke-linecap="round" stroke-linejoin="round" stroke-width=".75"/><g id="Eyes"><path d="M10.33,16.02c0,1.17-.71,2.13-1.59,2.13s-1.59-.95-1.59-2.13.71-2.13,1.59-2.13c.64,0,1.11.61,1.19.72.44.57.4,1.21.4,1.41Z" fill="#ffeed4"/><path d="M10.34,15.82c0,1.05-.52,1.89-1.16,1.89s-1.16-.85-1.16-1.89.52-1.89,1.16-1.89c.46,0,.8.54.87.64.32.51.29,1.08.29,1.25Z" fill="#452a06"/><path d="M7.39,14.76c.28-.5.81-.82,1.38-.83.96-.01,1.49.88,1.47.91-.03.03-.6-.68-1.42-.7-.6-.02-1.1.34-1.42.63Z" fill="none" stroke="#452a06" stroke-linecap="square" stroke-linejoin="round" stroke-width=".25"/><path d="M18.18,16.02c0,1.17-.71,2.13-1.59,2.13s-1.59-.95-1.59-2.13.71-2.13,1.59-2.13c.64,0,1.11.61,1.19.72.44.57.4,1.21.4,1.41Z" fill="#ffeed4"/><path d="M17.42,15.82c0,1.05-.54,1.89-1.22,1.89s-1.22-.85-1.22-1.89.54-1.89,1.22-1.89c.49,0,.85.54.91.64.34.51.31,1.08.31,1.25Z" fill="#452a06"/><path d="M15.23,14.76c.28-.5.81-.82,1.38-.83.96-.01,1.49.88,1.47.91-.03.03-.6-.68-1.42-.7-.6-.02-1.1.34-1.42.63Z" fill="none" stroke="#452a06" stroke-linecap="square" stroke-linejoin="round" stroke-width=".25"/><ellipse cx="9.35" cy="15.29" rx=".32" ry=".47" fill="#bcafa0"/><ellipse cx="16.1" cy="15.29" rx=".32" ry=".47" fill="#bcafa0"/></g></svg>