<?xml version="1.0" encoding="UTF-8"?><svg id="dress" xmlns="http://www.w3.org/2000/svg" viewBox="0 0 21.92 29.65"><path id="Shirt" d="M4.96,5.62c0,3.39-.02,6.78-.02,10.17,1.3.52,3.41,1.19,6.09,1.23,2.91.05,5.2-.66,6.54-1.19-.11-1.59-.18-3.26-.21-5.01-.03-1.81,0-3.53.07-5.17-.01.99-.02,1.99-.03,2.98,1.36-.83,2.71-1.66,4.07-2.49-.33-.92-.68-1.86-1.07-2.81-.14-.34-.31-.77-.74-1.15-.41-.37-.85-.5-1.1-.57-1-.29-2.38-.69-4.08-1.15-.58,1.49-2.02,2.47-3.61,2.46-1.58,0-3.01-.99-3.58-2.46-1.69.53-2.99.96-3.72,1.18-.26.08-.79.24-1.34.68,0,0-.18.15-.35.33-.49.53-1.07,2.14-1.46,4.34,1.52.6,3.04,1.2,4.56,1.81,0-1.06-.02-2.12-.02-3.18Z" fill="#3c6581" stroke="#2e4759" stroke-miterlimit="10" stroke-width=".75"/><path d="M4.93,13.96c1.53.45,3.8.93,6.57.84,2.49-.08,4.53-.59,5.96-1.07.21,2.22.5,4.09.76,5.5.77,4.11,1.61,6.25,1.84,6.83.3.73.57,1.32.76,1.72-2.21.7-5.43,1.46-9.38,1.49-3.94.03-7.17-.67-9.38-1.34.22-.44.53-1.08.84-1.87.43-1.09.97-2.75,1.5-6.81.18-1.39.38-3.18.52-5.29Z" fill="#3c6581" stroke="#2e4759" stroke-miterlimit="10" stroke-width=".75"/></svg>