<?xml version="1.0" encoding="UTF-8"?>
<svg id="avatar_lawn" xmlns="http://www.w3.org/2000/svg" viewBox="0 0 26.39 65.58">
  <defs>
    <style>
      .cls-1 {
        fill: #452a06;
      }

      .cls-2 {
        fill: none;
        stroke: #452a06;
        stroke-linecap: square;
        stroke-linejoin: round;
        stroke-width: .25px;
      }

      .cls-3 {
        fill: #ffeed4;
      }

      .cls-4 {
        fill: #bcafa0;
      }
    </style>
  </defs>
  <g id="Eyes">
    <path class="cls-3" d="M10.33,16.02c0,1.17-.71,2.13-1.59,2.13s-1.59-.95-1.59-2.13.71-2.13,1.59-2.13c.64,0,1.11.61,1.19.72.44.57.4,1.21.4,1.41Z"/>
    <path class="cls-1" d="M10.34,15.82c0,1.05-.52,1.89-1.16,1.89s-1.16-.85-1.16-1.89.52-1.89,1.16-1.89c.46,0,.8.54.87.64.32.51.29,1.08.29,1.25Z"/>
    <path class="cls-2" d="M7.39,14.76c.28-.5.81-.82,1.38-.83.96-.01,1.49.88,1.47.91-.03.03-.6-.68-1.42-.7-.6-.02-1.1.34-1.42.63Z"/>
    <path class="cls-3" d="M18.18,16.02c0,1.17-.71,2.13-1.59,2.13s-1.59-.95-1.59-2.13.71-2.13,1.59-2.13c.64,0,1.11.61,1.19.72.44.57.4,1.21.4,1.41Z"/>
    <path class="cls-1" d="M17.42,15.82c0,1.05-.54,1.89-1.22,1.89s-1.22-.85-1.22-1.89.54-1.89,1.22-1.89c.49,0,.85.54.91.64.34.51.31,1.08.31,1.25Z"/>
    <path class="cls-2" d="M15.23,14.76c.28-.5.81-.82,1.38-.83.96-.01,1.49.88,1.47.91-.03.03-.6-.68-1.42-.7-.6-.02-1.1.34-1.42.63Z"/>
    <ellipse class="cls-4" cx="9.35" cy="15.29" rx=".32" ry=".47"/>
    <ellipse class="cls-4" cx="16.1" cy="15.29" rx=".32" ry=".47"/>
  </g>
</svg>