<?xml version="1.0" encoding="UTF-8"?><svg id="long_hair" xmlns="http://www.w3.org/2000/svg" viewBox="0 0 27.14 28.16"><path d="M.38,27.35c3.82.34,8.13.52,12.84.38,5.02-.15,9.56-.64,13.55-1.27-1.51-2.8-3.03-5.61-4.54-8.41H4.27c-1.3,3.1-2.6,6.2-3.9,9.3Z" fill="#513727" stroke="#3d1f0c" stroke-linecap="round" stroke-linejoin="round" stroke-width=".75"/><path id="Hair" d="M20.23,24.53c.54.98,2.02,2.07,6.54,1.94-.56-.87-1.38-2.31-1.94-4.23-.98-3.39-.2-5.03-.82-9.98-.34-2.72-.5-4.08-1.26-5.52-2.02-3.86-5.85-5.31-6.61-5.58-1.09-.39-4.51-1.55-8.22,0-.64.26-3.55,1.48-4.99,4.41-.58,1.18-.75,2.3-.98,3.78-.24,1.57-.26,2.82-.23,4.48.11,6.14.64,7.28.05,9.85-.38,1.65-.99,2.91-1.41,3.67,4.58-.34,6.15-1.62,6.67-2.82,1.27-2.87-2.94-6.35-1.96-12.04.22-1.31.66-2.31.93-2.87,1.32.27,3.43.53,5.96.09,2.99-.51,5.16-1.76,6.34-2.56.28,1.21.76,1.98,1.15,2.47.58.72,1.15,1.06,1.45,1.99.04.13.2.57.21,1.22.02.95-2.41,8.97-.9,11.7Z" fill="#513727" stroke="#3d1f0c" stroke-linecap="round" stroke-linejoin="round" stroke-width=".75"/></svg>