<?xml version="1.0" encoding="UTF-8"?>
<svg id="avatar_lawn" xmlns="http://www.w3.org/2000/svg" viewBox="0 0 26.39 65.58">
  <defs>
    <style>
      .cls-1 {
        fill: #3c6581;
        stroke: #2e4759;
        stroke-miterlimit: 10;
      }

      .cls-1, .cls-2 {
        stroke-width: .75px;
      }

      .cls-2 {
        fill: #f2a36e;
        stroke: #895527;
        stroke-linecap: round;
        stroke-linejoin: round;
      }
    </style>
  </defs>
  <path class="cls-2" d="M6.07,58.75h4.72c.06-2.08.12-4.16.18-6.24l-4.49-.38c-.14,2.21-.27,4.41-.41,6.62Z"/>
  <path class="cls-2" d="M20.61,58.75h-4.72c-.06-2.08-.12-4.16-.18-6.24l4.49-.38c.14,2.21.27,4.41.41,6.62Z"/>
  <path id="Pants" class="cls-1" d="M6.44,40.9h12.92c.68,5.89,1.36,11.77,2.04,17.66-.64.21-1.51.43-2.55.49-1.44.08-2.62-.18-3.39-.42-.64-4.64-1.27-9.27-1.91-13.91h-1.08c-.51,4.64-1.01,9.27-1.52,13.91-.67.22-1.77.48-3.13.38-1.11-.08-2-.37-2.6-.61.41-5.83.82-11.67,1.22-17.5Z"/>
</svg>