<?xml version="1.0" encoding="UTF-8"?><svg id="shirt" xmlns="http://www.w3.org/2000/svg" viewBox="0 0 22.36 17.31"><path id="Shirt" d="M5.14,5.53c-.15,3.45-.29,6.89-.44,10.34,1.54.49,3.77,1.02,6.5,1.06,2.88.04,5.23-.47,6.82-.94-.14-3.48-.28-6.95-.42-10.43.04,1,.08,2.01.12,3.01,1.42,0,2.84.01,4.26.02-.53-2.49-1.05-4.4-1.41-5.35-.11-.3-.3-.76-.74-1.15-.41-.37-.85-.5-1.1-.57-1-.29-2.38-.69-4.08-1.15-.58,1.49-2.02,2.47-3.61,2.46-1.58,0-3.01-.99-3.58-2.46-1.69.53-2.99.96-3.72,1.18-.26.08-.79.24-1.34.68-.12.1-.24.2-.35.33-.46.51-.6,1-1.1,2.97-.27,1.08-.49,1.92-.6,2.35,1.5.24,2.99.48,4.49.72" fill="#f1e6d2" stroke="#6a645b" stroke-linecap="round" stroke-linejoin="round" stroke-width=".75"/></svg>