<?xml version="1.0" encoding="UTF-8"?>
<svg id="avatar_lawn" xmlns="http://www.w3.org/2000/svg" viewBox="0 0 26.39 65.58">
  <defs>
    <style>
      .cls-1 {
        fill: none;
        stroke: #3b2d1b;
      }

      .cls-1, .cls-2 {
        stroke-linecap: round;
        stroke-linejoin: round;
        stroke-width: .75px;
      }

      .cls-2 {
        fill: #513727;
        stroke: #3d1f0c;
      }
    </style>
  </defs>
  <path id="Hair" class="cls-2" d="M20.84,14.09c.56-.25,1.13-.51,1.69-.76.31-.87,1.15-3.58,0-6.5-1.48-3.76-5.16-5.06-6.61-5.58-1.42-.5-4.75-1.68-8.22,0-3.07,1.49-4.33,4.29-4.66,5.12-.27,1-.54,2.42-.46,4.13.05,1.14.25,2.12.46,2.9.56.36,1.12.71,1.68,1.07,0-.54.02-1.18.14-1.89.2-1.2.59-2.17.93-2.87,1.32.27,3.43.53,5.96.09,2.99-.51,5.16-1.76,6.34-2.56.28,1.21.76,1.98,1.15,2.47.58.72,1.15,1.06,1.45,1.99.18.54.21,1.14.21,1.22.02.47-.02.87-.08,1.16Z"/>
  <path class="cls-1" d="M6.67,12.82c.13-.15.72-.81,1.73-.93.96-.11,1.65.33,1.83.45"/>
  <path class="cls-1" d="M15.14,12.29c.17-.11.92-.56,1.93-.38.95.17,1.49.8,1.62.96"/>
</svg>