<?xml version="1.0" encoding="UTF-8"?><svg id="complete_btn" xmlns="http://www.w3.org/2000/svg" viewBox="0 0 103.64 37.62"><rect width="103.64" height="37.62" rx="3.9" ry="3.9" fill="#268798"/><path d="M16.67,24.86c-4.11,0-7.19-2.87-7.19-7.05s3.17-7.02,7.24-7.02c1.87,0,3.89.68,5,1.96l-2.19,2.19c-.6-.83-1.68-1.23-2.7-1.23-2.24,0-3.85,1.74-3.85,4.09s1.57,4.09,3.79,4.09c1.26,0,2.26-.57,2.83-1.36l2.24,2.11c-1.17,1.36-2.94,2.21-5.19,2.21Z" fill="#f9f9f9"/><path d="M27.06,24.81c-2.83,0-5.21-1.96-5.21-5.04s2.38-4.96,5.21-4.96,5.22,1.89,5.22,4.96-2.38,5.04-5.22,5.04ZM27.06,17.38c-1.45,0-2.21,1.19-2.21,2.4s.77,2.43,2.23,2.43,2.23-1.23,2.23-2.43-.79-2.4-2.24-2.4Z" fill="#f9f9f9"/><path d="M45.73,24.5v-5.13c0-1.08-.25-1.98-1.34-1.98s-1.57.98-1.57,2.04v5.07h-3.09v-5.36c0-1.08-.42-1.75-1.34-1.75-.98,0-1.55.89-1.55,2.02v5.09h-3.11v-9.39h3v1.3h.04c.43-.79,1.4-1.57,2.81-1.57s2.3.58,2.83,1.6c.62-.98,1.6-1.6,3-1.6,2.55,0,3.41,2.07,3.41,3.85v5.81h-3.09Z" fill="#f9f9f9"/><path d="M56.63,24.77c-1.15,0-2.26-.49-2.85-1.3h-.04v5.56h-3.09v-13.92h2.94v1.15h.06c.57-.75,1.62-1.41,3-1.41,2.73,0,4.45,2.3,4.45,4.92s-1.64,5-4.47,5ZM55.9,17.38c-1.4,0-2.26,1.23-2.26,2.41s.87,2.41,2.26,2.41c1.47,0,2.21-1.21,2.21-2.43s-.74-2.4-2.21-2.4Z" fill="#f9f9f9"/><path d="M62.57,24.5v-14.26h3.13v14.26h-3.13Z" fill="#f9f9f9"/><path d="M76.94,20.66h-6.81c.09,1.04,1.13,1.77,2.24,1.77.98,0,1.66-.42,2.07-.98l2.15,1.36c-.89,1.28-2.36,2-4.26,2-2.83,0-5.17-1.79-5.17-4.96s2.23-5.04,5.07-5.04,4.71,1.91,4.71,5.11c0,.25,0,.51-.02.74ZM74.11,18.73c0-.98-.62-1.79-1.85-1.79s-2.06.83-2.13,1.79h3.98Z" fill="#f9f9f9"/><path d="M81.73,17.43v3.58c0,.87.28,1.32,1.17,1.32.3,0,.68-.06.91-.15l.04,2.26c-.42.15-1.13.28-1.79.28-2.51,0-3.34-1.34-3.34-3.34v-3.96h-1.51v-2.32h1.49v-2.47h3.04v2.47h2.21v2.32h-2.21Z" fill="#f9f9f9"/><path d="M94.18,20.66h-6.81c.09,1.04,1.13,1.77,2.24,1.77.98,0,1.66-.42,2.08-.98l2.15,1.36c-.89,1.28-2.36,2-4.26,2-2.83,0-5.17-1.79-5.17-4.96s2.23-5.04,5.07-5.04,4.71,1.91,4.71,5.11c0,.25,0,.51-.02.74ZM91.35,18.73c0-.98-.62-1.79-1.85-1.79s-2.06.83-2.13,1.79h3.98Z" fill="#f9f9f9"/></svg>