<?xml version="1.0" encoding="UTF-8"?>
<svg id="black_bun_braids" xmlns="http://www.w3.org/2000/svg" viewBox="0 0 39.6 76.32">
  <path d="M13.29,23.52c.13-.15.72-.81,1.73-.93.96-.11,1.65.33,1.83.45" fill="none" stroke="#3b2d1b" stroke-linecap="round" stroke-linejoin="round" stroke-width=".75"/>
  <path d="M21.76,22.99c.17-.11.92-.56,1.93-.38.95.17,1.49.8,1.62.96" fill="none" stroke="#3b2d1b" stroke-linecap="round" stroke-linejoin="round" stroke-width=".75"/>
  <path d="M21.87,23.36c.16-.12.87-.64,1.89-.55.96.09,1.55.67,1.7.82" fill="none" stroke="#28282d" stroke-linecap="round" stroke-miterlimit="10" stroke-width=".5"/>
  <path d="M16.85,23.36c-.16-.12-.87-.64-1.89-.55-.96.09-1.55.67-1.7.82" fill="none" stroke="#28282d" stroke-linecap="round" stroke-miterlimit="10" stroke-width=".5"/>
  <path d="M27.93,13.68c.52.54,1.04,1.07,1.56,1.61.43-.01,1.02-.06,1.7-.19.43-.08,1.17-.25,1.97-.57.57-.23,2.31-.94,2.39-1.99.05-.68-.61-1.23-1.95-2.29-1.02-.81-1.95-1.36-2.6-1.71-.12.37-.25.68-.37.94-.23.48-.44.81-.49.88-.28.42-.54.71-.6.77-.33.37-.83,1.07-1.61,2.56Z" fill="#28282d" stroke="#000" stroke-miterlimit="10" stroke-width=".5"/>
  <path d="M27.97,13.65c-.27-.14.65-1.52,1.17-3.75.04-.19.18-.82.71-1.24.14-.11.48-.39.84-.29.29.08.48.38.54.63.12.56-.41,1.11-.69,1.41-1.81,1.95-2.3,3.37-2.56,3.23Z" fill="#28282d" stroke="#000" stroke-miterlimit="10" stroke-width=".5"/>
  <path d="M11.77,13.76c-.52.54-1.04,1.07-1.56,1.61-.43-.01-1.02-.06-1.7-.19-.43-.08-1.17-.25-1.97-.57-.57-.23-2.31-.94-2.39-1.99-.05-.68.61-1.23,1.95-2.29,1.02-.81,1.95-1.36,2.6-1.71.12.37.25.68.37.94.23.48.44.81.49.88.28.42.54.71.6.77.33.37.83,1.07,1.61,2.56Z" fill="#28282d" stroke="#000" stroke-miterlimit="10" stroke-width=".5"/>
  <path d="M11.74,13.72c.27-.14-.65-1.52-1.17-3.75-.04-.19-.18-.82-.71-1.24-.14-.11-.48-.39-.84-.29-.29.08-.48.38-.54.63-.12.56.41,1.11.69,1.41,1.81,1.95,2.3,3.37,2.56,3.23Z" fill="#28282d" stroke="#000" stroke-miterlimit="10" stroke-width=".5"/>
  <path d="M26.2,33.38c-.14-.08-.32-.18-.52-.32-.03-.02-.06-.04-.09-.07.05-.05.09-.1.13-.16.13-.16.25-.32.37-.5.06.37.09.69.1.93h0c-.01.07-.01.1.01.12Z" fill="#28282d" stroke="#000" stroke-miterlimit="10" stroke-width=".5"/>
  <path d="M27.87,31.08h0c.03.33-.03.73-.13,1.02-.19.53-.54.87-.96,1.22,0,0-.01,0-.01.01-.08.06-.16.13-.24.19-.06.05-.12.1-.18.13-.01.02-.03.04-.05.05-.13.1-.27.18-.38.25-.14.1-.26.16-.36.22.01-.21.03-.53.09-.9,0-.05.01-.1.02-.15,0-.02.01-.04.01-.06.01-.08.03-.16.04-.23.13-.16.25-.32.37-.5h0c.13-.19.25-.38.37-.59.12-.21.24-.46.37-.81.01-.05.01-.1.02-.15.02-.01.03-.01.04-.02.27-.16.54-.25.73-.14.14.08.22.25.25.46Z" fill="#28282d" stroke="#000" stroke-miterlimit="10" stroke-width=".5"/>
  <path d="M26.18,35.78c-.14-.08-.33-.19-.55-.34-.05-.04-.11-.08-.17-.12-.01,0-.01-.01-.02-.02-.05-.04-.11-.08-.17-.13-.04-.03-.08-.07-.12-.1-.01-.01-.02-.02-.03-.02-.31-.26-.59-.51-.8-.83.39-.3.8-.68,1.19-1.14.06.06.1.12.14.19.13.21.21.43.27.68.02.07.04.15.05.23h0c.04.2.08.39.11.61.07.41.1.76.1.99Z" fill="#28282d" stroke="#000" stroke-miterlimit="10" stroke-width=".5"/>
  <path d="M25.52,36.53c.22-.12.55-.32.91-.61.49-.4.93-.75,1.13-1.34.16-.46.22-1.2-.11-1.39-.32-.18-.9.23-1.2.56-.41.46-.51,1.03-.63,1.78-.07.42-.09.77-.1.99Z" fill="#28282d" stroke="#000" stroke-miterlimit="10" stroke-width=".5"/>
  <path d="M26.21,37.92c-.2-.11-.5-.29-.82-.55-.44-.36-.84-.68-1.02-1.21-.14-.41-.2-1.08.1-1.25.29-.16.81.2,1.08.51.37.42.46.93.57,1.6.06.38.08.69.09.9Z" fill="#28282d" stroke="#000" stroke-miterlimit="10" stroke-width=".5"/>
  <path d="M25.55,38.59c.2-.11.5-.29.82-.55.44-.36.84-.68,1.02-1.21.14-.41.2-1.08-.1-1.25-.29-.16-.81.2-1.08.51-.37.42-.46.93-.57,1.6-.06.38-.08.69-.09.9Z" fill="#28282d" stroke="#000" stroke-miterlimit="10" stroke-width=".5"/>
  <path d="M26.14,39.99c-.2-.11-.49-.28-.81-.54-.44-.35-.82-.67-1-1.19-.14-.41-.19-1.06.1-1.23.28-.16.8.2,1.06.5.37.41.45.91.56,1.58.06.37.08.68.09.88Z" fill="#28282d" stroke="#000" stroke-miterlimit="10" stroke-width=".5"/>
  <path d="M25.62,40.65c.2-.11.49-.28.81-.54.44-.35.82-.67,1-1.19.14-.41.19-1.06-.1-1.23-.28-.16-.8.2-1.06.5-.37.41-.45.91-.56,1.58-.06.37-.08.68-.09.88Z" fill="#28282d" stroke="#000" stroke-miterlimit="10" stroke-width=".5"/>
  <path d="M26.15,42.11c-.18-.1-.44-.26-.73-.49-.4-.32-.75-.61-.91-1.08-.13-.37-.18-.97.09-1.12.26-.15.72.18.97.45.33.37.41.83.51,1.43.06.34.07.62.08.8Z" fill="#28282d" stroke="#000" stroke-miterlimit="10" stroke-width=".5"/>
  <path d="M25.61,42.72c.18-.1.44-.26.73-.49.4-.32.75-.61.91-1.08.13-.37.18-.97-.09-1.12-.26-.15-.72.18-.97.45-.33.37-.41.83-.51,1.43-.06.34-.07.62-.08.8Z" fill="#28282d" stroke="#000" stroke-miterlimit="10" stroke-width=".5"/>
  <path d="M26.18,44.23c-.18-.1-.44-.26-.73-.49-.4-.32-.75-.61-.91-1.08-.13-.37-.18-.97.09-1.12.26-.15.72.18.97.45.33.37.41.83.51,1.43.06.34.07.62.08.8Z" fill="#28282d" stroke="#000" stroke-miterlimit="10" stroke-width=".5"/>
  <path d="M25.58,44.84c.18-.1.44-.26.73-.49.4-.32.75-.61.91-1.08.13-.37.18-.97-.09-1.12-.26-.15-.72.18-.97.45-.33.37-.41.83-.51,1.43-.06.34-.07.62-.08.8Z" fill="#28282d" stroke="#000" stroke-miterlimit="10" stroke-width=".5"/>
  <path d="M26.4,44.85c.4.45.51.86.55,1.1.05.32.01.62-.34,1.86-.15.51-.28.93-.37,1.24-.06-.21-.15-.53-.31-.88-.41-.94-.73-1.02-.89-1.59-.27-.99.31-2.15.57-2.14.09,0,.11.15.31.28.18.12.36.13.47.13Z" fill="#28282d" stroke="#000" stroke-miterlimit="10" stroke-width=".5"/>
  <path d="M26.82,44.01c-.43-.01-.79-.05-1.04-.09-.54-.08-.86-.18-.99-.05-.08.08-.07.22,0,.3.09.09.24.03.54.02.18,0,.37.02.75.07.39.05.51.09.73.05.13-.03.34-.09.34-.16,0-.08-.32-.13-.34-.14Z" fill="#dd2f2f" stroke="#910000" stroke-miterlimit="10" stroke-width=".25"/>
  <path d="M26.82,44.31c-.43-.01-.79-.05-1.04-.09-.54-.08-.86-.18-.99-.05-.08.08-.07.22,0,.3.09.09.24.03.54.02.18,0,.37.02.75.07.39.05.51.09.73.05.13-.03.34-.09.34-.16,0-.08-.32-.13-.34-.14Z" fill="#dd2f2f" stroke="#910000" stroke-miterlimit="10" stroke-width=".25"/>
  <path d="M25.1,44.56c.43.06.78.08,1.04.08.55.01.87-.04.98.12.06.09.03.23-.05.29-.1.07-.24,0-.54-.07-.17-.03-.37-.04-.75-.06-.39-.02-.52,0-.72-.08-.12-.05-.32-.14-.31-.21.02-.08.34-.08.36-.08Z" fill="#dd2f2f" stroke="#910000" stroke-miterlimit="10" stroke-width=".25"/>
  <path d="M13.14,33.14c-.16.11-.3.19-.41.25,0-.18.02-.42.06-.72.1.15.21.31.35.47Z" fill="#28282d" stroke="#000" stroke-miterlimit="10" stroke-width=".5"/>
  <path d="M13.14,33.14c-.14-.16-.25-.32-.35-.47-.38-.53-.62-1-.77-1.31h0c-.06-.22-.12-.45-.17-.68-.05-.03-.1-.05-.14-.06-.15-.05-.3-.05-.41.01-.21.12-.27.46-.24.81.01.24.06.47.13.67.18.53.53.87.95,1.22t.01.01c.08.07.16.13.24.2s.16.13.24.18c.14.1.26.19.37.26.14.09.26.15.36.21-.01-.21-.02-.51-.08-.87" fill="#28282d" stroke="#000" stroke-miterlimit="10" stroke-width=".5"/>
  <path d="M13.27,33.31c-.12.2-.21.42-.27.67-.02.07-.03.14-.04.21h0c-.05.2-.08.39-.12.61-.07.42-.09.76-.1.99.15-.08.34-.19.55-.34.05-.04.11-.08.17-.12.1-.09.22-.19.34-.27.24-.2.47-.4.65-.62-.46-.36-.85-.74-1.17-1.12" fill="#28282d" stroke="#000" stroke-miterlimit="10" stroke-width=".5"/>
  <path d="M13.41,36.54c-.22-.12-.55-.32-.91-.61-.49-.4-.93-.75-1.13-1.34-.16-.46-.22-1.2.11-1.39.32-.18.9.23,1.2.56.41.46.51,1.03.63,1.78.07.42.09.77.1.99Z" fill="#28282d" stroke="#000" stroke-miterlimit="10" stroke-width=".5"/>
  <path d="M12.71,37.93c.2-.11.5-.29.82-.55.44-.36.84-.68,1.02-1.21.14-.41.2-1.08-.1-1.25-.29-.16-.81.2-1.08.51-.37.42-.46.93-.57,1.6-.06.38-.08.69-.09.9Z" fill="#28282d" stroke="#000" stroke-miterlimit="10" stroke-width=".5"/>
  <path d="M13.38,38.61c-.2-.11-.5-.29-.82-.55-.44-.36-.84-.68-1.02-1.21-.14-.41-.2-1.08.1-1.25.29-.16.81.2,1.08.51.37.42.46.93.57,1.6.06.38.08.69.09.9Z" fill="#28282d" stroke="#000" stroke-miterlimit="10" stroke-width=".5"/>
  <path d="M12.78,40c.2-.11.49-.28.81-.54.44-.35.82-.67,1-1.19.14-.41.19-1.06-.1-1.23-.28-.16-.8.2-1.06.5-.37.41-.45.91-.56,1.58-.06.37-.08.68-.09.88Z" fill="#28282d" stroke="#000" stroke-miterlimit="10" stroke-width=".5"/>
  <path d="M13.31,40.67c-.2-.11-.49-.28-.81-.54-.44-.35-.82-.67-1-1.19-.14-.41-.19-1.06.1-1.23.28-.16.8.2,1.06.5.37.41.45.91.56,1.58.06.37.08.68.09.88Z" fill="#28282d" stroke="#000" stroke-miterlimit="10" stroke-width=".5"/>
  <path d="M12.78,42.13c.18-.1.44-.26.73-.49.4-.32.75-.61.91-1.08.13-.37.18-.97-.09-1.12-.26-.15-.72.18-.97.45-.33.37-.41.83-.51,1.43-.06.34-.07.62-.08.8Z" fill="#28282d" stroke="#000" stroke-miterlimit="10" stroke-width=".5"/>
  <path d="M13.31,42.73c-.18-.1-.44-.26-.73-.49-.4-.32-.75-.61-.91-1.08-.13-.37-.18-.97.09-1.12.26-.15.72.18.97.45.33.37.41.83.51,1.43.06.34.07.62.08.8Z" fill="#28282d" stroke="#000" stroke-miterlimit="10" stroke-width=".5"/>
  <path d="M12.75,44.25c.18-.1.44-.26.73-.49.4-.32.75-.61.91-1.08.13-.37.18-.97-.09-1.12-.26-.15-.72.18-.97.45-.33.37-.41.83-.51,1.43-.06.34-.07.62-.08.8Z" fill="#28282d" stroke="#000" stroke-miterlimit="10" stroke-width=".5"/>
  <path d="M13.34,44.85c-.18-.1-.44-.26-.73-.49-.4-.32-.75-.61-.91-1.08-.13-.37-.18-.97.09-1.12.26-.15.72.18.97.45.33.37.41.83.51,1.43.06.34.07.62.08.8Z" fill="#28282d" stroke="#000" stroke-miterlimit="10" stroke-width=".5"/>
  <path d="M12.52,44.86c-.4.45-.51.86-.55,1.1-.05.32-.01.62.34,1.86.15.51.28.93.37,1.24.06-.21.15-.53.31-.88.41-.94.73-1.02.89-1.59.27-.99-.31-2.15-.57-2.14-.09,0-.11.15-.31.28-.18.12-.36.13-.47.13Z" fill="#28282d" stroke="#000" stroke-miterlimit="10" stroke-width=".5"/>
  <path d="M12.11,44.02c.43-.01.79-.05,1.04-.09.54-.08.86-.18.99-.05.08.08.07.22,0,.3-.09.09-.24.03-.54.02-.18,0-.37.02-.75.07-.39.05-.51.09-.73.05-.13-.03-.34-.09-.34-.16,0-.08.32-.13.34-.14Z" fill="#dd2f2f" stroke="#910000" stroke-miterlimit="10" stroke-width=".25"/>
  <path d="M12.11,44.32c.43-.01.79-.05,1.04-.09.54-.08.86-.18.99-.05.08.08.07.22,0,.3-.09.09-.24.03-.54.02-.18,0-.37.02-.75.07-.39.05-.51.09-.73.05-.13-.03-.34-.09-.34-.16,0-.08.32-.13.34-.14Z" fill="#dd2f2f" stroke="#910000" stroke-miterlimit="10" stroke-width=".25"/>
  <path d="M13.83,44.57c-.43.06-.78.08-1.04.08-.55.01-.87-.04-.98.12-.06.09-.03.23.05.29.1.07.24,0,.54-.07.17-.03.37-.04.75-.06.39-.02.52,0,.72-.08.12-.05.32-.14.31-.21-.02-.08-.34-.08-.36-.08Z" fill="#dd2f2f" stroke="#910000" stroke-miterlimit="10" stroke-width=".25"/>
  <path d="M11.37,25.88c.24-.52.48-1.05.72-1.58.32-.72.64-1.44.95-2.15h9.01c.23-.71.45-1.41.68-2.12.11.67.23,1.34.34,2.01h3.04c.4,1.25.8,2.51,1.2,3.76.1-.33.3-.8.69-1.26.41-.49.79-.66,1.03-.84,1.26-.95.82-3.87.34-5.43-.34-1.11-.68-2.22-1.72-3.17-2.4-2.19-5.88-1.22-6.31-1.09-.84.25-1.48.62-1.91.9-.33-.2-.81-.45-1.41-.65-.4-.14-1.59-.52-2.92-.36-2.58.3-4.1,2.46-4.3,2.75-.57.83-.76,1.99-1.15,4.3-.31,1.81-.23,2.6.23,3.06.22.22.54.36.92.84.31.39.48.77.57,1.03Z" fill="#28282d" stroke="#000" stroke-miterlimit="10" stroke-width=".5"/>
  <path d="M31.01,13.73c-.28.36-.56.61-.76.76-.29.22-.62.47-.85.36-.11-.06-.16-.18-.19-.29.23-.07.48-.16.74-.27.42-.18.77-.38,1.07-.57Z" fill="#28282d" stroke="#000" stroke-miterlimit="10" stroke-width=".5"/>
  <path d="M8.68,13.77c.28.36.56.61.76.76.29.22.62.47.85.36.11-.06.16-.18.19-.29-.23-.07-.48-.16-.74-.27-.42-.18-.77-.38-1.07-.57Z" fill="#28282d" stroke="#000" stroke-miterlimit="10" stroke-width=".5"/>
  <path d="M28.08,13.61c.35.42.65.73.88.95.49.47.82.69.8.93-.01.14-.15.26-.27.24-.15-.02-.21-.21-.44-.52-.13-.18-.3-.35-.64-.69-.34-.34-.47-.43-.6-.68-.08-.15-.18-.41-.11-.46.08-.07.37.2.38.22Z" fill="#dd2f2f" stroke="#910000" stroke-miterlimit="10" stroke-width=".25"/>
  <path d="M27.81,13.85c.35.42.65.73.88.95.49.47.82.69.8.93-.01.14-.15.26-.27.24-.15-.02-.21-.21-.44-.52-.13-.18-.3-.35-.64-.69-.34-.34-.47-.43-.6-.68-.08-.15-.18-.41-.11-.46.08-.07.37.2.38.22Z" fill="#dd2f2f" stroke="#910000" stroke-miterlimit="10" stroke-width=".25"/>
  <path d="M28.9,15.76c-.39-.37-.68-.71-.88-.96-.43-.53-.64-.89-.86-.87-.13.01-.24.16-.23.29.01.16.2.23.48.48.17.14.32.33.63.69.32.37.39.51.63.65.14.08.38.2.43.13.06-.09-.19-.4-.2-.42Z" fill="#dd2f2f" stroke="#910000" stroke-miterlimit="10" stroke-width=".25"/>
  <path d="M11.62,13.65c-.35.42-.65.73-.88.95-.49.47-.82.69-.8.93.01.14.15.26.27.24.15-.02.21-.21.44-.52.13-.18.3-.35.64-.69.34-.34.47-.43.6-.68.08-.15.18-.41.11-.46-.08-.07-.37.2-.38.22Z" fill="#dd2f2f" stroke="#910000" stroke-miterlimit="10" stroke-width=".25"/>
  <path d="M11.89,13.89c-.35.42-.65.73-.88.95-.49.47-.82.69-.8.93.01.14.15.26.27.24.15-.02.21-.21.44-.52.13-.18.3-.35.64-.69.34-.34.47-.43.6-.68.08-.15.18-.41.11-.46-.08-.07-.37.2-.38.22Z" fill="#dd2f2f" stroke="#910000" stroke-miterlimit="10" stroke-width=".25"/>
  <path d="M10.8,15.8c.39-.37.68-.71.88-.96.43-.53.64-.89.86-.87.13.01.24.16.23.29-.01.16-.2.23-.48.48-.17.14-.32.33-.63.69-.32.37-.39.51-.63.65-.14.08-.38.2-.43.13-.06-.09.19-.4.2-.42Z" fill="#dd2f2f" stroke="#910000" stroke-miterlimit="10" stroke-width=".25"/>
</svg>