<?xml version="1.0" encoding="UTF-8"?>
<svg id="blonde_short_hair" xmlns="http://www.w3.org/2000/svg" viewBox="0 0 21.3 14.85">
  <path id="Hair" d="M18.65,14.09c.56-.25,1.13-.51,1.69-.76.31-.87,1.15-3.58,0-6.5-1.48-3.76-5.16-5.06-6.61-5.58-1.42-.5-4.75-1.68-8.22,0C2.44,2.74,1.18,5.54.85,6.37c-.27,1-.54,2.42-.46,4.13.05,1.14.25,2.12.46,2.9.56.36,1.12.71,1.68,1.07,0-.54.02-1.18.14-1.89.2-1.2.59-2.17.93-2.87,1.32.27,3.43.53,5.96.09,2.99-.51,5.16-1.76,6.34-2.56.28,1.21.76,1.98,1.15,2.47.58.72,1.15,1.06,1.45,1.99.18.54.21,1.14.21,1.22.02.47-.02.87-.08,1.16Z" fill="#dbaf7f" stroke="#b37c51" stroke-miterlimit="10" stroke-width=".5"/>
  <path d="M4.48,12.82c.13-.15.72-.81,1.73-.93.96-.11,1.65.33,1.83.45" fill="none" stroke="#7a5a38" stroke-linecap="round" stroke-linejoin="round" stroke-width=".75"/>
  <path d="M12.95,12.29c.17-.11.92-.56,1.93-.38.95.17,1.49.8,1.62.96" fill="none" stroke="#7a5a38" stroke-linecap="round" stroke-linejoin="round" stroke-width=".75"/>
</svg>