<?xml version="1.0" encoding="UTF-8"?>
<svg xmlns="http://www.w3.org/2000/svg" viewBox="0 0 12.93 17.03">
  <g id="avatar_lawn">
    <path d="M8.97,16.38c.16-.12.87-.64,1.89-.55.96.09,1.55.67,1.7.82" fill="none" stroke="#3b2d1b" stroke-linecap="round" stroke-linejoin="round" stroke-width=".75"/>
    <path d="M3.96,16.38c-.16-.12-.87-.64-1.89-.55-.96.09-1.55.67-1.7.82" fill="none" stroke="#3b2d1b" stroke-linecap="round" stroke-linejoin="round" stroke-width=".75"/>
  </g>
  <g id="blue_mohawk">
    <path d="M7.39,10.76c-.08.39-.2.91-.36,1.53-.1-1.08-.38-1.86-.68-2.43-.08-.15-.16-.29-.24-.41.14.04.27.08.4.12.49.18.86.44.93.78.02.1.01.17-.05.41Z" fill="#3936a8"/>
    <path d="M5.98,6.73c-.02.19-.07.35-.19.67-.03.08-.06.16-.08.23-.12.3-.25.55-.37.76-.13-.2-.26-.43-.37-.7-.27.03-.55.07-.83.12-.4.06-.8.15-1.19.26-.14-.22-.27-.48-.37-.82-.03-.12-.1-.37-.11-.67-.02-.73.31-1.22.64-1.86.22-.45.52-1.1.78-1.94.18.35.36.67.53.95.18.31.35.57.5.8.07.11.14.21.2.3.49.7.91,1.2.86,1.9Z" fill="#4f42d3" stroke="#3936a8" stroke-linecap="round" stroke-linejoin="round" stroke-width=".5"/>
    <path d="M8.04,6.26c-.02.24-.09.44-.24.85-.06.18-.13.35-.2.5-.28.66-.6,1.12-.83,1.51-.08.13-.17.28-.26.45-.05.09-.1.19-.16.29-.08-.15-.16-.29-.24-.41-.05-.07-.09-.14-.14-.2-.17-.22-.4-.5-.63-.86-.13-.2-.26-.43-.37-.7-.27.03-.55.07-.83.12-.14-.25-.28-.54-.38-.89-.04-.16-.12-.46-.14-.85-.03-.91.39-1.53.8-2.34.29-.56.66-1.38.99-2.44.2.39.4.74.58,1.06.37.63.7,1.13.97,1.52.61.88,1.14,1.51,1.08,2.39Z" fill="#4f42d3" stroke="#3936a8" stroke-linecap="round" stroke-linejoin="round" stroke-width=".5"/>
    <path d="M9.98,6.32c-.02.29-.11.54-.28,1.03-.05.14-.1.27-.15.39-.38.93-.8,1.56-1.11,2.08-.38.62-.89,1.55-1.38,2.81-.01-.12-.02-.23-.03-.34-.1-1.08-.38-1.86-.68-2.43-.08-.15-.16-.29-.24-.41-.05-.07-.09-.14-.14-.2-.17-.22-.4-.5-.63-.86-.13-.2-.26-.43-.37-.7-.08-.17-.14-.36-.2-.56-.06-.2-.16-.57-.17-1.04-.02-.59.11-1.08.32-1.56.17-.42.41-.84.65-1.3.13-.25.27-.55.42-.88.25-.58.53-1.28.78-2.1.72,1.39,1.4,2.44,1.9,3.15.74,1.07,1.4,1.85,1.31,2.92Z" fill="#4f42d3" stroke="#3936a8" stroke-linecap="round" stroke-linejoin="round" stroke-width=".5"/>
  </g>
</svg>