<?xml version="1.0" encoding="UTF-8"?>
<svg id="brown_buns" xmlns="http://www.w3.org/2000/svg" viewBox="0 0 39.6 76.32">
  <path d="M13.25,23.63c.13-.15.72-.81,1.73-.93.96-.11,1.65.33,1.83.45" fill="none" stroke="#3b2d1b" stroke-linecap="round" stroke-linejoin="round" stroke-width=".75"/>
  <path d="M21.72,23.09c.17-.11.92-.56,1.93-.38.95.17,1.49.8,1.62.96" fill="none" stroke="#3b2d1b" stroke-linecap="round" stroke-linejoin="round" stroke-width=".75"/>
  <path d="M19.56,18.32c-.05-1.44-.1-2.88-.15-4.32.25-.15.59-.34,1.03-.52.37-.15,1.48-.54,2.94-.42,2.2.18,3.65,1.4,4.15,1.86.09.09.16.16.21.2,1.89,1.89,2.06,4.19,2.1,4.82.07,1.12.19,3.1-.88,3.94-.29.22-.92.58-1.18,1.34-.07.21-.06.33-.11.69-.09.64-.25,1.17-.38,1.57,0-.52.02-.94.04-1.22.04-.68.12-2-.13-2.68-.21-.58-.43-.49-1.12-1.49-.18-.27-.33-.51-.45-.73-.34-.61-.41-.88-.55-1.14-.42-.78-1.25-1.12-1.51-1.22-1.19-.49-1.87.1-3.48-.46-.22-.08-.4-.16-.52-.21Z" fill="#472f21" stroke="#302017" stroke-linecap="round" stroke-linejoin="round" stroke-width=".75"/>
  <path d="M25.53,16.16c-.03.85.55,1.58,1.32,1.74.66.13,1.35-.17,1.73-.77.22.82,1.07,1.31,1.87,1.11.83-.21,1.33-1.09,1.09-1.93.72.19,1.46-.06,1.84-.61.48-.69.33-1.74-.43-2.34.87-.45,1.32-1.46,1.05-2.4-.26-.95-1.17-1.58-2.14-1.51.13-.69-.17-1.38-.73-1.71-.68-.4-1.61-.2-2.13.5-.45-1.24-1.6-1.86-2.49-1.6-.78.22-1.12,1.06-1.17,1.19-.6-.54-1.47-.6-2.03-.2-.7.5-.86,1.65-.18,2.44-.9.09-1.58.88-1.55,1.77.03.91.79,1.65,1.71,1.66-.5.68-.46,1.62.08,2.24.53.61,1.43.79,2.16.42Z" fill="#472f21" stroke="#302017" stroke-linecap="round" stroke-linejoin="round" stroke-width=".75"/>
  <path d="M18.91,18.32c.05-1.44.1-2.88.15-4.32-.25-.15-.59-.34-1.03-.52-.37-.15-1.48-.54-2.94-.42-2.2.18-3.65,1.4-4.15,1.86-.09.09-.16.16-.21.2-1.89,1.89-2.06,4.19-2.1,4.82-.07,1.12-.19,3.1.88,3.94.29.22.92.58,1.18,1.34.07.21.06.33.11.69.09.64.25,1.17.38,1.57,0-.52-.02-.94-.04-1.22-.04-.68-.12-2,.13-2.68.21-.58.43-.49,1.12-1.49.18-.27.33-.51.45-.73.34-.61.41-.88.55-1.14.42-.78,1.25-1.12,1.51-1.22,1.19-.49,1.87.1,3.48-.46.22-.08.4-.16.52-.21Z" fill="#472f21" stroke="#302017" stroke-linecap="round" stroke-linejoin="round" stroke-width=".75"/>
  <path d="M12.94,16.16c.03.85-.55,1.58-1.32,1.74-.66.13-1.35-.17-1.73-.77-.22.82-1.07,1.31-1.87,1.11-.83-.21-1.33-1.09-1.09-1.93-.72.19-1.46-.06-1.84-.61-.48-.69-.33-1.74.43-2.34-.87-.45-1.32-1.46-1.05-2.4.26-.95,1.17-1.58,2.14-1.51-.13-.69.17-1.38.73-1.71.68-.4,1.61-.2,2.13.5.45-1.24,1.6-1.86,2.49-1.6.78.22,1.12,1.06,1.17,1.19.6-.54,1.47-.6,2.03-.2.7.5.86,1.65.18,2.44.9.09,1.58.88,1.55,1.77-.03.91-.79,1.65-1.71,1.66.5.68.46,1.62-.08,2.24-.53.61-1.43.79-2.16.42Z" fill="#472f21" stroke="#302017" stroke-linecap="round" stroke-linejoin="round" stroke-width=".75"/>
</svg>