<?xml version="1.0" encoding="UTF-8"?>
<svg id="brown_afro" xmlns="http://www.w3.org/2000/svg" viewBox="0 0 39.6 76.32">
  <path d="M13.26,23.59c.13-.15.72-.81,1.73-.93.96-.11,1.65.33,1.83.45" fill="none" stroke="#3b2d1b" stroke-linecap="round" stroke-linejoin="round" stroke-width=".75"/>
  <path d="M21.73,23.06c.17-.11.92-.56,1.93-.38.95.17,1.49.8,1.62.96" fill="none" stroke="#3b2d1b" stroke-linecap="round" stroke-linejoin="round" stroke-width=".75"/>
  <path d="M27.44,26.81c.09,0,.25-.35.52-1.89.03,0,.7-.15.92-.75.18-.5-.02-1.1-.52-1.43.49.12.99-.08,1.2-.46.27-.48.05-1.2-.57-1.49.77.27,1.51-.22,1.61-.8.08-.52-.34-1.14-1.03-1.26.66-.11,1.11-.67,1.09-1.2-.02-.65-.73-1.25-1.55-1.09.38-.52.32-1.23-.11-1.66-.4-.4-1.04-.47-1.55-.17.32-.61.03-1.34-.52-1.55-.46-.18-1.03.03-1.32.52.2-.76-.31-1.47-.92-1.55-.47-.06-.99.26-1.2.8.18-.87-.45-1.67-1.2-1.72-.67-.05-1.34.49-1.43,1.26.05-.78-.59-1.41-1.26-1.38-.58.03-1.11.54-1.15,1.2-.55-.94-1.6-1.19-2.18-.8-.58.38-.52,1.28-.52,1.32-.5-.85-1.51-1.08-2.12-.69-.43.27-.65.84-.57,1.43-.62-.38-1.33-.24-1.61.17-.25.37-.08.85-.06.92-.51-.08-1.02.18-1.26.63-.25.47-.16,1.06.23,1.43-.6-.05-1.11.39-1.15.92-.03.44.27.89.75,1.03-.5.16-.79.65-.69,1.09.08.34.37.61.75.69-.59.31-.81.92-.63,1.32.15.34.56.44.63.46-.03.02-.52.41-.46.97.06.52.56.97,1.2.97.12,1.99.25,2.46.34,2.46.25,0-.03-3.22,1.89-5.9.39-.55.8-1.11,1.55-1.55,1.27-.75,2.08-.31,4.99-.29,3.13.03,4.2-.46,5.39.46.47.37.7.75,1.03,1.32,1.74,2.95,1.21,6.23,1.49,6.25Z" fill="#3a271b" stroke="#302017" stroke-linecap="round" stroke-linejoin="round" stroke-width=".75"/>
</svg>