<?xml version="1.0" encoding="UTF-8"?>
<svg id="orange_long_hair" xmlns="http://www.w3.org/2000/svg" viewBox="0 0 39.6 76.32">
  <path d="M13.3,23.53c.13-.15.72-.81,1.73-.93.96-.11,1.65.33,1.83.45" fill="none" stroke="#aa4526" stroke-linecap="round" stroke-linejoin="round" stroke-width=".75"/>
  <path d="M21.77,23c.17-.11.92-.56,1.93-.38.95.17,1.49.8,1.62.96" fill="none" stroke="#aa4526" stroke-linecap="round" stroke-linejoin="round" stroke-width=".75"/>
  <path d="M33.02,37.17c-2.53.07-5.51.1-7.79-.41-.03,0-.07-.01-.1-.02-.31-.1-.64-.19-.99-.28-.81-.45-1.57-.85-1.62-1.07-.1-.13-.21-.83-.13-.87.24-.13,3.09-1.22,3.96-4.01.24-.76.87-1.8,1.07-5.58.02-.29.03-.61.04-.94.01-.36.02-.74.02-1.14-.12-.28-.29-.46-.31-.54-.3-.93-.88-1.27-1.45-1.99-.39-.49-.87-1.26-1.15-2.47-1.19.8-3.35,2.05-6.35,2.56-2.52.44-4.64.18-5.95-.09-.28.56-.71,1.56-.94,2.87-.7,4.1.73,4.98,1.54,8.21-.18,1.28,1.41,2.46,3.21,3.23-.06.44.08.8-.62,1.21-1.7.53-2.78,1.22-3.51,1.44-.23.07-.66.21-1.14.53-1.14.08-2.32.13-3.43.22,1.86-5.68.72-7.36.61-13.5-.03-1.66-.02-2.91.22-4.48.23-1.48.4-2.6.98-3.78,1.44-2.94,4.35-4.15,4.99-4.42,3.71-1.54,7.12-.38,8.22,0,.76.28,4.59,1.72,6.61,5.58.75,1.45.92,2.81,1.26,5.53.62,4.94-.16,6.58.82,9.97.55,1.93,1.38,3.37,1.94,4.24Z" fill="#d35d2c"/>
  <path id="Hair" d="M26.32,36.73c.54.98,2.07.98,6.59.85-.56-.87-1.27-2.72-1.83-4.65-.98-3.39-.2-5.03-.82-9.98-.34-2.72-.5-4.08-1.26-5.52-2.02-3.86-5.85-5.31-6.61-5.58-1.09-.39-4.51-1.55-8.22,0-.64.26-3.55,1.48-4.99,4.41-.58,1.18-.75,2.3-.98,3.78-.24,1.57-.26,2.82-.23,4.48.11,6.14,1.25,7.82-.61,13.5,4.58-.34,6.48-1.23,6.16-2.58-.3-1.25-.93-3-1.09-3.61-.81-3.23-1.81-4.55-1.11-8.65.22-1.31.66-2.31.93-2.87,1.32.27,3.43.53,5.96.09,2.99-.51,5.16-1.76,6.34-2.56.28,1.21.76,1.98,1.15,2.47.58.72,1.15,1.06,1.45,1.99.04.13.2.57.21,1.22.02.95-2.56,10.47-1.06,13.2Z" fill="#d35e2b" stroke="#b74e29" stroke-miterlimit="10"/>
</svg>