<?xml version="1.0" encoding="UTF-8"?>
<svg id="pink_medium_braids" xmlns="http://www.w3.org/2000/svg" viewBox="0 0 39.6 76.32">
  <path d="M21.72,23.15c.16-.12.87-.64,1.89-.55.96.09,1.55.67,1.7.82" fill="none" stroke="#fbcbc0" stroke-linecap="round" stroke-miterlimit="10" stroke-width=".5"/>
  <path d="M16.7,23.15c-.16-.12-.87-.64-1.89-.55-.96.09-1.55.67-1.7.82" fill="none" stroke="#fbcbc0" stroke-linecap="round" stroke-miterlimit="10" stroke-width=".5"/>
  <path d="M12.56,33.41c-.18.09-.76-.64-1.07-1.07-.2-.31-.4-.63-.58-1.11-.12-.3-.24-.67-.37-1.13-.09-.3-.18-.65-.27-1.05-.34-1.45-.51-2.17-.46-2.56.12-.97.69-1.81,1.25-2.37.5-.5,1-.75,1.16-.65.14.09-.01.41-.22,1.32-.01,0-.01.01-.01.01-.07.31-.15.69-.23,1.15-.15.93-.24,1.78-.27,2.26-.04.82.06,1.59.21,2.26.05.23.11.46.17.67h0c.28.98.63,1.7.71,2.04.03.13.03.2-.02.23Z" fill="#eededf" stroke="#fbcbc0" stroke-miterlimit="10" stroke-width=".5"/>
  <path d="M26.05,33.17c-.14-.08-.32-.18-.52-.32-.03-.02-.06-.04-.09-.07.05-.05.09-.1.13-.16.13-.16.25-.32.37-.5.06.37.09.69.1.93h0c-.01.07-.01.1.01.12Z" fill="#eededf" stroke="#fbcbc0" stroke-miterlimit="10" stroke-width=".5"/>
  <path d="M27.72,30.87h0c.03.33-.03.73-.13,1.02-.19.53-.54.87-.96,1.22,0,0-.01,0-.01.01-.08.06-.16.13-.24.19-.06.05-.12.1-.18.13-.01.02-.03.04-.05.05-.13.1-.27.18-.38.25-.14.1-.26.16-.36.22.01-.21.03-.53.09-.9,0-.05.01-.1.02-.15,0-.02.01-.04.01-.06.01-.08.03-.16.04-.23.13-.16.25-.32.37-.5h0c.13-.19.25-.38.37-.59.12-.21.24-.46.37-.81.01-.05.01-.1.02-.15.02-.01.03-.01.04-.02.27-.16.54-.25.73-.14.14.08.22.25.25.46Z" fill="#eededf" stroke="#fbcbc0" stroke-miterlimit="10" stroke-width=".5"/>
  <path d="M26.03,35.57c-.14-.08-.33-.19-.55-.34-.05-.04-.11-.08-.17-.12-.01,0-.01-.01-.02-.02-.05-.04-.11-.08-.17-.13-.04-.03-.08-.07-.12-.1-.01-.01-.02-.02-.03-.02-.31-.26-.59-.51-.8-.83.39-.3.8-.68,1.19-1.14.06.06.1.12.14.19.13.21.21.43.27.68.02.07.04.15.05.23h0c.04.2.08.39.11.61.07.41.1.76.1.99Z" fill="#eededf" stroke="#fbcbc0" stroke-miterlimit="10" stroke-width=".5"/>
  <path d="M25.36,36.32c.22-.12.55-.32.91-.61.49-.4.93-.75,1.13-1.34.16-.46.22-1.2-.11-1.39-.32-.18-.9.23-1.2.56-.41.46-.51,1.03-.63,1.78-.07.42-.09.77-.1.99Z" fill="#eededf" stroke="#fbcbc0" stroke-miterlimit="10" stroke-width=".5"/>
  <path d="M26.06,37.7c-.2-.11-.5-.29-.82-.55-.44-.36-.84-.68-1.02-1.21-.14-.41-.2-1.08.1-1.25.29-.16.81.2,1.08.51.37.42.46.93.57,1.6.06.38.08.69.09.9Z" fill="#eededf" stroke="#fbcbc0" stroke-miterlimit="10" stroke-width=".5"/>
  <path d="M25.39,38.38c.2-.11.5-.29.82-.55.44-.36.84-.68,1.02-1.21.14-.41.2-1.08-.1-1.25-.29-.16-.81.2-1.08.51-.37.42-.46.93-.57,1.6-.06.38-.08.69-.09.9Z" fill="#eededf" stroke="#fbcbc0" stroke-miterlimit="10" stroke-width=".5"/>
  <path d="M25.99,39.77c-.2-.11-.49-.28-.81-.54-.44-.35-.82-.67-1-1.19-.14-.41-.19-1.06.1-1.23.28-.16.8.2,1.06.5.37.41.45.91.56,1.58.06.37.08.68.09.88Z" fill="#eededf" stroke="#fbcbc0" stroke-miterlimit="10" stroke-width=".5"/>
  <path d="M25.46,40.44c.2-.11.49-.28.81-.54.44-.35.82-.67,1-1.19.14-.41.19-1.06-.1-1.23-.28-.16-.8.2-1.06.5-.37.41-.45.91-.56,1.58-.06.37-.08.68-.09.88Z" fill="#eededf" stroke="#fbcbc0" stroke-miterlimit="10" stroke-width=".5"/>
  <path d="M26,41.9c-.18-.1-.44-.26-.73-.49-.4-.32-.75-.61-.91-1.08-.13-.37-.18-.97.09-1.12.26-.15.72.18.97.45.33.37.41.83.51,1.43.06.34.07.62.08.8Z" fill="#eededf" stroke="#fbcbc0" stroke-miterlimit="10" stroke-width=".5"/>
  <path d="M25.46,42.5c.18-.1.44-.26.73-.49.4-.32.75-.61.91-1.08.13-.37.18-.97-.09-1.12-.26-.15-.72.18-.97.45-.33.37-.41.83-.51,1.43-.06.34-.07.62-.08.8Z" fill="#eededf" stroke="#fbcbc0" stroke-miterlimit="10" stroke-width=".5"/>
  <path d="M26.03,44.02c-.18-.1-.44-.26-.73-.49-.4-.32-.75-.61-.91-1.08-.13-.37-.18-.97.09-1.12.26-.15.72.18.97.45.33.37.41.83.51,1.43.06.34.07.62.08.8Z" fill="#eededf" stroke="#fbcbc0" stroke-miterlimit="10" stroke-width=".5"/>
  <path d="M25.43,44.62c.18-.1.44-.26.73-.49.4-.32.75-.61.91-1.08.13-.37.18-.97-.09-1.12-.26-.15-.72.18-.97.45-.33.37-.41.83-.51,1.43-.06.34-.07.62-.08.8Z" fill="#eededf" stroke="#fbcbc0" stroke-miterlimit="10" stroke-width=".5"/>
  <path d="M26.25,44.63c.4.45.51.86.55,1.1.05.32.01.62-.34,1.86-.15.51-.28.93-.37,1.24-.06-.21-.15-.53-.31-.88-.41-.94-.73-1.02-.89-1.59-.27-.99.31-2.15.57-2.14.09,0,.11.15.31.28.18.12.36.13.47.13Z" fill="#eededf" stroke="#fbcbc0" stroke-miterlimit="10" stroke-width=".5"/>
  <path d="M26.66,43.67c-.43-.01-.79-.05-1.04-.09-.54-.08-.86-.18-.99-.05-.08.08-.07.22,0,.3.09.09.24.03.54.02.18,0,.37.02.75.07.39.05.51.09.73.05.13-.03.34-.09.34-.16,0-.08-.32-.13-.34-.14Z" fill="#fefff3" stroke="#bdc6c5" stroke-miterlimit="10" stroke-width=".25"/>
  <path d="M26.66,44.09c-.43-.01-.79-.05-1.04-.09-.54-.08-.86-.18-.99-.05-.08.08-.07.22,0,.3.09.09.24.03.54.02.18,0,.37.02.75.07.39.05.51.09.73.05.13-.03.34-.09.34-.16,0-.08-.32-.13-.34-.14Z" fill="#fefff3" stroke="#bdc6c5" stroke-miterlimit="10" stroke-width=".25"/>
  <path d="M24.95,44.42c.43.06.78.08,1.04.08.55.01.87-.04.98.12.06.09.03.23-.05.29-.1.07-.24,0-.54-.07-.17-.03-.37-.04-.75-.06-.39-.02-.52,0-.72-.08-.12-.05-.32-.14-.31-.21.02-.08.34-.08.36-.08Z" fill="#fefff3" stroke="#bdc6c5" stroke-miterlimit="10" stroke-width=".25"/>
  <path d="M12.99,32.93c-.16.11-.3.19-.41.25,0-.18.02-.42.06-.72.1.15.21.31.35.47Z" fill="#eededf" stroke="#fbcbc0" stroke-miterlimit="10" stroke-width=".5"/>
  <path d="M12.99,32.93c-.14-.16-.25-.32-.35-.47-.38-.53-.62-1-.77-1.31h0c-.06-.22-.12-.45-.17-.68-.05-.03-.1-.05-.14-.06-.15-.05-.3-.05-.41.01-.21.12-.27.46-.24.81.01.24.06.47.13.67.18.53.53.87.95,1.22t.01.01c.08.07.16.13.24.2s.16.13.24.18c.14.1.26.19.37.26.14.09.26.15.36.21-.01-.21-.02-.51-.08-.87" fill="#eededf" stroke="#fbcbc0" stroke-miterlimit="10" stroke-width=".5"/>
  <path d="M13.12,33.1c-.12.2-.21.42-.27.67-.02.07-.03.14-.04.21h0c-.05.2-.08.39-.12.61-.07.42-.09.76-.1.99.15-.08.34-.19.55-.34.05-.04.11-.08.17-.12.1-.09.22-.19.34-.27.24-.2.47-.4.65-.62-.46-.36-.85-.74-1.17-1.12" fill="#eededf" stroke="#fbcbc0" stroke-miterlimit="10" stroke-width=".5"/>
  <path d="M13.26,36.33c-.22-.12-.55-.32-.91-.61-.49-.4-.93-.75-1.13-1.34-.16-.46-.22-1.2.11-1.39.32-.18.9.23,1.2.56.41.46.51,1.03.63,1.78.07.42.09.77.1.99Z" fill="#eededf" stroke="#fbcbc0" stroke-miterlimit="10" stroke-width=".5"/>
  <path d="M12.56,37.71c.2-.11.5-.29.82-.55.44-.36.84-.68,1.02-1.21.14-.41.2-1.08-.1-1.25-.29-.16-.81.2-1.08.51-.37.42-.46.93-.57,1.6-.06.38-.08.69-.09.9Z" fill="#eededf" stroke="#fbcbc0" stroke-miterlimit="10" stroke-width=".5"/>
  <path d="M13.23,38.39c-.2-.11-.5-.29-.82-.55-.44-.36-.84-.68-1.02-1.21-.14-.41-.2-1.08.1-1.25.29-.16.81.2,1.08.51.37.42.46.93.57,1.6.06.38.08.69.09.9Z" fill="#eededf" stroke="#fbcbc0" stroke-miterlimit="10" stroke-width=".5"/>
  <path d="M12.63,39.79c.2-.11.49-.28.81-.54.44-.35.82-.67,1-1.19.14-.41.19-1.06-.1-1.23-.28-.16-.8.2-1.06.5-.37.41-.45.91-.56,1.58-.06.37-.08.68-.09.88Z" fill="#eededf" stroke="#fbcbc0" stroke-miterlimit="10" stroke-width=".5"/>
  <path d="M13.16,40.45c-.2-.11-.49-.28-.81-.54-.44-.35-.82-.67-1-1.19-.14-.41-.19-1.06.1-1.23.28-.16.8.2,1.06.5.37.41.45.91.56,1.58.06.37.08.68.09.88Z" fill="#eededf" stroke="#fbcbc0" stroke-miterlimit="10" stroke-width=".5"/>
  <path d="M12.63,41.91c.18-.1.44-.26.73-.49.4-.32.75-.61.91-1.08.13-.37.18-.97-.09-1.12-.26-.15-.72.18-.97.45-.33.37-.41.83-.51,1.43-.06.34-.07.62-.08.8Z" fill="#eededf" stroke="#fbcbc0" stroke-miterlimit="10" stroke-width=".5"/>
  <path d="M13.16,42.51c-.18-.1-.44-.26-.73-.49-.4-.32-.75-.61-.91-1.08-.13-.37-.18-.97.09-1.12.26-.15.72.18.97.45.33.37.41.83.51,1.43.06.34.07.62.08.8Z" fill="#eededf" stroke="#fbcbc0" stroke-miterlimit="10" stroke-width=".5"/>
  <path d="M12.6,44.03c.18-.1.44-.26.73-.49.4-.32.75-.61.91-1.08.13-.37.18-.97-.09-1.12-.26-.15-.72.18-.97.45-.33.37-.41.83-.51,1.43-.06.34-.07.62-.08.8Z" fill="#eededf" stroke="#fbcbc0" stroke-miterlimit="10" stroke-width=".5"/>
  <path d="M13.19,44.63c-.18-.1-.44-.26-.73-.49-.4-.32-.75-.61-.91-1.08-.13-.37-.18-.97.09-1.12.26-.15.72.18.97.45.33.37.41.83.51,1.43.06.34.07.62.08.8Z" fill="#eededf" stroke="#fbcbc0" stroke-miterlimit="10" stroke-width=".5"/>
  <path d="M12.37,44.65c-.4.45-.51.86-.55,1.1-.05.32-.01.62.34,1.86.15.51.28.93.37,1.24.06-.21.15-.53.31-.88.41-.94.73-1.02.89-1.59.27-.99-.31-2.15-.57-2.14-.09,0-.11.15-.31.28-.18.12-.36.13-.47.13Z" fill="#eededf" stroke="#fbcbc0" stroke-miterlimit="10" stroke-width=".5"/>
  <path d="M11.96,43.74c.43-.01.79-.05,1.04-.09.54-.08.86-.18.99-.05.08.08.07.22,0,.3-.09.09-.24.03-.54.02-.18,0-.37.02-.75.07-.39.05-.51.09-.73.05-.13-.03-.34-.09-.34-.16,0-.08.32-.13.34-.14Z" fill="#fefff3" stroke="#bdc6c5" stroke-miterlimit="10" stroke-width=".25"/>
  <path d="M11.96,44.1c.43-.01.79-.05,1.04-.09.54-.08.86-.18.99-.05.08.08.07.22,0,.3-.09.09-.24.03-.54.02-.18,0-.37.02-.75.07-.39.05-.51.09-.73.05-.13-.03-.34-.09-.34-.16,0-.08.32-.13.34-.14Z" fill="#fefff3" stroke="#bdc6c5" stroke-miterlimit="10" stroke-width=".25"/>
  <path d="M13.68,44.45c-.43.06-.78.08-1.04.08-.55.01-.87-.04-.98.12-.06.09-.03.23.05.29.1.07.24,0,.54-.07.17-.03.37-.04.75-.06.39-.02.52,0,.72-.08.12-.05.32-.14.31-.21-.02-.08-.34-.08-.36-.08Z" fill="#fefff3" stroke="#bdc6c5" stroke-miterlimit="10" stroke-width=".25"/>
  <path d="M27.89,29.16c0,.46-.02.88-.08,1.28,0,.02,0,.04-.01.06-.02.12-.05.25-.08.37h0c-.08.29-.18.57-.33.85-.46.88-1.21,1.53-1.34,1.45,0-.03,0-.07-.01-.11h0c.04-.17.18-.51.36-1.15.01-.02.17-.56.27-1.14,0-.02.01-.03.01-.05.01-.05.01-.1.02-.15.06-.42.11-.83.16-1.44.06-.79.09-1.36.13-2.32.04-.87.06-1.3.08-1.85v-.22c.03-1.08-.01-1.3.04-1.31.04,0,.18.42.32,1.13.22,1.06.46,2.76.46,4.6Z" fill="#eededf" stroke="#fbcbc0" stroke-miterlimit="10" stroke-width=".5"/>
  <path d="M29.63,24.64c-.02.1-.04.2-.05.28,0,0-.03.14-.07.29-.04.21-.75,2.52-1.74,5.67.01-.13.03-.26.03-.38.01-.02.01-.04.01-.06.17-2.02-.07-3.6-.41-4.79-.1-.33-.21-.64-.33-.91-.31-.78-.65-1.32-.88-1.65-.77-1.1-2.02-2.32-2.58-2.87-1.2-1.17-2.3-2.04-3.1-2.64-.54.49-1.5,1.32-2.75,2.3-3.59,2.8-4.61,3.31-5.62,4.7-.05.07-.1.13-.14.21-.01,0-.01.01-.01.01-.34.51-.69,1.16-.95,2-.29.88-.48,1.96-.5,3.3v.5c-.5-1.27-2.78-7.41.23-12.56.7-1.2,2-3.42,4.58-4.01,2.23-.51,4.11.46,4.7.8.48-.21,2.87-1.19,5.51-.11.07.03.18.07.31.13,0,0,1.7.8,2.9,2.62,1.57,2.39,1.14,5.73.86,7.17Z" fill="#eededf" stroke="#fbcbc0" stroke-miterlimit="10" stroke-width=".5"/>
</svg>