<?xml version="1.0" encoding="UTF-8"?>
<svg id="basic_bedroom" xmlns="http://www.w3.org/2000/svg" xmlns:xlink="http://www.w3.org/1999/xlink" viewBox="0 0 135.36 277.2">
  <defs>
    <pattern id="New_Pattern" data-name="New Pattern" x="0" y="0" width="4.65" height="5.07" patternTransform="translate(-332.92 -317.03)" patternUnits="userSpaceOnUse" viewBox="0 0 4.65 5.07">
      <g>
        <rect y="0" width="4.65" height="5.07" fill="none"/>
        <g>
          <path d="M4.98,4.18c-.09-.04-.3-.13-.41-.1-.09.02-.15.19-.21.27-.05.07.16.31.14.42-.02.11-.17.16-.16.27.02.14.01.26.06.36.06.12.12.27.2.29.08.02.14-.14.21-.22.06-.07.03-.2.07-.31.04-.09.1-.13.13-.24.03-.1.09-.17.09-.25,0-.1.15-.23.13-.29-.03-.08-.16-.17-.25-.2Z" fill="#ba9d85"/>
          <path d="M3.83,3.94c-.17-.15-.58-.51-.8-.55-.18-.03-.39.19-.58.29-.2.11.24.53.18.67-.07.18-.45.21-.25.34.21.12.43.18.75.14.24-.03.59-.03.76-.11.16-.08,0-.26.01-.37,0-.13.1-.26-.07-.41Z" fill="#ba9d85"/>
        </g>
        <g>
          <path d="M.9,3.63c-.06.06-.19.19-.18.29,0,.08.12.2.16.3.03.09.31-.11.38-.06s0,.28.08.3c.09.02.17.06.26,0,.12-.07.27-.14.36-.29s.03-.26.03-.39c0-.1-.15-.01-.2-.08-.05-.05-.04-.12-.12-.14s-.11-.07-.2-.06c-.1.01-.19-.1-.28-.06-.11.04-.24.13-.3.19Z" fill="#ba9d85"/>
          <path d="M1.58,4.86c-.09-.04-.29-.13-.39-.07-.09.07-.17.33-.26.47-.09.13.33.24.31.37s-.35.3-.32.4c.05.11.04.22.19.25.18.02.4.05.67-.05s.36-.26.52-.38c.12-.09-.11-.11-.08-.2.02-.07.11-.13.05-.19s-.02-.12-.12-.16c-.1-.06-.07-.16-.18-.21-.12-.07-.29-.18-.38-.22Z" fill="#ba9d85"/>
          <path d="M.33,4.18c-.09-.04-.3-.13-.41-.1-.09.02-.15.19-.21.27-.05.07.16.31.14.42-.02.11-.17.16-.16.27.02.14.01.26.06.36.06.12.12.27.2.29.08.02.14-.14.21-.22.06-.07.03-.2.07-.31.04-.09.1-.13.13-.24.03-.1.09-.17.09-.25,0-.1.15-.23.13-.29-.03-.08-.16-.17-.25-.2Z" fill="#ba9d85"/>
        </g>
        <g>
          <path d="M.64,3.51c-.04.17-.12.57-.05.68.06.09.31.02.43.04.11.01.25-.4.37-.42s.26.14.36.09c.11-.06.22-.09.26-.16.04-.07.1-.15.03-.22s-.22-.12-.32-.19c-.08-.07-.13,0-.22-.06-.08-.05-.12-.12-.2-.14s-.13-.1-.19-.08c-.08.03-.19-.19-.25-.1-.08.11-.18.4-.21.57Z" fill="#ba9d85"/>
          <path d="M3.23,1.09c-.06.06-.19.19-.18.29,0,.08.12.2.16.3.03.09.31-.11.38-.06s0,.28.08.3c.09.02.17.06.26,0,.12-.07.27-.14.36-.29s.03-.26.03-.39c0-.1-.15-.01-.2-.08-.05-.05-.04-.12-.12-.14s-.11-.07-.2-.06c-.1.01-.19-.1-.28-.06-.11.04-.24.13-.3.19Z" fill="#ba9d85"/>
          <path d="M3.9,2.33c-.09-.04-.29-.13-.39-.07-.09.07-.17.33-.26.47-.09.13.33.24.31.37s-.35.3-.32.4c.05.11.04.22.19.25.18.02.4.05.67-.05s.36-.26.52-.38c.12-.09-.11-.11-.08-.2.02-.07.11-.13.05-.19s-.02-.12-.12-.16c-.1-.06-.07-.16-.18-.21-.12-.07-.29-.18-.38-.22Z" fill="#ba9d85"/>
          <path d="M2.65,1.64c-.09-.04-.3-.13-.41-.1-.09.02-.15.19-.21.27-.05.07.16.31.14.42-.02.11-.17.16-.16.27.02.14.01.26.06.36.06.12.12.27.2.29.08.02.14-.14.21-.22.06-.07.03-.2.07-.31.04-.09.1-.13.13-.24.03-.1.09-.17.09-.25,0-.1.15-.23.13-.29-.03-.08-.16-.17-.25-.2Z" fill="#ba9d85"/>
          <path d="M1.51,1.4c-.17-.15-.58-.51-.8-.55-.18-.03-.39.19-.58.29-.2.11.24.53.18.67-.07.18-.45.21-.25.34.21.12.43.18.75.14.24-.03.59-.03.76-.11.16-.08,0-.26.01-.37,0-.13.1-.26-.07-.41Z" fill="#ba9d85"/>
        </g>
        <g>
          <path d="M2.97.97c-.04.17-.12.57-.05.68.06.09.31.02.43.04.11.01.25-.4.37-.42s.26.14.36.09c.11-.06.22-.09.26-.16.04-.07.1-.15.03-.22s-.22-.12-.32-.19c-.08-.07-.13,0-.22-.06-.08-.05-.12-.12-.2-.14s-.13-.1-.19-.08c-.08.03-.19-.19-.25-.1-.08.11-.18.4-.21.57Z" fill="#ba9d85"/>
          <path d="M4.98-.9c-.09-.04-.3-.13-.41-.1-.09.02-.15.19-.21.27-.05.07.16.31.14.42-.02.11-.17.16-.16.27.02.14.01.26.06.36.06.12.12.27.2.29.08.02.14-.14.21-.22.06-.07.03-.2.07-.31.04-.09.1-.13.13-.24.03-.1.09-.17.09-.25,0-.1.15-.23.13-.29-.03-.08-.16-.17-.25-.2Z" fill="#ba9d85"/>
        </g>
        <g>
          <path d="M1.58-.21c-.09-.04-.29-.13-.39-.07-.09.07-.17.33-.26.47-.09.13.33.24.31.37s-.35.3-.32.4c.05.11.04.22.19.25.18.02.4.05.67-.05s.36-.26.52-.38c.12-.09-.11-.11-.08-.2.02-.07.11-.13.05-.19s-.02-.12-.12-.16c-.1-.06-.07-.16-.18-.21-.12-.07-.29-.18-.38-.22Z" fill="#ba9d85"/>
          <path d="M.33-.9c-.09-.04-.3-.13-.41-.1-.09.02-.15.19-.21.27-.05.07.16.31.14.42-.02.11-.17.16-.16.27.02.14.01.26.06.36.06.12.12.27.2.29.08.02.14-.14.21-.22.06-.07.03-.2.07-.31C.28,0,.34-.04.37-.15c.03-.1.09-.17.09-.25,0-.1.15-.23.13-.29-.03-.08-.16-.17-.25-.2Z" fill="#ba9d85"/>
        </g>
      </g>
    </pattern>
  </defs>
  <rect x="-1.91" y="-3.03" width="141.02" height="178.91" fill="#cfe9ed"/>
  <polygon points="138.65 278.93 137.38 278.14 136.25 278.59 135.13 279.13 134 278.61 132.88 278.91 131.75 279.17 130.63 278.59 129.5 277.85 128.37 278.63 127.24 278.72 126.12 277.84 124.99 278.01 123.86 278.55 122.74 277.79 121.61 278.96 120.48 278.99 119.36 279.15 118.23 278.32 117.11 278.27 115.98 278.15 114.86 278.11 113.74 278.48 112.61 278.38 111.49 278.38 110.36 278.12 109.24 278.26 108.12 278.91 106.99 277.81 105.87 278.29 104.74 278.84 103.61 279 102.49 277.76 101.36 278.43 100.23 277.93 99.11 277.94 97.98 278.41 96.85 278.43 95.72 278.88 94.59 278.35 93.47 278.94 92.34 279.09 91.21 278.16 90.09 278.29 88.96 278.7 87.83 278.23 86.71 277.89 85.58 278.12 84.46 278.95 83.33 278.36 82.2 277.9 81.08 278.58 79.95 279.01 78.82 278.21 77.69 278.09 76.56 278.68 75.43 279.05 74.3 278.73 73.18 278.94 72.05 278.49 70.92 277.82 69.79 278.91 68.67 278.96 67.54 278.22 66.41 278.85 65.29 278.92 64.16 278.65 63.03 278.71 61.9 279.18 60.77 278.83 59.64 278.35 58.51 279.09 57.38 278.46 56.26 279.13 55.13 277.93 54 278.02 52.87 278.16 51.74 278.28 50.61 278.76 49.48 278.67 48.35 278.72 47.22 277.84 46.09 278.62 44.97 277.95 43.84 278.69 42.71 279.13 41.58 278.67 40.45 279.01 39.33 278 38.2 278.79 37.07 278.84 35.95 278.77 34.82 277.93 33.7 279 32.57 279.18 31.44 277.97 30.31 278.5 29.18 278.05 28.05 277.99 26.92 278.69 25.79 278.74 24.66 278.49 23.53 278.6 22.4 277.82 21.27 279.1 20.14 278.59 19.01 278.22 17.88 278.97 16.75 278.66 15.62 278.62 14.48 278.04 13.35 278.2 12.22 279.16 11.09 279.14 9.96 278.2 8.83 279.05 7.7 278.53 6.57 278.4 5.43 279.18 4.3 277.85 3.17 278.91 2.03 279.06 .9 277.9 -.24 279.17 -1.38 278.92 -2.42 278.37 -2.74 277.35 -2.07 276.23 -1.9 275.1 -3.09 273.98 -2.51 272.85 -2.84 271.73 -3.11 270.6 -2.41 269.48 -2.04 268.35 -2.88 267.23 -2.44 266.11 -3.19 264.98 -2.75 263.86 -2.12 262.74 -2.09 261.62 -2.92 260.49 -1.98 259.37 -2.69 258.25 -2.91 257.12 -2.51 256 -2.23 254.88 -2.16 253.75 -2.34 252.63 -3 251.5 -2.85 250.37 -2.1 249.25 -2.95 248.12 -1.86 247 -2.49 245.88 -2.52 244.75 -2.59 243.63 -1.84 242.5 -2.43 241.38 -2.24 240.26 -2.72 239.13 -2.32 238.01 -1.83 236.88 -1.83 235.75 -3.21 234.63 -3.13 233.5 -2.04 232.38 -1.83 231.25 -2.82 230.13 -2.6 229 -2.63 227.88 -2.85 226.75 -2.36 225.62 -2.37 224.5 -2.01 223.37 -3.16 222.25 -2.45 221.12 -2.22 220 -2.24 218.87 -1.94 217.75 -3.11 216.62 -3.16 215.5 -2.46 214.37 -2.25 213.25 -2.59 212.13 -2.1 211 -2.02 209.88 -3.13 208.76 -2.79 207.63 -2.03 206.51 -1.94 205.38 -2.35 204.25 -3 203.13 -2.38 202 -2.94 200.88 -2.12 199.75 -1.92 198.62 -2.15 197.5 -2.87 196.37 -3.1 195.24 -2.99 194.12 -1.91 192.99 -2.05 191.86 -2.24 190.73 -2.5 189.6 -2.9 188.47 -1.95 187.34 -2.81 186.22 -3.03 185.1 -2.2 183.97 -2.82 182.84 -3.09 181.71 -2.94 180.58 -2.38 179.45 -3.12 178.32 -2.41 177.18 -3.01 176.05 -2.91 174.92 -1.87 173.78 -2.46 172.66 -1.49 172.2 -.75 171.11 .53 171.21 1.66 171 2.51 170.15 3.88 170.53 4.67 169.5 5.7 169.05 6.86 168.93 7.88 168.46 8.99 168.25 9.94 167.58 11.07 167.42 12.01 166.7 13.23 166.79 14.19 166.13 15.12 165.38 16.09 164.71 17.14 164.3 18.5 164.87 19.63 164.73 20.52 163.79 21.64 163.61 22.7 163.2 23.8 162.95 24.88 162.65 26.18 163.19 27.04 162.06 28.04 161.42 29.3 161.86 30.28 161.1 31.35 160.72 32.67 161.51 33.67 160.84 34.65 160.01 35.93 160.69 36.92 159.9 38 159.56 39.14 159.54 40.22 159.13 41.33 158.97 42.58 159.67 43.69 159.47 44.67 158.43 45.93 159.35 47 158.89 48.14 158.97 49.25 158.84 50.35 158.58 51.38 157.58 52.48 157.23 53.69 158.05 54.83 158.24 55.87 157.03 57.03 157.48 58.13 157.04 59.26 157.02 60.4 157.04 61.52 156.86 62.69 157.97 63.81 157.53 64.92 156.51 66.06 157.2 67.2 157.41 68.33 157.03 69.47 157.52 70.6 157.58 71.76 156.65 72.88 157.28 74.04 156.63 75.12 158.02 76.25 157.99 77.39 157.86 78.51 158.19 79.64 158.2 80.86 157.02 81.92 158.05 83.1 157.55 84.25 157.46 85.38 157.63 86.52 157.63 87.66 157.68 88.68 158.75 89.77 159.1 90.99 158.52 92.14 158.49 93.1 159.77 94.31 159.34 95.48 159.16 96.6 159.35 97.67 159.8 98.84 159.71 99.78 160.83 101.08 160.08 102.01 161.14 103.29 160.55 104.47 160.5 105.27 162.06 106.39 162.24 107.61 161.99 108.72 162.19 109.89 162.19 110.91 162.76 111.96 163.23 113.14 163.22 114.18 163.72 115.42 163.49 116.24 164.74 117.61 164.1 118.69 164.47 119.5 165.63 120.77 165.4 121.89 165.59 122.98 165.9 123.88 166.76 124.89 167.27 125.9 167.81 127.01 168.05 128.38 167.61 128.99 169.19 130.31 168.91 131.16 169.82 132.33 169.93 133.6 169.8 134.49 170.6 135.27 171.63 136.36 171.95 137.43 172.29 137.97 172.98 137.81 173.77 139.12 174.9 139.11 176.03 138.27 177.15 137.98 178.28 138.27 179.4 139.12 180.53 138.64 181.66 138.53 182.78 138.35 183.91 138.67 185.03 139.02 186.16 138.89 187.28 138.74 188.41 138.19 189.54 138.82 190.66 138.71 191.79 137.94 192.91 138.6 194.04 138.92 195.16 139.19 196.29 138 197.42 139.19 198.54 138.95 199.67 139.21 200.79 138.27 201.92 139.01 203.05 139.06 204.17 137.99 205.3 138.05 206.42 138.05 207.55 138.77 208.67 138.26 209.8 138.48 210.93 138.37 212.05 137.85 213.18 138.84 214.3 138.6 215.43 138.73 216.55 139.05 217.68 137.99 218.81 138.99 219.93 138.5 221.06 138.94 222.18 139.07 223.31 137.95 224.44 138.87 225.56 138.37 226.69 138.3 227.81 139.18 228.94 138.24 230.06 138.49 231.19 138.08 232.32 138.94 233.44 138.68 234.57 138.18 235.69 137.99 236.82 138.74 237.94 138.8 239.07 139.18 240.2 138.61 241.32 138.64 242.45 138.44 243.57 138.55 244.7 138.98 245.83 138.62 246.95 137.81 248.08 137.91 249.2 138.14 250.33 138.97 251.45 139.14 252.58 139.18 253.71 137.81 254.83 138.43 255.96 137.89 257.08 138.7 258.21 139.09 259.33 138.21 260.46 138.85 261.59 138.5 262.71 138.86 263.84 139.21 264.96 138.15 266.09 137.83 267.22 139.15 268.34 139.13 269.47 138.1 270.59 137.85 271.72 138.94 272.84 138.29 273.97 138.87 275.1 138.61 276.22 139.02 277.35 138.65 278.93" fill="#c1a387"/>
  <path d="M139.11,279.7H-1.91v-105.82c13.27-6.12,38.25-15.54,70.85-15.47,32.23.07,56.93,9.37,70.17,15.47v105.82Z" fill="url(#New_Pattern)"/>
</svg>