<?xml version="1.0" encoding="UTF-8"?>
<svg id="bedroom_floor" xmlns="http://www.w3.org/2000/svg" viewBox="0 0 136.8 277.57">
  <polygon points="139.37 279.11 138.1 278.32 136.97 278.78 135.85 279.32 134.72 278.8 133.6 279.09 132.47 279.36 131.35 278.77 130.22 278.03 129.09 278.81 127.96 278.91 126.84 278.02 125.71 278.19 124.58 278.73 123.46 277.98 122.33 279.14 121.2 279.18 120.08 279.34 118.95 278.5 117.83 278.45 116.7 278.33 115.58 278.3 114.46 278.66 113.33 278.56 112.21 278.56 111.08 278.3 109.96 278.45 108.84 279.09 107.71 278 106.59 278.48 105.46 279.02 104.33 279.18 103.21 277.94 102.08 278.62 100.95 278.12 99.83 278.12 98.7 278.6 97.57 278.61 96.44 279.06 95.31 278.54 94.19 279.12 93.06 279.27 91.93 278.35 90.81 278.48 89.68 278.88 88.55 278.41 87.43 278.08 86.3 278.3 85.18 279.13 84.05 278.55 82.92 278.08 81.8 278.76 80.67 279.2 79.54 278.39 78.41 278.27 77.28 278.87 76.15 279.24 75.02 278.91 73.9 279.12 72.77 278.68 71.64 278 70.51 279.1 69.39 279.14 68.26 278.4 67.13 279.03 66.01 279.1 64.88 278.83 63.75 278.89 62.62 279.37 61.49 279.01 60.36 278.53 59.23 279.27 58.1 278.64 56.98 279.31 55.85 278.12 54.72 278.21 53.59 278.34 52.46 278.46 51.33 278.94 50.2 278.86 49.07 278.9 47.94 278.03 46.81 278.8 45.69 278.13 44.56 278.88 43.43 279.32 42.3 278.85 41.17 279.2 40.05 278.18 38.92 278.98 37.79 279.02 36.67 278.95 35.54 278.11 34.42 279.18 33.29 279.36 32.16 278.16 31.03 278.68 29.9 278.24 28.77 278.18 27.64 278.88 26.51 278.92 25.38 278.67 24.25 278.79 23.12 278.01 21.99 279.28 20.86 278.78 19.73 278.4 18.6 279.15 17.47 278.85 16.34 278.8 15.2 278.23 14.07 278.38 12.94 279.35 11.81 279.33 10.68 278.38 9.55 279.23 8.42 278.71 7.29 278.58 6.15 279.36 5.02 278.04 3.89 279.1 2.75 279.25 1.62 278.08 .48 279.36 -.66 279.1 -1.7 278.56 -2.02 277.53 -1.35 276.41 -1.18 275.29 -2.37 274.16 -1.79 273.04 -2.12 271.91 -2.39 270.79 -1.69 269.66 -1.32 268.54 -2.16 267.41 -1.72 266.29 -2.47 265.17 -2.03 264.04 -1.4 262.92 -1.37 261.8 -2.2 260.68 -1.26 259.55 -1.97 258.43 -2.19 257.31 -1.79 256.18 -1.51 255.06 -1.44 253.94 -1.62 252.81 -2.28 251.68 -2.13 250.56 -1.38 249.43 -2.23 248.31 -1.14 247.18 -1.77 246.06 -1.8 244.94 -1.87 243.81 -1.12 242.69 -1.71 241.56 -1.52 240.44 -2 239.31 -1.6 238.19 -1.11 237.06 -1.11 235.94 -2.49 234.81 -2.41 233.68 -1.32 232.56 -1.11 231.44 -2.1 230.31 -1.88 229.19 -1.91 228.06 -2.13 226.93 -1.64 225.81 -1.65 224.68 -1.29 223.55 -2.44 222.43 -1.73 221.3 -1.5 220.18 -1.52 219.06 -1.22 217.93 -2.39 216.8 -2.44 215.68 -1.74 214.56 -1.53 213.43 -1.87 212.31 -1.38 211.19 -1.3 210.07 -2.41 208.94 -2.07 207.82 -1.31 206.69 -1.22 205.56 -1.63 204.44 -2.28 203.31 -1.66 202.19 -2.22 201.06 -1.4 199.94 -1.2 198.81 -1.43 197.68 -2.15 196.55 -2.38 195.43 -2.27 194.3 -1.19 193.17 -1.33 192.04 -1.52 190.91 -1.78 189.79 -2.18 188.66 -1.23 187.53 -2.09 186.4 -2.31 185.28 -1.48 184.15 -2.1 183.02 -2.37 181.89 -2.22 180.76 -1.66 179.63 -2.4 178.5 -1.69 177.37 -2.29 176.24 -2.19 175.1 -1.15 173.97 -1.74 172.85 -.77 172.38 -.03 171.3 1.25 171.39 2.38 171.18 3.23 170.33 4.6 170.71 5.39 169.68 6.42 169.23 7.58 169.11 8.6 168.64 9.71 168.43 10.66 167.76 11.79 167.6 12.73 166.89 13.95 166.97 14.91 166.31 15.84 165.56 16.81 164.9 17.86 164.48 19.22 165.05 20.35 164.91 21.24 163.97 22.36 163.79 23.42 163.38 24.52 163.13 25.6 162.83 26.9 163.37 27.76 162.24 28.76 161.61 30.02 162.04 31 161.28 32.07 160.9 33.39 161.7 34.39 161.02 35.37 160.19 36.65 160.88 37.64 160.08 38.72 159.75 39.86 159.72 40.94 159.32 42.05 159.15 43.3 159.85 44.41 159.65 45.39 158.61 46.65 159.53 47.72 159.07 48.86 159.15 49.97 159.02 51.07 158.76 52.1 157.76 53.2 157.42 54.41 158.23 55.55 158.42 56.59 157.22 57.75 157.66 58.85 157.23 59.98 157.2 61.12 157.23 62.24 157.04 63.41 158.15 64.53 157.71 65.64 156.7 66.78 157.38 67.92 157.59 69.05 157.21 70.19 157.71 71.32 157.76 72.48 156.84 73.6 157.47 74.76 156.82 75.84 158.2 76.97 158.17 78.11 158.04 79.23 158.37 80.36 158.38 81.58 157.21 82.64 158.24 83.82 157.73 84.97 157.64 86.1 157.82 87.24 157.82 88.38 157.86 89.4 158.93 90.49 159.28 91.71 158.71 92.86 158.67 93.82 159.95 95.03 159.53 96.2 159.34 97.32 159.54 98.39 159.98 99.56 159.89 100.5 161.01 101.8 160.26 102.73 161.33 104.01 160.73 105.19 160.68 105.99 162.25 107.11 162.42 108.33 162.17 109.44 162.37 110.61 162.37 111.63 162.95 112.68 163.42 113.86 163.4 114.9 163.9 116.14 163.68 116.96 164.92 118.33 164.29 119.41 164.65 120.22 165.81 121.49 165.58 122.61 165.77 123.7 166.09 124.6 166.95 125.61 167.45 126.62 167.99 127.73 168.23 129.1 167.8 129.71 169.37 131.03 169.09 131.88 170 133.05 170.11 134.32 169.98 135.21 170.79 135.99 171.81 137.08 172.13 138.15 172.47 138.69 173.17 138.53 173.96 139.84 175.08 139.83 176.21 138.99 177.34 138.7 178.46 138.99 179.59 139.84 180.71 139.36 181.84 139.25 182.96 139.07 184.09 139.39 185.22 139.74 186.34 139.61 187.47 139.46 188.59 138.91 189.72 139.54 190.84 139.43 191.97 138.66 193.1 139.32 194.22 139.64 195.35 139.91 196.47 138.72 197.6 139.91 198.73 139.67 199.85 139.93 200.98 138.99 202.1 139.73 203.23 139.78 204.35 138.71 205.48 138.77 206.61 138.77 207.73 139.49 208.86 138.98 209.98 139.2 211.11 139.09 212.24 138.57 213.36 139.56 214.49 139.32 215.61 139.45 216.74 139.77 217.86 138.71 218.99 139.71 220.12 139.22 221.24 139.66 222.37 139.79 223.49 138.67 224.62 139.59 225.74 139.09 226.87 139.02 228 139.9 229.12 138.96 230.25 139.21 231.37 138.8 232.5 139.66 233.63 139.4 234.75 138.9 235.88 138.71 237 139.46 238.13 139.52 239.25 139.9 240.38 139.33 241.51 139.36 242.63 139.16 243.76 139.27 244.88 139.7 246.01 139.34 247.13 138.53 248.26 138.63 249.39 138.86 250.51 139.69 251.64 139.86 252.76 139.9 253.89 138.53 255.02 139.15 256.14 138.61 257.27 139.42 258.39 139.81 259.52 138.93 260.64 139.57 261.77 139.22 262.9 139.58 264.02 139.93 265.15 138.87 266.27 138.55 267.4 139.87 268.52 139.85 269.65 138.82 270.78 138.57 271.9 139.66 273.03 139.01 274.15 139.59 275.28 139.33 276.41 139.74 277.53 139.37 279.11" fill="#c1a387"/>
</svg>