<svg width="251" height="250" viewBox="0 0 251 250" fill="none" xmlns="http://www.w3.org/2000/svg">
<g id="framedPictureOcean">
<path id="Vector" d="M243.842 208.333C243.842 212.017 242.379 215.55 239.774 218.154C237.17 220.759 233.637 222.222 229.953 222.222H21.62C17.9364 222.222 14.4037 220.759 11.7991 218.154C9.1944 215.55 7.73111 212.017 7.73111 208.333V41.6667C7.73111 37.9832 9.1944 34.4505 11.7991 31.8458C14.4037 29.2411 17.9364 27.7778 21.62 27.7778H229.953C233.637 27.7778 237.17 29.2411 239.774 31.8458C242.379 34.4505 243.842 37.9832 243.842 41.6667V208.333Z" fill="#D79E84"/>
<path id="Vector_2" d="M229.953 27.7778H21.62C17.9364 27.7778 14.4037 29.2411 11.7991 31.8458C9.1944 34.4505 7.73111 37.9832 7.73111 41.6667V208.333C7.73111 211.035 8.53667 213.528 9.86305 215.66L241.321 33.7292C240.045 31.8962 238.345 30.3981 236.366 29.362C234.387 28.326 232.187 27.7825 229.953 27.7778Z" fill="#BF6952"/>
<path id="Vector_3" d="M216.064 152.778V62.5C216.064 60.6582 215.333 58.8919 214.03 57.5895C212.728 56.2872 210.962 55.5555 209.12 55.5555H42.4533C40.6115 55.5555 38.8452 56.2872 37.5429 57.5895C36.2405 58.8919 35.5089 60.6582 35.5089 62.5V152.778H216.064Z" fill="#8CCAF7"/>
<path id="Vector_4" d="M42.4533 194.444H132.731V145.833H35.5089V187.5C35.5089 189.342 36.2405 191.108 37.5429 192.411C38.8452 193.713 40.6115 194.444 42.4533 194.444Z" fill="#5DADEC"/>
<path id="Vector_5" d="M132.731 145.833V194.444H209.12C210.962 194.444 212.728 193.713 214.03 192.411C215.333 191.108 216.064 189.342 216.064 187.5V145.833H132.731Z" fill="#292F33"/>
<path id="Vector_6" d="M139.676 131.944C135.419 131.944 133.759 139.771 129.919 145.833C127.495 149.653 124.21 152.778 118.842 152.778C104.953 152.778 104.953 173.611 98.0089 173.611C89.2867 173.611 80.5644 184.569 75.2797 194.444H132.731C138.835 182.236 144.96 170.042 160.509 167.271C162.801 166.862 165.125 166.66 167.453 166.667C188.287 166.667 189.023 155.882 195.231 152.778C204.662 148.063 210.863 149.743 216.064 151.313V131.944H139.676Z" fill="#67757F"/>
<path id="Vector_7" d="M174.398 76.3889L146.62 104.167V131.944H202.176V104.167L174.398 76.3889Z" fill="#E75A70"/>
<path id="Vector_8" d="M202.176 111.111C200.334 111.111 198.568 110.379 197.266 109.076L174.398 86.2083L151.53 109.076C150.228 110.379 148.461 111.11 146.62 111.11C144.778 111.11 143.012 110.379 141.71 109.076C140.408 107.774 139.677 106.008 139.677 104.167C139.677 102.325 140.408 100.559 141.71 99.2569L169.488 71.4792C170.79 70.1773 172.556 69.4459 174.398 69.4459C176.239 69.4459 178.005 70.1773 179.307 71.4792L207.085 99.2569C208.06 100.227 208.724 101.464 208.993 102.812C209.263 104.16 209.126 105.558 208.6 106.828C208.074 108.098 207.183 109.184 206.039 109.946C204.895 110.709 203.55 111.114 202.176 111.111Z" fill="#292F33"/>
<path id="Vector_9" d="M160.509 111.111H174.398V131.944H160.509V111.111Z" fill="#BB1A34"/>
<path id="Vector_10" d="M120.363 98.0903C120.364 96.3801 120.028 94.6865 119.374 93.1064C118.72 91.5262 117.761 90.0904 116.551 88.8811C115.342 87.6719 113.906 86.7128 112.326 86.0588C110.746 85.4047 109.052 85.0685 107.342 85.0695C106.794 85.0695 106.266 85.1667 105.731 85.2292C105.93 84.3357 106.032 83.4144 106.037 82.4653C106.038 80.7551 105.701 79.0615 105.047 77.4814C104.393 75.9012 103.434 74.4654 102.225 73.2561C101.016 72.0469 99.5799 71.0878 97.9998 70.4338C96.4196 69.7797 94.726 69.4435 93.0158 69.4445C90.8172 69.447 88.6551 70.0078 86.7324 71.0743C84.8096 72.1407 83.1891 73.6779 82.0228 75.5417C80.5447 74.9696 78.9757 74.6685 77.3908 74.6528C74.2375 74.6592 71.1942 75.8127 68.8289 77.8982C66.4637 79.9836 64.938 82.8584 64.5367 85.9861C63.0321 85.3938 61.4314 85.0831 59.8144 85.0695C56.3611 85.0695 53.0492 86.4413 50.6073 88.8832C48.1654 91.3251 46.7936 94.637 46.7936 98.0903C46.7936 101.544 48.1654 104.856 50.6073 107.297C53.0492 109.739 56.3611 111.111 59.8144 111.111C60.0992 111.111 60.37 111.042 60.6547 111.028L60.6825 111.111H107.558V111.09C110.971 111.037 114.227 109.645 116.622 107.213C119.018 104.781 120.362 101.504 120.363 98.0903Z" fill="white"/>
</g>
</svg>
