<?xml version="1.0" encoding="UTF-8"?>
<svg id="red_racecar_bed" xmlns="http://www.w3.org/2000/svg" viewBox="0 0 86.27 46.26">
  <path d="M1,6.94c2.12-.19,4.63-.23,7.41.11,1.11.14,2.16.32,3.13.54,5.63-.48,11.26-.97,16.89-1.45.71-.47,1.79-1.07,3.21-1.45,1.72-.47,3.21-.41,4.13-.31.03,2.39.05,4.79.08,7.18-8.33.38-16.66.76-24.99,1.15-3.29-1.92-6.57-3.85-9.86-5.77Z" fill="#282728"/>
  <path d="M35.78,4.38c.05,2.65.1,5.3.15,7.95,13.39,3.83,26.78,7.66,40.17,11.49,2.28-.57,4.56-1.14,6.84-1.71-2.01-2.09-5.6-5.23-10.93-7.26-3.96-1.51-7.34-1.76-7.34-1.76-2.57-.24-3.8.03-6.27-.54-2.63-.6-4.43-1.64-5.2-2.06-2.65-1.45-7.54-3.51-17.43-6.11Z" fill="#ce2e3a"/>
  <path d="M18.35,17.52c7.57,4.74,15.13,9.48,22.7,14.22,11.82-2.62,23.64-5.25,35.46-7.87-13.38-3.8-26.75-7.59-40.13-11.39-6.01,1.68-12.03,3.36-18.04,5.04Z" fill="#ddd" stroke="#ccc8c8" stroke-miterlimit="10" stroke-width=".5"/>
  <path d="M28.97,21.5c4.3-.67,8.74-1.46,13.3-2.37,3.27-.65,6.46-1.35,9.55-2.06-4.74-1.61-9.48-3.21-14.22-4.82-6.98,1.73-13.96,3.46-20.94,5.2,1.67.86,3.69,1.75,6.04,2.52,2.31.76,4.44,1.23,6.27,1.53Z" fill="#ddd" stroke="#ccc8c8" stroke-miterlimit="10" stroke-width=".5"/>
  <line x1="4.59" y1="13.02" x2="5.28" y2="13.05" fill="none" stroke="#3f3e3d" stroke-miterlimit="10" stroke-width=".5"/>
  <path d="M41.51,30.29c13.81-2.73,27.61-5.45,41.42-8.18,1.11,1.32,2.22,2.63,3.33,3.95-.09.56-.26,1.39-.66,2.32-1.97,4.63-7.17,6.37-10.62,7.57-5.87,2.03-10.81,1.7-15.75,1.38-5.14-.34-8.62-1.34-10.17-1.83-2.08-.66-3.79-1.39-5.04-1.99-.84-1.07-1.68-2.14-2.52-3.21Z" fill="#282728"/>
  <path d="M60.77,26.92c2.29,2.88,4.59,5.76,6.88,8.64,1.12-.13,2.24-.25,3.36-.38-2.27-2.98-4.54-5.96-6.8-8.94-1.15.23-2.29.46-3.44.69Z" fill="#ce2e3a"/>
  <path d="M64.52,26.15c2.29,2.96,4.58,5.93,6.87,8.89.97-.28,1.95-.57,2.92-.85-2.12-2.91-4.24-5.82-6.35-8.73-1.15.23-2.29.46-3.44.69Z" fill="#ce2e3a"/>
  <path d="M44.57,45.69c1.83.27,4.39.55,7.45.57,6.62.05,11.55-1.13,16.28-2.29,4.2-1.03,9.66-2.68,15.82-5.39.56-1.83,1.09-3.95,1.49-6.31.38-2.27.58-4.36.66-6.22-.62,1.55-1.89,4.11-4.44,6.33-.53.46-2.68,2.2-7.34,3.67-1.8.57-5.74,1.63-12.15,1.38-4.12-.16-10.7-.93-18.46-4.13-.3,1.54-.42,2.87-.46,3.9-.11,2.58.2,4.51.27,4.97.24,1.45.58,2.64.87,3.51Z" fill="#ce2e3a"/>
  <path d="M41.01,14.22c.15-.28-2.69-2.56-6.36-3.9-.7-.25-1.53-.55-2.69-.75-1.99-.33-3.49-.09-4.64.06-6.15.81-6.71-.13-10.09.97-1.06.35-2.53.94-4.18,2.01,2.39,1.72,4.78,3.44,7.17,5.16,3.85.06,6.9-.34,9.06-.75,3.62-.68,10.04-2.36,10.62-2.54.12-.04.41-.14.82-.21.26-.05.29-.03.31-.06Z" fill="#ddd" stroke="#ccc8c8" stroke-miterlimit="10" stroke-width=".5"/>
  <line x1="5.45" y1="24.25" x2="6.18" y2="24.2" fill="none" stroke="#3f3e3d" stroke-miterlimit="10" stroke-width=".5"/>
  <path d="M43.88,33.31c-2.1-2.87-4.11-5.04-5.62-6.54-3.02-2.99-5.67-5.56-9.86-7.22-2.38-.95-2.29-.41-5.04-1.38-5.02-1.75-7.14-4.15-10.89-6.54-2.44-1.55-6.16-3.47-11.46-4.7C-.19,9.62-.12,11.52.2,12.78c.3,1.23.89,1.91,1.26,3.9.08.44.19,1.15.61,1.99.36.72.76,1.19,1.11,1.57,1.48,1.61,3.64,2.56,4.39,2.87.33.69.66,1.38.99,2.06,6.27,3.82,12.54,7.64,18.8,11.46.74.13,1.48.25,2.22.38,4.99,2.89,9.99,5.78,14.98,8.68-.51-1.6-1.03-3.81-1.15-6.46-.1-2.36.15-4.39.46-5.92Z" fill="#ce2e3a"/>
  <path d="M25.42,10.23c-.26-.3-.58-.43-.77-.48-.24.05-.61.13-1.07.22-.8.15-1.07.22-1.06.26,0,.09,1.2-.24,2.4.31.35.16.68.38.77.29.08-.09-.1-.41-.27-.6Z" fill="#ccc8c8"/>
  <path d="M29.83,16.43c-.16.36-.43.58-.6.69-.24.02-.62.05-1.09.1-.81.08-1.08.1-1.09.06-.02-.09,1.21-.12,2.21-.99.29-.25.54-.56.65-.5.11.06.02.42-.08.65Z" fill="#ccc8c8"/>
  <path d="M43.98,33.37c-.33,1.47-.63,3.48-.53,5.85.12,2.7.71,4.9,1.25,6.43" fill="none" stroke="#bc2a3c" stroke-miterlimit="10" stroke-width=".25"/>
  <rect x="25.48" y="3.67" width="2.29" height="3.04" fill="#282728"/>
  <rect x="12.41" y="4.99" width="2.29" height="3.04" fill="#282728"/>
  <path d="M47.55,38.08c-.16.47-.33,1.12-.38,1.91-.06.96.09,1.76.23,2.29,1.18.15,2.54.25,4.05.23,1.39-.02,2.65-.14,3.75-.31-.72-.84-2.06-2.18-4.13-3.13-1.36-.62-2.6-.88-3.52-.99Z" fill="#484749"/>
  <path d="M84.85,32.35c-.07.69-.21,1.5-.46,2.37-.16.56-.35,1.08-.54,1.53-.4.18-.83.36-1.3.54-.7.26-1.37.46-1.99.61.44-.88,1.11-2,2.14-3.13.75-.82,1.5-1.45,2.14-1.91Z" fill="#484749"/>
  <ellipse cx="49.11" cy="40.61" rx="1.26" ry="1.22" fill="#ddd"/>
  <ellipse cx="51.5" cy="41.27" rx=".71" ry=".69" fill="#ddd"/>
  <ellipse cx="83.36" cy="35.11" rx=".78" ry=".48" transform="translate(40.49 114.76) rotate(-84.55)" fill="#ddd"/>
  <ellipse cx="82.29" cy="35.96" rx=".43" ry=".26" transform="translate(38.68 114.46) rotate(-84.55)" fill="#ddd"/>
  <path d="M3.23,1.72l-.23,3.21h7.34c.36.17.73.34,1.09.52,6.11-.38,12.23-.76,18.34-1.15.38-.21.76-.42,1.15-.63,2.06-.08,4.13-.15,6.19-.23C35.79,2.29,34.48,1.15,33.16,0c-.27.46-.54.92-.8,1.38-8.87.44-17.73.88-26.6,1.32-.84-.32-1.68-.65-2.52-.97Z" fill="#282728"/>
  <g>
    <g>
      <polygon points="15.95 27.48 5.69 21.23 7.45 18.44 17.98 24.56 15.95 27.48" fill="#fff"/>
      <polygon points="9.39 21.53 7.95 20.67 8.85 19.26 10.31 20.1 9.39 21.53"/>
      <polygon points="12.33 23.28 10.83 22.39 11.77 20.95 13.29 21.84 12.33 23.28"/>
      <polygon points="15.4 25.11 13.84 24.18 14.82 22.72 16.4 23.64 15.4 25.11"/>
      <polygon points="7.07 22.08 5.68 21.23 6.55 19.84 7.97 20.68 7.07 22.08"/>
      <polygon points="9.92 23.81 8.47 22.93 9.38 21.52 10.85 22.39 9.92 23.81"/>
      <polygon points="12.89 25.62 11.38 24.7 12.32 23.27 13.85 24.18 12.89 25.62"/>
      <polygon points="15.98 27.5 14.4 26.54 15.39 25.1 16.99 26.05 15.98 27.5"/>
    </g>
    <g>
      <polygon points="30.27 31.71 18.02 24.59 15.99 27.51 27.91 34.77 30.27 31.71" fill="#fff"/>
      <polygon points="20.27 28 18.6 27.01 17.57 28.47 19.22 29.48 20.27 28"/>
      <polygon points="23.69 30.04 21.95 29 20.87 30.48 22.59 31.53 23.69 30.04"/>
      <polygon points="27.26 32.16 25.44 31.08 24.32 32.58 26.11 33.68 27.26 32.16"/>
      <polygon points="19.66 25.54 18.01 24.58 16.99 26.05 18.62 27.02 19.66 25.54"/>
      <polygon points="23.05 27.51 21.32 26.51 20.26 28 21.96 29.01 23.05 27.51"/>
      <polygon points="26.6 29.57 24.79 28.52 23.68 30.03 25.46 31.09 26.6 29.57"/>
      <polygon points="30.3 31.73 28.41 30.63 27.25 32.16 29.11 33.27 30.3 31.73"/>
    </g>
  </g>
  <g>
    <path d="M36.4,34.4c-.15,4.44-2.29,6.74-4.48,5.8-1.92-.81-3.56-3.98-3.91-7.5-.4-3.97.89-7.72,3.25-7.92,2.8-.25,5.32,4.42,5.14,9.62Z" fill="#3f3e3d" stroke="#3f3e3d" stroke-miterlimit="10" stroke-width=".5"/>
    <path d="M35.25,34.41c-.15,4.47-2.3,6.78-4.51,5.84-1.93-.82-3.58-4-3.93-7.55-.4-3.99.9-7.76,3.27-7.97,2.82-.25,5.36,4.45,5.18,9.68Z" fill="#555452" stroke="#3f3e3d" stroke-miterlimit="10" stroke-width=".5"/>
    <path d="M33.92,34.14c-.04,3.3-1.57,5.18-3.24,4.55-1.5-.56-2.8-3.05-3.04-5.82-.26-3.04.78-5.73,2.54-5.74,2-.01,3.78,3.31,3.73,7.01Z" fill="#ededed"/>
    <path d="M33.38,34.04c-.01,2.82-1.29,4.48-2.73,3.97-1.32-.46-2.45-2.64-2.65-5.06-.21-2.62.71-4.89,2.22-4.85,1.68.04,3.17,2.83,3.16,5.94Z" fill="#a29f9a"/>
    <path d="M32.77,33.91c.01,2.26-.99,3.64-2.16,3.26-1.08-.35-2.02-2.14-2.17-4.14-.16-2.13.62-3.91,1.83-3.83,1.32.08,2.48,2.27,2.5,4.71Z" fill="#727270"/>
    <line x1="30.25" y1="28.77" x2="30.63" y2="37.62" fill="none" stroke="#a29f9a" stroke-miterlimit="10" stroke-width=".75"/>
    <line x1="32.2" y1="30.42" x2="29.04" y2="36" fill="none" stroke="#a29f9a" stroke-miterlimit="10" stroke-width=".75"/>
    <line x1="28.64" y1="30.05" x2="32.3" y2="36.99" fill="none" stroke="#a29f9a" stroke-miterlimit="10" stroke-width=".75"/>
    <line x1="33.06" y1="34.05" x2="28.23" y2="33.04" fill="none" stroke="#a29f9a" stroke-miterlimit="10" stroke-width=".75"/>
  </g>
  <g>
    <path d="M8.03,19.92c-.08,3.17-1.26,4.81-2.47,4.14-1.06-.58-1.96-2.84-2.15-5.36-.22-2.83.49-5.51,1.79-5.66,1.54-.18,2.93,3.16,2.83,6.87Z" fill="#3f3e3d" stroke="#3f3e3d" stroke-miterlimit="10" stroke-width=".5"/>
    <path d="M7.39,19.93c-.08,3.19-1.27,4.84-2.48,4.17-1.06-.58-1.97-2.86-2.17-5.39-.22-2.85.49-5.54,1.8-5.69,1.55-.18,2.95,3.18,2.85,6.91Z" fill="#555452" stroke="#3f3e3d" stroke-miterlimit="10" stroke-width=".5"/>
    <path d="M6.66,19.74c-.02,2.36-.86,3.7-1.78,3.25-.83-.4-1.54-2.18-1.68-4.16-.15-2.17.43-4.09,1.4-4.1,1.1-.01,2.08,2.37,2.06,5.01Z" fill="#ededed"/>
    <path d="M6.36,19.66c0,2.01-.71,3.2-1.5,2.84-.72-.33-1.35-1.88-1.46-3.61-.12-1.87.39-3.49,1.22-3.46.92.03,1.75,2.02,1.74,4.24Z" fill="#a29f9a"/>
    <path d="M6.02,19.57c0,1.61-.54,2.6-1.19,2.33-.6-.25-1.11-1.53-1.19-2.95-.09-1.52.34-2.79,1.01-2.74.72.06,1.37,1.62,1.38,3.36Z" fill="#727270"/>
    <line x1="4.64" y1="15.9" x2="4.85" y2="22.22" fill="none" stroke="#a29f9a" stroke-miterlimit="10" stroke-width=".5"/>
    <line x1="5.71" y1="17.08" x2="3.96" y2="21.11" fill="none" stroke="#a29f9a" stroke-miterlimit="10" stroke-width=".5"/>
    <line x1="3.74" y1="16.77" x2="5.76" y2="21.77" fill="none" stroke="#a29f9a" stroke-miterlimit="10" stroke-width=".5"/>
    <line x1="6.18" y1="19.67" x2="3.53" y2="18.95" fill="none" stroke="#a29f9a" stroke-miterlimit="10" stroke-width=".5"/>
  </g>
  <path d="M44.42,44.75c1.26.21,3.01.45,5.1.57,5.73.35,10.06-.38,13.47-.97,6.09-1.06,10.62-2.63,14.63-4.01,2.71-.94,4.96-1.82,6.57-2.48" fill="none" stroke="#bc2a3c" stroke-miterlimit="10" stroke-width=".5"/>
</svg>