<svg width="312" height="443" viewBox="0 0 312 443" fill="none" xmlns="http://www.w3.org/2000/svg">
<g id="standingMirror">
<g id="Group 2">
<g id="Vector">
<path d="M83.7697 283.583V114.733C83.7697 86.7448 91.2273 59.9025 104.502 40.1116C117.777 20.3207 135.781 9.20227 154.554 9.20227C173.327 9.20227 191.331 20.3207 204.606 40.1116C217.881 59.9025 225.338 86.7448 225.338 114.733V283.583C225.338 318.514 220.454 325.796 197.024 325.796H112.083C88.6538 325.796 83.7697 318.514 83.7697 283.583ZM267.809 135.84V431.327ZM41.2992 135.84V431.327ZM41.2992 389.114H267.809ZM41.2992 220.264H83.7697ZM225.338 220.264H267.809Z" fill="#BBDDF5"/>
<path d="M267.809 135.84V431.327M41.2992 135.84V431.327M41.2992 389.114H267.809M41.2992 220.264H83.7697M225.338 220.264H267.809M83.7697 283.583V114.733C83.7697 86.7448 91.2273 59.9025 104.502 40.1116C117.777 20.3207 135.781 9.20227 154.554 9.20227C173.327 9.20227 191.331 20.3207 204.606 40.1116C217.881 59.9025 225.338 86.7448 225.338 114.733V283.583C225.338 318.514 220.454 325.796 197.024 325.796H112.083C88.6538 325.796 83.7697 318.514 83.7697 283.583Z" stroke="#CE9A35" stroke-width="13" stroke-linecap="round" stroke-linejoin="round"/>
</g>
<path id="Line 1" d="M154.554 63.3837L115.054 105.098" stroke="#F5F8FA" stroke-width="14" stroke-linecap="round"/>
<path id="Line 2" d="M184.161 84.2404L124.946 146.774" stroke="#F5F8FA" stroke-width="14" stroke-linecap="round"/>
</g>
</g>
</svg>
