<?xml version="1.0" encoding="UTF-8"?>
<svg id="black_tile_floor" xmlns="http://www.w3.org/2000/svg" width="1.92in" height="1.67in" viewBox="0 0 138.04 120.31">
  <polygon points="94.15 8.49 93.01 0 77.27 0 77.65 8.49 94.15 8.49" fill="#494643"/>
  <polygon points="110.75 8.49 108.84 0 93.1 0 94.25 8.49 110.75 8.49" fill="#f8f9f4"/>
  <polygon points="94.25 8.49 93.1 0 93.01 0 94.15 8.49 94.25 8.49" fill="#c0c7c9"/>
  <polygon points="127.3 8.49 124.63 0 108.89 0 110.8 8.49 127.3 8.49" fill="#494643"/>
  <polygon points="110.8 8.49 108.89 0 108.84 0 110.75 8.49 110.8 8.49" fill="#b0c2c6"/>
  <polygon points="138.04 8.49 138.04 0 124.72 0 127.4 8.49 138.04 8.49" fill="#f8f9f4"/>
  <polygon points="127.4 8.49 124.72 0 124.63 0 127.3 8.49 127.4 8.49" fill="#c0c7c9"/>
  <polygon points="61 8.49 61.01 8.49 61.39 0 45.6 0 44.45 8.54 44.45 8.54 44.45 8.49 61 8.49" fill="#494643"/>
  <polygon points="77.6 8.49 77.21 0 61.48 0 61.1 8.49 77.6 8.49" fill="#f8f9f4"/>
  <polygon points="77.65 8.49 77.27 0 77.21 0 77.6 8.49 77.65 8.49" fill="#c0c7c9"/>
  <polygon points="61.1 8.49 61.48 0 61.39 0 61.01 8.49 61.1 8.49" fill="#c0c7c9"/>
  <polygon points="78.08 17.83 95.41 17.83 94.16 8.54 77.66 8.54 78.08 17.83 78.08 17.83" fill="#f8f9f4"/>
  <polygon points="94.16 8.54 94.15 8.49 77.65 8.49 77.66 8.54 94.16 8.54" fill="#c0c7c9"/>
  <polygon points="112.85 17.83 110.76 8.54 94.25 8.54 95.51 17.83 112.85 17.83" fill="#494643"/>
  <polygon points="110.76 8.54 110.75 8.49 94.25 8.49 94.25 8.54 110.76 8.54" fill="#b0c2c6"/>
  <polygon points="95.41 17.83 95.51 17.83 94.25 8.54 94.16 8.54 95.41 17.83 95.41 17.83" fill="#b0c2c6"/>
  <polygon points="94.25 8.54 94.25 8.49 94.15 8.49 94.16 8.54 94.25 8.54" fill="#b0c2c6"/>
  <polygon points="130.24 17.83 127.32 8.54 110.81 8.54 112.9 17.83 130.24 17.83" fill="#f8f9f4"/>
  <polygon points="127.32 8.54 127.3 8.49 110.8 8.49 110.81 8.54 127.32 8.54" fill="#c0c7c9"/>
  <polygon points="112.9 17.83 110.81 8.54 110.76 8.54 112.85 17.83 112.9 17.83" fill="#c0c7c9"/>
  <polygon points="110.81 8.54 110.8 8.49 110.75 8.49 110.76 8.54 110.81 8.54" fill="#c0c7c9"/>
  <polygon points="130.34 17.83 138.04 17.83 138.04 8.54 127.41 8.54 130.34 17.83" fill="#494643"/>
  <polygon points="127.41 8.54 138.04 8.54 138.04 8.49 127.4 8.49 127.41 8.54" fill="#b0c2c6"/>
  <polygon points="130.24 17.83 130.34 17.83 130.34 17.83 127.41 8.54 127.32 8.54 130.24 17.83" fill="#b0c2c6"/>
  <polygon points="127.41 8.54 127.4 8.49 127.3 8.49 127.32 8.54 127.41 8.54" fill="#b0c2c6"/>
  <polygon points="60.58 17.83 60.58 17.83 61 8.54 44.45 8.54 43.19 17.89 43.19 17.83 60.58 17.83" fill="#f8f9f4"/>
  <polygon points="61 8.49 44.45 8.49 44.45 8.54 61 8.54 61 8.49" fill="#c0c7c9"/>
  <polygon points="77.6 8.54 61.1 8.54 60.69 17.83 78.02 17.83 77.6 8.54" fill="#494643"/>
  <polygon points="77.6 8.54 77.6 8.49 61.1 8.49 61.1 8.54 77.6 8.54" fill="#b0c2c6"/>
  <polygon points="78.08 17.83 77.66 8.54 77.6 8.54 78.02 17.83 78.08 17.83" fill="#b0c2c6"/>
  <polygon points="77.66 8.54 77.65 8.49 77.6 8.49 77.6 8.54 77.66 8.54" fill="#b0c2c6"/>
  <polygon points="61.1 8.54 61 8.54 61 8.54 60.58 17.83 60.69 17.83 61.1 8.54" fill="#b0c2c6"/>
  <rect x="61" y="8.49" width="0" height=".05" fill="#b0c2c6"/>
  <polygon points="61.1 8.54 61.1 8.49 61.01 8.49 61 8.54 61.1 8.54" fill="#b0c2c6"/>
  <polygon points="95.42 17.89 95.42 17.89 78.08 17.89 78.55 28.18 96.8 28.18 95.42 17.89" fill="#494643"/>
  <polygon points="95.42 17.89 95.41 17.83 78.08 17.83 78.08 17.89 95.42 17.89" fill="#b0c2c6"/>
  <rect x="95.41" y="17.83" width="0" height=".06" transform="translate(-1.53 12.95) rotate(-7.71)" fill="#b0c2c6"/>
  <polygon points="115.17 28.18 112.86 17.89 95.52 17.89 96.91 28.18 115.17 28.18" fill="#f8f9f4"/>
  <polygon points="112.86 17.89 112.85 17.83 95.51 17.83 95.52 17.89 112.86 17.89" fill="#c0c7c9"/>
  <polygon points="96.91 28.18 95.52 17.89 95.42 17.89 96.8 28.18 96.91 28.18" fill="#c0c7c9"/>
  <polygon points="95.52 17.89 95.51 17.83 95.41 17.83 95.42 17.89 95.52 17.89" fill="#c0c7c9"/>
  <polygon points="115.23 28.18 133.49 28.18 130.26 17.89 112.91 17.89 115.23 28.18" fill="#494643"/>
  <polygon points="112.91 17.89 130.26 17.89 130.24 17.83 112.9 17.83 112.91 17.89" fill="#b0c2c6"/>
  <polygon points="115.17 28.18 115.23 28.18 112.91 17.89 112.86 17.89 115.17 28.18" fill="#b0c2c6"/>
  <polygon points="112.91 17.89 112.9 17.83 112.85 17.83 112.86 17.89 112.91 17.89" fill="#b0c2c6"/>
  <polygon points="130.36 17.89 133.6 28.18 138.04 28.18 138.04 17.89 130.36 17.89 130.36 17.89" fill="#f8f9f4"/>
  <polygon points="130.36 17.89 138.04 17.89 138.04 17.83 130.34 17.83 130.36 17.89" fill="#c0c7c9"/>
  <rect x="130.35" y="17.83" width="0" height=".06" fill="#c0c7c9"/>
  <polygon points="133.49 28.18 133.6 28.18 130.36 17.89 130.26 17.89 133.49 28.18" fill="#c0c7c9"/>
  <polygon points="130.24 17.83 130.26 17.89 130.36 17.89 130.34 17.83 130.24 17.83" fill="#c0c7c9"/>
  <polygon points="60.58 17.89 43.19 17.89 41.8 28.18 60.12 28.18 60.58 17.89" fill="#494643"/>
  <polygon points="60.58 17.83 43.19 17.83 43.19 17.89 60.58 17.89 60.58 17.83" fill="#b0c2c6"/>
  <polygon points="78.02 17.89 60.68 17.89 60.23 28.18 78.48 28.18 78.02 17.89" fill="#f8f9f4"/>
  <polygon points="78.02 17.83 60.69 17.83 60.68 17.89 78.02 17.89 78.02 17.83" fill="#c0c7c9"/>
  <polygon points="78.55 28.18 78.08 17.89 78.08 17.89 78.02 17.89 78.48 28.18 78.55 28.18 78.55 28.18" fill="#c0c7c9"/>
  <rect x="78.08" y="17.83" width="0" height=".06" transform="translate(-.73 3.56) rotate(-2.6)" fill="#c0c7c9"/>
  <polygon points="78.08 17.83 78.02 17.83 78.02 17.89 78.08 17.89 78.08 17.83" fill="#c0c7c9"/>
  <polygon points="60.68 17.89 60.58 17.89 60.58 17.89 60.12 28.18 60.23 28.18 60.68 17.89" fill="#c0c7c9"/>
  <rect x="60.58" y="17.83" width="0" height=".06" fill="#c0c7c9"/>
  <polygon points="60.68 17.89 60.69 17.83 60.58 17.83 60.58 17.89 60.68 17.89" fill="#c0c7c9"/>
  <polygon points="96.81 28.24 78.55 28.24 78.55 28.24 79.07 39.69 98.35 39.69 96.81 28.24" fill="#f8f9f4"/>
  <polygon points="96.81 28.24 96.8 28.18 78.55 28.18 78.55 28.24 96.81 28.24" fill="#c0c7c9"/>
  <rect x="78.55" y="28.18" width="0" height=".06" fill="#c0c7c9"/>
  <polygon points="96.92 28.24 98.47 39.69 117.76 39.69 115.19 28.24 96.92 28.24" fill="#494643"/>
  <polygon points="96.91 28.18 96.92 28.24 115.19 28.24 115.17 28.18 96.91 28.18" fill="#b0c2c6"/>
  <polygon points="98.35 39.69 98.47 39.69 96.92 28.24 96.81 28.24 98.35 39.69" fill="#b0c2c6"/>
  <polygon points="96.8 28.18 96.81 28.24 96.92 28.24 96.91 28.18 96.8 28.18" fill="#b0c2c6"/>
  <polygon points="117.82 39.69 137.11 39.69 133.51 28.24 115.24 28.24 117.82 39.69" fill="#f8f9f4"/>
  <polygon points="115.24 28.24 133.51 28.24 133.49 28.18 115.23 28.18 115.24 28.24" fill="#c0c7c9"/>
  <polygon points="115.19 28.24 117.76 39.69 117.82 39.69 115.24 28.24 115.19 28.24" fill="#c0c7c9"/>
  <polygon points="115.19 28.24 115.24 28.24 115.23 28.18 115.17 28.18 115.19 28.24" fill="#c0c7c9"/>
  <polygon points="137.23 39.69 138.04 39.69 138.04 28.24 133.62 28.24 137.23 39.69" fill="#494643"/>
  <polygon points="133.62 28.24 138.04 28.24 138.04 28.18 133.6 28.18 133.62 28.24" fill="#b0c2c6"/>
  <polygon points="137.11 39.69 137.23 39.69 137.23 39.69 133.62 28.24 133.51 28.24 137.11 39.69" fill="#b0c2c6"/>
  <polygon points="133.51 28.24 133.62 28.24 133.6 28.18 133.49 28.18 133.51 28.24" fill="#b0c2c6"/>
  <polygon points="59.6 39.69 60.12 28.24 41.79 28.24 41.8 28.18 40.24 39.76 40.25 39.69 59.6 39.69" fill="#f8f9f4"/>
  <polygon points="60.12 28.24 60.12 28.18 41.8 28.18 41.79 28.24 60.12 28.24" fill="#c0c7c9"/>
  <polygon points="78.48 28.24 60.22 28.24 59.72 39.69 79 39.69 78.48 28.24" fill="#494643"/>
  <polygon points="78.48 28.18 60.23 28.18 60.22 28.24 78.48 28.24 78.48 28.18" fill="#b0c2c6"/>
  <polygon points="78.55 28.24 78.48 28.24 79 39.69 79.07 39.69 78.55 28.24" fill="#b0c2c6"/>
  <polygon points="78.55 28.18 78.48 28.18 78.48 28.24 78.55 28.24 78.55 28.18" fill="#b0c2c6"/>
  <polygon points="59.72 39.69 60.22 28.24 60.12 28.24 59.6 39.69 59.72 39.69 59.72 39.69" fill="#b0c2c6"/>
  <polygon points="60.23 28.18 60.12 28.18 60.12 28.24 60.22 28.24 60.23 28.18" fill="#b0c2c6"/>
  <polygon points="98.36 39.76 79.07 39.76 79.65 52.54 100.08 52.54 98.36 39.76" fill="#494643"/>
  <polygon points="98.35 39.69 79.07 39.69 79.07 39.76 98.36 39.76 98.35 39.69" fill="#b0c2c6"/>
  <polygon points="100.2 52.54 120.65 52.54 120.65 52.54 117.78 39.76 98.48 39.76 100.2 52.54" fill="#f8f9f4"/>
  <polygon points="98.48 39.76 117.78 39.76 117.76 39.69 98.47 39.69 98.48 39.76" fill="#c0c7c9"/>
  <polygon points="100.08 52.54 100.2 52.54 98.48 39.76 98.36 39.76 100.08 52.54" fill="#c0c7c9"/>
  <polygon points="98.36 39.76 98.48 39.76 98.47 39.69 98.35 39.69 98.36 39.76" fill="#c0c7c9"/>
  <polygon points="117.83 39.76 120.71 52.54 138.04 52.54 138.04 42.63 137.14 39.76 117.83 39.76" fill="#494643"/>
  <polygon points="117.82 39.69 117.83 39.76 137.14 39.76 137.11 39.69 117.82 39.69" fill="#b0c2c6"/>
  <polygon points="120.65 52.54 120.71 52.54 117.83 39.76 117.78 39.76 120.65 52.54" fill="#b0c2c6"/>
  <polygon points="117.76 39.69 117.78 39.76 117.83 39.76 117.82 39.69 117.76 39.69" fill="#b0c2c6"/>
  <polygon points="59.02 52.54 59.6 39.76 40.24 39.76 38.5 52.66 38.5 52.66 38.52 52.54 59.02 52.54" fill="#494643"/>
  <polygon points="59.6 39.69 40.25 39.69 40.24 39.76 59.6 39.76 59.6 39.69" fill="#b0c2c6"/>
  <polygon points="79 39.76 59.71 39.76 59.71 39.76 59.14 52.54 79.58 52.54 79 39.76" fill="#f8f9f4"/>
  <polygon points="79 39.76 79 39.69 59.72 39.69 59.71 39.76 79 39.76" fill="#c0c7c9"/>
  <rect x="59.71" y="39.69" width="0" height=".07" fill="#c0c7c9"/>
  <polygon points="79.65 52.54 79.07 39.76 79 39.76 79.58 52.54 79.65 52.54 79.65 52.54" fill="#c0c7c9"/>
  <polygon points="79.07 39.69 79 39.69 79 39.76 79.07 39.76 79.07 39.69" fill="#c0c7c9"/>
  <polygon points="59.14 52.54 59.71 39.76 59.6 39.76 59.02 52.54 59.14 52.54 59.14 52.54" fill="#c0c7c9"/>
  <polygon points="59.72 39.69 59.6 39.69 59.6 39.76 59.71 39.76 59.72 39.69" fill="#c0c7c9"/>
  <polygon points="44.45 8.49 44.44 8.54 45.59 0 29.76 0 27.85 8.49 44.45 8.49" fill="#f8f9f4"/>
  <polygon points="11.21 8.49 13.88 0 0 0 0 8.49 11.21 8.49" fill="#f8f9f4"/>
  <polygon points="27.8 8.49 29.71 0 13.97 0 11.3 8.49 27.8 8.49" fill="#494643"/>
  <polygon points="27.8 8.49 27.85 8.49 29.76 0 29.71 0 27.8 8.49 27.8 8.49" fill="#b0c2c6"/>
  <polygon points="11.3 8.49 13.97 0 13.88 0 11.21 8.49 11.3 8.49" fill="#b0c2c6"/>
  <polygon points="25.75 17.83 43.19 17.83 43.18 17.89 43.18 17.89 44.44 8.54 27.84 8.54 25.75 17.83" fill="#494643"/>
  <polygon points="27.85 8.49 27.84 8.54 44.44 8.54 44.45 8.49 27.85 8.49" fill="#b0c2c6"/>
  <polygon points="11.19 8.54 0 8.54 0 17.83 8.26 17.83 11.19 8.54" fill="#494643"/>
  <polygon points="11.19 8.54 11.21 8.49 0 8.49 0 8.54 11.19 8.54" fill="#b0c2c6"/>
  <polygon points="25.69 17.83 27.78 8.54 27.78 8.54 11.29 8.54 8.36 17.83 25.69 17.83" fill="#f8f9f4"/>
  <polygon points="27.78 8.54 27.8 8.49 11.3 8.49 11.29 8.54 27.78 8.54" fill="#c0c7c9"/>
  <rect x="27.76" y="8.51" width=".05" height="0" transform="translate(13.39 33.76) rotate(-77.32)" fill="#c0c7c9"/>
  <polygon points="25.69 17.83 25.75 17.83 27.84 8.54 27.78 8.54 25.69 17.83" fill="#c0c7c9"/>
  <polygon points="27.84 8.54 27.85 8.49 27.8 8.49 27.78 8.54 27.84 8.54" fill="#c0c7c9"/>
  <polygon points="8.26 17.83 8.36 17.83 11.29 8.54 11.19 8.54 8.26 17.83 8.26 17.83" fill="#c0c7c9"/>
  <polygon points="11.29 8.54 11.3 8.49 11.21 8.49 11.19 8.54 11.29 8.54" fill="#c0c7c9"/>
  <polygon points="23.43 28.18 41.79 28.18 41.78 28.24 43.18 17.89 25.74 17.89 23.43 28.18" fill="#f8f9f4"/>
  <polygon points="25.75 17.83 25.74 17.89 43.18 17.89 43.19 17.83 25.75 17.83" fill="#c0c7c9"/>
  <polygon points="8.24 17.89 8.24 17.89 0 17.89 0 28.18 5 28.18 8.24 17.89" fill="#f8f9f4"/>
  <polygon points="8.26 17.83 0 17.83 0 17.89 8.24 17.89 8.26 17.83" fill="#c0c7c9"/>
  <rect x="8.22" y="17.86" width=".06" height="0" transform="translate(-11.26 20.38) rotate(-72.57)" fill="#c0c7c9"/>
  <polygon points="5.11 28.18 23.37 28.18 25.68 17.89 8.35 17.89 5.11 28.18" fill="#494643"/>
  <polygon points="8.35 17.89 25.68 17.89 25.69 17.83 8.36 17.83 8.35 17.89" fill="#b0c2c6"/>
  <polygon points="23.37 28.18 23.43 28.18 25.74 17.89 25.68 17.89 23.37 28.18" fill="#b0c2c6"/>
  <polygon points="25.68 17.89 25.74 17.89 25.75 17.83 25.69 17.83 25.68 17.89" fill="#b0c2c6"/>
  <polygon points="8.35 17.89 8.24 17.89 5 28.18 5.11 28.18 8.35 17.89" fill="#b0c2c6"/>
  <polygon points="8.36 17.83 8.26 17.83 8.24 17.89 8.35 17.89 8.36 17.83" fill="#b0c2c6"/>
  <polygon points="20.84 39.69 40.24 39.69 41.78 28.24 23.41 28.24 20.84 39.69" fill="#494643"/>
  <polygon points="23.43 28.18 23.41 28.24 41.78 28.24 41.79 28.18 23.43 28.18" fill="#b0c2c6"/>
  <polygon points="4.98 28.24 0 28.24 0 39.69 1.38 39.69 4.98 28.24" fill="#494643"/>
  <polygon points="5 28.18 0 28.18 0 28.24 4.98 28.24 5 28.18" fill="#b0c2c6"/>
  <polygon points="1.49 39.69 20.77 39.69 23.35 28.24 5.09 28.24 1.49 39.69" fill="#f8f9f4"/>
  <polygon points="5.09 28.24 23.35 28.24 23.37 28.18 5.11 28.18 5.09 28.24" fill="#c0c7c9"/>
  <polygon points="20.77 39.69 20.84 39.69 23.41 28.24 23.35 28.24 20.77 39.69" fill="#c0c7c9"/>
  <polygon points="23.35 28.24 23.41 28.24 23.43 28.18 23.37 28.18 23.35 28.24" fill="#c0c7c9"/>
  <polygon points="1.49 39.69 5.09 28.24 4.98 28.24 1.38 39.69 1.38 39.69 1.49 39.69" fill="#c0c7c9"/>
  <polygon points="5.11 28.18 5 28.18 4.98 28.24 5.09 28.24 5.11 28.18" fill="#c0c7c9"/>
  <polygon points="20.83 39.76 17.96 52.54 17.96 52.54 38.51 52.54 38.49 52.66 40.24 39.69 40.23 39.76 20.83 39.76" fill="#f8f9f4"/>
  <polygon points="20.83 39.76 40.23 39.76 40.24 39.69 20.84 39.69 20.83 39.76" fill="#c0c7c9"/>
  <polygon points="1.35 39.76 0 39.76 0 44.06 1.35 39.76 1.35 39.76" fill="#bccebc"/>
  <polygon points="1.38 39.69 0 39.69 0 39.76 1.35 39.76 1.38 39.69" fill="#c0c7c9"/>
  <rect x="1.33" y="39.72" width=".07" height="0" transform="translate(-36.94 29.1) rotate(-72.52)" fill="#c0c7c9"/>
  <polygon points="20.76 39.76 1.47 39.76 0 44.43 0 52.54 17.88 52.54 20.76 39.76" fill="#494643"/>
  <polygon points="1.47 39.76 20.76 39.76 20.77 39.69 1.49 39.69 1.47 39.76" fill="#b0c2c6"/>
  <polygon points="17.88 52.54 17.96 52.54 20.83 39.76 20.76 39.76 17.88 52.54" fill="#b0c2c6"/>
  <polygon points="20.76 39.76 20.83 39.76 20.84 39.69 20.77 39.69 20.76 39.76" fill="#b0c2c6"/>
  <polygon points="1.35 39.76 0 44.06 0 44.43 1.47 39.76 1.35 39.76" fill="#b0c2c6"/>
  <polygon points="1.38 39.69 1.35 39.76 1.47 39.76 1.49 39.69 1.38 39.69" fill="#b0c2c6"/>
  <polygon points="100.1 52.66 79.65 52.66 79.65 52.66 80.31 67.06 102.04 67.06 100.1 52.66" fill="#f8f9f4"/>
  <polygon points="100.1 52.66 100.08 52.54 79.65 52.54 79.65 52.66 100.1 52.66" fill="#c0c7c9"/>
  <rect x="79.65" y="52.54" width="0" height=".12" fill="#c0c7c9"/>
  <polygon points="102.17 67.06 123.91 67.06 120.67 52.66 100.22 52.66 102.17 67.06" fill="#494643"/>
  <polygon points="100.2 52.54 100.22 52.66 120.67 52.66 120.65 52.54 100.2 52.54" fill="#b0c2c6"/>
  <polygon points="102.04 67.06 102.17 67.06 100.22 52.66 100.1 52.66 102.04 67.06" fill="#b0c2c6"/>
  <polygon points="100.1 52.66 100.22 52.66 100.2 52.54 100.08 52.54 100.1 52.66" fill="#b0c2c6"/>
  <polygon points="123.97 67.06 138.04 67.06 138.04 52.66 120.74 52.66 123.97 67.06" fill="#f8f9f4"/>
  <polygon points="120.74 52.66 138.04 52.66 138.04 52.54 120.71 52.54 120.74 52.66" fill="#c0c7c9"/>
  <polygon points="120.67 52.66 123.91 67.06 123.97 67.06 123.97 67.06 120.74 52.66 120.67 52.66 120.67 52.66" fill="#c0c7c9"/>
  <rect x="120.66" y="52.53" width="0" height=".12" fill="#c0c7c9"/>
  <polygon points="120.67 52.66 120.74 52.66 120.71 52.54 120.65 52.54 120.67 52.66" fill="#c0c7c9"/>
  <polygon points="58.37 67.06 59.02 52.66 38.5 52.66 36.56 67.06 58.37 67.06 58.37 67.06" fill="#f8f9f4"/>
  <polygon points="59.02 52.54 38.52 52.54 38.5 52.66 59.02 52.66 59.02 52.54" fill="#c0c7c9"/>
  <polygon points="79.58 52.66 59.14 52.66 59.14 52.66 58.5 67.06 80.23 67.06 79.58 52.66" fill="#494643"/>
  <polygon points="79.58 52.66 79.58 52.54 59.14 52.54 59.14 52.66 79.58 52.66" fill="#b0c2c6"/>
  <rect x="59.14" y="52.54" width="0" height=".12" fill="#b0c2c6"/>
  <polygon points="79.65 52.66 79.58 52.66 80.23 67.06 80.31 67.06 79.65 52.66" fill="#b0c2c6"/>
  <polygon points="79.65 52.54 79.58 52.54 79.58 52.66 79.65 52.66 79.65 52.54" fill="#b0c2c6"/>
  <polygon points="59.14 52.66 59.02 52.66 58.37 67.06 58.5 67.06 59.14 52.66" fill="#b0c2c6"/>
  <polygon points="59.14 52.54 59.02 52.54 59.02 52.66 59.14 52.66 59.14 52.54" fill="#b0c2c6"/>
  <polygon points="102.05 67.15 80.31 67.15 81.05 83.55 104.26 83.55 102.05 67.15" fill="#494643"/>
  <polygon points="80.31 67.06 80.31 67.15 102.05 67.15 102.04 67.06 80.31 67.06" fill="#b0c2c6"/>
  <polygon points="104.4 83.55 127.62 83.55 123.93 67.15 102.18 67.15 104.4 83.55" fill="#f8f9f4"/>
  <polygon points="102.18 67.15 123.93 67.15 123.91 67.06 102.17 67.06 102.18 67.15" fill="#c0c7c9"/>
  <polygon points="104.26 83.55 104.4 83.55 102.18 67.15 102.05 67.15 104.26 83.55" fill="#c0c7c9"/>
  <polygon points="102.05 67.15 102.18 67.15 102.17 67.06 102.04 67.06 102.05 67.15" fill="#c0c7c9"/>
  <polygon points="124 67.15 127.69 83.55 138.04 83.55 138.04 67.15 124 67.15 124 67.15" fill="#494643"/>
  <polygon points="124 67.15 138.04 67.15 138.04 67.06 123.97 67.06 124 67.15" fill="#b0c2c6"/>
  <rect x="123.99" y="67.05" width="0" height=".09" fill="#b0c2c6"/>
  <polygon points="127.62 83.55 127.69 83.55 127.69 83.55 124 67.15 123.93 67.15 127.62 83.55" fill="#b0c2c6"/>
  <polygon points="123.91 67.06 123.93 67.15 124 67.15 123.97 67.06 123.91 67.06" fill="#b0c2c6"/>
  <polygon points="57.63 83.55 58.37 67.15 36.55 67.15 36.56 67.06 34.34 83.55 57.63 83.55 57.63 83.55" fill="#494643"/>
  <polygon points="58.37 67.15 58.37 67.06 36.56 67.06 36.55 67.15 58.37 67.15" fill="#b0c2c6"/>
  <polygon points="80.23 67.15 58.49 67.15 57.77 83.55 80.97 83.55 80.23 67.15" fill="#f8f9f4"/>
  <polygon points="80.23 67.06 58.5 67.06 58.49 67.15 80.23 67.15 80.23 67.06" fill="#c0c7c9"/>
  <polygon points="80.23 67.15 80.97 83.55 81.05 83.55 80.31 67.15 80.23 67.15" fill="#c0c7c9"/>
  <polygon points="80.31 67.06 80.23 67.06 80.23 67.15 80.31 67.15 80.31 67.06" fill="#c0c7c9"/>
  <polygon points="58.49 67.15 58.37 67.15 58.37 67.15 57.63 83.55 57.77 83.55 58.49 67.15" fill="#c0c7c9"/>
  <rect x="58.37" y="67.06" width="0" height=".09" fill="#c0c7c9"/>
  <polygon points="58.49 67.15 58.5 67.06 58.37 67.06 58.37 67.15 58.49 67.15" fill="#c0c7c9"/>
  <polygon points="81.06 83.65 81.91 102.44 106.81 102.44 104.27 83.65 81.06 83.65" fill="#f8f9f4"/>
  <polygon points="81.05 83.55 81.06 83.65 104.27 83.65 104.26 83.55 81.05 83.55" fill="#c0c7c9"/>
  <polygon points="104.41 83.65 106.95 102.44 131.86 102.44 127.64 83.65 104.41 83.65" fill="#494643"/>
  <polygon points="104.41 83.65 127.64 83.65 127.62 83.55 104.4 83.55 104.41 83.65" fill="#b0c2c6"/>
  <polygon points="104.27 83.65 106.81 102.44 106.95 102.44 104.41 83.65 104.27 83.65" fill="#b0c2c6"/>
  <polygon points="104.26 83.55 104.27 83.65 104.41 83.65 104.4 83.55 104.26 83.55" fill="#b0c2c6"/>
  <polygon points="127.71 83.65 131.94 102.44 138.04 102.44 138.04 83.65 127.71 83.65 127.71 83.65" fill="#f8f9f4"/>
  <polygon points="127.71 83.65 138.04 83.65 138.04 83.55 127.69 83.55 127.71 83.65" fill="#c0c7c9"/>
  <rect x="127.7" y="83.54" width="0" height=".11" fill="#c0c7c9"/>
  <polygon points="131.86 102.44 131.94 102.44 127.71 83.65 127.64 83.65 131.86 102.44" fill="#c0c7c9"/>
  <polygon points="127.62 83.55 127.64 83.65 127.71 83.65 127.69 83.55 127.62 83.55" fill="#c0c7c9"/>
  <polygon points="57.62 83.65 34.33 83.65 31.8 102.44 56.78 102.44 57.62 83.65" fill="#f8f9f4"/>
  <polygon points="57.63 83.55 34.34 83.55 34.33 83.65 57.62 83.65 57.63 83.55" fill="#c0c7c9"/>
  <polygon points="34.33 83.65 34.33 83.65 34.34 83.55 34.33 83.65" fill="#c0c7c9"/>
  <polygon points="80.98 83.65 57.76 83.65 56.93 102.44 81.82 102.44 80.98 83.65" fill="#494643"/>
  <polygon points="57.77 83.55 57.76 83.65 80.98 83.65 80.97 83.55 57.77 83.55" fill="#b0c2c6"/>
  <polygon points="80.98 83.65 81.82 102.44 81.91 102.44 81.06 83.65 80.98 83.65" fill="#b0c2c6"/>
  <polygon points="81.05 83.55 80.97 83.55 80.98 83.65 81.06 83.65 81.05 83.55" fill="#b0c2c6"/>
  <polygon points="57.62 83.65 57.62 83.65 56.78 102.44 56.93 102.44 57.76 83.65 57.62 83.65" fill="#b0c2c6"/>
  <rect x="57.63" y="83.55" width="0" height=".1" fill="#b0c2c6"/>
  <polygon points="57.76 83.65 57.77 83.55 57.63 83.55 57.62 83.65 57.76 83.65" fill="#b0c2c6"/>
  <polygon points="81.91 102.56 82.72 120.31 109.21 120.31 106.82 102.56 81.91 102.56" fill="#494643"/>
  <polygon points="81.91 102.44 81.91 102.56 106.82 102.56 106.81 102.44 81.91 102.44" fill="#b0c2c6"/>
  <polygon points="106.97 102.56 109.37 120.31 135.88 120.31 131.89 102.56 106.97 102.56" fill="#f8f9f4"/>
  <polygon points="106.95 102.44 106.97 102.56 131.89 102.56 131.86 102.44 106.95 102.44" fill="#c0c7c9"/>
  <polygon points="106.82 102.56 109.21 120.31 109.37 120.31 106.97 102.56 106.82 102.56" fill="#c0c7c9"/>
  <polygon points="106.81 102.44 106.82 102.56 106.97 102.56 106.95 102.44 106.81 102.44" fill="#c0c7c9"/>
  <polygon points="131.96 102.56 135.96 120.31 138.04 120.31 138.04 102.56 131.96 102.56" fill="#494643"/>
  <polygon points="131.96 102.56 138.04 102.56 138.04 102.44 131.94 102.44 131.96 102.56" fill="#b0c2c6"/>
  <polygon points="131.89 102.56 135.88 120.31 135.96 120.31 131.96 102.56 131.89 102.56" fill="#b0c2c6"/>
  <polygon points="131.86 102.44 131.89 102.56 131.96 102.56 131.94 102.44 131.86 102.44" fill="#b0c2c6"/>
  <polygon points="56.77 102.56 31.78 102.56 31.8 102.44 29.39 120.31 55.97 120.31 56.77 102.56" fill="#494643"/>
  <polygon points="31.8 102.44 31.78 102.56 56.77 102.56 56.78 102.44 31.8 102.44" fill="#b0c2c6"/>
  <polygon points="56.92 102.56 56.13 120.31 82.63 120.31 81.83 102.56 56.92 102.56" fill="#f8f9f4"/>
  <polygon points="56.93 102.44 56.92 102.56 81.83 102.56 81.82 102.44 56.93 102.44" fill="#c0c7c9"/>
  <polygon points="81.83 102.56 82.63 120.31 82.72 120.31 81.91 102.56 81.83 102.56" fill="#c0c7c9"/>
  <polygon points="81.82 102.44 81.83 102.56 81.91 102.56 81.91 102.44 81.82 102.44" fill="#c0c7c9"/>
  <polygon points="56.77 102.56 55.97 120.31 56.13 120.31 56.92 102.56 56.77 102.56" fill="#c0c7c9"/>
  <polygon points="56.93 102.44 56.78 102.44 56.77 102.56 56.92 102.56 56.93 102.44" fill="#c0c7c9"/>
  <polygon points="14.69 67.06 36.55 67.06 36.54 67.15 38.49 52.66 17.93 52.66 14.69 67.06" fill="#494643"/>
  <polygon points="17.96 52.54 17.93 52.66 38.49 52.66 38.51 52.54 17.96 52.54" fill="#b0c2c6"/>
  <polygon points="17.86 52.66 0 52.66 0 67.06 14.62 67.06 17.86 52.66" fill="#f8f9f4"/>
  <polygon points="17.88 52.54 0 52.54 0 52.66 17.86 52.66 17.88 52.54" fill="#f8f9f4"/>
  <polygon points="17.86 52.66 14.62 67.06 14.69 67.06 17.93 52.66 17.93 52.66 17.86 52.66" fill="#c0c7c9"/>
  <rect x="17.88" y="52.6" width=".12" height="0" transform="translate(-37.31 58.56) rotate(-77.33)" fill="#c0c7c9"/>
  <polygon points="17.86 52.66 17.93 52.66 17.96 52.54 17.88 52.54 17.86 52.66" fill="#c0c7c9"/>
  <polygon points="10.99 83.55 34.33 83.55 36.54 67.15 14.67 67.15 10.99 83.55" fill="#f8f9f4"/>
  <polygon points="14.69 67.06 14.67 67.15 36.54 67.15 36.55 67.06 14.69 67.06" fill="#c0c7c9"/>
  <polygon points="10.91 83.55 14.6 67.15 0 67.15 0 83.55 10.91 83.55 10.91 83.55" fill="#494643"/>
  <polygon points="14.62 67.06 0 67.06 0 67.15 14.6 67.15 14.62 67.06" fill="#b0c2c6"/>
  <polygon points="10.91 83.55 10.99 83.55 14.67 67.15 14.6 67.15 10.91 83.55" fill="#b0c2c6"/>
  <polygon points="14.6 67.15 14.67 67.15 14.69 67.06 14.62 67.06 14.6 67.15" fill="#b0c2c6"/>
  <polygon points="10.96 83.65 6.74 102.44 31.78 102.44 31.77 102.56 34.33 83.55 34.33 83.55 34.32 83.65 10.96 83.65" fill="#494643"/>
  <polygon points="10.96 83.65 34.32 83.65 34.33 83.55 10.99 83.55 10.96 83.65" fill="#b0c2c6"/>
  <polygon points="0 83.65 0 102.44 6.65 102.44 10.88 83.65 0 83.65" fill="#f8f9f4"/>
  <polygon points="10.91 83.55 0 83.55 0 83.65 10.88 83.65 10.91 83.55" fill="#c0c7c9"/>
  <polygon points="10.88 83.65 6.65 102.44 6.74 102.44 10.96 83.65 10.88 83.65 10.88 83.65" fill="#c0c7c9"/>
  <rect x="10.89" y="83.54" width="0" height=".11" fill="#c0c7c9"/>
  <polygon points="10.88 83.65 10.96 83.65 10.99 83.55 10.91 83.55 10.88 83.65" fill="#c0c7c9"/>
  <polygon points="6.71 102.56 2.73 120.31 29.38 120.31 31.77 102.56 6.71 102.56" fill="#f8f9f4"/>
  <polygon points="6.74 102.44 6.71 102.56 31.77 102.56 31.78 102.44 6.74 102.44" fill="#c0c7c9"/>
  <polygon points="0 102.56 0 120.31 2.63 120.31 6.63 102.56 0 102.56" fill="#494643"/>
  <polygon points="0 102.56 6.63 102.56 6.65 102.44 0 102.44 0 102.56" fill="#b0c2c6"/>
  <polygon points="2.63 120.31 2.73 120.31 6.71 102.56 6.63 102.56 2.63 120.31" fill="#b0c2c6"/>
  <polygon points="6.65 102.44 6.63 102.56 6.71 102.56 6.74 102.44 6.65 102.44" fill="#b0c2c6"/>
</svg>