<?xml version="1.0" encoding="UTF-8"?>
<svg id="blue_flower_wall" xmlns="http://www.w3.org/2000/svg" width="1.9in" height="3.86in" xmlns:xlink="http://www.w3.org/1999/xlink" viewBox="0 0 136.8 277.57">
  <defs>
    <pattern id="New_Pattern_9" data-name="New Pattern 9" x="0" y="0" width="43.8" height="44.01" patternTransform="translate(1618.46 -700.94)" patternUnits="userSpaceOnUse" viewBox="0 0 43.8 44.01">
      <g>
        <rect y="0" width="43.8" height="44.01" fill="none"/>
        <g>
          <g>
            <path d="M45.17,25.75c.08.15-.49.41-1.73,1.55-.55.51-.82.81-1.28.82-.31.01-.78-.1-.96-.47-.15-.32-.01-.7.16-.93.29-.38.74-.38,1.48-.5,1.59-.25,2.23-.65,2.32-.49Z" fill="#c4cfeb"/>
            <path d="M45.22,25.79c-.12.13-.55-.31-2.06-1.09-.67-.34-1.04-.49-1.22-.91-.12-.29-.18-.77.11-1.06.25-.25.65-.26.93-.17.45.15.61.56.98,1.21.79,1.41,1.39,1.87,1.26,2.01Z" fill="#c4cfeb"/>
          </g>
          <g>
            <path d="M35.95,40.64c-.11-.07.15-.46.51-1.72.16-.56.21-.86.5-1.06.2-.13.55-.25.82-.08.23.15.29.45.27.67-.04.36-.33.55-.77.92-.94.81-1.2,1.33-1.32,1.26Z" fill="#c4cfeb"/>
            <path d="M35.89,40.6c.06-.12.48.11,1.76.34.57.1.88.13,1.1.4.15.19.3.53.16.8-.13.24-.42.33-.65.33-.37,0-.58-.28-.99-.68-.89-.86-1.44-1.07-1.38-1.2Z" fill="#c4cfeb"/>
            <path d="M35.95,40.58c.06.12-.37.31-1.33,1.2-.43.39-.63.62-.98.64-.24,0-.6-.08-.74-.36-.11-.24-.01-.54.13-.71.23-.29.57-.29,1.14-.38,1.23-.19,1.72-.5,1.79-.37Z" fill="#c4cfeb"/>
            <path d="M35.99,40.61c-.09.1-.42-.24-1.58-.84-.52-.26-.8-.38-.94-.7-.09-.22-.14-.59.08-.81.19-.19.5-.2.71-.13.35.11.47.43.75.93.61,1.08,1.07,1.44.97,1.55Z" fill="#c4cfeb"/>
            <path d="M35.94,40.63c.13,0,.09.48.4,1.75.14.56.24.85.08,1.17-.11.21-.36.49-.67.47-.27-.02-.48-.25-.56-.46-.14-.34.02-.64.22-1.18.43-1.16.4-1.75.54-1.74Z" fill="#c4cfeb"/>
          </g>
        </g>
        <g>
          <path d="M23.27,36.82c-.15-.09.2-.6.66-2.23.2-.72.27-1.12.65-1.37.26-.17.72-.33,1.06-.1.29.19.38.59.35.88-.05.47-.43.71-1,1.2-1.22,1.05-1.56,1.73-1.72,1.63Z" fill="#c4cfeb"/>
          <path d="M23.19,36.77c.07-.15.62.14,2.28.44.74.13,1.14.17,1.43.52.2.24.39.68.2,1.04-.16.31-.55.43-.84.43-.48,0-.75-.36-1.29-.88-1.16-1.12-1.87-1.39-1.79-1.56Z" fill="#c4cfeb"/>
          <path d="M23.27,36.76c.08.15-.49.41-1.73,1.55-.55.51-.82.81-1.28.82-.31.01-.78-.1-.96-.47-.15-.32-.01-.7.16-.93.29-.38.74-.38,1.48-.5,1.59-.25,2.23-.65,2.32-.49Z" fill="#c4cfeb"/>
          <path d="M23.32,36.79c-.12.13-.55-.31-2.06-1.09-.67-.34-1.04-.49-1.22-.91-.12-.29-.18-.77.11-1.06.25-.25.65-.26.93-.17.45.15.61.56.98,1.21.79,1.41,1.39,1.87,1.26,2.01Z" fill="#c4cfeb"/>
          <path d="M23.26,36.81c.17,0,.12.62.51,2.27.18.73.31,1.11.1,1.52-.14.28-.47.64-.87.61-.35-.02-.62-.33-.73-.6-.18-.44.03-.83.28-1.53.55-1.51.52-2.27.7-2.26Z" fill="#c4cfeb"/>
        </g>
        <g>
          <g>
            <path d="M1.37,25.82c-.15-.09.2-.6.66-2.23.2-.72.27-1.12.65-1.37.26-.17.72-.33,1.06-.1.29.19.38.59.35.88-.05.47-.43.71-1,1.2-1.22,1.05-1.56,1.73-1.72,1.63Z" fill="#c4cfeb"/>
            <path d="M1.29,25.77c.07-.15.62.14,2.28.44.74.13,1.14.17,1.43.52.2.24.39.68.2,1.04-.16.31-.55.43-.84.43-.48,0-.75-.36-1.29-.88-1.16-1.12-1.87-1.39-1.79-1.56Z" fill="#c4cfeb"/>
            <path d="M1.37,25.75c.08.15-.49.41-1.73,1.55-.55.51-.82.81-1.28.82-.31.01-.78-.1-.96-.47-.15-.32-.01-.7.16-.93.29-.38.74-.38,1.48-.5,1.59-.25,2.23-.65,2.32-.49Z" fill="#c4cfeb"/>
            <path d="M1.42,25.79c-.12.13-.55-.31-2.06-1.09-.67-.34-1.04-.49-1.22-.91-.12-.29-.18-.77.11-1.06.25-.25.65-.26.93-.17.45.15.61.56.98,1.21.79,1.41,1.39,1.87,1.26,2.01Z" fill="#c4cfeb"/>
            <path d="M1.36,25.81c.17,0,.12.62.51,2.27.18.73.31,1.11.1,1.52-.14.28-.47.64-.87.61-.35-.02-.62-.33-.73-.6-.18-.44.03-.83.28-1.53.55-1.51.52-2.27.7-2.26Z" fill="#c4cfeb"/>
          </g>
          <g>
            <path d="M8.46,39.45c-.09-.06.13-.38.42-1.42.13-.46.17-.71.42-.87.16-.11.46-.21.67-.07.19.12.24.37.22.56-.03.3-.27.45-.63.76-.78.67-.99,1.1-1.1,1.04Z" fill="#c4cfeb"/>
            <path d="M8.41,39.41c.05-.1.39.09,1.45.28.47.08.72.11.91.33.13.15.25.44.13.66-.1.2-.35.28-.53.27-.3,0-.48-.23-.82-.56-.74-.71-1.19-.88-1.14-.99Z" fill="#c4cfeb"/>
            <path d="M8.46,39.4c.05.1-.31.26-1.1.99-.35.32-.52.51-.81.53-.2,0-.5-.06-.61-.3-.09-.2,0-.45.1-.59.19-.24.47-.24.94-.32,1.01-.16,1.42-.42,1.48-.31Z" fill="#c4cfeb"/>
            <path d="M8.49,39.43c-.07.08-.35-.2-1.31-.69-.43-.22-.66-.31-.77-.58-.08-.18-.11-.49.07-.67.16-.16.41-.16.59-.11.29.09.39.36.62.77.5.9.88,1.19.8,1.28Z" fill="#c4cfeb"/>
            <path d="M8.45,39.44c.11,0,.08.4.33,1.44.11.47.19.71.06.97-.09.18-.3.4-.56.39-.22-.02-.39-.21-.46-.38-.12-.28.02-.53.18-.98.35-.96.33-1.45.45-1.44Z" fill="#c4cfeb"/>
          </g>
        </g>
        <g>
          <g>
            <path d="M45.17,3.75c.08.15-.49.41-1.73,1.55-.55.51-.82.81-1.28.82-.31.01-.78-.1-.96-.47-.15-.32-.01-.7.16-.93.29-.38.74-.38,1.48-.5,1.59-.25,2.23-.65,2.32-.49Z" fill="#c4cfeb"/>
            <path d="M45.22,3.79c-.12.13-.55-.31-2.06-1.09-.67-.34-1.04-.49-1.22-.91-.12-.29-.18-.77.11-1.06.25-.25.65-.26.93-.17.45.15.61.56.98,1.21.79,1.41,1.39,1.87,1.26,2.01Z" fill="#c4cfeb"/>
          </g>
          <g>
            <path d="M35.95,18.63c-.11-.07.15-.46.51-1.72.16-.56.21-.86.5-1.06.2-.13.55-.25.82-.08.23.15.29.45.27.67-.04.36-.33.55-.77.92-.94.81-1.2,1.33-1.32,1.26Z" fill="#c4cfeb"/>
            <path d="M35.89,18.59c.06-.12.48.11,1.76.34.57.1.88.13,1.1.4.15.19.3.53.16.8-.13.24-.42.33-.65.33-.37,0-.58-.28-.99-.68-.89-.86-1.44-1.07-1.38-1.2Z" fill="#c4cfeb"/>
            <path d="M35.95,18.58c.06.12-.37.31-1.33,1.2-.43.39-.63.62-.98.64-.24,0-.6-.08-.74-.36-.11-.24-.01-.54.13-.71.23-.29.57-.29,1.14-.38,1.23-.19,1.72-.5,1.79-.37Z" fill="#c4cfeb"/>
            <path d="M35.99,18.61c-.09.1-.42-.24-1.58-.84-.52-.26-.8-.38-.94-.7-.09-.22-.14-.59.08-.81.19-.19.5-.2.71-.13.35.11.47.43.75.93.61,1.08,1.07,1.44.97,1.55Z" fill="#c4cfeb"/>
            <path d="M35.94,18.62c.13,0,.09.48.4,1.75.14.56.24.85.08,1.17-.11.21-.36.49-.67.47-.27-.02-.48-.25-.56-.46-.14-.34.02-.64.22-1.18.43-1.16.4-1.75.54-1.74Z" fill="#c4cfeb"/>
          </g>
        </g>
        <g>
          <g>
            <path d="M23.27,14.82c-.15-.09.2-.6.66-2.23.2-.72.27-1.12.65-1.37.26-.17.72-.33,1.06-.1.29.19.38.59.35.88-.05.47-.43.71-1,1.2-1.22,1.05-1.56,1.73-1.72,1.63Z" fill="#c4cfeb"/>
            <path d="M23.19,14.77c.07-.15.62.14,2.28.44.74.13,1.14.17,1.43.52.2.24.39.68.2,1.04-.16.31-.55.43-.84.43-.48,0-.75-.36-1.29-.88-1.16-1.12-1.87-1.39-1.79-1.56Z" fill="#c4cfeb"/>
            <path d="M23.27,14.75c.08.15-.49.41-1.73,1.55-.55.51-.82.81-1.28.82-.31.01-.78-.1-.96-.47-.15-.32-.01-.7.16-.93.29-.38.74-.38,1.48-.5,1.59-.25,2.23-.65,2.32-.49Z" fill="#c4cfeb"/>
            <path d="M23.32,14.79c-.12.13-.55-.31-2.06-1.09-.67-.34-1.04-.49-1.22-.91-.12-.29-.18-.77.11-1.06.25-.25.65-.26.93-.17.45.15.61.56.98,1.21.79,1.41,1.39,1.87,1.26,2.01Z" fill="#c4cfeb"/>
            <path d="M23.26,14.81c.17,0,.12.62.51,2.27.18.73.31,1.11.1,1.52-.14.28-.47.64-.87.61-.35-.02-.62-.33-.73-.6-.18-.44.03-.83.28-1.53.55-1.51.52-2.27.7-2.26Z" fill="#c4cfeb"/>
          </g>
          <g>
            <path d="M14.05,29.63c-.11-.07.15-.46.51-1.72.16-.56.21-.86.5-1.06.2-.13.55-.25.82-.08.23.15.29.45.27.67-.04.36-.33.55-.77.92-.94.81-1.2,1.33-1.32,1.26Z" fill="#c4cfeb"/>
            <path d="M13.99,29.59c.06-.12.48.11,1.76.34.57.1.88.13,1.1.4.15.19.3.53.16.8-.13.24-.42.33-.65.33-.37,0-.58-.28-.99-.68-.89-.86-1.44-1.07-1.38-1.2Z" fill="#c4cfeb"/>
            <path d="M14.05,29.58c.06.12-.37.31-1.33,1.2-.43.39-.63.62-.98.64-.24,0-.6-.08-.74-.36-.11-.24-.01-.54.13-.71.23-.29.57-.29,1.14-.38,1.23-.19,1.72-.5,1.79-.37Z" fill="#c4cfeb"/>
            <path d="M14.09,29.61c-.09.1-.42-.24-1.58-.84-.52-.26-.8-.38-.94-.7-.09-.22-.14-.59.08-.81.19-.19.5-.2.71-.13.35.11.47.43.75.93.61,1.08,1.07,1.44.97,1.55Z" fill="#c4cfeb"/>
            <path d="M14.04,29.63c.13,0,.09.48.4,1.75.14.56.24.85.08,1.17-.11.21-.36.49-.67.47-.27-.02-.48-.25-.56-.46-.14-.34.02-.64.22-1.18.43-1.16.4-1.75.54-1.74Z" fill="#c4cfeb"/>
          </g>
          <g>
            <path d="M30.36,28.44c-.09-.06.13-.38.42-1.42.13-.46.17-.71.42-.87.16-.11.46-.21.67-.07.19.12.24.37.22.56-.03.3-.27.45-.63.76-.78.67-.99,1.1-1.1,1.04Z" fill="#c4cfeb"/>
            <path d="M30.31,28.41c.05-.1.39.09,1.45.28.47.08.72.11.91.33.13.15.25.44.13.66-.1.2-.35.28-.53.27-.3,0-.48-.23-.82-.56-.74-.71-1.19-.88-1.14-.99Z" fill="#c4cfeb"/>
            <path d="M30.36,28.4c.05.1-.31.26-1.1.99-.35.32-.52.51-.81.53-.2,0-.5-.06-.61-.3-.09-.2,0-.45.1-.59.19-.24.47-.24.94-.32,1.01-.16,1.42-.42,1.48-.31Z" fill="#c4cfeb"/>
            <path d="M30.39,28.42c-.07.08-.35-.2-1.31-.69-.43-.22-.66-.31-.77-.58-.08-.18-.11-.49.07-.67.16-.16.41-.16.59-.11.29.09.39.36.62.77.5.9.88,1.19.8,1.28Z" fill="#c4cfeb"/>
            <path d="M30.35,28.44c.11,0,.08.4.33,1.44.11.47.19.71.06.97-.09.18-.3.4-.56.39-.22-.02-.39-.21-.46-.38-.12-.28.02-.53.18-.98.35-.96.33-1.45.45-1.44Z" fill="#c4cfeb"/>
          </g>
        </g>
        <g>
          <g>
            <path d="M1.37,3.82c-.15-.09.2-.6.66-2.23.2-.72.27-1.12.65-1.37.26-.17.72-.33,1.06-.1.29.19.38.59.35.88-.05.47-.43.71-1,1.2-1.22,1.05-1.56,1.73-1.72,1.63Z" fill="#c4cfeb"/>
            <path d="M1.29,3.76c.07-.15.62.14,2.28.44.74.13,1.14.17,1.43.52.2.24.39.68.2,1.04-.16.31-.55.43-.84.43-.48,0-.75-.36-1.29-.88-1.16-1.12-1.87-1.39-1.79-1.56Z" fill="#c4cfeb"/>
            <path d="M1.37,3.75c.08.15-.49.41-1.73,1.55-.55.51-.82.81-1.28.82-.31.01-.78-.1-.96-.47-.15-.32-.01-.7.16-.93.29-.38.74-.38,1.48-.5,1.59-.25,2.23-.65,2.32-.49Z" fill="#c4cfeb"/>
            <path d="M1.42,3.79c-.12.13-.55-.31-2.06-1.09-.67-.34-1.04-.49-1.22-.91-.12-.29-.18-.77.11-1.06.25-.25.65-.26.93-.17C-.36.71-.2,1.13.16,1.78c.79,1.41,1.39,1.87,1.26,2.01Z" fill="#c4cfeb"/>
            <path d="M1.36,3.81c.17,0,.12.62.51,2.27.18.73.31,1.11.1,1.52-.14.28-.47.64-.87.61-.35-.02-.62-.33-.73-.6-.18-.44.03-.83.28-1.53.55-1.51.52-2.27.7-2.26Z" fill="#c4cfeb"/>
          </g>
          <g>
            <path d="M8.46,17.44c-.09-.06.13-.38.42-1.42.13-.46.17-.71.42-.87.16-.11.46-.21.67-.07.19.12.24.37.22.56-.03.3-.27.45-.63.76-.78.67-.99,1.1-1.1,1.04Z" fill="#c4cfeb"/>
            <path d="M8.41,17.41c.05-.1.39.09,1.45.28.47.08.72.11.91.33.13.15.25.44.13.66-.1.2-.35.28-.53.27-.3,0-.48-.23-.82-.56-.74-.71-1.19-.88-1.14-.99Z" fill="#c4cfeb"/>
            <path d="M8.46,17.4c.05.1-.31.26-1.1.99-.35.32-.52.51-.81.53-.2,0-.5-.06-.61-.3-.09-.2,0-.45.1-.59.19-.24.47-.24.94-.32,1.01-.16,1.42-.42,1.48-.31Z" fill="#c4cfeb"/>
            <path d="M8.49,17.42c-.07.08-.35-.2-1.31-.69-.43-.22-.66-.31-.77-.58-.08-.18-.11-.49.07-.67.16-.16.41-.16.59-.11.29.09.39.36.62.77.5.9.88,1.19.8,1.28Z" fill="#c4cfeb"/>
            <path d="M8.45,17.43c.11,0,.08.4.33,1.44.11.47.19.71.06.97-.09.18-.3.4-.56.39-.22-.02-.39-.21-.46-.38-.12-.28.02-.53.18-.98.35-.96.33-1.45.45-1.44Z" fill="#c4cfeb"/>
          </g>
        </g>
        <g>
          <g>
            <path d="M14.05,7.63c-.11-.07.15-.46.51-1.72.16-.56.21-.86.5-1.06.2-.13.55-.25.82-.08.23.15.29.45.27.67-.04.36-.33.55-.77.92-.94.81-1.2,1.33-1.32,1.26Z" fill="#c4cfeb"/>
            <path d="M13.99,7.59c.06-.12.48.11,1.76.34.57.1.88.13,1.1.4.15.19.3.53.16.8-.13.24-.42.33-.65.33-.37,0-.58-.28-.99-.68-.89-.86-1.44-1.07-1.38-1.2Z" fill="#c4cfeb"/>
            <path d="M14.05,7.58c.06.12-.37.31-1.33,1.2-.43.39-.63.62-.98.64-.24,0-.6-.08-.74-.36-.11-.24-.01-.54.13-.71.23-.29.57-.29,1.14-.38,1.23-.19,1.72-.5,1.79-.37Z" fill="#c4cfeb"/>
            <path d="M14.09,7.6c-.09.1-.42-.24-1.58-.84-.52-.26-.8-.38-.94-.7-.09-.22-.14-.59.08-.81.19-.19.5-.2.71-.13.35.11.47.43.75.93.61,1.08,1.07,1.44.97,1.55Z" fill="#c4cfeb"/>
            <path d="M14.04,7.62c.13,0,.09.48.4,1.75.14.56.24.85.08,1.17-.11.21-.36.49-.67.47-.27-.02-.48-.25-.56-.46-.14-.34.02-.64.22-1.18.43-1.16.4-1.75.54-1.74Z" fill="#c4cfeb"/>
          </g>
          <g>
            <path d="M30.36,6.44c-.09-.06.13-.38.42-1.42.13-.46.17-.71.42-.87.16-.11.46-.21.67-.07.19.12.24.37.22.56-.03.3-.27.45-.63.76-.78.67-.99,1.1-1.1,1.04Z" fill="#c4cfeb"/>
            <path d="M30.31,6.41c.05-.1.39.09,1.45.28.47.08.72.11.91.33.13.15.25.44.13.66-.1.2-.35.28-.53.27-.3,0-.48-.23-.82-.56-.74-.71-1.19-.88-1.14-.99Z" fill="#c4cfeb"/>
            <path d="M30.36,6.39c.05.1-.31.26-1.1.99-.35.32-.52.51-.81.53-.2,0-.5-.06-.61-.3-.09-.2,0-.45.1-.59.19-.24.47-.24.94-.32,1.01-.16,1.42-.42,1.48-.31Z" fill="#c4cfeb"/>
            <path d="M30.39,6.42c-.07.08-.35-.2-1.31-.69-.43-.22-.66-.31-.77-.58-.08-.18-.11-.49.07-.67.16-.16.41-.16.59-.11.29.09.39.36.62.77.5.9.88,1.19.8,1.28Z" fill="#c4cfeb"/>
            <path d="M30.35,6.43c.11,0,.08.4.33,1.44.11.47.19.71.06.97-.09.18-.3.4-.56.39-.22-.02-.39-.21-.46-.38-.12-.28.02-.53.18-.98.35-.96.33-1.45.45-1.44Z" fill="#c4cfeb"/>
          </g>
        </g>
      </g>
    </pattern>
  </defs>
  <rect x="-1.54" y="-2.55" width="139.87" height="282.73" fill="#f2f4f3"/>
  <rect x="-1.54" y="-2.55" width="139.87" height="282.73" fill="url(#New_Pattern_9)"/>
</svg>