<?xml version="1.0" encoding="UTF-8"?>
<svg id="dark_green_carpet" xmlns="http://www.w3.org/2000/svg" width="1.9in" height="3.86in" viewBox="0 0 136.8 277.57">
  <polygon points="138.88 279.3 137.6 278.51 136.48 278.97 135.35 279.51 134.23 278.99 133.1 279.29 131.98 279.55 130.85 278.96 129.72 278.22 128.6 279 127.47 279.1 126.34 278.21 125.21 278.39 124.09 278.92 122.96 278.17 121.83 279.33 120.71 279.37 119.58 279.53 118.46 278.7 117.33 278.64 116.21 278.52 115.08 278.49 113.96 278.85 112.84 278.75 111.71 278.75 110.59 278.49 109.46 278.64 108.34 279.28 107.21 278.19 106.09 278.67 104.96 279.21 103.84 279.37 102.71 278.13 101.59 278.81 100.46 278.31 99.33 278.31 98.2 278.79 97.07 278.81 95.94 279.25 94.82 278.73 93.69 279.31 92.56 279.46 91.44 278.54 90.31 278.67 89.18 279.07 88.06 278.6 86.93 278.27 85.81 278.49 84.68 279.32 83.55 278.74 82.43 278.27 81.3 278.95 80.17 279.39 79.04 278.58 77.92 278.46 76.79 279.06 75.66 279.43 74.53 279.11 73.4 279.32 72.27 278.87 71.15 278.19 70.02 279.29 68.89 279.33 67.76 278.59 66.64 279.23 65.51 279.29 64.38 279.03 63.25 279.08 62.12 279.56 60.99 279.2 59.86 278.72 58.73 279.46 57.61 278.83 56.48 279.51 55.35 278.31 54.22 278.4 53.09 278.53 51.96 278.65 50.83 279.13 49.7 279.05 48.57 279.09 47.45 278.22 46.32 278.99 45.19 278.33 44.06 279.07 42.93 279.51 41.8 279.04 40.68 279.39 39.55 278.37 38.42 279.17 37.3 279.21 36.17 279.14 35.05 278.3 33.92 279.38 32.79 279.55 31.66 278.35 30.53 278.87 29.4 278.43 28.27 278.37 27.14 279.07 26.02 279.11 24.89 278.86 23.76 278.98 22.62 278.2 21.49 279.48 20.36 278.97 19.23 278.59 18.1 279.34 16.97 279.04 15.84 278.99 14.71 278.42 13.57 278.58 12.44 279.54 11.32 279.52 10.19 278.57 9.05 279.42 7.92 278.9 6.79 278.77 5.66 279.55 4.52 278.23 3.39 279.29 2.25 279.44 1.12 278.27 -.02 279.55 -1.16 279.29 -2.2 278.75 -2.52 277.73 -1.85 276.6 -1.68 275.48 -2.86 274.35 -2.29 273.23 -2.62 272.1 -2.89 270.98 -2.19 269.85 -1.82 268.73 -2.65 267.61 -2.22 266.48 -2.97 265.36 -2.52 264.24 -1.9 263.11 -1.87 261.99 -2.69 260.87 -1.75 259.75 -2.47 258.62 -2.68 257.5 -2.29 256.38 -2.01 255.25 -1.94 254.13 -2.12 253 -2.78 251.87 -2.63 250.75 -1.88 249.62 -2.73 248.5 -1.64 247.37 -2.26 246.25 -2.3 245.13 -2.37 244 -1.62 242.88 -2.21 241.75 -2.01 240.63 -2.49 239.51 -2.1 238.38 -1.6 237.25 -1.6 236.13 -2.99 235 -2.91 233.88 -1.81 232.75 -1.61 231.63 -2.6 230.5 -2.38 229.38 -2.41 228.25 -2.63 227.13 -2.13 226 -2.15 224.87 -1.79 223.75 -2.94 222.62 -2.23 221.5 -2 220.37 -2.01 219.25 -1.72 218.12 -2.88 217 -2.94 215.87 -2.24 214.75 -2.03 213.62 -2.36 212.5 -1.87 211.38 -1.79 210.26 -2.9 209.13 -2.57 208.01 -1.8 206.88 -1.72 205.75 -2.13 204.63 -2.77 203.5 -2.16 202.38 -2.71 201.25 -1.9 200.13 -1.7 199 -1.93 197.87 -2.65 196.74 -2.88 195.62 -2.76 194.49 -1.69 193.36 -1.83 192.23 -2.02 191.1 -2.28 189.98 -2.67 188.85 -1.73 187.72 -2.59 186.6 -2.8 185.47 -1.97 184.34 -2.6 183.21 -2.87 182.08 -2.72 180.95 -2.16 179.82 -2.89 178.69 -2.19 177.56 -2.78 176.43 -2.69 175.3 -1.64 174.16 -2.23 173.04 -1.27 172.57 -.52 171.49 .75 171.58 1.88 171.38 2.73 170.52 4.1 170.9 4.89 169.87 5.92 169.42 7.08 169.31 8.1 168.84 9.22 168.62 10.16 167.95 11.3 167.79 12.23 167.08 13.45 167.16 14.41 166.51 15.35 165.75 16.31 165.09 17.37 164.67 18.72 165.24 19.85 165.11 20.75 164.16 21.87 163.98 22.92 163.58 24.02 163.32 25.1 163.02 26.4 163.56 27.27 162.43 28.27 161.8 29.53 162.23 30.5 161.47 31.57 161.09 32.89 161.89 33.89 161.21 34.87 160.38 36.15 161.07 37.14 160.28 38.23 159.94 39.37 159.91 40.44 159.51 41.56 159.34 42.8 160.04 43.91 159.84 44.89 158.8 46.15 159.73 47.22 159.26 48.36 159.35 49.47 159.21 50.57 158.95 51.6 157.95 52.7 157.61 53.91 158.42 55.05 158.61 56.09 157.41 57.25 157.85 58.36 157.42 59.49 157.39 60.62 157.42 61.75 157.24 62.92 158.34 64.03 157.9 65.14 156.89 66.29 157.57 67.42 157.78 68.56 157.4 69.69 157.9 70.82 157.95 71.98 157.03 73.1 157.66 74.26 157.01 75.34 158.39 76.48 158.36 77.62 158.23 78.73 158.57 79.86 158.57 81.09 157.4 82.14 158.43 83.33 157.92 84.48 157.83 85.6 158.01 86.75 158.01 87.88 158.05 88.9 159.12 89.99 159.47 91.21 158.9 92.36 158.86 93.32 160.14 94.53 159.72 95.71 159.53 96.82 159.73 97.9 160.17 99.06 160.08 100 161.2 101.3 160.46 102.24 161.52 103.52 160.92 104.69 160.87 105.5 162.44 106.61 162.61 107.83 162.36 108.94 162.56 110.11 162.56 111.14 163.14 112.18 163.61 113.36 163.59 114.4 164.09 115.65 163.87 116.46 165.11 117.83 164.48 118.91 164.84 119.73 166 120.99 165.77 122.12 165.96 123.2 166.28 124.1 167.14 125.12 167.64 126.12 168.18 127.23 168.42 128.61 167.99 129.21 169.56 130.53 169.29 131.38 170.19 132.55 170.3 133.83 170.17 134.71 170.98 135.49 172.01 136.58 172.32 137.65 172.67 138.19 173.36 138.03 174.15 139.35 175.27 139.34 176.4 138.49 177.53 138.2 178.65 138.49 179.78 139.34 180.9 138.86 182.03 138.75 183.16 138.57 184.28 138.89 185.41 139.25 186.53 139.12 187.66 138.96 188.78 138.41 189.91 139.05 191.04 138.93 192.16 138.16 193.29 138.82 194.41 139.14 195.54 139.41 196.67 138.23 197.79 139.41 198.92 139.17 200.04 139.43 201.17 138.49 202.29 139.24 203.42 139.28 204.55 138.22 205.67 138.27 206.8 138.27 207.92 138.99 209.05 138.48 210.17 138.7 211.3 138.6 212.43 138.07 213.55 139.06 214.68 138.82 215.8 138.95 216.93 139.27 218.06 138.21 219.18 139.22 220.31 138.73 221.43 139.17 222.56 139.29 223.68 138.17 224.81 139.09 225.94 138.6 227.06 138.53 228.19 139.41 229.31 138.46 230.44 138.71 231.56 138.3 232.69 139.17 233.82 138.9 234.94 138.41 236.07 138.21 237.19 138.97 238.32 139.02 239.45 139.41 240.57 138.84 241.7 138.86 242.82 138.67 243.95 138.77 245.07 139.2 246.2 138.84 247.33 138.03 248.45 138.14 249.58 138.36 250.7 139.19 251.83 139.36 252.95 139.41 254.08 138.04 255.21 138.66 256.33 138.11 257.46 138.92 258.58 139.31 259.71 138.44 260.84 139.08 261.96 138.72 263.09 139.08 264.21 139.44 265.34 138.38 266.46 138.05 267.59 139.37 268.72 139.35 269.84 138.32 270.97 138.08 272.09 139.16 273.22 138.51 274.34 139.1 275.47 138.83 276.6 139.24 277.72 138.88 279.3" fill="#62755f"/>
</svg>