<?xml version="1.0" encoding="UTF-8"?>
<svg id="grey_carpet" xmlns="http://www.w3.org/2000/svg" width="1.98in" height="1.7in" viewBox="0 0 142.42 122.67">
  <polygon points="141.86 122.41 140.59 121.63 139.46 122.08 138.34 122.62 137.21 122.1 136.09 122.4 134.96 122.66 133.84 122.08 132.71 121.33 131.58 122.11 130.45 122.21 129.33 121.32 128.2 121.5 127.07 122.03 125.95 121.28 124.82 122.44 123.69 122.48 122.57 122.64 121.44 121.81 120.32 121.75 119.19 121.63 118.07 121.6 116.95 121.96 115.82 121.86 114.7 121.86 113.57 121.6 112.45 121.75 111.32 122.4 110.2 121.3 109.07 121.78 107.95 122.33 106.82 122.48 105.7 121.24 104.57 121.92 103.44 121.42 102.32 121.42 101.19 121.9 100.06 121.92 98.93 122.36 97.8 121.84 96.68 122.43 95.55 122.57 94.42 121.65 93.3 121.78 92.17 122.19 91.04 121.71 89.92 121.38 88.79 121.6 87.67 122.44 86.54 121.85 85.41 121.39 84.29 122.07 83.16 122.5 82.03 121.7 80.9 121.58 79.77 122.17 78.64 122.54 77.51 122.22 76.39 122.43 75.26 121.98 74.13 121.31 73 122.4 71.88 122.44 70.75 121.7 69.62 122.34 68.49 122.4 67.37 122.14 66.24 122.19 65.11 122.67 63.98 122.31 62.85 121.84 61.72 122.57 60.59 121.94 59.46 122.62 58.34 121.42 57.21 121.51 56.08 121.64 54.95 121.76 53.82 122.25 52.69 122.16 51.56 122.2 50.43 121.33 49.3 122.1 48.18 121.44 47.05 122.18 45.92 122.62 44.79 122.15 43.66 122.5 42.54 121.48 41.41 122.28 40.28 122.33 39.16 122.25 38.03 121.42 36.91 122.49 35.78 122.66 34.65 121.46 33.52 121.98 32.39 121.54 31.26 121.48 30.13 122.18 29 122.22 27.87 121.98 26.74 122.09 25.61 121.31 24.48 122.59 23.35 122.08 22.22 121.7 21.09 122.46 19.96 122.15 18.82 122.11 17.69 121.53 16.56 121.69 15.43 122.65 14.3 122.63 13.17 121.68 12.04 122.54 10.91 122.01 9.78 121.88 8.64 122.66 7.51 121.34 6.37 122.4 5.24 122.55 4.1 121.39 2.97 122.66 1.83 122.4 .79 121.86 .47 120.84 1.14 119.71 1.31 118.59 .12 117.47 .7 116.34 .37 115.21 .1 114.09 .8 112.96 1.17 111.84 .33 110.72 .77 109.59 .02 108.47 .46 107.35 1.09 106.23 1.12 105.1 .29 103.98 1.23 102.86 .52 101.73 .3 100.61 .7 99.49 .98 98.36 1.05 97.24 .87 96.11 .21 94.99 .36 93.86 1.11 92.74 .26 91.61 1.35 90.49 .72 89.36 .69 88.24 .62 87.11 1.36 85.99 .77 84.87 .97 83.74 .49 82.62 .89 81.49 1.38 80.36 1.38 79.24 0 78.11 .07 76.99 1.17 75.86 1.38 74.74 .39 73.61 .61 72.49 .58 71.36 .36 70.24 .85 69.11 .84 67.98 1.2 66.86 .05 65.73 .76 64.61 .99 63.48 .97 62.36 1.27 61.23 .1 60.11 .05 58.98 .75 57.86 .96 56.74 .62 55.61 1.11 54.49 1.19 53.37 .08 52.25 .42 51.12 1.18 49.99 1.27 48.87 .85 47.74 .21 46.61 .83 45.49 .27 44.36 1.09 43.24 1.29 42.11 1.06 40.98 .34 39.85 .11 38.73 .22 37.6 1.3 36.47 1.16 35.34 .97 34.22 .71 33.09 .31 31.96 1.26 30.83 .4 29.71 .18 28.58 1.01 27.45 .39 26.32 .12 25.2 .27 24.06 .83 22.93 .09 21.8 .8 20.67 .2 19.54 .3 18.41 1.34 17.27 .75 16.15 1.72 15.69 2.46 14.6 3.74 14.7 4.87 14.49 5.72 13.63 7.09 14.01 7.88 12.99 8.91 12.53 10.07 12.42 11.08 11.95 12.2 11.73 13.15 11.06 14.28 10.91 15.22 10.19 16.44 10.27 17.4 9.62 18.33 8.87 19.3 8.2 20.35 7.79 21.71 8.35 22.84 8.22 23.73 7.27 24.85 7.09 25.91 6.69 27.01 6.44 28.09 6.13 29.39 6.67 30.25 5.55 31.25 4.91 32.51 5.34 33.49 4.58 34.55 4.21 35.88 5 36.88 4.33 37.86 3.49 39.14 4.18 40.13 3.39 41.21 3.05 42.35 3.02 43.43 2.62 44.54 2.45 45.79 3.15 46.9 2.95 47.88 1.91 49.14 2.84 50.21 2.38 51.35 2.46 52.46 2.32 53.56 2.07 54.59 1.06 55.69 .72 56.89 1.53 58.04 1.72 59.08 .52 60.24 .96 61.34 .53 62.47 .5 63.61 .53 64.73 .35 65.9 1.45 67.01 1.01 68.13 0 69.27 .69 70.41 .89 71.54 .51 72.68 1.01 73.81 1.07 74.96 .14 76.09 .77 77.25 .12 78.33 1.5 79.46 1.47 80.6 1.34 81.72 1.68 82.85 1.68 84.07 .51 85.13 1.54 86.31 1.03 87.46 .95 88.59 1.12 89.73 1.12 90.87 1.17 91.88 2.23 92.98 2.58 94.2 2.01 95.35 1.98 96.31 3.25 97.51 2.83 98.69 2.65 99.81 2.84 100.88 3.28 102.05 3.19 102.99 4.31 104.29 3.57 105.22 4.63 106.5 4.04 107.68 3.98 108.48 5.55 109.6 5.72 110.82 5.47 111.93 5.67 113.1 5.67 114.12 6.25 115.17 6.72 116.35 6.7 117.39 7.21 118.63 6.98 119.44 8.22 120.82 7.59 121.9 7.95 122.71 9.11 123.98 8.88 125.1 9.07 126.19 9.39 127.09 10.25 128.1 10.76 129.1 11.29 130.22 11.53 131.59 11.1 132.2 12.67 133.52 12.4 134.37 13.31 135.54 13.41 136.81 13.29 137.7 14.09 138.48 15.12 139.57 15.43 140.64 15.78 141.18 16.47 141.02 17.26 142.33 18.39 142.32 19.51 141.47 20.64 141.19 21.76 141.48 22.89 142.33 24.02 141.85 25.14 141.73 26.27 141.56 27.39 141.88 28.52 142.23 29.64 142.1 30.77 141.95 31.9 141.4 33.02 142.03 34.15 141.92 35.27 141.15 36.4 141.81 37.53 142.13 38.65 142.4 39.78 141.21 40.9 142.4 42.03 142.15 43.15 142.42 44.28 141.48 45.41 142.22 46.53 142.27 47.66 141.2 48.78 141.26 49.91 141.26 51.03 141.98 52.16 141.46 53.29 141.68 54.41 141.58 55.54 141.06 56.66 142.05 57.79 141.81 58.92 141.94 60.04 142.26 61.17 141.2 62.29 142.2 63.42 141.71 64.54 142.15 65.67 142.28 66.8 141.16 67.92 142.08 69.05 141.58 70.17 141.51 71.3 142.39 72.42 141.45 73.55 141.7 74.68 141.29 75.8 142.15 76.93 141.88 78.05 141.39 79.18 141.2 80.31 141.95 81.43 142.01 82.56 142.39 83.68 141.82 84.81 141.85 85.93 141.65 87.06 141.76 88.19 142.19 89.31 141.83 90.44 141.02 91.56 141.12 92.69 141.35 93.81 142.18 94.94 142.34 96.07 142.39 97.19 141.02 98.32 141.64 99.44 141.1 100.57 141.91 101.7 142.3 102.82 141.42 103.95 142.06 105.07 141.71 106.2 142.07 107.32 142.42 108.45 141.36 109.58 141.04 110.7 142.36 111.83 142.34 112.95 141.31 114.08 141.06 115.21 142.15 116.33 141.5 117.46 142.08 118.58 141.82 119.71 142.22 120.83 141.86 122.41" fill="#e0dddc"/>
</svg>