<?xml version="1.0" encoding="UTF-8"?>
<svg id="white_stripe_wall" xmlns="http://www.w3.org/2000/svg" width="1.9in" height="3.86in" viewBox="0 0 136.8 277.57">
  <rect x="-1.54" y="-2.55" width="139.87" height="282.73" fill="#f6f1ee"/>
  <line x1="6.11" y1="-3.23" x2="6.11" y2="281.56" fill="none" stroke="#dfd7cb" stroke-miterlimit="10" stroke-width=".75"/>
  <line x1="10.08" y1="-3.23" x2="10.08" y2="281.56" fill="none" stroke="#dfd7cb" stroke-miterlimit="10" stroke-width=".75"/>
  <line x1="17.11" y1="-3.23" x2="17.11" y2="281.56" fill="none" stroke="#dfd7cb" stroke-miterlimit="10" stroke-width=".75"/>
  <line x1="21.09" y1="-3.23" x2="21.09" y2="281.56" fill="none" stroke="#dfd7cb" stroke-miterlimit="10" stroke-width=".75"/>
  <line x1="28.12" y1="-3.23" x2="28.12" y2="281.56" fill="none" stroke="#dfd7cb" stroke-miterlimit="10" stroke-width=".75"/>
  <line x1="32.09" y1="-3.23" x2="32.09" y2="281.56" fill="none" stroke="#dfd7cb" stroke-miterlimit="10" stroke-width=".75"/>
  <line x1="39.13" y1="-3.23" x2="39.13" y2="281.56" fill="none" stroke="#dfd7cb" stroke-miterlimit="10" stroke-width=".75"/>
  <line x1="43.1" y1="-3.23" x2="43.1" y2="281.56" fill="none" stroke="#dfd7cb" stroke-miterlimit="10" stroke-width=".75"/>
  <line x1="50.13" y1="-3.23" x2="50.13" y2="281.56" fill="none" stroke="#dfd7cb" stroke-miterlimit="10" stroke-width=".75"/>
  <line x1="54.11" y1="-3.23" x2="54.11" y2="281.56" fill="none" stroke="#dfd7cb" stroke-miterlimit="10" stroke-width=".75"/>
  <line x1="61.14" y1="-3.23" x2="61.14" y2="281.56" fill="none" stroke="#dfd7cb" stroke-miterlimit="10" stroke-width=".75"/>
  <line x1="65.11" y1="-3.23" x2="65.11" y2="281.56" fill="none" stroke="#dfd7cb" stroke-miterlimit="10" stroke-width=".75"/>
  <line x1="72.15" y1="-3.23" x2="72.15" y2="281.56" fill="none" stroke="#dfd7cb" stroke-miterlimit="10" stroke-width=".75"/>
  <line x1="76.12" y1="-3.23" x2="76.12" y2="281.56" fill="none" stroke="#dfd7cb" stroke-miterlimit="10" stroke-width=".75"/>
  <line x1="83.15" y1="-3.23" x2="83.15" y2="281.56" fill="none" stroke="#dfd7cb" stroke-miterlimit="10" stroke-width=".75"/>
  <line x1="87.13" y1="-3.23" x2="87.13" y2="281.56" fill="none" stroke="#dfd7cb" stroke-miterlimit="10" stroke-width=".75"/>
  <line x1="94.16" y1="-3.23" x2="94.16" y2="281.56" fill="none" stroke="#dfd7cb" stroke-miterlimit="10" stroke-width=".75"/>
  <line x1="98.13" y1="-3.23" x2="98.13" y2="281.56" fill="none" stroke="#dfd7cb" stroke-miterlimit="10" stroke-width=".75"/>
  <line x1="105.16" y1="-3.23" x2="105.16" y2="281.56" fill="none" stroke="#dfd7cb" stroke-miterlimit="10" stroke-width=".75"/>
  <line x1="109.14" y1="-3.23" x2="109.14" y2="281.56" fill="none" stroke="#dfd7cb" stroke-miterlimit="10" stroke-width=".75"/>
  <line x1="116.17" y1="-3.23" x2="116.17" y2="281.56" fill="none" stroke="#dfd7cb" stroke-miterlimit="10" stroke-width=".75"/>
  <line x1="120.15" y1="-3.23" x2="120.15" y2="281.56" fill="none" stroke="#dfd7cb" stroke-miterlimit="10" stroke-width=".75"/>
  <line x1="127.18" y1="-3.23" x2="127.18" y2="281.56" fill="none" stroke="#dfd7cb" stroke-miterlimit="10" stroke-width=".75"/>
  <line x1="131.15" y1="-3.23" x2="131.15" y2="281.56" fill="none" stroke="#dfd7cb" stroke-miterlimit="10" stroke-width=".75"/>
</svg>