<?xml version="1.0" encoding="UTF-8"?><svg id="basic_bed" xmlns="http://www.w3.org/2000/svg" viewBox="0 0 97.3 70.88"><rect x="2.04" y="57.92" width="7.02" height="12.96" rx="2.41" ry="2.41" fill="#31130c"/><rect x="88.47" y="57.92" width="7.02" height="12.96" rx="2.41" ry="2.41" fill="#31130c"/><rect x="7.27" width="82.85" height="29.45" rx="1.34" ry="1.34" fill="#774026"/><rect y="49.87" width="97.3" height="12.96" fill="#774026"/><polygon points="97.3 49.87 0 49.87 7.46 26.36 89.68 26.36 97.3 49.87" fill="#31130c"/><path d="M2.04,44.17h93.44v4.38c0,.73-.59,1.32-1.32,1.32H3.27c-.67,0-1.22-.55-1.22-1.22v-4.48h0Z" fill="#c0c8d1"/><path d="M87.61,20.11H10.07c-.56,0-1.06.37-1.22.91l-6.81,23.15h93.44l-6.78-23.24c-.14-.49-.59-.82-1.1-.82Z" fill="#d5dbe0"/><path d="M46.93,22.21c-.52,1.26-7.91,1.4-16.68.38-5.47.2-11.37.53-15.23.76-2.29.14-4.22-1.69-4.22-3.98,0,0-.94-10.56,1.11-13.24,1.57-2.06,31.67-3.15,35.45.21,1.29,1.15-1.28,5.7-1.28,7.83s2.34,5.87.85,8.04Z" fill="#d5dbe0"/><path d="M46.93,22.21c-.52,1.26-7.91,1.4-16.68.38-5.47.2-11.37.53-15.23.76-2.29.14-4.22-1.69-4.22-3.98,0,0,1.48,3.38,4.83,3.03,1.48-.15,7.83-.32,14.62-.38,6.17.57,12.33.54,15.06.32.88-.07,1.63-.73,1.76-1.61.16-1.12-.19-2.57-.49-4.19.13.28,1.84,3.51.35,5.68Z" fill="#c3c7c9"/><path d="M50.61,22.21c.52,1.26,7.91,1.4,16.68.38,5.47.2,11.37.53,15.23.76,2.29.14,4.22-1.69,4.22-3.98,0,0,.94-10.56-1.11-13.24-1.57-2.06-31.67-3.15-35.45.21-1.29,1.15,1.28,5.7,1.28,7.83s-2.34,5.87-.85,8.04Z" fill="#d5dbe0"/><path d="M50.61,22.21c.52,1.26,7.91,1.4,16.68.38,5.47.2,11.37.53,15.23.76,2.29.14,4.22-1.69,4.22-3.98,0,0-1.48,3.38-4.83,3.03-1.48-.15-7.83-.32-14.62-.38-6.17.57-12.33.54-15.06.32-.88-.07-1.63-.73-1.76-1.61-.16-1.12.19-2.57.49-4.19-.13.28-1.84,3.51-.35,5.68Z" fill="#c3c7c9"/><path d="M91.07,31.79H6.49c-.58,0-1-.54-.86-1.1l1.47-5.91c.1-.4.45-.67.86-.67h81.48c.4,0,.75.27.86.65l1.62,5.91c.15.56-.27,1.12-.86,1.12Z" fill="#e8ecef"/></svg>