<?xml version="1.0" encoding="UTF-8"?>
<svg id="logo" xmlns="http://www.w3.org/2000/svg" viewBox="0 0 129.01 68.41">
  <g>
    <path d="M69.24,15.78c.05-.11.39-.86.86-.86.52,0,.95.95.91,1.71-.03.52-.29,1.21-.88,1.48-.32.15-.62.1-1.22,0-.89-.15-1.37-.22-1.62-.62-.37-.57-.18-1.69.57-2,.43-.18.96-.06,1.38.29Z" fill="#278796" stroke="#278796" stroke-linecap="round" stroke-linejoin="round" stroke-width="9"/>
    <path d="M58.86,16c-.05-.11-.39-.86-.86-.86-.52,0-.95.95-.91,1.71.03.52.29,1.21.88,1.48.32.15.62.1,1.22,0,.89-.15,1.37-.22,1.62-.62.37-.57.18-1.69-.57-2-.43-.18-.96-.06-1.38.29Z" fill="#278796" stroke="#278796" stroke-linecap="round" stroke-linejoin="round" stroke-width="9"/>
    <path id="Neck" d="M62.31,20.89c0,1.24.15,1.6-.94,2.04.17.16,1.59,2.25,2.32,2.34,1.19.14,2.86-2.27,2.95-2.37-1.08-.48-.86-.84-.86-2.03-1.16,0-2.32.01-3.48.02Z" fill="#278796" stroke="#278796" stroke-linecap="round" stroke-linejoin="round" stroke-width="9"/>
    <path id="Face" d="M60.52,10.18c-.68.36-1.12,1.05-1.26,1.8-.27,1.48-.32,2.73-.31,3.64.01,1.43.03,2.25.48,3.24.21.45.87,1.84,2.47,2.57,1.92.88,3.72.16,4.1,0,.25-.11,1.63-.72,2.48-2.24.24-.43.54-1.12.67-3.48.05-.87.07-2.01,0-3.36-.05-1.01-.66-1.92-1.58-2.34-1.13-.52-2.42-.58-3.54-.58s-2.47.19-3.5.74Z" fill="#278796" stroke="#278796" stroke-linecap="round" stroke-linejoin="round" stroke-width="9"/>
    <path d="M62.47,18.98c.17.13.75.54,1.59.52.79-.01,1.33-.39,1.5-.52" fill="#278796" stroke="#278796" stroke-linecap="round" stroke-linejoin="round" stroke-width="9"/>
    <path d="M58.17,26.73c-.12.19-.12.39-.13.48-.02,1.13-.23,2.42-.66,5.01-.07.42-.2,1.09-.43,1.89,0,0,.13.97.89,1.53.1.07.28.2.48.16.14-.03.24-.12.27-.15.13-.14.13-.32.13-.41,0-.19-.07-.32-.11-.43-.22-.51-.12-.98-.12-.98,0,0-.11.63.21.86.04.03.18.13.36.1.13-.02.21-.11.25-.15.12-.12.16-.28.18-.43.04-.33,0-1.13-.11-2.19.45-1,2.08-4.78,1-5.61-.51-.39-1.83-.29-2.22.33Z" fill="#278796" stroke="#278796" stroke-linecap="round" stroke-linejoin="round" stroke-width="9"/>
    <path d="M69.52,26.43c.34.2.52.48.59.62.26,1.71.55,3.46.87,5.23.12.64.24,1.28.36,1.91,0,0-.16.97-.95,1.5-.1.07-.28.19-.49.14-.14-.03-.23-.13-.26-.16-.12-.15-.12-.33-.12-.42,0-.19.08-.32.13-.42.23-.5.15-.97.16-.97,0,0,.08.64-.25.85-.04.02-.19.12-.37.08-.13-.03-.21-.12-.24-.16-.11-.13-.15-.29-.16-.44-.03-.33.04-1.13.19-2.19-.71-1.36-1.14-2.59-1.27-3.58-.09-.68-.12-1.71.48-2.07.37-.22.93-.14,1.32.09Z" fill="#278796" stroke="#278796" stroke-linecap="round" stroke-linejoin="round" stroke-width="9"/>
    <path d="M65.48,14.55c.1-.08.54-.4,1.18-.34.6.05.97.41,1.06.51" fill="none" stroke="#278796" stroke-linecap="round" stroke-linejoin="round" stroke-width="9"/>
    <path d="M62.35,14.55c-.1-.08-.54-.4-1.18-.34-.6.05-.97.41-1.06.51" fill="none" stroke="#278796" stroke-linecap="round" stroke-linejoin="round" stroke-width="9"/>
    <path d="M63.61,8.54c-.01.12-.04.22-.12.42-.02.05-.04.1-.05.14-.07.19-.16.34-.23.47-.08-.12-.16-.27-.23-.44-.17.02-.34.04-.52.07-.25.04-.5.09-.74.16-.09-.14-.17-.3-.23-.51-.02-.07-.06-.23-.07-.42-.01-.45.19-.76.4-1.16.14-.28.32-.69.49-1.21.11.22.22.42.33.59.11.19.22.36.31.5.04.07.09.13.12.19.31.44.57.75.54,1.18Z" fill="#278796" stroke="#278796" stroke-linecap="round" stroke-linejoin="round" stroke-width="9"/>
    <path d="M64.9,8.25c-.01.15-.06.27-.15.53-.04.11-.08.22-.12.31-.17.41-.37.7-.52.94-.05.08-.11.17-.16.28-.03.06-.06.12-.1.18-.05-.09-.1-.18-.15-.26-.03-.04-.06-.09-.09-.12-.11-.14-.25-.31-.39-.54-.08-.12-.16-.27-.23-.44-.17.02-.34.04-.52.07-.09-.16-.17-.34-.24-.55-.02-.1-.07-.29-.09-.53-.02-.57.24-.95.5-1.46.18-.35.41-.86.62-1.52.12.24.25.46.36.66.23.39.44.7.6.95.38.55.71.94.67,1.49Z" fill="#278796" stroke="#278796" stroke-linecap="round" stroke-linejoin="round" stroke-width="9"/>
    <path d="M66.11,8.28c-.01.18-.07.34-.17.64-.03.09-.06.17-.09.24-.24.58-.5.97-.69,1.3-.24.39-.55.97-.86,1.75,0-.07-.01-.14-.02-.21-.06-.67-.24-1.16-.42-1.51-.05-.09-.1-.18-.15-.26-.03-.04-.06-.09-.09-.12-.11-.14-.25-.31-.39-.54-.08-.12-.16-.27-.23-.44-.05-.11-.09-.22-.12-.35-.04-.12-.1-.36-.11-.65-.01-.37.07-.67.2-.97.11-.26.26-.52.41-.81.08-.16.17-.34.26-.55.16-.36.33-.8.49-1.31.45.87.87,1.52,1.18,1.96.46.67.87,1.15.82,1.82Z" fill="#278796" stroke="#278796" stroke-linecap="round" stroke-linejoin="round" stroke-width="9"/>
    <path d="M60.14,14.8c.08-.09.45-.5,1.08-.58.6-.07,1.03.2,1.14.28" fill="none" stroke="#278796" stroke-linecap="round" stroke-linejoin="round" stroke-width="9"/>
    <path d="M65.41,14.47c.1-.07.58-.35,1.2-.24.59.11.93.5,1.01.6" fill="none" stroke="#278796" stroke-linecap="round" stroke-linejoin="round" stroke-width="9"/>
    <rect x="57.35" y="28.21" width="2.81" height="1.41" transform="translate(5.47 -9.15) rotate(9.34)" fill="#278796" stroke="#278796" stroke-linecap="round" stroke-linejoin="round" stroke-width="9"/>
    <rect x="68.21" y="28.32" width="2.81" height="1.41" transform="translate(143.02 46.36) rotate(170.66)" fill="#278796" stroke="#278796" stroke-linecap="round" stroke-linejoin="round" stroke-width="9"/>
    <path id="Shirt" d="M60.39,25.91s-.06,2.15-.27,6.44c.96.3,2.35.63,4.05.66,1.79.03,3.26-.29,4.25-.59-.2-4.33-.29-6.5-.26-6.5.02,0,.08.89.2,2.68.81-.15,1.62-.29,2.44-.44-.26-1.76-.56-3.09-.78-3.69-.08-.23-.21-.49-.46-.71-.26-.23-.53-.31-.68-.36-.62-.18-1.48-.43-2.54-.71-.08.2-.26.58-.63.91-.45.41-.94.53-1.16.57l-.41,1.45c-.15-.48-.31-.96-.46-1.44-.22-.04-.57-.13-.92-.38-.56-.38-.8-.9-.89-1.12-1.06.33-1.86.6-2.32.74-.16.05-.49.15-.84.42-.08.06-.15.13-.22.21-.48.53-.65,1.62-.68,1.85-.1.68-.18,1.43-.23,2.26.87.15,1.75.3,2.62.45.12-1.81.19-2.72.2-2.71Z" fill="#278796" stroke="#278796" stroke-linecap="round" stroke-linejoin="round" stroke-width="9"/>
    <line x1="57.67" y1="28.18" x2="60.02" y2="28.6" fill="#278796" stroke="#278796" stroke-linecap="round" stroke-linejoin="round" stroke-width="9"/>
    <line x1="70.7" y1="28.2" x2="68.36" y2="28.61" fill="#278796" stroke="#278796" stroke-linecap="round" stroke-linejoin="round" stroke-width="9"/>
    <path d="M89.49,19.25c.06-.1.5-.8.96-.74.52.07.82,1.06.68,1.82-.1.51-.45,1.16-1.06,1.35-.34.1-.63.02-1.21-.16-.86-.26-1.33-.4-1.53-.82-.29-.62.04-1.7.83-1.91.45-.12.96.07,1.33.46Z" fill="#278796" stroke="#278796" stroke-linecap="round" stroke-linejoin="round" stroke-width="9"/>
    <path d="M79.18,18.13c-.03-.11-.28-.9-.74-.96-.52-.07-1.06.82-1.12,1.58-.04.52.13,1.24.68,1.58.3.19.6.18,1.21.16.9-.03,1.38-.05,1.69-.4.44-.52.4-1.65-.31-2.06-.4-.23-.95-.18-1.41.1Z" fill="#278796" stroke="#278796" stroke-linecap="round" stroke-linejoin="round" stroke-width="9"/>
    <path id="Neck-2" data-name="Neck" d="M81.96,23.42c-.16,1.23-.06,1.6-1.19,1.9.15.18,1.28,2.44,2,2.62,1.16.29,3.13-1.88,3.23-1.97-1.01-.61-.74-.94-.59-2.13-1.15-.14-2.3-.29-3.45-.43Z" fill="#278796" stroke="#278796" stroke-linecap="round" stroke-linejoin="round" stroke-width="9"/>
    <path id="Face-2" data-name="Face" d="M81.57,12.57c-.72.27-1.25.89-1.48,1.62-.46,1.43-.67,2.66-.78,3.57-.17,1.42-.27,2.24.06,3.27.15.48.63,1.93,2.12,2.87,1.79,1.12,3.67.64,4.06.53.26-.07,1.71-.51,2.75-1.9.3-.4.68-1.04,1.11-3.36.16-.86.33-1.98.43-3.33.08-1.01-.41-1.99-1.27-2.53-1.05-.66-2.32-.89-3.43-1.03s-2.48-.13-3.57.28Z" fill="#278796" stroke="#278796" stroke-linecap="round" stroke-linejoin="round" stroke-width="9"/>
    <path d="M82.37,21.55c.15.15.67.63,1.51.73.78.09,1.37-.21,1.56-.33" fill="#278796" stroke="#278796" stroke-linecap="round" stroke-linejoin="round" stroke-width="9"/>
    <path d="M77.1,28.68c-.15.18-.17.37-.19.46-.16,1.12-.54,2.37-1.3,4.88-.12.41-.34,1.05-.67,1.82,0,0,0,.98.69,1.63.09.08.25.23.46.22.15,0,.25-.09.28-.12.15-.13.17-.3.18-.39.02-.19-.03-.33-.06-.44-.15-.54,0-.99,0-.99,0,0-.19.61.1.88.03.03.17.15.35.14.13,0,.23-.08.27-.12.13-.11.2-.26.23-.41.08-.32.15-1.12.17-2.19.57-.93,2.68-4.47,1.72-5.43-.45-.45-1.77-.52-2.24.04Z" fill="#278796" stroke="#278796" stroke-linecap="round" stroke-linejoin="round" stroke-width="9"/>
    <path d="M88.4,29.85c.31.24.45.54.51.69.03,1.73.1,3.5.19,5.3.03.65.07,1.3.11,1.94,0,0-.29.94-1.13,1.36-.11.05-.3.15-.5.08-.14-.05-.21-.16-.24-.2-.1-.16-.08-.34-.06-.43.03-.19.12-.31.18-.4.3-.47.28-.95.29-.94,0,0,0,.64-.35.81-.04.02-.2.1-.37.03-.13-.05-.19-.14-.22-.19-.09-.14-.11-.3-.1-.46.02-.33.18-1.12.48-2.14-.53-1.44-.79-2.72-.79-3.71,0-.69.11-1.71.74-1.99.39-.17.94-.02,1.3.26Z" fill="#278796" stroke="#278796" stroke-linecap="round" stroke-linejoin="round" stroke-width="9"/>
    <path id="Shirt-2" data-name="Shirt" d="M79.42,28.08c-.37,2.12-.74,4.24-1.11,6.36.91.43,2.25.93,3.93,1.18,1.77.26,3.27.13,4.29-.03.19-2.16.39-4.32.58-6.48-.06.62-.11,1.25-.17,1.87.88.12,1.75.24,2.63.36-.12-1.58-.29-2.8-.44-3.42-.05-.19-.13-.49-.36-.77-.23-.26-.49-.38-.63-.44-.59-.26-1.42-.62-2.43-1.04-.48.87-1.44,1.36-2.43,1.23-.98-.13-1.78-.85-2.01-1.81-1.09.19-1.92.35-2.39.43-.17.03-.51.09-.88.31-.08.05-.16.11-.24.18-.33.28-.45.57-.92,1.74-.26.64-.46,1.15-.56,1.41.91.27,1.81.54,2.72.8" fill="#278796" stroke="#278796" stroke-linecap="round" stroke-linejoin="round" stroke-width="9"/>
    <path d="M86.09,17.45c.11-.06.59-.33,1.21-.19.59.13.9.54.98.64" fill="none" stroke="#278796" stroke-linecap="round" stroke-linejoin="round" stroke-width="9"/>
    <path d="M82.99,17.04c-.09-.09-.49-.47-1.12-.49-.6-.02-1.01.29-1.11.37" fill="none" stroke="#278796" stroke-linecap="round" stroke-linejoin="round" stroke-width="9"/>
    <path d="M79.6,23.05c-.12.04-.42-.46-.57-.75-.1-.21-.2-.42-.27-.73-.05-.2-.09-.43-.14-.73-.03-.19-.06-.42-.08-.67-.09-.92-.14-1.38-.08-1.62.15-.59.57-1.06.96-1.36.35-.27.68-.38.77-.31.08.07-.04.25-.24.8,0,0,0,0,0,0-.07.19-.15.41-.23.69-.17.56-.29,1.08-.35,1.37-.09.5-.09.99-.05,1.41.01.15.03.29.05.43h0c.09.63.25,1.1.28,1.32,0,.08,0,.13-.03.14Z" fill="#278796" stroke="#278796" stroke-miterlimit="10" stroke-width="9"/>
    <path d="M87.96,23.99c-.08-.06-.18-.14-.3-.24-.02-.01-.03-.03-.05-.05.03-.03.06-.05.09-.09.09-.09.18-.18.27-.28,0,.23,0,.43-.01.58h0s-.01.06,0,.07Z" fill="#278796" stroke="#278796" stroke-miterlimit="10" stroke-width="9"/>
    <path d="M89.18,22.7h0c0,.21-.08.45-.16.62-.16.31-.4.49-.69.68,0,0,0,0,0,0-.05.03-.11.07-.16.1-.04.03-.08.05-.12.07,0,.01-.02.02-.03.03-.09.05-.18.09-.25.12-.09.05-.17.08-.24.11.02-.13.06-.33.13-.55,0-.03.01-.06.02-.09,0-.01,0-.02.01-.04.01-.05.03-.1.04-.14.09-.09.18-.18.27-.28h0c.09-.11.18-.21.28-.33.09-.12.19-.26.29-.47.01-.03.01-.06.02-.09.01,0,.02,0,.03,0,.18-.08.35-.11.46-.03.08.06.12.17.12.3Z" fill="#278796" stroke="#278796" stroke-miterlimit="10" stroke-width="9"/>
    <path d="M87.75,25.47c-.08-.06-.19-.14-.31-.25-.03-.03-.06-.06-.1-.09,0,0,0,0-.01-.01-.03-.03-.06-.06-.09-.09-.02-.02-.04-.05-.07-.07,0,0-.01-.01-.02-.01-.17-.19-.32-.36-.43-.58.27-.15.55-.36.83-.61.03.04.05.08.07.13.06.14.1.28.11.44,0,.04.01.1.01.15h0c0,.13.02.25.02.39.01.26,0,.48-.02.62Z" fill="#278796" stroke="#278796" stroke-miterlimit="10" stroke-width="9"/>
    <path d="M87.28,25.88c.15-.06.37-.15.61-.3.34-.21.64-.39.81-.74.13-.27.23-.72.04-.87-.18-.14-.57.07-.79.25-.29.25-.4.59-.54,1.05-.08.25-.12.47-.14.61Z" fill="#278796" stroke="#278796" stroke-miterlimit="10" stroke-width="9"/>
    <path d="M87.6,26.79c-.12-.08-.28-.22-.46-.41-.24-.26-.46-.49-.53-.83-.05-.27-.03-.68.16-.76.19-.08.48.19.63.4.2.29.21.61.22,1.04,0,.24,0,.43-.02.56Z" fill="#278796" stroke="#278796" stroke-miterlimit="10" stroke-width="9"/>
    <path d="M87.13,27.16c.13-.05.33-.14.55-.27.3-.19.57-.35.73-.66.12-.24.21-.65.04-.78-.16-.12-.52.06-.71.23-.26.23-.36.54-.48.94-.07.23-.11.42-.13.55Z" fill="#278796" stroke="#278796" stroke-miterlimit="10" stroke-width="9"/>
    <path d="M87.39,28.07c-.11-.08-.28-.21-.46-.4-.24-.25-.46-.48-.52-.82-.05-.26-.03-.67.16-.75.19-.08.48.19.62.39.19.28.2.6.22,1.02,0,.23,0,.43-.02.55Z" fill="#278796" stroke="#278796" stroke-miterlimit="10" stroke-width="9"/>
    <path d="M87.01,28.44c.13-.05.32-.14.54-.27.3-.18.56-.35.72-.65.12-.24.21-.64.04-.77-.16-.12-.51.06-.7.22-.26.22-.35.53-.47.93-.07.22-.11.41-.13.54Z" fill="#278796" stroke="#278796" stroke-miterlimit="10" stroke-width="9"/>
    <path d="M79.91,22.79c-.11.06-.2.09-.27.12.02-.11.05-.26.1-.44.05.1.1.21.18.32Z" fill="#278796" stroke="#278796" stroke-miterlimit="10" stroke-width="9"/>
    <path d="M79.91,22.79c-.07-.11-.13-.22-.18-.32-.19-.36-.3-.67-.37-.87h0c-.02-.14-.04-.29-.05-.43-.03-.02-.06-.04-.08-.05-.09-.04-.18-.06-.25-.03-.14.06-.2.26-.21.48-.01.15,0,.3.03.42.07.34.26.58.49.83t0,0s.09.09.13.14.09.09.13.13c.08.07.15.14.21.19.08.07.15.11.21.16.01-.13.03-.32.02-.54" fill="#278796" stroke="#278796" stroke-miterlimit="10" stroke-width="9"/>
    <path d="M79.97,22.9c-.09.11-.16.24-.22.39-.02.04-.03.08-.04.13h0c-.05.12-.08.23-.12.37-.08.25-.12.46-.14.6.1-.04.23-.09.37-.17.03-.02.07-.04.11-.06.07-.05.15-.1.23-.14.16-.1.32-.21.45-.33-.26-.26-.47-.53-.63-.79" fill="#278796" stroke="#278796" stroke-miterlimit="10" stroke-width="9"/>
    <path d="M79.8,24.91c-.13-.09-.32-.24-.51-.45-.27-.29-.51-.54-.59-.92-.06-.3-.04-.76.18-.85.21-.09.54.21.7.45.22.32.23.68.25,1.15,0,.26,0,.48-.02.62Z" fill="#278796" stroke="#278796" stroke-miterlimit="10" stroke-width="9"/>
    <path d="M79.26,25.71c.13-.05.33-.14.55-.27.3-.19.57-.35.73-.66.12-.24.21-.65.04-.78-.16-.12-.52.06-.71.23-.26.23-.36.54-.48.94-.07.23-.11.42-.13.55Z" fill="#278796" stroke="#278796" stroke-miterlimit="10" stroke-width="9"/>
    <path d="M79.61,26.18c-.12-.08-.28-.22-.46-.41-.24-.26-.46-.49-.53-.83-.05-.27-.03-.68.16-.76.19-.08.48.19.63.4.2.29.21.61.22,1.04,0,.24,0,.43-.02.56Z" fill="#278796" stroke="#278796" stroke-miterlimit="10" stroke-width="9"/>
    <path d="M79.13,27c.13-.05.32-.14.54-.27.3-.18.56-.35.72-.65.12-.24.21-.64.04-.77-.16-.12-.51.06-.7.22-.26.22-.35.53-.47.93-.07.22-.11.41-.13.54Z" fill="#278796" stroke="#278796" stroke-miterlimit="10" stroke-width="9"/>
    <path d="M79.4,27.45c-.11-.08-.28-.21-.46-.4-.24-.25-.46-.48-.52-.82-.05-.26-.03-.67.16-.75.19-.08.48.19.62.39.19.28.2.6.22,1.02,0,.23,0,.43-.02.55Z" fill="#278796" stroke="#278796" stroke-miterlimit="10" stroke-width="9"/>
    <path d="M78.96,28.31c.12-.05.29-.12.49-.24.27-.17.51-.31.65-.59.11-.22.19-.58.04-.7-.15-.11-.46.05-.63.2-.24.2-.32.48-.43.84-.06.2-.1.38-.11.49Z" fill="#278796" stroke="#278796" stroke-miterlimit="10" stroke-width="9"/>
    <path d="M79.24,28.73c-.1-.08-.25-.19-.41-.36-.22-.23-.41-.44-.48-.74-.05-.24-.03-.61.14-.68.17-.07.43.17.56.36.18.26.19.54.2.93,0,.21,0,.39-.01.5Z" fill="#278796" stroke="#278796" stroke-miterlimit="10" stroke-width="9"/>
    <path d="M89.42,21.66c-.04.28-.08.54-.15.78,0,.01,0,.02-.01.04-.02.07-.05.15-.08.22h0c-.07.17-.16.34-.27.5-.36.51-.87.85-.95.79,0-.02,0-.04,0-.07h0c.04-.1.15-.3.31-.68,0-.01.15-.33.26-.68,0-.01,0-.02.01-.03.01-.03.01-.06.02-.09.07-.25.13-.5.21-.88.1-.48.17-.83.27-1.42.09-.53.14-.8.2-1.14l.02-.14c.11-.66.1-.8.13-.81.02,0,.08.27.11.72.05.67.06,1.74-.09,2.88Z" fill="#278796" stroke="#278796" stroke-miterlimit="10" stroke-width="9"/>
    <path d="M90.86,19c-.02.06-.04.12-.05.17,0,0,0,.02-.02.05,0,0-.02.06-.05.12-.03.06-.34.81-.78,1.83-.12.03-.41.08-.75-.03-.28-.09-.46-.26-.54-.34,0-.08.01-.2.06-.34.17-.52.59-.61.67-1.01.01-.05-.01-.12-.13-.59-.13-.51-.3-.87-.41-1.09-.39-.74-1.06-1.6-1.36-1.98-.65-.82-1.26-1.45-1.7-1.88-.37.26-1.03.69-1.89,1.2-2.44,1.44-3.12,1.67-3.85,2.45-.04.04-.07.07-.1.12,0,0,0,0,0,0-.12.34-.25.43-.35.45-.1.02-.2-.03-.42,0-.08,0-.15.03-.19.04-.19-.22-.38-.44-.57-.66,0-.73.1-2.49,1.33-4.1.52-.67,1.49-1.95,3.15-2.11,1.42-.14,2.5.62,2.84.87.31-.09,1.87-.5,3.41.38.04.02.11.06.18.11,0,0,.99.63,1.58,1.85.78,1.6.24,3.63-.05,4.5Z" fill="#278796" stroke="#278796" stroke-miterlimit="10" stroke-width="9"/>
    <path d="M48.74,19.54c.03-.11.23-.92.69-1,.51-.09,1.11.76,1.2,1.52.06.51-.06,1.24-.59,1.61-.29.2-.59.21-1.2.22-.9.02-1.39.03-1.71-.31-.47-.5-.49-1.63.2-2.07.39-.25.94-.23,1.41.03Z" fill="#278796" stroke="#278796" stroke-linecap="round" stroke-linejoin="round" stroke-width="9"/>
    <path d="M38.58,21.66c-.07-.1-.54-.77-1-.69-.51.1-.76,1.11-.58,1.85.12.5.51,1.14,1.13,1.29.35.09.63-.02,1.2-.22.85-.31,1.3-.47,1.48-.91.26-.63-.13-1.7-.93-1.86-.46-.09-.96.12-1.31.53Z" fill="#278796" stroke="#278796" stroke-linecap="round" stroke-linejoin="round" stroke-width="9"/>
    <path id="Neck-3" data-name="Neck" d="M42.86,25.83c.23,1.22.44,1.54-.55,2.18.2.13,1.97,1.92,2.71,1.87,1.19-.08,2.4-2.76,2.47-2.87-1.15-.27-1-.66-1.22-1.84-1.14.22-2.28.44-3.41.66Z" fill="#278796" stroke="#278796" stroke-linecap="round" stroke-linejoin="round" stroke-width="9"/>
    <path id="Face-3" data-name="Face" d="M39.14,15.63c-.6.48-.91,1.23-.91,2,.01,1.5.18,2.74.36,3.64.27,1.4.44,2.21,1.07,3.1.29.41,1.2,1.65,2.9,2.08,2.05.52,3.69-.52,4.03-.75.22-.15,1.47-1.01,2.02-2.65.16-.47.33-1.2.02-3.54-.11-.86-.3-1.99-.62-3.3-.24-.98-1-1.76-1.98-2.01-1.21-.31-2.48-.13-3.58.08s-2.4.64-3.31,1.37Z" fill="#278796" stroke="#278796" stroke-linecap="round" stroke-linejoin="round" stroke-width="9"/>
    <path d="M42.67,23.93c.19.1.84.39,1.66.22.77-.16,1.23-.63,1.38-.79" fill="#278796" stroke="#278796" stroke-linecap="round" stroke-linejoin="round" stroke-width="9"/>
    <path d="M39.87,32.34c-.08.21-.05.41-.03.5.19,1.11.22,2.43.27,5.05,0,.43,0,1.1-.07,1.94,0,0,.31.93,1.16,1.34.11.05.31.14.5.07.14-.05.21-.16.23-.2.1-.17.07-.34.05-.43-.04-.19-.13-.3-.19-.4-.31-.46-.3-.94-.3-.94,0,0,.01.64.37.81.04.02.2.09.37.03.12-.05.19-.15.22-.19.09-.14.11-.31.1-.46-.02-.33-.2-1.12-.51-2.14.26-1.06,1.17-5.08-.05-5.7-.57-.29-1.85.05-2.12.73Z" fill="#278796" stroke="#278796" stroke-linecap="round" stroke-linejoin="round" stroke-width="9"/>
    <path d="M50.97,29.96c.37.13.6.38.7.5.57,1.64,1.17,3.3,1.81,4.98.23.61.47,1.21.7,1.81,0,0,.02.98-.66,1.64-.09.08-.24.23-.46.23-.15,0-.25-.09-.29-.11-.15-.12-.18-.3-.19-.39-.03-.19.02-.33.05-.44.14-.54-.03-.99-.02-.99,0,0,.2.61-.09.88-.03.03-.16.15-.35.15-.13,0-.23-.08-.27-.11-.13-.1-.2-.25-.24-.4-.09-.32-.17-1.12-.21-2.19-.95-1.2-1.59-2.34-1.9-3.28-.21-.65-.43-1.66.09-2.12.32-.28.89-.31,1.31-.16Z" fill="#278796" stroke="#278796" stroke-linecap="round" stroke-linejoin="round" stroke-width="9"/>
    <g>
      <path d="M39.65,19.99c.06-.11.35-.58.95-.77.57-.18,1.05.01,1.17.06" fill="#278796" stroke="#278796" stroke-linecap="round" stroke-linejoin="round" stroke-width="9"/>
      <path d="M44.77,18.7c.09-.08.5-.45,1.14-.45.6,0,1,.32,1.1.4" fill="#278796" stroke="#278796" stroke-linecap="round" stroke-linejoin="round" stroke-width="9"/>
      <path d="M48.7,20.34c.06,0,.11-.24.1-1.22.02,0,.41-.17.48-.56.06-.33-.14-.67-.48-.82.32.02.6-.16.69-.42.11-.33-.11-.74-.52-.85.5.08.9-.31.89-.68,0-.33-.34-.66-.78-.65.39-.14.6-.53.53-.86-.09-.39-.59-.68-1.07-.49.17-.36.06-.79-.26-1.01-.29-.2-.69-.17-.97.07.12-.41-.14-.82-.49-.89-.3-.06-.63.13-.75.47.03-.49-.36-.86-.74-.84-.3.02-.58.27-.65.63.01-.56-.47-.97-.93-.92-.41.05-.76.45-.73.94-.06-.49-.52-.79-.93-.7-.35.08-.62.46-.56.87-.44-.52-1.12-.55-1.43-.24-.31.3-.17.84-.17.87-.41-.46-1.05-.49-1.38-.18-.23.22-.3.59-.19.94-.42-.16-.84,0-.96.29-.11.26.05.53.07.57-.32.01-.61.22-.7.53-.1.32.03.66.3.85-.37.04-.63.36-.6.69.03.28.27.51.57.55-.29.15-.41.49-.3.75.08.2.3.33.54.34-.32.26-.39.65-.24.88.13.19.39.21.44.21-.02.02-.27.31-.17.65.09.31.45.53.85.46.3,1.2.43,1.48.49,1.47.16-.03-.39-1.97.48-3.83.18-.38.36-.77.77-1.13.69-.6,1.24-.43,3.02-.75,1.92-.34,2.52-.76,3.35-.33.33.17.51.38.78.69,1.4,1.61,1.45,3.68,1.63,3.66Z" fill="#278796" stroke="#278796" stroke-linecap="round" stroke-linejoin="round" stroke-width="9"/>
    </g>
    <path id="Shirt-3" data-name="Shirt" d="M41.81,31c.3,2.13.61,4.26.91,6.39,1,.12,2.43.19,4.1-.1,1.77-.3,3.15-.88,4.07-1.36-.48-2.11-.96-4.23-1.45-6.34.14.61.28,1.22.42,1.83.87-.16,1.74-.32,2.61-.47-.61-1.47-1.15-2.57-1.47-3.12-.1-.17-.27-.43-.58-.62-.29-.18-.58-.21-.74-.23-.64-.06-1.54-.15-2.63-.24-.18.98-.95,1.74-1.93,1.92-.97.18-1.95-.26-2.47-1.1-.98.52-1.72.93-2.14,1.15-.15.08-.46.24-.74.57-.06.07-.12.15-.18.24-.23.36-.25.68-.33,1.94-.05.69-.08,1.23-.1,1.51.94-.02,1.89-.05,2.83-.07" fill="#278796" stroke="#278796" stroke-linecap="round" stroke-linejoin="round" stroke-width="9"/>
    <path id="Shirt-4" data-name="Shirt" d="M41.81,31c.3,2.13.61,4.26.91,6.39,1,.12,2.43.19,4.1-.1,1.77-.3,3.15-.88,4.07-1.36-.48-2.11-.96-4.23-1.45-6.34.14.61.28,1.22.42,1.83.87-.16,1.74-.32,2.61-.47-.61-1.47-1.15-2.57-1.47-3.12-.1-.17-.27-.43-.58-.62-.29-.18-.58-.21-.74-.23-.64-.06-1.54-.15-2.63-.24-.18.98-.95,1.74-1.93,1.92-.97.18-1.95-.26-2.47-1.1-.98.52-1.72.93-2.14,1.15-.15.08-.46.24-.74.57-.06.07-.12.15-.18.24-.23.36-.25.68-.33,1.94-.05.69-.08,1.23-.1,1.51.94-.02,1.89-.05,2.83-.07" fill="#278796" stroke="#278796" stroke-linecap="round" stroke-linejoin="round" stroke-width="9"/>
  </g>
  <g>
    <g>
      <path d="M69.37,15.49c.05-.11.39-.86.86-.86.52,0,.95.95.91,1.71-.03.52-.29,1.21-.88,1.48-.32.15-.62.1-1.22,0-.89-.15-1.37-.22-1.62-.62-.37-.57-.18-1.69.57-2,.43-.18.96-.06,1.38.29Z" fill="#e4b58c" stroke="#c19778" stroke-linecap="round" stroke-linejoin="round" stroke-width=".25"/>
      <path d="M58.99,15.71c-.05-.11-.39-.86-.86-.86-.52,0-.95.95-.91,1.71.03.52.29,1.21.88,1.48.32.15.62.1,1.22,0,.89-.15,1.37-.22,1.62-.62.37-.57.18-1.69-.57-2-.43-.18-.96-.06-1.38.29Z" fill="#e4b58c" stroke="#c19778" stroke-linecap="round" stroke-linejoin="round" stroke-width=".25"/>
      <path id="Neck-4" data-name="Neck" d="M62.44,20.6c0,1.24.15,1.6-.94,2.04.17.16,1.59,2.25,2.32,2.34,1.19.14,2.86-2.27,2.95-2.37-1.08-.48-.86-.84-.86-2.03-1.16,0-2.32.01-3.48.02Z" fill="#e4b58c" stroke="#c19778" stroke-linecap="round" stroke-linejoin="round" stroke-width=".25"/>
      <path id="Face-4" data-name="Face" d="M60.65,9.89c-.68.36-1.12,1.05-1.26,1.8-.27,1.48-.32,2.73-.31,3.64.01,1.43.03,2.25.48,3.24.21.45.87,1.84,2.47,2.57,1.92.88,3.72.16,4.1,0,.25-.11,1.63-.72,2.48-2.24.24-.43.54-1.12.67-3.48.05-.87.07-2.01,0-3.36-.05-1.01-.66-1.92-1.58-2.34-1.13-.52-2.42-.58-3.54-.58s-2.47.19-3.5.74Z" fill="#e4b58c" stroke="#c19778" stroke-linecap="round" stroke-linejoin="round" stroke-width=".25"/>
      <path d="M62.6,18.7c.17.13.75.54,1.59.52.79-.01,1.33-.39,1.5-.52" fill="none" stroke="#ab7a55" stroke-linecap="round" stroke-linejoin="round" stroke-width=".25"/>
      <path d="M58.3,26.45c-.12.19-.12.39-.13.48-.02,1.13-.23,2.42-.66,5.01-.07.42-.2,1.09-.43,1.89,0,0,.13.97.89,1.53.1.07.28.2.48.16.14-.03.24-.12.27-.15.13-.14.13-.32.13-.41,0-.19-.07-.32-.11-.43-.22-.51-.12-.98-.12-.98,0,0-.11.63.21.86.04.03.18.13.36.1.13-.02.21-.11.25-.15.12-.12.16-.28.18-.43.04-.33,0-1.13-.11-2.19.45-1,2.08-4.78,1-5.61-.51-.39-1.83-.29-2.22.33Z" fill="#e4b58c" stroke="#c19778" stroke-linecap="round" stroke-linejoin="round" stroke-width=".25"/>
      <path d="M69.65,26.15c.34.2.52.48.59.62.26,1.71.55,3.46.87,5.23.12.64.24,1.28.36,1.91,0,0-.16.97-.95,1.5-.1.07-.28.19-.49.14-.14-.03-.23-.13-.26-.16-.12-.15-.12-.33-.12-.42,0-.19.08-.32.13-.42.23-.5.15-.97.16-.97,0,0,.08.64-.25.85-.04.02-.19.12-.37.08-.13-.03-.21-.12-.24-.16-.11-.13-.15-.29-.16-.44-.03-.33.04-1.13.19-2.19-.71-1.36-1.14-2.59-1.27-3.58-.09-.68-.12-1.71.48-2.07.37-.22.93-.14,1.32.09Z" fill="#e4b58c" stroke="#c19778" stroke-linecap="round" stroke-linejoin="round" stroke-width=".25"/>
      <path d="M64.53,17.78c-.06.03-.19.1-.38.1-.19,0-.33-.07-.39-.1" fill="#e4b58c" stroke="#c19778" stroke-linecap="round" stroke-linejoin="round" stroke-width=".25"/>
      <g>
        <path d="M65.61,14.27c.1-.08.54-.4,1.18-.34.6.05.97.41,1.06.51" fill="none" stroke="#3b2d1b" stroke-linecap="round" stroke-linejoin="round" stroke-width=".25"/>
        <path d="M62.48,14.27c-.1-.08-.54-.4-1.18-.34-.6.05-.97.41-1.06.51" fill="none" stroke="#3b2d1b" stroke-linecap="round" stroke-linejoin="round" stroke-width=".25"/>
        <path d="M64.62,10.76c-.05.24-.12.57-.22.95-.06-.67-.24-1.16-.42-1.51-.05-.09-.1-.18-.15-.26.09.02.17.05.25.07.31.11.54.27.58.49.01.06,0,.11-.03.26Z" fill="#3936a8"/>
        <path d="M63.74,8.25c-.01.12-.04.22-.12.42-.02.05-.04.1-.05.14-.07.19-.16.34-.23.47-.08-.12-.16-.27-.23-.44-.17.02-.34.04-.52.07-.25.04-.5.09-.74.16-.09-.14-.17-.3-.23-.51-.02-.07-.06-.23-.07-.42-.01-.45.19-.76.4-1.16.14-.28.32-.69.49-1.21.11.22.22.42.33.59.11.19.22.36.31.5.04.07.09.13.12.19.31.44.57.75.54,1.18Z" fill="#4f42d3" stroke="#3936a8" stroke-linecap="round" stroke-linejoin="round" stroke-width=".25"/>
        <path d="M65.03,7.96c-.01.15-.06.27-.15.53-.04.11-.08.22-.12.31-.17.41-.37.7-.52.94-.05.08-.11.17-.16.28-.03.06-.06.12-.1.18-.05-.09-.1-.18-.15-.26-.03-.04-.06-.09-.09-.12-.11-.14-.25-.31-.39-.54-.08-.12-.16-.27-.23-.44-.17.02-.34.04-.52.07-.09-.16-.17-.34-.24-.55-.02-.1-.07-.29-.09-.53-.02-.57.24-.95.5-1.46.18-.35.41-.86.62-1.52.12.24.25.46.36.66.23.39.44.7.6.95.38.55.71.94.67,1.49Z" fill="#4f42d3" stroke="#3936a8" stroke-linecap="round" stroke-linejoin="round" stroke-width=".25"/>
        <path d="M66.24,8c-.01.18-.07.34-.17.64-.03.09-.06.17-.09.24-.24.58-.5.97-.69,1.3-.24.39-.55.97-.86,1.75,0-.07-.01-.14-.02-.21-.06-.67-.24-1.16-.42-1.51-.05-.09-.1-.18-.15-.26-.03-.04-.06-.09-.09-.12-.11-.14-.25-.31-.39-.54-.08-.12-.16-.27-.23-.44-.05-.11-.09-.22-.12-.35-.04-.12-.1-.36-.11-.65-.01-.37.07-.67.2-.97.11-.26.26-.52.41-.81.08-.16.17-.34.26-.55.16-.36.33-.8.49-1.31.45.87.87,1.52,1.18,1.96.46.67.87,1.15.82,1.82Z" fill="#4f42d3" stroke="#3936a8" stroke-linecap="round" stroke-linejoin="round" stroke-width=".25"/>
      </g>
      <path d="M60.27,14.52c.08-.09.45-.5,1.08-.58.6-.07,1.03.2,1.14.28" fill="none" stroke="#3b2d1b" stroke-linecap="round" stroke-linejoin="round" stroke-width=".25"/>
      <path d="M65.54,14.19c.1-.07.58-.35,1.2-.24.59.11.93.5,1.01.6" fill="none" stroke="#3b2d1b" stroke-linecap="round" stroke-linejoin="round" stroke-width=".25"/>
      <g>
        <path d="M62.66,16.34c0,.73-.44,1.32-.99,1.32s-.99-.59-.99-1.32.44-1.32.99-1.32c.4,0,.69.38.74.45.27.36.25.76.25.88Z" fill="#fff3e3"/>
        <path d="M62.66,16.21c0,.65-.32,1.18-.72,1.18s-.72-.53-.72-1.18.32-1.18.72-1.18c.29,0,.5.34.54.4.2.32.18.67.18.78Z" fill="#c18e68"/>
        <path d="M60.82,15.55c.17-.31.5-.51.86-.52.6,0,.93.55.91.56-.02.02-.37-.42-.89-.44-.37,0-.69.21-.89.39Z" fill="none" stroke="#452a06" stroke-linecap="square" stroke-linejoin="round" stroke-width=".25"/>
        <path d="M67.55,16.34c0,.73-.44,1.32-.99,1.32s-.99-.59-.99-1.32.44-1.32.99-1.32c.4,0,.69.38.74.45.27.36.25.76.25.88Z" fill="#fff3e3"/>
        <path d="M67.08,16.21c0,.65-.34,1.18-.76,1.18s-.76-.53-.76-1.18.34-1.18.76-1.18c.3,0,.53.34.57.4.21.32.19.67.19.78Z" fill="#c18e68"/>
        <path d="M65.71,15.55c.17-.31.5-.51.86-.52.6,0,.93.55.91.56-.02.02-.37-.42-.89-.44-.37,0-.69.21-.89.39Z" fill="none" stroke="#452a06" stroke-linecap="square" stroke-linejoin="round" stroke-width=".25"/>
        <ellipse cx="62.05" cy="15.88" rx=".2" ry=".29" fill="#eac7b0"/>
        <ellipse cx="66.25" cy="15.88" rx=".2" ry=".29" fill="#eac7b0"/>
      </g>
      <rect x="57.48" y="27.93" width="2.81" height="1.41" transform="translate(5.43 -9.18) rotate(9.34)" fill="#f8faff" stroke="#aab7ce" stroke-linecap="round" stroke-linejoin="round" stroke-width=".25"/>
      <rect x="68.34" y="28.03" width="2.81" height="1.41" transform="translate(143.23 45.77) rotate(170.66)" fill="#f8faff" stroke="#aab7ce" stroke-linecap="round" stroke-linejoin="round" stroke-width=".25"/>
      <path id="Shirt-5" data-name="Shirt" d="M60.52,25.63s-.06,2.15-.27,6.44c.96.3,2.35.63,4.05.66,1.79.03,3.26-.29,4.25-.59-.2-4.33-.29-6.5-.26-6.5.02,0,.08.89.2,2.68.81-.15,1.62-.29,2.44-.44-.26-1.76-.56-3.09-.78-3.69-.08-.23-.21-.49-.46-.71-.26-.23-.53-.31-.68-.36-.62-.18-1.48-.43-2.54-.71-.08.2-.26.58-.63.91-.45.41-.94.53-1.16.57l-.41,1.45c-.15-.48-.31-.96-.46-1.44-.22-.04-.57-.13-.92-.38-.56-.38-.8-.9-.89-1.12-1.06.33-1.86.6-2.32.74-.16.05-.49.15-.84.42-.08.06-.15.13-.22.21-.48.53-.65,1.62-.68,1.85-.1.68-.18,1.43-.23,2.26.87.15,1.75.3,2.62.45.12-1.81.19-2.72.2-2.71Z" fill="#f8faff" stroke="#aab7ce" stroke-linecap="round" stroke-linejoin="round" stroke-width=".25"/>
      <line x1="57.8" y1="27.9" x2="60.15" y2="28.31" fill="none" stroke="#aab7ce" stroke-linecap="round" stroke-linejoin="round" stroke-width=".25"/>
      <line x1="70.83" y1="27.91" x2="68.49" y2="28.33" fill="none" stroke="#aab7ce" stroke-linecap="round" stroke-linejoin="round" stroke-width=".25"/>
      <path d="M57.79,28.37s1.21.27,1.23.32c0,.04-1.25-.09-1.27-.08-.18-.01-.13-.29.04-.25h0Z" fill="#aab7ce"/>
      <path d="M70.99,28.56l-1.25.09s-.03-.03,0-.04c0,0,1.22-.3,1.22-.3.17-.04.22.23.04.25h0Z" fill="#aab7ce"/>
      <path d="M60.14,29.15s-1.09-.15-.93-.2c0,0,.94-.05.94-.05.18,0,.16.28-.02.25h0Z" fill="#aab7ce"/>
      <path d="M68.58,28.84s1.1.01.95.09c0,0-.93.16-.93.16-.18.03-.2-.26-.02-.25h0Z" fill="#aab7ce"/>
    </g>
    <g>
      <path d="M89.62,18.96c.06-.1.5-.8.96-.74.52.07.82,1.06.68,1.82-.1.51-.45,1.16-1.06,1.35-.34.1-.63.02-1.21-.16-.86-.26-1.33-.4-1.53-.82-.29-.62.04-1.7.83-1.91.45-.12.96.07,1.33.46Z" fill="#f9d7b5" stroke="#dbb99a" stroke-linecap="round" stroke-linejoin="round" stroke-width=".25"/>
      <path d="M79.31,17.84c-.03-.11-.28-.9-.74-.96-.52-.07-1.06.82-1.12,1.58-.04.52.13,1.24.68,1.58.3.19.6.18,1.21.16.9-.03,1.38-.05,1.69-.4.44-.52.4-1.65-.31-2.06-.4-.23-.95-.18-1.41.1Z" fill="#f9d7b5" stroke="#dbb99a" stroke-linecap="round" stroke-linejoin="round" stroke-width=".25"/>
      <path id="Neck-5" data-name="Neck" d="M82.09,23.13c-.16,1.23-.06,1.6-1.19,1.9.15.18,1.28,2.44,2,2.62,1.16.29,3.13-1.88,3.23-1.97-1.01-.61-.74-.94-.59-2.13-1.15-.14-2.3-.29-3.45-.43Z" fill="#f9d7b5" stroke="#dbb99a" stroke-linecap="round" stroke-linejoin="round" stroke-width=".25"/>
      <path id="Face-5" data-name="Face" d="M81.7,12.28c-.72.27-1.25.89-1.48,1.62-.46,1.43-.67,2.66-.78,3.57-.17,1.42-.27,2.24.06,3.27.15.48.63,1.93,2.12,2.87,1.79,1.12,3.67.64,4.06.53.26-.07,1.71-.51,2.75-1.9.3-.4.68-1.04,1.11-3.36.16-.86.33-1.98.43-3.33.08-1.01-.41-1.99-1.27-2.53-1.05-.66-2.32-.89-3.43-1.03s-2.48-.13-3.57.28Z" fill="#f9d7b5" stroke="#dbb99a" stroke-linecap="round" stroke-linejoin="round" stroke-width=".25"/>
      <path d="M82.5,21.26c.15.15.67.63,1.51.73.78.09,1.37-.21,1.56-.33" fill="none" stroke="#bf9464" stroke-linecap="round" stroke-linejoin="round" stroke-width=".25"/>
      <path d="M77.23,28.39c-.15.18-.17.37-.19.46-.16,1.12-.54,2.37-1.3,4.88-.12.41-.34,1.05-.67,1.82,0,0,0,.98.69,1.63.09.08.25.23.46.22.15,0,.25-.09.28-.12.15-.13.17-.3.18-.39.02-.19-.03-.33-.06-.44-.15-.54,0-.99,0-.99,0,0-.19.61.1.88.03.03.17.15.35.14.13,0,.23-.08.27-.12.13-.11.2-.26.23-.41.08-.32.15-1.12.17-2.19.57-.93,2.68-4.47,1.72-5.43-.45-.45-1.77-.52-2.24.04Z" fill="#f9d7b5" stroke="#dbb99a" stroke-linecap="round" stroke-linejoin="round" stroke-width=".25"/>
      <path d="M88.53,29.56c.31.24.45.54.51.69.03,1.73.1,3.5.19,5.3.03.65.07,1.3.11,1.94,0,0-.29.94-1.13,1.36-.11.05-.3.15-.5.08-.14-.05-.21-.16-.24-.2-.1-.16-.08-.34-.06-.43.03-.19.12-.31.18-.4.3-.47.28-.95.29-.94,0,0,0,.64-.35.81-.04.02-.2.1-.37.03-.13-.05-.19-.14-.22-.19-.09-.14-.11-.3-.1-.46.02-.33.18-1.12.48-2.14-.53-1.44-.79-2.72-.79-3.71,0-.69.11-1.71.74-1.99.39-.17.94-.02,1.3.26Z" fill="#f9d7b5" stroke="#dbb99a" stroke-linecap="round" stroke-linejoin="round" stroke-width=".25"/>
      <path d="M84.53,20.6c-.06.03-.21.08-.39.05-.19-.02-.32-.11-.37-.15" fill="#f9d7b5" stroke="#dbb99a" stroke-linecap="round" stroke-linejoin="round" stroke-width=".25"/>
      <path id="Shirt-6" data-name="Shirt" d="M79.55,27.79c-.37,2.12-.74,4.24-1.11,6.36.91.43,2.25.93,3.93,1.18,1.77.26,3.27.13,4.29-.03.19-2.16.39-4.32.58-6.48-.06.62-.11,1.25-.17,1.87.88.12,1.75.24,2.63.36-.12-1.58-.29-2.8-.44-3.42-.05-.19-.13-.49-.36-.77-.23-.26-.49-.38-.63-.44-.59-.26-1.42-.62-2.43-1.04-.48.87-1.44,1.36-2.43,1.23-.98-.13-1.78-.85-2.01-1.81-1.09.19-1.92.35-2.39.43-.17.03-.51.09-.88.31-.08.05-.16.11-.24.18-.33.28-.45.57-.92,1.74-.26.64-.46,1.15-.56,1.41.91.27,1.81.54,2.72.8" fill="#f2ebad" stroke="#e0d477" stroke-linecap="round" stroke-linejoin="round" stroke-width=".25"/>
      <path d="M86.18,30.21l-1,.44-.98-.7.2-1.52,1.98.26-.2,1.52Z" fill="#f2ebad" stroke="#e0d477" stroke-linecap="round" stroke-linejoin="round" stroke-width=".25"/>
      <line x1="84.35" y1="28.98" x2="86.22" y2="29.22" fill="none" stroke="#e0d477" stroke-linecap="round" stroke-linejoin="round" stroke-width=".25"/>
      <g>
        <path d="M86.22,17.16c.11-.06.59-.33,1.21-.19.59.13.9.54.98.64" fill="none" stroke="#b37c51" stroke-linecap="round" stroke-linejoin="round" stroke-width=".25"/>
        <path d="M83.12,16.76c-.09-.09-.49-.47-1.12-.49-.6-.02-1.01.29-1.11.37" fill="none" stroke="#b37c51" stroke-linecap="round" stroke-linejoin="round" stroke-width=".25"/>
        <g>
          <path d="M79.73,22.76c-.12.04-.42-.46-.57-.75-.1-.21-.2-.42-.27-.73-.05-.2-.09-.43-.14-.73-.03-.19-.06-.42-.08-.67-.09-.92-.14-1.38-.08-1.62.15-.59.57-1.06.96-1.36.35-.27.68-.38.77-.31.08.07-.04.25-.24.8,0,0,0,0,0,0-.07.19-.15.41-.23.69-.17.56-.29,1.08-.35,1.37-.09.5-.09.99-.05,1.41.01.15.03.29.05.43h0c.09.63.25,1.1.28,1.32,0,.08,0,.13-.03.14Z" fill="#dbaf7f" stroke="#b37c51" stroke-miterlimit="10" stroke-width=".25"/>
          <g>
            <g>
              <path d="M88.09,23.7c-.08-.06-.18-.14-.3-.24-.02-.01-.03-.03-.05-.05.03-.03.06-.05.09-.09.09-.09.18-.18.27-.28,0,.23,0,.43-.01.58h0s-.01.06,0,.07Z" fill="#dbaf7f" stroke="#b37c51" stroke-miterlimit="10" stroke-width=".25"/>
              <path d="M89.31,22.41h0c0,.21-.08.45-.16.62-.16.31-.4.49-.69.68,0,0,0,0,0,0-.05.03-.11.07-.16.1-.04.03-.08.05-.12.07,0,.01-.02.02-.03.03-.09.05-.18.09-.25.12-.09.05-.17.08-.24.11.02-.13.06-.33.13-.55,0-.03.01-.06.02-.09,0-.01,0-.02.01-.04.01-.05.03-.1.04-.14.09-.09.18-.18.27-.28h0c.09-.11.18-.21.28-.33.09-.12.19-.26.29-.47.01-.03.01-.06.02-.09.01,0,.02,0,.03,0,.18-.08.35-.11.46-.03.08.06.12.17.12.3Z" fill="#dbaf7f" stroke="#b37c51" stroke-miterlimit="10" stroke-width=".25"/>
              <path d="M87.88,25.18c-.08-.06-.19-.14-.31-.25-.03-.03-.06-.06-.1-.09,0,0,0,0-.01-.01-.03-.03-.06-.06-.09-.09-.02-.02-.04-.05-.07-.07,0,0-.01-.01-.02-.01-.17-.19-.32-.36-.43-.58.27-.15.55-.36.83-.61.03.04.05.08.07.13.06.14.1.28.11.44,0,.04.01.1.01.15h0c0,.13.02.25.02.39.01.26,0,.48-.02.62Z" fill="#dbaf7f" stroke="#b37c51" stroke-miterlimit="10" stroke-width=".25"/>
              <path d="M87.41,25.59c.15-.06.37-.15.61-.3.34-.21.64-.39.81-.74.13-.27.23-.72.04-.87-.18-.14-.57.07-.79.25-.29.25-.4.59-.54,1.05-.08.25-.12.47-.14.61Z" fill="#dbaf7f" stroke="#b37c51" stroke-miterlimit="10" stroke-width=".25"/>
              <path d="M87.73,26.5c-.12-.08-.28-.22-.46-.41-.24-.26-.46-.49-.53-.83-.05-.27-.03-.68.16-.76.19-.08.48.19.63.4.2.29.21.61.22,1.04,0,.24,0,.43-.02.56Z" fill="#dbaf7f" stroke="#b37c51" stroke-miterlimit="10" stroke-width=".25"/>
              <path d="M87.26,26.87c.13-.05.33-.14.55-.27.3-.19.57-.35.73-.66.12-.24.21-.65.04-.78-.16-.12-.52.06-.71.23-.26.23-.36.54-.48.94-.07.23-.11.42-.13.55Z" fill="#dbaf7f" stroke="#b37c51" stroke-miterlimit="10" stroke-width=".25"/>
              <path d="M87.52,27.78c-.11-.08-.28-.21-.46-.4-.24-.25-.46-.48-.52-.82-.05-.26-.03-.67.16-.75.19-.08.48.19.62.39.19.28.2.6.22,1.02,0,.23,0,.43-.02.55Z" fill="#dbaf7f" stroke="#b37c51" stroke-miterlimit="10" stroke-width=".25"/>
              <path d="M87.14,28.15c.13-.05.32-.14.54-.27.3-.18.56-.35.72-.65.12-.24.21-.64.04-.77-.16-.12-.51.06-.7.22-.26.22-.35.53-.47.93-.07.22-.11.41-.13.54Z" fill="#dbaf7f" stroke="#b37c51" stroke-miterlimit="10" stroke-width=".25"/>
              <path d="M87.35,29.09c-.1-.08-.25-.19-.41-.36-.22-.23-.41-.44-.48-.74-.05-.24-.03-.61.14-.68.17-.07.43.17.56.36.18.26.19.54.2.93,0,.21,0,.39-.01.5Z" fill="#dbaf7f" stroke="#b37c51" stroke-miterlimit="10" stroke-width=".25"/>
              <path d="M86.97,29.42c.12-.05.29-.12.49-.24.27-.17.51-.31.65-.59.11-.22.19-.58.04-.7-.15-.11-.46.05-.63.2-.24.2-.32.48-.43.84-.06.2-.1.38-.11.49Z" fill="#dbaf7f" stroke="#b37c51" stroke-miterlimit="10" stroke-width=".25"/>
              <path d="M87.2,30.41c-.1-.08-.25-.19-.41-.36-.22-.23-.41-.44-.48-.74-.05-.24-.03-.61.14-.68.17-.07.43.17.56.36.18.26.19.54.2.93,0,.21,0,.39-.01.5Z" fill="#dbaf7f" stroke="#b37c51" stroke-miterlimit="10" stroke-width=".25"/>
              <path d="M86.78,30.73c.12-.05.29-.12.49-.24.27-.17.51-.31.65-.59.11-.22.19-.58.04-.7-.15-.11-.46.05-.63.2-.24.2-.32.48-.43.84-.06.2-.1.38-.11.49Z" fill="#dbaf7f" stroke="#b37c51" stroke-miterlimit="10" stroke-width=".25"/>
              <path d="M87.29,30.8c.21.31.25.57.25.73,0,.2-.04.38-.36,1.12-.13.3-.25.55-.33.73-.02-.14-.05-.34-.12-.57-.18-.61-.37-.69-.42-1.05-.09-.63.37-1.31.53-1.27.05.01.06.1.17.2.1.09.21.11.28.12Z" fill="#dbaf7f" stroke="#b37c51" stroke-miterlimit="10" stroke-width=".25"/>
              <path d="M87.61,30.32c-.27-.04-.48-.1-.63-.14-.33-.09-.51-.18-.61-.11-.05.04-.06.13-.02.18.05.06.15.04.33.06.11.01.23.04.46.1.24.06.31.1.45.09.08,0,.22-.03.22-.07,0-.05-.19-.11-.2-.11Z" fill="#fefff3" stroke="#bdc6c5" stroke-miterlimit="10" stroke-width=".25"/>
              <path d="M87.59,30.5c-.27-.04-.48-.1-.63-.14-.33-.09-.51-.18-.61-.11-.05.04-.06.13-.02.18.05.06.15.04.33.06.11.01.23.04.46.1.24.06.31.1.45.09.08,0,.22-.03.22-.07,0-.05-.19-.11-.2-.11Z" fill="#fefff3" stroke="#bdc6c5" stroke-miterlimit="10" stroke-width=".25"/>
              <path d="M86.5,30.52c.26.07.48.11.63.14.34.05.54.05.6.15.03.06,0,.15-.05.18-.07.03-.15-.03-.33-.09-.1-.04-.22-.06-.46-.1-.24-.04-.32-.04-.44-.11-.07-.04-.19-.12-.17-.16.02-.05.21-.02.23-.02Z" fill="#fefff3" stroke="#bdc6c5" stroke-miterlimit="10" stroke-width=".25"/>
            </g>
            <g>
              <path d="M80.04,22.5c-.11.06-.2.09-.27.12.02-.11.05-.26.1-.44.05.1.1.21.18.32Z" fill="#dbaf7f" stroke="#b37c51" stroke-miterlimit="10" stroke-width=".25"/>
              <path d="M80.04,22.5c-.07-.11-.13-.22-.18-.32-.19-.36-.3-.67-.37-.87h0c-.02-.14-.04-.29-.05-.43-.03-.02-.06-.04-.08-.05-.09-.04-.18-.06-.25-.03-.14.06-.2.26-.21.48-.01.15,0,.3.03.42.07.34.26.58.49.83t0,0s.09.09.13.14.09.09.13.13c.08.07.15.14.21.19.08.07.15.11.21.16.01-.13.03-.32.02-.54" fill="#dbaf7f" stroke="#b37c51" stroke-miterlimit="10" stroke-width=".25"/>
              <path d="M80.1,22.61c-.09.11-.16.24-.22.39-.02.04-.03.08-.04.13h0c-.05.12-.08.23-.12.37-.08.25-.12.46-.14.6.1-.04.23-.09.37-.17.03-.02.07-.04.11-.06.07-.05.15-.1.23-.14.16-.1.32-.21.45-.33-.26-.26-.47-.53-.63-.79" fill="#dbaf7f" stroke="#b37c51" stroke-miterlimit="10" stroke-width=".25"/>
              <path d="M79.93,24.62c-.13-.09-.32-.24-.51-.45-.27-.29-.51-.54-.59-.92-.06-.3-.04-.76.18-.85.21-.09.54.21.7.45.22.32.23.68.25,1.15,0,.26,0,.48-.02.62Z" fill="#dbaf7f" stroke="#b37c51" stroke-miterlimit="10" stroke-width=".25"/>
              <path d="M79.39,25.42c.13-.05.33-.14.55-.27.3-.19.57-.35.73-.66.12-.24.21-.65.04-.78-.16-.12-.52.06-.71.23-.26.23-.36.54-.48.94-.07.23-.11.42-.13.55Z" fill="#dbaf7f" stroke="#b37c51" stroke-miterlimit="10" stroke-width=".25"/>
              <path d="M79.74,25.9c-.12-.08-.28-.22-.46-.41-.24-.26-.46-.49-.53-.83-.05-.27-.03-.68.16-.76.19-.08.48.19.63.4.2.29.21.61.22,1.04,0,.24,0,.43-.02.56Z" fill="#dbaf7f" stroke="#b37c51" stroke-miterlimit="10" stroke-width=".25"/>
              <path d="M79.26,26.71c.13-.05.32-.14.54-.27.3-.18.56-.35.72-.65.12-.24.21-.64.04-.77-.16-.12-.51.06-.7.22-.26.22-.35.53-.47.93-.07.22-.11.41-.13.54Z" fill="#dbaf7f" stroke="#b37c51" stroke-miterlimit="10" stroke-width=".25"/>
              <path d="M79.53,27.16c-.11-.08-.28-.21-.46-.4-.24-.25-.46-.48-.52-.82-.05-.26-.03-.67.16-.75.19-.08.48.19.62.39.19.28.2.6.22,1.02,0,.23,0,.43-.02.55Z" fill="#dbaf7f" stroke="#b37c51" stroke-miterlimit="10" stroke-width=".25"/>
              <path d="M79.09,28.02c.12-.05.29-.12.49-.24.27-.17.51-.31.65-.59.11-.22.19-.58.04-.7-.15-.11-.46.05-.63.2-.24.2-.32.48-.43.84-.06.2-.1.38-.11.49Z" fill="#dbaf7f" stroke="#b37c51" stroke-miterlimit="10" stroke-width=".25"/>
              <path d="M79.37,28.44c-.1-.08-.25-.19-.41-.36-.22-.23-.41-.44-.48-.74-.05-.24-.03-.61.14-.68.17-.07.43.17.56.36.18.26.19.54.2.93,0,.21,0,.39-.01.5Z" fill="#dbaf7f" stroke="#b37c51" stroke-miterlimit="10" stroke-width=".25"/>
              <path d="M78.9,29.33c.12-.05.29-.12.49-.24.27-.17.51-.31.65-.59.11-.22.19-.58.04-.7-.15-.11-.46.05-.63.2-.24.2-.32.48-.43.84-.06.2-.1.38-.11.49Z" fill="#dbaf7f" stroke="#b37c51" stroke-miterlimit="10" stroke-width=".25"/>
              <path d="M79.22,29.75c-.1-.08-.25-.19-.41-.36-.22-.23-.41-.44-.48-.74-.05-.24-.03-.61.14-.68.17-.07.43.17.56.36.18.26.19.54.2.93,0,.21,0,.39-.01.5Z" fill="#dbaf7f" stroke="#b37c51" stroke-miterlimit="10" stroke-width=".25"/>
              <path d="M78.71,29.69c-.28.24-.38.49-.43.64-.06.19-.06.38.06,1.17.05.32.1.6.13.79.05-.13.14-.31.26-.52.33-.55.53-.57.68-.91.25-.59-.02-1.36-.18-1.37-.06,0-.08.08-.22.15-.12.06-.23.05-.3.04Z" fill="#dbaf7f" stroke="#b37c51" stroke-miterlimit="10" stroke-width=".25"/>
              <path d="M78.52,29.14c.27.03.49.03.65.03.34,0,.54-.04.61.05.04.06.03.14-.02.18-.06.05-.15,0-.34-.03-.11-.02-.23-.02-.47-.02-.24,0-.32.01-.45-.03-.08-.03-.2-.08-.2-.13,0-.05.21-.06.22-.06Z" fill="#fefff3" stroke="#bdc6c5" stroke-miterlimit="10" stroke-width=".25"/>
              <path d="M78.5,29.32c.27.03.49.03.65.03.34,0,.54-.04.61.05.04.06.03.14-.02.18-.06.05-.15,0-.34-.03-.11-.02-.23-.02-.47-.02-.24,0-.32.01-.45-.03-.08-.03-.2-.08-.2-.13,0-.05.21-.06.22-.06Z" fill="#fefff3" stroke="#bdc6c5" stroke-miterlimit="10" stroke-width=".25"/>
              <path d="M79.54,29.62c-.27,0-.49-.01-.65-.03-.34-.04-.54-.09-.61,0-.05.05-.04.14,0,.18.06.05.15.01.34,0,.11,0,.23,0,.47.02.24.02.32.04.45.01.08-.02.21-.06.21-.11,0-.05-.2-.08-.21-.08Z" fill="#fefff3" stroke="#bdc6c5" stroke-miterlimit="10" stroke-width=".25"/>
            </g>
            <path d="M89.55,21.37c-.04.28-.08.54-.15.78,0,.01,0,.02-.01.04-.02.07-.05.15-.08.22h0c-.07.17-.16.34-.27.5-.36.51-.87.85-.95.79,0-.02,0-.04,0-.07h0c.04-.1.15-.3.31-.68,0-.01.15-.33.26-.68,0-.01,0-.02.01-.03.01-.03.01-.06.02-.09.07-.25.13-.5.21-.88.1-.48.17-.83.27-1.42.09-.53.14-.8.2-1.14l.02-.14c.11-.66.1-.8.13-.81.02,0,.08.27.11.72.05.67.06,1.74-.09,2.88Z" fill="#dbaf7f" stroke="#b37c51" stroke-miterlimit="10" stroke-width=".25"/>
            <path d="M90.99,18.72c-.02.06-.04.12-.05.17,0,0-.03.08-.07.17-.04.13-.67,1.5-1.53,3.36.02-.08.04-.16.05-.23,0-.01,0-.02.01-.04.27-1.23.25-2.23.13-2.99-.04-.21-.08-.41-.13-.59-.13-.51-.3-.87-.41-1.09-.39-.74-1.06-1.6-1.36-1.98-.65-.82-1.26-1.45-1.7-1.88-.37.26-1.03.69-1.88,1.2-2.44,1.44-3.12,1.67-3.85,2.45-.04.04-.07.07-.1.12,0,0,0,0,0,0-.25.29-.52.66-.75,1.16-.25.52-.45,1.17-.58,2l-.04.31c-.21-.83-1.12-4.8,1.15-7.74.53-.69,1.51-1.95,3.15-2.11,1.42-.14,2.5.62,2.84.87.31-.09,1.87-.5,3.41.38.04.02.11.06.18.11,0,0,.99.63,1.58,1.85.78,1.6.24,3.63-.05,4.5Z" fill="#dbaf7f" stroke="#b37c51" stroke-miterlimit="10" stroke-width=".25"/>
          </g>
        </g>
      </g>
      <g>
        <path d="M82.9,18.82c-.09.73-.61,1.26-1.16,1.18s-.91-.72-.81-1.44.61-1.26,1.16-1.18c.39.05.64.46.68.54.23.39.15.78.13.9Z" fill="#fff3e3"/>
        <path d="M82.92,18.7c-.08.65-.47,1.13-.87,1.08s-.65-.62-.56-1.26.47-1.13.87-1.08c.29.04.45.4.48.46.16.34.09.69.08.8Z" fill="#7fa062"/>
        <path d="M81.18,17.8c.21-.29.57-.44.92-.4.59.07.85.66.83.68-.02.01-.31-.47-.82-.55-.37-.06-.71.12-.93.27Z" fill="none" stroke="#452a06" stroke-linecap="square" stroke-linejoin="round" stroke-width=".25"/>
        <path d="M87.74,19.46c-.09.73-.61,1.26-1.16,1.18s-.91-.72-.81-1.44.61-1.26,1.16-1.18c.39.05.64.46.68.54.23.39.15.78.13.9Z" fill="#fff3e3"/>
        <path d="M87.29,19.27c-.08.65-.49,1.13-.9,1.07s-.68-.62-.6-1.27.49-1.13.9-1.07c.3.04.48.4.51.47.17.34.1.69.09.8Z" fill="#7fa062"/>
        <path d="M86.02,18.44c.21-.29.57-.44.92-.4.59.07.85.66.83.68-.02.01-.31-.47-.82-.55-.37-.06-.71.12-.93.27Z" fill="none" stroke="#452a06" stroke-linecap="square" stroke-linejoin="round" stroke-width=".25"/>
        <ellipse cx="82.35" cy="18.29" rx=".29" ry=".2" transform="translate(53.55 97.58) rotate(-82.57)" fill="#c0dba5"/>
        <ellipse cx="86.52" cy="18.84" rx=".29" ry=".2" transform="translate(56.64 102.19) rotate(-82.57)" fill="#c0dba5"/>
      </g>
    </g>
    <g>
      <path d="M48.87,19.25c.03-.11.23-.92.69-1,.51-.09,1.11.76,1.2,1.52.06.51-.06,1.24-.59,1.61-.29.2-.59.21-1.2.22-.9.02-1.39.03-1.71-.31-.47-.5-.49-1.63.2-2.07.39-.25.94-.23,1.41.03Z" fill="#8d5524" stroke="#663b1b" stroke-linecap="round" stroke-linejoin="round" stroke-width=".25"/>
      <path d="M38.71,21.37c-.07-.1-.54-.77-1-.69-.51.1-.76,1.11-.58,1.85.12.5.51,1.14,1.13,1.29.35.09.63-.02,1.2-.22.85-.31,1.3-.47,1.48-.91.26-.63-.13-1.7-.93-1.86-.46-.09-.96.12-1.31.53Z" fill="#8d5524" stroke="#663b1b" stroke-linecap="round" stroke-linejoin="round" stroke-width=".25"/>
      <path id="Neck-6" data-name="Neck" d="M42.99,25.55c.23,1.22.44,1.54-.55,2.18.2.13,1.97,1.92,2.71,1.87,1.19-.08,2.4-2.76,2.47-2.87-1.15-.27-1-.66-1.22-1.84-1.14.22-2.28.44-3.41.66Z" fill="#8d5524" stroke="#663b1b" stroke-linecap="round" stroke-linejoin="round" stroke-width=".25"/>
      <path id="Face-6" data-name="Face" d="M39.27,15.35c-.6.48-.91,1.23-.91,2,.01,1.5.18,2.74.36,3.64.27,1.4.44,2.21,1.07,3.1.29.41,1.2,1.65,2.9,2.08,2.05.52,3.69-.52,4.03-.75.22-.15,1.47-1.01,2.02-2.65.16-.47.33-1.2.02-3.54-.11-.86-.3-1.99-.62-3.3-.24-.98-1-1.76-1.98-2.01-1.21-.31-2.48-.13-3.58.08s-2.4.64-3.31,1.37Z" fill="#8d5524" stroke="#663b1b" stroke-linecap="round" stroke-linejoin="round" stroke-width=".25"/>
      <path d="M42.8,23.64c.19.1.84.39,1.66.22.77-.16,1.23-.63,1.38-.79" fill="none" stroke="#5a2d1b" stroke-linecap="round" stroke-linejoin="round" stroke-width=".25"/>
      <path d="M40,32.05c-.08.21-.05.41-.03.5.19,1.11.22,2.43.27,5.05,0,.43,0,1.1-.07,1.94,0,0,.31.93,1.16,1.34.11.05.31.14.5.07.14-.05.21-.16.23-.2.1-.17.07-.34.05-.43-.04-.19-.13-.3-.19-.4-.31-.46-.3-.94-.3-.94,0,0,.01.64.37.81.04.02.2.09.37.03.12-.05.19-.15.22-.19.09-.14.11-.31.1-.46-.02-.33-.2-1.12-.51-2.14.26-1.06,1.17-5.08-.05-5.7-.57-.29-1.85.05-2.12.73Z" fill="#8d5524" stroke="#663b1b" stroke-linecap="round" stroke-linejoin="round" stroke-width=".25"/>
      <path d="M51.1,29.68c.37.13.6.38.7.5.57,1.64,1.17,3.3,1.81,4.98.23.61.47,1.21.7,1.81,0,0,.02.98-.66,1.64-.09.08-.24.23-.46.23-.15,0-.25-.09-.29-.11-.15-.12-.18-.3-.19-.39-.03-.19.02-.33.05-.44.14-.54-.03-.99-.02-.99,0,0,.2.61-.09.88-.03.03-.16.15-.35.15-.13,0-.23-.08-.27-.11-.13-.1-.2-.25-.24-.4-.09-.32-.17-1.12-.21-2.19-.95-1.2-1.59-2.34-1.9-3.28-.21-.65-.43-1.66.09-2.12.32-.28.89-.31,1.31-.16Z" fill="#8d5524" stroke="#663b1b" stroke-linecap="round" stroke-linejoin="round" stroke-width=".25"/>
      <path d="M44.53,22.39c-.05.04-.17.14-.35.17-.19.04-.34,0-.4-.03" fill="#8d5524" stroke="#663b1b" stroke-linecap="round" stroke-linejoin="round" stroke-width=".25"/>
      <g>
        <path d="M39.78,19.7c.06-.11.35-.58.95-.77.57-.18,1.05.01,1.17.06" fill="none" stroke="#3b2d1b" stroke-linecap="round" stroke-linejoin="round" stroke-width=".25"/>
        <path d="M44.9,18.41c.09-.08.5-.45,1.14-.45.6,0,1,.32,1.1.4" fill="none" stroke="#3b2d1b" stroke-linecap="round" stroke-linejoin="round" stroke-width=".25"/>
        <path d="M48.83,20.06c.06,0,.11-.24.1-1.22.02,0,.41-.17.48-.56.06-.33-.14-.67-.48-.82.32.02.6-.16.69-.42.11-.33-.11-.74-.52-.85.5.08.9-.31.89-.68,0-.33-.34-.66-.78-.65.39-.14.6-.53.53-.86-.09-.39-.59-.68-1.07-.49.17-.36.06-.79-.26-1.01-.29-.2-.69-.17-.97.07.12-.41-.14-.82-.49-.89-.3-.06-.63.13-.75.47.03-.49-.36-.86-.74-.84-.3.02-.58.27-.65.63.01-.56-.47-.97-.93-.92-.41.05-.76.45-.73.94-.06-.49-.52-.79-.93-.7-.35.08-.62.46-.56.87-.44-.52-1.12-.55-1.43-.24-.31.3-.17.84-.17.87-.41-.46-1.05-.49-1.38-.18-.23.22-.3.59-.19.94-.42-.16-.84,0-.96.29-.11.26.05.53.07.57-.32.01-.61.22-.7.53-.1.32.03.66.3.85-.37.04-.63.36-.6.69.03.28.27.51.57.55-.29.15-.41.49-.3.75.08.2.3.33.54.34-.32.26-.39.65-.24.88.13.19.39.21.44.21-.02.02-.27.31-.17.65.09.31.45.53.85.46.3,1.2.43,1.48.49,1.47.16-.03-.39-1.97.48-3.83.18-.38.36-.77.77-1.13.69-.6,1.24-.43,3.02-.75,1.92-.34,2.52-.76,3.35-.33.33.17.51.38.78.69,1.4,1.61,1.45,3.68,1.63,3.66Z" fill="#a41e1e" stroke="#7f1818" stroke-linecap="round" stroke-linejoin="round" stroke-width=".25"/>
      </g>
      <g id="Eyes">
        <path d="M42.34,21.01c.13.72-.19,1.38-.73,1.48s-1.09-.4-1.22-1.12.19-1.38.73-1.48c.39-.07.75.24.81.3.34.3.38.7.41.82Z" fill="#fff3e3"/>
        <path d="M42.32,20.88c.12.64-.1,1.22-.49,1.29s-.81-.39-.92-1.03.1-1.22.49-1.29c.28-.05.55.24.6.29.25.28.3.63.32.74Z" fill="#452a06"/>
        <path d="M40.39,20.57c.11-.34.4-.6.75-.67.58-.12,1.02.37,1,.39-.01.02-.44-.35-.95-.27-.37.06-.64.33-.8.55Z" fill="none" stroke="#452a06" stroke-linecap="square" stroke-linejoin="round" stroke-width=".25"/>
        <path d="M47.14,20.11c.13.72-.19,1.38-.73,1.48s-1.09-.4-1.22-1.12.19-1.38.73-1.48c.39-.07.75.24.81.3.34.3.38.7.41.82Z" fill="#fff3e3"/>
        <path d="M46.66,20.07c.12.64-.12,1.22-.53,1.3s-.84-.38-.96-1.02.12-1.22.53-1.3c.3-.06.58.23.63.29.26.27.31.63.33.73Z" fill="#452a06"/>
        <path d="M45.19,19.67c.11-.34.4-.6.75-.67.58-.12,1.02.37,1,.39-.01.02-.44-.35-.95-.27-.37.06-.64.33-.8.55Z" fill="none" stroke="#452a06" stroke-linecap="square" stroke-linejoin="round" stroke-width=".25"/>
        <ellipse cx="41.65" cy="20.68" rx=".2" ry=".29" transform="translate(-3.08 7.99) rotate(-10.57)" fill="#bcafa0"/>
        <ellipse cx="45.78" cy="19.9" rx=".2" ry=".29" transform="translate(-2.87 8.73) rotate(-10.57)" fill="#bcafa0"/>
      </g>
      <path id="Shirt-7" data-name="Shirt" d="M41.94,30.71c.3,2.13.61,4.26.91,6.39,1,.12,2.43.19,4.1-.1,1.77-.3,3.15-.88,4.07-1.36-.48-2.11-.96-4.23-1.45-6.34.14.61.28,1.22.42,1.83.87-.16,1.74-.32,2.61-.47-.61-1.47-1.15-2.57-1.47-3.12-.1-.17-.27-.43-.58-.62-.29-.18-.58-.21-.74-.23-.64-.06-1.54-.15-2.63-.24-.18.98-.95,1.74-1.93,1.92-.97.18-1.95-.26-2.47-1.1-.98.52-1.72.93-2.14,1.15-.15.08-.46.24-.74.57-.06.07-.12.15-.18.24-.23.36-.25.68-.33,1.94-.05.69-.08,1.23-.1,1.51.94-.02,1.89-.05,2.83-.07" fill="#f7f7f7" stroke="#ceced6" stroke-linecap="round" stroke-linejoin="round" stroke-width=".25"/>
      <line x1="42.24" y1="31.8" x2="49.78" y2="30.39" fill="none" stroke="#345eab" stroke-miterlimit="10" stroke-width=".25"/>
      <line x1="42.35" y1="32.36" x2="49.89" y2="30.96" fill="none" stroke="#b82025" stroke-miterlimit="10" stroke-width=".25"/>
      <path id="Shirt-8" data-name="Shirt" d="M41.94,30.71c.3,2.13.61,4.26.91,6.39,1,.12,2.43.19,4.1-.1,1.77-.3,3.15-.88,4.07-1.36-.48-2.11-.96-4.23-1.45-6.34.14.61.28,1.22.42,1.83.87-.16,1.74-.32,2.61-.47-.61-1.47-1.15-2.57-1.47-3.12-.1-.17-.27-.43-.58-.62-.29-.18-.58-.21-.74-.23-.64-.06-1.54-.15-2.63-.24-.18.98-.95,1.74-1.93,1.92-.97.18-1.95-.26-2.47-1.1-.98.52-1.72.93-2.14,1.15-.15.08-.46.24-.74.57-.06.07-.12.15-.18.24-.23.36-.25.68-.33,1.94-.05.69-.08,1.23-.1,1.51.94-.02,1.89-.05,2.83-.07" fill="none" stroke="#ceced6" stroke-linecap="round" stroke-linejoin="round" stroke-width=".25"/>
    </g>
  </g>
  <g>
    <path d="M10.6,62.27c5.97-4.52,25.44-18.08,53.81-18.04,28.05.04,47.33,13.35,53.35,17.89" fill="none"/>
    <path d="M15.43,58.8c-1.01.61-1.74.47-2.23-.35l-5.17-8.6c-.47-.78-.27-1.52.74-2.13l3-1.8c3.6-2.17,5.92.19,7.59,2.95,1.67,2.77,2.67,5.95-.92,8.12l-3,1.8ZM12.65,48.5l-.34.21c-.59.35-.71.47-.39,1.01l3.21,5.34c.32.54.5.5,1.08.15l.36-.22c1.32-.79,1.27-1.76-.29-4.35-1.52-2.52-2.3-2.94-3.64-2.14Z" stroke="#278796" stroke-miterlimit="10" stroke-width="8"/>
    <path d="M25.42,48.53c.61,1.37.97,1.58,1.89,1.18.8-.35.94-.5.73-.99l-2.66-5.99c-.23-.52.56-.99,1.27-1.31.69-.31,1.61-.59,1.84-.07l3.38,7.61c.32.71.19,1-.35,1.36-.84.58-2.25,1.35-3.08,1.72-3.11,1.38-4.66,1.17-5.66-1.09l-2.62-5.9c-.23-.52.52-.98,1.25-1.3.71-.32,1.63-.6,1.86-.08l2.16,4.86Z" stroke="#278796" stroke-miterlimit="10" stroke-width="8"/>
    <path d="M34.23,38.57c1.39-.45,2.25-.59,2.74-.49.52.11.71.45.87.96.23.72.15,1.19-.5,1.34-.61.14-1.23.28-1.63.41-.74.24-.97.45-.85.83.11.34.38.5,1.86.82,1.78.38,2.54.94,2.97,2.26.71,2.21-.57,3.38-2.84,4.11-1.28.42-2.14.59-2.7.49-.51-.09-.8-.42-.98-.98-.19-.6-.16-1.13.47-1.25.52-.11,1.17-.26,1.74-.44.71-.23,1.04-.44.87-.94-.13-.42-.45-.57-2.01-.97-1.73-.4-2.4-.92-2.77-2.08-.8-2.48.88-3.46,2.76-4.07Z" stroke="#278796" stroke-miterlimit="10" stroke-width="8"/>
    <path d="M45.01,42.48c.24,1.02.43,1.36,1.14,1.2l.19-.04c.37-.09.53.27.66.84.15.65.12,1.08-.05,1.28-.25.27-.69.47-1.52.67-1.8.42-2.97-.03-3.42-1.94l-1.03-4.44c-.09-.37-.15-.49-.6-.39l-.54.12c-.41.09-.63-.44-.8-1.16-.17-.74-.21-1.26.21-1.36l.52-.12c.46-.11.48-.21.39-.58l-.35-1.5c-.16-.69.65-.97,1.45-1.16.76-.18,1.69-.29,1.82.28l.37,1.61c.09.37.14.45.61.35l.7-.16c.41-.09.62.38.79,1.12.18.76.2,1.3-.2,1.39l-.7.16c-.39.09-.48.19-.39.6l.75,3.22Z" stroke="#278796" stroke-miterlimit="10" stroke-width="8"/>
    <path d="M54.06,44.77c-1.17.1-1.76-.35-1.84-1.29l-.84-10c-.08-.91.43-1.49,1.6-1.58l3.12-.26c2.39-.2,4.46.39,4.67,2.93.14,1.63-.53,2.35-1.12,2.73-.18.11-.21.17-.21.27,0,.08.07.11.18.16.71.3,1.76,1,1.92,2.87.22,2.65-1.79,3.72-3.89,3.89l-3.6.3ZM55.08,36.6c.04.44.14.54.52.51l.47-.04c.91-.08,1.4-.61,1.3-1.75-.08-.97-.57-1.34-1.57-1.26-.81.07-.92.12-.88.61l.16,1.93ZM55.5,41.64c.04.51.27.53.84.48,1.34-.11,1.73-.56,1.63-1.68-.09-1.04-.64-1.43-1.71-1.34l-.49.04c-.36.03-.47.13-.43.55l.16,1.95Z" stroke="#278796" stroke-miterlimit="10" stroke-width="8"/>
    <path d="M66.91,40.02c-.06,1.5.17,1.85,1.18,1.89.87.04,1.07-.03,1.09-.56l.27-6.55c.02-.57.94-.65,1.72-.61.76.03,1.7.18,1.68.75l-.34,8.31c-.03.78-.27.98-.92,1.06-1.01.15-2.61.22-3.53.18-3.4-.14-4.69-1.01-4.59-3.48l.26-6.45c.02-.57.9-.65,1.7-.61.78.03,1.72.18,1.7.75l-.22,5.31Z" stroke="#278796" stroke-miterlimit="10" stroke-width="8"/>
    <path d="M83.42,45.01c-.12.71-.44.93-1.14.93-.97.03-2.48-.14-3.44-.3-3.58-.6-4.7-2.09-4.06-5.94.59-3.56,1.89-5,5.9-4.33.67.11.93-.02,1.01-.54l.38-2.3c.1-.58,1.03-.52,1.78-.4.77.13,1.63.37,1.54.95l-1.99,11.94ZM81.02,38.93c.16-.94.04-1.15-.62-1.26-1.35-.23-1.78.3-2.17,2.59-.39,2.34-.05,2.86,1.07,3.05.84.14.98.03,1.12-.8l.6-3.58Z" stroke="#278796" stroke-miterlimit="10" stroke-width="8"/>
    <path d="M94.11,48.06c-.21.69-.55.87-1.24.78-.96-.09-2.44-.45-3.37-.73-3.48-1.03-4.4-2.66-3.29-6.39,1.03-3.46,2.5-4.73,6.39-3.57.66.19.92.1,1.07-.41l.67-2.24c.17-.56,1.09-.39,1.82-.17.75.22,1.57.57,1.41,1.13l-3.45,11.6ZM92.49,41.73c.27-.91.18-1.14-.46-1.33-1.31-.39-1.81.08-2.47,2.3-.68,2.28-.41,2.83.69,3.16.82.24.97.15,1.2-.65l1.04-3.48Z" stroke="#278796" stroke-miterlimit="10" stroke-width="8"/>
    <path d="M99.02,50.67c-.21.53-1.12.29-1.84,0-.71-.28-1.51-.73-1.3-1.26l3.32-8.31c.22-.55,1.1-.3,1.81-.01.72.29,1.55.72,1.33,1.27l-3.32,8.31ZM102.47,37.48c1.54.61,1.73.84,1.29,1.95-.47,1.18-.79,1.2-2.3.59-1.48-.59-1.75-.84-1.34-1.87.51-1.27.88-1.27,2.36-.67Z" stroke="#278796" stroke-miterlimit="10" stroke-width="8"/>
    <path d="M105.74,49.88c-.45-.21-.59-.17-.77.19-.4.8-.04,1.38,1.46,2.14.78.39,1.49.67,2.05.84.42.15.8.53.44,1.24-.29.58-.78.92-1.1.96-.54.02-1.62-.29-2.91-.93-3.33-1.67-3.96-3.59-2.45-6.59l.26-.53c1.88-3.73,4.04-3.75,6.67-2.43,2.61,1.32,3.06,3.01,1.88,5.35-.74,1.46-1.09,1.7-2.66,1.06l-2.86-1.29ZM106.17,47.5c-.19.37-.07.56.39.79l1.32.67c.51.26.68.21.93-.28.47-.93.43-1.49-.54-1.97-1.04-.52-1.62-.16-2.03.66l-.07.14Z" stroke="#278796" stroke-miterlimit="10" stroke-width="8"/>
    <path d="M118.2,49.81c1.23.79,1.88,1.36,2.12,1.8.24.47.1.83-.19,1.28-.41.64-.83.87-1.36.46-.5-.39-1-.77-1.35-1-.66-.42-.97-.46-1.18-.12-.19.3-.14.61.56,1.96.84,1.62.89,2.56.15,3.72-1.25,1.95-2.97,1.71-4.98.43-1.14-.73-1.82-1.28-2.1-1.77-.25-.45-.18-.88.14-1.38.34-.53.76-.84,1.27-.43.42.33.95.74,1.44,1.06.62.4,1,.52,1.28.07.24-.37.16-.71-.53-2.17-.79-1.59-.81-2.44-.16-3.46,1.4-2.19,3.23-1.52,4.89-.46Z" stroke="#278796" stroke-miterlimit="10" stroke-width="8"/>
  </g>
  <g>
    <path d="M10.6,62.5c5.97-4.52,25.44-18.08,53.81-18.04,28.05.04,47.33,13.35,53.35,17.89" fill="none"/>
    <path d="M15.43,59.03c-1.01.61-1.74.47-2.23-.35l-5.17-8.6c-.47-.78-.27-1.52.74-2.13l3-1.8c3.6-2.17,5.92.19,7.59,2.95,1.67,2.77,2.67,5.95-.92,8.12l-3,1.8ZM12.65,48.73l-.34.21c-.59.35-.71.47-.39,1.01l3.21,5.34c.32.54.5.5,1.08.15l.36-.22c1.32-.79,1.27-1.76-.29-4.35-1.52-2.52-2.3-2.94-3.64-2.14Z" fill="#fce674"/>
    <path d="M25.42,48.76c.61,1.37.97,1.58,1.89,1.18.8-.35.94-.5.73-.99l-2.66-5.99c-.23-.52.56-.99,1.27-1.31.69-.31,1.61-.59,1.84-.07l3.38,7.61c.32.71.19,1-.35,1.36-.84.58-2.25,1.35-3.08,1.72-3.11,1.38-4.66,1.17-5.66-1.09l-2.62-5.9c-.23-.52.52-.98,1.25-1.3.71-.32,1.63-.6,1.86-.08l2.16,4.86Z" fill="#fce674"/>
    <path d="M34.23,38.8c1.39-.45,2.25-.59,2.74-.49.52.11.71.45.87.96.23.72.15,1.19-.5,1.34-.61.14-1.23.28-1.63.41-.74.24-.97.45-.85.83.11.34.38.5,1.86.82,1.78.38,2.54.94,2.97,2.26.71,2.21-.57,3.38-2.84,4.11-1.28.42-2.14.59-2.7.49-.51-.09-.8-.42-.98-.98-.19-.6-.16-1.13.47-1.25.52-.11,1.17-.26,1.74-.44.71-.23,1.04-.44.87-.94-.13-.42-.45-.57-2.01-.97-1.73-.4-2.4-.92-2.77-2.08-.8-2.48.88-3.46,2.76-4.07Z" fill="#fce674"/>
    <path d="M45.01,42.71c.24,1.02.43,1.36,1.14,1.2l.19-.04c.37-.09.53.27.66.84.15.65.12,1.08-.05,1.28-.25.27-.69.47-1.52.67-1.8.42-2.97-.03-3.42-1.94l-1.03-4.44c-.09-.37-.15-.49-.6-.39l-.54.12c-.41.09-.63-.44-.8-1.16-.17-.74-.21-1.26.21-1.36l.52-.12c.46-.11.48-.21.39-.58l-.35-1.5c-.16-.69.65-.97,1.45-1.16.76-.18,1.69-.29,1.82.28l.37,1.61c.09.37.14.45.61.35l.7-.16c.41-.09.62.38.79,1.12.18.76.2,1.3-.2,1.39l-.7.16c-.39.09-.48.19-.39.6l.75,3.22Z" fill="#fce674"/>
    <path d="M54.06,45c-1.17.1-1.76-.35-1.84-1.29l-.84-10c-.08-.91.43-1.49,1.6-1.58l3.12-.26c2.39-.2,4.46.39,4.67,2.93.14,1.63-.53,2.35-1.12,2.73-.18.11-.21.17-.21.27,0,.08.07.11.18.16.71.3,1.76,1,1.92,2.87.22,2.65-1.79,3.72-3.89,3.89l-3.6.3ZM55.08,36.83c.04.44.14.54.52.51l.47-.04c.91-.08,1.4-.61,1.3-1.75-.08-.97-.57-1.34-1.57-1.26-.81.07-.92.12-.88.61l.16,1.93ZM55.5,41.87c.04.51.27.53.84.48,1.34-.11,1.73-.56,1.63-1.68-.09-1.04-.64-1.43-1.71-1.34l-.49.04c-.36.03-.47.13-.43.55l.16,1.95Z" fill="#fce674"/>
    <path d="M66.91,40.25c-.06,1.5.17,1.85,1.18,1.89.87.04,1.07-.03,1.09-.56l.27-6.55c.02-.57.94-.65,1.72-.61.76.03,1.7.18,1.68.75l-.34,8.31c-.03.78-.27.98-.92,1.06-1.01.15-2.61.22-3.53.18-3.4-.14-4.69-1.01-4.59-3.48l.26-6.45c.02-.57.9-.65,1.7-.61.78.03,1.72.18,1.7.75l-.22,5.31Z" fill="#fce674"/>
    <path d="M83.42,45.24c-.12.71-.44.93-1.14.93-.97.03-2.48-.14-3.44-.3-3.58-.6-4.7-2.09-4.06-5.94.59-3.56,1.89-5,5.9-4.33.67.11.93-.02,1.01-.54l.38-2.3c.1-.58,1.03-.52,1.78-.4.77.13,1.63.37,1.54.95l-1.99,11.94ZM81.02,39.16c.16-.94.04-1.15-.62-1.26-1.35-.23-1.78.3-2.17,2.59-.39,2.34-.05,2.86,1.07,3.05.84.14.98.03,1.12-.8l.6-3.58Z" fill="#fce674"/>
    <path d="M94.11,48.29c-.21.69-.55.87-1.24.78-.96-.09-2.44-.45-3.37-.73-3.48-1.03-4.4-2.66-3.29-6.39,1.03-3.46,2.5-4.73,6.39-3.57.66.19.92.1,1.07-.41l.67-2.24c.17-.56,1.09-.39,1.82-.17.75.22,1.57.57,1.41,1.13l-3.45,11.6ZM92.49,41.96c.27-.91.18-1.14-.46-1.33-1.31-.39-1.81.08-2.47,2.3-.68,2.28-.41,2.83.69,3.16.82.24.97.15,1.2-.65l1.04-3.48Z" fill="#fce674"/>
    <path d="M99.02,50.9c-.21.53-1.12.29-1.84,0-.71-.28-1.51-.73-1.3-1.26l3.32-8.31c.22-.55,1.1-.3,1.81-.01.72.29,1.55.72,1.33,1.27l-3.32,8.31ZM102.47,37.71c1.54.61,1.73.84,1.29,1.95-.47,1.18-.79,1.2-2.3.59-1.48-.59-1.75-.84-1.34-1.87.51-1.27.88-1.27,2.36-.67Z" fill="#fce674"/>
    <path d="M105.74,50.11c-.45-.21-.59-.17-.77.19-.4.8-.04,1.38,1.46,2.14.78.39,1.49.67,2.05.84.42.15.8.53.44,1.24-.29.58-.78.92-1.1.96-.54.02-1.62-.29-2.91-.93-3.33-1.67-3.96-3.59-2.45-6.59l.26-.53c1.88-3.73,4.04-3.75,6.67-2.43,2.61,1.32,3.06,3.01,1.88,5.35-.74,1.46-1.09,1.7-2.66,1.06l-2.86-1.29ZM106.17,47.73c-.19.37-.07.56.39.79l1.32.67c.51.26.68.21.93-.28.47-.93.43-1.49-.54-1.97-1.04-.52-1.62-.16-2.03.66l-.07.14Z" fill="#fce674"/>
    <path d="M118.2,50.04c1.23.79,1.88,1.36,2.12,1.8.24.47.1.83-.19,1.28-.41.64-.83.87-1.36.46-.5-.39-1-.77-1.35-1-.66-.42-.97-.46-1.18-.12-.19.3-.14.61.56,1.96.84,1.62.89,2.56.15,3.72-1.25,1.95-2.97,1.71-4.98.43-1.14-.73-1.82-1.28-2.1-1.77-.25-.45-.18-.88.14-1.38.34-.53.76-.84,1.27-.43.42.33.95.74,1.44,1.06.62.4,1,.52,1.28.07.24-.37.16-.71-.53-2.17-.79-1.59-.81-2.44-.16-3.46,1.4-2.19,3.23-1.52,4.89-.46Z" fill="#fce674"/>
  </g>
  <g>
    <path d="M31.11,53.32l.63-1.86c.05-.14.24-.16.32-.03l1.18,2.11c.06.1.2.12.28.04l1.62-1.69c.09-.1.25-.06.29.07l.68,2.11c.03.1.14.15.24.1l1.73-.79c.14-.07.29.08.23.23l-.76,1.79c-.04.11.02.22.14.24.87.12,1.73.24,2.6.36.13.02.19.16.12.27-.48.72-.95,1.44-1.43,2.15-.06.09-.02.22.09.26.63.23,1.26.45,1.89.68.13.05.16.23.04.31-.71.49-1.42.98-2.13,1.47-.09.06-.1.18-.03.26l1.36,1.52c.11.12,0,.31-.15.29-.79-.1-1.58-.2-2.37-.3-.12-.02-.22.1-.19.22l.55,1.92c.04.14-.09.26-.22.21-.67-.23-1.34-.47-2.01-.7-.11-.04-.22.03-.23.15l-.24,2.41c-.02.15-.21.21-.31.09l-1.14-1.37c-.07-.08-.19-.08-.26,0l-1.55,1.77c-.08.09-.23.07-.28-.03-.33-.62-.65-1.24-.98-1.86-.04-.08-.15-.12-.23-.07-.76.4-1.52.8-2.28,1.2-.11.06-.25-.02-.25-.15-.02-.77-.04-1.54-.06-2.31,0-.1-.09-.18-.2-.17l-1.68.22c-.14.02-.25-.14-.17-.26.32-.54.64-1.08.96-1.62.05-.09.01-.21-.08-.25-.75-.31-1.49-.62-2.24-.92-.12-.05-.14-.2-.06-.28.59-.58,1.18-1.16,1.77-1.73.07-.07.07-.17,0-.24l-1.6-1.76c-.1-.11-.02-.3.14-.29l2.24.09c.14,0,.23-.14.16-.26l-1.19-1.99c-.08-.13.04-.29.19-.26l2.37.53c.12.03.23-.07.21-.19-.12-.85-.23-1.69-.35-2.54-.02-.14.13-.24.25-.18.72.39,1.45.78,2.17,1.17.09.05.21,0,.25-.1Z" fill="#576272"/>
    <path d="M31.04,58.22c-.12.02-.8.14-1.17.72-.41.65-.14,1.41.05,1.95.13.37.24.67.54.89.41.3.98.33,1.43.13.59-.27.78-.86.89-1.21.06-.19.21-.68.05-1.26-.06-.22-.23-.84-.81-1.13-.41-.2-.8-.13-.97-.1Z" fill="#f2f2f2"/>
    <path d="M33.8,57.38c-.27.28-.34.6-.38.79-.16.78.22,1.4.27,1.47.11.18.42.66,1.04.81.08.02.8.18,1.39-.31.49-.41.54-.98.55-1.15.03-.65-.35-1.09-.54-1.33-.13-.15-.41-.47-.88-.63-.12-.04-.33-.11-.6-.08-.46.05-.75.33-.84.42Z" fill="#f2f2f2"/>
    <path d="M31.4,58.94c-.29.33-.1.81-.08.86.09.23.35.59.63.55.28-.05.41-.48.42-.74.02-.35-.14-.84-.47-.9-.26-.05-.48.2-.5.22Z" fill="#87ceeb"/>
    <path d="M33.98,58.11c-.17.23-.19.54-.07.78.11.23.39.48.69.42.38-.08.46-.6.46-.64.04-.28-.05-.73-.39-.84-.27-.08-.55.09-.69.28Z" fill="#87ceeb"/>
    <path d="M33.98,58.21c-.14.19-.15.44-.06.64.09.19.32.4.57.35.31-.07.38-.5.38-.53.03-.23-.04-.6-.32-.69-.22-.07-.45.07-.57.23Z" fill="#2d2d2d"/>
    <path d="M31.56,59.04c-.23.26-.08.65-.06.69.07.18.28.48.5.44.23-.04.33-.38.34-.59.02-.28-.11-.67-.38-.72-.21-.04-.38.16-.4.18Z" fill="#2d2d2d"/>
    <path d="M31.36,59.25c-.06.04-.06.12-.06.13,0,0,0,.11.09.14.05.02.1-.01.1-.02.06-.04.07-.14.04-.2,0-.02-.02-.06-.07-.08-.05-.02-.1.01-.11.02Z" fill="#bde8f9"/>
    <path d="M31.35,59.65s-.03.06-.03.06c0,0,0,.05.04.07.02,0,.05,0,.05,0,.03-.02.03-.07.02-.09,0,0-.01-.03-.03-.04-.03,0-.05,0-.05,0Z" fill="#bde8f9"/>
    <path d="M34.91,58.27s-.03.06-.03.06c0,0,0,.05.04.07.02,0,.05,0,.05,0,.03-.02.03-.07.02-.09,0,0-.01-.03-.03-.04-.03,0-.05,0-.05,0Z" fill="#bde8f9"/>
    <path d="M34.7,57.98c-.06.04-.06.12-.06.13,0,0,0,.11.09.14.05.02.1-.01.1-.02.06-.04.07-.14.04-.2,0-.02-.02-.06-.07-.08-.05-.02-.1.01-.11.02Z" fill="#bde8f9"/>
    <path d="M33.48,61.52s.2.16.38.07c.17-.09.19-.32.19-.34" fill="none" stroke="#d87da7" stroke-linecap="round" stroke-miterlimit="10" stroke-width=".25"/>
  </g>
</svg>