<?xml version="1.0" encoding="UTF-8"?>
<svg id="mascot" xmlns="http://www.w3.org/2000/svg" viewBox="0 0 48.64 47.35">
  <path d="M25.44,5.27l3.39-4.58c.26-.35.81-.23.9.2l1.38,6.89c.07.33.44.51.73.34l5.97-3.23c.34-.18.74.06.74.44v6.42c0,.3.26.54.56.5l5.48-.64c.46-.05.74.48.44.83l-3.69,4.26c-.22.25-.14.64.16.78,2.28,1.1,4.57,2.2,6.85,3.3.33.16.39.62.1.85-1.95,1.56-3.91,3.12-5.86,4.68-.26.2-.25.59,0,.79,1.54,1.18,3.08,2.36,4.62,3.55.33.25.23.76-.16.88-2.4.72-4.8,1.45-7.2,2.17-.29.09-.44.41-.31.69l2.41,5.4c.19.43-.25.86-.67.66-2.09-.98-4.18-1.95-6.27-2.93-.33-.15-.71.08-.72.44l-.17,5.79c-.01.41-.48.63-.81.39-1.65-1.24-3.29-2.49-4.94-3.73-.26-.2-.64-.1-.77.2l-2.8,6.44c-.18.41-.76.4-.93-.01l-1.95-4.79c-.12-.29-.46-.4-.73-.24l-5.85,3.53c-.3.18-.7,0-.76-.35-.35-2.01-.7-4.01-1.05-6.02-.05-.27-.31-.46-.58-.41-2.46.43-4.92.86-7.38,1.29-.37.06-.68-.28-.57-.64.63-2.14,1.26-4.29,1.89-6.43.08-.29-.1-.58-.39-.64l-4.83-.9c-.41-.08-.56-.59-.24-.87,1.36-1.21,2.73-2.42,4.09-3.63.23-.2.23-.56,0-.76-1.78-1.51-3.57-3.03-5.35-4.54-.28-.23-.22-.67.1-.84,2.15-1.07,4.29-2.14,6.44-3.21.24-.12.35-.41.23-.66l-2.84-6.29c-.18-.41.21-.84.63-.68l6.09,2.24c.38.14.76-.2.67-.59l-1.52-6.56c-.1-.43.36-.77.75-.55l6.08,3.57c.3.18.69,0,.75-.35.43-2.44.86-4.88,1.3-7.31.07-.41.57-.56.86-.26,1.65,1.72,3.31,3.45,4.96,5.17.22.23.58.2.77-.05Z" fill="#576272"/>
  <path d="M20.89,18.75c-.34-.05-2.34-.33-3.88.94-1.71,1.42-1.64,3.76-1.59,5.42.03,1.15.06,2.05.7,2.93.86,1.2,2.41,1.8,3.83,1.64,1.88-.21,2.93-1.69,3.53-2.54.34-.48,1.17-1.68,1.24-3.43.03-.67.11-2.52-1.24-3.83-.94-.91-2.09-1.07-2.59-1.14Z" fill="#f2f2f2"/>
  <path d="M29.25,18.88c-.99.54-1.46,1.35-1.74,1.84-1.13,2-.64,4.05-.57,4.3.15.59.57,2.19,2.14,3.16.2.12,2.04,1.22,4.1.37,1.71-.7,2.36-2.23,2.54-2.69.66-1.76.02-3.32-.32-4.15-.22-.54-.7-1.67-1.87-2.51-.31-.22-.82-.59-1.59-.75-1.3-.27-2.36.24-2.69.42Z" fill="#f2f2f2"/>
  <path d="M21.26,21.05c-1.09.66-1.01,2.14-.99,2.32.05.72.43,1.94,1.24,2.07.82.13,1.55-.95,1.82-1.65.36-.94.36-2.44-.5-2.9-.67-.36-1.5.12-1.57.17Z" fill="#87ceeb"/>
  <path d="M29.1,21.07c-.68.48-1,1.32-.88,2.09.11.74.65,1.68,1.53,1.77,1.13.11,1.8-1.26,1.85-1.37.35-.75.5-2.06-.32-2.65-.66-.47-1.6-.24-2.17.16Z" fill="#87ceeb"/>
  <path d="M29.02,21.34c-.56.4-.82,1.09-.73,1.72.09.61.53,1.38,1.26,1.46.93.09,1.48-1.04,1.53-1.13.29-.62.41-1.7-.27-2.19-.54-.39-1.32-.2-1.79.13Z" fill="#2d2d2d"/>
  <path d="M21.59,21.47c-.87.52-.81,1.72-.8,1.86.04.58.34,1.56.99,1.66.66.1,1.24-.77,1.46-1.33.29-.76.29-1.95-.4-2.32-.54-.29-1.2.1-1.26.13Z" fill="#2d2d2d"/>
  <path d="M20.87,21.89c-.2.06-.26.28-.28.32,0,.01-.08.32.12.46.13.09.28.05.3.05.21-.06.31-.32.3-.51,0-.06-.01-.19-.12-.28-.13-.1-.3-.05-.32-.05Z" fill="#bde8f9"/>
  <path d="M20.49,22.97c-.1.03-.13.13-.13.15,0,0-.04.15.05.22.06.04.14.02.14.02.1-.03.15-.15.14-.24,0-.03,0-.09-.05-.13-.06-.05-.14-.03-.15-.02Z" fill="#bde8f9"/>
  <path d="M31.54,22.34c-.1.03-.13.13-.13.15,0,0-.04.15.05.22.06.04.14.02.14.02.1-.03.15-.15.14-.24,0-.03,0-.09-.05-.13-.06-.05-.14-.03-.15-.02Z" fill="#bde8f9"/>
  <path d="M31.21,21.33c-.2.06-.26.28-.28.32,0,.01-.08.32.12.46.13.09.28.05.3.05.21-.06.31-.32.3-.51,0-.06-.01-.19-.12-.28-.13-.1-.3-.05-.32-.05Z" fill="#bde8f9"/>
  <path d="M24.7,30.03c.03.05.41.62.98.52.54-.09.8-.71.83-.78" fill="none" stroke="#d87da7" stroke-linecap="round" stroke-miterlimit="10" stroke-width=".5"/>
</svg>