<?xml version="1.0" encoding="UTF-8"?>
<svg id="bathroom_floor" xmlns="http://www.w3.org/2000/svg" viewBox="0 0 136.8 277.57">
  <polygon points="93.53 167.67 92.39 159.18 76.65 159.18 77.04 167.67 93.53 167.67" fill="#b0c2c6" stroke="#eae3df" stroke-miterlimit="10" stroke-width=".75"/>
  <polygon points="110.13 167.67 108.22 159.18 92.48 159.18 93.63 167.67 110.13 167.67" fill="#c0c7c9" stroke="#eae3df" stroke-miterlimit="10" stroke-width=".75"/>
  <polygon points="93.63 167.67 92.48 159.18 92.39 159.18 93.53 167.67 93.63 167.67" fill="#c0c7c9" stroke="#eae3df" stroke-miterlimit="10" stroke-width=".75"/>
  <polygon points="126.68 167.67 124.01 159.18 108.27 159.18 110.18 167.67 126.68 167.67" fill="#b0c2c6" stroke="#eae3df" stroke-miterlimit="10" stroke-width=".75"/>
  <polygon points="110.18 167.67 108.27 159.18 108.22 159.18 110.13 167.67 110.18 167.67" fill="#b0c2c6" stroke="#eae3df" stroke-miterlimit="10" stroke-width=".75"/>
  <polygon points="137.42 167.67 137.42 159.18 124.11 159.18 126.78 167.67 137.42 167.67" fill="#c0c7c9" stroke="#eae3df" stroke-miterlimit="10" stroke-width=".75"/>
  <polygon points="126.78 167.67 124.11 159.18 124.01 159.18 126.68 167.67 126.78 167.67" fill="#c0c7c9" stroke="#eae3df" stroke-miterlimit="10" stroke-width=".75"/>
  <polygon points="60.39 167.67 60.39 167.67 60.77 159.18 44.98 159.18 43.83 167.72 43.83 167.72 43.83 167.67 60.39 167.67" fill="#b0c2c6" stroke="#eae3df" stroke-miterlimit="10" stroke-width=".75"/>
  <polygon points="76.98 167.67 76.6 159.18 60.86 159.18 60.48 167.67 76.98 167.67" fill="#c0c7c9" stroke="#eae3df" stroke-miterlimit="10" stroke-width=".75"/>
  <polygon points="77.04 167.67 76.65 159.18 76.6 159.18 76.98 167.67 77.04 167.67" fill="#c0c7c9" stroke="#eae3df" stroke-miterlimit="10" stroke-width=".75"/>
  <polygon points="60.48 167.67 60.86 159.18 60.77 159.18 60.39 167.67 60.48 167.67" fill="#c0c7c9" stroke="#eae3df" stroke-miterlimit="10" stroke-width=".75"/>
  <polygon points="77.46 177.02 94.79 177.02 93.54 167.72 77.04 167.72 77.46 177.02 77.46 177.02" fill="#c0c7c9" stroke="#eae3df" stroke-miterlimit="10" stroke-width=".75"/>
  <polygon points="93.54 167.72 93.53 167.67 77.04 167.67 77.04 167.72 93.54 167.72" fill="#c0c7c9" stroke="#eae3df" stroke-miterlimit="10" stroke-width=".75"/>
  <polygon points="112.23 177.02 110.14 167.72 93.63 167.72 94.89 177.02 112.23 177.02" fill="#b0c2c6" stroke="#eae3df" stroke-miterlimit="10" stroke-width=".75"/>
  <polygon points="110.14 167.72 110.13 167.67 93.63 167.67 93.63 167.72 110.14 167.72" fill="#b0c2c6" stroke="#eae3df" stroke-miterlimit="10" stroke-width=".75"/>
  <polygon points="94.79 177.02 94.89 177.02 93.63 167.72 93.54 167.72 94.79 177.02 94.79 177.02" fill="#b0c2c6" stroke="#eae3df" stroke-miterlimit="10" stroke-width=".75"/>
  <polygon points="93.63 167.72 93.63 167.67 93.53 167.67 93.54 167.72 93.63 167.72" fill="#b0c2c6" stroke="#eae3df" stroke-miterlimit="10" stroke-width=".75"/>
  <polygon points="129.62 177.02 126.7 167.72 110.19 167.72 112.28 177.02 129.62 177.02" fill="#c0c7c9" stroke="#eae3df" stroke-miterlimit="10" stroke-width=".75"/>
  <polygon points="126.7 167.72 126.68 167.67 110.18 167.67 110.19 167.72 126.7 167.72" fill="#c0c7c9" stroke="#eae3df" stroke-miterlimit="10" stroke-width=".75"/>
  <polygon points="112.28 177.02 110.19 167.72 110.14 167.72 112.23 177.02 112.28 177.02" fill="#c0c7c9" stroke="#eae3df" stroke-miterlimit="10" stroke-width=".75"/>
  <polygon points="110.19 167.72 110.18 167.67 110.13 167.67 110.14 167.72 110.19 167.72" fill="#c0c7c9" stroke="#eae3df" stroke-miterlimit="10" stroke-width=".75"/>
  <polygon points="129.72 177.02 137.42 177.02 137.42 167.72 126.8 167.72 129.72 177.02" fill="#b0c2c6" stroke="#eae3df" stroke-miterlimit="10" stroke-width=".75"/>
  <polygon points="126.8 167.72 137.42 167.72 137.42 167.67 126.78 167.67 126.8 167.72" fill="#b0c2c6" stroke="#eae3df" stroke-miterlimit="10" stroke-width=".75"/>
  <polygon points="129.62 177.02 129.72 177.02 129.72 177.02 126.8 167.72 126.7 167.72 129.62 177.02" fill="#b0c2c6" stroke="#eae3df" stroke-miterlimit="10" stroke-width=".75"/>
  <polygon points="126.8 167.72 126.78 167.67 126.68 167.67 126.7 167.72 126.8 167.72" fill="#b0c2c6" stroke="#eae3df" stroke-miterlimit="10" stroke-width=".75"/>
  <polygon points="59.97 177.02 59.97 177.02 60.38 167.72 43.83 167.72 42.57 177.07 42.57 177.02 59.97 177.02" fill="#c0c7c9" stroke="#eae3df" stroke-miterlimit="10" stroke-width=".75"/>
  <polygon points="60.39 167.67 43.83 167.67 43.83 167.72 60.38 167.72 60.39 167.67" fill="#c0c7c9" stroke="#eae3df" stroke-miterlimit="10" stroke-width=".75"/>
  <polygon points="76.98 167.72 60.48 167.72 60.07 177.02 77.4 177.02 76.98 167.72" fill="#b0c2c6" stroke="#eae3df" stroke-miterlimit="10" stroke-width=".75"/>
  <polygon points="76.98 167.72 76.98 167.67 60.48 167.67 60.48 167.72 76.98 167.72" fill="#b0c2c6" stroke="#eae3df" stroke-miterlimit="10" stroke-width=".75"/>
  <polygon points="77.46 177.02 77.04 167.72 76.98 167.72 77.4 177.02 77.46 177.02" fill="#b0c2c6" stroke="#eae3df" stroke-miterlimit="10" stroke-width=".75"/>
  <polygon points="77.04 167.72 77.04 167.67 76.98 167.67 76.98 167.72 77.04 167.72" fill="#b0c2c6" stroke="#eae3df" stroke-miterlimit="10" stroke-width=".75"/>
  <polygon points="60.48 167.72 60.38 167.72 60.38 167.72 59.97 177.02 60.07 177.02 60.48 167.72" fill="#b0c2c6" stroke="#eae3df" stroke-miterlimit="10" stroke-width=".75"/>
  <rect x="60.38" y="167.67" width="0" height=".05" fill="#b0c2c6" stroke="#eae3df" stroke-miterlimit="10" stroke-width=".75"/>
  <polygon points="60.48 167.72 60.48 167.67 60.39 167.67 60.38 167.72 60.48 167.72" fill="#b0c2c6" stroke="#eae3df" stroke-miterlimit="10" stroke-width=".75"/>
  <polygon points="94.8 177.07 94.8 177.07 77.46 177.07 77.93 187.36 96.18 187.36 94.8 177.07" fill="#b0c2c6" stroke="#eae3df" stroke-miterlimit="10" stroke-width=".75"/>
  <polygon points="94.8 177.07 94.79 177.02 77.46 177.02 77.46 177.07 94.8 177.07" fill="#b0c2c6" stroke="#eae3df" stroke-miterlimit="10" stroke-width=".75"/>
  <rect x="94.79" y="177.02" width="0" height=".06" transform="translate(-22.88 14.31) rotate(-7.71)" fill="#b0c2c6" stroke="#eae3df" stroke-miterlimit="10" stroke-width=".75"/>
  <polygon points="114.55 187.36 112.24 177.07 94.9 177.07 96.29 187.36 114.55 187.36" fill="#c0c7c9" stroke="#eae3df" stroke-miterlimit="10" stroke-width=".75"/>
  <polygon points="112.24 177.07 112.23 177.02 94.89 177.02 94.9 177.07 112.24 177.07" fill="#c0c7c9" stroke="#eae3df" stroke-miterlimit="10" stroke-width=".75"/>
  <polygon points="96.29 187.36 94.9 177.07 94.8 177.07 96.18 187.36 96.29 187.36" fill="#c0c7c9" stroke="#eae3df" stroke-miterlimit="10" stroke-width=".75"/>
  <polygon points="94.9 177.07 94.89 177.02 94.79 177.02 94.8 177.07 94.9 177.07" fill="#c0c7c9" stroke="#eae3df" stroke-miterlimit="10" stroke-width=".75"/>
  <polygon points="114.61 187.36 132.87 187.36 129.64 177.07 112.29 177.07 114.61 187.36" fill="#b0c2c6" stroke="#eae3df" stroke-miterlimit="10" stroke-width=".75"/>
  <polygon points="112.29 177.07 129.64 177.07 129.62 177.02 112.28 177.02 112.29 177.07" fill="#b0c2c6" stroke="#eae3df" stroke-miterlimit="10" stroke-width=".75"/>
  <polygon points="114.55 187.36 114.61 187.36 112.29 177.07 112.24 177.07 114.55 187.36" fill="#b0c2c6" stroke="#eae3df" stroke-miterlimit="10" stroke-width=".75"/>
  <polygon points="112.29 177.07 112.28 177.02 112.23 177.02 112.24 177.07 112.29 177.07" fill="#b0c2c6" stroke="#eae3df" stroke-miterlimit="10" stroke-width=".75"/>
  <polygon points="129.74 177.07 132.98 187.36 137.42 187.36 137.42 177.07 129.74 177.07 129.74 177.07" fill="#c0c7c9" stroke="#eae3df" stroke-miterlimit="10" stroke-width=".75"/>
  <polygon points="129.74 177.07 137.42 177.07 137.42 177.02 129.72 177.02 129.74 177.07" fill="#c0c7c9" stroke="#eae3df" stroke-miterlimit="10" stroke-width=".75"/>
  <rect x="129.73" y="177.02" width="0" height=".06" fill="#c0c7c9" stroke="#eae3df" stroke-miterlimit="10" stroke-width=".75"/>
  <polygon points="132.87 187.36 132.98 187.36 129.74 177.07 129.64 177.07 132.87 187.36" fill="#c0c7c9" stroke="#eae3df" stroke-miterlimit="10" stroke-width=".75"/>
  <polygon points="129.62 177.02 129.64 177.07 129.74 177.07 129.72 177.02 129.62 177.02" fill="#c0c7c9" stroke="#eae3df" stroke-miterlimit="10" stroke-width=".75"/>
  <polygon points="59.96 177.07 42.57 177.07 41.18 187.36 59.5 187.36 59.96 177.07" fill="#b0c2c6" stroke="#eae3df" stroke-miterlimit="10" stroke-width=".75"/>
  <polygon points="59.97 177.02 42.57 177.02 42.57 177.07 59.96 177.07 59.97 177.02" fill="#b0c2c6" stroke="#eae3df" stroke-miterlimit="10" stroke-width=".75"/>
  <polygon points="77.4 177.07 60.07 177.07 59.61 187.36 77.86 187.36 77.4 177.07" fill="#c0c7c9" stroke="#eae3df" stroke-miterlimit="10" stroke-width=".75"/>
  <polygon points="77.4 177.02 60.07 177.02 60.07 177.07 77.4 177.07 77.4 177.02" fill="#c0c7c9" stroke="#eae3df" stroke-miterlimit="10" stroke-width=".75"/>
  <polygon points="77.93 187.36 77.46 177.07 77.46 177.07 77.4 177.07 77.86 187.36 77.93 187.36 77.93 187.36" fill="#c0c7c9" stroke="#eae3df" stroke-miterlimit="10" stroke-width=".75"/>
  <rect x="77.46" y="177.02" width="0" height=".06" transform="translate(-7.96 3.7) rotate(-2.6)" fill="#c0c7c9" stroke="#eae3df" stroke-miterlimit="10" stroke-width=".75"/>
  <polygon points="77.46 177.02 77.4 177.02 77.4 177.07 77.46 177.07 77.46 177.02" fill="#c0c7c9" stroke="#eae3df" stroke-miterlimit="10" stroke-width=".75"/>
  <polygon points="60.07 177.07 59.96 177.07 59.96 177.07 59.5 187.36 59.61 187.36 60.07 177.07" fill="#c0c7c9" stroke="#eae3df" stroke-miterlimit="10" stroke-width=".75"/>
  <rect x="59.96" y="177.02" width="0" height=".06" fill="#c0c7c9" stroke="#eae3df" stroke-miterlimit="10" stroke-width=".75"/>
  <polygon points="60.07 177.07 60.07 177.02 59.97 177.02 59.96 177.07 60.07 177.07" fill="#c0c7c9" stroke="#eae3df" stroke-miterlimit="10" stroke-width=".75"/>
  <polygon points="96.19 187.43 77.93 187.43 77.93 187.43 78.45 198.87 97.73 198.87 96.19 187.43" fill="#c0c7c9" stroke="#eae3df" stroke-miterlimit="10" stroke-width=".75"/>
  <polygon points="96.19 187.43 96.18 187.36 77.93 187.36 77.93 187.43 96.19 187.43" fill="#c0c7c9" stroke="#eae3df" stroke-miterlimit="10" stroke-width=".75"/>
  <rect x="77.93" y="187.36" width="0" height=".06" fill="#c0c7c9" stroke="#eae3df" stroke-miterlimit="10" stroke-width=".75"/>
  <polygon points="96.3 187.43 97.85 198.87 117.14 198.87 114.57 187.43 96.3 187.43" fill="#b0c2c6" stroke="#eae3df" stroke-miterlimit="10" stroke-width=".75"/>
  <polygon points="96.29 187.36 96.3 187.43 114.57 187.43 114.55 187.36 96.29 187.36" fill="#b0c2c6" stroke="#eae3df" stroke-miterlimit="10" stroke-width=".75"/>
  <polygon points="97.73 198.87 97.85 198.87 96.3 187.43 96.19 187.43 97.73 198.87" fill="#b0c2c6" stroke="#eae3df" stroke-miterlimit="10" stroke-width=".75"/>
  <polygon points="96.18 187.36 96.19 187.43 96.3 187.43 96.29 187.36 96.18 187.36" fill="#b0c2c6" stroke="#eae3df" stroke-miterlimit="10" stroke-width=".75"/>
  <polygon points="117.2 198.87 136.49 198.87 132.89 187.43 114.62 187.43 117.2 198.87" fill="#c0c7c9" stroke="#eae3df" stroke-miterlimit="10" stroke-width=".75"/>
  <polygon points="114.62 187.43 132.89 187.43 132.87 187.36 114.61 187.36 114.62 187.43" fill="#c0c7c9" stroke="#eae3df" stroke-miterlimit="10" stroke-width=".75"/>
  <polygon points="114.57 187.43 117.14 198.87 117.2 198.87 114.62 187.43 114.57 187.43" fill="#c0c7c9" stroke="#eae3df" stroke-miterlimit="10" stroke-width=".75"/>
  <polygon points="114.57 187.43 114.62 187.43 114.61 187.36 114.55 187.36 114.57 187.43" fill="#c0c7c9" stroke="#eae3df" stroke-miterlimit="10" stroke-width=".75"/>
  <polygon points="136.61 198.87 137.42 198.87 137.42 187.43 133 187.43 136.61 198.87" fill="#b0c2c6" stroke="#eae3df" stroke-miterlimit="10" stroke-width=".75"/>
  <polygon points="133 187.43 137.42 187.43 137.42 187.36 132.98 187.36 133 187.43" fill="#b0c2c6" stroke="#eae3df" stroke-miterlimit="10" stroke-width=".75"/>
  <polygon points="136.49 198.87 136.61 198.87 136.61 198.87 133 187.43 132.89 187.43 136.49 198.87" fill="#b0c2c6" stroke="#eae3df" stroke-miterlimit="10" stroke-width=".75"/>
  <polygon points="132.89 187.43 133 187.43 132.98 187.36 132.87 187.36 132.89 187.43" fill="#b0c2c6" stroke="#eae3df" stroke-miterlimit="10" stroke-width=".75"/>
  <polygon points="58.98 198.87 59.5 187.43 41.17 187.43 41.18 187.36 39.62 198.94 39.63 198.87 58.98 198.87" fill="#c0c7c9" stroke="#eae3df" stroke-miterlimit="10" stroke-width=".75"/>
  <polygon points="59.5 187.43 59.5 187.36 41.18 187.36 41.17 187.43 59.5 187.43" fill="#c0c7c9" stroke="#eae3df" stroke-miterlimit="10" stroke-width=".75"/>
  <polygon points="77.87 187.43 59.6 187.43 59.1 198.87 78.38 198.87 77.87 187.43" fill="#b0c2c6" stroke="#eae3df" stroke-miterlimit="10" stroke-width=".75"/>
  <polygon points="77.86 187.36 59.61 187.36 59.6 187.43 77.87 187.43 77.86 187.36" fill="#b0c2c6" stroke="#eae3df" stroke-miterlimit="10" stroke-width=".75"/>
  <polygon points="77.93 187.43 77.87 187.43 78.38 198.87 78.45 198.87 77.93 187.43" fill="#b0c2c6" stroke="#eae3df" stroke-miterlimit="10" stroke-width=".75"/>
  <polygon points="77.93 187.36 77.86 187.36 77.87 187.43 77.93 187.43 77.93 187.36" fill="#b0c2c6" stroke="#eae3df" stroke-miterlimit="10" stroke-width=".75"/>
  <polygon points="59.1 198.87 59.6 187.43 59.5 187.43 58.98 198.87 59.1 198.87 59.1 198.87" fill="#b0c2c6" stroke="#eae3df" stroke-miterlimit="10" stroke-width=".75"/>
  <polygon points="59.61 187.36 59.5 187.36 59.5 187.43 59.6 187.43 59.61 187.36" fill="#b0c2c6" stroke="#eae3df" stroke-miterlimit="10" stroke-width=".75"/>
  <polygon points="97.74 198.94 78.45 198.94 79.03 211.72 99.46 211.72 97.74 198.94" fill="#b0c2c6" stroke="#eae3df" stroke-miterlimit="10" stroke-width=".75"/>
  <polygon points="97.73 198.87 78.45 198.87 78.45 198.94 97.74 198.94 97.73 198.87" fill="#b0c2c6" stroke="#eae3df" stroke-miterlimit="10" stroke-width=".75"/>
  <polygon points="99.58 211.72 120.03 211.72 120.03 211.72 117.16 198.94 97.86 198.94 99.58 211.72" fill="#c0c7c9" stroke="#eae3df" stroke-miterlimit="10" stroke-width=".75"/>
  <polygon points="97.86 198.94 117.16 198.94 117.14 198.87 97.85 198.87 97.86 198.94" fill="#c0c7c9" stroke="#eae3df" stroke-miterlimit="10" stroke-width=".75"/>
  <polygon points="99.46 211.72 99.58 211.72 97.86 198.94 97.74 198.94 99.46 211.72" fill="#c0c7c9" stroke="#eae3df" stroke-miterlimit="10" stroke-width=".75"/>
  <polygon points="97.74 198.94 97.86 198.94 97.85 198.87 97.73 198.87 97.74 198.94" fill="#c0c7c9" stroke="#eae3df" stroke-miterlimit="10" stroke-width=".75"/>
  <polygon points="117.21 198.94 120.09 211.72 137.42 211.72 137.42 201.82 136.52 198.94 117.21 198.94" fill="#b0c2c6" stroke="#eae3df" stroke-miterlimit="10" stroke-width=".75"/>
  <polygon points="117.2 198.87 117.21 198.94 136.52 198.94 136.49 198.87 117.2 198.87" fill="#b0c2c6" stroke="#eae3df" stroke-miterlimit="10" stroke-width=".75"/>
  <polygon points="120.03 211.72 120.09 211.72 117.21 198.94 117.16 198.94 120.03 211.72" fill="#b0c2c6" stroke="#eae3df" stroke-miterlimit="10" stroke-width=".75"/>
  <polygon points="117.14 198.87 117.16 198.94 117.21 198.94 117.2 198.87 117.14 198.87" fill="#b0c2c6" stroke="#eae3df" stroke-miterlimit="10" stroke-width=".75"/>
  <polygon points="58.4 211.72 58.98 198.94 39.62 198.94 37.88 211.84 37.88 211.84 37.9 211.72 58.4 211.72" fill="#b0c2c6" stroke="#eae3df" stroke-miterlimit="10" stroke-width=".75"/>
  <polygon points="58.98 198.87 39.63 198.87 39.62 198.94 58.98 198.94 58.98 198.87" fill="#b0c2c6" stroke="#eae3df" stroke-miterlimit="10" stroke-width=".75"/>
  <polygon points="78.38 198.94 59.09 198.94 59.09 198.94 58.53 211.72 78.96 211.72 78.38 198.94" fill="#c0c7c9" stroke="#eae3df" stroke-miterlimit="10" stroke-width=".75"/>
  <polygon points="78.38 198.94 78.38 198.87 59.1 198.87 59.09 198.94 78.38 198.94" fill="#c0c7c9" stroke="#eae3df" stroke-miterlimit="10" stroke-width=".75"/>
  <rect x="59.09" y="198.87" width="0" height=".07" fill="#c0c7c9" stroke="#eae3df" stroke-miterlimit="10" stroke-width=".75"/>
  <polygon points="79.03 211.72 78.45 198.94 78.38 198.94 78.96 211.72 79.03 211.72 79.03 211.72" fill="#c0c7c9" stroke="#eae3df" stroke-miterlimit="10" stroke-width=".75"/>
  <polygon points="78.45 198.87 78.38 198.87 78.38 198.94 78.45 198.94 78.45 198.87" fill="#c0c7c9" stroke="#eae3df" stroke-miterlimit="10" stroke-width=".75"/>
  <polygon points="58.53 211.72 59.09 198.94 58.98 198.94 58.4 211.72 58.52 211.72 58.53 211.72" fill="#c0c7c9" stroke="#eae3df" stroke-miterlimit="10" stroke-width=".75"/>
  <polygon points="59.1 198.87 58.98 198.87 58.98 198.94 59.09 198.94 59.1 198.87" fill="#c0c7c9" stroke="#eae3df" stroke-miterlimit="10" stroke-width=".75"/>
  <polygon points="43.83 167.67 43.82 167.72 44.97 159.18 29.14 159.18 27.24 167.67 43.83 167.67" fill="#c0c7c9" stroke="#eae3df" stroke-miterlimit="10" stroke-width=".75"/>
  <polygon points="10.59 167.67 13.26 159.18 -.62 159.18 -.62 167.67 10.59 167.67" fill="#c0c7c9" stroke="#eae3df" stroke-miterlimit="10" stroke-width=".75"/>
  <polygon points="27.18 167.67 29.09 159.18 13.35 159.18 10.68 167.67 27.18 167.67" fill="#b0c2c6" stroke="#eae3df" stroke-miterlimit="10" stroke-width=".75"/>
  <polygon points="27.18 167.67 27.24 167.67 29.14 159.18 29.09 159.18 27.18 167.67 27.18 167.67" fill="#b0c2c6" stroke="#eae3df" stroke-miterlimit="10" stroke-width=".75"/>
  <polygon points="10.68 167.67 13.35 159.18 13.26 159.18 10.59 167.67 10.68 167.67" fill="#b0c2c6" stroke="#eae3df" stroke-miterlimit="10" stroke-width=".75"/>
  <polygon points="25.13 177.02 42.57 177.02 42.56 177.07 42.56 177.07 43.82 167.72 27.22 167.72 25.13 177.02" fill="#b0c2c6" stroke="#eae3df" stroke-miterlimit="10" stroke-width=".75"/>
  <polygon points="27.24 167.67 27.22 167.72 43.82 167.72 43.83 167.67 27.24 167.67" fill="#b0c2c6" stroke="#eae3df" stroke-miterlimit="10" stroke-width=".75"/>
  <polygon points="10.57 167.72 -.62 167.72 -.62 177.02 7.64 177.02 10.57 167.72" fill="#b0c2c6" stroke="#eae3df" stroke-miterlimit="10" stroke-width=".75"/>
  <polygon points="10.57 167.72 10.59 167.67 -.62 167.67 -.62 167.72 10.57 167.72" fill="#b0c2c6" stroke="#eae3df" stroke-miterlimit="10" stroke-width=".75"/>
  <polygon points="25.07 177.02 27.17 167.72 27.17 167.72 10.67 167.72 7.74 177.02 25.07 177.02" fill="#c0c7c9" stroke="#eae3df" stroke-miterlimit="10" stroke-width=".75"/>
  <polygon points="27.17 167.72 27.18 167.67 10.68 167.67 10.67 167.72 27.17 167.72" fill="#c0c7c9" stroke="#eae3df" stroke-miterlimit="10" stroke-width=".75"/>
  <rect x="27.14" y="167.7" width=".05" height="0" transform="translate(-142.4 157.4) rotate(-77.32)" fill="#c0c7c9" stroke="#eae3df" stroke-miterlimit="10" stroke-width=".75"/>
  <polygon points="25.07 177.02 25.13 177.02 27.22 167.72 27.17 167.72 25.07 177.02" fill="#c0c7c9" stroke="#eae3df" stroke-miterlimit="10" stroke-width=".75"/>
  <polygon points="27.22 167.72 27.24 167.67 27.18 167.67 27.17 167.72 27.22 167.72" fill="#c0c7c9" stroke="#eae3df" stroke-miterlimit="10" stroke-width=".75"/>
  <polygon points="7.64 177.02 7.74 177.02 10.67 167.72 10.57 167.72 7.64 177.02 7.64 177.02" fill="#c0c7c9" stroke="#eae3df" stroke-miterlimit="10" stroke-width=".75"/>
  <polygon points="10.67 167.72 10.68 167.67 10.59 167.67 10.57 167.72 10.67 167.72" fill="#c0c7c9" stroke="#eae3df" stroke-miterlimit="10" stroke-width=".75"/>
  <polygon points="22.81 187.36 41.17 187.36 41.16 187.43 42.56 177.07 25.12 177.07 22.81 187.36" fill="#c0c7c9" stroke="#eae3df" stroke-miterlimit="10" stroke-width=".75"/>
  <polygon points="25.13 177.02 25.12 177.07 42.56 177.07 42.57 177.02 25.13 177.02" fill="#c0c7c9" stroke="#eae3df" stroke-miterlimit="10" stroke-width=".75"/>
  <polygon points="7.62 177.07 7.62 177.07 -.62 177.07 -.62 187.36 4.38 187.36 7.62 177.07" fill="#c0c7c9" stroke="#eae3df" stroke-miterlimit="10" stroke-width=".75"/>
  <polygon points="7.64 177.02 -.62 177.02 -.62 177.07 7.62 177.07 7.64 177.02" fill="#c0c7c9" stroke="#eae3df" stroke-miterlimit="10" stroke-width=".75"/>
  <rect x="7.6" y="177.05" width=".06" height="0" transform="translate(-163.57 131.3) rotate(-72.57)" fill="#c0c7c9" stroke="#eae3df" stroke-miterlimit="10" stroke-width=".75"/>
  <polygon points="4.49 187.36 22.75 187.36 25.06 177.07 7.73 177.07 4.49 187.36" fill="#b0c2c6" stroke="#eae3df" stroke-miterlimit="10" stroke-width=".75"/>
  <polygon points="7.73 177.07 25.06 177.07 25.07 177.02 7.74 177.02 7.73 177.07" fill="#b0c2c6" stroke="#eae3df" stroke-miterlimit="10" stroke-width=".75"/>
  <polygon points="22.75 187.36 22.81 187.36 25.12 177.07 25.06 177.07 22.75 187.36" fill="#b0c2c6" stroke="#eae3df" stroke-miterlimit="10" stroke-width=".75"/>
  <polygon points="25.06 177.07 25.12 177.07 25.13 177.02 25.07 177.02 25.06 177.07" fill="#b0c2c6" stroke="#eae3df" stroke-miterlimit="10" stroke-width=".75"/>
  <polygon points="7.73 177.07 7.62 177.07 4.38 187.36 4.49 187.36 7.73 177.07" fill="#b0c2c6" stroke="#eae3df" stroke-miterlimit="10" stroke-width=".75"/>
  <polygon points="7.74 177.02 7.64 177.02 7.62 177.07 7.73 177.07 7.74 177.02" fill="#b0c2c6" stroke="#eae3df" stroke-miterlimit="10" stroke-width=".75"/>
  <polygon points="20.22 198.87 39.62 198.87 41.16 187.43 22.8 187.43 20.22 198.87" fill="#b0c2c6" stroke="#eae3df" stroke-miterlimit="10" stroke-width=".75"/>
  <polygon points="22.81 187.36 22.8 187.43 41.16 187.43 41.17 187.36 22.81 187.36" fill="#b0c2c6" stroke="#eae3df" stroke-miterlimit="10" stroke-width=".75"/>
  <polygon points="4.36 187.43 -.62 187.43 -.62 198.87 .76 198.87 4.36 187.43" fill="#b0c2c6" stroke="#eae3df" stroke-miterlimit="10" stroke-width=".75"/>
  <polygon points="4.38 187.36 -.62 187.36 -.62 187.43 4.36 187.43 4.38 187.36" fill="#b0c2c6" stroke="#eae3df" stroke-miterlimit="10" stroke-width=".75"/>
  <polygon points=".87 198.87 20.16 198.87 22.73 187.43 4.47 187.43 .87 198.87" fill="#c0c7c9" stroke="#eae3df" stroke-miterlimit="10" stroke-width=".75"/>
  <polygon points="4.47 187.43 22.73 187.43 22.75 187.36 4.49 187.36 4.47 187.43" fill="#c0c7c9" stroke="#eae3df" stroke-miterlimit="10" stroke-width=".75"/>
  <polygon points="20.16 198.87 20.22 198.87 22.8 187.43 22.73 187.43 20.16 198.87" fill="#c0c7c9" stroke="#eae3df" stroke-miterlimit="10" stroke-width=".75"/>
  <polygon points="22.73 187.43 22.8 187.43 22.81 187.36 22.75 187.36 22.73 187.43" fill="#c0c7c9" stroke="#eae3df" stroke-miterlimit="10" stroke-width=".75"/>
  <polygon points=".87 198.87 4.47 187.43 4.36 187.43 .76 198.87 .76 198.87 .87 198.87" fill="#c0c7c9" stroke="#eae3df" stroke-miterlimit="10" stroke-width=".75"/>
  <polygon points="4.49 187.36 4.38 187.36 4.36 187.43 4.47 187.43 4.49 187.36" fill="#c0c7c9" stroke="#eae3df" stroke-miterlimit="10" stroke-width=".75"/>
  <polygon points="20.21 198.94 17.34 211.72 17.34 211.72 37.89 211.72 37.87 211.84 39.62 198.87 39.61 198.94 20.21 198.94" fill="#c0c7c9" stroke="#eae3df" stroke-miterlimit="10" stroke-width=".75"/>
  <polygon points="20.21 198.94 39.61 198.94 39.62 198.87 20.22 198.87 20.21 198.94" fill="#c0c7c9" stroke="#eae3df" stroke-miterlimit="10" stroke-width=".75"/>
  <polygon points=".73 198.94 -.62 198.94 -.62 203.24 .73 198.94 .73 198.94" fill="#c0c7c9" stroke="#eae3df" stroke-miterlimit="10" stroke-width=".75"/>
  <polygon points=".76 198.87 -.62 198.87 -.62 198.94 .73 198.94 .76 198.87" fill="#c0c7c9" stroke="#eae3df" stroke-miterlimit="10" stroke-width=".75"/>
  <rect x=".71" y="198.91" width=".07" height="0" transform="translate(-189.2 139.89) rotate(-72.52)" fill="#c0c7c9" stroke="#eae3df" stroke-miterlimit="10" stroke-width=".75"/>
  <polygon points="20.14 198.94 .85 198.94 -.62 203.61 -.62 211.72 17.26 211.72 20.14 198.94" fill="#b0c2c6" stroke="#eae3df" stroke-miterlimit="10" stroke-width=".75"/>
  <polygon points=".85 198.94 20.14 198.94 20.16 198.87 .87 198.87 .85 198.94" fill="#b0c2c6" stroke="#eae3df" stroke-miterlimit="10" stroke-width=".75"/>
  <polygon points="17.26 211.72 17.34 211.72 20.21 198.94 20.14 198.94 17.26 211.72" fill="#b0c2c6" stroke="#eae3df" stroke-miterlimit="10" stroke-width=".75"/>
  <polygon points="20.14 198.94 20.21 198.94 20.22 198.87 20.16 198.87 20.14 198.94" fill="#b0c2c6" stroke="#eae3df" stroke-miterlimit="10" stroke-width=".75"/>
  <polygon points=".73 198.94 -.62 203.24 -.62 203.61 .85 198.94 .73 198.94" fill="#b0c2c6" stroke="#eae3df" stroke-miterlimit="10" stroke-width=".75"/>
  <polygon points=".76 198.87 .73 198.94 .85 198.94 .87 198.87 .76 198.87" fill="#b0c2c6" stroke="#eae3df" stroke-miterlimit="10" stroke-width=".75"/>
  <polygon points="99.48 211.84 79.04 211.84 79.04 211.84 79.69 226.24 101.42 226.24 99.48 211.84" fill="#c0c7c9" stroke="#eae3df" stroke-miterlimit="10" stroke-width=".75"/>
  <polygon points="99.48 211.84 99.46 211.72 79.03 211.72 79.04 211.84 99.48 211.84" fill="#c0c7c9" stroke="#eae3df" stroke-miterlimit="10" stroke-width=".75"/>
  <rect x="79.03" y="211.72" width="0" height=".12" fill="#c0c7c9" stroke="#eae3df" stroke-miterlimit="10" stroke-width=".75"/>
  <polygon points="101.55 226.24 123.29 226.24 120.06 211.84 99.6 211.84 101.55 226.24" fill="#b0c2c6" stroke="#eae3df" stroke-miterlimit="10" stroke-width=".75"/>
  <polygon points="99.58 211.72 99.6 211.84 120.06 211.84 120.03 211.72 99.58 211.72" fill="#b0c2c6" stroke="#eae3df" stroke-miterlimit="10" stroke-width=".75"/>
  <polygon points="101.42 226.24 101.55 226.24 99.6 211.84 99.48 211.84 101.42 226.24" fill="#b0c2c6" stroke="#eae3df" stroke-miterlimit="10" stroke-width=".75"/>
  <polygon points="99.48 211.84 99.6 211.84 99.58 211.72 99.46 211.72 99.48 211.84" fill="#b0c2c6" stroke="#eae3df" stroke-miterlimit="10" stroke-width=".75"/>
  <polygon points="123.36 226.24 137.42 226.24 137.42 211.84 120.12 211.84 123.36 226.24" fill="#c0c7c9" stroke="#eae3df" stroke-miterlimit="10" stroke-width=".75"/>
  <polygon points="120.12 211.84 137.42 211.84 137.42 211.72 120.09 211.72 120.12 211.84" fill="#c0c7c9" stroke="#eae3df" stroke-miterlimit="10" stroke-width=".75"/>
  <polygon points="120.06 211.84 123.29 226.24 123.36 226.24 123.36 226.24 120.12 211.84 120.06 211.84 120.06 211.84" fill="#c0c7c9" stroke="#eae3df" stroke-miterlimit="10" stroke-width=".75"/>
  <rect x="120.04" y="211.72" width="0" height=".12" fill="#c0c7c9" stroke="#eae3df" stroke-miterlimit="10" stroke-width=".75"/>
  <polygon points="120.06 211.84 120.12 211.84 120.09 211.72 120.03 211.72 120.06 211.84" fill="#c0c7c9" stroke="#eae3df" stroke-miterlimit="10" stroke-width=".75"/>
  <polygon points="57.75 226.24 58.4 211.84 37.88 211.84 35.94 226.24 57.75 226.24 57.75 226.24" fill="#c0c7c9" stroke="#eae3df" stroke-miterlimit="10" stroke-width=".75"/>
  <polygon points="58.4 211.72 37.9 211.72 37.88 211.84 58.4 211.84 58.4 211.72" fill="#c0c7c9" stroke="#eae3df" stroke-miterlimit="10" stroke-width=".75"/>
  <polygon points="78.96 211.84 58.52 211.84 58.52 211.84 57.88 226.24 79.61 226.24 78.96 211.84" fill="#b0c2c6" stroke="#eae3df" stroke-miterlimit="10" stroke-width=".75"/>
  <polygon points="78.96 211.84 78.96 211.72 58.53 211.72 58.52 211.84 78.96 211.84" fill="#b0c2c6" stroke="#eae3df" stroke-miterlimit="10" stroke-width=".75"/>
  <rect x="58.52" y="211.72" width="0" height=".12" fill="#b0c2c6" stroke="#eae3df" stroke-miterlimit="10" stroke-width=".75"/>
  <polygon points="79.04 211.84 78.96 211.84 79.61 226.24 79.69 226.24 79.04 211.84" fill="#b0c2c6" stroke="#eae3df" stroke-miterlimit="10" stroke-width=".75"/>
  <polygon points="79.03 211.72 78.96 211.72 78.96 211.84 79.04 211.84 79.03 211.72" fill="#b0c2c6" stroke="#eae3df" stroke-miterlimit="10" stroke-width=".75"/>
  <polygon points="58.52 211.84 58.4 211.84 57.75 226.24 57.88 226.24 58.52 211.84" fill="#b0c2c6" stroke="#eae3df" stroke-miterlimit="10" stroke-width=".75"/>
  <polygon points="58.52 211.72 58.4 211.72 58.4 211.84 58.52 211.84 58.52 211.72" fill="#b0c2c6" stroke="#eae3df" stroke-miterlimit="10" stroke-width=".75"/>
  <polygon points="101.43 226.33 79.69 226.33 80.43 242.73 103.64 242.73 101.43 226.33" fill="#b0c2c6" stroke="#eae3df" stroke-miterlimit="10" stroke-width=".75"/>
  <polygon points="79.69 226.24 79.69 226.33 101.43 226.33 101.42 226.24 79.69 226.24" fill="#b0c2c6" stroke="#eae3df" stroke-miterlimit="10" stroke-width=".75"/>
  <polygon points="103.78 242.73 127 242.73 123.31 226.33 101.56 226.33 103.78 242.73" fill="#c0c7c9" stroke="#eae3df" stroke-miterlimit="10" stroke-width=".75"/>
  <polygon points="101.56 226.33 123.31 226.33 123.29 226.24 101.55 226.24 101.56 226.33" fill="#c0c7c9" stroke="#eae3df" stroke-miterlimit="10" stroke-width=".75"/>
  <polygon points="103.64 242.73 103.78 242.73 101.56 226.33 101.43 226.33 103.64 242.73" fill="#c0c7c9" stroke="#eae3df" stroke-miterlimit="10" stroke-width=".75"/>
  <polygon points="101.43 226.33 101.56 226.33 101.55 226.24 101.42 226.24 101.43 226.33" fill="#c0c7c9" stroke="#eae3df" stroke-miterlimit="10" stroke-width=".75"/>
  <polygon points="123.38 226.33 127.07 242.73 137.42 242.73 137.42 226.33 123.38 226.33 123.38 226.33" fill="#b0c2c6" stroke="#eae3df" stroke-miterlimit="10" stroke-width=".75"/>
  <polygon points="123.38 226.33 137.42 226.33 137.42 226.24 123.36 226.24 123.38 226.33" fill="#b0c2c6" stroke="#eae3df" stroke-miterlimit="10" stroke-width=".75"/>
  <rect x="123.37" y="226.24" width="0" height=".09" fill="#b0c2c6" stroke="#eae3df" stroke-miterlimit="10" stroke-width=".75"/>
  <polygon points="127 242.73 127.07 242.73 127.07 242.73 123.38 226.33 123.31 226.33 127 242.73" fill="#b0c2c6" stroke="#eae3df" stroke-miterlimit="10" stroke-width=".75"/>
  <polygon points="123.29 226.24 123.31 226.33 123.38 226.33 123.36 226.24 123.29 226.24" fill="#b0c2c6" stroke="#eae3df" stroke-miterlimit="10" stroke-width=".75"/>
  <polygon points="57.01 242.73 57.75 226.33 35.93 226.33 35.94 226.24 33.72 242.73 57.01 242.73 57.01 242.73" fill="#b0c2c6" stroke="#eae3df" stroke-miterlimit="10" stroke-width=".75"/>
  <polygon points="57.75 226.33 57.75 226.24 35.94 226.24 35.93 226.33 57.75 226.33" fill="#b0c2c6" stroke="#eae3df" stroke-miterlimit="10" stroke-width=".75"/>
  <polygon points="79.62 226.33 57.88 226.33 57.15 242.73 80.35 242.73 79.62 226.33" fill="#c0c7c9" stroke="#eae3df" stroke-miterlimit="10" stroke-width=".75"/>
  <polygon points="79.61 226.24 57.88 226.24 57.88 226.33 79.62 226.33 79.61 226.24" fill="#c0c7c9" stroke="#eae3df" stroke-miterlimit="10" stroke-width=".75"/>
  <polygon points="79.62 226.33 80.35 242.73 80.43 242.73 79.69 226.33 79.62 226.33" fill="#c0c7c9" stroke="#eae3df" stroke-miterlimit="10" stroke-width=".75"/>
  <polygon points="79.69 226.24 79.61 226.24 79.62 226.33 79.69 226.33 79.69 226.24" fill="#c0c7c9" stroke="#eae3df" stroke-miterlimit="10" stroke-width=".75"/>
  <polygon points="57.88 226.33 57.75 226.33 57.75 226.33 57.01 242.73 57.15 242.73 57.88 226.33" fill="#c0c7c9" stroke="#eae3df" stroke-miterlimit="10" stroke-width=".75"/>
  <rect x="57.75" y="226.24" width="0" height=".09" fill="#c0c7c9" stroke="#eae3df" stroke-miterlimit="10" stroke-width=".75"/>
  <polygon points="57.88 226.33 57.88 226.24 57.75 226.24 57.75 226.33 57.88 226.33" fill="#c0c7c9" stroke="#eae3df" stroke-miterlimit="10" stroke-width=".75"/>
  <polygon points="80.44 242.83 81.29 261.62 106.19 261.62 103.66 242.83 80.44 242.83" fill="#c0c7c9" stroke="#eae3df" stroke-miterlimit="10" stroke-width=".75"/>
  <polygon points="80.43 242.73 80.44 242.83 103.66 242.83 103.64 242.73 80.43 242.73" fill="#c0c7c9" stroke="#eae3df" stroke-miterlimit="10" stroke-width=".75"/>
  <polygon points="103.79 242.83 106.33 261.62 131.24 261.62 127.02 242.83 103.79 242.83" fill="#b0c2c6" stroke="#eae3df" stroke-miterlimit="10" stroke-width=".75"/>
  <polygon points="103.79 242.83 127.02 242.83 127 242.73 103.78 242.73 103.79 242.83" fill="#b0c2c6" stroke="#eae3df" stroke-miterlimit="10" stroke-width=".75"/>
  <polygon points="103.66 242.83 106.19 261.62 106.33 261.62 103.79 242.83 103.66 242.83" fill="#b0c2c6" stroke="#eae3df" stroke-miterlimit="10" stroke-width=".75"/>
  <polygon points="103.64 242.73 103.66 242.83 103.79 242.83 103.78 242.73 103.64 242.73" fill="#b0c2c6" stroke="#eae3df" stroke-miterlimit="10" stroke-width=".75"/>
  <polygon points="127.09 242.83 131.32 261.62 137.42 261.62 137.42 242.83 127.09 242.83 127.09 242.83" fill="#c0c7c9" stroke="#eae3df" stroke-miterlimit="10" stroke-width=".75"/>
  <polygon points="127.09 242.83 137.42 242.83 137.42 242.73 127.07 242.73 127.09 242.83" fill="#c0c7c9" stroke="#eae3df" stroke-miterlimit="10" stroke-width=".75"/>
  <rect x="127.08" y="242.73" width="0" height=".11" fill="#c0c7c9" stroke="#eae3df" stroke-miterlimit="10" stroke-width=".75"/>
  <polygon points="131.24 261.62 131.32 261.62 127.09 242.83 127.02 242.83 131.24 261.62" fill="#c0c7c9" stroke="#eae3df" stroke-miterlimit="10" stroke-width=".75"/>
  <polygon points="127 242.73 127.02 242.83 127.09 242.83 127.07 242.73 127 242.73" fill="#c0c7c9" stroke="#eae3df" stroke-miterlimit="10" stroke-width=".75"/>
  <polygon points="57 242.83 33.71 242.83 31.18 261.62 56.16 261.62 57 242.83" fill="#c0c7c9" stroke="#eae3df" stroke-miterlimit="10" stroke-width=".75"/>
  <polygon points="57.01 242.73 33.72 242.73 33.71 242.83 57 242.83 57.01 242.73" fill="#c0c7c9" stroke="#eae3df" stroke-miterlimit="10" stroke-width=".75"/>
  <polygon points="33.71 242.83 33.71 242.83 33.72 242.73 33.71 242.83" fill="#c0c7c9" stroke="#eae3df" stroke-miterlimit="10" stroke-width=".75"/>
  <polygon points="80.36 242.83 57.14 242.83 56.31 261.62 81.2 261.62 80.36 242.83" fill="#b0c2c6" stroke="#eae3df" stroke-miterlimit="10" stroke-width=".75"/>
  <polygon points="57.15 242.73 57.14 242.83 80.36 242.83 80.35 242.73 57.15 242.73" fill="#b0c2c6" stroke="#eae3df" stroke-miterlimit="10" stroke-width=".75"/>
  <polygon points="80.36 242.83 81.2 261.62 81.29 261.62 80.44 242.83 80.36 242.83" fill="#b0c2c6" stroke="#eae3df" stroke-miterlimit="10" stroke-width=".75"/>
  <polygon points="80.43 242.73 80.35 242.73 80.36 242.83 80.44 242.83 80.43 242.73" fill="#b0c2c6" stroke="#eae3df" stroke-miterlimit="10" stroke-width=".75"/>
  <polygon points="57 242.83 57 242.83 56.16 261.62 56.31 261.62 57.14 242.83 57 242.83" fill="#b0c2c6" stroke="#eae3df" stroke-miterlimit="10" stroke-width=".75"/>
  <rect x="57.01" y="242.73" width="0" height=".1" fill="#b0c2c6" stroke="#eae3df" stroke-miterlimit="10" stroke-width=".75"/>
  <polygon points="57.14 242.83 57.15 242.73 57.01 242.73 57 242.83 57.14 242.83" fill="#b0c2c6" stroke="#eae3df" stroke-miterlimit="10" stroke-width=".75"/>
  <polygon points="81.3 261.74 82.1 279.49 108.59 279.49 106.2 261.74 81.3 261.74" fill="#b0c2c6" stroke="#eae3df" stroke-miterlimit="10" stroke-width=".75"/>
  <polygon points="81.29 261.62 81.3 261.74 106.2 261.74 106.19 261.62 81.29 261.62" fill="#b0c2c6" stroke="#eae3df" stroke-miterlimit="10" stroke-width=".75"/>
  <polygon points="106.35 261.74 108.75 279.49 135.26 279.49 131.27 261.74 106.35 261.74" fill="#c0c7c9" stroke="#eae3df" stroke-miterlimit="10" stroke-width=".75"/>
  <polygon points="106.33 261.62 106.35 261.74 131.27 261.74 131.24 261.62 106.33 261.62" fill="#c0c7c9" stroke="#eae3df" stroke-miterlimit="10" stroke-width=".75"/>
  <polygon points="106.2 261.74 108.59 279.49 108.75 279.49 106.35 261.74 106.2 261.74" fill="#c0c7c9" stroke="#eae3df" stroke-miterlimit="10" stroke-width=".75"/>
  <polygon points="106.19 261.62 106.2 261.74 106.35 261.74 106.33 261.62 106.19 261.62" fill="#c0c7c9" stroke="#eae3df" stroke-miterlimit="10" stroke-width=".75"/>
  <polygon points="131.34 261.74 135.34 279.49 137.42 279.49 137.42 261.74 131.34 261.74" fill="#b0c2c6" stroke="#eae3df" stroke-miterlimit="10" stroke-width=".75"/>
  <polygon points="131.34 261.74 137.42 261.74 137.42 261.62 131.32 261.62 131.34 261.74" fill="#b0c2c6" stroke="#eae3df" stroke-miterlimit="10" stroke-width=".75"/>
  <polygon points="131.27 261.74 135.26 279.49 135.34 279.49 131.34 261.74 131.27 261.74" fill="#b0c2c6" stroke="#eae3df" stroke-miterlimit="10" stroke-width=".75"/>
  <polygon points="131.24 261.62 131.27 261.74 131.34 261.74 131.32 261.62 131.24 261.62" fill="#b0c2c6" stroke="#eae3df" stroke-miterlimit="10" stroke-width=".75"/>
  <polygon points="56.15 261.74 31.16 261.74 31.18 261.62 28.77 279.49 55.36 279.49 56.15 261.74" fill="#b0c2c6" stroke="#eae3df" stroke-miterlimit="10" stroke-width=".75"/>
  <polygon points="31.18 261.62 31.16 261.74 56.15 261.74 56.16 261.62 31.18 261.62" fill="#b0c2c6" stroke="#eae3df" stroke-miterlimit="10" stroke-width=".75"/>
  <polygon points="56.3 261.74 55.51 279.49 82.01 279.49 81.21 261.74 56.3 261.74" fill="#c0c7c9" stroke="#eae3df" stroke-miterlimit="10" stroke-width=".75"/>
  <polygon points="56.31 261.62 56.3 261.74 81.21 261.74 81.2 261.62 56.31 261.62" fill="#c0c7c9" stroke="#eae3df" stroke-miterlimit="10" stroke-width=".75"/>
  <polygon points="81.21 261.74 82.01 279.49 82.1 279.49 81.3 261.74 81.21 261.74" fill="#c0c7c9" stroke="#eae3df" stroke-miterlimit="10" stroke-width=".75"/>
  <polygon points="81.2 261.62 81.21 261.74 81.3 261.74 81.29 261.62 81.2 261.62" fill="#c0c7c9" stroke="#eae3df" stroke-miterlimit="10" stroke-width=".75"/>
  <polygon points="56.15 261.74 55.36 279.49 55.51 279.49 56.3 261.74 56.15 261.74" fill="#c0c7c9" stroke="#eae3df" stroke-miterlimit="10" stroke-width=".75"/>
  <polygon points="56.31 261.62 56.16 261.62 56.15 261.74 56.3 261.74 56.31 261.62" fill="#c0c7c9" stroke="#eae3df" stroke-miterlimit="10" stroke-width=".75"/>
  <polygon points="14.07 226.24 35.93 226.24 35.92 226.33 37.87 211.84 17.31 211.84 14.07 226.24" fill="#b0c2c6" stroke="#eae3df" stroke-miterlimit="10" stroke-width=".75"/>
  <polygon points="17.34 211.72 17.31 211.84 37.87 211.84 37.89 211.72 17.34 211.72" fill="#b0c2c6" stroke="#eae3df" stroke-miterlimit="10" stroke-width=".75"/>
  <polygon points="17.24 211.84 -.62 211.84 -.62 226.24 14 226.24 17.24 211.84" fill="#c0c7c9" stroke="#eae3df" stroke-miterlimit="10" stroke-width=".75"/>
  <polygon points="17.26 211.72 -.62 211.72 -.62 211.84 17.24 211.84 17.26 211.72" fill="#c0c7c9" stroke="#eae3df" stroke-miterlimit="10" stroke-width=".75"/>
  <polygon points="17.24 211.84 14 226.24 14.07 226.24 17.31 211.84 17.31 211.84 17.24 211.84" fill="#c0c7c9" stroke="#eae3df" stroke-miterlimit="10" stroke-width=".75"/>
  <rect x="17.26" y="211.78" width=".12" height="0" transform="translate(-193.1 182.22) rotate(-77.33)" fill="#c0c7c9" stroke="#eae3df" stroke-miterlimit="10" stroke-width=".75"/>
  <polygon points="17.24 211.84 17.31 211.84 17.34 211.72 17.26 211.72 17.24 211.84" fill="#c0c7c9" stroke="#eae3df" stroke-miterlimit="10" stroke-width=".75"/>
  <polygon points="10.37 242.73 33.71 242.73 35.92 226.33 14.05 226.33 10.37 242.73" fill="#c0c7c9" stroke="#eae3df" stroke-miterlimit="10" stroke-width=".75"/>
  <polygon points="14.07 226.24 14.05 226.33 35.92 226.33 35.93 226.24 14.07 226.24" fill="#c0c7c9" stroke="#eae3df" stroke-miterlimit="10" stroke-width=".75"/>
  <polygon points="10.29 242.73 13.98 226.33 -.62 226.33 -.62 242.73 10.29 242.73 10.29 242.73" fill="#b0c2c6" stroke="#eae3df" stroke-miterlimit="10" stroke-width=".75"/>
  <polygon points="14 226.24 -.62 226.24 -.62 226.33 13.98 226.33 14 226.24" fill="#b0c2c6" stroke="#eae3df" stroke-miterlimit="10" stroke-width=".75"/>
  <polygon points="10.29 242.73 10.37 242.73 14.05 226.33 13.98 226.33 10.29 242.73" fill="#b0c2c6" stroke="#eae3df" stroke-miterlimit="10" stroke-width=".75"/>
  <polygon points="13.98 226.33 14.05 226.33 14.07 226.24 14 226.24 13.98 226.33" fill="#b0c2c6" stroke="#eae3df" stroke-miterlimit="10" stroke-width=".75"/>
  <polygon points="10.34 242.83 6.12 261.62 31.17 261.62 31.15 261.74 33.71 242.73 33.71 242.73 33.7 242.83 10.34 242.83" fill="#b0c2c6" stroke="#eae3df" stroke-miterlimit="10" stroke-width=".75"/>
  <polygon points="10.34 242.83 33.7 242.83 33.71 242.73 10.37 242.73 10.34 242.83" fill="#b0c2c6" stroke="#eae3df" stroke-miterlimit="10" stroke-width=".75"/>
  <polygon points="-.62 242.83 -.62 261.62 6.03 261.62 10.26 242.83 -.62 242.83" fill="#c0c7c9" stroke="#eae3df" stroke-miterlimit="10" stroke-width=".75"/>
  <polygon points="10.29 242.73 -.62 242.73 -.62 242.83 10.26 242.83 10.29 242.73" fill="#c0c7c9" stroke="#eae3df" stroke-miterlimit="10" stroke-width=".75"/>
  <polygon points="10.26 242.83 6.03 261.62 6.12 261.62 10.34 242.83 10.26 242.83 10.26 242.83" fill="#c0c7c9" stroke="#eae3df" stroke-miterlimit="10" stroke-width=".75"/>
  <rect x="10.27" y="242.73" width="0" height=".11" fill="#c0c7c9" stroke="#eae3df" stroke-miterlimit="10" stroke-width=".75"/>
  <polygon points="10.26 242.83 10.34 242.83 10.37 242.73 10.29 242.73 10.26 242.83" fill="#c0c7c9" stroke="#eae3df" stroke-miterlimit="10" stroke-width=".75"/>
  <polygon points="6.1 261.74 2.11 279.49 28.76 279.49 31.15 261.74 6.1 261.74" fill="#c0c7c9" stroke="#eae3df" stroke-miterlimit="10" stroke-width=".75"/>
  <polygon points="6.12 261.62 6.1 261.74 31.15 261.74 31.17 261.62 6.12 261.62" fill="#c0c7c9" stroke="#eae3df" stroke-miterlimit="10" stroke-width=".75"/>
  <polygon points="-.62 261.74 -.62 279.49 2.01 279.49 6.01 261.74 -.62 261.74" fill="#b0c2c6" stroke="#eae3df" stroke-miterlimit="10" stroke-width=".75"/>
  <polygon points="-.62 261.74 6.01 261.74 6.03 261.62 -.62 261.62 -.62 261.74" fill="#b0c2c6" stroke="#eae3df" stroke-miterlimit="10" stroke-width=".75"/>
  <polygon points="2.01 279.49 2.11 279.49 6.1 261.74 6.01 261.74 2.01 279.49" fill="#b0c2c6" stroke="#eae3df" stroke-miterlimit="10" stroke-width=".75"/>
  <polygon points="6.03 261.62 6.01 261.74 6.1 261.74 6.12 261.62 6.03 261.62" fill="#b0c2c6" stroke="#eae3df" stroke-miterlimit="10" stroke-width=".75"/>
</svg>