<?xml version="1.0" encoding="UTF-8"?>
<svg id="bathroom_floor" xmlns="http://www.w3.org/2000/svg" viewBox="0 0 138.79 121.06">
  <polygon points="94.52 8.86 93.38 .38 77.64 .38 78.03 8.86 94.52 8.86" fill="#b0c2c6" stroke="#eae3df" stroke-miterlimit="10" stroke-width=".75"/>
  <polygon points="111.12 8.86 109.22 .38 93.47 .38 94.62 8.86 111.12 8.86" fill="#c0c7c9" stroke="#eae3df" stroke-miterlimit="10" stroke-width=".75"/>
  <polygon points="94.62 8.86 93.47 .38 93.38 .38 94.52 8.86 94.62 8.86" fill="#c0c7c9" stroke="#eae3df" stroke-miterlimit="10" stroke-width=".75"/>
  <polygon points="127.68 8.86 125.01 .38 109.26 .38 111.17 8.86 127.68 8.86" fill="#b0c2c6" stroke="#eae3df" stroke-miterlimit="10" stroke-width=".75"/>
  <polygon points="111.17 8.86 109.26 .38 109.22 .38 111.12 8.86 111.17 8.86" fill="#b0c2c6" stroke="#eae3df" stroke-miterlimit="10" stroke-width=".75"/>
  <polygon points="138.41 8.86 138.41 .38 125.1 .38 127.77 8.86 138.41 8.86" fill="#c0c7c9" stroke="#eae3df" stroke-miterlimit="10" stroke-width=".75"/>
  <polygon points="127.77 8.86 125.1 .38 125.01 .38 127.68 8.86 127.77 8.86" fill="#c0c7c9" stroke="#eae3df" stroke-miterlimit="10" stroke-width=".75"/>
  <polygon points="61.38 8.86 61.38 8.86 61.76 .38 45.97 .38 44.82 8.91 44.82 8.91 44.83 8.86 61.38 8.86" fill="#b0c2c6" stroke="#eae3df" stroke-miterlimit="10" stroke-width=".75"/>
  <polygon points="77.97 8.86 77.59 .38 61.85 .38 61.48 8.86 77.97 8.86" fill="#c0c7c9" stroke="#eae3df" stroke-miterlimit="10" stroke-width=".75"/>
  <polygon points="78.03 8.86 77.64 .38 77.59 .38 77.97 8.86 78.03 8.86" fill="#c0c7c9" stroke="#eae3df" stroke-miterlimit="10" stroke-width=".75"/>
  <polygon points="61.48 8.86 61.85 .38 61.76 .38 61.38 8.86 61.48 8.86" fill="#c0c7c9" stroke="#eae3df" stroke-miterlimit="10" stroke-width=".75"/>
  <polygon points="78.45 18.21 95.78 18.21 94.53 8.91 78.03 8.91 78.45 18.21 78.45 18.21" fill="#c0c7c9" stroke="#eae3df" stroke-miterlimit="10" stroke-width=".75"/>
  <polygon points="94.53 8.91 94.52 8.86 78.03 8.86 78.03 8.91 94.53 8.91" fill="#c0c7c9" stroke="#eae3df" stroke-miterlimit="10" stroke-width=".75"/>
  <polygon points="113.22 18.21 111.14 8.91 94.63 8.91 95.88 18.21 113.22 18.21" fill="#b0c2c6" stroke="#eae3df" stroke-miterlimit="10" stroke-width=".75"/>
  <polygon points="111.14 8.91 111.12 8.86 94.62 8.86 94.63 8.91 111.14 8.91" fill="#b0c2c6" stroke="#eae3df" stroke-miterlimit="10" stroke-width=".75"/>
  <polygon points="95.78 18.21 95.88 18.21 94.63 8.91 94.53 8.91 95.78 18.21 95.78 18.21" fill="#b0c2c6" stroke="#eae3df" stroke-miterlimit="10" stroke-width=".75"/>
  <polygon points="94.63 8.91 94.62 8.86 94.52 8.86 94.53 8.91 94.63 8.91" fill="#b0c2c6" stroke="#eae3df" stroke-miterlimit="10" stroke-width=".75"/>
  <polygon points="130.61 18.21 127.69 8.91 111.18 8.91 113.28 18.21 130.61 18.21" fill="#c0c7c9" stroke="#eae3df" stroke-miterlimit="10" stroke-width=".75"/>
  <polygon points="127.69 8.91 127.68 8.86 111.17 8.86 111.18 8.91 127.69 8.91" fill="#c0c7c9" stroke="#eae3df" stroke-miterlimit="10" stroke-width=".75"/>
  <polygon points="113.28 18.21 111.18 8.91 111.14 8.91 113.22 18.21 113.28 18.21" fill="#c0c7c9" stroke="#eae3df" stroke-miterlimit="10" stroke-width=".75"/>
  <polygon points="111.18 8.91 111.17 8.86 111.12 8.86 111.14 8.91 111.18 8.91" fill="#c0c7c9" stroke="#eae3df" stroke-miterlimit="10" stroke-width=".75"/>
  <polygon points="130.72 18.21 138.41 18.21 138.41 8.91 127.79 8.91 130.72 18.21" fill="#b0c2c6" stroke="#eae3df" stroke-miterlimit="10" stroke-width=".75"/>
  <polygon points="127.79 8.91 138.41 8.91 138.41 8.86 127.77 8.86 127.79 8.91" fill="#b0c2c6" stroke="#eae3df" stroke-miterlimit="10" stroke-width=".75"/>
  <polygon points="130.61 18.21 130.72 18.21 130.72 18.21 127.79 8.91 127.69 8.91 130.61 18.21" fill="#b0c2c6" stroke="#eae3df" stroke-miterlimit="10" stroke-width=".75"/>
  <polygon points="127.79 8.91 127.77 8.86 127.68 8.86 127.69 8.91 127.79 8.91" fill="#b0c2c6" stroke="#eae3df" stroke-miterlimit="10" stroke-width=".75"/>
  <polygon points="60.96 18.21 60.96 18.21 61.38 8.91 44.82 8.91 43.56 18.27 43.57 18.21 60.96 18.21" fill="#c0c7c9" stroke="#eae3df" stroke-miterlimit="10" stroke-width=".75"/>
  <polygon points="61.38 8.86 44.83 8.86 44.82 8.91 61.38 8.91 61.38 8.86" fill="#c0c7c9" stroke="#eae3df" stroke-miterlimit="10" stroke-width=".75"/>
  <polygon points="77.97 8.91 61.47 8.91 61.06 18.21 78.39 18.21 77.97 8.91" fill="#b0c2c6" stroke="#eae3df" stroke-miterlimit="10" stroke-width=".75"/>
  <polygon points="77.97 8.91 77.97 8.86 61.48 8.86 61.47 8.91 77.97 8.91" fill="#b0c2c6" stroke="#eae3df" stroke-miterlimit="10" stroke-width=".75"/>
  <polygon points="78.45 18.21 78.03 8.91 77.97 8.91 78.39 18.21 78.45 18.21" fill="#b0c2c6" stroke="#eae3df" stroke-miterlimit="10" stroke-width=".75"/>
  <polygon points="78.03 8.91 78.03 8.86 77.97 8.86 77.97 8.91 78.03 8.91" fill="#b0c2c6" stroke="#eae3df" stroke-miterlimit="10" stroke-width=".75"/>
  <polygon points="61.47 8.91 61.38 8.91 61.38 8.91 60.96 18.21 61.06 18.21 61.47 8.91" fill="#b0c2c6" stroke="#eae3df" stroke-miterlimit="10" stroke-width=".75"/>
  <rect x="61.38" y="8.86" width="0" height=".05" fill="#b0c2c6" stroke="#eae3df" stroke-miterlimit="10" stroke-width=".75"/>
  <polygon points="61.47 8.91 61.48 8.86 61.38 8.86 61.38 8.91 61.47 8.91" fill="#b0c2c6" stroke="#eae3df" stroke-miterlimit="10" stroke-width=".75"/>
  <polygon points="95.79 18.27 95.79 18.27 78.46 18.27 78.92 28.55 97.18 28.55 95.79 18.27" fill="#b0c2c6" stroke="#eae3df" stroke-miterlimit="10" stroke-width=".75"/>
  <polygon points="95.79 18.27 95.78 18.21 78.45 18.21 78.46 18.27 95.79 18.27" fill="#b0c2c6" stroke="#eae3df" stroke-miterlimit="10" stroke-width=".75"/>
  <rect x="95.79" y="18.21" width="0" height=".06" transform="translate(-1.58 13.01) rotate(-7.71)" fill="#b0c2c6" stroke="#eae3df" stroke-miterlimit="10" stroke-width=".75"/>
  <polygon points="115.55 28.55 113.24 18.27 95.89 18.27 97.28 28.55 115.55 28.55" fill="#c0c7c9" stroke="#eae3df" stroke-miterlimit="10" stroke-width=".75"/>
  <polygon points="113.24 18.27 113.22 18.21 95.88 18.21 95.89 18.27 113.24 18.27" fill="#c0c7c9" stroke="#eae3df" stroke-miterlimit="10" stroke-width=".75"/>
  <polygon points="97.28 28.55 95.89 18.27 95.79 18.27 97.18 28.55 97.28 28.55" fill="#c0c7c9" stroke="#eae3df" stroke-miterlimit="10" stroke-width=".75"/>
  <polygon points="95.89 18.27 95.88 18.21 95.78 18.21 95.79 18.27 95.89 18.27" fill="#c0c7c9" stroke="#eae3df" stroke-miterlimit="10" stroke-width=".75"/>
  <polygon points="115.6 28.55 133.87 28.55 130.63 18.27 113.29 18.27 115.6 28.55" fill="#b0c2c6" stroke="#eae3df" stroke-miterlimit="10" stroke-width=".75"/>
  <polygon points="113.29 18.27 130.63 18.27 130.61 18.21 113.28 18.21 113.29 18.27" fill="#b0c2c6" stroke="#eae3df" stroke-miterlimit="10" stroke-width=".75"/>
  <polygon points="115.55 28.55 115.6 28.55 113.29 18.27 113.24 18.27 115.55 28.55" fill="#b0c2c6" stroke="#eae3df" stroke-miterlimit="10" stroke-width=".75"/>
  <polygon points="113.29 18.27 113.28 18.21 113.22 18.21 113.24 18.27 113.29 18.27" fill="#b0c2c6" stroke="#eae3df" stroke-miterlimit="10" stroke-width=".75"/>
  <polygon points="130.74 18.27 133.98 28.55 138.41 28.55 138.41 18.27 130.74 18.27 130.74 18.27" fill="#c0c7c9" stroke="#eae3df" stroke-miterlimit="10" stroke-width=".75"/>
  <polygon points="130.74 18.27 138.41 18.27 138.41 18.21 130.72 18.21 130.74 18.27" fill="#c0c7c9" stroke="#eae3df" stroke-miterlimit="10" stroke-width=".75"/>
  <rect x="130.73" y="18.21" width="0" height=".06" fill="#c0c7c9" stroke="#eae3df" stroke-miterlimit="10" stroke-width=".75"/>
  <polygon points="133.87 28.55 133.98 28.55 130.74 18.27 130.63 18.27 133.87 28.55" fill="#c0c7c9" stroke="#eae3df" stroke-miterlimit="10" stroke-width=".75"/>
  <polygon points="130.61 18.21 130.63 18.27 130.74 18.27 130.72 18.21 130.61 18.21" fill="#c0c7c9" stroke="#eae3df" stroke-miterlimit="10" stroke-width=".75"/>
  <polygon points="60.96 18.27 43.56 18.27 42.18 28.55 60.49 28.55 60.96 18.27" fill="#b0c2c6" stroke="#eae3df" stroke-miterlimit="10" stroke-width=".75"/>
  <polygon points="60.96 18.21 43.57 18.21 43.56 18.27 60.96 18.27 60.96 18.21" fill="#b0c2c6" stroke="#eae3df" stroke-miterlimit="10" stroke-width=".75"/>
  <polygon points="78.39 18.27 61.06 18.27 60.6 28.55 78.86 28.55 78.39 18.27" fill="#c0c7c9" stroke="#eae3df" stroke-miterlimit="10" stroke-width=".75"/>
  <polygon points="78.39 18.21 61.06 18.21 61.06 18.27 78.39 18.27 78.39 18.21" fill="#c0c7c9" stroke="#eae3df" stroke-miterlimit="10" stroke-width=".75"/>
  <polygon points="78.92 28.55 78.46 18.27 78.46 18.27 78.39 18.27 78.86 28.55 78.92 28.55 78.92 28.55" fill="#c0c7c9" stroke="#eae3df" stroke-miterlimit="10" stroke-width=".75"/>
  <rect x="78.45" y="18.21" width="0" height=".06" transform="translate(-.75 3.58) rotate(-2.6)" fill="#c0c7c9" stroke="#eae3df" stroke-miterlimit="10" stroke-width=".75"/>
  <polygon points="78.45 18.21 78.39 18.21 78.39 18.27 78.46 18.27 78.45 18.21" fill="#c0c7c9" stroke="#eae3df" stroke-miterlimit="10" stroke-width=".75"/>
  <polygon points="61.06 18.27 60.96 18.27 60.96 18.27 60.49 28.55 60.6 28.55 61.06 18.27" fill="#c0c7c9" stroke="#eae3df" stroke-miterlimit="10" stroke-width=".75"/>
  <rect x="60.96" y="18.21" width="0" height=".06" fill="#c0c7c9" stroke="#eae3df" stroke-miterlimit="10" stroke-width=".75"/>
  <polygon points="61.06 18.27 61.06 18.21 60.96 18.21 60.96 18.27 61.06 18.27" fill="#c0c7c9" stroke="#eae3df" stroke-miterlimit="10" stroke-width=".75"/>
  <polygon points="97.18 28.62 78.92 28.62 78.92 28.62 79.44 40.06 98.73 40.06 97.18 28.62" fill="#c0c7c9" stroke="#eae3df" stroke-miterlimit="10" stroke-width=".75"/>
  <polygon points="97.18 28.62 97.18 28.55 78.92 28.55 78.92 28.62 97.18 28.62" fill="#c0c7c9" stroke="#eae3df" stroke-miterlimit="10" stroke-width=".75"/>
  <rect x="78.92" y="28.55" width="0" height=".06" fill="#c0c7c9" stroke="#eae3df" stroke-miterlimit="10" stroke-width=".75"/>
  <polygon points="97.29 28.62 98.84 40.06 118.14 40.06 115.56 28.62 97.29 28.62" fill="#b0c2c6" stroke="#eae3df" stroke-miterlimit="10" stroke-width=".75"/>
  <polygon points="97.28 28.55 97.29 28.62 115.56 28.62 115.55 28.55 97.28 28.55" fill="#b0c2c6" stroke="#eae3df" stroke-miterlimit="10" stroke-width=".75"/>
  <polygon points="98.73 40.06 98.84 40.06 97.29 28.62 97.18 28.62 98.73 40.06" fill="#b0c2c6" stroke="#eae3df" stroke-miterlimit="10" stroke-width=".75"/>
  <polygon points="97.18 28.55 97.18 28.62 97.29 28.62 97.28 28.55 97.18 28.55" fill="#b0c2c6" stroke="#eae3df" stroke-miterlimit="10" stroke-width=".75"/>
  <polygon points="118.19 40.06 137.49 40.06 133.89 28.62 115.62 28.62 118.19 40.06" fill="#c0c7c9" stroke="#eae3df" stroke-miterlimit="10" stroke-width=".75"/>
  <polygon points="115.62 28.62 133.89 28.62 133.87 28.55 115.6 28.55 115.62 28.62" fill="#c0c7c9" stroke="#eae3df" stroke-miterlimit="10" stroke-width=".75"/>
  <polygon points="115.56 28.62 118.14 40.06 118.19 40.06 115.62 28.62 115.56 28.62" fill="#c0c7c9" stroke="#eae3df" stroke-miterlimit="10" stroke-width=".75"/>
  <polygon points="115.56 28.62 115.62 28.62 115.6 28.55 115.55 28.55 115.56 28.62" fill="#c0c7c9" stroke="#eae3df" stroke-miterlimit="10" stroke-width=".75"/>
  <polygon points="137.6 40.06 138.41 40.06 138.41 28.62 134 28.62 137.6 40.06" fill="#b0c2c6" stroke="#eae3df" stroke-miterlimit="10" stroke-width=".75"/>
  <polygon points="134 28.62 138.41 28.62 138.41 28.55 133.98 28.55 134 28.62" fill="#b0c2c6" stroke="#eae3df" stroke-miterlimit="10" stroke-width=".75"/>
  <polygon points="137.49 40.06 137.6 40.06 137.6 40.06 134 28.62 133.89 28.62 137.49 40.06" fill="#b0c2c6" stroke="#eae3df" stroke-miterlimit="10" stroke-width=".75"/>
  <polygon points="133.89 28.62 134 28.62 133.98 28.55 133.87 28.55 133.89 28.62" fill="#b0c2c6" stroke="#eae3df" stroke-miterlimit="10" stroke-width=".75"/>
  <polygon points="59.98 40.06 60.49 28.62 42.17 28.62 42.18 28.55 40.61 40.13 40.62 40.06 59.98 40.06" fill="#c0c7c9" stroke="#eae3df" stroke-miterlimit="10" stroke-width=".75"/>
  <polygon points="60.49 28.62 60.49 28.55 42.18 28.55 42.17 28.62 60.49 28.62" fill="#c0c7c9" stroke="#eae3df" stroke-miterlimit="10" stroke-width=".75"/>
  <polygon points="78.86 28.62 60.6 28.62 60.09 40.06 79.37 40.06 78.86 28.62" fill="#b0c2c6" stroke="#eae3df" stroke-miterlimit="10" stroke-width=".75"/>
  <polygon points="78.86 28.55 60.6 28.55 60.6 28.62 78.86 28.62 78.86 28.55" fill="#b0c2c6" stroke="#eae3df" stroke-miterlimit="10" stroke-width=".75"/>
  <polygon points="78.92 28.62 78.86 28.62 79.37 40.06 79.44 40.06 78.92 28.62" fill="#b0c2c6" stroke="#eae3df" stroke-miterlimit="10" stroke-width=".75"/>
  <polygon points="78.92 28.55 78.86 28.55 78.86 28.62 78.92 28.62 78.92 28.55" fill="#b0c2c6" stroke="#eae3df" stroke-miterlimit="10" stroke-width=".75"/>
  <polygon points="60.09 40.06 60.6 28.62 60.49 28.62 59.98 40.06 60.09 40.06 60.09 40.06" fill="#b0c2c6" stroke="#eae3df" stroke-miterlimit="10" stroke-width=".75"/>
  <polygon points="60.6 28.55 60.49 28.55 60.49 28.62 60.6 28.62 60.6 28.55" fill="#b0c2c6" stroke="#eae3df" stroke-miterlimit="10" stroke-width=".75"/>
  <polygon points="98.74 40.13 79.45 40.13 80.02 52.91 100.46 52.91 98.74 40.13" fill="#b0c2c6" stroke="#eae3df" stroke-miterlimit="10" stroke-width=".75"/>
  <polygon points="98.73 40.06 79.44 40.06 79.45 40.13 98.74 40.13 98.73 40.06" fill="#b0c2c6" stroke="#eae3df" stroke-miterlimit="10" stroke-width=".75"/>
  <polygon points="100.58 52.91 121.02 52.91 121.02 52.91 118.15 40.13 98.85 40.13 100.58 52.91" fill="#c0c7c9" stroke="#eae3df" stroke-miterlimit="10" stroke-width=".75"/>
  <polygon points="98.85 40.13 118.15 40.13 118.14 40.06 98.84 40.06 98.85 40.13" fill="#c0c7c9" stroke="#eae3df" stroke-miterlimit="10" stroke-width=".75"/>
  <polygon points="100.46 52.91 100.58 52.91 98.85 40.13 98.74 40.13 100.46 52.91" fill="#c0c7c9" stroke="#eae3df" stroke-miterlimit="10" stroke-width=".75"/>
  <polygon points="98.74 40.13 98.85 40.13 98.84 40.06 98.73 40.06 98.74 40.13" fill="#c0c7c9" stroke="#eae3df" stroke-miterlimit="10" stroke-width=".75"/>
  <polygon points="118.21 40.13 121.08 52.91 138.41 52.91 138.41 43.01 137.51 40.13 118.21 40.13" fill="#b0c2c6" stroke="#eae3df" stroke-miterlimit="10" stroke-width=".75"/>
  <polygon points="118.19 40.06 118.21 40.13 137.51 40.13 137.49 40.06 118.19 40.06" fill="#b0c2c6" stroke="#eae3df" stroke-miterlimit="10" stroke-width=".75"/>
  <polygon points="121.02 52.91 121.08 52.91 118.21 40.13 118.15 40.13 121.02 52.91" fill="#b0c2c6" stroke="#eae3df" stroke-miterlimit="10" stroke-width=".75"/>
  <polygon points="118.14 40.06 118.15 40.13 118.21 40.13 118.19 40.06 118.14 40.06" fill="#b0c2c6" stroke="#eae3df" stroke-miterlimit="10" stroke-width=".75"/>
  <polygon points="59.4 52.91 59.97 40.13 40.61 40.13 38.88 53.03 38.88 53.03 38.89 52.91 59.4 52.91" fill="#b0c2c6" stroke="#eae3df" stroke-miterlimit="10" stroke-width=".75"/>
  <polygon points="59.98 40.06 40.62 40.06 40.61 40.13 59.97 40.13 59.98 40.06" fill="#b0c2c6" stroke="#eae3df" stroke-miterlimit="10" stroke-width=".75"/>
  <polygon points="79.38 40.13 60.09 40.13 60.09 40.13 59.52 52.91 79.95 52.91 79.38 40.13" fill="#c0c7c9" stroke="#eae3df" stroke-miterlimit="10" stroke-width=".75"/>
  <polygon points="79.38 40.13 79.37 40.06 60.09 40.06 60.09 40.13 79.38 40.13" fill="#c0c7c9" stroke="#eae3df" stroke-miterlimit="10" stroke-width=".75"/>
  <rect x="60.09" y="40.06" width="0" height=".07" fill="#c0c7c9" stroke="#eae3df" stroke-miterlimit="10" stroke-width=".75"/>
  <polygon points="80.02 52.91 79.45 40.13 79.38 40.13 79.95 52.91 80.02 52.91 80.02 52.91" fill="#c0c7c9" stroke="#eae3df" stroke-miterlimit="10" stroke-width=".75"/>
  <polygon points="79.44 40.06 79.37 40.06 79.38 40.13 79.45 40.13 79.44 40.06" fill="#c0c7c9" stroke="#eae3df" stroke-miterlimit="10" stroke-width=".75"/>
  <polygon points="59.52 52.91 60.09 40.13 59.97 40.13 59.4 52.91 59.52 52.91 59.52 52.91" fill="#c0c7c9" stroke="#eae3df" stroke-miterlimit="10" stroke-width=".75"/>
  <polygon points="60.09 40.06 59.98 40.06 59.97 40.13 60.09 40.13 60.09 40.06" fill="#c0c7c9" stroke="#eae3df" stroke-miterlimit="10" stroke-width=".75"/>
  <polygon points="44.82 8.86 44.81 8.91 45.96 .38 30.14 .38 28.23 8.86 44.82 8.86" fill="#c0c7c9" stroke="#eae3df" stroke-miterlimit="10" stroke-width=".75"/>
  <polygon points="11.58 8.86 14.25 .38 .38 .38 .38 8.86 11.58 8.86" fill="#c0c7c9" stroke="#eae3df" stroke-miterlimit="10" stroke-width=".75"/>
  <polygon points="28.17 8.86 30.08 .38 14.35 .38 11.68 8.86 28.17 8.86" fill="#b0c2c6" stroke="#eae3df" stroke-miterlimit="10" stroke-width=".75"/>
  <polygon points="28.17 8.86 28.23 8.86 30.14 .38 30.08 .38 28.17 8.86 28.17 8.86" fill="#b0c2c6" stroke="#eae3df" stroke-miterlimit="10" stroke-width=".75"/>
  <polygon points="11.68 8.86 14.35 .38 14.25 .38 11.58 8.86 11.68 8.86" fill="#b0c2c6" stroke="#eae3df" stroke-miterlimit="10" stroke-width=".75"/>
  <polygon points="26.13 18.21 43.56 18.21 43.55 18.27 43.55 18.27 44.81 8.91 28.22 8.91 26.13 18.21" fill="#b0c2c6" stroke="#eae3df" stroke-miterlimit="10" stroke-width=".75"/>
  <polygon points="28.23 8.86 28.22 8.91 44.81 8.91 44.82 8.86 28.23 8.86" fill="#b0c2c6" stroke="#eae3df" stroke-miterlimit="10" stroke-width=".75"/>
  <polygon points="11.56 8.91 .38 8.91 .38 18.21 8.64 18.21 11.56 8.91" fill="#b0c2c6" stroke="#eae3df" stroke-miterlimit="10" stroke-width=".75"/>
  <polygon points="11.56 8.91 11.58 8.86 .38 8.86 .38 8.91 11.56 8.91" fill="#b0c2c6" stroke="#eae3df" stroke-miterlimit="10" stroke-width=".75"/>
  <polygon points="26.07 18.21 28.16 8.91 28.16 8.91 11.66 8.91 8.74 18.21 26.07 18.21" fill="#c0c7c9" stroke="#eae3df" stroke-miterlimit="10" stroke-width=".75"/>
  <polygon points="28.16 8.91 28.17 8.86 11.68 8.86 11.66 8.91 28.16 8.91" fill="#c0c7c9" stroke="#eae3df" stroke-miterlimit="10" stroke-width=".75"/>
  <rect x="28.14" y="8.89" width=".05" height="0" transform="translate(13.31 34.42) rotate(-77.32)" fill="#c0c7c9" stroke="#eae3df" stroke-miterlimit="10" stroke-width=".75"/>
  <polygon points="26.07 18.21 26.13 18.21 28.22 8.91 28.16 8.91 26.07 18.21" fill="#c0c7c9" stroke="#eae3df" stroke-miterlimit="10" stroke-width=".75"/>
  <polygon points="28.22 8.91 28.23 8.86 28.17 8.86 28.16 8.91 28.22 8.91" fill="#c0c7c9" stroke="#eae3df" stroke-miterlimit="10" stroke-width=".75"/>
  <polygon points="8.64 18.21 8.74 18.21 11.66 8.91 11.56 8.91 8.64 18.21 8.64 18.21" fill="#c0c7c9" stroke="#eae3df" stroke-miterlimit="10" stroke-width=".75"/>
  <polygon points="11.66 8.91 11.68 8.86 11.58 8.86 11.56 8.91 11.66 8.91" fill="#c0c7c9" stroke="#eae3df" stroke-miterlimit="10" stroke-width=".75"/>
  <polygon points="23.8 28.55 42.17 28.55 42.16 28.62 43.55 18.27 26.12 18.27 23.8 28.55" fill="#c0c7c9" stroke="#eae3df" stroke-miterlimit="10" stroke-width=".75"/>
  <polygon points="26.13 18.21 26.12 18.27 43.55 18.27 43.56 18.21 26.13 18.21" fill="#c0c7c9" stroke="#eae3df" stroke-miterlimit="10" stroke-width=".75"/>
  <polygon points="8.62 18.27 8.62 18.27 .38 18.27 .38 28.55 5.38 28.55 8.62 18.27" fill="#c0c7c9" stroke="#eae3df" stroke-miterlimit="10" stroke-width=".75"/>
  <polygon points="8.64 18.21 .38 18.21 .38 18.27 8.62 18.27 8.64 18.21" fill="#c0c7c9" stroke="#eae3df" stroke-miterlimit="10" stroke-width=".75"/>
  <rect x="8.6" y="18.24" width=".06" height="0" transform="translate(-11.36 21) rotate(-72.57)" fill="#c0c7c9" stroke="#eae3df" stroke-miterlimit="10" stroke-width=".75"/>
  <polygon points="5.49 28.55 23.74 28.55 26.06 18.27 8.72 18.27 5.49 28.55" fill="#b0c2c6" stroke="#eae3df" stroke-miterlimit="10" stroke-width=".75"/>
  <polygon points="8.72 18.27 26.06 18.27 26.07 18.21 8.74 18.21 8.72 18.27" fill="#b0c2c6" stroke="#eae3df" stroke-miterlimit="10" stroke-width=".75"/>
  <polygon points="23.74 28.55 23.8 28.55 26.12 18.27 26.06 18.27 23.74 28.55" fill="#b0c2c6" stroke="#eae3df" stroke-miterlimit="10" stroke-width=".75"/>
  <polygon points="26.06 18.27 26.12 18.27 26.13 18.21 26.07 18.21 26.06 18.27" fill="#b0c2c6" stroke="#eae3df" stroke-miterlimit="10" stroke-width=".75"/>
  <polygon points="8.72 18.27 8.62 18.27 5.38 28.55 5.49 28.55 8.72 18.27" fill="#b0c2c6" stroke="#eae3df" stroke-miterlimit="10" stroke-width=".75"/>
  <polygon points="8.74 18.21 8.64 18.21 8.62 18.27 8.72 18.27 8.74 18.21" fill="#b0c2c6" stroke="#eae3df" stroke-miterlimit="10" stroke-width=".75"/>
  <polygon points="21.22 40.06 40.62 40.06 42.16 28.62 23.79 28.62 21.22 40.06" fill="#b0c2c6" stroke="#eae3df" stroke-miterlimit="10" stroke-width=".75"/>
  <polygon points="23.8 28.55 23.79 28.62 42.16 28.62 42.17 28.55 23.8 28.55" fill="#b0c2c6" stroke="#eae3df" stroke-miterlimit="10" stroke-width=".75"/>
  <polygon points="5.36 28.62 .38 28.62 .38 40.06 1.75 40.06 5.36 28.62" fill="#b0c2c6" stroke="#eae3df" stroke-miterlimit="10" stroke-width=".75"/>
  <polygon points="5.38 28.55 .38 28.55 .38 28.62 5.36 28.62 5.38 28.55" fill="#b0c2c6" stroke="#eae3df" stroke-miterlimit="10" stroke-width=".75"/>
  <polygon points="1.87 40.06 21.15 40.06 23.73 28.62 5.47 28.62 1.87 40.06" fill="#c0c7c9" stroke="#eae3df" stroke-miterlimit="10" stroke-width=".75"/>
  <polygon points="5.47 28.62 23.73 28.62 23.74 28.55 5.49 28.55 5.47 28.62" fill="#c0c7c9" stroke="#eae3df" stroke-miterlimit="10" stroke-width=".75"/>
  <polygon points="21.15 40.06 21.22 40.06 23.79 28.62 23.73 28.62 21.15 40.06" fill="#c0c7c9" stroke="#eae3df" stroke-miterlimit="10" stroke-width=".75"/>
  <polygon points="23.73 28.62 23.79 28.62 23.8 28.55 23.74 28.55 23.73 28.62" fill="#c0c7c9" stroke="#eae3df" stroke-miterlimit="10" stroke-width=".75"/>
  <polygon points="1.87 40.06 5.47 28.62 5.36 28.62 1.75 40.06 1.75 40.06 1.87 40.06" fill="#c0c7c9" stroke="#eae3df" stroke-miterlimit="10" stroke-width=".75"/>
  <polygon points="5.49 28.55 5.38 28.55 5.36 28.62 5.47 28.62 5.49 28.55" fill="#c0c7c9" stroke="#eae3df" stroke-miterlimit="10" stroke-width=".75"/>
  <polygon points="21.2 40.13 18.33 52.91 18.33 52.91 38.88 52.91 38.87 53.03 40.62 40.06 40.61 40.13 21.2 40.13" fill="#c0c7c9" stroke="#eae3df" stroke-miterlimit="10" stroke-width=".75"/>
  <polygon points="21.2 40.13 40.61 40.13 40.62 40.06 21.22 40.06 21.2 40.13" fill="#c0c7c9" stroke="#eae3df" stroke-miterlimit="10" stroke-width=".75"/>
  <polygon points="1.73 40.13 .38 40.13 .38 44.43 1.73 40.13 1.73 40.13" fill="#c0c7c9" stroke="#eae3df" stroke-miterlimit="10" stroke-width=".75"/>
  <polygon points="1.75 40.06 .38 40.06 .38 40.13 1.73 40.13 1.75 40.06" fill="#c0c7c9" stroke="#eae3df" stroke-miterlimit="10" stroke-width=".75"/>
  <rect x="1.7" y="40.1" width=".07" height="0" transform="translate(-37.03 29.72) rotate(-72.52)" fill="#c0c7c9" stroke="#eae3df" stroke-miterlimit="10" stroke-width=".75"/>
  <polygon points="21.13 40.13 1.84 40.13 .38 44.8 .38 52.91 18.26 52.91 21.13 40.13" fill="#b0c2c6" stroke="#eae3df" stroke-miterlimit="10" stroke-width=".75"/>
  <polygon points="1.84 40.13 21.13 40.13 21.15 40.06 1.87 40.06 1.84 40.13" fill="#b0c2c6" stroke="#eae3df" stroke-miterlimit="10" stroke-width=".75"/>
  <polygon points="18.26 52.91 18.33 52.91 21.2 40.13 21.13 40.13 18.26 52.91" fill="#b0c2c6" stroke="#eae3df" stroke-miterlimit="10" stroke-width=".75"/>
  <polygon points="21.13 40.13 21.2 40.13 21.22 40.06 21.15 40.06 21.13 40.13" fill="#b0c2c6" stroke="#eae3df" stroke-miterlimit="10" stroke-width=".75"/>
  <polygon points="1.73 40.13 .38 44.43 .38 44.8 1.84 40.13 1.73 40.13" fill="#b0c2c6" stroke="#eae3df" stroke-miterlimit="10" stroke-width=".75"/>
  <polygon points="1.75 40.06 1.73 40.13 1.84 40.13 1.87 40.06 1.75 40.06" fill="#b0c2c6" stroke="#eae3df" stroke-miterlimit="10" stroke-width=".75"/>
  <polygon points="100.47 53.03 80.03 53.03 80.03 53.03 80.68 67.43 102.41 67.43 100.47 53.03" fill="#c0c7c9" stroke="#eae3df" stroke-miterlimit="10" stroke-width=".75"/>
  <polygon points="100.47 53.03 100.46 52.91 80.02 52.91 80.03 53.03 100.47 53.03" fill="#c0c7c9" stroke="#eae3df" stroke-miterlimit="10" stroke-width=".75"/>
  <rect x="80.03" y="52.91" width="0" height=".12" fill="#c0c7c9" stroke="#eae3df" stroke-miterlimit="10" stroke-width=".75"/>
  <polygon points="102.54 67.43 124.29 67.43 121.05 53.03 100.59 53.03 102.54 67.43" fill="#b0c2c6" stroke="#eae3df" stroke-miterlimit="10" stroke-width=".75"/>
  <polygon points="100.58 52.91 100.59 53.03 121.05 53.03 121.02 52.91 100.58 52.91" fill="#b0c2c6" stroke="#eae3df" stroke-miterlimit="10" stroke-width=".75"/>
  <polygon points="102.41 67.43 102.54 67.43 100.59 53.03 100.47 53.03 102.41 67.43" fill="#b0c2c6" stroke="#eae3df" stroke-miterlimit="10" stroke-width=".75"/>
  <polygon points="100.47 53.03 100.59 53.03 100.58 52.91 100.46 52.91 100.47 53.03" fill="#b0c2c6" stroke="#eae3df" stroke-miterlimit="10" stroke-width=".75"/>
  <polygon points="124.35 67.43 138.41 67.43 138.41 53.03 121.11 53.03 124.35 67.43" fill="#c0c7c9" stroke="#eae3df" stroke-miterlimit="10" stroke-width=".75"/>
  <polygon points="121.11 53.03 138.41 53.03 138.41 52.91 121.08 52.91 121.11 53.03" fill="#c0c7c9" stroke="#eae3df" stroke-miterlimit="10" stroke-width=".75"/>
  <polygon points="121.05 53.03 124.29 67.43 124.35 67.43 124.35 67.43 121.11 53.03 121.05 53.03 121.05 53.03" fill="#c0c7c9" stroke="#eae3df" stroke-miterlimit="10" stroke-width=".75"/>
  <rect x="121.04" y="52.91" width="0" height=".12" fill="#c0c7c9" stroke="#eae3df" stroke-miterlimit="10" stroke-width=".75"/>
  <polygon points="121.05 53.03 121.11 53.03 121.08 52.91 121.02 52.91 121.05 53.03" fill="#c0c7c9" stroke="#eae3df" stroke-miterlimit="10" stroke-width=".75"/>
  <polygon points="58.75 67.43 59.39 53.03 38.88 53.03 36.94 67.43 58.75 67.43 58.75 67.43" fill="#c0c7c9" stroke="#eae3df" stroke-miterlimit="10" stroke-width=".75"/>
  <polygon points="59.4 52.91 38.89 52.91 38.88 53.03 59.39 53.03 59.4 52.91" fill="#c0c7c9" stroke="#eae3df" stroke-miterlimit="10" stroke-width=".75"/>
  <polygon points="79.96 53.03 59.51 53.03 59.51 53.03 58.87 67.43 80.61 67.43 79.96 53.03" fill="#b0c2c6" stroke="#eae3df" stroke-miterlimit="10" stroke-width=".75"/>
  <polygon points="79.96 53.03 79.95 52.91 59.52 52.91 59.51 53.03 79.96 53.03" fill="#b0c2c6" stroke="#eae3df" stroke-miterlimit="10" stroke-width=".75"/>
  <rect x="59.52" y="52.91" width="0" height=".12" fill="#b0c2c6" stroke="#eae3df" stroke-miterlimit="10" stroke-width=".75"/>
  <polygon points="80.03 53.03 79.96 53.03 80.61 67.43 80.68 67.43 80.03 53.03" fill="#b0c2c6" stroke="#eae3df" stroke-miterlimit="10" stroke-width=".75"/>
  <polygon points="80.02 52.91 79.95 52.91 79.96 53.03 80.03 53.03 80.02 52.91" fill="#b0c2c6" stroke="#eae3df" stroke-miterlimit="10" stroke-width=".75"/>
  <polygon points="59.51 53.03 59.39 53.03 58.75 67.43 58.87 67.43 59.51 53.03" fill="#b0c2c6" stroke="#eae3df" stroke-miterlimit="10" stroke-width=".75"/>
  <polygon points="59.52 52.91 59.4 52.91 59.39 53.03 59.51 53.03 59.52 52.91" fill="#b0c2c6" stroke="#eae3df" stroke-miterlimit="10" stroke-width=".75"/>
  <polygon points="102.43 67.52 80.69 67.52 81.43 83.92 104.64 83.92 102.43 67.52" fill="#b0c2c6" stroke="#eae3df" stroke-miterlimit="10" stroke-width=".75"/>
  <polygon points="80.68 67.43 80.69 67.52 102.43 67.52 102.41 67.43 80.68 67.43" fill="#b0c2c6" stroke="#eae3df" stroke-miterlimit="10" stroke-width=".75"/>
  <polygon points="104.77 83.92 127.99 83.92 124.31 67.52 102.55 67.52 104.77 83.92" fill="#c0c7c9" stroke="#eae3df" stroke-miterlimit="10" stroke-width=".75"/>
  <polygon points="102.55 67.52 124.31 67.52 124.29 67.43 102.54 67.43 102.55 67.52" fill="#c0c7c9" stroke="#eae3df" stroke-miterlimit="10" stroke-width=".75"/>
  <polygon points="104.64 83.92 104.77 83.92 102.55 67.52 102.43 67.52 104.64 83.92" fill="#c0c7c9" stroke="#eae3df" stroke-miterlimit="10" stroke-width=".75"/>
  <polygon points="102.43 67.52 102.55 67.52 102.54 67.43 102.41 67.43 102.43 67.52" fill="#c0c7c9" stroke="#eae3df" stroke-miterlimit="10" stroke-width=".75"/>
  <polygon points="124.37 67.52 128.06 83.92 138.41 83.92 138.41 67.52 124.37 67.52 124.37 67.52" fill="#b0c2c6" stroke="#eae3df" stroke-miterlimit="10" stroke-width=".75"/>
  <polygon points="124.37 67.52 138.41 67.52 138.41 67.43 124.35 67.43 124.37 67.52" fill="#b0c2c6" stroke="#eae3df" stroke-miterlimit="10" stroke-width=".75"/>
  <rect x="124.36" y="67.43" width="0" height=".09" fill="#b0c2c6" stroke="#eae3df" stroke-miterlimit="10" stroke-width=".75"/>
  <polygon points="127.99 83.92 128.06 83.92 128.06 83.92 124.37 67.52 124.31 67.52 127.99 83.92" fill="#b0c2c6" stroke="#eae3df" stroke-miterlimit="10" stroke-width=".75"/>
  <polygon points="124.29 67.43 124.31 67.52 124.37 67.52 124.35 67.43 124.29 67.43" fill="#b0c2c6" stroke="#eae3df" stroke-miterlimit="10" stroke-width=".75"/>
  <polygon points="58 83.92 58.74 67.52 36.92 67.52 36.94 67.43 34.72 83.92 58 83.92 58 83.92" fill="#b0c2c6" stroke="#eae3df" stroke-miterlimit="10" stroke-width=".75"/>
  <polygon points="58.74 67.52 58.75 67.43 36.94 67.43 36.92 67.52 58.74 67.52" fill="#b0c2c6" stroke="#eae3df" stroke-miterlimit="10" stroke-width=".75"/>
  <polygon points="80.61 67.52 58.87 67.52 58.14 83.92 81.35 83.92 80.61 67.52" fill="#c0c7c9" stroke="#eae3df" stroke-miterlimit="10" stroke-width=".75"/>
  <polygon points="80.61 67.43 58.87 67.43 58.87 67.52 80.61 67.52 80.61 67.43" fill="#c0c7c9" stroke="#eae3df" stroke-miterlimit="10" stroke-width=".75"/>
  <polygon points="80.61 67.52 81.35 83.92 81.43 83.92 80.69 67.52 80.61 67.52" fill="#c0c7c9" stroke="#eae3df" stroke-miterlimit="10" stroke-width=".75"/>
  <polygon points="80.68 67.43 80.61 67.43 80.61 67.52 80.69 67.52 80.68 67.43" fill="#c0c7c9" stroke="#eae3df" stroke-miterlimit="10" stroke-width=".75"/>
  <polygon points="58.87 67.52 58.74 67.52 58.74 67.52 58 83.92 58.14 83.92 58.87 67.52" fill="#c0c7c9" stroke="#eae3df" stroke-miterlimit="10" stroke-width=".75"/>
  <rect x="58.74" y="67.43" width="0" height=".09" fill="#c0c7c9" stroke="#eae3df" stroke-miterlimit="10" stroke-width=".75"/>
  <polygon points="58.87 67.52 58.87 67.43 58.75 67.43 58.74 67.52 58.87 67.52" fill="#c0c7c9" stroke="#eae3df" stroke-miterlimit="10" stroke-width=".75"/>
  <polygon points="81.43 84.02 82.28 102.81 107.18 102.81 104.65 84.02 81.43 84.02" fill="#c0c7c9" stroke="#eae3df" stroke-miterlimit="10" stroke-width=".75"/>
  <polygon points="81.43 83.92 81.43 84.02 104.65 84.02 104.64 83.92 81.43 83.92" fill="#c0c7c9" stroke="#eae3df" stroke-miterlimit="10" stroke-width=".75"/>
  <polygon points="104.79 84.02 107.33 102.81 132.24 102.81 128.02 84.02 104.79 84.02" fill="#b0c2c6" stroke="#eae3df" stroke-miterlimit="10" stroke-width=".75"/>
  <polygon points="104.79 84.02 128.02 84.02 127.99 83.92 104.77 83.92 104.79 84.02" fill="#b0c2c6" stroke="#eae3df" stroke-miterlimit="10" stroke-width=".75"/>
  <polygon points="104.65 84.02 107.18 102.81 107.33 102.81 104.79 84.02 104.65 84.02" fill="#b0c2c6" stroke="#eae3df" stroke-miterlimit="10" stroke-width=".75"/>
  <polygon points="104.64 83.92 104.65 84.02 104.79 84.02 104.77 83.92 104.64 83.92" fill="#b0c2c6" stroke="#eae3df" stroke-miterlimit="10" stroke-width=".75"/>
  <polygon points="128.08 84.02 132.31 102.81 138.41 102.81 138.41 84.02 128.08 84.02 128.08 84.02" fill="#c0c7c9" stroke="#eae3df" stroke-miterlimit="10" stroke-width=".75"/>
  <polygon points="128.08 84.02 138.41 84.02 138.41 83.92 128.06 83.92 128.08 84.02" fill="#c0c7c9" stroke="#eae3df" stroke-miterlimit="10" stroke-width=".75"/>
  <rect x="128.07" y="83.92" width="0" height=".11" fill="#c0c7c9" stroke="#eae3df" stroke-miterlimit="10" stroke-width=".75"/>
  <polygon points="132.24 102.81 132.31 102.81 128.08 84.02 128.02 84.02 132.24 102.81" fill="#c0c7c9" stroke="#eae3df" stroke-miterlimit="10" stroke-width=".75"/>
  <polygon points="127.99 83.92 128.02 84.02 128.08 84.02 128.06 83.92 127.99 83.92" fill="#c0c7c9" stroke="#eae3df" stroke-miterlimit="10" stroke-width=".75"/>
  <polygon points="58 84.02 34.7 84.02 32.17 102.81 57.15 102.81 58 84.02" fill="#c0c7c9" stroke="#eae3df" stroke-miterlimit="10" stroke-width=".75"/>
  <polygon points="58 83.92 34.72 83.92 34.7 84.02 58 84.02 58 83.92" fill="#c0c7c9" stroke="#eae3df" stroke-miterlimit="10" stroke-width=".75"/>
  <polygon points="34.7 84.02 34.7 84.02 34.72 83.92 34.7 84.02" fill="#c0c7c9" stroke="#eae3df" stroke-miterlimit="10" stroke-width=".75"/>
  <polygon points="81.35 84.02 58.14 84.02 57.3 102.81 82.2 102.81 81.35 84.02" fill="#b0c2c6" stroke="#eae3df" stroke-miterlimit="10" stroke-width=".75"/>
  <polygon points="58.14 83.92 58.14 84.02 81.35 84.02 81.35 83.92 58.14 83.92" fill="#b0c2c6" stroke="#eae3df" stroke-miterlimit="10" stroke-width=".75"/>
  <polygon points="81.35 84.02 82.2 102.81 82.28 102.81 81.43 84.02 81.35 84.02" fill="#b0c2c6" stroke="#eae3df" stroke-miterlimit="10" stroke-width=".75"/>
  <polygon points="81.43 83.92 81.35 83.92 81.35 84.02 81.43 84.02 81.43 83.92" fill="#b0c2c6" stroke="#eae3df" stroke-miterlimit="10" stroke-width=".75"/>
  <polygon points="58 84.02 58 84.02 57.15 102.81 57.3 102.81 58.14 84.02 58 84.02" fill="#b0c2c6" stroke="#eae3df" stroke-miterlimit="10" stroke-width=".75"/>
  <rect x="58" y="83.92" width="0" height=".1" fill="#b0c2c6" stroke="#eae3df" stroke-miterlimit="10" stroke-width=".75"/>
  <polygon points="58.14 84.02 58.14 83.92 58 83.92 58 84.02 58.14 84.02" fill="#b0c2c6" stroke="#eae3df" stroke-miterlimit="10" stroke-width=".75"/>
  <polygon points="82.29 102.93 83.09 120.68 109.59 120.68 107.2 102.93 82.29 102.93" fill="#b0c2c6" stroke="#eae3df" stroke-miterlimit="10" stroke-width=".75"/>
  <polygon points="82.28 102.81 82.29 102.93 107.2 102.93 107.18 102.81 82.28 102.81" fill="#b0c2c6" stroke="#eae3df" stroke-miterlimit="10" stroke-width=".75"/>
  <polygon points="107.34 102.93 109.74 120.68 136.25 120.68 132.26 102.93 107.34 102.93" fill="#c0c7c9" stroke="#eae3df" stroke-miterlimit="10" stroke-width=".75"/>
  <polygon points="107.33 102.81 107.34 102.93 132.26 102.93 132.24 102.81 107.33 102.81" fill="#c0c7c9" stroke="#eae3df" stroke-miterlimit="10" stroke-width=".75"/>
  <polygon points="107.2 102.93 109.59 120.68 109.74 120.68 107.34 102.93 107.2 102.93" fill="#c0c7c9" stroke="#eae3df" stroke-miterlimit="10" stroke-width=".75"/>
  <polygon points="107.18 102.81 107.2 102.93 107.34 102.93 107.33 102.81 107.18 102.81" fill="#c0c7c9" stroke="#eae3df" stroke-miterlimit="10" stroke-width=".75"/>
  <polygon points="132.34 102.93 136.33 120.68 138.41 120.68 138.41 102.93 132.34 102.93" fill="#b0c2c6" stroke="#eae3df" stroke-miterlimit="10" stroke-width=".75"/>
  <polygon points="132.34 102.93 138.41 102.93 138.41 102.81 132.31 102.81 132.34 102.93" fill="#b0c2c6" stroke="#eae3df" stroke-miterlimit="10" stroke-width=".75"/>
  <polygon points="132.26 102.93 136.25 120.68 136.33 120.68 132.34 102.93 132.26 102.93" fill="#b0c2c6" stroke="#eae3df" stroke-miterlimit="10" stroke-width=".75"/>
  <polygon points="132.24 102.81 132.26 102.93 132.34 102.93 132.31 102.81 132.24 102.81" fill="#b0c2c6" stroke="#eae3df" stroke-miterlimit="10" stroke-width=".75"/>
  <polygon points="57.15 102.93 32.15 102.93 32.17 102.81 29.76 120.68 56.35 120.68 57.15 102.93" fill="#b0c2c6" stroke="#eae3df" stroke-miterlimit="10" stroke-width=".75"/>
  <polygon points="32.17 102.81 32.15 102.93 57.15 102.93 57.15 102.81 32.17 102.81" fill="#b0c2c6" stroke="#eae3df" stroke-miterlimit="10" stroke-width=".75"/>
  <polygon points="57.3 102.93 56.51 120.68 83 120.68 82.2 102.93 57.3 102.93" fill="#c0c7c9" stroke="#eae3df" stroke-miterlimit="10" stroke-width=".75"/>
  <polygon points="57.3 102.81 57.3 102.93 82.2 102.93 82.2 102.81 57.3 102.81" fill="#c0c7c9" stroke="#eae3df" stroke-miterlimit="10" stroke-width=".75"/>
  <polygon points="82.2 102.93 83 120.68 83.09 120.68 82.29 102.93 82.2 102.93" fill="#c0c7c9" stroke="#eae3df" stroke-miterlimit="10" stroke-width=".75"/>
  <polygon points="82.2 102.81 82.2 102.93 82.29 102.93 82.28 102.81 82.2 102.81" fill="#c0c7c9" stroke="#eae3df" stroke-miterlimit="10" stroke-width=".75"/>
  <polygon points="57.15 102.93 56.35 120.68 56.51 120.68 57.3 102.93 57.15 102.93" fill="#c0c7c9" stroke="#eae3df" stroke-miterlimit="10" stroke-width=".75"/>
  <polygon points="57.3 102.81 57.15 102.81 57.15 102.93 57.3 102.93 57.3 102.81" fill="#c0c7c9" stroke="#eae3df" stroke-miterlimit="10" stroke-width=".75"/>
  <polygon points="15.07 67.43 36.93 67.43 36.92 67.52 38.87 53.03 18.3 53.03 15.07 67.43" fill="#b0c2c6" stroke="#eae3df" stroke-miterlimit="10" stroke-width=".75"/>
  <polygon points="18.33 52.91 18.3 53.03 38.87 53.03 38.88 52.91 18.33 52.91" fill="#b0c2c6" stroke="#eae3df" stroke-miterlimit="10" stroke-width=".75"/>
  <polygon points="18.23 53.03 .38 53.03 .38 67.43 14.99 67.43 18.23 53.03" fill="#c0c7c9" stroke="#eae3df" stroke-miterlimit="10" stroke-width=".75"/>
  <polygon points="18.26 52.91 .38 52.91 .38 53.03 18.23 53.03 18.26 52.91" fill="#c0c7c9" stroke="#eae3df" stroke-miterlimit="10" stroke-width=".75"/>
  <polygon points="18.23 53.03 14.99 67.43 15.07 67.43 18.3 53.03 18.3 53.03 18.23 53.03" fill="#c0c7c9" stroke="#eae3df" stroke-miterlimit="10" stroke-width=".75"/>
  <rect x="18.26" y="52.97" width=".12" height="0" transform="translate(-37.38 59.22) rotate(-77.33)" fill="#c0c7c9" stroke="#eae3df" stroke-miterlimit="10" stroke-width=".75"/>
  <polygon points="18.23 53.03 18.3 53.03 18.33 52.91 18.26 52.91 18.23 53.03" fill="#c0c7c9" stroke="#eae3df" stroke-miterlimit="10" stroke-width=".75"/>
  <polygon points="11.36 83.92 34.71 83.92 36.92 67.52 15.05 67.52 11.36 83.92" fill="#c0c7c9" stroke="#eae3df" stroke-miterlimit="10" stroke-width=".75"/>
  <polygon points="15.07 67.43 15.05 67.52 36.92 67.52 36.93 67.43 15.07 67.43" fill="#c0c7c9" stroke="#eae3df" stroke-miterlimit="10" stroke-width=".75"/>
  <polygon points="11.28 83.92 14.97 67.52 .38 67.52 .38 83.92 11.28 83.92 11.28 83.92" fill="#b0c2c6" stroke="#eae3df" stroke-miterlimit="10" stroke-width=".75"/>
  <polygon points="14.99 67.43 .38 67.43 .38 67.52 14.97 67.52 14.99 67.43" fill="#b0c2c6" stroke="#eae3df" stroke-miterlimit="10" stroke-width=".75"/>
  <polygon points="11.28 83.92 11.36 83.92 15.05 67.52 14.97 67.52 11.28 83.92" fill="#b0c2c6" stroke="#eae3df" stroke-miterlimit="10" stroke-width=".75"/>
  <polygon points="14.97 67.52 15.05 67.52 15.07 67.43 14.99 67.43 14.97 67.52" fill="#b0c2c6" stroke="#eae3df" stroke-miterlimit="10" stroke-width=".75"/>
  <polygon points="11.34 84.02 7.12 102.81 32.16 102.81 32.14 102.93 34.71 83.92 34.71 83.92 34.69 84.02 11.34 84.02" fill="#b0c2c6" stroke="#eae3df" stroke-miterlimit="10" stroke-width=".75"/>
  <polygon points="11.34 84.02 34.69 84.02 34.71 83.92 11.36 83.92 11.34 84.02" fill="#b0c2c6" stroke="#eae3df" stroke-miterlimit="10" stroke-width=".75"/>
  <polygon points=".38 84.02 .38 102.81 7.03 102.81 11.26 84.02 .38 84.02" fill="#c0c7c9" stroke="#eae3df" stroke-miterlimit="10" stroke-width=".75"/>
  <polygon points="11.28 83.92 .38 83.92 .38 84.02 11.26 84.02 11.28 83.92" fill="#c0c7c9" stroke="#eae3df" stroke-miterlimit="10" stroke-width=".75"/>
  <polygon points="11.26 84.02 7.03 102.81 7.12 102.81 11.34 84.02 11.26 84.02 11.26 84.02" fill="#c0c7c9" stroke="#eae3df" stroke-miterlimit="10" stroke-width=".75"/>
  <rect x="11.27" y="83.92" width="0" height=".11" fill="#c0c7c9" stroke="#eae3df" stroke-miterlimit="10" stroke-width=".75"/>
  <polygon points="11.26 84.02 11.34 84.02 11.36 83.92 11.28 83.92 11.26 84.02" fill="#c0c7c9" stroke="#eae3df" stroke-miterlimit="10" stroke-width=".75"/>
  <polygon points="7.09 102.93 3.1 120.68 29.75 120.68 32.14 102.93 7.09 102.93" fill="#c0c7c9" stroke="#eae3df" stroke-miterlimit="10" stroke-width=".75"/>
  <polygon points="7.12 102.81 7.09 102.93 32.14 102.93 32.16 102.81 7.12 102.81" fill="#c0c7c9" stroke="#eae3df" stroke-miterlimit="10" stroke-width=".75"/>
  <polygon points=".38 102.93 .38 120.68 3.01 120.68 7 102.93 .38 102.93" fill="#b0c2c6" stroke="#eae3df" stroke-miterlimit="10" stroke-width=".75"/>
  <polygon points=".38 102.93 7 102.93 7.03 102.81 .38 102.81 .38 102.93" fill="#b0c2c6" stroke="#eae3df" stroke-miterlimit="10" stroke-width=".75"/>
  <polygon points="3.01 120.68 3.1 120.68 7.09 102.93 7 102.93 3.01 120.68" fill="#b0c2c6" stroke="#eae3df" stroke-miterlimit="10" stroke-width=".75"/>
  <polygon points="7.03 102.81 7 102.93 7.09 102.93 7.12 102.81 7.03 102.81" fill="#b0c2c6" stroke="#eae3df" stroke-miterlimit="10" stroke-width=".75"/>
</svg>