<svg viewBox="0 0 682 683" fill="none" xmlns="http://www.w3.org/2000/svg">
<g id="bathtub">
<path id="Vector" d="M625.202 94.5149C625.842 68.0874 614.066 43.2584 593.5 31.3767C562.597 13.5274 527.218 22.532 509.795 52.6892L501.643 66.489L519.972 76.8788L527.058 64.4643C538.887 43.951 562.117 37.9303 582.63 49.7587C595.897 57.4312 604.582 72.936 604.103 94.0887V422.195L625.255 422.088V94.5149H625.202Z" fill="#999999"/>
<path id="Vector_2" d="M346.115 412.924C360.828 412.924 372.756 400.996 372.756 386.283C372.756 371.57 360.828 359.642 346.115 359.642C331.402 359.642 319.474 371.57 319.474 386.283C319.474 400.996 331.402 412.924 346.115 412.924Z" fill="url(#paint0_radial_1_56)"/>
<path id="Vector_3" d="M599.254 422.834C615.91 422.834 629.412 409.332 629.412 392.677C629.412 376.021 615.91 362.52 599.254 362.52C582.599 362.52 569.097 376.021 569.097 392.677C569.097 409.332 582.599 422.834 599.254 422.834Z" fill="url(#paint1_radial_1_56)"/>
<path id="Vector_4" d="M400.355 433.277C423.573 433.277 442.394 414.456 442.394 391.238C442.394 368.021 423.573 349.199 400.355 349.199C377.138 349.199 358.316 368.021 358.316 391.238C358.316 414.456 377.138 433.277 400.355 433.277Z" fill="url(#paint2_radial_1_56)"/>
<path id="Vector_5" d="M463.281 424.965C491.118 424.965 513.685 402.399 513.685 374.561C513.685 346.724 491.118 324.157 463.281 324.157C435.443 324.157 412.876 346.724 412.876 374.561C412.876 402.399 435.443 424.965 463.281 424.965Z" fill="url(#paint3_radial_1_56)"/>
<path id="Vector_6" d="M538.78 451.819C567.441 451.819 590.676 428.584 590.676 399.923C590.676 371.262 567.441 348.027 538.78 348.027C510.119 348.027 486.884 371.262 486.884 399.923C486.884 428.584 510.119 451.819 538.78 451.819Z" fill="url(#paint4_radial_1_56)"/>
<path id="Vector_7" d="M521.837 361.987C545.584 361.987 564.835 342.736 564.835 318.989C564.835 295.242 545.584 275.991 521.837 275.991C498.089 275.991 478.839 295.242 478.839 318.989C478.839 342.736 498.089 361.987 521.837 361.987Z" fill="url(#paint5_radial_1_56)"/>
<path id="Vector_8" d="M535.636 53.6482C532.44 47.1479 523.329 42.1395 517.308 42.1395C513.099 42.1395 511.021 44.8035 508.197 49.6521C505.426 54.4474 507.078 60.6281 511.873 63.3987L520.611 68.4071C525.406 71.1777 531.587 69.526 534.358 64.7307C537.128 59.9354 537.395 57.2181 535.636 53.6482Z" fill="#6F7172"/>
<path id="Vector_9" d="M522.476 57.4312C499.458 44.1642 468.236 55.1401 454.862 77.9445C454.862 77.9445 468.342 95.5806 493.491 109.647C518.64 123.713 538.514 126.217 538.514 126.217C551.568 103.253 545.493 70.7515 522.476 57.4312Z" fill="#999999"/>
<path id="Vector_10" d="M527.751 137.46C527.751 137.46 508.516 134.316 484.273 119.344C460.03 104.372 448.522 91.7443 448.522 91.7443C444.579 87.6417 442.021 82.7931 444.845 77.9445C447.616 73.0959 455.182 70.5917 458.645 74.2681C458.645 74.2681 468.982 87.8015 494.503 101.921C522.05 117.159 537.874 119.983 537.874 119.983C544.108 121.422 544.374 128.935 541.551 133.783C538.78 138.632 531.427 138.738 527.751 137.46Z" fill="#6F7172"/>
<path id="Vector_11" d="M474.043 71.1777C476.334 63.1323 488.962 57.5377 497.647 56.4721C506.065 55.4065 511.18 58.0173 511.127 62.4396C511.074 66.6488 506.172 67.9809 502.655 67.9276C490.241 67.6612 485.445 70.3785 483.314 71.604C474.043 76.8255 473.83 72.0302 474.043 71.1777Z" fill="#CACCCD"/>
<path id="Vector_12" d="M443.673 293.787C461.358 293.787 475.695 279.45 475.695 261.765C475.695 244.08 461.358 229.743 443.673 229.743C425.988 229.743 411.651 244.08 411.651 261.765C411.651 279.45 425.988 293.787 443.673 293.787Z" fill="url(#paint6_radial_1_56)"/>
<path id="Vector_13" opacity="0.8" d="M420.815 257.822C423.479 257.715 425.717 253.719 430.513 250.043C434.882 246.739 441.222 245.141 445.058 244.928C447.19 244.821 450.227 244.129 451.452 241.891C452.145 240.612 451.026 234.325 442.075 235.55C431.525 236.989 422.254 243.916 419.91 250.203C418.418 254.359 418.258 257.875 420.815 257.822Z" fill="white"/>
<path id="Vector_14" d="M69.5853 405.464C97.9309 513.785 95.6399 601.806 192.772 601.806L545.493 604.363C656.905 603.031 623.177 458.159 649.445 406.264C560.572 415.694 480.011 417.186 381.973 410.686C312.335 406.104 252.127 361.401 185.206 346.375C139.011 339.396 87.8608 328.526 42.7316 343.711C54.0272 363.212 63.0317 383.939 69.5853 405.464Z" fill="#EEEEEE"/>
<path id="Vector_15" d="M608.632 439.405C594.459 447.61 593.553 479.525 595.098 496.522C599.361 544.369 594.885 573.247 572.4 583.477C572.347 581.719 572.027 579.747 571.122 577.509C568.138 570.05 561.318 563.443 553.272 563.39C537.714 563.283 532.546 569.411 523.648 576.124C517.254 580.973 509.156 586.887 497.54 588.219L238.434 586.354C227.937 585.715 218.933 579.801 212.539 574.952C202.522 567.333 199.165 564.775 186.165 562.111C178.279 560.513 171.299 565.575 168.369 573.034C166.717 577.137 166.504 580.493 167.356 583.211C103.898 574.632 107.042 435.302 72.8354 368.54C61.7529 346.908 46.035 349.572 47.1539 351.544C56.4248 368.754 63.9907 386.869 69.6918 405.571C98.0375 513.892 95.7464 601.912 192.878 601.912L545.6 604.47C625.255 603.511 635.432 528.437 640.92 436.154C641.293 428.429 615.239 435.568 608.632 439.405Z" fill="#A7C3D2"/>
<path id="Vector_16" d="M55.4658 368.754C81.8401 363.266 109.067 368.167 117.219 369.926C196.874 387.136 249.196 420.596 343.771 441.482C448.788 464.66 568.724 457.787 640.441 442.015C640.441 442.015 643.211 422.941 645.609 415.641C645.609 415.641 497.86 434.822 400.355 422.834C298.482 410.313 181.583 353.462 113.542 345.15C62.0727 338.863 45.2358 349.306 45.2358 349.306L55.4658 368.754Z" fill="#69A1BA"/>
<path id="Vector_17" d="M175.828 562.218C162.987 560.619 160.696 577.136 160.696 577.136C160.696 577.136 152.97 567.439 140.183 570.53C132.351 572.448 129.58 582.252 132.99 584.809C139.064 589.391 159.364 599.621 153.29 614.114C150.946 619.762 144.499 621.413 138.318 624.184C124.145 630.578 118.604 641.127 117.219 647.894C116.899 649.492 116.792 651.997 120.416 653.915C124.039 655.833 130.699 657.644 147.696 657.644C164.692 657.644 176.627 654.501 178.492 651.997C184.673 643.578 173.164 627.008 186.005 610.597C191.226 603.884 195.382 605.056 208.49 601.966C211.686 601.22 211.1 593.068 206.678 587.793C203.268 583.69 192.665 581.665 185.898 585.342C185.898 585.342 191.706 564.189 175.828 562.218Z" fill="#999999"/>
<path id="Vector_18" d="M211.047 587.047C202.842 578.096 191.173 582.678 189.095 583.797C190.64 582.944 189.841 575.005 189.628 573.673C188.669 567.386 183.074 562.857 176.574 562.324C189.628 569.038 181.689 587.473 181.689 587.473C181.689 587.473 185.525 586.248 191.067 585.182C197.407 584.01 205.399 585.875 206.252 594.24C206.678 598.236 199.751 599.675 197.301 600.42C179.291 605.749 177.8 614.966 175.935 621.839C174.123 628.5 178.865 639.689 175.295 646.402C170.607 655.247 152.171 655.62 138.531 653.755C127.982 652.316 117.219 647.894 117.219 647.894C117.219 647.894 116.579 653.222 120.416 655.407C138.478 665.637 171.086 661.481 180.783 655.833C182.222 654.98 183.181 653.808 183.501 652.157C183.98 649.386 184.353 644.377 182.382 636.439C180.357 628.233 181.423 619.335 187.071 612.569C192.026 606.654 196.395 605.802 209.182 604.363C217.388 603.457 215.683 592.055 211.047 587.047Z" fill="#6F7172"/>
<path id="Vector_19" d="M141.089 626.528C148.548 624.024 157.872 624.184 156.753 629.885C156.114 633.135 152.224 634.84 148.015 636.119C143.593 637.398 134.961 637.93 134.269 634.84C133.416 630.951 136.507 628.02 141.089 626.528Z" fill="#CACCCD"/>
<path id="Vector_20" d="M468.822 433.064C431.312 433.064 353.201 433.064 261.025 397.525C206.198 376.426 115.833 337.904 40.1208 354.634C31.5425 356.499 23.1241 351.117 21.206 342.539C19.3411 334.014 24.7225 325.542 33.3008 323.624C118.711 304.816 214.297 347.121 273.066 368.167C363.058 400.403 435.841 401.202 470.474 401.308C528.71 401.149 585.668 400.083 642.146 388.361C650.724 386.549 659.089 392.091 660.901 400.669C662.659 409.247 657.171 417.612 648.593 419.424C589.237 431.732 530.521 432.904 470.58 433.011C469.941 433.064 469.408 433.064 468.822 433.064Z" fill="#A7C3D2"/>
<path id="Vector_21" d="M166.237 416.227C172.844 428.642 173.537 443.347 172.525 457.36C171.512 471.373 169.008 485.386 169.914 499.452C170.713 511.92 181.423 532.7 182.169 540.213C182.701 545.274 178.066 549.857 172.951 550.336C167.889 550.816 162.987 548.311 158.831 545.328C141.568 532.807 132.457 511.814 127.502 491.034C120.789 462.795 113.649 435.941 110.079 426.67C99.7425 399.923 116.846 387.935 137.199 393.156C149.454 396.353 160.27 405.091 166.237 416.227Z" fill="white"/>
<path id="Vector_22" d="M559.506 562.218C572.347 560.619 574.638 577.136 574.638 577.136C574.638 577.136 582.364 567.439 595.151 570.53C602.984 572.448 604.422 582.784 601.705 585.182C595.258 590.723 575.97 599.621 582.044 614.114C584.389 619.762 590.836 621.413 597.016 624.184C611.189 630.578 616.73 641.127 618.116 647.894C618.435 649.492 618.542 651.997 614.919 653.915C611.296 655.833 604.636 657.644 587.639 657.644C570.642 657.644 558.707 654.501 556.842 651.997C550.662 643.578 562.17 627.008 549.33 610.597C544.108 603.884 539.952 605.056 526.845 601.966C523.648 601.22 524.234 593.068 528.657 587.793C532.067 583.69 542.669 581.665 549.436 585.342C549.436 585.342 543.629 564.189 559.506 562.218Z" fill="#999999"/>
<path id="Vector_23" d="M524.288 587.047C532.493 578.096 544.161 582.678 546.239 583.797C544.694 582.944 545.494 575.005 545.707 573.673C546.666 567.386 552.26 562.857 558.761 562.324C545.707 569.038 553.646 587.473 553.646 587.473C553.646 587.473 549.809 586.248 544.268 585.182C537.928 584.01 529.935 585.875 529.083 594.24C528.657 598.236 535.583 599.675 538.034 600.42C556.043 605.749 557.535 614.966 559.4 621.839C561.211 628.5 556.469 639.689 560.039 646.402C564.728 655.247 583.163 655.62 596.803 653.755C607.353 652.316 618.116 647.894 618.116 647.894C618.116 647.894 618.755 653.222 614.919 655.407C596.857 665.637 564.249 661.481 554.551 655.833C553.113 654.98 552.154 653.808 551.834 652.157C551.354 649.386 550.981 644.377 552.953 636.439C554.978 628.233 553.912 619.335 548.264 612.569C543.309 606.654 538.94 605.802 526.152 604.363C517.947 603.457 519.652 592.055 524.288 587.047Z" fill="#6F7172"/>
<path id="Vector_24" d="M574.532 626.208C570.109 629.938 565.953 637.291 569.417 641.394C570.855 643.099 575.544 639.156 576.663 638.197C579.593 635.586 582.098 633.721 585.135 631.217C586.467 630.098 587.586 628.553 587.213 626.848C586.36 623.012 578.208 623.118 574.532 626.208Z" fill="#CACCCD"/>
<path id="Vector_25" opacity="0.8" d="M437.652 363.585C436.054 364.704 434.402 365.823 432.484 366.196C430.566 366.569 428.381 366.143 427.156 364.651C417.672 353.089 446.923 329.805 458.059 334.334C465.412 337.318 466.477 347.441 459.497 350.798C451.399 354.581 445.112 358.257 437.652 363.585Z" fill="white"/>
<path id="Vector_26" d="M498.446 316.112C496.102 315.739 493.97 313.821 493.065 311.583C491.946 308.706 492.425 305.455 493.438 302.578C495.889 295.598 501.643 289.737 508.676 287.446C510.594 286.807 512.619 286.434 514.644 286.754C517.894 287.287 520.664 289.844 521.517 293.041C523.755 301.513 514.91 302.205 510.221 306.255C506.865 309.132 505.106 315.153 500.258 316.112C499.658 316.215 499.046 316.215 498.446 316.112ZM71.1305 334.76C69.3722 342.006 76.9914 343.232 102.3 343.125C132.777 343.019 154.143 352.876 151.212 346.269C149.081 341.474 127.449 330.018 109.28 328.313C98.1973 327.247 73.3683 325.862 71.1305 334.76Z" fill="white"/>
</g>
<defs>
<radialGradient id="paint0_radial_1_56" cx="0" cy="0" r="1" gradientUnits="userSpaceOnUse" gradientTransform="translate(346.842 386.689) rotate(5.31736) scale(29.5889)">
<stop offset="0.22" stop-color="#80DEEA" stop-opacity="0"/>
<stop offset="1" stop-color="#80DEEA" stop-opacity="0.8"/>
</radialGradient>
<radialGradient id="paint1_radial_1_56" cx="0" cy="0" r="1" gradientUnits="userSpaceOnUse" gradientTransform="translate(599.781 393.5) rotate(31.553) scale(33.4543)">
<stop offset="0.261" stop-color="#80DEEA" stop-opacity="0"/>
<stop offset="1" stop-color="#80DEEA" stop-opacity="0.8"/>
</radialGradient>
<radialGradient id="paint2_radial_1_56" cx="0" cy="0" r="1" gradientUnits="userSpaceOnUse" gradientTransform="translate(400.869 394.658) rotate(5.31735) scale(46.6765)">
<stop offset="0.304" stop-color="#80DEEA" stop-opacity="0"/>
<stop offset="1" stop-color="#80DEEA" stop-opacity="0.8"/>
</radialGradient>
<radialGradient id="paint3_radial_1_56" cx="0" cy="0" r="1" gradientUnits="userSpaceOnUse" gradientTransform="translate(464.717 375.394) rotate(5.31735) scale(55.9388 55.9388)">
<stop offset="0.261" stop-color="#80DEEA" stop-opacity="0"/>
<stop offset="1" stop-color="#80DEEA" stop-opacity="0.8"/>
</radialGradient>
<radialGradient id="paint4_radial_1_56" cx="0" cy="0" r="1" gradientUnits="userSpaceOnUse" gradientTransform="translate(540.244 400.784) rotate(5.31736) scale(57.5926)">
<stop offset="0.261" stop-color="#80DEEA" stop-opacity="0"/>
<stop offset="1" stop-color="#80DEEA" stop-opacity="0.8"/>
</radialGradient>
<radialGradient id="paint5_radial_1_56" cx="0" cy="0" r="1" gradientUnits="userSpaceOnUse" gradientTransform="translate(522.726 321.397) rotate(30.3533) scale(50.9595 51.4108)">
<stop offset="0.376" stop-color="#80DEEA" stop-opacity="0"/>
<stop offset="1" stop-color="#80DEEA" stop-opacity="0.8"/>
</radialGradient>
<radialGradient id="paint6_radial_1_56" cx="0" cy="0" r="1" gradientUnits="userSpaceOnUse" gradientTransform="translate(448.058 266.513) rotate(5.31736) scale(33.129 33.129)">
<stop offset="0.376" stop-color="#80DEEA" stop-opacity="0"/>
<stop offset="1" stop-color="#80DEEA" stop-opacity="0.8"/>
</radialGradient>
</defs>
</svg>
