<svg viewBox="0 0 447 448" fill="none" xmlns="http://www.w3.org/2000/svg">
<g id="toilet">
<path id="Vector" d="M140.781 239.805C121.721 239.805 106.042 240.189 91.4422 240.957C88.9334 241.097 86.2505 241.132 83.4978 241.167C66.0063 241.376 55.2744 242.494 53.6367 256.532C52.9747 262.12 53.2883 269.838 58.4103 275.041C60.3267 276.997 62.6613 278.219 65.1003 279.546C69.2467 281.746 73.9855 284.26 77.0517 290.476C86.1808 309.195 100.571 324.735 118.62 335.456C124.091 338.704 129.84 340.799 135.938 343.069C140.223 344.64 144.474 346.212 148.621 348.167C157.854 352.498 164.649 359.552 166.844 367.095C168.447 372.613 167.541 378.27 164.266 383.438C160.781 388.921 155.346 391.959 150.607 394.614C143.882 398.385 139.736 401.004 138.83 407.255C138.446 409.909 139.039 412.109 140.642 414.03C143.778 417.802 149.98 419.687 154.823 419.862C162.245 420.176 169.074 420.526 175.416 420.805C191.304 421.573 203.848 422.167 216.601 422.167C236.497 422.167 255.278 420.56 279.32 416.754C282.943 416.195 285.417 415.008 286.741 413.227C288.031 411.446 288.379 408.722 287.822 405.16C286.741 398.385 281.48 395.452 274.198 392.064C264.929 387.769 263.919 382.67 262.246 374.149C259.145 358.33 271.654 349.704 281.759 342.789C286.323 339.646 295.243 331.056 298.17 327.703C313.641 309.858 323.083 289.289 322.596 266.625C322.596 265.472 323.014 264.355 323.815 263.552C324.617 262.714 325.732 262.26 326.881 262.26H386.325C392.666 262.26 397.858 257.091 397.858 250.7V74.5545C397.849 71.4917 396.631 68.5569 394.47 66.3912C392.309 64.2254 389.381 63.0046 386.325 62.9954H313.397C307.09 62.9954 301.898 68.1638 301.898 74.5545V193.044C301.898 195.07 300.505 196.781 298.553 197.235C296.463 197.654 294.581 196.676 293.71 194.86C292.456 192.102 291.097 189.378 289.738 186.828C283.64 175.234 279.041 162.907 274.581 150.998C272.978 146.703 271.34 142.373 269.703 138.112C266.602 130.325 258.936 112.689 251.514 95.6473C243.361 76.9641 234.929 57.6523 231.584 49.1314C228.483 41.1692 221.758 30.8323 215.381 27.4449C213.953 26.6766 212.002 26.2925 209.702 26.2925C206.914 26.2925 205.033 26.3274 203.465 26.7116C198.587 27.8291 194.196 34.7087 193.534 40.1565C191.827 53.4268 197.228 67.1162 202.942 80.0373C208.761 93.2726 231.793 147.122 237.681 161.196C243.57 175.234 249.598 189.552 255.696 203.416L258.204 209.248C261.619 217.28 265.138 225.557 270.156 232.227C271.166 233.554 271.306 235.335 270.574 236.767C269.842 238.198 268.379 239.071 266.741 239.071H266.637C258.065 238.827 249.493 238.687 240.922 238.687C226.357 238.722 212.559 239.002 198.761 239.281C184.127 239.56 169.562 239.875 154.928 239.875L140.781 239.805Z" fill="#E0E0E0"/>
<path id="Vector_2" d="M301.585 208.655C301.585 208.655 319.773 224.719 343.293 225.801C366.812 226.884 397.335 225.277 397.858 203.311V259.571C397.893 267.603 394.722 269.628 389.67 269.628H295.174L301.585 208.655Z" fill="#B0BEC5"/>
<path id="Vector_3" d="M208.9 21.9971C206.74 21.9971 204.545 22.032 202.489 22.5209C195.451 24.1273 190.12 32.8927 189.283 39.5977C187.402 54.1951 193.256 68.6876 199.005 81.7484C204.928 95.1584 228.065 149.287 233.709 162.802C239.528 176.666 245.591 191.089 251.758 205.092C257.159 217.315 261.933 231.528 272.037 240.748C277.821 246.021 301.202 250.561 305.766 236.802C308.484 228.63 305.975 220.807 301.62 208.585C291.654 180.717 277.717 146.773 273.675 136.506C267.264 120.197 241.932 63.9033 235.591 47.5599C232.455 39.5279 225.312 27.864 217.402 23.6384C215.068 22.4162 212.245 21.9622 209.667 21.9622C209.353 21.9971 209.11 21.9971 208.9 21.9971Z" fill="#E0E0E0"/>
<path id="Vector_4" d="M149.736 235.544C130.258 235.44 110.711 235.614 91.2332 236.697C74.8914 237.57 51.9991 233.903 49.4207 256.044C48.4799 263.831 49.6646 272.282 55.4138 278.079C61.3024 284.051 69.1771 284.016 73.2538 292.362C82.7661 311.849 97.8883 328.087 116.53 339.123C126.251 344.885 136.844 347.294 146.913 352.009C158.029 357.212 168.517 368.841 160.746 381.064C153.813 392.029 136.809 391.68 134.683 406.592C132.976 418.43 145.589 423.738 154.718 424.122C206.949 426.357 228.308 429.151 280.051 420.98C288.867 419.583 293.71 414.729 292.073 404.461C290.609 395.382 283.501 391.645 276.044 388.153C268.727 384.8 268.1 381.553 266.497 373.311C262.734 354.139 286.532 347.923 296.846 336.084C314.233 316.074 325.488 285.343 322.212 258.628C321.759 254.612 319.111 241.516 307.926 237.43C301.62 235.125 292.63 235.963 285.94 235.544C270.713 234.636 255.452 234.357 240.19 234.357C209.981 234.462 179.876 235.684 149.736 235.544Z" fill="#E0E0E0"/>
<g id="Clip path group">
<mask id="mask0_1_28" style="mask-type:luminance" maskUnits="userSpaceOnUse" x="49" y="234" width="274" height="193">
<g id="notoV1Toilet1">
<path id="Vector_5" d="M149.736 235.544C130.258 235.44 110.711 235.614 91.2332 236.697C74.8914 237.57 51.9991 233.903 49.4207 256.044C48.4799 263.831 49.6646 272.282 55.4138 278.079C61.3024 284.051 69.1771 284.016 73.2538 292.362C82.7661 311.849 97.8883 328.087 116.53 339.123C126.251 344.885 136.844 347.294 146.913 352.009C158.029 357.212 168.517 368.841 160.746 381.064C153.813 392.029 136.809 391.68 134.683 406.592C132.976 418.43 145.589 423.738 154.718 424.122C206.949 426.357 228.308 429.151 280.051 420.98C288.867 419.583 293.71 414.729 292.073 404.461C290.609 395.382 283.501 391.645 276.044 388.153C268.727 384.8 268.1 381.553 266.497 373.311C262.734 354.139 286.532 347.923 296.846 336.084C314.233 316.074 325.488 285.343 322.212 258.628C321.759 254.612 319.111 241.516 307.926 237.43C301.62 235.125 292.63 235.963 285.94 235.544C270.713 234.636 255.452 234.357 240.19 234.357C209.981 234.462 179.876 235.684 149.736 235.544Z" fill="white"/>
</g>
</mask>
<g mask="url(#mask0_1_28)">
<path id="Vector_6" d="M284.616 288.067C278.902 288.381 273.954 288.661 273.954 288.556C274.546 295.785 276.463 301.756 274.929 309.055C273.187 317.157 269.807 325.154 265.069 331.964C260.574 338.389 255.103 343.034 248.831 347.399C243.013 351.45 235.695 356.863 232.455 363.324C229.249 369.644 229.633 378.026 232.176 384.521C237.681 398.595 246.741 413.297 230.887 423.948C229.633 424.786 225.521 425.624 225.695 427.196C230.434 427.859 235.138 428.034 239.946 428.523C243.709 428.907 247.507 429.675 251.271 429.291C255.452 428.907 259.703 427.335 263.919 426.742C268.901 426.008 273.814 426.672 278.693 426.148C287.264 425.205 297.473 418.605 297.438 409.176C297.404 404.741 298.484 399.153 296.149 395.207C293.397 390.563 288.17 384.87 284.128 381.238C279.982 377.502 273.884 375.791 270.922 370.552C265.103 360.25 282.943 352.498 288.275 346.526C296.463 337.342 305.209 328.716 311.62 318.1C314.442 313.42 316.428 308.287 317.961 303.048C318.623 300.778 318.763 298.474 319.216 296.273C319.634 294.353 320.958 292.781 321.306 290.826C322.561 284.016 305.836 286.914 301.724 287.089C300.505 287.124 291.933 287.648 284.616 288.067Z" fill="#B0BEC5"/>
</g>
</g>
<g id="Clip path group_2">
<mask id="mask1_1_28" style="mask-type:luminance" maskUnits="userSpaceOnUse" x="49" y="234" width="274" height="193">
<g id="notoV1Toilet1_2">
<path id="Vector_7" d="M149.736 235.544C130.258 235.44 110.711 235.614 91.2332 236.697C74.8914 237.57 51.9991 233.903 49.4207 256.044C48.4799 263.831 49.6646 272.282 55.4138 278.079C61.3024 284.051 69.1771 284.016 73.2538 292.362C82.7661 311.849 97.8883 328.087 116.53 339.123C126.251 344.885 136.844 347.294 146.913 352.009C158.029 357.212 168.517 368.841 160.746 381.064C153.813 392.029 136.809 391.68 134.683 406.592C132.976 418.43 145.589 423.738 154.718 424.122C206.949 426.357 228.308 429.151 280.051 420.98C288.867 419.583 293.71 414.729 292.073 404.461C290.609 395.382 283.501 391.645 276.044 388.153C268.727 384.8 268.1 381.553 266.497 373.311C262.734 354.139 286.532 347.923 296.846 336.084C314.233 316.074 325.488 285.343 322.212 258.628C321.759 254.612 319.111 241.516 307.926 237.43C301.62 235.125 292.63 235.963 285.94 235.544C270.713 234.636 255.452 234.357 240.19 234.357C209.981 234.462 179.876 235.684 149.736 235.544Z" fill="white"/>
</g>
</mask>
<g mask="url(#mask1_1_28)">
<path id="Vector_8" d="M53.3928 279.022H328.519V297.566H53.3928V279.022Z" fill="#B0BEC5"/>
</g>
</g>
</g>
</svg>
