<svg width="177" height="178" viewBox="0 0 177 178" fill="none" xmlns="http://www.w3.org/2000/svg">
<g id="toiletPaper">
<path id="Vector" d="M125.375 68.5522C121.302 68.5522 118 64.4015 118 59.2814C118 54.1613 121.302 50.0106 125.375 50.0106C129.448 50.0106 132.75 54.1613 132.75 59.2814C132.75 64.4015 129.448 68.5522 125.375 68.5522Z" fill="#ADADAD"/>
<path id="Vector_2" d="M125.375 14.8333C145.708 14.8333 162.25 34.7916 162.25 59.3333C162.25 83.8751 145.708 103.833 125.375 103.833C105.042 103.833 88.5 83.8751 88.5 59.3333C88.5 34.7916 105.042 14.8333 125.375 14.8333ZM125.375 68.5522C127.564 68.2804 129.561 67.1586 130.939 65.4264C132.317 63.6942 132.967 61.4889 132.75 59.2814C132.967 57.0739 132.317 54.8686 130.939 53.1364C129.561 51.4042 127.564 50.2824 125.375 50.0106C123.186 50.2824 121.189 51.4042 119.811 53.1364C118.433 54.8686 117.783 57.0739 118 59.2814C117.783 61.4889 118.433 63.6942 119.811 65.4264C121.189 67.1586 123.186 68.2804 125.375 68.5522Z" fill="#FDFCFC"/>
<path id="Vector_3" d="M9.145 150.929C17.6332 140.78 22.2365 127.915 22.125 114.654V59.3333C22.125 34.7916 38.6671 14.8333 59 14.8333H125.375C105.042 14.8333 88.5 34.7916 88.5 59.3333V114.654C88.6118 131.451 82.753 147.735 71.98 160.571C71.2876 161.385 70.428 162.038 69.4604 162.487C68.4929 162.935 67.4403 163.167 66.375 163.167H14.75C13.3402 163.167 11.9598 162.76 10.7725 161.996C9.58525 161.231 8.64075 160.141 8.05093 158.853C7.46111 157.565 7.2507 156.134 7.4446 154.73C7.6385 153.326 8.22861 152.007 9.145 150.929Z" fill="#E6E6E6"/>
<path id="Vector_4" d="M88.5 59.3333C88.5 83.8751 105.042 103.833 125.375 103.833H88.5V59.3333Z" fill="#BDBDBD"/>
</g>
</svg>
