<svg width="392" height="392" viewBox="0 0 392 392" fill="none" xmlns="http://www.w3.org/2000/svg">
<g id="trashcanSmall">
<g id="Vector">
<path fill-rule="evenodd" clip-rule="evenodd" d="M78.4264 80.3291C78.4197 80.9822 78.4524 81.635 78.5241 82.2841C78.5711 82.8965 78.6364 83.4894 78.7522 84.0925L106.709 281.042C108.452 292.548 113.245 303.377 120.589 312.404C127.832 321.341 137.457 328.046 148.35 331.742L152.358 333.078C183.663 343.634 217.565 343.634 248.87 333.078L252.878 331.742C263.767 328.038 273.39 321.335 280.639 312.404C287.98 303.382 292.773 292.559 294.519 281.059L322.459 84.0762C322.681 82.9053 322.812 81.521 322.818 80.3291C322.818 69.6255 314.672 62.7016 308.318 58.8078C301.296 54.5068 291.929 51.053 281.437 48.3486C260.274 42.8583 231.698 39.6 200.614 39.6C169.529 39.6 140.954 42.8583 119.791 48.3486C109.299 51.053 99.9314 54.5068 92.9097 58.8241C86.5722 62.7016 78.4264 69.6255 78.4264 80.3291ZM104.623 80.3291L105.666 81.0134C109.772 83.5223 116.516 86.2267 125.917 88.6705C144.554 93.4928 170.979 96.6208 200.614 96.6208C230.265 96.6208 256.657 93.4928 275.311 88.6542C284.728 86.2104 291.456 83.5223 295.562 80.9971C295.964 80.769 296.311 80.5464 296.604 80.3291L295.562 79.6449C291.456 77.136 284.728 74.4316 275.311 71.9878C256.657 67.1818 230.248 64.0375 200.614 64.0375C170.963 64.0375 144.571 67.1655 125.917 72.0041C116.516 74.4478 109.772 77.136 105.666 79.6612L104.623 80.3291Z" fill="#BEBCBC"/>
<path d="M105.666 81.0134L104.623 80.3291L105.666 79.6612C109.772 77.136 116.516 74.4478 125.917 72.0041C144.571 67.1655 170.963 64.0375 200.614 64.0375C230.248 64.0375 256.657 67.1818 275.311 71.9878C284.728 74.4316 291.456 77.136 295.562 79.6449L296.604 80.3291C296.311 80.5464 295.964 80.769 295.562 80.9971C291.456 83.5223 284.728 86.2104 275.311 88.6542C256.657 93.4928 230.265 96.6208 200.614 96.6208C170.979 96.6208 144.554 93.4928 125.917 88.6705C116.516 86.2267 109.772 83.5223 105.666 81.0134Z" fill="#919090"/>
</g>
</g>
</svg>
