<svg width="366" height="366" viewBox="0 0 366 366" fill="none" xmlns="http://www.w3.org/2000/svg">
<g id="broom">
<g id="Group">
<path id="Vector" d="M154.237 249.076C154.237 249.076 161.918 246.545 170.269 248.059L198.36 265.942C204.829 274.046 204.829 284.259 204.829 284.259C205.637 301.41 198.776 321.688 196.212 331.169C189.131 354.699 172.498 364.825 154.237 365.334L61.8543 365.992C56.4717 366.277 44.5398 359.179 56.9337 346.011C70.344 332.112 115.553 289.62 130.05 269.193C130.05 269.193 137.789 255.232 154.237 249.076Z" fill="#E4AE57"/>
<path id="Vector_2" d="M306.544 27.2836C314.144 31.9995 316.755 42.4239 312.389 50.5897L202.657 255.356L175.12 238.329L284.852 33.5631C285.892 31.6201 287.278 29.9164 288.932 28.5492C290.585 27.182 292.473 26.1782 294.487 25.595C296.502 25.0119 298.603 24.8609 300.672 25.1506C302.741 25.4403 304.736 26.1652 306.544 27.2836Z" fill="#7D4533"/>
<path id="Vector_3" d="M204.817 251.112L177.338 234.432C177.338 234.432 171.251 233.03 168.317 238.031C163.755 246.408 169.172 249.263 169.172 249.263L196.87 266.513C200.671 268.796 211.805 263.323 204.817 251.112Z" fill="#9B9B9B"/>
<path id="Vector_4" d="M134.577 261.486C134.077 261.195 133.528 261.013 132.962 260.95C132.396 260.887 131.824 260.945 131.278 261.12C130.733 261.294 130.225 261.582 129.783 261.968C129.341 262.353 128.975 262.829 128.704 263.367C128.433 263.904 128.264 264.494 128.205 265.102C128.146 265.711 128.2 266.325 128.362 266.911C128.525 267.497 128.793 268.043 129.152 268.518C129.511 268.992 129.953 269.386 130.454 269.677L200.913 310.543C201.924 311.131 203.111 311.263 204.212 310.91C205.314 310.558 206.24 309.749 206.787 308.663C207.333 307.577 207.456 306.302 207.128 305.119C206.8 303.935 206.048 302.94 205.037 302.353L134.577 261.486ZM123.015 277.111C122.513 276.806 121.959 276.613 121.386 276.542C120.813 276.471 120.233 276.523 119.679 276.696C119.125 276.869 118.609 277.159 118.161 277.549C117.713 277.939 117.342 278.421 117.07 278.968C116.797 279.514 116.629 280.113 116.576 280.73C116.522 281.347 116.583 281.969 116.756 282.56C116.929 283.151 117.21 283.699 117.583 284.172C117.955 284.645 118.412 285.033 118.926 285.314L195.889 329.556C196.391 329.883 196.951 330.098 197.534 330.186C198.116 330.273 198.709 330.233 199.276 330.066C199.844 329.9 200.374 329.611 200.834 329.217C201.294 328.824 201.675 328.334 201.953 327.777C202.231 327.22 202.4 326.608 202.451 325.978C202.502 325.349 202.432 324.715 202.248 324.115C202.063 323.515 201.766 322.962 201.376 322.489C200.986 322.016 200.51 321.634 199.977 321.365L123.015 277.111Z" fill="#DE0200"/>
</g>
</g>
</svg>
