<?xml version="1.0" encoding="UTF-8"?>
<svg id="kitchen_floor" xmlns="http://www.w3.org/2000/svg"  viewBox="0 0 138.79 119.68">
  <polygon points="94.44 8.83 93.3 .38 77.63 .38 78.01 8.83 94.44 8.83" fill="#ddd5d0" stroke="#eae3df" stroke-miterlimit="10" stroke-width=".75"/>
  <polygon points="110.98 8.83 109.08 .38 93.4 .38 94.54 8.83 110.98 8.83" fill="#dbd0ca" stroke="#eae3df" stroke-miterlimit="10" stroke-width=".75"/>
  <polygon points="94.54 8.83 93.4 .38 93.3 .38 94.44 8.83 94.54 8.83" fill="#dbd0ca" stroke="#eae3df" stroke-miterlimit="10" stroke-width=".75"/>
  <polygon points="127.47 8.83 124.81 .38 109.13 .38 111.03 8.83 127.47 8.83" fill="#ddd5d0" stroke="#eae3df" stroke-miterlimit="10" stroke-width=".75"/>
  <polygon points="111.03 8.83 109.13 .38 109.08 .38 110.98 8.83 111.03 8.83" fill="#ddd5d0" stroke="#eae3df" stroke-miterlimit="10" stroke-width=".75"/>
  <polygon points="127.57 8.83 138.41 8.83 138.41 .38 124.91 .38 127.57 8.83 127.57 8.83" fill="#dbd0ca" stroke="#eae3df" stroke-miterlimit="10" stroke-width=".75"/>
  <polygon points="127.57 8.83 124.91 .38 124.81 .38 127.47 8.83 127.57 8.83" fill="#dbd0ca" stroke="#eae3df" stroke-miterlimit="10" stroke-width=".75"/>
  <polygon points="61.8 .38 46.07 .38 44.93 8.83 61.42 8.83 61.8 .38" fill="#ddd5d0" stroke="#eae3df" stroke-miterlimit="10" stroke-width=".75"/>
  <polygon points="77.95 8.83 77.57 .38 61.89 .38 61.52 8.83 77.95 8.83" fill="#dbd0ca" stroke="#eae3df" stroke-miterlimit="10" stroke-width=".75"/>
  <polygon points="78.01 8.83 77.63 .38 77.57 .38 77.95 8.83 78.01 8.83" fill="#dbd0ca" stroke="#eae3df" stroke-miterlimit="10" stroke-width=".75"/>
  <polygon points="61.52 8.83 61.89 .38 61.8 .38 61.42 8.83 61.52 8.83" fill="#dbd0ca" stroke="#eae3df" stroke-miterlimit="10" stroke-width=".75"/>
  <polygon points="95.7 18.14 94.45 8.88 78.01 8.88 78.43 18.14 95.7 18.14" fill="#dbd0ca" stroke="#eae3df" stroke-miterlimit="10" stroke-width=".75"/>
  <polygon points="94.45 8.88 94.44 8.83 78.01 8.83 78.01 8.88 94.45 8.88" fill="#dbd0ca" stroke="#eae3df" stroke-miterlimit="10" stroke-width=".75"/>
  <polygon points="113.08 18.14 110.99 8.88 94.55 8.88 95.8 18.14 113.08 18.14" fill="#ddd5d0" stroke="#eae3df" stroke-miterlimit="10" stroke-width=".75"/>
  <polygon points="110.99 8.88 110.98 8.83 94.54 8.83 94.55 8.88 110.99 8.88" fill="#ddd5d0" stroke="#eae3df" stroke-miterlimit="10" stroke-width=".75"/>
  <polygon points="95.8 18.14 94.55 8.88 94.45 8.88 95.7 18.14 95.8 18.14" fill="#ddd5d0" stroke="#eae3df" stroke-miterlimit="10" stroke-width=".75"/>
  <polygon points="94.55 8.88 94.54 8.83 94.44 8.83 94.45 8.88 94.55 8.88" fill="#ddd5d0" stroke="#eae3df" stroke-miterlimit="10" stroke-width=".75"/>
  <polygon points="130.4 18.14 127.49 8.88 111.04 8.88 113.13 18.14 130.4 18.14" fill="#dbd0ca" stroke="#eae3df" stroke-miterlimit="10" stroke-width=".75"/>
  <polygon points="127.49 8.88 127.47 8.83 111.03 8.83 111.04 8.88 127.49 8.88" fill="#dbd0ca" stroke="#eae3df" stroke-miterlimit="10" stroke-width=".75"/>
  <polygon points="113.13 18.14 113.13 18.14 111.04 8.88 110.99 8.88 113.08 18.14 113.13 18.14" fill="#dbd0ca" stroke="#eae3df" stroke-miterlimit="10" stroke-width=".75"/>
  <polygon points="111.04 8.88 111.03 8.83 110.98 8.83 110.99 8.88 111.04 8.88" fill="#dbd0ca" stroke="#eae3df" stroke-miterlimit="10" stroke-width=".75"/>
  <polygon points="130.5 18.14 138.41 18.14 138.41 8.88 127.59 8.88 130.5 18.14" fill="#ddd5d0" stroke="#eae3df" stroke-miterlimit="10" stroke-width=".75"/>
  <polygon points="127.59 8.88 138.41 8.88 138.41 8.83 127.57 8.83 127.59 8.88" fill="#ddd5d0" stroke="#eae3df" stroke-miterlimit="10" stroke-width=".75"/>
  <polygon points="127.49 8.88 130.4 18.14 130.5 18.14 130.5 18.14 127.59 8.88 127.59 8.88 127.49 8.88" fill="#ddd5d0" stroke="#eae3df" stroke-miterlimit="10" stroke-width=".75"/>
  <rect x="127.58" y="8.83" width="0" height=".05" transform="translate(3.23 38.74) rotate(-17.48)" fill="#ddd5d0" stroke="#eae3df" stroke-miterlimit="10" stroke-width=".75"/>
  <polygon points="127.59 8.88 127.57 8.83 127.47 8.83 127.49 8.88 127.59 8.88" fill="#ddd5d0" stroke="#eae3df" stroke-miterlimit="10" stroke-width=".75"/>
  <polygon points="61 18.14 61.42 8.88 44.92 8.88 44.93 8.83 43.68 18.14 61 18.14 61 18.14" fill="#dbd0ca" stroke="#eae3df" stroke-miterlimit="10" stroke-width=".75"/>
  <polygon points="61.42 8.88 61.42 8.83 44.93 8.83 44.92 8.88 61.42 8.88" fill="#dbd0ca" stroke="#eae3df" stroke-miterlimit="10" stroke-width=".75"/>
  <polygon points="77.95 8.88 61.52 8.88 61.1 18.14 78.37 18.14 77.95 8.88" fill="#ddd5d0" stroke="#eae3df" stroke-miterlimit="10" stroke-width=".75"/>
  <polygon points="77.95 8.88 77.95 8.83 61.52 8.83 61.52 8.88 77.95 8.88" fill="#ddd5d0" stroke="#eae3df" stroke-miterlimit="10" stroke-width=".75"/>
  <polygon points="78.37 18.14 78.43 18.14 78.01 8.88 77.95 8.88 78.37 18.14 78.37 18.14" fill="#ddd5d0" stroke="#eae3df" stroke-miterlimit="10" stroke-width=".75"/>
  <polygon points="78.01 8.88 78.01 8.83 77.95 8.83 77.95 8.88 78.01 8.88" fill="#ddd5d0" stroke="#eae3df" stroke-miterlimit="10" stroke-width=".75"/>
  <polygon points="61.52 8.88 61.42 8.88 61 18.14 61.1 18.14 61.52 8.88" fill="#ddd5d0" stroke="#eae3df" stroke-miterlimit="10" stroke-width=".75"/>
  <polygon points="61.52 8.83 61.42 8.83 61.42 8.88 61.52 8.88 61.52 8.83" fill="#ddd5d0" stroke="#eae3df" stroke-miterlimit="10" stroke-width=".75"/>
  <polygon points="95.71 18.2 78.43 18.2 78.9 28.45 97.09 28.45 95.71 18.2" fill="#ddd5d0" stroke="#eae3df" stroke-miterlimit="10" stroke-width=".75"/>
  <polygon points="95.71 18.2 95.7 18.14 78.43 18.14 78.43 18.2 95.71 18.2" fill="#ddd5d0" stroke="#eae3df" stroke-miterlimit="10" stroke-width=".75"/>
  <polygon points="97.19 28.45 115.39 28.45 113.09 18.2 95.81 18.2 97.19 28.45 97.19 28.45" fill="#dbd0ca" stroke="#eae3df" stroke-miterlimit="10" stroke-width=".75"/>
  <polygon points="113.09 18.2 113.08 18.14 95.8 18.14 95.81 18.2 113.09 18.2" fill="#dbd0ca" stroke="#eae3df" stroke-miterlimit="10" stroke-width=".75"/>
  <polygon points="97.19 28.45 95.81 18.2 95.71 18.2 97.09 28.45 97.19 28.45" fill="#dbd0ca" stroke="#eae3df" stroke-miterlimit="10" stroke-width=".75"/>
  <polygon points="95.81 18.2 95.8 18.14 95.7 18.14 95.71 18.2 95.81 18.2" fill="#dbd0ca" stroke="#eae3df" stroke-miterlimit="10" stroke-width=".75"/>
  <polygon points="113.14 18.2 115.44 28.45 133.64 28.45 133.64 28.45 130.42 18.2 113.14 18.2 113.14 18.2" fill="#ddd5d0" stroke="#eae3df" stroke-miterlimit="10" stroke-width=".75"/>
  <polygon points="113.14 18.2 130.42 18.2 130.4 18.14 113.13 18.14 113.14 18.2" fill="#ddd5d0" stroke="#eae3df" stroke-miterlimit="10" stroke-width=".75"/>
  <rect x="113.13" y="18.14" width="0" height=".06" transform="translate(-1.23 25.26) rotate(-12.67)" fill="#ddd5d0" stroke="#eae3df" stroke-miterlimit="10" stroke-width=".75"/>
  <polygon points="115.39 28.45 115.44 28.45 113.14 18.2 113.09 18.2 115.39 28.45" fill="#ddd5d0" stroke="#eae3df" stroke-miterlimit="10" stroke-width=".75"/>
  <polygon points="113.14 18.2 113.13 18.14 113.08 18.14 113.09 18.2 113.14 18.2" fill="#ddd5d0" stroke="#eae3df" stroke-miterlimit="10" stroke-width=".75"/>
  <polygon points="130.52 18.2 133.75 28.45 133.75 28.45 138.41 28.45 138.41 18.2 130.52 18.2 130.52 18.2" fill="#dbd0ca" stroke="#eae3df" stroke-miterlimit="10" stroke-width=".75"/>
  <polygon points="130.52 18.2 138.41 18.2 138.41 18.14 130.5 18.14 130.52 18.2" fill="#dbd0ca" stroke="#eae3df" stroke-miterlimit="10" stroke-width=".75"/>
  <rect x="130.51" y="18.14" width="0" height=".06" fill="#dbd0ca" stroke="#eae3df" stroke-miterlimit="10" stroke-width=".75"/>
  <polygon points="133.64 28.45 133.75 28.45 130.52 18.2 130.42 18.2 133.64 28.45" fill="#dbd0ca" stroke="#eae3df" stroke-miterlimit="10" stroke-width=".75"/>
  <polygon points="130.4 18.14 130.42 18.2 130.52 18.2 130.5 18.14 130.4 18.14" fill="#dbd0ca" stroke="#eae3df" stroke-miterlimit="10" stroke-width=".75"/>
  <polygon points="60.54 28.45 61 18.2 43.67 18.2 42.28 28.5 42.29 28.45 60.54 28.45" fill="#ddd5d0" stroke="#eae3df" stroke-miterlimit="10" stroke-width=".75"/>
  <polygon points="61 18.14 43.68 18.14 43.67 18.2 61 18.2 61 18.14" fill="#ddd5d0" stroke="#eae3df" stroke-miterlimit="10" stroke-width=".75"/>
  <polygon points="43.68 18.14 43.67 18.2 43.68 18.14 43.68 18.14" fill="#ddd5d0" stroke="#eae3df" stroke-miterlimit="10" stroke-width=".75"/>
  <polygon points="78.37 18.2 78.37 18.2 61.1 18.2 60.65 28.45 78.83 28.45 78.37 18.2" fill="#dbd0ca" stroke="#eae3df" stroke-miterlimit="10" stroke-width=".75"/>
  <polygon points="78.37 18.14 61.1 18.14 61.1 18.2 78.37 18.2 78.37 18.14" fill="#dbd0ca" stroke="#eae3df" stroke-miterlimit="10" stroke-width=".75"/>
  <rect x="78.37" y="18.14" width="0" height=".06" transform="translate(-.75 3.59) rotate(-2.61)" fill="#dbd0ca" stroke="#eae3df" stroke-miterlimit="10" stroke-width=".75"/>
  <polygon points="78.43 18.2 78.37 18.2 78.83 28.45 78.9 28.45 78.43 18.2" fill="#dbd0ca" stroke="#eae3df" stroke-miterlimit="10" stroke-width=".75"/>
  <polygon points="78.43 18.14 78.37 18.14 78.37 18.2 78.43 18.2 78.43 18.14" fill="#dbd0ca" stroke="#eae3df" stroke-miterlimit="10" stroke-width=".75"/>
  <polygon points="61.1 18.2 61 18.2 61 18.2 60.54 28.45 60.65 28.45 61.1 18.2" fill="#dbd0ca" stroke="#eae3df" stroke-miterlimit="10" stroke-width=".75"/>
  <rect x="61" y="18.14" width="0" height=".06" fill="#dbd0ca" stroke="#eae3df" stroke-miterlimit="10" stroke-width=".75"/>
  <polygon points="61.1 18.2 61.1 18.14 61 18.14 61 18.2 61.1 18.2" fill="#dbd0ca" stroke="#eae3df" stroke-miterlimit="10" stroke-width=".75"/>
  <polygon points="97.09 28.51 78.9 28.51 79.42 39.92 98.63 39.92 97.09 28.51" fill="#dbd0ca" stroke="#eae3df" stroke-miterlimit="10" stroke-width=".75"/>
  <polygon points="97.09 28.45 78.9 28.45 78.9 28.51 97.09 28.51 97.09 28.45" fill="#dbd0ca" stroke="#eae3df" stroke-miterlimit="10" stroke-width=".75"/>
  <polygon points="98.74 39.92 117.97 39.92 115.41 28.51 97.2 28.51 98.74 39.92" fill="#ddd5d0" stroke="#eae3df" stroke-miterlimit="10" stroke-width=".75"/>
  <polygon points="97.19 28.45 97.2 28.51 115.41 28.51 115.39 28.45 97.19 28.45" fill="#ddd5d0" stroke="#eae3df" stroke-miterlimit="10" stroke-width=".75"/>
  <polygon points="97.2 28.51 97.09 28.51 98.63 39.92 98.63 39.92 98.74 39.92 97.2 28.51 97.2 28.51" fill="#ddd5d0" stroke="#eae3df" stroke-miterlimit="10" stroke-width=".75"/>
  <rect x="97.2" y="28.45" width="0" height=".06" fill="#ddd5d0" stroke="#eae3df" stroke-miterlimit="10" stroke-width=".75"/>
  <polygon points="97.09 28.45 97.09 28.51 97.2 28.51 97.19 28.45 97.09 28.45" fill="#ddd5d0" stroke="#eae3df" stroke-miterlimit="10" stroke-width=".75"/>
  <polygon points="118.03 39.92 118.03 39.92 137.25 39.92 133.66 28.51 115.46 28.51 118.03 39.92" fill="#dbd0ca" stroke="#eae3df" stroke-miterlimit="10" stroke-width=".75"/>
  <polygon points="115.44 28.45 115.46 28.51 133.66 28.51 133.64 28.45 115.44 28.45" fill="#dbd0ca" stroke="#eae3df" stroke-miterlimit="10" stroke-width=".75"/>
  <polygon points="115.41 28.51 117.97 39.92 118.03 39.92 115.46 28.51 115.41 28.51" fill="#dbd0ca" stroke="#eae3df" stroke-miterlimit="10" stroke-width=".75"/>
  <polygon points="115.41 28.51 115.46 28.51 115.44 28.45 115.39 28.45 115.41 28.51" fill="#dbd0ca" stroke="#eae3df" stroke-miterlimit="10" stroke-width=".75"/>
  <polygon points="137.36 39.92 138.41 39.92 138.41 28.51 133.77 28.51 137.36 39.92" fill="#ddd5d0" stroke="#eae3df" stroke-miterlimit="10" stroke-width=".75"/>
  <polygon points="133.77 28.51 138.41 28.51 138.41 28.45 133.75 28.45 133.77 28.51" fill="#ddd5d0" stroke="#eae3df" stroke-miterlimit="10" stroke-width=".75"/>
  <polygon points="133.66 28.51 133.66 28.51 137.25 39.92 137.25 39.92 137.36 39.92 133.77 28.51 133.77 28.51 133.66 28.51" fill="#ddd5d0" stroke="#eae3df" stroke-miterlimit="10" stroke-width=".75"/>
  <rect x="133.65" y="28.45" width="0" height=".07" fill="#ddd5d0" stroke="#eae3df" stroke-miterlimit="10" stroke-width=".75"/>
  <rect x="133.76" y="28.45" width="0" height=".07" transform="translate(-2.37 41.56) rotate(-17.51)" fill="#ddd5d0" stroke="#eae3df" stroke-miterlimit="10" stroke-width=".75"/>
  <polygon points="133.66 28.51 133.77 28.51 133.75 28.45 133.64 28.45 133.66 28.51" fill="#ddd5d0" stroke="#eae3df" stroke-miterlimit="10" stroke-width=".75"/>
  <polygon points="60.02 39.92 60.54 28.51 42.28 28.51 42.28 28.5 40.73 39.99 40.74 39.92 60.02 39.92" fill="#dbd0ca" stroke="#eae3df" stroke-miterlimit="10" stroke-width=".75"/>
  <polygon points="60.54 28.51 60.54 28.45 42.29 28.45 42.28 28.5 42.28 28.51 60.54 28.51" fill="#dbd0ca" stroke="#eae3df" stroke-miterlimit="10" stroke-width=".75"/>
  <polygon points="78.84 28.51 60.64 28.51 60.14 39.92 79.35 39.92 78.84 28.51" fill="#ddd5d0" stroke="#eae3df" stroke-miterlimit="10" stroke-width=".75"/>
  <polygon points="78.83 28.45 60.65 28.45 60.64 28.51 78.84 28.51 78.83 28.45" fill="#ddd5d0" stroke="#eae3df" stroke-miterlimit="10" stroke-width=".75"/>
  <polygon points="78.9 28.51 78.84 28.51 79.35 39.92 79.42 39.92 78.9 28.51" fill="#ddd5d0" stroke="#eae3df" stroke-miterlimit="10" stroke-width=".75"/>
  <polygon points="78.9 28.45 78.83 28.45 78.84 28.51 78.9 28.51 78.9 28.45" fill="#ddd5d0" stroke="#eae3df" stroke-miterlimit="10" stroke-width=".75"/>
  <polygon points="60.14 39.92 60.64 28.51 60.54 28.51 60.02 39.92 60.02 39.92 60.14 39.92" fill="#ddd5d0" stroke="#eae3df" stroke-miterlimit="10" stroke-width=".75"/>
  <polygon points="60.65 28.45 60.54 28.45 60.54 28.51 60.64 28.51 60.65 28.45" fill="#ddd5d0" stroke="#eae3df" stroke-miterlimit="10" stroke-width=".75"/>
  <polygon points="98.64 39.99 98.64 39.99 79.42 39.99 80 52.72 100.36 52.72 98.64 39.99" fill="#ddd5d0" stroke="#eae3df" stroke-miterlimit="10" stroke-width=".75"/>
  <polygon points="98.63 39.92 79.42 39.92 79.42 39.99 98.64 39.99 98.63 39.92" fill="#ddd5d0" stroke="#eae3df" stroke-miterlimit="10" stroke-width=".75"/>
  <rect x="98.64" y="39.92" width="0" height=".07" transform="translate(-4.47 13.58) rotate(-7.7)" fill="#ddd5d0" stroke="#eae3df" stroke-miterlimit="10" stroke-width=".75"/>
  <polygon points="100.48 52.72 120.84 52.72 117.98 39.99 98.75 39.99 100.48 52.72" fill="#dbd0ca" stroke="#eae3df" stroke-miterlimit="10" stroke-width=".75"/>
  <polygon points="98.74 39.92 98.75 39.99 117.98 39.99 117.97 39.92 98.74 39.92" fill="#dbd0ca" stroke="#eae3df" stroke-miterlimit="10" stroke-width=".75"/>
  <polygon points="100.36 52.72 100.48 52.72 98.75 39.99 98.64 39.99 100.36 52.72" fill="#dbd0ca" stroke="#eae3df" stroke-miterlimit="10" stroke-width=".75"/>
  <polygon points="98.64 39.99 98.75 39.99 98.74 39.92 98.63 39.92 98.64 39.99" fill="#dbd0ca" stroke="#eae3df" stroke-miterlimit="10" stroke-width=".75"/>
  <polygon points="137.27 39.99 118.04 39.99 120.9 52.72 138.41 52.72 138.41 43.62 137.27 39.99 137.27 39.99" fill="#ddd5d0" stroke="#eae3df" stroke-miterlimit="10" stroke-width=".75"/>
  <polygon points="118.03 39.92 118.04 39.99 137.27 39.99 137.25 39.92 118.03 39.92" fill="#ddd5d0" stroke="#eae3df" stroke-miterlimit="10" stroke-width=".75"/>
  <rect x="129.01" y="41.75" width="0" height=".07" transform="translate(-6.59 40.59) rotate(-17.44)" fill="#ddd5d0" stroke="#eae3df" stroke-miterlimit="10" stroke-width=".75"/>
  <polygon points="117.98 39.99 120.84 52.72 120.9 52.72 118.04 39.99 118.04 39.99 117.98 39.99" fill="#ddd5d0" stroke="#eae3df" stroke-miterlimit="10" stroke-width=".75"/>
  <rect x="118.03" y="39.92" width="0" height=".07" transform="translate(-5.89 26.9) rotate(-12.69)" fill="#ddd5d0" stroke="#eae3df" stroke-miterlimit="10" stroke-width=".75"/>
  <polygon points="117.98 39.99 118.04 39.99 118.03 39.92 117.97 39.92 117.98 39.99" fill="#ddd5d0" stroke="#eae3df" stroke-miterlimit="10" stroke-width=".75"/>
  <polygon points="59.45 52.72 60.02 39.99 60.02 39.99 40.73 39.99 39.02 52.72 59.45 52.72 59.45 52.72" fill="#ddd5d0" stroke="#eae3df" stroke-miterlimit="10" stroke-width=".75"/>
  <polygon points="60.02 39.92 40.74 39.92 40.73 39.99 60.02 39.99 60.02 39.92" fill="#ddd5d0" stroke="#eae3df" stroke-miterlimit="10" stroke-width=".75"/>
  <rect x="59.99" y="39.95" width=".07" height="0" transform="translate(17.44 98.14) rotate(-87.45)" fill="#ddd5d0" stroke="#eae3df" stroke-miterlimit="10" stroke-width=".75"/>
  <polygon points="79.35 39.99 60.13 39.99 59.57 52.72 79.93 52.72 79.35 39.99" fill="#dbd0ca" stroke="#eae3df" stroke-miterlimit="10" stroke-width=".75"/>
  <polygon points="79.35 39.92 60.14 39.92 60.13 39.99 79.35 39.99 79.35 39.92" fill="#dbd0ca" stroke="#eae3df" stroke-miterlimit="10" stroke-width=".75"/>
  <polygon points="79.42 39.99 79.35 39.99 79.93 52.72 80 52.72 79.42 39.99" fill="#dbd0ca" stroke="#eae3df" stroke-miterlimit="10" stroke-width=".75"/>
  <polygon points="79.42 39.92 79.35 39.92 79.35 39.99 79.42 39.99 79.42 39.92" fill="#dbd0ca" stroke="#eae3df" stroke-miterlimit="10" stroke-width=".75"/>
  <polygon points="59.57 52.72 60.13 39.99 60.02 39.99 59.45 52.72 59.57 52.72 59.57 52.72" fill="#dbd0ca" stroke="#eae3df" stroke-miterlimit="10" stroke-width=".75"/>
  <polygon points="60.14 39.92 60.02 39.92 60.02 39.99 60.13 39.99 60.14 39.92" fill="#dbd0ca" stroke="#eae3df" stroke-miterlimit="10" stroke-width=".75"/>
  <polygon points="44.92 8.83 44.92 8.88 46.06 .38 30.29 .38 28.39 8.83 44.92 8.83" fill="#dbd0ca" stroke="#eae3df" stroke-miterlimit="10" stroke-width=".75"/>
  <polygon points="11.81 8.83 14.47 .38 .38 .38 .38 8.83 11.81 8.83" fill="#dbd0ca" stroke="#eae3df" stroke-miterlimit="10" stroke-width=".75"/>
  <polygon points="11.9 8.83 28.34 8.83 30.24 .38 14.56 .38 11.9 8.83 11.9 8.83" fill="#ddd5d0" stroke="#eae3df" stroke-miterlimit="10" stroke-width=".75"/>
  <polygon points="28.39 8.83 28.39 8.83 30.29 .38 30.24 .38 28.34 8.83 28.39 8.83" fill="#ddd5d0" stroke="#eae3df" stroke-miterlimit="10" stroke-width=".75"/>
  <polygon points="11.9 8.83 14.56 .38 14.47 .38 11.81 8.83 11.9 8.83" fill="#ddd5d0" stroke="#eae3df" stroke-miterlimit="10" stroke-width=".75"/>
  <polygon points="28.38 8.88 26.3 18.14 43.67 18.14 44.92 8.88 28.38 8.88 28.38 8.88" fill="#ddd5d0" stroke="#eae3df" stroke-miterlimit="10" stroke-width=".75"/>
  <polygon points="28.39 8.83 28.38 8.88 44.92 8.88 44.92 8.83 28.39 8.83" fill="#ddd5d0" stroke="#eae3df" stroke-miterlimit="10" stroke-width=".75"/>
  <rect x="28.36" y="8.86" width=".05" height="0" transform="translate(13.52 34.61) rotate(-77.33)" fill="#ddd5d0" stroke="#eae3df" stroke-miterlimit="10" stroke-width=".75"/>
  <polygon points="11.79 8.88 .38 8.88 .38 18.14 8.87 18.14 11.79 8.88" fill="#ddd5d0" stroke="#eae3df" stroke-miterlimit="10" stroke-width=".75"/>
  <polygon points="11.79 8.88 11.81 8.83 .38 8.83 .38 8.88 11.79 8.88" fill="#ddd5d0" stroke="#eae3df" stroke-miterlimit="10" stroke-width=".75"/>
  <polygon points="26.24 18.14 28.32 8.88 11.89 8.88 8.97 18.14 26.24 18.14" fill="#dbd0ca" stroke="#eae3df" stroke-miterlimit="10" stroke-width=".75"/>
  <polygon points="28.32 8.88 28.34 8.83 11.9 8.83 11.89 8.88 28.32 8.88" fill="#dbd0ca" stroke="#eae3df" stroke-miterlimit="10" stroke-width=".75"/>
  <polygon points="26.24 18.14 26.3 18.14 28.38 8.88 28.32 8.88 26.24 18.14" fill="#dbd0ca" stroke="#eae3df" stroke-miterlimit="10" stroke-width=".75"/>
  <polygon points="28.38 8.88 28.39 8.83 28.34 8.83 28.32 8.88 28.38 8.88" fill="#dbd0ca" stroke="#eae3df" stroke-miterlimit="10" stroke-width=".75"/>
  <polygon points="8.97 18.14 11.89 8.88 11.89 8.88 11.79 8.88 8.87 18.14 8.97 18.14" fill="#dbd0ca" stroke="#eae3df" stroke-miterlimit="10" stroke-width=".75"/>
  <rect x="11.87" y="8.86" width=".05" height="0" transform="translate(-.12 17.55) rotate(-72.58)" fill="#dbd0ca" stroke="#eae3df" stroke-miterlimit="10" stroke-width=".75"/>
  <polygon points="11.89 8.88 11.9 8.83 11.81 8.83 11.79 8.88 11.89 8.88" fill="#dbd0ca" stroke="#eae3df" stroke-miterlimit="10" stroke-width=".75"/>
  <polygon points="23.98 28.45 42.28 28.45 43.66 18.2 26.29 18.2 23.98 28.45" fill="#dbd0ca" stroke="#eae3df" stroke-miterlimit="10" stroke-width=".75"/>
  <polygon points="26.29 18.2 43.66 18.2 43.67 18.14 26.3 18.14 26.29 18.2" fill="#dbd0ca" stroke="#eae3df" stroke-miterlimit="10" stroke-width=".75"/>
  <polygon points="43.66 18.2 43.67 18.14 43.66 18.2 43.66 18.2" fill="#dbd0ca" stroke="#eae3df" stroke-miterlimit="10" stroke-width=".75"/>
  <polygon points="8.85 18.2 .38 18.2 .38 28.45 5.63 28.45 8.85 18.2" fill="#dbd0ca" stroke="#eae3df" stroke-miterlimit="10" stroke-width=".75"/>
  <polygon points="8.87 18.14 .38 18.14 .38 18.2 8.85 18.2 8.87 18.14" fill="#dbd0ca" stroke="#eae3df" stroke-miterlimit="10" stroke-width=".75"/>
  <polygon points="5.73 28.45 23.92 28.45 26.23 18.2 8.96 18.2 5.73 28.45" fill="#ddd5d0" stroke="#eae3df" stroke-miterlimit="10" stroke-width=".75"/>
  <polygon points="8.96 18.2 26.23 18.2 26.24 18.14 8.97 18.14 8.96 18.2" fill="#ddd5d0" stroke="#eae3df" stroke-miterlimit="10" stroke-width=".75"/>
  <polygon points="23.92 28.45 23.98 28.45 26.29 18.2 26.23 18.2 23.92 28.45" fill="#ddd5d0" stroke="#eae3df" stroke-miterlimit="10" stroke-width=".75"/>
  <polygon points="26.23 18.2 26.29 18.2 26.3 18.14 26.24 18.14 26.23 18.2" fill="#ddd5d0" stroke="#eae3df" stroke-miterlimit="10" stroke-width=".75"/>
  <polygon points="8.96 18.2 8.85 18.2 5.63 28.45 5.73 28.45 8.96 18.2" fill="#ddd5d0" stroke="#eae3df" stroke-miterlimit="10" stroke-width=".75"/>
  <polygon points="8.97 18.14 8.87 18.14 8.85 18.2 8.96 18.2 8.97 18.14" fill="#ddd5d0" stroke="#eae3df" stroke-miterlimit="10" stroke-width=".75"/>
  <polygon points="21.41 39.92 21.41 39.92 40.73 39.92 42.27 28.51 23.97 28.51 21.41 39.92" fill="#ddd5d0" stroke="#eae3df" stroke-miterlimit="10" stroke-width=".75"/>
  <polygon points="23.97 28.51 42.27 28.51 42.28 28.45 23.98 28.45 23.97 28.51" fill="#ddd5d0" stroke="#eae3df" stroke-miterlimit="10" stroke-width=".75"/>
  <polygon points="42.28 28.45 42.28 28.45 42.27 28.51 42.28 28.45" fill="#ddd5d0" stroke="#eae3df" stroke-miterlimit="10" stroke-width=".75"/>
  <polygon points="5.61 28.51 .38 28.51 .38 39.92 2.01 39.92 5.61 28.51" fill="#ddd5d0" stroke="#eae3df" stroke-miterlimit="10" stroke-width=".75"/>
  <polygon points="5.63 28.45 .38 28.45 .38 28.51 5.61 28.51 5.63 28.45" fill="#ddd5d0" stroke="#eae3df" stroke-miterlimit="10" stroke-width=".75"/>
  <polygon points="2.13 39.92 21.34 39.92 21.34 39.92 23.91 28.51 5.71 28.51 2.13 39.92" fill="#dbd0ca" stroke="#eae3df" stroke-miterlimit="10" stroke-width=".75"/>
  <polygon points="5.71 28.51 23.91 28.51 23.92 28.45 5.73 28.45 5.71 28.51" fill="#dbd0ca" stroke="#eae3df" stroke-miterlimit="10" stroke-width=".75"/>
  <polygon points="21.34 39.92 21.41 39.92 23.97 28.51 23.91 28.51 21.34 39.92" fill="#dbd0ca" stroke="#eae3df" stroke-miterlimit="10" stroke-width=".75"/>
  <polygon points="23.91 28.51 23.97 28.51 23.98 28.45 23.92 28.45 23.91 28.51" fill="#dbd0ca" stroke="#eae3df" stroke-miterlimit="10" stroke-width=".75"/>
  <polygon points="5.71 28.51 5.61 28.51 2.01 39.92 2.13 39.92 5.71 28.51" fill="#dbd0ca" stroke="#eae3df" stroke-miterlimit="10" stroke-width=".75"/>
  <polygon points="5.73 28.45 5.63 28.45 5.61 28.51 5.71 28.51 5.73 28.45" fill="#dbd0ca" stroke="#eae3df" stroke-miterlimit="10" stroke-width=".75"/>
  <polygon points="21.39 39.99 18.53 52.72 39.01 52.72 40.73 39.92 40.72 39.99 21.39 39.99" fill="#dbd0ca" stroke="#eae3df" stroke-miterlimit="10" stroke-width=".75"/>
  <polygon points="21.39 39.99 40.72 39.99 40.73 39.92 21.41 39.92 21.39 39.99" fill="#dbd0ca" stroke="#eae3df" stroke-miterlimit="10" stroke-width=".75"/>
  <polygon points=".38 39.99 .38 45.12 1.99 39.99 .38 39.99" fill="#dbd0ca" stroke="#eae3df" stroke-miterlimit="10" stroke-width=".75"/>
  <polygon points="2.01 39.92 .38 39.92 .38 39.99 1.99 39.99 2.01 39.92" fill="#dbd0ca" stroke="#eae3df" stroke-miterlimit="10" stroke-width=".75"/>
  <polygon points="21.32 39.99 2.1 39.99 .38 45.49 .38 52.72 18.46 52.72 21.32 39.99" fill="#ddd5d0" stroke="#eae3df" stroke-miterlimit="10" stroke-width=".75"/>
  <polygon points="2.13 39.92 2.1 39.99 21.32 39.99 21.34 39.92 2.13 39.92" fill="#ddd5d0" stroke="#eae3df" stroke-miterlimit="10" stroke-width=".75"/>
  <polygon points="21.32 39.99 21.32 39.99 18.46 52.72 18.53 52.72 21.39 39.99 21.39 39.99 21.32 39.99" fill="#ddd5d0" stroke="#eae3df" stroke-miterlimit="10" stroke-width=".75"/>
  <rect x="21.36" y="39.95" width=".07" height="0" transform="translate(-22.27 52.09) rotate(-77.36)" fill="#ddd5d0" stroke="#eae3df" stroke-miterlimit="10" stroke-width=".75"/>
  <rect x="21.33" y="39.92" width="0" height=".07" fill="#ddd5d0" stroke="#eae3df" stroke-miterlimit="10" stroke-width=".75"/>
  <polygon points="21.32 39.99 21.39 39.99 21.41 39.92 21.34 39.92 21.32 39.99" fill="#ddd5d0" stroke="#eae3df" stroke-miterlimit="10" stroke-width=".75"/>
  <polygon points="1.99 39.99 .38 45.12 .38 45.49 2.1 39.99 1.99 39.99" fill="#ddd5d0" stroke="#eae3df" stroke-miterlimit="10" stroke-width=".75"/>
  <polygon points="2.01 39.92 1.99 39.99 2.1 39.99 2.13 39.92 2.01 39.92" fill="#ddd5d0" stroke="#eae3df" stroke-miterlimit="10" stroke-width=".75"/>
  <polygon points="102.3 67.18 100.37 52.84 80 52.84 80.65 67.18 102.3 67.18 102.3 67.18" fill="#dbd0ca" stroke="#eae3df" stroke-miterlimit="10" stroke-width=".75"/>
  <polygon points="100.36 52.72 80 52.72 80 52.84 100.37 52.84 100.36 52.72" fill="#dbd0ca" stroke="#eae3df" stroke-miterlimit="10" stroke-width=".75"/>
  <polygon points="102.43 67.18 124.1 67.18 120.87 52.84 100.49 52.84 102.43 67.18" fill="#ddd5d0" stroke="#eae3df" stroke-miterlimit="10" stroke-width=".75"/>
  <polygon points="100.49 52.84 120.87 52.84 120.84 52.72 100.48 52.72 100.49 52.84" fill="#ddd5d0" stroke="#eae3df" stroke-miterlimit="10" stroke-width=".75"/>
  <polygon points="102.3 67.18 102.43 67.18 100.49 52.84 100.37 52.84 102.3 67.18" fill="#ddd5d0" stroke="#eae3df" stroke-miterlimit="10" stroke-width=".75"/>
  <polygon points="100.37 52.84 100.49 52.84 100.48 52.72 100.36 52.72 100.37 52.84" fill="#ddd5d0" stroke="#eae3df" stroke-miterlimit="10" stroke-width=".75"/>
  <polygon points="124.16 67.18 138.41 67.18 138.41 52.84 120.93 52.84 124.16 67.18" fill="#dbd0ca" stroke="#eae3df" stroke-miterlimit="10" stroke-width=".75"/>
  <polygon points="120.93 52.84 138.41 52.84 138.41 52.72 120.9 52.72 120.93 52.84" fill="#dbd0ca" stroke="#eae3df" stroke-miterlimit="10" stroke-width=".75"/>
  <polygon points="124.1 67.18 124.16 67.18 120.93 52.84 120.87 52.84 124.1 67.18" fill="#dbd0ca" stroke="#eae3df" stroke-miterlimit="10" stroke-width=".75"/>
  <polygon points="120.87 52.84 120.93 52.84 120.9 52.72 120.84 52.72 120.87 52.84" fill="#dbd0ca" stroke="#eae3df" stroke-miterlimit="10" stroke-width=".75"/>
  <polygon points="59.44 52.84 39 52.84 39.02 52.72 37.07 67.18 58.8 67.18 59.44 52.84" fill="#dbd0ca" stroke="#eae3df" stroke-miterlimit="10" stroke-width=".75"/>
  <polygon points="59.44 52.84 59.45 52.72 39.02 52.72 39 52.84 59.44 52.84" fill="#dbd0ca" stroke="#eae3df" stroke-miterlimit="10" stroke-width=".75"/>
  <polygon points="79.93 52.84 59.56 52.84 59.56 52.84 58.92 67.18 80.58 67.18 79.93 52.84" fill="#ddd5d0" stroke="#eae3df" stroke-miterlimit="10" stroke-width=".75"/>
  <polygon points="79.93 52.84 79.93 52.72 59.57 52.72 59.56 52.84 79.93 52.84" fill="#ddd5d0" stroke="#eae3df" stroke-miterlimit="10" stroke-width=".75"/>
  <rect x="59.57" y="52.72" width="0" height=".12" fill="#ddd5d0" stroke="#eae3df" stroke-miterlimit="10" stroke-width=".75"/>
  <polygon points="80 52.84 79.93 52.84 80.58 67.18 80.65 67.18 80 52.84" fill="#ddd5d0" stroke="#eae3df" stroke-miterlimit="10" stroke-width=".75"/>
  <polygon points="80 52.72 79.93 52.72 79.93 52.84 80 52.84 80 52.72" fill="#ddd5d0" stroke="#eae3df" stroke-miterlimit="10" stroke-width=".75"/>
  <polygon points="59.56 52.84 59.44 52.84 59.44 52.84 58.8 67.18 58.92 67.18 59.56 52.84" fill="#ddd5d0" stroke="#eae3df" stroke-miterlimit="10" stroke-width=".75"/>
  <rect x="59.44" y="52.72" width="0" height=".12" fill="#ddd5d0" stroke="#eae3df" stroke-miterlimit="10" stroke-width=".75"/>
  <polygon points="59.56 52.84 59.57 52.72 59.45 52.72 59.44 52.84 59.56 52.84" fill="#ddd5d0" stroke="#eae3df" stroke-miterlimit="10" stroke-width=".75"/>
  <polygon points="80.66 67.27 81.4 83.61 104.52 83.61 102.32 67.27 80.66 67.27" fill="#ddd5d0" stroke="#eae3df" stroke-miterlimit="10" stroke-width=".75"/>
  <polygon points="102.3 67.18 80.65 67.18 80.66 67.27 102.32 67.27 102.3 67.18" fill="#ddd5d0" stroke="#eae3df" stroke-miterlimit="10" stroke-width=".75"/>
  <polygon points="104.65 83.61 127.79 83.61 124.12 67.27 102.44 67.27 104.65 83.61" fill="#dbd0ca" stroke="#eae3df" stroke-miterlimit="10" stroke-width=".75"/>
  <polygon points="102.44 67.27 124.12 67.27 124.1 67.18 102.43 67.18 102.44 67.27" fill="#dbd0ca" stroke="#eae3df" stroke-miterlimit="10" stroke-width=".75"/>
  <polygon points="102.32 67.27 104.52 83.61 104.65 83.61 102.44 67.27 102.32 67.27 102.32 67.27" fill="#dbd0ca" stroke="#eae3df" stroke-miterlimit="10" stroke-width=".75"/>
  <rect x="102.31" y="67.18" width="0" height=".09" fill="#dbd0ca" stroke="#eae3df" stroke-miterlimit="10" stroke-width=".75"/>
  <polygon points="102.32 67.27 102.44 67.27 102.43 67.18 102.3 67.18 102.32 67.27" fill="#dbd0ca" stroke="#eae3df" stroke-miterlimit="10" stroke-width=".75"/>
  <polygon points="127.86 83.61 138.41 83.61 138.41 67.27 124.18 67.27 127.86 83.61" fill="#ddd5d0" stroke="#eae3df" stroke-miterlimit="10" stroke-width=".75"/>
  <polygon points="124.18 67.27 138.41 67.27 138.41 67.18 124.16 67.18 124.18 67.27" fill="#ddd5d0" stroke="#eae3df" stroke-miterlimit="10" stroke-width=".75"/>
  <polygon points="127.79 83.61 127.86 83.61 124.18 67.27 124.12 67.27 127.79 83.61" fill="#ddd5d0" stroke="#eae3df" stroke-miterlimit="10" stroke-width=".75"/>
  <polygon points="124.12 67.27 124.18 67.27 124.16 67.18 124.1 67.18 124.12 67.27" fill="#ddd5d0" stroke="#eae3df" stroke-miterlimit="10" stroke-width=".75"/>
  <polygon points="58.79 67.27 37.06 67.27 37.07 67.18 34.86 83.61 58.06 83.61 58.79 67.27" fill="#ddd5d0" stroke="#eae3df" stroke-miterlimit="10" stroke-width=".75"/>
  <polygon points="58.79 67.27 58.8 67.18 37.07 67.18 37.06 67.27 58.79 67.27" fill="#ddd5d0" stroke="#eae3df" stroke-miterlimit="10" stroke-width=".75"/>
  <polygon points="80.58 67.27 58.92 67.27 58.19 83.61 81.32 83.61 80.58 67.27" fill="#dbd0ca" stroke="#eae3df" stroke-miterlimit="10" stroke-width=".75"/>
  <polygon points="80.58 67.18 58.92 67.18 58.92 67.27 80.58 67.27 80.58 67.18" fill="#dbd0ca" stroke="#eae3df" stroke-miterlimit="10" stroke-width=".75"/>
  <polygon points="81.4 83.61 80.66 67.27 80.58 67.27 81.32 83.61 81.4 83.61 81.4 83.61" fill="#dbd0ca" stroke="#eae3df" stroke-miterlimit="10" stroke-width=".75"/>
  <polygon points="80.65 67.18 80.58 67.18 80.58 67.27 80.66 67.27 80.65 67.18" fill="#dbd0ca" stroke="#eae3df" stroke-miterlimit="10" stroke-width=".75"/>
  <polygon points="58.92 67.27 58.79 67.27 58.06 83.61 58.19 83.61 58.92 67.27" fill="#dbd0ca" stroke="#eae3df" stroke-miterlimit="10" stroke-width=".75"/>
  <polygon points="58.92 67.18 58.8 67.18 58.79 67.27 58.92 67.27 58.92 67.18" fill="#dbd0ca" stroke="#eae3df" stroke-miterlimit="10" stroke-width=".75"/>
  <polygon points="81.4 83.72 81.4 83.72 82.25 102.43 107.05 102.43 104.53 83.72 81.4 83.72" fill="#dbd0ca" stroke="#eae3df" stroke-miterlimit="10" stroke-width=".75"/>
  <polygon points="81.4 83.61 81.4 83.72 104.53 83.72 104.52 83.61 81.4 83.61" fill="#dbd0ca" stroke="#eae3df" stroke-miterlimit="10" stroke-width=".75"/>
  <rect x="81.4" y="83.61" width="0" height=".1" transform="translate(-3.67 3.74) rotate(-2.57)" fill="#dbd0ca" stroke="#eae3df" stroke-miterlimit="10" stroke-width=".75"/>
  <polygon points="104.67 83.72 107.2 102.43 132.02 102.43 127.81 83.72 104.67 83.72" fill="#ddd5d0" stroke="#eae3df" stroke-miterlimit="10" stroke-width=".75"/>
  <polygon points="104.67 83.72 127.81 83.72 127.79 83.61 104.65 83.61 104.67 83.72" fill="#ddd5d0" stroke="#eae3df" stroke-miterlimit="10" stroke-width=".75"/>
  <polygon points="104.53 83.72 107.05 102.43 107.2 102.43 104.67 83.72 104.53 83.72" fill="#ddd5d0" stroke="#eae3df" stroke-miterlimit="10" stroke-width=".75"/>
  <polygon points="104.52 83.61 104.53 83.72 104.67 83.72 104.65 83.61 104.52 83.61" fill="#ddd5d0" stroke="#eae3df" stroke-miterlimit="10" stroke-width=".75"/>
  <polygon points="132.09 102.43 138.41 102.43 138.41 83.72 127.88 83.72 132.09 102.43" fill="#dbd0ca" stroke="#eae3df" stroke-miterlimit="10" stroke-width=".75"/>
  <polygon points="127.88 83.72 138.41 83.72 138.41 83.61 127.86 83.61 127.88 83.72" fill="#dbd0ca" stroke="#eae3df" stroke-miterlimit="10" stroke-width=".75"/>
  <polygon points="132.02 102.43 132.09 102.43 127.88 83.72 127.81 83.72 132.02 102.43" fill="#dbd0ca" stroke="#eae3df" stroke-miterlimit="10" stroke-width=".75"/>
  <polygon points="127.81 83.72 127.88 83.72 127.86 83.61 127.79 83.61 127.81 83.72" fill="#dbd0ca" stroke="#eae3df" stroke-miterlimit="10" stroke-width=".75"/>
  <polygon points="58.05 83.72 34.84 83.72 32.32 102.43 57.21 102.43 58.05 83.72" fill="#dbd0ca" stroke="#eae3df" stroke-miterlimit="10" stroke-width=".75"/>
  <polygon points="58.06 83.61 34.86 83.61 34.84 83.72 58.05 83.72 58.06 83.61" fill="#dbd0ca" stroke="#eae3df" stroke-miterlimit="10" stroke-width=".75"/>
  <polygon points="34.84 83.72 34.84 83.72 34.86 83.61 34.84 83.72" fill="#dbd0ca" stroke="#eae3df" stroke-miterlimit="10" stroke-width=".75"/>
  <polygon points="58.19 83.72 57.36 102.43 82.16 102.43 81.32 83.72 58.19 83.72" fill="#ddd5d0" stroke="#eae3df" stroke-miterlimit="10" stroke-width=".75"/>
  <polygon points="81.32 83.61 58.19 83.61 58.19 83.72 81.32 83.72 81.32 83.61" fill="#ddd5d0" stroke="#eae3df" stroke-miterlimit="10" stroke-width=".75"/>
  <polygon points="81.32 83.72 82.16 102.43 82.25 102.43 82.25 102.43 81.4 83.72 81.32 83.72" fill="#ddd5d0" stroke="#eae3df" stroke-miterlimit="10" stroke-width=".75"/>
  <polygon points="81.32 83.61 81.32 83.72 81.4 83.72 81.4 83.61 81.32 83.61" fill="#ddd5d0" stroke="#eae3df" stroke-miterlimit="10" stroke-width=".75"/>
  <polygon points="58.19 83.72 58.05 83.72 57.21 102.43 57.36 102.43 57.36 102.43 58.19 83.72" fill="#ddd5d0" stroke="#eae3df" stroke-miterlimit="10" stroke-width=".75"/>
  <polygon points="58.19 83.61 58.06 83.61 58.05 83.72 58.19 83.72 58.19 83.61" fill="#ddd5d0" stroke="#eae3df" stroke-miterlimit="10" stroke-width=".75"/>
  <polygon points="82.25 102.55 82.25 102.55 83.01 119.31 109.33 119.31 107.07 102.55 82.25 102.55" fill="#ddd5d0" stroke="#eae3df" stroke-miterlimit="10" stroke-width=".75"/>
  <polygon points="82.25 102.43 82.25 102.55 107.07 102.55 107.05 102.43 82.25 102.43" fill="#ddd5d0" stroke="#eae3df" stroke-miterlimit="10" stroke-width=".75"/>
  <rect x="82.25" y="102.43" width="0" height=".12" transform="translate(-4.54 3.82) rotate(-2.59)" fill="#ddd5d0" stroke="#eae3df" stroke-miterlimit="10" stroke-width=".75"/>
  <polygon points="107.22 102.55 109.48 119.31 135.81 119.31 132.04 102.55 107.22 102.55" fill="#dbd0ca" stroke="#eae3df" stroke-miterlimit="10" stroke-width=".75"/>
  <polygon points="107.2 102.43 107.22 102.55 132.04 102.55 132.02 102.43 107.2 102.43" fill="#dbd0ca" stroke="#eae3df" stroke-miterlimit="10" stroke-width=".75"/>
  <polygon points="107.07 102.55 109.33 119.31 109.48 119.31 107.22 102.55 107.07 102.55" fill="#dbd0ca" stroke="#eae3df" stroke-miterlimit="10" stroke-width=".75"/>
  <polygon points="107.05 102.43 107.07 102.55 107.22 102.55 107.2 102.43 107.05 102.43" fill="#dbd0ca" stroke="#eae3df" stroke-miterlimit="10" stroke-width=".75"/>
  <polygon points="132.12 102.55 135.89 119.31 138.41 119.31 138.41 102.55 132.12 102.55" fill="#ddd5d0" stroke="#eae3df" stroke-miterlimit="10" stroke-width=".75"/>
  <polygon points="132.12 102.55 138.41 102.55 138.41 102.43 132.09 102.43 132.12 102.55" fill="#ddd5d0" stroke="#eae3df" stroke-miterlimit="10" stroke-width=".75"/>
  <polygon points="132.04 102.55 135.81 119.31 135.89 119.31 132.12 102.55 132.04 102.55" fill="#ddd5d0" stroke="#eae3df" stroke-miterlimit="10" stroke-width=".75"/>
  <polygon points="132.02 102.43 132.04 102.55 132.12 102.55 132.09 102.43 132.02 102.43" fill="#ddd5d0" stroke="#eae3df" stroke-miterlimit="10" stroke-width=".75"/>
  <polygon points="57.21 102.55 32.3 102.55 32.32 102.43 30.05 119.31 56.45 119.31 57.21 102.55" fill="#ddd5d0" stroke="#eae3df" stroke-miterlimit="10" stroke-width=".75"/>
  <polygon points="32.32 102.43 32.3 102.55 57.21 102.55 57.21 102.43 32.32 102.43" fill="#ddd5d0" stroke="#eae3df" stroke-miterlimit="10" stroke-width=".75"/>
  <polygon points="57.35 102.55 57.35 102.55 56.61 119.31 82.92 119.31 82.17 102.55 57.35 102.55" fill="#dbd0ca" stroke="#eae3df" stroke-miterlimit="10" stroke-width=".75"/>
  <polygon points="57.36 102.43 57.35 102.55 82.17 102.55 82.16 102.43 57.36 102.43" fill="#dbd0ca" stroke="#eae3df" stroke-miterlimit="10" stroke-width=".75"/>
  <rect x="57.3" y="102.49" width=".12" height="0" transform="translate(-47.6 155.22) rotate(-87.44)" fill="#dbd0ca" stroke="#eae3df" stroke-miterlimit="10" stroke-width=".75"/>
  <polygon points="82.17 102.55 82.92 119.31 83.01 119.31 82.25 102.55 82.17 102.55" fill="#dbd0ca" stroke="#eae3df" stroke-miterlimit="10" stroke-width=".75"/>
  <polygon points="82.16 102.43 82.17 102.55 82.25 102.55 82.25 102.43 82.16 102.43" fill="#dbd0ca" stroke="#eae3df" stroke-miterlimit="10" stroke-width=".75"/>
  <polygon points="57.21 102.55 56.45 119.31 56.61 119.31 57.35 102.55 57.21 102.55" fill="#dbd0ca" stroke="#eae3df" stroke-miterlimit="10" stroke-width=".75"/>
  <polygon points="57.36 102.43 57.21 102.43 57.21 102.55 57.35 102.55 57.36 102.43" fill="#dbd0ca" stroke="#eae3df" stroke-miterlimit="10" stroke-width=".75"/>
  <polygon points="15.28 67.18 15.28 67.18 37.06 67.18 38.99 52.84 18.5 52.84 15.28 67.18" fill="#ddd5d0" stroke="#eae3df" stroke-miterlimit="10" stroke-width=".75"/>
  <polygon points="18.5 52.84 38.99 52.84 39.01 52.72 18.53 52.72 18.5 52.84" fill="#ddd5d0" stroke="#eae3df" stroke-miterlimit="10" stroke-width=".75"/>
  <polygon points="39.01 52.72 39.01 52.72 38.99 52.84 39.01 52.72" fill="#ddd5d0" stroke="#eae3df" stroke-miterlimit="10" stroke-width=".75"/>
  <polygon points="18.43 52.84 .38 52.84 .38 67.18 15.2 67.18 18.43 52.84" fill="#dbd0ca" stroke="#eae3df" stroke-miterlimit="10" stroke-width=".75"/>
  <polygon points="18.46 52.72 .38 52.72 .38 52.84 18.43 52.84 18.46 52.72" fill="#dbd0ca" stroke="#eae3df" stroke-miterlimit="10" stroke-width=".75"/>
  <polygon points="15.2 67.18 15.28 67.18 18.5 52.84 18.43 52.84 15.2 67.18" fill="#dbd0ca" stroke="#eae3df" stroke-miterlimit="10" stroke-width=".75"/>
  <polygon points="18.43 52.84 18.5 52.84 18.53 52.72 18.46 52.72 18.43 52.84" fill="#dbd0ca" stroke="#eae3df" stroke-miterlimit="10" stroke-width=".75"/>
  <polygon points="11.59 83.61 34.85 83.61 34.83 83.72 37.05 67.27 15.26 67.27 11.59 83.61" fill="#dbd0ca" stroke="#eae3df" stroke-miterlimit="10" stroke-width=".75"/>
  <polygon points="15.26 67.27 37.05 67.27 37.06 67.18 15.28 67.18 15.26 67.27" fill="#dbd0ca" stroke="#eae3df" stroke-miterlimit="10" stroke-width=".75"/>
  <polygon points="37.06 67.18 37.06 67.18 37.05 67.27 37.06 67.18" fill="#dbd0ca" stroke="#eae3df" stroke-miterlimit="10" stroke-width=".75"/>
  <polygon points="11.51 83.61 15.18 67.27 .38 67.27 .38 83.61 11.51 83.61 11.51 83.61" fill="#ddd5d0" stroke="#eae3df" stroke-miterlimit="10" stroke-width=".75"/>
  <polygon points="15.2 67.18 .38 67.18 .38 67.27 15.18 67.27 15.2 67.18" fill="#ddd5d0" stroke="#eae3df" stroke-miterlimit="10" stroke-width=".75"/>
  <polygon points="15.18 67.27 11.51 83.61 11.59 83.61 15.26 67.27 15.26 67.27 15.18 67.27" fill="#ddd5d0" stroke="#eae3df" stroke-miterlimit="10" stroke-width=".75"/>
  <rect x="15.22" y="67.23" width=".09" height="0" transform="translate(-53.67 67.4) rotate(-77.34)" fill="#ddd5d0" stroke="#eae3df" stroke-miterlimit="10" stroke-width=".75"/>
  <polygon points="15.18 67.27 15.26 67.27 15.28 67.18 15.2 67.18 15.18 67.27" fill="#ddd5d0" stroke="#eae3df" stroke-miterlimit="10" stroke-width=".75"/>
  <polygon points="7.36 102.43 32.31 102.43 34.83 83.72 11.56 83.72 7.36 102.43" fill="#ddd5d0" stroke="#eae3df" stroke-miterlimit="10" stroke-width=".75"/>
  <polygon points="11.59 83.61 11.56 83.72 34.83 83.72 34.85 83.61 11.59 83.61" fill="#ddd5d0" stroke="#eae3df" stroke-miterlimit="10" stroke-width=".75"/>
  <polygon points=".38 83.72 .38 102.43 7.27 102.43 11.48 83.72 .38 83.72" fill="#dbd0ca" stroke="#eae3df" stroke-miterlimit="10" stroke-width=".75"/>
  <polygon points="11.51 83.61 .38 83.61 .38 83.72 11.48 83.72 11.51 83.61" fill="#dbd0ca" stroke="#eae3df" stroke-miterlimit="10" stroke-width=".75"/>
  <polygon points="11.48 83.72 7.27 102.43 7.36 102.43 11.56 83.72 11.48 83.72 11.48 83.72" fill="#dbd0ca" stroke="#eae3df" stroke-miterlimit="10" stroke-width=".75"/>
  <rect x="11.5" y="83.61" width="0" height=".11" fill="#dbd0ca" stroke="#eae3df" stroke-miterlimit="10" stroke-width=".75"/>
  <polygon points="11.48 83.72 11.56 83.72 11.59 83.61 11.51 83.61 11.48 83.72" fill="#dbd0ca" stroke="#eae3df" stroke-miterlimit="10" stroke-width=".75"/>
  <polygon points="7.33 102.55 3.57 119.31 30.04 119.31 32.29 102.55 7.33 102.55" fill="#dbd0ca" stroke="#eae3df" stroke-miterlimit="10" stroke-width=".75"/>
  <polygon points="7.33 102.55 32.29 102.55 32.31 102.43 7.36 102.43 7.33 102.55" fill="#dbd0ca" stroke="#eae3df" stroke-miterlimit="10" stroke-width=".75"/>
  <polygon points="32.31 102.43 32.31 102.43 32.29 102.55 32.31 102.43" fill="#dbd0ca" stroke="#eae3df" stroke-miterlimit="10" stroke-width=".75"/>
  <polygon points=".38 102.55 .38 119.31 3.47 119.31 7.24 102.55 .38 102.55" fill="#ddd5d0" stroke="#eae3df" stroke-miterlimit="10" stroke-width=".75"/>
  <polygon points=".38 102.55 7.24 102.55 7.27 102.43 .38 102.43 .38 102.55" fill="#ddd5d0" stroke="#eae3df" stroke-miterlimit="10" stroke-width=".75"/>
  <polygon points="3.47 119.31 3.57 119.31 7.33 102.55 7.24 102.55 3.47 119.31" fill="#ddd5d0" stroke="#eae3df" stroke-miterlimit="10" stroke-width=".75"/>
  <polygon points="7.27 102.43 7.24 102.55 7.33 102.55 7.36 102.43 7.27 102.43" fill="#ddd5d0" stroke="#eae3df" stroke-miterlimit="10" stroke-width=".75"/>
</svg>