<?xml version="1.0" encoding="UTF-8"?>
<svg id="kitchen_set" xmlns="http://www.w3.org/2000/svg" viewBox="0 0 116.62 70.68">
  <g>
    <polygon points="3.57 70.45 2.87 70.63 2.16 70.45 2.16 66.91 3.57 66.91 3.57 70.45" fill="#e0c379" stroke="#bfa366" stroke-linecap="round" stroke-miterlimit="10" stroke-width=".1"/>
    <polygon points="2.87 70.6 2.87 70.6 2.16 70.41 2.16 66.88 2.85 66.89 2.87 70.6" fill="#bfa366"/>
  </g>
  <g>
    <polygon points="12.29 70.45 11.58 70.63 10.87 70.45 10.87 66.91 12.29 66.91 12.29 70.45" fill="#e0c379" stroke="#bfa366" stroke-linecap="round" stroke-miterlimit="10" stroke-width=".1"/>
    <polygon points="11.58 70.6 11.58 70.6 10.87 70.41 10.87 66.88 11.57 66.89 11.58 70.6" fill="#bfa366"/>
  </g>
  <g>
    <polygon points="44.5 70.45 43.8 70.63 43.09 70.45 43.09 66.91 44.5 66.91 44.5 70.45" fill="#e0c379" stroke="#bfa366" stroke-linecap="round" stroke-miterlimit="10" stroke-width=".1"/>
    <polygon points="43.8 70.6 43.8 70.6 43.09 70.41 43.09 66.88 43.78 66.89 43.8 70.6" fill="#bfa366"/>
  </g>
  <g>
    <polygon points="84.75 70.45 84.04 70.63 83.33 70.45 83.33 66.91 84.75 66.91 84.75 70.45" fill="#e0c379" stroke="#bfa366" stroke-linecap="round" stroke-miterlimit="10" stroke-width=".1"/>
    <polygon points="84.04 70.6 84.04 70.6 83.33 70.41 83.33 66.88 84.02 66.89 84.04 70.6" fill="#bfa366"/>
  </g>
  <rect x="14.62" y="35.44" width="26.14" height="32.33" fill="#d6d6d8" stroke="#9b968e" stroke-linecap="round" stroke-linejoin="round" stroke-width=".75"/>
  <rect x="40.76" y="34.75" width="22.93" height="33.02" fill="#ceaf91" stroke="#ad8d73" stroke-linecap="round" stroke-miterlimit="10" stroke-width=".75"/>
  <rect x="40.76" y="34.75" width="22.93" height="12.99" fill="#ceaf91" stroke="#ad8d73" stroke-linecap="round" stroke-miterlimit="10" stroke-width=".75"/>
  <rect x=".4" y="34.75" width="14.22" height="33.02" fill="#ceaf91" stroke="#ad8d73" stroke-linecap="round" stroke-miterlimit="10" stroke-width=".75"/>
  <rect x=".41" y="34.75" width="14.22" height="13" fill="#ceaf91" stroke="#ad8d73" stroke-linecap="round" stroke-miterlimit="10" stroke-width=".75"/>
  <rect x="17.92" y="45.87" width="19.61" height="13.61" fill="#635f59" stroke="#4f4c47" stroke-linecap="round" stroke-linejoin="round" stroke-width=".75"/>
  <rect x="16.43" y="42.09" width="22.43" height="1.68" fill="#bababa" stroke="#afafaf" stroke-linecap="round" stroke-linejoin="round" stroke-width=".2"/>
  <rect x="24.02" y="62.5" width="7.41" height="1.2" fill="#bababa" stroke="#afafaf" stroke-linecap="round" stroke-linejoin="round" stroke-width=".2"/>
  <circle cx="20.26" cy="38.02" r="1.06" fill="#635f59" stroke="#514d49" stroke-linecap="round" stroke-miterlimit="10" stroke-width=".2"/>
  <circle cx="23.11" cy="38.02" r="1.06" fill="#635f59" stroke="#514d49" stroke-linecap="round" stroke-miterlimit="10" stroke-width=".2"/>
  <circle cx="28.07" cy="38.02" r="1.29" fill="#635f59" stroke="#514d49" stroke-linecap="round" stroke-miterlimit="10" stroke-width=".2"/>
  <circle cx="32.75" cy="38.02" r="1.06" fill="#635f59" stroke="#514d49" stroke-linecap="round" stroke-miterlimit="10" stroke-width=".2"/>
  <circle cx="35.59" cy="38.02" r="1.06" fill="#635f59" stroke="#514d49" stroke-linecap="round" stroke-miterlimit="10" stroke-width=".2"/>
  <line x1="15" y1="40.59" x2="40.38" y2="40.58" fill="none" stroke="#9b968e" stroke-linecap="round" stroke-miterlimit="10" stroke-width=".25"/>
  <line x1="15.08" y1="61.28" x2="40.38" y2="61.28" fill="none" stroke="#9b968e" stroke-miterlimit="10" stroke-width=".25"/>
  <line x1="14.99" y1="67.77" x2="40.39" y2="67.77" fill="none" stroke="#9b968e" stroke-linecap="round" stroke-miterlimit="10" stroke-width=".75"/>
  <rect x="90.1" y="6.32" width="26.14" height="63.59" fill="#d6d6d8" stroke="#9e9ea6" stroke-miterlimit="10" stroke-width=".75"/>
  <polygon points="115.74 5.57 111.02 .38 86.4 .38 89.91 5.57 115.74 5.57" fill="#d6d6d8" stroke="#9e9ea6" stroke-miterlimit="10" stroke-width=".75"/>
  <polygon points="89.45 5.88 89.34 69.05 86.07 64.29 86.07 1.18 89.45 5.88" fill="#d6d6d8" stroke="#9e9ea6" stroke-miterlimit="10" stroke-width=".75"/>
  <rect x="63.69" y="34.75" width="22.93" height="33.02" fill="#ceaf91" stroke="#ad8d73" stroke-linecap="round" stroke-miterlimit="10" stroke-width=".75"/>
  <rect x="63.69" y="34.75" width="22.93" height="12.99" fill="#ceaf91" stroke="#ad8d73" stroke-linecap="round" stroke-miterlimit="10" stroke-width=".75"/>
  <polygon points="48.94 34.41 60.63 67.66 63.69 67.77 63.69 34.75 48.94 34.41" fill="#c9a98f"/>
  <polygon points="71.75 34.41 83.45 67.66 86.5 67.77 86.5 34.75 71.75 34.41" fill="#c9a98f"/>
  <path d="M1.68,34.58l11.85,33.08c.29-.04.59-.08.88-.11-.15-6.61-.19-26.18-.34-32.79-2.78.04-9.61-.21-12.38-.17Z" fill="#c9a98f"/>
  <rect x="4.13" y="38.58" width="6.65" height="1.04" fill="#d6d6d8" stroke="#bcbcc1" stroke-linecap="round" stroke-linejoin="round" stroke-width=".2"/>
  <rect x="40.76" y="34.75" width="22.93" height="33.02" fill="none" stroke="#ad8d73" stroke-linecap="round" stroke-miterlimit="10" stroke-width=".75"/>
  <rect x="40.76" y="34.75" width="22.93" height="12.99" fill="none" stroke="#ad8d73" stroke-linecap="round" stroke-miterlimit="10" stroke-width=".75"/>
  <rect x=".4" y="34.75" width="14.22" height="33.02" fill="none" stroke="#ad8d73" stroke-linecap="round" stroke-miterlimit="10" stroke-width=".75"/>
  <rect x=".41" y="34.75" width="14.22" height="13" fill="none" stroke="#ad8d73" stroke-linecap="round" stroke-miterlimit="10" stroke-width=".75"/>
  <rect x="63.69" y="34.75" width="22.93" height="33.02" fill="none" stroke="#ad8d73" stroke-linecap="round" stroke-miterlimit="10" stroke-width=".75"/>
  <rect x="63.69" y="34.75" width="22.93" height="12.99" fill="none" stroke="#ad8d73" stroke-linecap="round" stroke-miterlimit="10" stroke-width=".75"/>
  <polygon points=".9 34.05 5.75 29.15 83.09 29.25 86.31 34.05 .9 34.05" fill="#ceaf91" stroke="#ad8d73" stroke-linecap="round" stroke-miterlimit="10" stroke-width=".75"/>
  <polygon points=".9 34.05 5.75 29.15 83.09 29.25 86.31 34.05 .9 34.05" fill="#ceaf91" stroke="#ad8d73" stroke-linecap="round" stroke-miterlimit="10" stroke-width=".75"/>
  <polygon points="6.9 38.56 6.18 39.63 4.64 39.63 5.32 38.56 6.9 38.56" fill="#bcbcc1"/>
  <rect x="15.37" y="34.05" width="24.63" height="1.01" fill="#d6d6d8" stroke="#d6d6d8" stroke-linecap="round" stroke-miterlimit="10" stroke-width=".75"/>
  <polygon points="8.25 38.62 7.51 39.71 7.14 39.63 7.82 38.56 8.25 38.62" fill="#bcbcc1"/>
  <rect x="48.61" y="38.58" width="6.65" height="1.04" fill="#d6d6d8" stroke="#bcbcc1" stroke-linecap="round" stroke-linejoin="round" stroke-width=".2"/>
  <polygon points="51.39 38.56 50.67 39.63 49.13 39.63 49.81 38.56 51.39 38.56" fill="#bcbcc1"/>
  <polygon points="52.73 38.62 51.99 39.71 51.62 39.63 52.3 38.56 52.73 38.62" fill="#bcbcc1"/>
  <rect x="71.85" y="38.58" width="6.65" height="1.04" fill="#d6d6d8" stroke="#bcbcc1" stroke-linecap="round" stroke-linejoin="round" stroke-width=".2"/>
  <polygon points="74.62 38.56 73.9 39.63 72.36 39.63 73.04 38.56 74.62 38.56" fill="#bcbcc1"/>
  <polygon points="75.97 38.62 75.23 39.71 74.86 39.63 75.54 38.56 75.97 38.62" fill="#bcbcc1"/>
  <rect x="4.13" y="51.08" width="6.65" height="1.04" fill="#d6d6d8" stroke="#bcbcc1" stroke-linecap="round" stroke-linejoin="round" stroke-width=".2"/>
  <polygon points="6.9 51.05 6.18 52.13 4.64 52.13 5.32 51.05 6.9 51.05" fill="#bcbcc1"/>
  <polygon points="8.25 51.11 7.51 52.2 7.14 52.13 7.82 51.05 8.25 51.11" fill="#bcbcc1"/>
  <rect x="48.61" y="51.08" width="6.65" height="1.04" fill="#d6d6d8" stroke="#bcbcc1" stroke-linecap="round" stroke-linejoin="round" stroke-width=".2"/>
  <polygon points="51.39 51.05 50.67 52.13 49.13 52.13 49.81 51.05 51.39 51.05" fill="#bcbcc1"/>
  <polygon points="52.73 51.11 51.99 52.2 51.62 52.13 52.3 51.05 52.73 51.11" fill="#bcbcc1"/>
  <rect x="71.85" y="51.08" width="6.65" height="1.04" fill="#d6d6d8" stroke="#bcbcc1" stroke-linecap="round" stroke-linejoin="round" stroke-width=".2"/>
  <polygon points="74.62 51.05 73.9 52.13 72.36 52.13 73.04 51.05 74.62 51.05" fill="#bcbcc1"/>
  <polygon points="75.97 51.11 75.23 52.2 74.86 52.13 75.54 51.05 75.97 51.11" fill="#bcbcc1"/>
  <polygon points="93.8 5.4 111.69 69 90.56 69.3 90.56 5.71 93.8 5.4" fill="#ceced6"/>
  <line x1="90.35" y1="30.59" x2="115.97" y2="30.59" fill="none" stroke="#9e9ea6" stroke-miterlimit="10" stroke-width=".75"/>
  <rect x="90.1" y="6.32" width="26.14" height="63.59" fill="none" stroke="#9e9ea6" stroke-miterlimit="10" stroke-width=".75"/>
  <polygon points="115.74 5.57 111.02 .38 86.4 .38 89.91 5.57 115.74 5.57" fill="none" stroke="#9e9ea6" stroke-miterlimit="10" stroke-width=".75"/>
  <polygon points="26.6 46.03 33.63 59.67 37.47 59.63 37.53 45.87 26.6 46.03" fill="#595651"/>
  <rect x="17.93" y="45.87" width="19.61" height="13.61" fill="none" stroke="#4f4c47" stroke-linecap="round" stroke-linejoin="round" stroke-width=".75"/>
  <polygon points="25.1 42.09 25.83 43.7 38.77 43.73 38.77 42.13 25.1 42.09" fill="#ceced6"/>
  <polygon points="26.43 62.48 27.06 63.65 31.37 63.69 31.37 62.51 26.43 62.48" fill="#ceced6"/>
  <rect x="16.49" y="42.09" width="22.43" height="1.68" fill="none" stroke="#afafaf" stroke-linecap="round" stroke-linejoin="round" stroke-width=".2"/>
  <path d="M15.43,33.42c.85-1.48,1.65-2.9,2.5-4.38,6.44,0,12.87.01,19.31.02.9,1.46,1.81,2.92,2.7,4.38-8.18.01-16.33-.03-24.51-.01Z" fill="#d6d6d8" stroke="#9b968e" stroke-linecap="round" stroke-miterlimit="10" stroke-width=".5"/>
  <line x1="38.1" y1="29.25" x2="40.93" y2="33.85" fill="none" stroke="#ad8d73" stroke-linecap="round" stroke-miterlimit="10" stroke-width=".75"/>
  <line x1="17.08" y1="29.25" x2="14.41" y2="33.92" fill="none" stroke="#ad8d73" stroke-linecap="round" stroke-miterlimit="10" stroke-width=".75"/>
  <ellipse cx="22.54" cy="30.37" rx="1.86" ry=".4" fill="#bababa" stroke="#afafaf" stroke-linecap="round" stroke-miterlimit="10" stroke-width=".2"/>
  <ellipse cx="21.57" cy="32.03" rx="2.55" ry=".54" fill="#bababa" stroke="#afafaf" stroke-linecap="round" stroke-miterlimit="10" stroke-width=".2"/>
  <ellipse cx="33.03" cy="30.37" rx="1.86" ry=".4" fill="#bababa" stroke="#afafaf" stroke-linecap="round" stroke-miterlimit="10" stroke-width=".2"/>
  <ellipse cx="33.6" cy="32.03" rx="2.55" ry=".54" fill="#bababa" stroke="#afafaf" stroke-linecap="round" stroke-miterlimit="10" stroke-width=".2"/>
  <rect x="89.24" y="20.96" width="10.39" height="1.68" transform="translate(116.23 -72.63) rotate(90)" fill="#bababa" stroke="#9e9ea6" stroke-linecap="round" stroke-linejoin="round" stroke-width=".2"/>
  <polygon points="95.23 23.77 93.66 19.21 93.63 16.61 95.24 16.61 95.23 23.77" fill="#ceced6"/>
  <rect x="89.24" y="20.96" width="10.39" height="1.68" transform="translate(116.23 -72.63) rotate(90)" fill="none" stroke="#afafaf" stroke-linecap="round" stroke-linejoin="round" stroke-width=".25"/>
  <rect x="87.7" y="40.04" width="13.47" height="1.68" transform="translate(135.31 -53.55) rotate(90)" fill="#bababa" stroke="#9e9ea6" stroke-linecap="round" stroke-linejoin="round" stroke-width=".2"/>
  <polygon points="95.23 43.81 93.66 39.26 93.63 36.65 95.24 36.65 95.23 43.81" fill="#ceced6"/>
  <polygon points="95.23 41.37 93.66 36.81 93.63 34.2 95.24 34.2 95.23 41.37" fill="#ceced6"/>
  <rect x="87.7" y="40.04" width="13.47" height="1.68" transform="translate(135.31 -53.55) rotate(90)" fill="none" stroke="#afafaf" stroke-linecap="round" stroke-linejoin="round" stroke-width=".25"/>
  <rect x="24.02" y="62.5" width="7.41" height="1.2" fill="none" stroke="#afafaf" stroke-linecap="round" stroke-linejoin="round" stroke-width=".2"/>
</svg>