<?xml version="1.0" encoding="UTF-8"?>
<svg id="main_bathroom" xmlns="http://www.w3.org/2000/svg" viewBox="0 0 135.36 277.2">
  <polygon points="33.02 246.86 33.02 246.86 33.03 246.75 35.25 230.32 37.19 215.86 38.91 203.13 40.46 191.64 41.84 181.34 41.85 181.28 41.85 181.28 43.11 171.97 44.25 163.52 59.98 163.52 60.07 163.52 75.75 163.52 75.8 163.52 91.48 163.52 91.57 163.52 107.26 163.52 107.3 163.52 122.99 163.52 123.08 163.52 136.59 163.52 136.59 -10.43 -1.45 -10.43 -1.45 163.52 12.64 163.52 12.74 163.52 28.41 163.52 28.47 163.52 44.24 163.52 43.09 172.02 41.84 181.28 41.84 181.34 41.84 181.34 40.46 191.59 40.46 191.59 40.45 191.65 38.91 203.06 37.19 215.86 37.19 215.86 37.17 215.98 35.24 230.32 35.24 230.32 35.22 230.42 33.01 246.86 30.48 265.58 30.48 265.58 30.47 265.7 28.21 282.45 28.22 282.45 30.5 265.58 33.02 246.86" fill="#d8c2ad"/>
  <polygon points="92.62 171.97 91.48 163.52 75.8 163.52 76.19 171.97 92.62 171.97" fill="#ddd5d0" stroke="#eae3df" stroke-miterlimit="10" stroke-width=".75"/>
  <polygon points="109.16 171.97 107.26 163.52 91.57 163.52 92.72 171.97 109.16 171.97" fill="#dbd0ca" stroke="#eae3df" stroke-miterlimit="10" stroke-width=".75"/>
  <polygon points="92.72 171.97 91.57 163.52 91.48 163.52 92.62 171.97 92.72 171.97" fill="#dbd0ca" stroke="#eae3df" stroke-miterlimit="10" stroke-width=".75"/>
  <polygon points="125.65 171.97 122.99 163.52 107.3 163.52 109.21 171.97 125.65 171.97" fill="#ddd5d0" stroke="#eae3df" stroke-miterlimit="10" stroke-width=".75"/>
  <polygon points="109.21 171.97 107.3 163.52 107.26 163.52 109.16 171.97 109.21 171.97" fill="#ddd5d0" stroke="#eae3df" stroke-miterlimit="10" stroke-width=".75"/>
  <polygon points="125.75 171.97 136.59 171.97 136.59 163.52 123.08 163.52 125.75 171.97 125.75 171.97" fill="#dbd0ca" stroke="#eae3df" stroke-miterlimit="10" stroke-width=".75"/>
  <polygon points="125.75 171.97 123.08 163.52 122.99 163.52 125.65 171.97 125.75 171.97" fill="#dbd0ca" stroke="#eae3df" stroke-miterlimit="10" stroke-width=".75"/>
  <polygon points="59.98 163.52 44.25 163.52 43.11 171.97 59.6 171.97 59.98 163.52" fill="#ddd5d0" stroke="#eae3df" stroke-miterlimit="10" stroke-width=".75"/>
  <polygon points="76.13 171.97 75.75 163.52 60.07 163.52 59.69 171.97 76.13 171.97" fill="#dbd0ca" stroke="#eae3df" stroke-miterlimit="10" stroke-width=".75"/>
  <polygon points="76.19 171.97 75.8 163.52 75.75 163.52 76.13 171.97 76.19 171.97" fill="#dbd0ca" stroke="#eae3df" stroke-miterlimit="10" stroke-width=".75"/>
  <polygon points="59.69 171.97 60.07 163.52 59.98 163.52 59.6 171.97 59.69 171.97" fill="#dbd0ca" stroke="#eae3df" stroke-miterlimit="10" stroke-width=".75"/>
  <polygon points="93.87 181.28 92.63 172.02 76.19 172.02 76.61 181.28 93.87 181.28" fill="#dbd0ca" stroke="#eae3df" stroke-miterlimit="10" stroke-width=".75"/>
  <polygon points="92.63 172.02 92.62 171.97 76.19 171.97 76.19 172.02 92.63 172.02" fill="#dbd0ca" stroke="#eae3df" stroke-miterlimit="10" stroke-width=".75"/>
  <polygon points="111.25 181.28 109.17 172.02 92.72 172.02 93.98 181.28 111.25 181.28" fill="#ddd5d0" stroke="#eae3df" stroke-miterlimit="10" stroke-width=".75"/>
  <polygon points="109.17 172.02 109.16 171.97 92.72 171.97 92.72 172.02 109.17 172.02" fill="#ddd5d0" stroke="#eae3df" stroke-miterlimit="10" stroke-width=".75"/>
  <polygon points="93.98 181.28 92.72 172.02 92.63 172.02 93.87 181.28 93.98 181.28" fill="#ddd5d0" stroke="#eae3df" stroke-miterlimit="10" stroke-width=".75"/>
  <polygon points="92.72 172.02 92.72 171.97 92.62 171.97 92.63 172.02 92.72 172.02" fill="#ddd5d0" stroke="#eae3df" stroke-miterlimit="10" stroke-width=".75"/>
  <polygon points="128.58 181.28 125.67 172.02 109.22 172.02 111.3 181.28 128.58 181.28" fill="#dbd0ca" stroke="#eae3df" stroke-miterlimit="10" stroke-width=".75"/>
  <polygon points="125.67 172.02 125.65 171.97 109.21 171.97 109.22 172.02 125.67 172.02" fill="#dbd0ca" stroke="#eae3df" stroke-miterlimit="10" stroke-width=".75"/>
  <polygon points="111.3 181.28 111.3 181.28 109.22 172.02 109.17 172.02 111.25 181.28 111.3 181.28" fill="#dbd0ca" stroke="#eae3df" stroke-miterlimit="10" stroke-width=".75"/>
  <polygon points="109.22 172.02 109.21 171.97 109.16 171.97 109.17 172.02 109.22 172.02" fill="#dbd0ca" stroke="#eae3df" stroke-miterlimit="10" stroke-width=".75"/>
  <polygon points="128.68 181.28 136.59 181.28 136.59 172.02 125.76 172.02 128.68 181.28" fill="#ddd5d0" stroke="#eae3df" stroke-miterlimit="10" stroke-width=".75"/>
  <polygon points="125.76 172.02 136.59 172.02 136.59 171.97 125.75 171.97 125.76 172.02" fill="#ddd5d0" stroke="#eae3df" stroke-miterlimit="10" stroke-width=".75"/>
  <polygon points="125.67 172.02 128.58 181.28 128.68 181.28 128.68 181.28 125.76 172.02 125.76 172.02 125.67 172.02" fill="#ddd5d0" stroke="#eae3df" stroke-miterlimit="10" stroke-width=".75"/>
  <rect x="125.75" y="171.97" width="0" height=".05" transform="translate(-45.86 45.73) rotate(-17.48)" fill="#ddd5d0" stroke="#eae3df" stroke-miterlimit="10" stroke-width=".75"/>
  <polygon points="125.76 172.02 125.75 171.97 125.65 171.97 125.67 172.02 125.76 172.02" fill="#ddd5d0" stroke="#eae3df" stroke-miterlimit="10" stroke-width=".75"/>
  <polygon points="59.18 181.28 59.6 172.02 43.1 172.02 43.11 171.97 41.85 181.28 59.18 181.28 59.18 181.28" fill="#dbd0ca" stroke="#eae3df" stroke-miterlimit="10" stroke-width=".75"/>
  <polygon points="59.6 172.02 59.6 171.97 43.11 171.97 43.1 172.02 59.6 172.02" fill="#dbd0ca" stroke="#eae3df" stroke-miterlimit="10" stroke-width=".75"/>
  <polygon points="76.13 172.02 59.69 172.02 59.28 181.28 76.55 181.28 76.13 172.02" fill="#ddd5d0" stroke="#eae3df" stroke-miterlimit="10" stroke-width=".75"/>
  <polygon points="76.13 172.02 76.13 171.97 59.69 171.97 59.69 172.02 76.13 172.02" fill="#ddd5d0" stroke="#eae3df" stroke-miterlimit="10" stroke-width=".75"/>
  <polygon points="76.55 181.28 76.61 181.28 76.19 172.02 76.13 172.02 76.55 181.28 76.55 181.28" fill="#ddd5d0" stroke="#eae3df" stroke-miterlimit="10" stroke-width=".75"/>
  <polygon points="76.19 172.02 76.19 171.97 76.13 171.97 76.13 172.02 76.19 172.02" fill="#ddd5d0" stroke="#eae3df" stroke-miterlimit="10" stroke-width=".75"/>
  <polygon points="59.69 172.02 59.6 172.02 59.18 181.28 59.28 181.28 59.69 172.02" fill="#ddd5d0" stroke="#eae3df" stroke-miterlimit="10" stroke-width=".75"/>
  <polygon points="59.69 171.97 59.6 171.97 59.6 172.02 59.69 172.02 59.69 171.97" fill="#ddd5d0" stroke="#eae3df" stroke-miterlimit="10" stroke-width=".75"/>
  <polygon points="93.88 181.34 76.61 181.34 77.07 191.59 95.26 191.59 93.88 181.34" fill="#ddd5d0" stroke="#eae3df" stroke-miterlimit="10" stroke-width=".75"/>
  <polygon points="93.88 181.34 93.87 181.28 76.61 181.28 76.61 181.34 93.88 181.34" fill="#ddd5d0" stroke="#eae3df" stroke-miterlimit="10" stroke-width=".75"/>
  <polygon points="95.37 191.59 113.57 191.59 111.26 181.34 93.98 181.34 95.37 191.59 95.37 191.59" fill="#dbd0ca" stroke="#eae3df" stroke-miterlimit="10" stroke-width=".75"/>
  <polygon points="111.26 181.34 111.25 181.28 93.98 181.28 93.98 181.34 111.26 181.34" fill="#dbd0ca" stroke="#eae3df" stroke-miterlimit="10" stroke-width=".75"/>
  <polygon points="95.37 191.59 93.98 181.34 93.88 181.34 95.26 191.59 95.37 191.59" fill="#dbd0ca" stroke="#eae3df" stroke-miterlimit="10" stroke-width=".75"/>
  <polygon points="93.98 181.34 93.98 181.28 93.87 181.28 93.88 181.34 93.98 181.34" fill="#dbd0ca" stroke="#eae3df" stroke-miterlimit="10" stroke-width=".75"/>
  <polygon points="111.31 181.34 113.62 191.59 131.82 191.59 131.82 191.59 128.6 181.34 111.31 181.34 111.31 181.34" fill="#ddd5d0" stroke="#eae3df" stroke-miterlimit="10" stroke-width=".75"/>
  <polygon points="111.31 181.34 128.6 181.34 128.58 181.28 111.3 181.28 111.31 181.34" fill="#ddd5d0" stroke="#eae3df" stroke-miterlimit="10" stroke-width=".75"/>
  <rect x="111.31" y="181.28" width="0" height=".06" transform="translate(-37.06 28.83) rotate(-12.67)" fill="#ddd5d0" stroke="#eae3df" stroke-miterlimit="10" stroke-width=".75"/>
  <polygon points="113.57 191.59 113.62 191.59 111.31 181.34 111.26 181.34 113.57 191.59" fill="#ddd5d0" stroke="#eae3df" stroke-miterlimit="10" stroke-width=".75"/>
  <polygon points="111.31 181.34 111.3 181.28 111.25 181.28 111.26 181.34 111.31 181.34" fill="#ddd5d0" stroke="#eae3df" stroke-miterlimit="10" stroke-width=".75"/>
  <polygon points="128.7 181.34 131.93 191.59 131.93 191.59 136.59 191.59 136.59 181.34 128.7 181.34 128.7 181.34" fill="#dbd0ca" stroke="#eae3df" stroke-miterlimit="10" stroke-width=".75"/>
  <polygon points="128.7 181.34 136.59 181.34 136.59 181.28 128.68 181.28 128.7 181.34" fill="#dbd0ca" stroke="#eae3df" stroke-miterlimit="10" stroke-width=".75"/>
  <rect x="128.69" y="181.28" width="0" height=".06" fill="#dbd0ca" stroke="#eae3df" stroke-miterlimit="10" stroke-width=".75"/>
  <polygon points="131.82 191.59 131.93 191.59 128.7 181.34 128.6 181.34 131.82 191.59" fill="#dbd0ca" stroke="#eae3df" stroke-miterlimit="10" stroke-width=".75"/>
  <polygon points="128.58 181.28 128.6 181.34 128.7 181.34 128.68 181.28 128.58 181.28" fill="#dbd0ca" stroke="#eae3df" stroke-miterlimit="10" stroke-width=".75"/>
  <polygon points="58.72 191.59 59.18 181.34 41.84 181.34 40.46 191.64 40.46 191.59 58.72 191.59" fill="#ddd5d0" stroke="#eae3df" stroke-miterlimit="10" stroke-width=".75"/>
  <polygon points="59.18 181.28 41.85 181.28 41.84 181.34 59.18 181.34 59.18 181.28" fill="#ddd5d0" stroke="#eae3df" stroke-miterlimit="10" stroke-width=".75"/>
  <polygon points="41.85 181.28 41.84 181.34 41.85 181.28 41.85 181.28" fill="#ddd5d0" stroke="#eae3df" stroke-miterlimit="10" stroke-width=".75"/>
  <polygon points="76.55 181.34 76.55 181.34 59.28 181.34 58.82 191.59 77.01 191.59 76.55 181.34" fill="#dbd0ca" stroke="#eae3df" stroke-miterlimit="10" stroke-width=".75"/>
  <polygon points="76.55 181.28 59.28 181.28 59.28 181.34 76.55 181.34 76.55 181.28" fill="#dbd0ca" stroke="#eae3df" stroke-miterlimit="10" stroke-width=".75"/>
  <rect x="76.55" y="181.28" width="0" height=".06" transform="translate(-8.18 3.68) rotate(-2.61)" fill="#dbd0ca" stroke="#eae3df" stroke-miterlimit="10" stroke-width=".75"/>
  <polygon points="76.61 181.34 76.55 181.34 77.01 191.59 77.07 191.59 76.61 181.34" fill="#dbd0ca" stroke="#eae3df" stroke-miterlimit="10" stroke-width=".75"/>
  <polygon points="76.61 181.28 76.55 181.28 76.55 181.34 76.61 181.34 76.61 181.28" fill="#dbd0ca" stroke="#eae3df" stroke-miterlimit="10" stroke-width=".75"/>
  <polygon points="59.28 181.34 59.18 181.34 59.18 181.34 58.72 191.59 58.82 191.59 59.28 181.34" fill="#dbd0ca" stroke="#eae3df" stroke-miterlimit="10" stroke-width=".75"/>
  <rect x="59.18" y="181.28" width="0" height=".06" fill="#dbd0ca" stroke="#eae3df" stroke-miterlimit="10" stroke-width=".75"/>
  <polygon points="59.28 181.34 59.28 181.28 59.18 181.28 59.18 181.34 59.28 181.34" fill="#dbd0ca" stroke="#eae3df" stroke-miterlimit="10" stroke-width=".75"/>
  <polygon points="95.27 191.65 77.08 191.65 77.59 203.06 96.81 203.06 95.27 191.65" fill="#dbd0ca" stroke="#eae3df" stroke-miterlimit="10" stroke-width=".75"/>
  <polygon points="95.26 191.59 77.07 191.59 77.08 191.65 95.27 191.65 95.26 191.59" fill="#dbd0ca" stroke="#eae3df" stroke-miterlimit="10" stroke-width=".75"/>
  <polygon points="96.92 203.06 116.14 203.06 113.58 191.65 95.38 191.65 96.92 203.06" fill="#ddd5d0" stroke="#eae3df" stroke-miterlimit="10" stroke-width=".75"/>
  <polygon points="95.37 191.59 95.38 191.65 113.58 191.65 113.57 191.59 95.37 191.59" fill="#ddd5d0" stroke="#eae3df" stroke-miterlimit="10" stroke-width=".75"/>
  <polygon points="95.38 191.65 95.27 191.65 96.81 203.06 96.81 203.06 96.92 203.06 95.38 191.65 95.38 191.65" fill="#ddd5d0" stroke="#eae3df" stroke-miterlimit="10" stroke-width=".75"/>
  <rect x="95.37" y="191.59" width="0" height=".06" fill="#ddd5d0" stroke="#eae3df" stroke-miterlimit="10" stroke-width=".75"/>
  <polygon points="95.26 191.59 95.27 191.65 95.38 191.65 95.37 191.59 95.26 191.59" fill="#ddd5d0" stroke="#eae3df" stroke-miterlimit="10" stroke-width=".75"/>
  <polygon points="116.2 203.06 116.2 203.06 135.43 203.06 131.84 191.65 113.64 191.65 116.2 203.06" fill="#dbd0ca" stroke="#eae3df" stroke-miterlimit="10" stroke-width=".75"/>
  <polygon points="113.62 191.59 113.64 191.65 131.84 191.65 131.82 191.59 113.62 191.59" fill="#dbd0ca" stroke="#eae3df" stroke-miterlimit="10" stroke-width=".75"/>
  <polygon points="113.58 191.65 116.14 203.06 116.2 203.06 113.64 191.65 113.58 191.65" fill="#dbd0ca" stroke="#eae3df" stroke-miterlimit="10" stroke-width=".75"/>
  <polygon points="113.58 191.65 113.64 191.65 113.62 191.59 113.57 191.59 113.58 191.65" fill="#dbd0ca" stroke="#eae3df" stroke-miterlimit="10" stroke-width=".75"/>
  <polygon points="135.54 203.06 136.59 203.06 136.59 191.65 131.95 191.65 135.54 203.06" fill="#ddd5d0" stroke="#eae3df" stroke-miterlimit="10" stroke-width=".75"/>
  <polygon points="131.95 191.65 136.59 191.65 136.59 191.59 131.93 191.59 131.95 191.65" fill="#ddd5d0" stroke="#eae3df" stroke-miterlimit="10" stroke-width=".75"/>
  <polygon points="131.84 191.65 131.84 191.65 135.43 203.06 135.43 203.06 135.54 203.06 131.95 191.65 131.95 191.65 131.84 191.65" fill="#ddd5d0" stroke="#eae3df" stroke-miterlimit="10" stroke-width=".75"/>
  <rect x="131.83" y="191.59" width="0" height=".07" fill="#ddd5d0" stroke="#eae3df" stroke-miterlimit="10" stroke-width=".75"/>
  <rect x="131.94" y="191.59" width="0" height=".07" transform="translate(-51.54 48.57) rotate(-17.51)" fill="#ddd5d0" stroke="#eae3df" stroke-miterlimit="10" stroke-width=".75"/>
  <polygon points="131.84 191.65 131.95 191.65 131.93 191.59 131.82 191.59 131.84 191.65" fill="#ddd5d0" stroke="#eae3df" stroke-miterlimit="10" stroke-width=".75"/>
  <polygon points="58.2 203.06 58.71 191.65 40.46 191.65 40.46 191.64 38.91 203.13 38.92 203.06 58.2 203.06" fill="#dbd0ca" stroke="#eae3df" stroke-miterlimit="10" stroke-width=".75"/>
  <polygon points="58.71 191.65 58.72 191.59 40.46 191.59 40.46 191.64 40.46 191.65 58.71 191.65" fill="#dbd0ca" stroke="#eae3df" stroke-miterlimit="10" stroke-width=".75"/>
  <polygon points="77.01 191.65 58.82 191.65 58.31 203.06 77.53 203.06 77.01 191.65" fill="#ddd5d0" stroke="#eae3df" stroke-miterlimit="10" stroke-width=".75"/>
  <polygon points="77.01 191.59 58.82 191.59 58.82 191.65 77.01 191.65 77.01 191.59" fill="#ddd5d0" stroke="#eae3df" stroke-miterlimit="10" stroke-width=".75"/>
  <polygon points="77.08 191.65 77.01 191.65 77.53 203.06 77.59 203.06 77.08 191.65" fill="#ddd5d0" stroke="#eae3df" stroke-miterlimit="10" stroke-width=".75"/>
  <polygon points="77.07 191.59 77.01 191.59 77.01 191.65 77.08 191.65 77.07 191.59" fill="#ddd5d0" stroke="#eae3df" stroke-miterlimit="10" stroke-width=".75"/>
  <polygon points="58.31 203.06 58.82 191.65 58.71 191.65 58.2 203.06 58.2 203.06 58.31 203.06" fill="#ddd5d0" stroke="#eae3df" stroke-miterlimit="10" stroke-width=".75"/>
  <polygon points="58.82 191.59 58.72 191.59 58.71 191.65 58.82 191.65 58.82 191.59" fill="#ddd5d0" stroke="#eae3df" stroke-miterlimit="10" stroke-width=".75"/>
  <polygon points="96.82 203.13 96.82 203.13 77.6 203.13 78.17 215.86 98.53 215.86 96.82 203.13" fill="#ddd5d0" stroke="#eae3df" stroke-miterlimit="10" stroke-width=".75"/>
  <polygon points="96.81 203.06 77.59 203.06 77.6 203.13 96.82 203.13 96.81 203.06" fill="#ddd5d0" stroke="#eae3df" stroke-miterlimit="10" stroke-width=".75"/>
  <rect x="96.81" y="203.06" width="0" height=".07" transform="translate(-26.35 14.81) rotate(-7.7)" fill="#ddd5d0" stroke="#eae3df" stroke-miterlimit="10" stroke-width=".75"/>
  <polygon points="98.65 215.86 119.02 215.86 116.16 203.13 96.93 203.13 98.65 215.86" fill="#dbd0ca" stroke="#eae3df" stroke-miterlimit="10" stroke-width=".75"/>
  <polygon points="96.92 203.06 96.93 203.13 116.16 203.13 116.14 203.06 96.92 203.06" fill="#dbd0ca" stroke="#eae3df" stroke-miterlimit="10" stroke-width=".75"/>
  <polygon points="98.53 215.86 98.65 215.86 96.93 203.13 96.82 203.13 98.53 215.86" fill="#dbd0ca" stroke="#eae3df" stroke-miterlimit="10" stroke-width=".75"/>
  <polygon points="96.82 203.13 96.93 203.13 96.92 203.06 96.81 203.06 96.82 203.13" fill="#dbd0ca" stroke="#eae3df" stroke-miterlimit="10" stroke-width=".75"/>
  <polygon points="135.45 203.13 116.22 203.13 119.08 215.86 136.59 215.86 136.59 206.76 135.45 203.13 135.45 203.13" fill="#ddd5d0" stroke="#eae3df" stroke-miterlimit="10" stroke-width=".75"/>
  <polygon points="116.2 203.06 116.22 203.13 135.45 203.13 135.43 203.06 116.2 203.06" fill="#ddd5d0" stroke="#eae3df" stroke-miterlimit="10" stroke-width=".75"/>
  <rect x="135.44" y="203.06" width="0" height=".07" transform="translate(-54.65 49.94) rotate(-17.44)" fill="#ddd5d0" stroke="#eae3df" stroke-miterlimit="10" stroke-width=".75"/>
  <polygon points="116.16 203.13 119.02 215.86 119.08 215.86 116.22 203.13 116.22 203.13 116.16 203.13" fill="#ddd5d0" stroke="#eae3df" stroke-miterlimit="10" stroke-width=".75"/>
  <rect x="116.21" y="203.06" width="0" height=".07" transform="translate(-41.78 30.49) rotate(-12.69)" fill="#ddd5d0" stroke="#eae3df" stroke-miterlimit="10" stroke-width=".75"/>
  <polygon points="116.16 203.13 116.22 203.13 116.2 203.06 116.14 203.06 116.16 203.13" fill="#ddd5d0" stroke="#eae3df" stroke-miterlimit="10" stroke-width=".75"/>
  <polygon points="136.59 206.39 136.59 203.13 135.56 203.13 136.59 206.39" fill="#dbd0ca" stroke="#eae3df" stroke-miterlimit="10" stroke-width=".75"/>
  <polygon points="135.56 203.13 136.59 203.13 136.59 203.06 135.54 203.06 135.56 203.13" fill="#dbd0ca" stroke="#eae3df" stroke-miterlimit="10" stroke-width=".75"/>
  <polygon points="135.45 203.13 136.59 206.76 136.59 206.39 135.56 203.13 135.45 203.13" fill="#dbd0ca" stroke="#eae3df" stroke-miterlimit="10" stroke-width=".75"/>
  <polygon points="135.45 203.13 135.56 203.13 135.54 203.06 135.43 203.06 135.45 203.13" fill="#dbd0ca" stroke="#eae3df" stroke-miterlimit="10" stroke-width=".75"/>
  <polygon points="57.62 215.86 58.2 203.13 58.2 203.13 38.91 203.13 37.19 215.86 57.62 215.86 57.62 215.86" fill="#ddd5d0" stroke="#eae3df" stroke-miterlimit="10" stroke-width=".75"/>
  <polygon points="58.2 203.06 38.92 203.06 38.91 203.13 58.2 203.13 58.2 203.06" fill="#ddd5d0" stroke="#eae3df" stroke-miterlimit="10" stroke-width=".75"/>
  <rect x="58.16" y="203.09" width=".07" height="0" transform="translate(-147.28 252.2) rotate(-87.45)" fill="#ddd5d0" stroke="#eae3df" stroke-miterlimit="10" stroke-width=".75"/>
  <polygon points="77.53 203.13 58.31 203.13 57.74 215.86 78.1 215.86 77.53 203.13" fill="#dbd0ca" stroke="#eae3df" stroke-miterlimit="10" stroke-width=".75"/>
  <polygon points="77.53 203.06 58.31 203.06 58.31 203.13 77.53 203.13 77.53 203.06" fill="#dbd0ca" stroke="#eae3df" stroke-miterlimit="10" stroke-width=".75"/>
  <polygon points="77.6 203.13 77.53 203.13 78.1 215.86 78.17 215.86 77.6 203.13" fill="#dbd0ca" stroke="#eae3df" stroke-miterlimit="10" stroke-width=".75"/>
  <polygon points="77.59 203.06 77.53 203.06 77.53 203.13 77.6 203.13 77.59 203.06" fill="#dbd0ca" stroke="#eae3df" stroke-miterlimit="10" stroke-width=".75"/>
  <polygon points="57.74 215.86 58.31 203.13 58.2 203.13 57.62 215.86 57.74 215.86 57.74 215.86" fill="#dbd0ca" stroke="#eae3df" stroke-miterlimit="10" stroke-width=".75"/>
  <polygon points="58.31 203.06 58.2 203.06 58.2 203.13 58.31 203.13 58.31 203.06" fill="#dbd0ca" stroke="#eae3df" stroke-miterlimit="10" stroke-width=".75"/>
  <polygon points="43.1 171.97 43.09 172.02 44.24 163.52 28.47 163.52 26.57 171.97 43.1 171.97" fill="#dbd0ca" stroke="#eae3df" stroke-miterlimit="10" stroke-width=".75"/>
  <polygon points="9.98 171.97 12.64 163.52 -1.45 163.52 -1.45 171.97 9.98 171.97" fill="#dbd0ca" stroke="#eae3df" stroke-miterlimit="10" stroke-width=".75"/>
  <polygon points="10.08 171.97 26.51 171.97 28.41 163.52 12.74 163.52 10.08 171.97 10.08 171.97" fill="#ddd5d0" stroke="#eae3df" stroke-miterlimit="10" stroke-width=".75"/>
  <polygon points="26.57 171.97 26.57 171.97 28.47 163.52 28.41 163.52 26.51 171.97 26.57 171.97" fill="#ddd5d0" stroke="#eae3df" stroke-miterlimit="10" stroke-width=".75"/>
  <polygon points="10.08 171.97 12.74 163.52 12.64 163.52 9.98 171.97 10.08 171.97" fill="#ddd5d0" stroke="#eae3df" stroke-miterlimit="10" stroke-width=".75"/>
  <polygon points="26.56 172.02 24.48 181.28 41.84 181.28 43.09 172.02 26.56 172.02 26.56 172.02" fill="#ddd5d0" stroke="#eae3df" stroke-miterlimit="10" stroke-width=".75"/>
  <polygon points="26.57 171.97 26.56 172.02 43.09 172.02 43.1 171.97 26.57 171.97" fill="#ddd5d0" stroke="#eae3df" stroke-miterlimit="10" stroke-width=".75"/>
  <rect x="26.54" y="172" width=".05" height="0" transform="translate(-147.07 160.19) rotate(-77.33)" fill="#ddd5d0" stroke="#eae3df" stroke-miterlimit="10" stroke-width=".75"/>
  <polygon points="9.96 172.02 -1.45 172.02 -1.45 181.28 7.05 181.28 9.96 172.02" fill="#ddd5d0" stroke="#eae3df" stroke-miterlimit="10" stroke-width=".75"/>
  <polygon points="9.96 172.02 9.98 171.97 -1.45 171.97 -1.45 172.02 9.96 172.02" fill="#ddd5d0" stroke="#eae3df" stroke-miterlimit="10" stroke-width=".75"/>
  <polygon points="24.42 181.28 26.5 172.02 10.06 172.02 7.15 181.28 24.42 181.28" fill="#dbd0ca" stroke="#eae3df" stroke-miterlimit="10" stroke-width=".75"/>
  <polygon points="26.5 172.02 26.51 171.97 10.08 171.97 10.06 172.02 26.5 172.02" fill="#dbd0ca" stroke="#eae3df" stroke-miterlimit="10" stroke-width=".75"/>
  <polygon points="24.42 181.28 24.48 181.28 26.56 172.02 26.5 172.02 24.42 181.28" fill="#dbd0ca" stroke="#eae3df" stroke-miterlimit="10" stroke-width=".75"/>
  <polygon points="26.56 172.02 26.57 171.97 26.51 171.97 26.5 172.02 26.56 172.02" fill="#dbd0ca" stroke="#eae3df" stroke-miterlimit="10" stroke-width=".75"/>
  <polygon points="7.15 181.28 10.06 172.02 10.06 172.02 9.96 172.02 7.05 181.28 7.15 181.28" fill="#dbd0ca" stroke="#eae3df" stroke-miterlimit="10" stroke-width=".75"/>
  <rect x="10.04" y="172" width=".05" height="0" transform="translate(-157.05 130.11) rotate(-72.58)" fill="#dbd0ca" stroke="#eae3df" stroke-miterlimit="10" stroke-width=".75"/>
  <polygon points="10.06 172.02 10.08 171.97 9.98 171.97 9.96 172.02 10.06 172.02" fill="#dbd0ca" stroke="#eae3df" stroke-miterlimit="10" stroke-width=".75"/>
  <polygon points="22.16 191.59 40.46 191.59 41.84 181.34 24.46 181.34 22.16 191.59" fill="#dbd0ca" stroke="#eae3df" stroke-miterlimit="10" stroke-width=".75"/>
  <polygon points="24.46 181.34 41.84 181.34 41.84 181.28 24.48 181.28 24.46 181.34" fill="#dbd0ca" stroke="#eae3df" stroke-miterlimit="10" stroke-width=".75"/>
  <polygon points="41.84 181.34 41.84 181.28 41.84 181.34 41.84 181.34" fill="#dbd0ca" stroke="#eae3df" stroke-miterlimit="10" stroke-width=".75"/>
  <polygon points="7.03 181.34 -1.45 181.34 -1.45 191.59 3.8 191.59 7.03 181.34" fill="#dbd0ca" stroke="#eae3df" stroke-miterlimit="10" stroke-width=".75"/>
  <polygon points="7.05 181.28 -1.45 181.28 -1.45 181.34 7.03 181.34 7.05 181.28" fill="#dbd0ca" stroke="#eae3df" stroke-miterlimit="10" stroke-width=".75"/>
  <polygon points="3.91 191.59 22.1 191.59 24.4 181.34 7.13 181.34 3.91 191.59" fill="#ddd5d0" stroke="#eae3df" stroke-miterlimit="10" stroke-width=".75"/>
  <polygon points="7.13 181.34 24.4 181.34 24.42 181.28 7.15 181.28 7.13 181.34" fill="#ddd5d0" stroke="#eae3df" stroke-miterlimit="10" stroke-width=".75"/>
  <polygon points="22.1 191.59 22.16 191.59 24.46 181.34 24.4 181.34 22.1 191.59" fill="#ddd5d0" stroke="#eae3df" stroke-miterlimit="10" stroke-width=".75"/>
  <polygon points="24.4 181.34 24.46 181.34 24.48 181.28 24.42 181.28 24.4 181.34" fill="#ddd5d0" stroke="#eae3df" stroke-miterlimit="10" stroke-width=".75"/>
  <polygon points="7.13 181.34 7.03 181.34 3.8 191.59 3.91 191.59 7.13 181.34" fill="#ddd5d0" stroke="#eae3df" stroke-miterlimit="10" stroke-width=".75"/>
  <polygon points="7.15 181.28 7.05 181.28 7.03 181.34 7.13 181.34 7.15 181.28" fill="#ddd5d0" stroke="#eae3df" stroke-miterlimit="10" stroke-width=".75"/>
  <polygon points="19.58 203.06 19.58 203.06 38.91 203.06 40.45 191.65 22.15 191.65 19.58 203.06" fill="#ddd5d0" stroke="#eae3df" stroke-miterlimit="10" stroke-width=".75"/>
  <polygon points="22.15 191.65 40.45 191.65 40.46 191.59 22.16 191.59 22.15 191.65" fill="#ddd5d0" stroke="#eae3df" stroke-miterlimit="10" stroke-width=".75"/>
  <polygon points="40.46 191.59 40.46 191.59 40.45 191.65 40.46 191.59" fill="#ddd5d0" stroke="#eae3df" stroke-miterlimit="10" stroke-width=".75"/>
  <polygon points="3.78 191.65 -1.45 191.65 -1.45 203.06 .19 203.06 3.78 191.65" fill="#ddd5d0" stroke="#eae3df" stroke-miterlimit="10" stroke-width=".75"/>
  <polygon points="3.8 191.59 -1.45 191.59 -1.45 191.65 3.78 191.65 3.8 191.59" fill="#ddd5d0" stroke="#eae3df" stroke-miterlimit="10" stroke-width=".75"/>
  <polygon points=".3 203.06 19.52 203.06 19.52 203.06 22.08 191.65 3.89 191.65 .3 203.06" fill="#dbd0ca" stroke="#eae3df" stroke-miterlimit="10" stroke-width=".75"/>
  <polygon points="3.89 191.65 22.08 191.65 22.1 191.59 3.91 191.59 3.89 191.65" fill="#dbd0ca" stroke="#eae3df" stroke-miterlimit="10" stroke-width=".75"/>
  <polygon points="19.52 203.06 19.58 203.06 22.15 191.65 22.08 191.65 19.52 203.06" fill="#dbd0ca" stroke="#eae3df" stroke-miterlimit="10" stroke-width=".75"/>
  <polygon points="22.08 191.65 22.15 191.65 22.16 191.59 22.1 191.59 22.08 191.65" fill="#dbd0ca" stroke="#eae3df" stroke-miterlimit="10" stroke-width=".75"/>
  <polygon points="3.89 191.65 3.78 191.65 .19 203.06 .3 203.06 3.89 191.65" fill="#dbd0ca" stroke="#eae3df" stroke-miterlimit="10" stroke-width=".75"/>
  <polygon points="3.91 191.59 3.8 191.59 3.78 191.65 3.89 191.65 3.91 191.59" fill="#dbd0ca" stroke="#eae3df" stroke-miterlimit="10" stroke-width=".75"/>
  <polygon points="19.57 203.13 16.71 215.86 37.19 215.86 38.91 203.06 38.9 203.13 19.57 203.13" fill="#dbd0ca" stroke="#eae3df" stroke-miterlimit="10" stroke-width=".75"/>
  <polygon points="19.57 203.13 38.9 203.13 38.91 203.06 19.58 203.06 19.57 203.13" fill="#dbd0ca" stroke="#eae3df" stroke-miterlimit="10" stroke-width=".75"/>
  <polygon points="-1.45 203.13 -1.45 208.26 .17 203.13 -1.45 203.13" fill="#dbd0ca" stroke="#eae3df" stroke-miterlimit="10" stroke-width=".75"/>
  <polygon points=".19 203.06 -1.45 203.06 -1.45 203.13 .17 203.13 .19 203.06" fill="#dbd0ca" stroke="#eae3df" stroke-miterlimit="10" stroke-width=".75"/>
  <polygon points="19.5 203.13 .28 203.13 -1.45 208.63 -1.45 215.86 16.64 215.86 19.5 203.13" fill="#ddd5d0" stroke="#eae3df" stroke-miterlimit="10" stroke-width=".75"/>
  <polygon points=".3 203.06 .28 203.13 19.5 203.13 19.52 203.06 .3 203.06" fill="#ddd5d0" stroke="#eae3df" stroke-miterlimit="10" stroke-width=".75"/>
  <polygon points="19.5 203.13 19.5 203.13 16.64 215.86 16.71 215.86 19.57 203.13 19.57 203.13 19.5 203.13" fill="#ddd5d0" stroke="#eae3df" stroke-miterlimit="10" stroke-width=".75"/>
  <rect x="19.54" y="203.09" width=".07" height="0" transform="translate(-182.88 177.74) rotate(-77.36)" fill="#ddd5d0" stroke="#eae3df" stroke-miterlimit="10" stroke-width=".75"/>
  <rect x="19.51" y="203.06" width="0" height=".07" fill="#ddd5d0" stroke="#eae3df" stroke-miterlimit="10" stroke-width=".75"/>
  <polygon points="19.5 203.13 19.57 203.13 19.58 203.06 19.52 203.06 19.5 203.13" fill="#ddd5d0" stroke="#eae3df" stroke-miterlimit="10" stroke-width=".75"/>
  <polygon points=".17 203.13 -1.45 208.26 -1.45 208.63 .28 203.13 .17 203.13" fill="#ddd5d0" stroke="#eae3df" stroke-miterlimit="10" stroke-width=".75"/>
  <polygon points=".19 203.06 .17 203.13 .28 203.13 .3 203.06 .19 203.06" fill="#ddd5d0" stroke="#eae3df" stroke-miterlimit="10" stroke-width=".75"/>
  <polygon points="100.48 230.32 98.55 215.98 78.18 215.98 78.83 230.32 100.48 230.32 100.48 230.32" fill="#dbd0ca" stroke="#eae3df" stroke-miterlimit="10" stroke-width=".75"/>
  <polygon points="98.53 215.86 78.17 215.86 78.18 215.98 98.55 215.98 98.53 215.86" fill="#dbd0ca" stroke="#eae3df" stroke-miterlimit="10" stroke-width=".75"/>
  <polygon points="100.61 230.32 122.27 230.32 119.05 215.98 98.67 215.98 100.61 230.32" fill="#ddd5d0" stroke="#eae3df" stroke-miterlimit="10" stroke-width=".75"/>
  <polygon points="98.67 215.98 119.05 215.98 119.02 215.86 98.65 215.86 98.67 215.98" fill="#ddd5d0" stroke="#eae3df" stroke-miterlimit="10" stroke-width=".75"/>
  <polygon points="100.48 230.32 100.61 230.32 98.67 215.98 98.55 215.98 100.48 230.32" fill="#ddd5d0" stroke="#eae3df" stroke-miterlimit="10" stroke-width=".75"/>
  <polygon points="98.55 215.98 98.67 215.98 98.65 215.86 98.53 215.86 98.55 215.98" fill="#ddd5d0" stroke="#eae3df" stroke-miterlimit="10" stroke-width=".75"/>
  <polygon points="122.34 230.32 136.59 230.32 136.59 215.98 119.11 215.98 122.34 230.32" fill="#dbd0ca" stroke="#eae3df" stroke-miterlimit="10" stroke-width=".75"/>
  <polygon points="119.11 215.98 136.59 215.98 136.59 215.86 119.08 215.86 119.11 215.98" fill="#dbd0ca" stroke="#eae3df" stroke-miterlimit="10" stroke-width=".75"/>
  <polygon points="122.27 230.32 122.34 230.32 119.11 215.98 119.05 215.98 122.27 230.32" fill="#dbd0ca" stroke="#eae3df" stroke-miterlimit="10" stroke-width=".75"/>
  <polygon points="119.05 215.98 119.11 215.98 119.08 215.86 119.02 215.86 119.05 215.98" fill="#dbd0ca" stroke="#eae3df" stroke-miterlimit="10" stroke-width=".75"/>
  <polygon points="57.62 215.98 37.18 215.98 37.19 215.86 35.25 230.32 56.97 230.32 57.62 215.98" fill="#dbd0ca" stroke="#eae3df" stroke-miterlimit="10" stroke-width=".75"/>
  <polygon points="57.62 215.98 57.62 215.86 37.19 215.86 37.18 215.98 57.62 215.98" fill="#dbd0ca" stroke="#eae3df" stroke-miterlimit="10" stroke-width=".75"/>
  <polygon points="78.11 215.98 57.74 215.98 57.74 215.98 57.1 230.32 78.75 230.32 78.11 215.98" fill="#ddd5d0" stroke="#eae3df" stroke-miterlimit="10" stroke-width=".75"/>
  <polygon points="78.11 215.98 78.1 215.86 57.74 215.86 57.74 215.98 78.11 215.98" fill="#ddd5d0" stroke="#eae3df" stroke-miterlimit="10" stroke-width=".75"/>
  <rect x="57.74" y="215.86" width="0" height=".12" fill="#ddd5d0" stroke="#eae3df" stroke-miterlimit="10" stroke-width=".75"/>
  <polygon points="78.18 215.98 78.11 215.98 78.75 230.32 78.83 230.32 78.18 215.98" fill="#ddd5d0" stroke="#eae3df" stroke-miterlimit="10" stroke-width=".75"/>
  <polygon points="78.17 215.86 78.1 215.86 78.11 215.98 78.18 215.98 78.17 215.86" fill="#ddd5d0" stroke="#eae3df" stroke-miterlimit="10" stroke-width=".75"/>
  <polygon points="57.74 215.98 57.62 215.98 57.62 215.98 56.97 230.32 57.1 230.32 57.74 215.98" fill="#ddd5d0" stroke="#eae3df" stroke-miterlimit="10" stroke-width=".75"/>
  <rect x="57.62" y="215.86" width="0" height=".12" fill="#ddd5d0" stroke="#eae3df" stroke-miterlimit="10" stroke-width=".75"/>
  <polygon points="57.74 215.98 57.74 215.86 57.62 215.86 57.62 215.98 57.74 215.98" fill="#ddd5d0" stroke="#eae3df" stroke-miterlimit="10" stroke-width=".75"/>
  <polygon points="78.83 230.42 79.57 246.75 102.69 246.75 100.49 230.42 78.83 230.42" fill="#ddd5d0" stroke="#eae3df" stroke-miterlimit="10" stroke-width=".75"/>
  <polygon points="100.48 230.32 78.83 230.32 78.83 230.42 100.49 230.42 100.48 230.32" fill="#ddd5d0" stroke="#eae3df" stroke-miterlimit="10" stroke-width=".75"/>
  <polygon points="102.83 246.75 125.96 246.75 122.29 230.42 100.62 230.42 102.83 246.75" fill="#dbd0ca" stroke="#eae3df" stroke-miterlimit="10" stroke-width=".75"/>
  <polygon points="100.62 230.42 122.29 230.42 122.27 230.32 100.61 230.32 100.62 230.42" fill="#dbd0ca" stroke="#eae3df" stroke-miterlimit="10" stroke-width=".75"/>
  <polygon points="100.49 230.42 102.69 246.75 102.83 246.75 100.62 230.42 100.49 230.42 100.49 230.42" fill="#dbd0ca" stroke="#eae3df" stroke-miterlimit="10" stroke-width=".75"/>
  <rect x="100.49" y="230.32" width="0" height=".09" fill="#dbd0ca" stroke="#eae3df" stroke-miterlimit="10" stroke-width=".75"/>
  <polygon points="100.49 230.42 100.62 230.42 100.61 230.32 100.48 230.32 100.49 230.42" fill="#dbd0ca" stroke="#eae3df" stroke-miterlimit="10" stroke-width=".75"/>
  <polygon points="126.03 246.75 136.59 246.75 136.59 230.42 122.36 230.42 126.03 246.75" fill="#ddd5d0" stroke="#eae3df" stroke-miterlimit="10" stroke-width=".75"/>
  <polygon points="122.36 230.42 136.59 230.42 136.59 230.32 122.34 230.32 122.36 230.42" fill="#ddd5d0" stroke="#eae3df" stroke-miterlimit="10" stroke-width=".75"/>
  <polygon points="125.96 246.75 126.03 246.75 122.36 230.42 122.29 230.42 125.96 246.75" fill="#ddd5d0" stroke="#eae3df" stroke-miterlimit="10" stroke-width=".75"/>
  <polygon points="122.29 230.42 122.36 230.42 122.34 230.32 122.27 230.32 122.29 230.42" fill="#ddd5d0" stroke="#eae3df" stroke-miterlimit="10" stroke-width=".75"/>
  <polygon points="56.97 230.42 35.23 230.42 35.25 230.32 33.03 246.75 56.23 246.75 56.97 230.42" fill="#ddd5d0" stroke="#eae3df" stroke-miterlimit="10" stroke-width=".75"/>
  <polygon points="56.97 230.42 56.97 230.32 35.25 230.32 35.23 230.42 56.97 230.42" fill="#ddd5d0" stroke="#eae3df" stroke-miterlimit="10" stroke-width=".75"/>
  <polygon points="78.76 230.42 57.1 230.42 56.37 246.75 79.49 246.75 78.76 230.42" fill="#dbd0ca" stroke="#eae3df" stroke-miterlimit="10" stroke-width=".75"/>
  <polygon points="78.75 230.32 57.1 230.32 57.1 230.42 78.76 230.42 78.75 230.32" fill="#dbd0ca" stroke="#eae3df" stroke-miterlimit="10" stroke-width=".75"/>
  <polygon points="79.57 246.75 78.83 230.42 78.76 230.42 79.49 246.75 79.57 246.75 79.57 246.75" fill="#dbd0ca" stroke="#eae3df" stroke-miterlimit="10" stroke-width=".75"/>
  <polygon points="78.83 230.32 78.75 230.32 78.76 230.42 78.83 230.42 78.83 230.32" fill="#dbd0ca" stroke="#eae3df" stroke-miterlimit="10" stroke-width=".75"/>
  <polygon points="57.1 230.42 56.97 230.42 56.23 246.75 56.37 246.75 57.1 230.42" fill="#dbd0ca" stroke="#eae3df" stroke-miterlimit="10" stroke-width=".75"/>
  <polygon points="57.1 230.32 56.97 230.32 56.97 230.42 57.1 230.42 57.1 230.32" fill="#dbd0ca" stroke="#eae3df" stroke-miterlimit="10" stroke-width=".75"/>
  <polygon points="79.58 246.86 79.58 246.86 80.42 265.58 105.23 265.58 102.71 246.86 79.58 246.86" fill="#dbd0ca" stroke="#eae3df" stroke-miterlimit="10" stroke-width=".75"/>
  <polygon points="79.57 246.75 79.58 246.86 102.71 246.86 102.69 246.75 79.57 246.75" fill="#dbd0ca" stroke="#eae3df" stroke-miterlimit="10" stroke-width=".75"/>
  <rect x="79.57" y="246.75" width="0" height=".1" transform="translate(-10.99 3.82) rotate(-2.57)" fill="#dbd0ca" stroke="#eae3df" stroke-miterlimit="10" stroke-width=".75"/>
  <polygon points="102.84 246.86 105.38 265.58 130.19 265.58 125.99 246.86 102.84 246.86" fill="#ddd5d0" stroke="#eae3df" stroke-miterlimit="10" stroke-width=".75"/>
  <polygon points="102.84 246.86 125.99 246.86 125.96 246.75 102.83 246.75 102.84 246.86" fill="#ddd5d0" stroke="#eae3df" stroke-miterlimit="10" stroke-width=".75"/>
  <polygon points="102.71 246.86 105.23 265.58 105.38 265.58 102.84 246.86 102.71 246.86" fill="#ddd5d0" stroke="#eae3df" stroke-miterlimit="10" stroke-width=".75"/>
  <polygon points="102.69 246.75 102.71 246.86 102.84 246.86 102.83 246.75 102.69 246.75" fill="#ddd5d0" stroke="#eae3df" stroke-miterlimit="10" stroke-width=".75"/>
  <polygon points="130.27 265.58 136.59 265.58 136.59 246.86 126.06 246.86 130.27 265.58" fill="#dbd0ca" stroke="#eae3df" stroke-miterlimit="10" stroke-width=".75"/>
  <polygon points="126.06 246.86 136.59 246.86 136.59 246.75 126.03 246.75 126.06 246.86" fill="#dbd0ca" stroke="#eae3df" stroke-miterlimit="10" stroke-width=".75"/>
  <polygon points="130.19 265.58 130.27 265.58 126.06 246.86 125.99 246.86 130.19 265.58" fill="#dbd0ca" stroke="#eae3df" stroke-miterlimit="10" stroke-width=".75"/>
  <polygon points="125.99 246.86 126.06 246.86 126.03 246.75 125.96 246.75 125.99 246.86" fill="#dbd0ca" stroke="#eae3df" stroke-miterlimit="10" stroke-width=".75"/>
  <polygon points="56.23 246.86 33.02 246.86 30.5 265.58 55.39 265.58 56.23 246.86" fill="#dbd0ca" stroke="#eae3df" stroke-miterlimit="10" stroke-width=".75"/>
  <polygon points="56.23 246.75 33.03 246.75 33.02 246.86 56.23 246.86 56.23 246.75" fill="#dbd0ca" stroke="#eae3df" stroke-miterlimit="10" stroke-width=".75"/>
  <polygon points="33.02 246.86 33.02 246.86 33.03 246.75 33.02 246.86" fill="#dbd0ca" stroke="#eae3df" stroke-miterlimit="10" stroke-width=".75"/>
  <polygon points="56.37 246.86 55.53 265.58 80.34 265.58 79.5 246.86 56.37 246.86" fill="#ddd5d0" stroke="#eae3df" stroke-miterlimit="10" stroke-width=".75"/>
  <polygon points="79.49 246.75 56.37 246.75 56.37 246.86 79.5 246.86 79.49 246.75" fill="#ddd5d0" stroke="#eae3df" stroke-miterlimit="10" stroke-width=".75"/>
  <polygon points="79.5 246.86 80.34 265.58 80.42 265.58 80.42 265.58 79.58 246.86 79.5 246.86" fill="#ddd5d0" stroke="#eae3df" stroke-miterlimit="10" stroke-width=".75"/>
  <polygon points="79.49 246.75 79.5 246.86 79.58 246.86 79.57 246.75 79.49 246.75" fill="#ddd5d0" stroke="#eae3df" stroke-miterlimit="10" stroke-width=".75"/>
  <polygon points="56.37 246.86 56.23 246.86 55.39 265.58 55.53 265.58 55.53 265.58 56.37 246.86" fill="#ddd5d0" stroke="#eae3df" stroke-miterlimit="10" stroke-width=".75"/>
  <polygon points="56.37 246.75 56.23 246.75 56.23 246.86 56.37 246.86 56.37 246.75" fill="#ddd5d0" stroke="#eae3df" stroke-miterlimit="10" stroke-width=".75"/>
  <polygon points="80.43 265.7 80.43 265.7 81.19 282.45 107.5 282.45 105.25 265.7 80.43 265.7" fill="#ddd5d0" stroke="#eae3df" stroke-miterlimit="10" stroke-width=".75"/>
  <polygon points="80.42 265.58 80.43 265.7 105.25 265.7 105.23 265.58 80.42 265.58" fill="#ddd5d0" stroke="#eae3df" stroke-miterlimit="10" stroke-width=".75"/>
  <rect x="80.43" y="265.58" width="0" height=".12" transform="translate(-11.91 3.9) rotate(-2.59)" fill="#ddd5d0" stroke="#eae3df" stroke-miterlimit="10" stroke-width=".75"/>
  <polygon points="105.39 265.7 107.66 282.45 133.99 282.45 130.22 265.7 105.39 265.7" fill="#dbd0ca" stroke="#eae3df" stroke-miterlimit="10" stroke-width=".75"/>
  <polygon points="105.38 265.58 105.39 265.7 130.22 265.7 130.19 265.58 105.38 265.58" fill="#dbd0ca" stroke="#eae3df" stroke-miterlimit="10" stroke-width=".75"/>
  <polygon points="105.25 265.7 107.5 282.45 107.66 282.45 105.39 265.7 105.25 265.7" fill="#dbd0ca" stroke="#eae3df" stroke-miterlimit="10" stroke-width=".75"/>
  <polygon points="105.23 265.58 105.25 265.7 105.39 265.7 105.38 265.58 105.23 265.58" fill="#dbd0ca" stroke="#eae3df" stroke-miterlimit="10" stroke-width=".75"/>
  <polygon points="130.29 265.7 134.06 282.45 136.59 282.45 136.59 265.7 130.29 265.7" fill="#ddd5d0" stroke="#eae3df" stroke-miterlimit="10" stroke-width=".75"/>
  <polygon points="130.29 265.7 136.59 265.7 136.59 265.58 130.27 265.58 130.29 265.7" fill="#ddd5d0" stroke="#eae3df" stroke-miterlimit="10" stroke-width=".75"/>
  <polygon points="130.22 265.7 133.99 282.45 134.06 282.45 130.29 265.7 130.22 265.7" fill="#ddd5d0" stroke="#eae3df" stroke-miterlimit="10" stroke-width=".75"/>
  <polygon points="130.19 265.58 130.22 265.7 130.29 265.7 130.27 265.58 130.19 265.58" fill="#ddd5d0" stroke="#eae3df" stroke-miterlimit="10" stroke-width=".75"/>
  <polygon points="55.38 265.7 30.48 265.7 30.5 265.58 28.22 282.45 54.63 282.45 55.38 265.7" fill="#ddd5d0" stroke="#eae3df" stroke-miterlimit="10" stroke-width=".75"/>
  <polygon points="30.5 265.58 30.48 265.7 55.38 265.7 55.39 265.58 30.5 265.58" fill="#ddd5d0" stroke="#eae3df" stroke-miterlimit="10" stroke-width=".75"/>
  <polygon points="55.53 265.7 55.53 265.7 54.78 282.45 81.1 282.45 80.34 265.7 55.53 265.7" fill="#dbd0ca" stroke="#eae3df" stroke-miterlimit="10" stroke-width=".75"/>
  <polygon points="55.53 265.58 55.53 265.7 80.34 265.7 80.34 265.58 55.53 265.58" fill="#dbd0ca" stroke="#eae3df" stroke-miterlimit="10" stroke-width=".75"/>
  <rect x="55.47" y="265.64" width=".12" height="0" transform="translate(-212.32 309.25) rotate(-87.44)" fill="#dbd0ca" stroke="#eae3df" stroke-miterlimit="10" stroke-width=".75"/>
  <polygon points="80.34 265.7 81.1 282.45 81.19 282.45 80.43 265.7 80.34 265.7" fill="#dbd0ca" stroke="#eae3df" stroke-miterlimit="10" stroke-width=".75"/>
  <polygon points="80.34 265.58 80.34 265.7 80.43 265.7 80.42 265.58 80.34 265.58" fill="#dbd0ca" stroke="#eae3df" stroke-miterlimit="10" stroke-width=".75"/>
  <polygon points="55.38 265.7 54.63 282.45 54.78 282.45 55.53 265.7 55.38 265.7" fill="#dbd0ca" stroke="#eae3df" stroke-miterlimit="10" stroke-width=".75"/>
  <polygon points="55.53 265.58 55.39 265.58 55.38 265.7 55.53 265.7 55.53 265.58" fill="#dbd0ca" stroke="#eae3df" stroke-miterlimit="10" stroke-width=".75"/>
  <polygon points="13.46 230.32 13.46 230.32 35.24 230.32 37.17 215.98 16.68 215.98 13.46 230.32" fill="#ddd5d0" stroke="#eae3df" stroke-miterlimit="10" stroke-width=".75"/>
  <polygon points="16.68 215.98 37.17 215.98 37.19 215.86 16.71 215.86 16.68 215.98" fill="#ddd5d0" stroke="#eae3df" stroke-miterlimit="10" stroke-width=".75"/>
  <polygon points="37.19 215.86 37.19 215.86 37.17 215.98 37.19 215.86" fill="#ddd5d0" stroke="#eae3df" stroke-miterlimit="10" stroke-width=".75"/>
  <polygon points="16.61 215.98 -1.45 215.98 -1.45 230.32 13.38 230.32 16.61 215.98" fill="#dbd0ca" stroke="#eae3df" stroke-miterlimit="10" stroke-width=".75"/>
  <polygon points="16.64 215.86 -1.45 215.86 -1.45 215.98 16.61 215.98 16.64 215.86" fill="#dbd0ca" stroke="#eae3df" stroke-miterlimit="10" stroke-width=".75"/>
  <polygon points="13.38 230.32 13.46 230.32 16.68 215.98 16.61 215.98 13.38 230.32" fill="#dbd0ca" stroke="#eae3df" stroke-miterlimit="10" stroke-width=".75"/>
  <polygon points="16.61 215.98 16.68 215.98 16.71 215.86 16.64 215.86 16.61 215.98" fill="#dbd0ca" stroke="#eae3df" stroke-miterlimit="10" stroke-width=".75"/>
  <polygon points="9.76 246.75 33.02 246.75 33.01 246.86 35.22 230.42 13.44 230.42 9.76 246.75" fill="#dbd0ca" stroke="#eae3df" stroke-miterlimit="10" stroke-width=".75"/>
  <polygon points="13.44 230.42 35.22 230.42 35.24 230.32 13.46 230.32 13.44 230.42" fill="#dbd0ca" stroke="#eae3df" stroke-miterlimit="10" stroke-width=".75"/>
  <polygon points="35.24 230.32 35.24 230.32 35.22 230.42 35.24 230.32" fill="#dbd0ca" stroke="#eae3df" stroke-miterlimit="10" stroke-width=".75"/>
  <polygon points="9.68 246.75 13.36 230.42 -1.45 230.42 -1.45 246.75 9.68 246.75 9.68 246.75" fill="#ddd5d0" stroke="#eae3df" stroke-miterlimit="10" stroke-width=".75"/>
  <polygon points="13.38 230.32 -1.45 230.32 -1.45 230.42 13.36 230.42 13.38 230.32" fill="#ddd5d0" stroke="#eae3df" stroke-miterlimit="10" stroke-width=".75"/>
  <polygon points="13.36 230.42 9.68 246.75 9.76 246.75 13.44 230.42 13.44 230.42 13.36 230.42" fill="#ddd5d0" stroke="#eae3df" stroke-miterlimit="10" stroke-width=".75"/>
  <rect x="13.4" y="230.37" width=".09" height="0" transform="translate(-214.27 193.02) rotate(-77.34)" fill="#ddd5d0" stroke="#eae3df" stroke-miterlimit="10" stroke-width=".75"/>
  <polygon points="13.36 230.42 13.44 230.42 13.46 230.32 13.38 230.32 13.36 230.42" fill="#ddd5d0" stroke="#eae3df" stroke-miterlimit="10" stroke-width=".75"/>
  <polygon points="5.53 265.58 30.48 265.58 33.01 246.86 9.74 246.86 5.53 265.58" fill="#ddd5d0" stroke="#eae3df" stroke-miterlimit="10" stroke-width=".75"/>
  <polygon points="9.76 246.75 9.74 246.86 33.01 246.86 33.02 246.75 9.76 246.75" fill="#ddd5d0" stroke="#eae3df" stroke-miterlimit="10" stroke-width=".75"/>
  <polygon points="-1.45 246.86 -1.45 265.58 5.45 265.58 9.66 246.86 -1.45 246.86" fill="#dbd0ca" stroke="#eae3df" stroke-miterlimit="10" stroke-width=".75"/>
  <polygon points="9.68 246.75 -1.45 246.75 -1.45 246.86 9.66 246.86 9.68 246.75" fill="#dbd0ca" stroke="#eae3df" stroke-miterlimit="10" stroke-width=".75"/>
  <polygon points="9.66 246.86 5.45 265.58 5.53 265.58 9.74 246.86 9.66 246.86 9.66 246.86" fill="#dbd0ca" stroke="#eae3df" stroke-miterlimit="10" stroke-width=".75"/>
  <rect x="9.67" y="246.75" width="0" height=".11" fill="#dbd0ca" stroke="#eae3df" stroke-miterlimit="10" stroke-width=".75"/>
  <polygon points="9.66 246.86 9.74 246.86 9.76 246.75 9.68 246.75 9.66 246.86" fill="#dbd0ca" stroke="#eae3df" stroke-miterlimit="10" stroke-width=".75"/>
  <polygon points="5.51 265.7 1.74 282.45 28.21 282.45 30.47 265.7 5.51 265.7" fill="#dbd0ca" stroke="#eae3df" stroke-miterlimit="10" stroke-width=".75"/>
  <polygon points="5.51 265.7 30.47 265.7 30.48 265.58 5.53 265.58 5.51 265.7" fill="#dbd0ca" stroke="#eae3df" stroke-miterlimit="10" stroke-width=".75"/>
  <polygon points="30.48 265.58 30.48 265.58 30.47 265.7 30.48 265.58" fill="#dbd0ca" stroke="#eae3df" stroke-miterlimit="10" stroke-width=".75"/>
  <polygon points="-1.45 265.7 -1.45 282.45 1.65 282.45 5.42 265.7 -1.45 265.7" fill="#ddd5d0" stroke="#eae3df" stroke-miterlimit="10" stroke-width=".75"/>
  <polygon points="-1.45 265.7 5.42 265.7 5.45 265.58 -1.45 265.58 -1.45 265.7" fill="#ddd5d0" stroke="#eae3df" stroke-miterlimit="10" stroke-width=".75"/>
  <polygon points="1.65 282.45 1.74 282.45 5.51 265.7 5.42 265.7 1.65 282.45" fill="#ddd5d0" stroke="#eae3df" stroke-miterlimit="10" stroke-width=".75"/>
  <polygon points="5.45 265.58 5.42 265.7 5.51 265.7 5.53 265.58 5.45 265.58" fill="#ddd5d0" stroke="#eae3df" stroke-miterlimit="10" stroke-width=".75"/>
</svg>